<?xml version="1.0" encoding="utf-8" standalone="no"?>
<!DOCTYPE svg PUBLIC "-//W3C//DTD SVG 1.1//EN"
  "http://www.w3.org/Graphics/SVG/1.1/DTD/svg11.dtd">
<!-- Created with matplotlib (https://matplotlib.org/) -->
<svg height="446.939375pt" version="1.1" viewBox="0 0 980.50875 446.939375" width="980.50875pt" xmlns="http://www.w3.org/2000/svg" xmlns:xlink="http://www.w3.org/1999/xlink">
 <defs>
  <style type="text/css">
*{stroke-linecap:butt;stroke-linejoin:round;white-space:pre;}
  </style>
 </defs>
 <g id="figure_1">
  <g id="patch_1">
   <path d="M 0 446.939375 
L 980.50875 446.939375 
L 980.50875 0 
L 0 0 
z
" style="fill:#ffffff;"/>
  </g>
  <g id="axes_1">
   <g id="patch_2">
    <path d="M 80.50875 387.72 
L 973.30875 387.72 
L 973.30875 7.2 
L 80.50875 7.2 
z
" style="fill:#ffffff;"/>
   </g>
   <g id="matplotlib.axis_1">
    <g id="xtick_1">
     <g id="line2d_1">
      <defs>
       <path d="M 0 0 
L 0 -6 
" id="md2ff896924" style="stroke:#333333;stroke-width:0.8;"/>
      </defs>
      <g>
       <use style="fill:#333333;stroke:#333333;stroke-width:0.8;" x="392.382911" xlink:href="#md2ff896924" y="387.72"/>
      </g>
     </g>
     <g id="text_1">
      <!-- $\mathdefault{10^{1}}$ -->
      <defs>
       <path d="M 13.71875 0 
L 13.71875 5.90625 
L 27.390625 5.90625 
L 27.390625 64.890625 
L 12.203125 55.90625 
L 12.203125 63.1875 
L 30.515625 74.21875 
L 45.90625 74.21875 
L 45.90625 5.90625 
L 59.625 5.90625 
L 59.625 0 
z
" id="DejaVuSerif-Bold-49"/>
       <path d="M 34.8125 4.296875 
Q 40.671875 4.296875 42.84375 9.609375 
Q 45.015625 14.9375 45.015625 36.375 
Q 45.015625 57.671875 42.84375 63.078125 
Q 40.671875 68.5 34.8125 68.5 
Q 28.953125 68.5 26.78125 63.171875 
Q 24.609375 57.859375 24.609375 36.375 
Q 24.609375 14.9375 26.78125 9.609375 
Q 28.953125 4.296875 34.8125 4.296875 
z
M 34.8125 -1.421875 
Q 20.21875 -1.421875 12.453125 8.3125 
Q 4.6875 18.0625 4.6875 36.375 
Q 4.6875 54.6875 12.453125 64.453125 
Q 20.21875 74.21875 34.8125 74.21875 
Q 49.359375 74.21875 57.125 64.453125 
Q 64.890625 54.6875 64.890625 36.375 
Q 64.890625 18.0625 57.125 8.3125 
Q 49.359375 -1.421875 34.8125 -1.421875 
z
" id="DejaVuSerif-Bold-48"/>
      </defs>
      <g style="fill:#333333;" transform="translate(371.262911 407.936562)scale(0.22 -0.22)">
       <use transform="translate(0 0.7125)" xlink:href="#DejaVuSerif-Bold-49"/>
       <use transform="translate(69.580078 0.7125)" xlink:href="#DejaVuSerif-Bold-48"/>
       <use transform="translate(140.068516 37.046875)scale(0.7)" xlink:href="#DejaVuSerif-Bold-49"/>
      </g>
     </g>
    </g>
    <g id="xtick_2">
     <g id="line2d_2">
      <g>
       <use style="fill:#333333;stroke:#333333;stroke-width:0.8;" x="807.703098" xlink:href="#md2ff896924" y="387.72"/>
      </g>
     </g>
     <g id="text_2">
      <!-- $\mathdefault{10^{2}}$ -->
      <defs>
       <path d="M 13.1875 54.890625 
L 7.328125 54.890625 
L 7.328125 70.609375 
Q 13.28125 72.40625 19.109375 73.3125 
Q 24.953125 74.21875 30.90625 74.21875 
Q 44.828125 74.21875 52.609375 68.53125 
Q 60.40625 62.84375 60.40625 52.6875 
Q 60.40625 45.453125 56.109375 39.71875 
Q 51.8125 33.984375 39.703125 26.125 
L 19.390625 12.796875 
L 53.90625 12.796875 
L 53.90625 21.390625 
L 60.59375 21.390625 
L 60.59375 0 
L 6.6875 0 
L 6.6875 11.921875 
L 17.484375 19.390625 
Q 31.296875 28.90625 35.890625 35.59375 
Q 40.484375 42.28125 40.484375 51.21875 
Q 40.484375 59.671875 36.984375 64.078125 
Q 33.5 68.5 26.8125 68.5 
Q 21.046875 68.5 17.578125 65.015625 
Q 14.109375 61.53125 13.1875 54.890625 
z
" id="DejaVuSerif-Bold-50"/>
      </defs>
      <g style="fill:#333333;" transform="translate(786.583098 407.936562)scale(0.22 -0.22)">
       <use transform="translate(0 0.7125)" xlink:href="#DejaVuSerif-Bold-49"/>
       <use transform="translate(69.580078 0.7125)" xlink:href="#DejaVuSerif-Bold-48"/>
       <use transform="translate(140.068516 37.046875)scale(0.7)" xlink:href="#DejaVuSerif-Bold-50"/>
      </g>
     </g>
    </g>
    <g id="xtick_3">
     <g id="line2d_3">
      <defs>
       <path d="M 0 0 
L 0 -3 
" id="m92c351d5c5" style="stroke:#333333;stroke-width:0.6;"/>
      </defs>
      <g>
       <use style="fill:#333333;stroke:#333333;stroke-width:0.6;" x="102.086559" xlink:href="#m92c351d5c5" y="387.72"/>
      </g>
     </g>
    </g>
    <g id="xtick_4">
     <g id="line2d_4">
      <g>
       <use style="fill:#333333;stroke:#333333;stroke-width:0.6;" x="175.220813" xlink:href="#m92c351d5c5" y="387.72"/>
      </g>
     </g>
    </g>
    <g id="xtick_5">
     <g id="line2d_5">
      <g>
       <use style="fill:#333333;stroke:#333333;stroke-width:0.6;" x="227.110393" xlink:href="#m92c351d5c5" y="387.72"/>
      </g>
     </g>
    </g>
    <g id="xtick_6">
     <g id="line2d_6">
      <g>
       <use style="fill:#333333;stroke:#333333;stroke-width:0.6;" x="267.359077" xlink:href="#m92c351d5c5" y="387.72"/>
      </g>
     </g>
    </g>
    <g id="xtick_7">
     <g id="line2d_7">
      <g>
       <use style="fill:#333333;stroke:#333333;stroke-width:0.6;" x="300.244647" xlink:href="#m92c351d5c5" y="387.72"/>
      </g>
     </g>
    </g>
    <g id="xtick_8">
     <g id="line2d_8">
      <g>
       <use style="fill:#333333;stroke:#333333;stroke-width:0.6;" x="328.049" xlink:href="#m92c351d5c5" y="387.72"/>
      </g>
     </g>
    </g>
    <g id="xtick_9">
     <g id="line2d_9">
      <g>
       <use style="fill:#333333;stroke:#333333;stroke-width:0.6;" x="352.134227" xlink:href="#m92c351d5c5" y="387.72"/>
      </g>
     </g>
    </g>
    <g id="xtick_10">
     <g id="line2d_10">
      <g>
       <use style="fill:#333333;stroke:#333333;stroke-width:0.6;" x="373.378902" xlink:href="#m92c351d5c5" y="387.72"/>
      </g>
     </g>
    </g>
    <g id="xtick_11">
     <g id="line2d_11">
      <g>
       <use style="fill:#333333;stroke:#333333;stroke-width:0.6;" x="517.406745" xlink:href="#m92c351d5c5" y="387.72"/>
      </g>
     </g>
    </g>
    <g id="xtick_12">
     <g id="line2d_12">
      <g>
       <use style="fill:#333333;stroke:#333333;stroke-width:0.6;" x="590.541" xlink:href="#m92c351d5c5" y="387.72"/>
      </g>
     </g>
    </g>
    <g id="xtick_13">
     <g id="line2d_13">
      <g>
       <use style="fill:#333333;stroke:#333333;stroke-width:0.6;" x="642.430579" xlink:href="#m92c351d5c5" y="387.72"/>
      </g>
     </g>
    </g>
    <g id="xtick_14">
     <g id="line2d_14">
      <g>
       <use style="fill:#333333;stroke:#333333;stroke-width:0.6;" x="682.679264" xlink:href="#m92c351d5c5" y="387.72"/>
      </g>
     </g>
    </g>
    <g id="xtick_15">
     <g id="line2d_15">
      <g>
       <use style="fill:#333333;stroke:#333333;stroke-width:0.6;" x="715.564834" xlink:href="#m92c351d5c5" y="387.72"/>
      </g>
     </g>
    </g>
    <g id="xtick_16">
     <g id="line2d_16">
      <g>
       <use style="fill:#333333;stroke:#333333;stroke-width:0.6;" x="743.369187" xlink:href="#m92c351d5c5" y="387.72"/>
      </g>
     </g>
    </g>
    <g id="xtick_17">
     <g id="line2d_17">
      <g>
       <use style="fill:#333333;stroke:#333333;stroke-width:0.6;" x="767.454413" xlink:href="#m92c351d5c5" y="387.72"/>
      </g>
     </g>
    </g>
    <g id="xtick_18">
     <g id="line2d_18">
      <g>
       <use style="fill:#333333;stroke:#333333;stroke-width:0.6;" x="788.699088" xlink:href="#m92c351d5c5" y="387.72"/>
      </g>
     </g>
    </g>
    <g id="xtick_19">
     <g id="line2d_19">
      <g>
       <use style="fill:#333333;stroke:#333333;stroke-width:0.6;" x="932.726932" xlink:href="#m92c351d5c5" y="387.72"/>
      </g>
     </g>
    </g>
    <g id="text_3">
     <!-- $m_p$ -->
     <defs>
      <path d="M 60.6875 43.40625 
Q 64.3125 48.578125 68.5 50.953125 
Q 72.703125 53.328125 78.328125 53.328125 
Q 87.25 53.328125 91.671875 48.265625 
Q 96.09375 43.21875 96.09375 33.015625 
L 96.09375 5.90625 
L 103.515625 5.90625 
L 103.515625 0 
L 72.609375 0 
L 72.609375 5.90625 
L 78.8125 5.90625 
L 78.8125 30.421875 
Q 78.8125 40.140625 77.3125 42.671875 
Q 75.828125 45.21875 71.78125 45.21875 
Q 67.1875 45.21875 64.640625 41.671875 
Q 62.109375 38.140625 62.109375 31.59375 
L 62.109375 5.90625 
L 68.3125 5.90625 
L 68.3125 0 
L 38.625 0 
L 38.625 5.90625 
L 44.828125 5.90625 
L 44.828125 30.421875 
Q 44.828125 40.140625 43.3125 42.671875 
Q 41.796875 45.21875 37.796875 45.21875 
Q 33.15625 45.21875 30.609375 41.671875 
Q 28.078125 38.140625 28.078125 31.59375 
L 28.078125 5.90625 
L 34.28125 5.90625 
L 34.28125 0 
L 3.421875 0 
L 3.421875 5.90625 
L 10.796875 5.90625 
L 10.796875 46 
L 3.421875 46 
L 3.421875 51.90625 
L 28.078125 51.90625 
L 28.078125 44.578125 
Q 31.109375 49.125 35.015625 51.21875 
Q 38.921875 53.328125 44.28125 53.328125 
Q 50.640625 53.328125 54.59375 50.90625 
Q 58.546875 48.484375 60.6875 43.40625 
z
" id="DejaVuSerif-Bold-109"/>
      <path d="M 27 28.515625 
L 27 23.390625 
Q 27 14.3125 29.3125 10.25 
Q 31.640625 6.203125 36.8125 6.203125 
Q 42.140625 6.203125 44.3125 10.5 
Q 46.484375 14.796875 46.484375 25.984375 
Q 46.484375 37.15625 44.3125 41.421875 
Q 42.140625 45.703125 36.8125 45.703125 
Q 31.640625 45.703125 29.3125 41.640625 
Q 27 37.59375 27 28.515625 
z
M 9.71875 46 
L 2.296875 46 
L 2.296875 51.90625 
L 27 51.90625 
L 27 45.3125 
Q 29.203125 49.359375 32.90625 51.34375 
Q 36.625 53.328125 42.09375 53.328125 
Q 53.171875 53.328125 59.546875 46.015625 
Q 65.921875 38.71875 65.921875 25.984375 
Q 65.921875 13.234375 59.546875 5.90625 
Q 53.171875 -1.421875 42.09375 -1.421875 
Q 36.625 -1.421875 32.90625 0.5625 
Q 29.203125 2.546875 27 6.59375 
L 27 -14.890625 
L 35.015625 -14.890625 
L 35.015625 -20.796875 
L 2.296875 -20.796875 
L 2.296875 -14.890625 
L 9.71875 -14.890625 
z
" id="DejaVuSerif-Bold-112"/>
     </defs>
     <g transform="translate(507.82875 432.299375)scale(0.24 -0.24)">
      <use transform="translate(0 0.671875)" xlink:href="#DejaVuSerif-Bold-109"/>
      <use transform="translate(106.718906 -14.9)scale(0.7)" xlink:href="#DejaVuSerif-Bold-112"/>
     </g>
    </g>
   </g>
   <g id="matplotlib.axis_2">
    <g id="ytick_1">
     <g id="line2d_20">
      <defs>
       <path d="M 0 0 
L 6 0 
" id="m3bc4fa5156" style="stroke:#333333;stroke-width:0.8;"/>
      </defs>
      <g>
       <use style="fill:#333333;stroke:#333333;stroke-width:0.8;" x="80.50875" xlink:href="#m3bc4fa5156" y="342.092582"/>
      </g>
     </g>
     <g id="text_4">
      <!-- $\mathdefault{10^{4}}$ -->
      <defs>
       <path d="M 63.8125 0 
L 23.6875 0 
L 23.6875 5.90625 
L 34.515625 5.90625 
L 34.515625 19.1875 
L 4.109375 19.1875 
L 4.109375 24.8125 
L 34.625 74.21875 
L 52.984375 74.21875 
L 52.984375 25.484375 
L 65.484375 25.484375 
L 65.484375 19.1875 
L 52.984375 19.1875 
L 52.984375 5.90625 
L 63.8125 5.90625 
z
M 34.515625 25.484375 
L 34.515625 60.890625 
L 12.796875 25.484375 
z
" id="DejaVuSerif-Bold-52"/>
      </defs>
      <g style="fill:#333333;" transform="translate(34.76875 350.450864)scale(0.22 -0.22)">
       <use transform="translate(0 0.7125)" xlink:href="#DejaVuSerif-Bold-49"/>
       <use transform="translate(69.580078 0.7125)" xlink:href="#DejaVuSerif-Bold-48"/>
       <use transform="translate(140.068516 37.046875)scale(0.7)" xlink:href="#DejaVuSerif-Bold-52"/>
      </g>
     </g>
    </g>
    <g id="ytick_2">
     <g id="line2d_21">
      <g>
       <use style="fill:#333333;stroke:#333333;stroke-width:0.8;" x="80.50875" xlink:href="#m3bc4fa5156" y="166.763761"/>
      </g>
     </g>
     <g id="text_5">
      <!-- $\mathdefault{10^{5}}$ -->
      <defs>
       <path d="M 56.390625 72.90625 
L 56.390625 60.109375 
L 17.390625 60.109375 
L 17.390625 44.09375 
Q 20.609375 46.578125 24.5625 47.84375 
Q 28.515625 49.125 32.90625 49.125 
Q 46.390625 49.125 54.203125 42.3125 
Q 62.015625 35.5 62.015625 23.78125 
Q 62.015625 11.859375 54.203125 5.21875 
Q 46.390625 -1.421875 32.328125 -1.421875 
Q 26.375 -1.421875 20.484375 -0.4375 
Q 14.59375 0.53125 8.203125 2.59375 
L 8.203125 18.5 
L 14.0625 18.5 
Q 14.359375 11.328125 17.796875 7.8125 
Q 21.234375 4.296875 27.984375 4.296875 
Q 35.15625 4.296875 38.625 9.109375 
Q 42.09375 13.921875 42.09375 23.78125 
Q 42.09375 33.5 38.6875 38.296875 
Q 35.296875 43.109375 28.421875 43.109375 
Q 24.703125 43.109375 21.796875 41.578125 
Q 18.890625 40.046875 16.40625 36.8125 
L 11.53125 36.8125 
L 11.53125 72.90625 
z
" id="DejaVuSerif-Bold-53"/>
      </defs>
      <g style="fill:#333333;" transform="translate(34.76875 175.122042)scale(0.22 -0.22)">
       <use transform="translate(0 0.63125)" xlink:href="#DejaVuSerif-Bold-49"/>
       <use transform="translate(69.580078 0.63125)" xlink:href="#DejaVuSerif-Bold-48"/>
       <use transform="translate(140.068516 36.965625)scale(0.7)" xlink:href="#DejaVuSerif-Bold-53"/>
      </g>
     </g>
    </g>
    <g id="ytick_3">
     <g id="line2d_22">
      <defs>
       <path d="M 0 0 
L 3 0 
" id="m42e1b5b19e" style="stroke:#333333;stroke-width:0.6;"/>
      </defs>
      <g>
       <use style="fill:#333333;stroke:#333333;stroke-width:0.6;" x="80.50875" xlink:href="#m42e1b5b19e" y="380.989062"/>
      </g>
     </g>
    </g>
    <g id="ytick_4">
     <g id="line2d_23">
      <g>
       <use style="fill:#333333;stroke:#333333;stroke-width:0.6;" x="80.50875" xlink:href="#m42e1b5b19e" y="369.25136"/>
      </g>
     </g>
    </g>
    <g id="ytick_5">
     <g id="line2d_24">
      <g>
       <use style="fill:#333333;stroke:#333333;stroke-width:0.6;" x="80.50875" xlink:href="#m42e1b5b19e" y="359.083701"/>
      </g>
     </g>
    </g>
    <g id="ytick_6">
     <g id="line2d_25">
      <g>
       <use style="fill:#333333;stroke:#333333;stroke-width:0.6;" x="80.50875" xlink:href="#m42e1b5b19e" y="350.115189"/>
      </g>
     </g>
    </g>
    <g id="ytick_7">
     <g id="line2d_26">
      <g>
       <use style="fill:#333333;stroke:#333333;stroke-width:0.6;" x="80.50875" xlink:href="#m42e1b5b19e" y="289.313348"/>
      </g>
     </g>
    </g>
    <g id="ytick_8">
     <g id="line2d_27">
      <g>
       <use style="fill:#333333;stroke:#333333;stroke-width:0.6;" x="80.50875" xlink:href="#m42e1b5b19e" y="258.439475"/>
      </g>
     </g>
    </g>
    <g id="ytick_9">
     <g id="line2d_28">
      <g>
       <use style="fill:#333333;stroke:#333333;stroke-width:0.6;" x="80.50875" xlink:href="#m42e1b5b19e" y="236.534114"/>
      </g>
     </g>
    </g>
    <g id="ytick_10">
     <g id="line2d_29">
      <g>
       <use style="fill:#333333;stroke:#333333;stroke-width:0.6;" x="80.50875" xlink:href="#m42e1b5b19e" y="219.542995"/>
      </g>
     </g>
    </g>
    <g id="ytick_11">
     <g id="line2d_30">
      <g>
       <use style="fill:#333333;stroke:#333333;stroke-width:0.6;" x="80.50875" xlink:href="#m42e1b5b19e" y="205.660241"/>
      </g>
     </g>
    </g>
    <g id="ytick_12">
     <g id="line2d_31">
      <g>
       <use style="fill:#333333;stroke:#333333;stroke-width:0.6;" x="80.50875" xlink:href="#m42e1b5b19e" y="193.922539"/>
      </g>
     </g>
    </g>
    <g id="ytick_13">
     <g id="line2d_32">
      <g>
       <use style="fill:#333333;stroke:#333333;stroke-width:0.6;" x="80.50875" xlink:href="#m42e1b5b19e" y="183.75488"/>
      </g>
     </g>
    </g>
    <g id="ytick_14">
     <g id="line2d_33">
      <g>
       <use style="fill:#333333;stroke:#333333;stroke-width:0.6;" x="80.50875" xlink:href="#m42e1b5b19e" y="174.786368"/>
      </g>
     </g>
    </g>
    <g id="ytick_15">
     <g id="line2d_34">
      <g>
       <use style="fill:#333333;stroke:#333333;stroke-width:0.6;" x="80.50875" xlink:href="#m42e1b5b19e" y="113.984527"/>
      </g>
     </g>
    </g>
    <g id="ytick_16">
     <g id="line2d_35">
      <g>
       <use style="fill:#333333;stroke:#333333;stroke-width:0.6;" x="80.50875" xlink:href="#m42e1b5b19e" y="83.110654"/>
      </g>
     </g>
    </g>
    <g id="ytick_17">
     <g id="line2d_36">
      <g>
       <use style="fill:#333333;stroke:#333333;stroke-width:0.6;" x="80.50875" xlink:href="#m42e1b5b19e" y="61.205293"/>
      </g>
     </g>
    </g>
    <g id="ytick_18">
     <g id="line2d_37">
      <g>
       <use style="fill:#333333;stroke:#333333;stroke-width:0.6;" x="80.50875" xlink:href="#m42e1b5b19e" y="44.214174"/>
      </g>
     </g>
    </g>
    <g id="ytick_19">
     <g id="line2d_38">
      <g>
       <use style="fill:#333333;stroke:#333333;stroke-width:0.6;" x="80.50875" xlink:href="#m42e1b5b19e" y="30.33142"/>
      </g>
     </g>
    </g>
    <g id="ytick_20">
     <g id="line2d_39">
      <g>
       <use style="fill:#333333;stroke:#333333;stroke-width:0.6;" x="80.50875" xlink:href="#m42e1b5b19e" y="18.593718"/>
      </g>
     </g>
    </g>
    <g id="ytick_21">
     <g id="line2d_40">
      <g>
       <use style="fill:#333333;stroke:#333333;stroke-width:0.6;" x="80.50875" xlink:href="#m42e1b5b19e" y="8.426058"/>
      </g>
     </g>
    </g>
    <g id="text_6">
     <!-- Survival time [yr] -->
     <defs>
      <path d="M 7.71875 3.515625 
L 7.71875 20.796875 
L 13.921875 20.796875 
Q 15.328125 12.59375 20.59375 8.546875 
Q 25.875 4.5 35.203125 4.5 
Q 42.78125 4.5 46.734375 7.375 
Q 50.6875 10.25 50.6875 15.828125 
Q 50.6875 20.21875 48 22.65625 
Q 45.3125 25.09375 36.921875 27.203125 
L 25.984375 29.890625 
Q 15.28125 32.625 10.9375 37.46875 
Q 6.59375 42.328125 6.59375 51.3125 
Q 6.59375 62.15625 13.796875 68.1875 
Q 21 74.21875 33.984375 74.21875 
Q 40.375 74.21875 47.28125 73.140625 
Q 54.203125 72.078125 61.625 69.921875 
L 61.625 53.8125 
L 55.421875 53.8125 
Q 54 61.328125 49.21875 64.8125 
Q 44.4375 68.3125 35.59375 68.3125 
Q 28.375 68.3125 24.6875 65.796875 
Q 21 63.28125 21 58.296875 
Q 21 53.765625 23.53125 51.390625 
Q 26.078125 49.03125 35.984375 46.484375 
L 46.921875 43.796875 
Q 57.078125 41.265625 61.640625 35.890625 
Q 66.21875 30.515625 66.21875 21.09375 
Q 66.21875 10.0625 58.59375 4.3125 
Q 50.984375 -1.421875 36.1875 -1.421875 
Q 29.046875 -1.421875 22.015625 -0.1875 
Q 14.984375 1.03125 7.71875 3.515625 
z
" id="DejaVuSerif-Bold-83"/>
      <path d="M 61.921875 51.90625 
L 61.921875 5.90625 
L 69.28125 5.90625 
L 69.28125 0 
L 44.578125 0 
L 44.578125 7.328125 
Q 41.5 2.6875 37.5 0.625 
Q 33.5 -1.421875 27.390625 -1.421875 
Q 18.65625 -1.421875 14.1875 3.734375 
Q 9.71875 8.890625 9.71875 18.890625 
L 9.71875 46 
L 2.296875 46 
L 2.296875 51.90625 
L 27 51.90625 
L 27 21.578125 
Q 27 11.921875 28.609375 9.296875 
Q 30.21875 6.6875 34.515625 6.6875 
Q 39.75 6.6875 42.15625 10.546875 
Q 44.578125 14.40625 44.578125 22.796875 
L 44.578125 46 
L 38.28125 46 
L 38.28125 51.90625 
z
" id="DejaVuSerif-Bold-117"/>
      <path d="M 53.71875 52.484375 
L 53.71875 37.015625 
L 48.1875 37.015625 
Q 47.90625 41.15625 45.953125 43.1875 
Q 44 45.21875 40.28125 45.21875 
Q 34.625 45.21875 31.34375 40.234375 
Q 28.078125 35.25 28.078125 26.421875 
L 28.078125 5.90625 
L 37.5 5.90625 
L 37.5 0 
L 3.421875 0 
L 3.421875 5.90625 
L 10.796875 5.90625 
L 10.796875 46 
L 2.875 46 
L 2.875 51.90625 
L 28.078125 51.90625 
L 28.078125 42.671875 
Q 30.609375 48.09375 34.78125 50.703125 
Q 38.96875 53.328125 45.015625 53.328125 
Q 46.53125 53.328125 48.703125 53.09375 
Q 50.875 52.875 53.71875 52.484375 
z
" id="DejaVuSerif-Bold-114"/>
      <path d="M 22.3125 0 
L 3.90625 46 
L -1.8125 46 
L -1.8125 51.90625 
L 27.984375 51.90625 
L 27.984375 46 
L 21.6875 46 
L 34.8125 13.1875 
L 47.90625 46 
L 41.109375 46 
L 41.109375 51.90625 
L 60.59375 51.90625 
L 60.59375 46 
L 54.59375 46 
L 36.1875 0 
z
" id="DejaVuSerif-Bold-118"/>
      <path d="M 9.1875 66.609375 
Q 9.1875 70.5625 11.921875 73.265625 
Q 14.65625 75.984375 18.609375 75.984375 
Q 22.46875 75.984375 25.171875 73.265625 
Q 27.875 70.5625 27.875 66.609375 
Q 27.875 62.75 25.171875 60.03125 
Q 22.46875 57.328125 18.609375 57.328125 
Q 14.65625 57.328125 11.921875 60.015625 
Q 9.1875 62.703125 9.1875 66.609375 
z
M 28.078125 5.90625 
L 35.5 5.90625 
L 35.5 0 
L 3.421875 0 
L 3.421875 5.90625 
L 10.796875 5.90625 
L 10.796875 46 
L 3.421875 46 
L 3.421875 51.90625 
L 28.078125 51.90625 
z
" id="DejaVuSerif-Bold-105"/>
      <path d="M 55.078125 31.890625 
L 55.078125 5.90625 
L 62.5 5.90625 
L 62.5 0 
L 37.796875 0 
L 37.796875 6.59375 
Q 34.375 2.484375 30.171875 0.53125 
Q 25.984375 -1.421875 20.609375 -1.421875 
Q 12.640625 -1.421875 8.375 2.84375 
Q 4.109375 7.125 4.109375 15.09375 
Q 4.109375 23.828125 10.234375 28.171875 
Q 16.359375 32.515625 28.71875 32.515625 
L 37.796875 32.515625 
L 37.796875 35.59375 
Q 37.796875 41.890625 34.8125 44.890625 
Q 31.84375 47.90625 25.59375 47.90625 
Q 20.40625 47.90625 17.59375 45.78125 
Q 14.796875 43.65625 13.625 38.8125 
L 8.109375 38.8125 
L 8.109375 50 
Q 12.75 51.65625 17.71875 52.484375 
Q 22.703125 53.328125 28.21875 53.328125 
Q 42.140625 53.328125 48.609375 48.140625 
Q 55.078125 42.96875 55.078125 31.890625 
z
M 37.796875 16.3125 
L 37.796875 26.703125 
L 31.296875 26.703125 
Q 26.46875 26.703125 23.875 24.0625 
Q 21.296875 21.4375 21.296875 16.5 
Q 21.296875 11.578125 23.171875 9.125 
Q 25.046875 6.6875 28.90625 6.6875 
Q 32.90625 6.6875 35.34375 9.328125 
Q 37.796875 11.96875 37.796875 16.3125 
z
" id="DejaVuSerif-Bold-97"/>
      <path d="M 28.078125 5.90625 
L 35.5 5.90625 
L 35.5 0 
L 3.421875 0 
L 3.421875 5.90625 
L 10.796875 5.90625 
L 10.796875 70.125 
L 3.421875 70.125 
L 3.421875 75.984375 
L 28.078125 75.984375 
z
" id="DejaVuSerif-Bold-108"/>
      <path id="DejaVuSerif-Bold-32"/>
      <path d="M 9.90625 46 
L 2.390625 46 
L 2.390625 51.90625 
L 9.90625 51.90625 
L 9.90625 68.015625 
L 27.203125 68.015625 
L 27.203125 51.90625 
L 41.609375 51.90625 
L 41.609375 46 
L 27.203125 46 
L 27.203125 14.203125 
Q 27.203125 7.421875 28.265625 5.765625 
Q 29.34375 4.109375 32.171875 4.109375 
Q 35.296875 4.109375 36.8125 6.203125 
Q 38.328125 8.296875 38.421875 12.703125 
L 45.703125 12.703125 
Q 45.265625 4.890625 41.421875 1.734375 
Q 37.59375 -1.421875 28.21875 -1.421875 
Q 17.53125 -1.421875 13.71875 1.921875 
Q 9.90625 5.28125 9.90625 14.203125 
z
" id="DejaVuSerif-Bold-116"/>
      <path d="M 40.09375 29.296875 
Q 40.09375 39.546875 38.1875 43.671875 
Q 36.28125 47.796875 31.6875 47.796875 
Q 27.25 47.796875 25.3125 43.75 
Q 23.390625 39.703125 23.390625 30.171875 
L 23.390625 29.296875 
z
M 59.078125 23.484375 
L 23.390625 23.484375 
L 23.390625 23.09375 
Q 23.390625 13.03125 26.40625 8.5625 
Q 29.4375 4.109375 36.1875 4.109375 
Q 41.796875 4.109375 45.265625 7.078125 
Q 48.734375 10.0625 49.703125 15.71875 
L 57.8125 15.71875 
Q 55.71875 6.890625 49.46875 2.734375 
Q 43.21875 -1.421875 31.984375 -1.421875 
Q 18.5 -1.421875 11.296875 5.6875 
Q 4.109375 12.796875 4.109375 25.984375 
Q 4.109375 38.875 11.46875 46.09375 
Q 18.84375 53.328125 31.984375 53.328125 
Q 44.875 53.328125 51.75 45.734375 
Q 58.640625 38.140625 59.078125 23.484375 
z
" id="DejaVuSerif-Bold-101"/>
      <path d="M 12.5 75.984375 
L 40.1875 75.984375 
L 40.1875 70.125 
L 29.78125 70.125 
L 29.78125 -7.328125 
L 40.1875 -7.328125 
L 40.1875 -13.1875 
L 12.5 -13.1875 
z
" id="DejaVuSerif-Bold-91"/>
      <path d="M 31.203125 -11.71875 
Q 28.859375 -17.4375 25.53125 -19.828125 
Q 22.21875 -22.21875 16.609375 -22.21875 
Q 14.203125 -22.21875 11.265625 -21.671875 
Q 8.34375 -21.140625 4.890625 -20.125 
L 4.890625 -9.28125 
L 10.40625 -9.328125 
Q 10.546875 -13.09375 12.171875 -14.890625 
Q 13.8125 -16.703125 17.09375 -16.703125 
Q 20.265625 -16.703125 22.21875 -14.96875 
Q 24.171875 -13.234375 26.125 -8.40625 
L 26.90625 -6.59375 
L 4.296875 46 
L -1.3125 46 
L -1.3125 51.90625 
L 28.609375 51.90625 
L 28.609375 46 
L 22.40625 46 
L 35.59375 15.28125 
L 47.90625 46 
L 41.015625 46 
L 41.015625 51.90625 
L 60.5 51.90625 
L 60.5 46 
L 54.203125 46 
z
" id="DejaVuSerif-Bold-121"/>
      <path d="M 34.8125 75.984375 
L 34.8125 -13.1875 
L 7.078125 -13.1875 
L 7.078125 -7.328125 
L 17.484375 -7.328125 
L 17.484375 70.125 
L 7.078125 70.125 
L 7.078125 75.984375 
z
" id="DejaVuSerif-Bold-93"/>
     </defs>
     <g transform="translate(25.43625 315.45)rotate(-90)scale(0.24 -0.24)">
      <use xlink:href="#DejaVuSerif-Bold-83"/>
      <use x="72.216797" xlink:href="#DejaVuSerif-Bold-117"/>
      <use x="144.921875" xlink:href="#DejaVuSerif-Bold-114"/>
      <use x="197.607422" xlink:href="#DejaVuSerif-Bold-118"/>
      <use x="255.712891" xlink:href="#DejaVuSerif-Bold-105"/>
      <use x="293.701172" xlink:href="#DejaVuSerif-Bold-118"/>
      <use x="351.806641" xlink:href="#DejaVuSerif-Bold-97"/>
      <use x="416.601562" xlink:href="#DejaVuSerif-Bold-108"/>
      <use x="454.589844" xlink:href="#DejaVuSerif-Bold-32"/>
      <use x="489.404297" xlink:href="#DejaVuSerif-Bold-116"/>
      <use x="535.595703" xlink:href="#DejaVuSerif-Bold-105"/>
      <use x="573.583984" xlink:href="#DejaVuSerif-Bold-109"/>
      <use x="679.394531" xlink:href="#DejaVuSerif-Bold-101"/>
      <use x="743.017578" xlink:href="#DejaVuSerif-Bold-32"/>
      <use x="777.832031" xlink:href="#DejaVuSerif-Bold-91"/>
      <use x="825.146484" xlink:href="#DejaVuSerif-Bold-121"/>
      <use x="883.251953" xlink:href="#DejaVuSerif-Bold-114"/>
      <use x="935.9375" xlink:href="#DejaVuSerif-Bold-93"/>
     </g>
    </g>
   </g>
   <g id="line2d_41">
    <path clip-path="url(#p456ab03414)" d="M 932.726932 116.594826 
L 715.564834 133.698317 
L 517.406745 131.51053 
L 319.248657 104.631192 
L 121.090568 100.347117 
" style="fill:none;stroke:#ff0000;stroke-dasharray:12.8,3.2,2,3.2;stroke-dashoffset:0;stroke-width:2;"/>
    <defs>
     <path d="M -5 5 
L 5 5 
L 5 -5 
L -5 -5 
z
" id="m252a5172c1"/>
    </defs>
    <g clip-path="url(#p456ab03414)">
     <use style="fill:#ff0000;" x="932.726932" xlink:href="#m252a5172c1" y="116.594826"/>
     <use style="fill:#ff0000;" x="715.564834" xlink:href="#m252a5172c1" y="133.698317"/>
     <use style="fill:#ff0000;" x="517.406745" xlink:href="#m252a5172c1" y="131.51053"/>
     <use style="fill:#ff0000;" x="319.248657" xlink:href="#m252a5172c1" y="104.631192"/>
     <use style="fill:#ff0000;" x="121.090568" xlink:href="#m252a5172c1" y="100.347117"/>
    </g>
   </g>
   <g id="line2d_42">
    <path clip-path="url(#p456ab03414)" d="M 932.726932 370.423636 
L 715.564834 278.420642 
L 517.406745 194.292395 
L 319.248657 110.764576 
L 121.090568 24.496364 
" style="fill:none;stroke:#808080;stroke-linecap:square;stroke-width:2;"/>
   </g>
   <g id="line2d_43">
    <path clip-path="url(#p456ab03414)" d="M 932.726932 133.558019 
L 715.564834 132.581717 
L 517.406745 131.67417 
L 319.248657 110.764576 
L 121.090568 24.496364 
" style="fill:none;stroke:#000000;stroke-dasharray:12.8,3.2,2,3.2;stroke-dashoffset:0;stroke-width:2;"/>
   </g>
   <g id="patch_3">
    <path d="M 80.50875 387.72 
L 80.50875 7.2 
" style="fill:none;stroke:#333333;stroke-linecap:square;stroke-linejoin:miter;stroke-width:0.8;"/>
   </g>
   <g id="patch_4">
    <path d="M 973.30875 387.72 
L 973.30875 7.2 
" style="fill:none;stroke:#333333;stroke-linecap:square;stroke-linejoin:miter;stroke-width:0.8;"/>
   </g>
   <g id="patch_5">
    <path d="M 80.50875 387.72 
L 973.30875 387.72 
" style="fill:none;stroke:#333333;stroke-linecap:square;stroke-linejoin:miter;stroke-width:0.8;"/>
   </g>
   <g id="patch_6">
    <path d="M 80.50875 7.2 
L 973.30875 7.2 
" style="fill:none;stroke:#333333;stroke-linecap:square;stroke-linejoin:miter;stroke-width:0.8;"/>
   </g>
   <g id="legend_1">
    <g id="line2d_44">
     <path d="M 100.30875 290.435312 
L 144.30875 290.435312 
" style="fill:none;stroke:#ff0000;stroke-dasharray:12.8,3.2,2,3.2;stroke-dashoffset:0;stroke-width:2;"/>
    </g>
    <g id="line2d_45">
     <g>
      <use style="fill:#ff0000;" x="122.30875" xlink:href="#m252a5172c1" y="290.435312"/>
     </g>
    </g>
    <g id="text_7">
     <!-- Median life -->
     <defs>
      <path d="M 4.203125 0 
L 4.203125 5.90625 
L 13.484375 5.90625 
L 13.484375 67 
L 4.203125 67 
L 4.203125 72.90625 
L 34.28125 72.90625 
L 55.078125 26.125 
L 75.984375 72.90625 
L 106 72.90625 
L 106 67 
L 96.6875 67 
L 96.6875 5.90625 
L 106 5.90625 
L 106 0 
L 68.5 0 
L 68.5 5.90625 
L 77.78125 5.90625 
L 77.78125 61.53125 
L 55.171875 10.6875 
L 42.828125 10.6875 
L 20.3125 61.53125 
L 20.3125 5.90625 
L 29.59375 5.90625 
L 29.59375 0 
z
" id="DejaVuSerif-Bold-77"/>
      <path d="M 42.921875 23.390625 
L 42.921875 28.515625 
Q 42.921875 37.59375 40.578125 41.640625 
Q 38.234375 45.703125 33.109375 45.703125 
Q 27.734375 45.703125 25.5625 41.421875 
Q 23.390625 37.15625 23.390625 25.984375 
Q 23.390625 14.796875 25.578125 10.5 
Q 27.78125 6.203125 33.109375 6.203125 
Q 38.234375 6.203125 40.578125 10.25 
Q 42.921875 14.3125 42.921875 23.390625 
z
M 60.203125 5.90625 
L 67.578125 5.90625 
L 67.578125 0 
L 42.921875 0 
L 42.921875 6.59375 
Q 40.71875 2.546875 36.984375 0.5625 
Q 33.25 -1.421875 27.78125 -1.421875 
Q 16.75 -1.421875 10.421875 5.90625 
Q 4.109375 13.234375 4.109375 25.984375 
Q 4.109375 38.765625 10.421875 46.046875 
Q 16.75 53.328125 27.78125 53.328125 
Q 33.25 53.328125 36.984375 51.34375 
Q 40.71875 49.359375 42.921875 45.3125 
L 42.921875 70.125 
L 35.5 70.125 
L 35.5 75.984375 
L 60.203125 75.984375 
z
" id="DejaVuSerif-Bold-100"/>
      <path d="M 3.421875 0 
L 3.421875 5.90625 
L 10.796875 5.90625 
L 10.796875 46 
L 3.421875 46 
L 3.421875 51.90625 
L 28.078125 51.90625 
L 28.078125 44.578125 
Q 31.203125 49.21875 35.203125 51.265625 
Q 39.203125 53.328125 45.3125 53.328125 
Q 54.046875 53.328125 58.515625 48.171875 
Q 62.984375 43.015625 62.984375 33.015625 
L 62.984375 5.90625 
L 70.40625 5.90625 
L 70.40625 0 
L 39.40625 0 
L 39.40625 5.90625 
L 45.703125 5.90625 
L 45.703125 33.5 
Q 45.703125 40.09375 44.015625 42.65625 
Q 42.328125 45.21875 38.1875 45.21875 
Q 32.953125 45.21875 30.515625 41.375 
Q 28.078125 37.546875 28.078125 29.203125 
L 28.078125 5.90625 
L 34.421875 5.90625 
L 34.421875 0 
z
" id="DejaVuSerif-Bold-110"/>
      <path d="M 48.390625 62.984375 
L 42.921875 62.984375 
Q 42.53125 66.796875 40.703125 68.65625 
Q 38.875 70.515625 35.5 70.515625 
Q 31.59375 70.515625 29.828125 67.703125 
Q 28.078125 64.890625 28.078125 58.59375 
L 28.078125 51.90625 
L 41.109375 51.90625 
L 41.109375 46 
L 28.078125 46 
L 28.078125 5.90625 
L 38.09375 5.90625 
L 38.09375 0 
L 3.421875 0 
L 3.421875 5.90625 
L 10.796875 5.90625 
L 10.796875 46 
L 3.078125 46 
L 3.078125 51.90625 
L 10.796875 51.90625 
L 10.796875 58.40625 
Q 10.796875 67.046875 16.3125 71.515625 
Q 21.828125 75.984375 32.515625 75.984375 
Q 36.671875 75.984375 40.625 75.515625 
Q 44.578125 75.046875 48.390625 74.125 
z
" id="DejaVuSerif-Bold-102"/>
     </defs>
     <g transform="translate(161.90875 298.135312)scale(0.22 -0.22)">
      <use xlink:href="#DejaVuSerif-Bold-77"/>
      <use x="110.693359" xlink:href="#DejaVuSerif-Bold-101"/>
      <use x="174.316406" xlink:href="#DejaVuSerif-Bold-100"/>
      <use x="244.238281" xlink:href="#DejaVuSerif-Bold-105"/>
      <use x="282.226562" xlink:href="#DejaVuSerif-Bold-97"/>
      <use x="347.021484" xlink:href="#DejaVuSerif-Bold-110"/>
      <use x="419.726562" xlink:href="#DejaVuSerif-Bold-32"/>
      <use x="454.541016" xlink:href="#DejaVuSerif-Bold-108"/>
      <use x="492.529297" xlink:href="#DejaVuSerif-Bold-105"/>
      <use x="530.517578" xlink:href="#DejaVuSerif-Bold-102"/>
      <use x="573.535156" xlink:href="#DejaVuSerif-Bold-101"/>
     </g>
    </g>
    <g id="line2d_46">
     <path d="M 100.30875 322.727187 
L 144.30875 322.727187 
" style="fill:none;stroke:#808080;stroke-linecap:square;stroke-width:2;"/>
    </g>
    <g id="line2d_47"/>
    <g id="text_8">
     <!-- Analytic [Close encounters only] -->
     <defs>
      <path d="M -0.78125 0 
L -0.78125 5.90625 
L 5.171875 5.90625 
L 32.625 72.90625 
L 44.28125 72.90625 
L 71.78125 5.90625 
L 78.71875 5.90625 
L 78.71875 0 
L 44.578125 0 
L 44.578125 5.90625 
L 51.703125 5.90625 
L 45.703125 20.796875 
L 18.3125 20.796875 
L 12.203125 5.90625 
L 20.90625 5.90625 
L 20.90625 0 
z
M 20.703125 26.703125 
L 43.3125 26.703125 
L 32.078125 54.59375 
z
" id="DejaVuSerif-Bold-65"/>
      <path d="M 56.390625 16.21875 
Q 54.546875 7.328125 48.796875 2.953125 
Q 43.0625 -1.421875 33.203125 -1.421875 
Q 19.34375 -1.421875 11.71875 5.75 
Q 4.109375 12.9375 4.109375 25.984375 
Q 4.109375 38.875 11.625 46.09375 
Q 19.140625 53.328125 32.515625 53.328125 
Q 37.9375 53.328125 43.453125 52.296875 
Q 48.96875 51.265625 54.6875 49.21875 
L 54.6875 34.8125 
L 49.21875 34.8125 
Q 48.4375 41.40625 45.359375 44.59375 
Q 42.28125 47.796875 36.71875 47.796875 
Q 29.5 47.796875 26.4375 42.90625 
Q 23.390625 38.03125 23.390625 25.984375 
Q 23.390625 14.203125 26.359375 9.15625 
Q 29.34375 4.109375 36.078125 4.109375 
Q 41.3125 4.109375 44.453125 7.234375 
Q 47.609375 10.359375 48.296875 16.21875 
z
" id="DejaVuSerif-Bold-99"/>
      <path d="M 74.515625 20.796875 
Q 71.625 9.515625 64.15625 4.046875 
Q 56.6875 -1.421875 44.09375 -1.421875 
Q 25.640625 -1.421875 14.921875 8.765625 
Q 4.203125 18.953125 4.203125 36.375 
Q 4.203125 53.859375 14.921875 64.03125 
Q 25.640625 74.21875 44.09375 74.21875 
Q 50.59375 74.21875 57.625 72.65625 
Q 64.65625 71.09375 72.515625 67.921875 
L 72.515625 50 
L 66.3125 50 
Q 64.40625 59.1875 59.375 63.75 
Q 54.34375 68.3125 46.09375 68.3125 
Q 35.453125 68.3125 30.265625 60.46875 
Q 25.09375 52.640625 25.09375 36.375 
Q 25.09375 20.125 30.265625 12.3125 
Q 35.453125 4.5 46.1875 4.5 
Q 53.46875 4.5 58.078125 8.546875 
Q 62.703125 12.59375 64.796875 20.796875 
z
" id="DejaVuSerif-Bold-67"/>
      <path d="M 33.40625 4.109375 
Q 38.875 4.109375 41.09375 8.796875 
Q 43.3125 13.484375 43.3125 25.984375 
Q 43.3125 38.484375 41.109375 43.140625 
Q 38.921875 47.796875 33.40625 47.796875 
Q 27.875 47.796875 25.625 43.078125 
Q 23.390625 38.375 23.390625 25.984375 
Q 23.390625 13.578125 25.625 8.84375 
Q 27.875 4.109375 33.40625 4.109375 
z
M 33.40625 -1.421875 
Q 19.671875 -1.421875 11.890625 5.875 
Q 4.109375 13.1875 4.109375 25.984375 
Q 4.109375 38.8125 11.890625 46.0625 
Q 19.671875 53.328125 33.40625 53.328125 
Q 47.171875 53.328125 54.9375 46.0625 
Q 62.703125 38.8125 62.703125 25.984375 
Q 62.703125 13.1875 54.90625 5.875 
Q 47.125 -1.421875 33.40625 -1.421875 
z
" id="DejaVuSerif-Bold-111"/>
      <path d="M 4.6875 1.515625 
L 4.6875 16.015625 
L 10.203125 16.015625 
Q 10.890625 10.203125 14.546875 7.15625 
Q 18.21875 4.109375 24.515625 4.109375 
Q 29.78125 4.109375 32.59375 5.9375 
Q 35.40625 7.765625 35.40625 11.1875 
Q 35.40625 14.3125 33.625 16.015625 
Q 31.84375 17.71875 26.703125 19 
L 19.578125 20.796875 
Q 11.53125 22.796875 7.90625 26.53125 
Q 4.296875 30.28125 4.296875 36.625 
Q 4.296875 45.0625 10.15625 49.1875 
Q 16.015625 53.328125 28.21875 53.328125 
Q 32.8125 53.328125 38.015625 52.5625 
Q 43.21875 51.8125 49.515625 50.203125 
L 49.515625 37.109375 
L 44 37.109375 
Q 43.5625 42.4375 40.203125 45.109375 
Q 36.859375 47.796875 30.609375 47.796875 
Q 25.34375 47.796875 22.625 46.109375 
Q 19.921875 44.4375 19.921875 41.21875 
Q 19.921875 38.578125 21.484375 37.0625 
Q 23.046875 35.546875 27.09375 34.515625 
L 34.1875 32.71875 
Q 44.390625 30.125 48.296875 26.3125 
Q 52.203125 22.515625 52.203125 15.71875 
Q 52.203125 6.9375 45.921875 2.75 
Q 39.65625 -1.421875 26.421875 -1.421875 
Q 21.578125 -1.421875 16.15625 -0.6875 
Q 10.75 0.046875 4.6875 1.515625 
z
" id="DejaVuSerif-Bold-115"/>
     </defs>
     <g transform="translate(161.90875 330.427187)scale(0.22 -0.22)">
      <use xlink:href="#DejaVuSerif-Bold-65"/>
      <use x="77.587891" xlink:href="#DejaVuSerif-Bold-110"/>
      <use x="150.292969" xlink:href="#DejaVuSerif-Bold-97"/>
      <use x="215.087891" xlink:href="#DejaVuSerif-Bold-108"/>
      <use x="253.076172" xlink:href="#DejaVuSerif-Bold-121"/>
      <use x="311.181641" xlink:href="#DejaVuSerif-Bold-116"/>
      <use x="357.373047" xlink:href="#DejaVuSerif-Bold-105"/>
      <use x="395.361328" xlink:href="#DejaVuSerif-Bold-99"/>
      <use x="456.25" xlink:href="#DejaVuSerif-Bold-32"/>
      <use x="491.064453" xlink:href="#DejaVuSerif-Bold-91"/>
      <use x="538.378906" xlink:href="#DejaVuSerif-Bold-67"/>
      <use x="617.96875" xlink:href="#DejaVuSerif-Bold-108"/>
      <use x="655.957031" xlink:href="#DejaVuSerif-Bold-111"/>
      <use x="722.65625" xlink:href="#DejaVuSerif-Bold-115"/>
      <use x="778.955078" xlink:href="#DejaVuSerif-Bold-101"/>
      <use x="842.578125" xlink:href="#DejaVuSerif-Bold-32"/>
      <use x="877.392578" xlink:href="#DejaVuSerif-Bold-101"/>
      <use x="941.015625" xlink:href="#DejaVuSerif-Bold-110"/>
      <use x="1013.720703" xlink:href="#DejaVuSerif-Bold-99"/>
      <use x="1074.609375" xlink:href="#DejaVuSerif-Bold-111"/>
      <use x="1141.308594" xlink:href="#DejaVuSerif-Bold-117"/>
      <use x="1214.013672" xlink:href="#DejaVuSerif-Bold-110"/>
      <use x="1286.71875" xlink:href="#DejaVuSerif-Bold-116"/>
      <use x="1332.910156" xlink:href="#DejaVuSerif-Bold-101"/>
      <use x="1396.533203" xlink:href="#DejaVuSerif-Bold-114"/>
      <use x="1449.21875" xlink:href="#DejaVuSerif-Bold-115"/>
      <use x="1505.517578" xlink:href="#DejaVuSerif-Bold-32"/>
      <use x="1540.332031" xlink:href="#DejaVuSerif-Bold-111"/>
      <use x="1607.03125" xlink:href="#DejaVuSerif-Bold-110"/>
      <use x="1679.736328" xlink:href="#DejaVuSerif-Bold-108"/>
      <use x="1717.724609" xlink:href="#DejaVuSerif-Bold-121"/>
      <use x="1775.830078" xlink:href="#DejaVuSerif-Bold-93"/>
     </g>
    </g>
    <g id="line2d_48">
     <path d="M 100.30875 355.331875 
L 144.30875 355.331875 
" style="fill:none;stroke:#000000;stroke-dasharray:12.8,3.2,2,3.2;stroke-dashoffset:0;stroke-width:2;"/>
    </g>
    <g id="line2d_49"/>
    <g id="text_9">
     <!-- Analytic [Full] -->
     <defs>
      <path d="M 4.6875 0 
L 4.6875 5.90625 
L 14.015625 5.90625 
L 14.015625 67 
L 4.6875 67 
L 4.6875 72.90625 
L 69.671875 72.90625 
L 69.671875 55.71875 
L 62.984375 55.71875 
L 62.984375 66.21875 
L 32.90625 66.21875 
L 32.90625 42.828125 
L 51.421875 42.828125 
L 51.421875 52.09375 
L 58.109375 52.09375 
L 58.109375 26.90625 
L 51.421875 26.90625 
L 51.421875 36.1875 
L 32.90625 36.1875 
L 32.90625 5.90625 
L 44.390625 5.90625 
L 44.390625 0 
z
" id="DejaVuSerif-Bold-70"/>
     </defs>
     <g transform="translate(161.90875 363.031875)scale(0.22 -0.22)">
      <use xlink:href="#DejaVuSerif-Bold-65"/>
      <use x="77.587891" xlink:href="#DejaVuSerif-Bold-110"/>
      <use x="150.292969" xlink:href="#DejaVuSerif-Bold-97"/>
      <use x="215.087891" xlink:href="#DejaVuSerif-Bold-108"/>
      <use x="253.076172" xlink:href="#DejaVuSerif-Bold-121"/>
      <use x="311.181641" xlink:href="#DejaVuSerif-Bold-116"/>
      <use x="357.373047" xlink:href="#DejaVuSerif-Bold-105"/>
      <use x="395.361328" xlink:href="#DejaVuSerif-Bold-99"/>
      <use x="456.25" xlink:href="#DejaVuSerif-Bold-32"/>
      <use x="491.064453" xlink:href="#DejaVuSerif-Bold-91"/>
      <use x="538.378906" xlink:href="#DejaVuSerif-Bold-70"/>
      <use x="609.359375" xlink:href="#DejaVuSerif-Bold-117"/>
      <use x="682.064453" xlink:href="#DejaVuSerif-Bold-108"/>
      <use x="720.052734" xlink:href="#DejaVuSerif-Bold-108"/>
      <use x="758.041016" xlink:href="#DejaVuSerif-Bold-93"/>
     </g>
    </g>
   </g>
  </g>
 </g>
 <defs>
  <clipPath id="p456ab03414">
   <rect height="380.52" width="892.8" x="80.50875" y="7.2"/>
  </clipPath>
 </defs>
</svg>
