<?xml version="1.0" encoding="utf-8" standalone="no"?>
<!DOCTYPE svg PUBLIC "-//W3C//DTD SVG 1.1//EN"
  "http://www.w3.org/Graphics/SVG/1.1/DTD/svg11.dtd">
<!-- Created with matplotlib (https://matplotlib.org/) -->
<svg height="565.379375pt" version="1.1" viewBox="0 0 658.3475 565.379375" width="658.3475pt" xmlns="http://www.w3.org/2000/svg" xmlns:xlink="http://www.w3.org/1999/xlink">
 <defs>
  <style type="text/css">
*{stroke-linecap:butt;stroke-linejoin:round;}
  </style>
 </defs>
 <g id="figure_1">
  <g id="patch_1">
   <path d="M 0 565.379375 
L 658.3475 565.379375 
L 658.3475 0 
L 0 0 
z
" style="fill:#ffffff;"/>
  </g>
  <g id="axes_1">
   <g id="patch_2">
    <path d="M 93.1475 506.16 
L 651.1475 506.16 
L 651.1475 7.2 
L 93.1475 7.2 
z
" style="fill:#ffffff;"/>
   </g>
   <g id="matplotlib.axis_1">
    <g id="xtick_1">
     <g id="line2d_1">
      <defs>
       <path d="M 0 0 
L 0 -6 
" id="md37272e032" style="stroke:#333333;stroke-width:0.8;"/>
      </defs>
      <g>
       <use style="fill:#333333;stroke:#333333;stroke-width:0.8;" x="118.511136" xlink:href="#md37272e032" y="506.16"/>
      </g>
     </g>
     <g id="text_1">
      <!-- $\mathdefault{10^{0}}$ -->
      <defs>
       <path d="M 13.71875 0 
L 13.71875 5.90625 
L 27.390625 5.90625 
L 27.390625 64.890625 
L 12.203125 55.90625 
L 12.203125 63.1875 
L 30.515625 74.21875 
L 45.90625 74.21875 
L 45.90625 5.90625 
L 59.625 5.90625 
L 59.625 0 
z
" id="DejaVuSerif-Bold-49"/>
       <path d="M 34.8125 4.296875 
Q 40.671875 4.296875 42.84375 9.609375 
Q 45.015625 14.9375 45.015625 36.375 
Q 45.015625 57.671875 42.84375 63.078125 
Q 40.671875 68.5 34.8125 68.5 
Q 28.953125 68.5 26.78125 63.171875 
Q 24.609375 57.859375 24.609375 36.375 
Q 24.609375 14.9375 26.78125 9.609375 
Q 28.953125 4.296875 34.8125 4.296875 
z
M 34.8125 -1.421875 
Q 20.21875 -1.421875 12.453125 8.3125 
Q 4.6875 18.0625 4.6875 36.375 
Q 4.6875 54.6875 12.453125 64.453125 
Q 20.21875 74.21875 34.8125 74.21875 
Q 49.359375 74.21875 57.125 64.453125 
Q 64.890625 54.6875 64.890625 36.375 
Q 64.890625 18.0625 57.125 8.3125 
Q 49.359375 -1.421875 34.8125 -1.421875 
z
" id="DejaVuSerif-Bold-48"/>
      </defs>
      <g style="fill:#333333;" transform="translate(97.391136 526.376563)scale(0.22 -0.22)">
       <use transform="translate(0 0.7125)" xlink:href="#DejaVuSerif-Bold-49"/>
       <use transform="translate(69.580078 0.7125)" xlink:href="#DejaVuSerif-Bold-48"/>
       <use transform="translate(140.068516 37.046875)scale(0.7)" xlink:href="#DejaVuSerif-Bold-48"/>
      </g>
     </g>
    </g>
    <g id="xtick_2">
     <g id="line2d_2">
      <g>
       <use style="fill:#333333;stroke:#333333;stroke-width:0.8;" x="403.792114" xlink:href="#md37272e032" y="506.16"/>
      </g>
     </g>
     <g id="text_2">
      <!-- $\mathdefault{10^{1}}$ -->
      <g style="fill:#333333;" transform="translate(382.672114 526.376563)scale(0.22 -0.22)">
       <use transform="translate(0 0.7125)" xlink:href="#DejaVuSerif-Bold-49"/>
       <use transform="translate(69.580078 0.7125)" xlink:href="#DejaVuSerif-Bold-48"/>
       <use transform="translate(140.068516 37.046875)scale(0.7)" xlink:href="#DejaVuSerif-Bold-49"/>
      </g>
     </g>
    </g>
    <g id="xtick_3">
     <g id="line2d_3">
      <defs>
       <path d="M 0 0 
L 0 -3 
" id="m25f19aecbe" style="stroke:#333333;stroke-width:0.6;"/>
      </defs>
      <g>
       <use style="fill:#333333;stroke:#333333;stroke-width:0.6;" x="105.457395" xlink:href="#m25f19aecbe" y="506.16"/>
      </g>
     </g>
    </g>
    <g id="xtick_4">
     <g id="line2d_4">
      <g>
       <use style="fill:#333333;stroke:#333333;stroke-width:0.6;" x="204.389268" xlink:href="#m25f19aecbe" y="506.16"/>
      </g>
     </g>
    </g>
    <g id="xtick_5">
     <g id="line2d_5">
      <g>
       <use style="fill:#333333;stroke:#333333;stroke-width:0.6;" x="254.624754" xlink:href="#m25f19aecbe" y="506.16"/>
      </g>
     </g>
    </g>
    <g id="xtick_6">
     <g id="line2d_6">
      <g>
       <use style="fill:#333333;stroke:#333333;stroke-width:0.6;" x="290.267399" xlink:href="#m25f19aecbe" y="506.16"/>
      </g>
     </g>
    </g>
    <g id="xtick_7">
     <g id="line2d_7">
      <g>
       <use style="fill:#333333;stroke:#333333;stroke-width:0.6;" x="317.913983" xlink:href="#m25f19aecbe" y="506.16"/>
      </g>
     </g>
    </g>
    <g id="xtick_8">
     <g id="line2d_8">
      <g>
       <use style="fill:#333333;stroke:#333333;stroke-width:0.6;" x="340.502886" xlink:href="#m25f19aecbe" y="506.16"/>
      </g>
     </g>
    </g>
    <g id="xtick_9">
     <g id="line2d_9">
      <g>
       <use style="fill:#333333;stroke:#333333;stroke-width:0.6;" x="359.601532" xlink:href="#m25f19aecbe" y="506.16"/>
      </g>
     </g>
    </g>
    <g id="xtick_10">
     <g id="line2d_10">
      <g>
       <use style="fill:#333333;stroke:#333333;stroke-width:0.6;" x="376.145531" xlink:href="#m25f19aecbe" y="506.16"/>
      </g>
     </g>
    </g>
    <g id="xtick_11">
     <g id="line2d_11">
      <g>
       <use style="fill:#333333;stroke:#333333;stroke-width:0.6;" x="390.738372" xlink:href="#m25f19aecbe" y="506.16"/>
      </g>
     </g>
    </g>
    <g id="xtick_12">
     <g id="line2d_12">
      <g>
       <use style="fill:#333333;stroke:#333333;stroke-width:0.6;" x="489.670246" xlink:href="#m25f19aecbe" y="506.16"/>
      </g>
     </g>
    </g>
    <g id="xtick_13">
     <g id="line2d_13">
      <g>
       <use style="fill:#333333;stroke:#333333;stroke-width:0.6;" x="539.905732" xlink:href="#m25f19aecbe" y="506.16"/>
      </g>
     </g>
    </g>
    <g id="xtick_14">
     <g id="line2d_14">
      <g>
       <use style="fill:#333333;stroke:#333333;stroke-width:0.6;" x="575.548377" xlink:href="#m25f19aecbe" y="506.16"/>
      </g>
     </g>
    </g>
    <g id="xtick_15">
     <g id="line2d_15">
      <g>
       <use style="fill:#333333;stroke:#333333;stroke-width:0.6;" x="603.19496" xlink:href="#m25f19aecbe" y="506.16"/>
      </g>
     </g>
    </g>
    <g id="xtick_16">
     <g id="line2d_16">
      <g>
       <use style="fill:#333333;stroke:#333333;stroke-width:0.6;" x="625.783864" xlink:href="#m25f19aecbe" y="506.16"/>
      </g>
     </g>
    </g>
    <g id="xtick_17">
     <g id="line2d_17">
      <g>
       <use style="fill:#333333;stroke:#333333;stroke-width:0.6;" x="644.882509" xlink:href="#m25f19aecbe" y="506.16"/>
      </g>
     </g>
    </g>
    <g id="text_3">
     <!-- $m [M_{\odot}]$ -->
     <defs>
      <path d="M 60.6875 43.40625 
Q 64.3125 48.578125 68.5 50.953125 
Q 72.703125 53.328125 78.328125 53.328125 
Q 87.25 53.328125 91.671875 48.265625 
Q 96.09375 43.21875 96.09375 33.015625 
L 96.09375 5.90625 
L 103.515625 5.90625 
L 103.515625 0 
L 72.609375 0 
L 72.609375 5.90625 
L 78.8125 5.90625 
L 78.8125 30.421875 
Q 78.8125 40.140625 77.3125 42.671875 
Q 75.828125 45.21875 71.78125 45.21875 
Q 67.1875 45.21875 64.640625 41.671875 
Q 62.109375 38.140625 62.109375 31.59375 
L 62.109375 5.90625 
L 68.3125 5.90625 
L 68.3125 0 
L 38.625 0 
L 38.625 5.90625 
L 44.828125 5.90625 
L 44.828125 30.421875 
Q 44.828125 40.140625 43.3125 42.671875 
Q 41.796875 45.21875 37.796875 45.21875 
Q 33.15625 45.21875 30.609375 41.671875 
Q 28.078125 38.140625 28.078125 31.59375 
L 28.078125 5.90625 
L 34.28125 5.90625 
L 34.28125 0 
L 3.421875 0 
L 3.421875 5.90625 
L 10.796875 5.90625 
L 10.796875 46 
L 3.421875 46 
L 3.421875 51.90625 
L 28.078125 51.90625 
L 28.078125 44.578125 
Q 31.109375 49.125 35.015625 51.21875 
Q 38.921875 53.328125 44.28125 53.328125 
Q 50.640625 53.328125 54.59375 50.90625 
Q 58.546875 48.484375 60.6875 43.40625 
z
" id="DejaVuSerif-Bold-109"/>
      <path d="M 12.5 75.984375 
L 40.1875 75.984375 
L 40.1875 70.125 
L 29.78125 70.125 
L 29.78125 -7.328125 
L 40.1875 -7.328125 
L 40.1875 -13.1875 
L 12.5 -13.1875 
z
" id="DejaVuSerif-Bold-91"/>
      <path d="M 4.203125 0 
L 4.203125 5.90625 
L 13.484375 5.90625 
L 13.484375 67 
L 4.203125 67 
L 4.203125 72.90625 
L 34.28125 72.90625 
L 55.078125 26.125 
L 75.984375 72.90625 
L 106 72.90625 
L 106 67 
L 96.6875 67 
L 96.6875 5.90625 
L 106 5.90625 
L 106 0 
L 68.5 0 
L 68.5 5.90625 
L 77.78125 5.90625 
L 77.78125 61.53125 
L 55.171875 10.6875 
L 42.828125 10.6875 
L 20.3125 61.53125 
L 20.3125 5.90625 
L 29.59375 5.90625 
L 29.59375 0 
z
" id="DejaVuSerif-Bold-77"/>
      <path d="M 38.09375 22.125 
Q 32.625 27.546875 32.625 31.34375 
Q 32.625 35.15625 35.359375 37.890625 
Q 38.09375 40.625 41.890625 40.625 
Q 45.75 40.625 48.484375 37.890625 
Q 51.21875 35.15625 51.21875 31.34375 
Q 51.21875 27.546875 48.484375 24.828125 
Q 45.75 22.125 41.890625 22.125 
Q 38.09375 22.125 32.625 27.546875 
z
M 27.203125 46.046875 
Q 21.78125 36.765625 21.78125 31.34375 
Q 21.78125 25.921875 24.484375 21.28125 
Q 27.203125 16.65625 31.828125 13.9375 
Q 36.46875 11.234375 41.890625 11.234375 
Q 47.3125 11.234375 51.953125 13.9375 
Q 56.59375 16.65625 59.296875 21.28125 
Q 62.015625 25.921875 62.015625 31.34375 
Q 62.015625 36.765625 59.296875 41.40625 
Q 56.59375 46.046875 51.953125 48.75 
Q 47.3125 51.46875 41.890625 51.46875 
Q 36.46875 51.46875 31.828125 48.75 
Q 27.203125 46.046875 21.78125 36.765625 
z
M 18.953125 8.40625 
Q 10.546875 22.859375 10.546875 31.34375 
Q 10.546875 39.84375 14.75 47.0625 
Q 18.953125 54.296875 26.171875 58.5 
Q 33.40625 62.703125 41.890625 62.703125 
Q 50.390625 62.703125 57.609375 58.5 
Q 64.84375 54.296875 69.046875 47.0625 
Q 73.25 39.84375 73.25 31.34375 
Q 73.25 22.859375 69.046875 15.625 
Q 64.84375 8.40625 57.609375 4.203125 
Q 50.390625 0 41.890625 0 
Q 33.40625 0 26.171875 4.203125 
Q 18.953125 8.40625 10.546875 22.859375 
z
" id="DejaVuSerif-Bold-8857"/>
      <path d="M 34.8125 75.984375 
L 34.8125 -13.1875 
L 7.078125 -13.1875 
L 7.078125 -7.328125 
L 17.484375 -7.328125 
L 17.484375 70.125 
L 7.078125 70.125 
L 7.078125 75.984375 
z
" id="DejaVuSerif-Bold-93"/>
     </defs>
     <g transform="translate(327.2675 553.188125)scale(0.24 -0.24)">
      <use transform="translate(0 0.015625)" xlink:href="#DejaVuSerif-Bold-109"/>
      <use transform="translate(105.810547 0.015625)" xlink:href="#DejaVuSerif-Bold-91"/>
      <use transform="translate(153.125 0.015625)" xlink:href="#DejaVuSerif-Bold-77"/>
      <use transform="translate(264.726719 -15.55625)scale(0.7)" xlink:href="#DejaVuSerif-Bold-8857"/>
      <use transform="translate(325.974375 0.015625)" xlink:href="#DejaVuSerif-Bold-93"/>
     </g>
    </g>
   </g>
   <g id="matplotlib.axis_2">
    <g id="ytick_1">
     <g id="line2d_18">
      <defs>
       <path d="M 0 0 
L 6 0 
" id="m045191a00f" style="stroke:#333333;stroke-width:0.8;"/>
      </defs>
      <g>
       <use style="fill:#333333;stroke:#333333;stroke-width:0.8;" x="93.1475" xlink:href="#m045191a00f" y="456.075742"/>
      </g>
     </g>
     <g id="text_4">
      <!-- $\mathdefault{10^{-2}}$ -->
      <defs>
       <path d="M 10.59375 36.921875 
L 73.1875 36.921875 
L 73.1875 25.6875 
L 10.59375 25.6875 
z
" id="DejaVuSerif-Bold-8722"/>
       <path d="M 13.1875 54.890625 
L 7.328125 54.890625 
L 7.328125 70.609375 
Q 13.28125 72.40625 19.109375 73.3125 
Q 24.953125 74.21875 30.90625 74.21875 
Q 44.828125 74.21875 52.609375 68.53125 
Q 60.40625 62.84375 60.40625 52.6875 
Q 60.40625 45.453125 56.109375 39.71875 
Q 51.8125 33.984375 39.703125 26.125 
L 19.390625 12.796875 
L 53.90625 12.796875 
L 53.90625 21.390625 
L 60.59375 21.390625 
L 60.59375 0 
L 6.6875 0 
L 6.6875 11.921875 
L 17.484375 19.390625 
Q 31.296875 28.90625 35.890625 35.59375 
Q 40.484375 42.28125 40.484375 51.21875 
Q 40.484375 59.671875 36.984375 64.078125 
Q 33.5 68.5 26.8125 68.5 
Q 21.046875 68.5 17.578125 65.015625 
Q 14.109375 61.53125 13.1875 54.890625 
z
" id="DejaVuSerif-Bold-50"/>
      </defs>
      <g style="fill:#333333;" transform="translate(34.4275 464.434024)scale(0.22 -0.22)">
       <use transform="translate(0 0.7125)" xlink:href="#DejaVuSerif-Bold-49"/>
       <use transform="translate(69.580078 0.7125)" xlink:href="#DejaVuSerif-Bold-48"/>
       <use transform="translate(140.068516 37.046875)scale(0.7)" xlink:href="#DejaVuSerif-Bold-8722"/>
       <use transform="translate(198.720859 37.046875)scale(0.7)" xlink:href="#DejaVuSerif-Bold-50"/>
      </g>
     </g>
    </g>
    <g id="ytick_2">
     <g id="line2d_19">
      <g>
       <use style="fill:#333333;stroke:#333333;stroke-width:0.8;" x="93.1475" xlink:href="#m045191a00f" y="346.470362"/>
      </g>
     </g>
     <g id="text_5">
      <!-- $\mathdefault{10^{-1}}$ -->
      <g style="fill:#333333;" transform="translate(34.4275 354.828643)scale(0.22 -0.22)">
       <use transform="translate(0 0.7125)" xlink:href="#DejaVuSerif-Bold-49"/>
       <use transform="translate(69.580078 0.7125)" xlink:href="#DejaVuSerif-Bold-48"/>
       <use transform="translate(140.068516 37.046875)scale(0.7)" xlink:href="#DejaVuSerif-Bold-8722"/>
       <use transform="translate(198.720859 37.046875)scale(0.7)" xlink:href="#DejaVuSerif-Bold-49"/>
      </g>
     </g>
    </g>
    <g id="ytick_3">
     <g id="line2d_20">
      <g>
       <use style="fill:#333333;stroke:#333333;stroke-width:0.8;" x="93.1475" xlink:href="#m045191a00f" y="236.864982"/>
      </g>
     </g>
     <g id="text_6">
      <!-- $\mathdefault{10^{0}}$ -->
      <g style="fill:#333333;" transform="translate(47.4075 245.223263)scale(0.22 -0.22)">
       <use transform="translate(0 0.7125)" xlink:href="#DejaVuSerif-Bold-49"/>
       <use transform="translate(69.580078 0.7125)" xlink:href="#DejaVuSerif-Bold-48"/>
       <use transform="translate(140.068516 37.046875)scale(0.7)" xlink:href="#DejaVuSerif-Bold-48"/>
      </g>
     </g>
    </g>
    <g id="ytick_4">
     <g id="line2d_21">
      <g>
       <use style="fill:#333333;stroke:#333333;stroke-width:0.8;" x="93.1475" xlink:href="#m045191a00f" y="127.259602"/>
      </g>
     </g>
     <g id="text_7">
      <!-- $\mathdefault{10^{1}}$ -->
      <g style="fill:#333333;" transform="translate(47.4075 135.617883)scale(0.22 -0.22)">
       <use transform="translate(0 0.7125)" xlink:href="#DejaVuSerif-Bold-49"/>
       <use transform="translate(69.580078 0.7125)" xlink:href="#DejaVuSerif-Bold-48"/>
       <use transform="translate(140.068516 37.046875)scale(0.7)" xlink:href="#DejaVuSerif-Bold-49"/>
      </g>
     </g>
    </g>
    <g id="ytick_5">
     <g id="line2d_22">
      <g>
       <use style="fill:#333333;stroke:#333333;stroke-width:0.8;" x="93.1475" xlink:href="#m045191a00f" y="17.654221"/>
      </g>
     </g>
     <g id="text_8">
      <!-- $\mathdefault{10^{2}}$ -->
      <g style="fill:#333333;" transform="translate(47.4075 26.012503)scale(0.22 -0.22)">
       <use transform="translate(0 0.7125)" xlink:href="#DejaVuSerif-Bold-49"/>
       <use transform="translate(69.580078 0.7125)" xlink:href="#DejaVuSerif-Bold-48"/>
       <use transform="translate(140.068516 37.046875)scale(0.7)" xlink:href="#DejaVuSerif-Bold-50"/>
      </g>
     </g>
    </g>
    <g id="ytick_6">
     <g id="line2d_23">
      <defs>
       <path d="M 0 0 
L 3 0 
" id="m018b77393c" style="stroke:#333333;stroke-width:0.6;"/>
      </defs>
      <g>
       <use style="fill:#333333;stroke:#333333;stroke-width:0.6;" x="93.1475" xlink:href="#m018b77393c" y="499.692108"/>
      </g>
     </g>
    </g>
    <g id="ytick_7">
     <g id="line2d_24">
      <g>
       <use style="fill:#333333;stroke:#333333;stroke-width:0.6;" x="93.1475" xlink:href="#m018b77393c" y="489.07025"/>
      </g>
     </g>
    </g>
    <g id="ytick_8">
     <g id="line2d_25">
      <g>
       <use style="fill:#333333;stroke:#333333;stroke-width:0.6;" x="93.1475" xlink:href="#m018b77393c" y="480.391559"/>
      </g>
     </g>
    </g>
    <g id="ytick_9">
     <g id="line2d_26">
      <g>
       <use style="fill:#333333;stroke:#333333;stroke-width:0.6;" x="93.1475" xlink:href="#m018b77393c" y="473.053831"/>
      </g>
     </g>
    </g>
    <g id="ytick_10">
     <g id="line2d_27">
      <g>
       <use style="fill:#333333;stroke:#333333;stroke-width:0.6;" x="93.1475" xlink:href="#m018b77393c" y="466.697601"/>
      </g>
     </g>
    </g>
    <g id="ytick_11">
     <g id="line2d_28">
      <g>
       <use style="fill:#333333;stroke:#333333;stroke-width:0.6;" x="93.1475" xlink:href="#m018b77393c" y="461.09101"/>
      </g>
     </g>
    </g>
    <g id="ytick_12">
     <g id="line2d_29">
      <g>
       <use style="fill:#333333;stroke:#333333;stroke-width:0.6;" x="93.1475" xlink:href="#m018b77393c" y="423.081235"/>
      </g>
     </g>
    </g>
    <g id="ytick_13">
     <g id="line2d_30">
      <g>
       <use style="fill:#333333;stroke:#333333;stroke-width:0.6;" x="93.1475" xlink:href="#m018b77393c" y="403.780686"/>
      </g>
     </g>
    </g>
    <g id="ytick_14">
     <g id="line2d_31">
      <g>
       <use style="fill:#333333;stroke:#333333;stroke-width:0.6;" x="93.1475" xlink:href="#m018b77393c" y="390.086728"/>
      </g>
     </g>
    </g>
    <g id="ytick_15">
     <g id="line2d_32">
      <g>
       <use style="fill:#333333;stroke:#333333;stroke-width:0.6;" x="93.1475" xlink:href="#m018b77393c" y="379.464869"/>
      </g>
     </g>
    </g>
    <g id="ytick_16">
     <g id="line2d_33">
      <g>
       <use style="fill:#333333;stroke:#333333;stroke-width:0.6;" x="93.1475" xlink:href="#m018b77393c" y="370.786179"/>
      </g>
     </g>
    </g>
    <g id="ytick_17">
     <g id="line2d_34">
      <g>
       <use style="fill:#333333;stroke:#333333;stroke-width:0.6;" x="93.1475" xlink:href="#m018b77393c" y="363.44845"/>
      </g>
     </g>
    </g>
    <g id="ytick_18">
     <g id="line2d_35">
      <g>
       <use style="fill:#333333;stroke:#333333;stroke-width:0.6;" x="93.1475" xlink:href="#m018b77393c" y="357.092221"/>
      </g>
     </g>
    </g>
    <g id="ytick_19">
     <g id="line2d_36">
      <g>
       <use style="fill:#333333;stroke:#333333;stroke-width:0.6;" x="93.1475" xlink:href="#m018b77393c" y="351.485629"/>
      </g>
     </g>
    </g>
    <g id="ytick_20">
     <g id="line2d_37">
      <g>
       <use style="fill:#333333;stroke:#333333;stroke-width:0.6;" x="93.1475" xlink:href="#m018b77393c" y="313.475855"/>
      </g>
     </g>
    </g>
    <g id="ytick_21">
     <g id="line2d_38">
      <g>
       <use style="fill:#333333;stroke:#333333;stroke-width:0.6;" x="93.1475" xlink:href="#m018b77393c" y="294.175306"/>
      </g>
     </g>
    </g>
    <g id="ytick_22">
     <g id="line2d_39">
      <g>
       <use style="fill:#333333;stroke:#333333;stroke-width:0.6;" x="93.1475" xlink:href="#m018b77393c" y="280.481348"/>
      </g>
     </g>
    </g>
    <g id="ytick_23">
     <g id="line2d_40">
      <g>
       <use style="fill:#333333;stroke:#333333;stroke-width:0.6;" x="93.1475" xlink:href="#m018b77393c" y="269.859489"/>
      </g>
     </g>
    </g>
    <g id="ytick_24">
     <g id="line2d_41">
      <g>
       <use style="fill:#333333;stroke:#333333;stroke-width:0.6;" x="93.1475" xlink:href="#m018b77393c" y="261.180798"/>
      </g>
     </g>
    </g>
    <g id="ytick_25">
     <g id="line2d_42">
      <g>
       <use style="fill:#333333;stroke:#333333;stroke-width:0.6;" x="93.1475" xlink:href="#m018b77393c" y="253.84307"/>
      </g>
     </g>
    </g>
    <g id="ytick_26">
     <g id="line2d_43">
      <g>
       <use style="fill:#333333;stroke:#333333;stroke-width:0.6;" x="93.1475" xlink:href="#m018b77393c" y="247.486841"/>
      </g>
     </g>
    </g>
    <g id="ytick_27">
     <g id="line2d_44">
      <g>
       <use style="fill:#333333;stroke:#333333;stroke-width:0.6;" x="93.1475" xlink:href="#m018b77393c" y="241.880249"/>
      </g>
     </g>
    </g>
    <g id="ytick_28">
     <g id="line2d_45">
      <g>
       <use style="fill:#333333;stroke:#333333;stroke-width:0.6;" x="93.1475" xlink:href="#m018b77393c" y="203.870475"/>
      </g>
     </g>
    </g>
    <g id="ytick_29">
     <g id="line2d_46">
      <g>
       <use style="fill:#333333;stroke:#333333;stroke-width:0.6;" x="93.1475" xlink:href="#m018b77393c" y="184.569925"/>
      </g>
     </g>
    </g>
    <g id="ytick_30">
     <g id="line2d_47">
      <g>
       <use style="fill:#333333;stroke:#333333;stroke-width:0.6;" x="93.1475" xlink:href="#m018b77393c" y="170.875968"/>
      </g>
     </g>
    </g>
    <g id="ytick_31">
     <g id="line2d_48">
      <g>
       <use style="fill:#333333;stroke:#333333;stroke-width:0.6;" x="93.1475" xlink:href="#m018b77393c" y="160.254109"/>
      </g>
     </g>
    </g>
    <g id="ytick_32">
     <g id="line2d_49">
      <g>
       <use style="fill:#333333;stroke:#333333;stroke-width:0.6;" x="93.1475" xlink:href="#m018b77393c" y="151.575418"/>
      </g>
     </g>
    </g>
    <g id="ytick_33">
     <g id="line2d_50">
      <g>
       <use style="fill:#333333;stroke:#333333;stroke-width:0.6;" x="93.1475" xlink:href="#m018b77393c" y="144.23769"/>
      </g>
     </g>
    </g>
    <g id="ytick_34">
     <g id="line2d_51">
      <g>
       <use style="fill:#333333;stroke:#333333;stroke-width:0.6;" x="93.1475" xlink:href="#m018b77393c" y="137.88146"/>
      </g>
     </g>
    </g>
    <g id="ytick_35">
     <g id="line2d_52">
      <g>
       <use style="fill:#333333;stroke:#333333;stroke-width:0.6;" x="93.1475" xlink:href="#m018b77393c" y="132.274869"/>
      </g>
     </g>
    </g>
    <g id="ytick_36">
     <g id="line2d_53">
      <g>
       <use style="fill:#333333;stroke:#333333;stroke-width:0.6;" x="93.1475" xlink:href="#m018b77393c" y="94.265095"/>
      </g>
     </g>
    </g>
    <g id="ytick_37">
     <g id="line2d_54">
      <g>
       <use style="fill:#333333;stroke:#333333;stroke-width:0.6;" x="93.1475" xlink:href="#m018b77393c" y="74.964545"/>
      </g>
     </g>
    </g>
    <g id="ytick_38">
     <g id="line2d_55">
      <g>
       <use style="fill:#333333;stroke:#333333;stroke-width:0.6;" x="93.1475" xlink:href="#m018b77393c" y="61.270587"/>
      </g>
     </g>
    </g>
    <g id="ytick_39">
     <g id="line2d_56">
      <g>
       <use style="fill:#333333;stroke:#333333;stroke-width:0.6;" x="93.1475" xlink:href="#m018b77393c" y="50.648729"/>
      </g>
     </g>
    </g>
    <g id="ytick_40">
     <g id="line2d_57">
      <g>
       <use style="fill:#333333;stroke:#333333;stroke-width:0.6;" x="93.1475" xlink:href="#m018b77393c" y="41.970038"/>
      </g>
     </g>
    </g>
    <g id="ytick_41">
     <g id="line2d_58">
      <g>
       <use style="fill:#333333;stroke:#333333;stroke-width:0.6;" x="93.1475" xlink:href="#m018b77393c" y="34.63231"/>
      </g>
     </g>
    </g>
    <g id="ytick_42">
     <g id="line2d_59">
      <g>
       <use style="fill:#333333;stroke:#333333;stroke-width:0.6;" x="93.1475" xlink:href="#m018b77393c" y="28.27608"/>
      </g>
     </g>
    </g>
    <g id="ytick_43">
     <g id="line2d_60">
      <g>
       <use style="fill:#333333;stroke:#333333;stroke-width:0.6;" x="93.1475" xlink:href="#m018b77393c" y="22.669489"/>
      </g>
     </g>
    </g>
    <g id="text_9">
     <!-- $a_{\rm bin} [au]$ -->
     <defs>
      <path d="M 55.078125 31.890625 
L 55.078125 5.90625 
L 62.5 5.90625 
L 62.5 0 
L 37.796875 0 
L 37.796875 6.59375 
Q 34.375 2.484375 30.171875 0.53125 
Q 25.984375 -1.421875 20.609375 -1.421875 
Q 12.640625 -1.421875 8.375 2.84375 
Q 4.109375 7.125 4.109375 15.09375 
Q 4.109375 23.828125 10.234375 28.171875 
Q 16.359375 32.515625 28.71875 32.515625 
L 37.796875 32.515625 
L 37.796875 35.59375 
Q 37.796875 41.890625 34.8125 44.890625 
Q 31.84375 47.90625 25.59375 47.90625 
Q 20.40625 47.90625 17.59375 45.78125 
Q 14.796875 43.65625 13.625 38.8125 
L 8.109375 38.8125 
L 8.109375 50 
Q 12.75 51.65625 17.71875 52.484375 
Q 22.703125 53.328125 28.21875 53.328125 
Q 42.140625 53.328125 48.609375 48.140625 
Q 55.078125 42.96875 55.078125 31.890625 
z
M 37.796875 16.3125 
L 37.796875 26.703125 
L 31.296875 26.703125 
Q 26.46875 26.703125 23.875 24.0625 
Q 21.296875 21.4375 21.296875 16.5 
Q 21.296875 11.578125 23.171875 9.125 
Q 25.046875 6.6875 28.90625 6.6875 
Q 32.90625 6.6875 35.34375 9.328125 
Q 37.796875 11.96875 37.796875 16.3125 
z
" id="DejaVuSerif-Bold-97"/>
      <path d="M 37.5 11.28125 
Q 43.109375 11.28125 46.0625 15.375 
Q 49.03125 19.484375 49.03125 27.296875 
Q 49.03125 35.109375 46.0625 39.203125 
Q 43.109375 43.3125 37.5 43.3125 
Q 31.890625 43.3125 28.875 39.1875 
Q 25.875 35.0625 25.875 27.296875 
Q 25.875 19.53125 28.875 15.40625 
Q 31.890625 11.28125 37.5 11.28125 
z
M 25.875 46.6875 
Q 29.5 51.46875 33.890625 53.734375 
Q 38.28125 56 44 56 
Q 54.109375 56 60.59375 47.96875 
Q 67.09375 39.9375 67.09375 27.296875 
Q 67.09375 14.65625 60.59375 6.609375 
Q 54.109375 -1.421875 44 -1.421875 
Q 38.28125 -1.421875 33.890625 0.84375 
Q 29.5 3.125 25.875 7.90625 
L 25.875 0 
L 8.40625 0 
L 8.40625 75.984375 
L 25.875 75.984375 
z
" id="DejaVuSans-Bold-98"/>
      <path d="M 8.40625 54.6875 
L 25.875 54.6875 
L 25.875 0 
L 8.40625 0 
z
M 8.40625 75.984375 
L 25.875 75.984375 
L 25.875 61.71875 
L 8.40625 61.71875 
z
" id="DejaVuSans-Bold-105"/>
      <path d="M 63.375 33.296875 
L 63.375 0 
L 45.796875 0 
L 45.796875 5.421875 
L 45.796875 25.484375 
Q 45.796875 32.5625 45.484375 35.25 
Q 45.171875 37.9375 44.390625 39.203125 
Q 43.359375 40.921875 41.59375 41.875 
Q 39.84375 42.828125 37.59375 42.828125 
Q 32.125 42.828125 29 38.59375 
Q 25.875 34.375 25.875 26.90625 
L 25.875 0 
L 8.40625 0 
L 8.40625 54.6875 
L 25.875 54.6875 
L 25.875 46.6875 
Q 29.828125 51.46875 34.265625 53.734375 
Q 38.71875 56 44.09375 56 
Q 53.5625 56 58.46875 50.1875 
Q 63.375 44.390625 63.375 33.296875 
z
" id="DejaVuSans-Bold-110"/>
      <path d="M 61.921875 51.90625 
L 61.921875 5.90625 
L 69.28125 5.90625 
L 69.28125 0 
L 44.578125 0 
L 44.578125 7.328125 
Q 41.5 2.6875 37.5 0.625 
Q 33.5 -1.421875 27.390625 -1.421875 
Q 18.65625 -1.421875 14.1875 3.734375 
Q 9.71875 8.890625 9.71875 18.890625 
L 9.71875 46 
L 2.296875 46 
L 2.296875 51.90625 
L 27 51.90625 
L 27 21.578125 
Q 27 11.921875 28.609375 9.296875 
Q 30.21875 6.6875 34.515625 6.6875 
Q 39.75 6.6875 42.15625 10.546875 
Q 44.578125 14.40625 44.578125 22.796875 
L 44.578125 46 
L 38.28125 46 
L 38.28125 51.90625 
z
" id="DejaVuSerif-Bold-117"/>
     </defs>
     <g transform="translate(25.43625 307.68)rotate(-90)scale(0.24 -0.24)">
      <use transform="translate(0 0.015625)" xlink:href="#DejaVuSerif-Bold-97"/>
      <use transform="translate(65.703281 -15.55625)scale(0.7)" xlink:href="#DejaVuSans-Bold-98"/>
      <use transform="translate(115.810703 -15.55625)scale(0.7)" xlink:href="#DejaVuSans-Bold-105"/>
      <use transform="translate(139.804844 -15.55625)scale(0.7)" xlink:href="#DejaVuSans-Bold-110"/>
      <use transform="translate(192.234141 0.015625)" xlink:href="#DejaVuSerif-Bold-91"/>
      <use transform="translate(239.548594 0.015625)" xlink:href="#DejaVuSerif-Bold-97"/>
      <use transform="translate(304.343516 0.015625)" xlink:href="#DejaVuSerif-Bold-117"/>
      <use transform="translate(377.048594 0.015625)" xlink:href="#DejaVuSerif-Bold-93"/>
     </g>
    </g>
   </g>
   <g id="line2d_61">
    <path clip-path="url(#p1614876519)" d="M 118.511136 483.48 
L 128.863641 479.360864 
L 139.216146 475.221565 
L 149.56865 471.263764 
L 159.921155 467.879807 
L 170.27366 464.768928 
L 180.626164 461.436083 
L 190.978669 457.735288 
L 201.331173 453.544534 
L 211.683678 448.886703 
L 222.036183 443.865107 
L 232.388687 438.6669 
L 242.741192 433.395299 
L 253.093697 428.092643 
L 263.446201 425.170615 
L 273.798706 423.726768 
L 284.151211 423.097263 
L 294.503715 422.030171 
L 304.85622 420.528009 
L 315.208724 418.793343 
L 325.561229 416.849999 
L 335.913734 414.84148 
L 346.266238 412.785832 
L 356.618743 410.667315 
L 366.971248 408.52085 
L 377.323752 406.379034 
L 387.676257 404.181424 
L 398.028762 401.992454 
L 408.381266 399.77953 
L 418.733771 397.558151 
L 429.086276 395.869894 
L 439.43878 393.820162 
L 449.791285 391.710409 
L 460.143789 389.495277 
L 470.496294 387.14323 
L 480.848799 384.796032 
L 491.201303 382.464654 
L 501.553808 380.203927 
L 511.906313 378.005274 
L 522.258817 375.922923 
L 532.611322 373.721644 
L 542.963827 371.565606 
L 553.316331 369.300967 
L 563.668836 367.131055 
L 574.02134 365.000005 
L 584.373845 362.748858 
L 594.72635 360.572166 
L 605.078854 358.332234 
L 615.431359 356.135317 
L 625.783864 354.011123 
" style="fill:none;stroke:#000000;stroke-linecap:square;stroke-width:2;"/>
   </g>
   <g id="line2d_62">
    <path clip-path="url(#p1614876519)" d="M 118.511136 263.888397 
L 128.863641 259.91095 
L 139.216146 255.933502 
L 149.56865 251.956054 
L 159.921155 247.978606 
L 170.27366 244.001158 
L 180.626164 240.02371 
L 190.978669 236.046263 
L 201.331173 232.068815 
L 211.683678 228.091367 
L 222.036183 224.113919 
L 232.388687 220.136471 
L 242.741192 216.159023 
L 253.093697 212.181576 
L 263.446201 208.204128 
L 273.798706 204.22668 
L 284.151211 200.249232 
L 294.503715 196.271784 
L 304.85622 192.294336 
L 315.208724 188.316889 
L 325.561229 184.339441 
L 335.913734 180.361993 
L 346.266238 176.384545 
L 356.618743 172.407097 
L 366.971248 168.429649 
L 377.323752 164.452202 
L 387.676257 160.474754 
L 398.028762 156.497306 
L 408.381266 152.519858 
L 418.733771 148.54241 
L 429.086276 144.564962 
L 439.43878 140.587515 
L 449.791285 136.610067 
L 460.143789 132.632619 
L 470.496294 128.655171 
L 480.848799 124.677723 
L 491.201303 120.700275 
L 501.553808 116.722828 
L 511.906313 112.74538 
L 522.258817 108.767932 
L 532.611322 101.474061 
L 542.963827 93.519165 
L 553.316331 85.56427 
L 563.668836 77.609374 
L 574.02134 69.654478 
L 584.373845 61.699583 
L 594.72635 53.744687 
L 605.078854 45.789791 
L 615.431359 37.834896 
L 625.783864 29.88 
" style="fill:none;stroke:#000000;stroke-linecap:square;stroke-width:2;"/>
   </g>
   <g id="text_10">
    <g id="patch_3">
     <path d="M 399.712114 373.739635 
L 545.632114 373.739635 
L 545.632114 342.352135 
L 399.712114 342.352135 
z
" style="fill:#ffffff;opacity:0.1;stroke:#ffffff;stroke-linejoin:miter;"/>
    </g>
    <!-- $a_{min} (e=0)$ -->
    <defs>
     <path d="M 9.1875 66.609375 
Q 9.1875 70.5625 11.921875 73.265625 
Q 14.65625 75.984375 18.609375 75.984375 
Q 22.46875 75.984375 25.171875 73.265625 
Q 27.875 70.5625 27.875 66.609375 
Q 27.875 62.75 25.171875 60.03125 
Q 22.46875 57.328125 18.609375 57.328125 
Q 14.65625 57.328125 11.921875 60.015625 
Q 9.1875 62.703125 9.1875 66.609375 
z
M 28.078125 5.90625 
L 35.5 5.90625 
L 35.5 0 
L 3.421875 0 
L 3.421875 5.90625 
L 10.796875 5.90625 
L 10.796875 46 
L 3.421875 46 
L 3.421875 51.90625 
L 28.078125 51.90625 
z
" id="DejaVuSerif-Bold-105"/>
     <path d="M 3.421875 0 
L 3.421875 5.90625 
L 10.796875 5.90625 
L 10.796875 46 
L 3.421875 46 
L 3.421875 51.90625 
L 28.078125 51.90625 
L 28.078125 44.578125 
Q 31.203125 49.21875 35.203125 51.265625 
Q 39.203125 53.328125 45.3125 53.328125 
Q 54.046875 53.328125 58.515625 48.171875 
Q 62.984375 43.015625 62.984375 33.015625 
L 62.984375 5.90625 
L 70.40625 5.90625 
L 70.40625 0 
L 39.40625 0 
L 39.40625 5.90625 
L 45.703125 5.90625 
L 45.703125 33.5 
Q 45.703125 40.09375 44.015625 42.65625 
Q 42.328125 45.21875 38.1875 45.21875 
Q 32.953125 45.21875 30.515625 41.375 
Q 28.078125 37.546875 28.078125 29.203125 
L 28.078125 5.90625 
L 34.421875 5.90625 
L 34.421875 0 
z
" id="DejaVuSerif-Bold-110"/>
     <path d="M 42.09375 -15.578125 
Q 25.640625 -9.46875 17.53125 1.90625 
Q 9.421875 13.28125 9.421875 30.171875 
Q 9.421875 47.078125 17.421875 58.296875 
Q 25.4375 69.53125 42.09375 75.984375 
L 42.09375 70.125 
Q 34.375 65.4375 30.984375 56.21875 
Q 27.59375 47.015625 27.59375 30.171875 
Q 27.59375 13.375 30.984375 4.171875 
Q 34.375 -5.03125 42.09375 -9.71875 
z
" id="DejaVuSerif-Bold-40"/>
     <path d="M 40.09375 29.296875 
Q 40.09375 39.546875 38.1875 43.671875 
Q 36.28125 47.796875 31.6875 47.796875 
Q 27.25 47.796875 25.3125 43.75 
Q 23.390625 39.703125 23.390625 30.171875 
L 23.390625 29.296875 
z
M 59.078125 23.484375 
L 23.390625 23.484375 
L 23.390625 23.09375 
Q 23.390625 13.03125 26.40625 8.5625 
Q 29.4375 4.109375 36.1875 4.109375 
Q 41.796875 4.109375 45.265625 7.078125 
Q 48.734375 10.0625 49.703125 15.71875 
L 57.8125 15.71875 
Q 55.71875 6.890625 49.46875 2.734375 
Q 43.21875 -1.421875 31.984375 -1.421875 
Q 18.5 -1.421875 11.296875 5.6875 
Q 4.109375 12.796875 4.109375 25.984375 
Q 4.109375 38.875 11.46875 46.09375 
Q 18.84375 53.328125 31.984375 53.328125 
Q 44.875 53.328125 51.75 45.734375 
Q 58.640625 38.140625 59.078125 23.484375 
z
" id="DejaVuSerif-Bold-101"/>
     <path d="M 10.59375 25.78125 
L 73.1875 25.78125 
L 73.1875 14.703125 
L 10.59375 14.703125 
z
M 10.59375 48 
L 73.1875 48 
L 73.1875 36.921875 
L 10.59375 36.921875 
z
" id="DejaVuSerif-Bold-61"/>
     <path d="M 5.078125 -15.578125 
L 5.078125 -9.71875 
Q 12.796875 -5.03125 16.1875 4.171875 
Q 19.578125 13.375 19.578125 30.171875 
Q 19.578125 47.015625 16.1875 56.21875 
Q 12.796875 65.4375 5.078125 70.125 
L 5.078125 75.984375 
Q 21.734375 69.53125 29.765625 58.296875 
Q 37.796875 47.078125 37.796875 30.171875 
Q 37.796875 13.28125 29.65625 1.90625 
Q 21.53125 -9.46875 5.078125 -15.578125 
z
" id="DejaVuSerif-Bold-41"/>
    </defs>
    <g transform="translate(403.792114 364.668385)scale(0.24 -0.24)">
     <use transform="translate(0 0.015625)" xlink:href="#DejaVuSerif-Bold-97"/>
     <use transform="translate(65.703281 -15.55625)scale(0.7)" xlink:href="#DejaVuSerif-Bold-109"/>
     <use transform="translate(139.770664 -15.55625)scale(0.7)" xlink:href="#DejaVuSerif-Bold-105"/>
     <use transform="translate(166.362461 -15.55625)scale(0.7)" xlink:href="#DejaVuSerif-Bold-110"/>
     <use transform="translate(219.851328 0.015625)" xlink:href="#DejaVuSerif-Bold-40"/>
     <use transform="translate(267.165781 0.015625)" xlink:href="#DejaVuSerif-Bold-101"/>
     <use transform="translate(351.950938 0.015625)" xlink:href="#DejaVuSerif-Bold-61"/>
     <use transform="translate(456.902109 0.015625)" xlink:href="#DejaVuSerif-Bold-48"/>
     <use transform="translate(526.482188 0.015625)" xlink:href="#DejaVuSerif-Bold-41"/>
    </g>
   </g>
   <g id="text_11">
    <g id="patch_4">
     <path d="M 399.712114 120.080767 
L 463.072114 120.080767 
L 463.072114 88.693267 
L 399.712114 88.693267 
z
" style="fill:#ffffff;opacity:0.1;stroke:#ffffff;stroke-linejoin:miter;"/>
    </g>
    <!-- $a_{max}$ -->
    <defs>
     <path d="M 35.109375 33.109375 
L 44.28125 46 
L 37.890625 46 
L 37.890625 51.90625 
L 58.109375 51.90625 
L 58.109375 46 
L 51.21875 46 
L 37.984375 27.484375 
L 53.421875 5.90625 
L 60.296875 5.90625 
L 60.296875 0 
L 27.296875 0 
L 27.296875 5.90625 
L 33.984375 5.90625 
L 24.21875 19.578125 
L 14.40625 5.90625 
L 21.390625 5.90625 
L 21.390625 0 
L 0 0 
L 0 5.90625 
L 7.421875 5.90625 
L 21.1875 25.296875 
L 6.296875 46 
L 0.484375 46 
L 0.484375 51.90625 
L 32.171875 51.90625 
L 32.171875 46 
L 25.875 46 
z
" id="DejaVuSerif-Bold-120"/>
    </defs>
    <g transform="translate(403.792114 111.009517)scale(0.24 -0.24)">
     <use transform="translate(0 0.671875)" xlink:href="#DejaVuSerif-Bold-97"/>
     <use transform="translate(65.703281 -14.9)scale(0.7)" xlink:href="#DejaVuSerif-Bold-109"/>
     <use transform="translate(139.770664 -14.9)scale(0.7)" xlink:href="#DejaVuSerif-Bold-97"/>
     <use transform="translate(185.127109 -14.9)scale(0.7)" xlink:href="#DejaVuSerif-Bold-120"/>
    </g>
   </g>
   <g id="patch_5">
    <path d="M 93.1475 506.16 
L 93.1475 7.2 
" style="fill:none;stroke:#333333;stroke-linecap:square;stroke-linejoin:miter;stroke-width:0.8;"/>
   </g>
   <g id="patch_6">
    <path d="M 651.1475 506.16 
L 651.1475 7.2 
" style="fill:none;stroke:#333333;stroke-linecap:square;stroke-linejoin:miter;stroke-width:0.8;"/>
   </g>
   <g id="patch_7">
    <path d="M 93.1475 506.16 
L 651.1475 506.16 
" style="fill:none;stroke:#333333;stroke-linecap:square;stroke-linejoin:miter;stroke-width:0.8;"/>
   </g>
   <g id="patch_8">
    <path d="M 93.1475 7.2 
L 651.1475 7.2 
" style="fill:none;stroke:#333333;stroke-linecap:square;stroke-linejoin:miter;stroke-width:0.8;"/>
   </g>
   <g id="text_12">
    <!-- $a_{s} \propto a_{\rm bin}$ -->
    <defs>
     <path d="M 4.6875 1.515625 
L 4.6875 16.015625 
L 10.203125 16.015625 
Q 10.890625 10.203125 14.546875 7.15625 
Q 18.21875 4.109375 24.515625 4.109375 
Q 29.78125 4.109375 32.59375 5.9375 
Q 35.40625 7.765625 35.40625 11.1875 
Q 35.40625 14.3125 33.625 16.015625 
Q 31.84375 17.71875 26.703125 19 
L 19.578125 20.796875 
Q 11.53125 22.796875 7.90625 26.53125 
Q 4.296875 30.28125 4.296875 36.625 
Q 4.296875 45.0625 10.15625 49.1875 
Q 16.015625 53.328125 28.21875 53.328125 
Q 32.8125 53.328125 38.015625 52.5625 
Q 43.21875 51.8125 49.515625 50.203125 
L 49.515625 37.109375 
L 44 37.109375 
Q 43.5625 42.4375 40.203125 45.109375 
Q 36.859375 47.796875 30.609375 47.796875 
Q 25.34375 47.796875 22.625 46.109375 
Q 19.921875 44.4375 19.921875 41.21875 
Q 19.921875 38.578125 21.484375 37.0625 
Q 23.046875 35.546875 27.09375 34.515625 
L 34.1875 32.71875 
Q 44.390625 30.125 48.296875 26.3125 
Q 52.203125 22.515625 52.203125 15.71875 
Q 52.203125 6.9375 45.921875 2.75 
Q 39.65625 -1.421875 26.421875 -1.421875 
Q 21.578125 -1.421875 16.15625 -0.6875 
Q 10.75 0.046875 4.6875 1.515625 
z
" id="DejaVuSerif-Bold-115"/>
     <path d="M 37.40625 32.171875 
Q 35.15625 35.890625 32.171875 37.6875 
Q 29.203125 39.5 25.390625 39.5 
Q 20.84375 39.5 17.96875 36.734375 
Q 15.09375 33.984375 15.09375 29.6875 
Q 15.09375 25.53125 17.71875 22.765625 
Q 20.359375 20.015625 24.3125 20.015625 
Q 27.984375 20.015625 31.046875 22.84375 
Q 34.125 25.6875 37.40625 32.171875 
z
M 57.171875 9.8125 
Q 53.765625 9.8125 50.078125 12.5625 
Q 46.390625 15.328125 41.890625 22.3125 
Q 38.53125 15.828125 34.71875 12.765625 
Q 30.90625 9.71875 26.21875 9.71875 
Q 19.4375 9.71875 14.71875 15.453125 
Q 10.015625 21.1875 10.015625 29.78125 
Q 10.015625 38.765625 14.1875 44.28125 
Q 18.359375 49.8125 25.09375 49.8125 
Q 29.640625 49.8125 33.375 46.953125 
Q 37.109375 44.09375 41.40625 37.203125 
Q 44.734375 43.65625 48.640625 46.78125 
Q 52.546875 49.90625 57.171875 49.90625 
L 57.171875 39.5 
Q 55.46875 39.5 52.4375 36.71875 
Q 49.421875 33.9375 46 27.390625 
Q 48.1875 23.734375 51.1875 21.875 
Q 54.203125 20.015625 57.171875 20.015625 
z
" id="DejaVuSerif-Bold-8733"/>
    </defs>
    <g transform="translate(98.7275 30.42585)scale(0.24 -0.24)">
     <use transform="translate(0 0.671875)" xlink:href="#DejaVuSerif-Bold-97"/>
     <use transform="translate(65.703281 -14.9)scale(0.7)" xlink:href="#DejaVuSerif-Bold-115"/>
     <use transform="translate(128.869883 0.671875)" xlink:href="#DejaVuSerif-Bold-8733"/>
     <use transform="translate(217.219492 0.671875)" xlink:href="#DejaVuSerif-Bold-97"/>
     <use transform="translate(282.922773 -14.9)scale(0.7)" xlink:href="#DejaVuSans-Bold-98"/>
     <use transform="translate(333.030195 -14.9)scale(0.7)" xlink:href="#DejaVuSans-Bold-105"/>
     <use transform="translate(357.024336 -14.9)scale(0.7)" xlink:href="#DejaVuSans-Bold-110"/>
    </g>
   </g>
  </g>
 </g>
 <defs>
  <clipPath id="p1614876519">
   <rect height="498.96" width="558" x="93.1475" y="7.2"/>
  </clipPath>
 </defs>
</svg>
