<?xml version="1.0" encoding="utf-8" standalone="no"?>
<!DOCTYPE svg PUBLIC "-//W3C//DTD SVG 1.1//EN"
  "http://www.w3.org/Graphics/SVG/1.1/DTD/svg11.dtd">
<!-- Created with matplotlib (https://matplotlib.org/) -->
<svg height="573.737656pt" version="1.1" viewBox="0 0 1019.84 573.737656" width="1019.84pt" xmlns="http://www.w3.org/2000/svg" xmlns:xlink="http://www.w3.org/1999/xlink">
 <defs>
  <style type="text/css">
*{stroke-linecap:butt;stroke-linejoin:round;}
  </style>
 </defs>
 <g id="figure_1">
  <g id="patch_1">
   <path d="M 0 573.737656 
L 1019.84 573.737656 
L 1019.84 0 
L 0 0 
z
" style="fill:#ffffff;"/>
  </g>
  <g id="axes_1">
   <g id="patch_2">
    <path d="M 98.72 514.518281 
L 991.52 514.518281 
L 991.52 15.558281 
L 98.72 15.558281 
z
" style="fill:#ffffff;"/>
   </g>
   <g id="matplotlib.axis_1">
    <g id="xtick_1">
     <g id="line2d_1">
      <defs>
       <path d="M 0 0 
L 0 -6 
" id="m5006241bc7" style="stroke:#333333;stroke-width:0.8;"/>
      </defs>
      <g>
       <use style="fill:#333333;stroke:#333333;stroke-width:0.8;" x="98.72" xlink:href="#m5006241bc7" y="514.518281"/>
      </g>
     </g>
     <g id="text_1">
      <!-- $\mathdefault{10^{-4}}$ -->
      <defs>
       <path d="M 13.71875 0 
L 13.71875 5.90625 
L 27.390625 5.90625 
L 27.390625 64.890625 
L 12.203125 55.90625 
L 12.203125 63.1875 
L 30.515625 74.21875 
L 45.90625 74.21875 
L 45.90625 5.90625 
L 59.625 5.90625 
L 59.625 0 
z
" id="DejaVuSerif-Bold-49"/>
       <path d="M 34.8125 4.296875 
Q 40.671875 4.296875 42.84375 9.609375 
Q 45.015625 14.9375 45.015625 36.375 
Q 45.015625 57.671875 42.84375 63.078125 
Q 40.671875 68.5 34.8125 68.5 
Q 28.953125 68.5 26.78125 63.171875 
Q 24.609375 57.859375 24.609375 36.375 
Q 24.609375 14.9375 26.78125 9.609375 
Q 28.953125 4.296875 34.8125 4.296875 
z
M 34.8125 -1.421875 
Q 20.21875 -1.421875 12.453125 8.3125 
Q 4.6875 18.0625 4.6875 36.375 
Q 4.6875 54.6875 12.453125 64.453125 
Q 20.21875 74.21875 34.8125 74.21875 
Q 49.359375 74.21875 57.125 64.453125 
Q 64.890625 54.6875 64.890625 36.375 
Q 64.890625 18.0625 57.125 8.3125 
Q 49.359375 -1.421875 34.8125 -1.421875 
z
" id="DejaVuSerif-Bold-48"/>
       <path d="M 10.59375 36.921875 
L 73.1875 36.921875 
L 73.1875 25.6875 
L 10.59375 25.6875 
z
" id="DejaVuSerif-Bold-8722"/>
       <path d="M 63.8125 0 
L 23.6875 0 
L 23.6875 5.90625 
L 34.515625 5.90625 
L 34.515625 19.1875 
L 4.109375 19.1875 
L 4.109375 24.8125 
L 34.625 74.21875 
L 52.984375 74.21875 
L 52.984375 25.484375 
L 65.484375 25.484375 
L 65.484375 19.1875 
L 52.984375 19.1875 
L 52.984375 5.90625 
L 63.8125 5.90625 
z
M 34.515625 25.484375 
L 34.515625 60.890625 
L 12.796875 25.484375 
z
" id="DejaVuSerif-Bold-52"/>
      </defs>
      <g style="fill:#333333;" transform="translate(71.11 534.734844)scale(0.22 -0.22)">
       <use transform="translate(0 0.7125)" xlink:href="#DejaVuSerif-Bold-49"/>
       <use transform="translate(69.580078 0.7125)" xlink:href="#DejaVuSerif-Bold-48"/>
       <use transform="translate(140.068516 37.046875)scale(0.7)" xlink:href="#DejaVuSerif-Bold-8722"/>
       <use transform="translate(198.720859 37.046875)scale(0.7)" xlink:href="#DejaVuSerif-Bold-52"/>
      </g>
     </g>
    </g>
    <g id="xtick_2">
     <g id="line2d_2">
      <g>
       <use style="fill:#333333;stroke:#333333;stroke-width:0.8;" x="321.92" xlink:href="#m5006241bc7" y="514.518281"/>
      </g>
     </g>
     <g id="text_2">
      <!-- $\mathdefault{10^{-3}}$ -->
      <defs>
       <path d="M 8.59375 70.796875 
Q 15.046875 72.515625 21.09375 73.359375 
Q 27.15625 74.21875 32.90625 74.21875 
Q 46.09375 74.21875 53.140625 69.5 
Q 60.203125 64.796875 60.203125 56 
Q 60.203125 49.421875 56.140625 45.3125 
Q 52.09375 41.21875 44.28125 39.796875 
Q 53.8125 38.28125 58.5 33.296875 
Q 63.1875 28.328125 63.1875 19.671875 
Q 63.1875 9.46875 55.09375 4.015625 
Q 47.015625 -1.421875 31.6875 -1.421875 
Q 25.921875 -1.421875 19.796875 -0.4375 
Q 13.671875 0.53125 6.984375 2.484375 
L 6.984375 18.5 
L 12.890625 18.5 
Q 13.421875 11.578125 17.234375 7.9375 
Q 21.046875 4.296875 27.78125 4.296875 
Q 35.203125 4.296875 39.25 8.421875 
Q 43.3125 12.546875 43.3125 20.125 
Q 43.3125 28.03125 39.078125 32.328125 
Q 34.859375 36.625 27.09375 36.625 
L 23.875 36.625 
L 23.875 42.484375 
L 26.421875 42.484375 
Q 33.59375 42.484375 37.203125 45.796875 
Q 40.828125 49.125 40.828125 55.71875 
Q 40.828125 61.921875 37.421875 65.203125 
Q 34.03125 68.5 27.6875 68.5 
Q 21.921875 68.5 18.546875 65.34375 
Q 15.1875 62.203125 14.5 56.203125 
L 8.59375 56.203125 
z
" id="DejaVuSerif-Bold-51"/>
      </defs>
      <g style="fill:#333333;" transform="translate(294.31 534.734844)scale(0.22 -0.22)">
       <use transform="translate(0 0.7125)" xlink:href="#DejaVuSerif-Bold-49"/>
       <use transform="translate(69.580078 0.7125)" xlink:href="#DejaVuSerif-Bold-48"/>
       <use transform="translate(140.068516 37.046875)scale(0.7)" xlink:href="#DejaVuSerif-Bold-8722"/>
       <use transform="translate(198.720859 37.046875)scale(0.7)" xlink:href="#DejaVuSerif-Bold-51"/>
      </g>
     </g>
    </g>
    <g id="xtick_3">
     <g id="line2d_3">
      <g>
       <use style="fill:#333333;stroke:#333333;stroke-width:0.8;" x="545.12" xlink:href="#m5006241bc7" y="514.518281"/>
      </g>
     </g>
     <g id="text_3">
      <!-- $\mathdefault{10^{-2}}$ -->
      <defs>
       <path d="M 13.1875 54.890625 
L 7.328125 54.890625 
L 7.328125 70.609375 
Q 13.28125 72.40625 19.109375 73.3125 
Q 24.953125 74.21875 30.90625 74.21875 
Q 44.828125 74.21875 52.609375 68.53125 
Q 60.40625 62.84375 60.40625 52.6875 
Q 60.40625 45.453125 56.109375 39.71875 
Q 51.8125 33.984375 39.703125 26.125 
L 19.390625 12.796875 
L 53.90625 12.796875 
L 53.90625 21.390625 
L 60.59375 21.390625 
L 60.59375 0 
L 6.6875 0 
L 6.6875 11.921875 
L 17.484375 19.390625 
Q 31.296875 28.90625 35.890625 35.59375 
Q 40.484375 42.28125 40.484375 51.21875 
Q 40.484375 59.671875 36.984375 64.078125 
Q 33.5 68.5 26.8125 68.5 
Q 21.046875 68.5 17.578125 65.015625 
Q 14.109375 61.53125 13.1875 54.890625 
z
" id="DejaVuSerif-Bold-50"/>
      </defs>
      <g style="fill:#333333;" transform="translate(517.51 534.734844)scale(0.22 -0.22)">
       <use transform="translate(0 0.7125)" xlink:href="#DejaVuSerif-Bold-49"/>
       <use transform="translate(69.580078 0.7125)" xlink:href="#DejaVuSerif-Bold-48"/>
       <use transform="translate(140.068516 37.046875)scale(0.7)" xlink:href="#DejaVuSerif-Bold-8722"/>
       <use transform="translate(198.720859 37.046875)scale(0.7)" xlink:href="#DejaVuSerif-Bold-50"/>
      </g>
     </g>
    </g>
    <g id="xtick_4">
     <g id="line2d_4">
      <g>
       <use style="fill:#333333;stroke:#333333;stroke-width:0.8;" x="768.32" xlink:href="#m5006241bc7" y="514.518281"/>
      </g>
     </g>
     <g id="text_4">
      <!-- $\mathdefault{10^{-1}}$ -->
      <g style="fill:#333333;" transform="translate(740.71 534.734844)scale(0.22 -0.22)">
       <use transform="translate(0 0.7125)" xlink:href="#DejaVuSerif-Bold-49"/>
       <use transform="translate(69.580078 0.7125)" xlink:href="#DejaVuSerif-Bold-48"/>
       <use transform="translate(140.068516 37.046875)scale(0.7)" xlink:href="#DejaVuSerif-Bold-8722"/>
       <use transform="translate(198.720859 37.046875)scale(0.7)" xlink:href="#DejaVuSerif-Bold-49"/>
      </g>
     </g>
    </g>
    <g id="xtick_5">
     <g id="line2d_5">
      <g>
       <use style="fill:#333333;stroke:#333333;stroke-width:0.8;" x="991.52" xlink:href="#m5006241bc7" y="514.518281"/>
      </g>
     </g>
     <g id="text_5">
      <!-- $\mathdefault{10^{0}}$ -->
      <g style="fill:#333333;" transform="translate(970.4 534.734844)scale(0.22 -0.22)">
       <use transform="translate(0 0.7125)" xlink:href="#DejaVuSerif-Bold-49"/>
       <use transform="translate(69.580078 0.7125)" xlink:href="#DejaVuSerif-Bold-48"/>
       <use transform="translate(140.068516 37.046875)scale(0.7)" xlink:href="#DejaVuSerif-Bold-48"/>
      </g>
     </g>
    </g>
    <g id="xtick_6">
     <g id="line2d_6">
      <defs>
       <path d="M 0 0 
L 0 -3 
" id="m5412a072cf" style="stroke:#333333;stroke-width:0.6;"/>
      </defs>
      <g>
       <use style="fill:#333333;stroke:#333333;stroke-width:0.6;" x="165.909895" xlink:href="#m5412a072cf" y="514.518281"/>
      </g>
     </g>
    </g>
    <g id="xtick_7">
     <g id="line2d_7">
      <g>
       <use style="fill:#333333;stroke:#333333;stroke-width:0.6;" x="205.213464" xlink:href="#m5412a072cf" y="514.518281"/>
      </g>
     </g>
    </g>
    <g id="xtick_8">
     <g id="line2d_8">
      <g>
       <use style="fill:#333333;stroke:#333333;stroke-width:0.6;" x="233.09979" xlink:href="#m5412a072cf" y="514.518281"/>
      </g>
     </g>
    </g>
    <g id="xtick_9">
     <g id="line2d_9">
      <g>
       <use style="fill:#333333;stroke:#333333;stroke-width:0.6;" x="254.730105" xlink:href="#m5412a072cf" y="514.518281"/>
      </g>
     </g>
    </g>
    <g id="xtick_10">
     <g id="line2d_10">
      <g>
       <use style="fill:#333333;stroke:#333333;stroke-width:0.6;" x="272.403359" xlink:href="#m5412a072cf" y="514.518281"/>
      </g>
     </g>
    </g>
    <g id="xtick_11">
     <g id="line2d_11">
      <g>
       <use style="fill:#333333;stroke:#333333;stroke-width:0.6;" x="287.345883" xlink:href="#m5412a072cf" y="514.518281"/>
      </g>
     </g>
    </g>
    <g id="xtick_12">
     <g id="line2d_12">
      <g>
       <use style="fill:#333333;stroke:#333333;stroke-width:0.6;" x="300.289685" xlink:href="#m5412a072cf" y="514.518281"/>
      </g>
     </g>
    </g>
    <g id="xtick_13">
     <g id="line2d_13">
      <g>
       <use style="fill:#333333;stroke:#333333;stroke-width:0.6;" x="311.706928" xlink:href="#m5412a072cf" y="514.518281"/>
      </g>
     </g>
    </g>
    <g id="xtick_14">
     <g id="line2d_14">
      <g>
       <use style="fill:#333333;stroke:#333333;stroke-width:0.6;" x="389.109895" xlink:href="#m5412a072cf" y="514.518281"/>
      </g>
     </g>
    </g>
    <g id="xtick_15">
     <g id="line2d_15">
      <g>
       <use style="fill:#333333;stroke:#333333;stroke-width:0.6;" x="428.413464" xlink:href="#m5412a072cf" y="514.518281"/>
      </g>
     </g>
    </g>
    <g id="xtick_16">
     <g id="line2d_16">
      <g>
       <use style="fill:#333333;stroke:#333333;stroke-width:0.6;" x="456.29979" xlink:href="#m5412a072cf" y="514.518281"/>
      </g>
     </g>
    </g>
    <g id="xtick_17">
     <g id="line2d_17">
      <g>
       <use style="fill:#333333;stroke:#333333;stroke-width:0.6;" x="477.930105" xlink:href="#m5412a072cf" y="514.518281"/>
      </g>
     </g>
    </g>
    <g id="xtick_18">
     <g id="line2d_18">
      <g>
       <use style="fill:#333333;stroke:#333333;stroke-width:0.6;" x="495.603359" xlink:href="#m5412a072cf" y="514.518281"/>
      </g>
     </g>
    </g>
    <g id="xtick_19">
     <g id="line2d_19">
      <g>
       <use style="fill:#333333;stroke:#333333;stroke-width:0.6;" x="510.545883" xlink:href="#m5412a072cf" y="514.518281"/>
      </g>
     </g>
    </g>
    <g id="xtick_20">
     <g id="line2d_20">
      <g>
       <use style="fill:#333333;stroke:#333333;stroke-width:0.6;" x="523.489685" xlink:href="#m5412a072cf" y="514.518281"/>
      </g>
     </g>
    </g>
    <g id="xtick_21">
     <g id="line2d_21">
      <g>
       <use style="fill:#333333;stroke:#333333;stroke-width:0.6;" x="534.906928" xlink:href="#m5412a072cf" y="514.518281"/>
      </g>
     </g>
    </g>
    <g id="xtick_22">
     <g id="line2d_22">
      <g>
       <use style="fill:#333333;stroke:#333333;stroke-width:0.6;" x="612.309895" xlink:href="#m5412a072cf" y="514.518281"/>
      </g>
     </g>
    </g>
    <g id="xtick_23">
     <g id="line2d_23">
      <g>
       <use style="fill:#333333;stroke:#333333;stroke-width:0.6;" x="651.613464" xlink:href="#m5412a072cf" y="514.518281"/>
      </g>
     </g>
    </g>
    <g id="xtick_24">
     <g id="line2d_24">
      <g>
       <use style="fill:#333333;stroke:#333333;stroke-width:0.6;" x="679.49979" xlink:href="#m5412a072cf" y="514.518281"/>
      </g>
     </g>
    </g>
    <g id="xtick_25">
     <g id="line2d_25">
      <g>
       <use style="fill:#333333;stroke:#333333;stroke-width:0.6;" x="701.130105" xlink:href="#m5412a072cf" y="514.518281"/>
      </g>
     </g>
    </g>
    <g id="xtick_26">
     <g id="line2d_26">
      <g>
       <use style="fill:#333333;stroke:#333333;stroke-width:0.6;" x="718.803359" xlink:href="#m5412a072cf" y="514.518281"/>
      </g>
     </g>
    </g>
    <g id="xtick_27">
     <g id="line2d_27">
      <g>
       <use style="fill:#333333;stroke:#333333;stroke-width:0.6;" x="733.745883" xlink:href="#m5412a072cf" y="514.518281"/>
      </g>
     </g>
    </g>
    <g id="xtick_28">
     <g id="line2d_28">
      <g>
       <use style="fill:#333333;stroke:#333333;stroke-width:0.6;" x="746.689685" xlink:href="#m5412a072cf" y="514.518281"/>
      </g>
     </g>
    </g>
    <g id="xtick_29">
     <g id="line2d_29">
      <g>
       <use style="fill:#333333;stroke:#333333;stroke-width:0.6;" x="758.106928" xlink:href="#m5412a072cf" y="514.518281"/>
      </g>
     </g>
    </g>
    <g id="xtick_30">
     <g id="line2d_30">
      <g>
       <use style="fill:#333333;stroke:#333333;stroke-width:0.6;" x="835.509895" xlink:href="#m5412a072cf" y="514.518281"/>
      </g>
     </g>
    </g>
    <g id="xtick_31">
     <g id="line2d_31">
      <g>
       <use style="fill:#333333;stroke:#333333;stroke-width:0.6;" x="874.813464" xlink:href="#m5412a072cf" y="514.518281"/>
      </g>
     </g>
    </g>
    <g id="xtick_32">
     <g id="line2d_32">
      <g>
       <use style="fill:#333333;stroke:#333333;stroke-width:0.6;" x="902.69979" xlink:href="#m5412a072cf" y="514.518281"/>
      </g>
     </g>
    </g>
    <g id="xtick_33">
     <g id="line2d_33">
      <g>
       <use style="fill:#333333;stroke:#333333;stroke-width:0.6;" x="924.330105" xlink:href="#m5412a072cf" y="514.518281"/>
      </g>
     </g>
    </g>
    <g id="xtick_34">
     <g id="line2d_34">
      <g>
       <use style="fill:#333333;stroke:#333333;stroke-width:0.6;" x="942.003359" xlink:href="#m5412a072cf" y="514.518281"/>
      </g>
     </g>
    </g>
    <g id="xtick_35">
     <g id="line2d_35">
      <g>
       <use style="fill:#333333;stroke:#333333;stroke-width:0.6;" x="956.945883" xlink:href="#m5412a072cf" y="514.518281"/>
      </g>
     </g>
    </g>
    <g id="xtick_36">
     <g id="line2d_36">
      <g>
       <use style="fill:#333333;stroke:#333333;stroke-width:0.6;" x="969.889685" xlink:href="#m5412a072cf" y="514.518281"/>
      </g>
     </g>
    </g>
    <g id="xtick_37">
     <g id="line2d_37">
      <g>
       <use style="fill:#333333;stroke:#333333;stroke-width:0.6;" x="981.306928" xlink:href="#m5412a072cf" y="514.518281"/>
      </g>
     </g>
    </g>
    <g id="text_6">
     <!-- $1-e$ -->
     <defs>
      <path d="M 40.09375 29.296875 
Q 40.09375 39.546875 38.1875 43.671875 
Q 36.28125 47.796875 31.6875 47.796875 
Q 27.25 47.796875 25.3125 43.75 
Q 23.390625 39.703125 23.390625 30.171875 
L 23.390625 29.296875 
z
M 59.078125 23.484375 
L 23.390625 23.484375 
L 23.390625 23.09375 
Q 23.390625 13.03125 26.40625 8.5625 
Q 29.4375 4.109375 36.1875 4.109375 
Q 41.796875 4.109375 45.265625 7.078125 
Q 48.734375 10.0625 49.703125 15.71875 
L 57.8125 15.71875 
Q 55.71875 6.890625 49.46875 2.734375 
Q 43.21875 -1.421875 31.984375 -1.421875 
Q 18.5 -1.421875 11.296875 5.6875 
Q 4.109375 12.796875 4.109375 25.984375 
Q 4.109375 38.875 11.46875 46.09375 
Q 18.84375 53.328125 31.984375 53.328125 
Q 44.875 53.328125 51.75 45.734375 
Q 58.640625 38.140625 59.078125 23.484375 
z
" id="DejaVuSerif-Bold-101"/>
     </defs>
     <g transform="translate(513.92 561.546406)scale(0.24 -0.24)">
      <use transform="translate(0 0.78125)" xlink:href="#DejaVuSerif-Bold-49"/>
      <use transform="translate(90.742188 0.78125)" xlink:href="#DejaVuSerif-Bold-8722"/>
      <use transform="translate(195.693359 0.78125)" xlink:href="#DejaVuSerif-Bold-101"/>
     </g>
    </g>
   </g>
   <g id="matplotlib.axis_2">
    <g id="ytick_1">
     <g id="line2d_38">
      <defs>
       <path d="M 0 0 
L 6 0 
" id="m9f39019925" style="stroke:#333333;stroke-width:0.8;"/>
      </defs>
      <g>
       <use style="fill:#333333;stroke:#333333;stroke-width:0.8;" x="98.72" xlink:href="#m9f39019925" y="514.518281"/>
      </g>
     </g>
     <g id="text_7">
      <!-- $\mathdefault{10^{-6}}$ -->
      <defs>
       <path d="M 24.609375 43.21875 
Q 27.78125 45.75 31.703125 47.015625 
Q 35.640625 48.296875 40.28125 48.296875 
Q 51.46875 48.296875 57.828125 41.75 
Q 64.203125 35.203125 64.203125 23.78125 
Q 64.203125 11.71875 57.03125 5.140625 
Q 49.859375 -1.421875 36.625 -1.421875 
Q 21.6875 -1.421875 13.984375 7.59375 
Q 6.296875 16.609375 6.296875 34.078125 
Q 6.296875 53.953125 14.84375 64.078125 
Q 23.390625 74.21875 40.1875 74.21875 
Q 44.578125 74.21875 49.609375 73.484375 
Q 54.640625 72.75 60.40625 71.296875 
L 60.40625 58.40625 
L 54.5 58.40625 
Q 53.265625 63.375 49.875 65.9375 
Q 46.484375 68.5 41.109375 68.5 
Q 32.421875 68.5 28.53125 62.546875 
Q 24.65625 56.59375 24.609375 43.21875 
z
M 35.5 4.296875 
Q 40.53125 4.296875 42.671875 8.5625 
Q 44.828125 12.84375 44.828125 23.390625 
Q 44.828125 33.9375 42.671875 38.203125 
Q 40.53125 42.484375 35.5 42.484375 
Q 30.46875 42.484375 28.34375 38.203125 
Q 26.21875 33.9375 26.21875 23.390625 
Q 26.21875 12.84375 28.34375 8.5625 
Q 30.46875 4.296875 35.5 4.296875 
z
" id="DejaVuSerif-Bold-54"/>
      </defs>
      <g style="fill:#333333;" transform="translate(40 522.876562)scale(0.22 -0.22)">
       <use transform="translate(0 0.7125)" xlink:href="#DejaVuSerif-Bold-49"/>
       <use transform="translate(69.580078 0.7125)" xlink:href="#DejaVuSerif-Bold-48"/>
       <use transform="translate(140.068516 37.046875)scale(0.7)" xlink:href="#DejaVuSerif-Bold-8722"/>
       <use transform="translate(198.720859 37.046875)scale(0.7)" xlink:href="#DejaVuSerif-Bold-54"/>
      </g>
     </g>
    </g>
    <g id="ytick_2">
     <g id="line2d_39">
      <g>
       <use style="fill:#333333;stroke:#333333;stroke-width:0.8;" x="98.72" xlink:href="#m9f39019925" y="431.358281"/>
      </g>
     </g>
     <g id="text_8">
      <!-- $\mathdefault{10^{-5}}$ -->
      <defs>
       <path d="M 56.390625 72.90625 
L 56.390625 60.109375 
L 17.390625 60.109375 
L 17.390625 44.09375 
Q 20.609375 46.578125 24.5625 47.84375 
Q 28.515625 49.125 32.90625 49.125 
Q 46.390625 49.125 54.203125 42.3125 
Q 62.015625 35.5 62.015625 23.78125 
Q 62.015625 11.859375 54.203125 5.21875 
Q 46.390625 -1.421875 32.328125 -1.421875 
Q 26.375 -1.421875 20.484375 -0.4375 
Q 14.59375 0.53125 8.203125 2.59375 
L 8.203125 18.5 
L 14.0625 18.5 
Q 14.359375 11.328125 17.796875 7.8125 
Q 21.234375 4.296875 27.984375 4.296875 
Q 35.15625 4.296875 38.625 9.109375 
Q 42.09375 13.921875 42.09375 23.78125 
Q 42.09375 33.5 38.6875 38.296875 
Q 35.296875 43.109375 28.421875 43.109375 
Q 24.703125 43.109375 21.796875 41.578125 
Q 18.890625 40.046875 16.40625 36.8125 
L 11.53125 36.8125 
L 11.53125 72.90625 
z
" id="DejaVuSerif-Bold-53"/>
      </defs>
      <g style="fill:#333333;" transform="translate(40 439.716563)scale(0.22 -0.22)">
       <use transform="translate(0 0.63125)" xlink:href="#DejaVuSerif-Bold-49"/>
       <use transform="translate(69.580078 0.63125)" xlink:href="#DejaVuSerif-Bold-48"/>
       <use transform="translate(140.068516 36.965625)scale(0.7)" xlink:href="#DejaVuSerif-Bold-8722"/>
       <use transform="translate(198.720859 36.965625)scale(0.7)" xlink:href="#DejaVuSerif-Bold-53"/>
      </g>
     </g>
    </g>
    <g id="ytick_3">
     <g id="line2d_40">
      <g>
       <use style="fill:#333333;stroke:#333333;stroke-width:0.8;" x="98.72" xlink:href="#m9f39019925" y="348.198281"/>
      </g>
     </g>
     <g id="text_9">
      <!-- $\mathdefault{10^{-4}}$ -->
      <g style="fill:#333333;" transform="translate(40 356.556562)scale(0.22 -0.22)">
       <use transform="translate(0 0.7125)" xlink:href="#DejaVuSerif-Bold-49"/>
       <use transform="translate(69.580078 0.7125)" xlink:href="#DejaVuSerif-Bold-48"/>
       <use transform="translate(140.068516 37.046875)scale(0.7)" xlink:href="#DejaVuSerif-Bold-8722"/>
       <use transform="translate(198.720859 37.046875)scale(0.7)" xlink:href="#DejaVuSerif-Bold-52"/>
      </g>
     </g>
    </g>
    <g id="ytick_4">
     <g id="line2d_41">
      <g>
       <use style="fill:#333333;stroke:#333333;stroke-width:0.8;" x="98.72" xlink:href="#m9f39019925" y="265.038281"/>
      </g>
     </g>
     <g id="text_10">
      <!-- $\mathdefault{10^{-3}}$ -->
      <g style="fill:#333333;" transform="translate(40 273.396562)scale(0.22 -0.22)">
       <use transform="translate(0 0.7125)" xlink:href="#DejaVuSerif-Bold-49"/>
       <use transform="translate(69.580078 0.7125)" xlink:href="#DejaVuSerif-Bold-48"/>
       <use transform="translate(140.068516 37.046875)scale(0.7)" xlink:href="#DejaVuSerif-Bold-8722"/>
       <use transform="translate(198.720859 37.046875)scale(0.7)" xlink:href="#DejaVuSerif-Bold-51"/>
      </g>
     </g>
    </g>
    <g id="ytick_5">
     <g id="line2d_42">
      <g>
       <use style="fill:#333333;stroke:#333333;stroke-width:0.8;" x="98.72" xlink:href="#m9f39019925" y="181.878281"/>
      </g>
     </g>
     <g id="text_11">
      <!-- $\mathdefault{10^{-2}}$ -->
      <g style="fill:#333333;" transform="translate(40 190.236562)scale(0.22 -0.22)">
       <use transform="translate(0 0.7125)" xlink:href="#DejaVuSerif-Bold-49"/>
       <use transform="translate(69.580078 0.7125)" xlink:href="#DejaVuSerif-Bold-48"/>
       <use transform="translate(140.068516 37.046875)scale(0.7)" xlink:href="#DejaVuSerif-Bold-8722"/>
       <use transform="translate(198.720859 37.046875)scale(0.7)" xlink:href="#DejaVuSerif-Bold-50"/>
      </g>
     </g>
    </g>
    <g id="ytick_6">
     <g id="line2d_43">
      <g>
       <use style="fill:#333333;stroke:#333333;stroke-width:0.8;" x="98.72" xlink:href="#m9f39019925" y="98.718281"/>
      </g>
     </g>
     <g id="text_12">
      <!-- $\mathdefault{10^{-1}}$ -->
      <g style="fill:#333333;" transform="translate(40 107.076562)scale(0.22 -0.22)">
       <use transform="translate(0 0.7125)" xlink:href="#DejaVuSerif-Bold-49"/>
       <use transform="translate(69.580078 0.7125)" xlink:href="#DejaVuSerif-Bold-48"/>
       <use transform="translate(140.068516 37.046875)scale(0.7)" xlink:href="#DejaVuSerif-Bold-8722"/>
       <use transform="translate(198.720859 37.046875)scale(0.7)" xlink:href="#DejaVuSerif-Bold-49"/>
      </g>
     </g>
    </g>
    <g id="ytick_7">
     <g id="line2d_44">
      <g>
       <use style="fill:#333333;stroke:#333333;stroke-width:0.8;" x="98.72" xlink:href="#m9f39019925" y="15.558281"/>
      </g>
     </g>
     <g id="text_13">
      <!-- $\mathdefault{10^{0}}$ -->
      <g style="fill:#333333;" transform="translate(52.98 23.916562)scale(0.22 -0.22)">
       <use transform="translate(0 0.7125)" xlink:href="#DejaVuSerif-Bold-49"/>
       <use transform="translate(69.580078 0.7125)" xlink:href="#DejaVuSerif-Bold-48"/>
       <use transform="translate(140.068516 37.046875)scale(0.7)" xlink:href="#DejaVuSerif-Bold-48"/>
      </g>
     </g>
    </g>
    <g id="ytick_8">
     <g id="line2d_45">
      <defs>
       <path d="M 0 0 
L 3 0 
" id="mda1c957efd" style="stroke:#333333;stroke-width:0.6;"/>
      </defs>
      <g>
       <use style="fill:#333333;stroke:#333333;stroke-width:0.6;" x="98.72" xlink:href="#mda1c957efd" y="489.484627"/>
      </g>
     </g>
    </g>
    <g id="ytick_9">
     <g id="line2d_46">
      <g>
       <use style="fill:#333333;stroke:#333333;stroke-width:0.6;" x="98.72" xlink:href="#mda1c957efd" y="474.840878"/>
      </g>
     </g>
    </g>
    <g id="ytick_10">
     <g id="line2d_47">
      <g>
       <use style="fill:#333333;stroke:#333333;stroke-width:0.6;" x="98.72" xlink:href="#mda1c957efd" y="464.450972"/>
      </g>
     </g>
    </g>
    <g id="ytick_11">
     <g id="line2d_48">
      <g>
       <use style="fill:#333333;stroke:#333333;stroke-width:0.6;" x="98.72" xlink:href="#mda1c957efd" y="456.391936"/>
      </g>
     </g>
    </g>
    <g id="ytick_12">
     <g id="line2d_49">
      <g>
       <use style="fill:#333333;stroke:#333333;stroke-width:0.6;" x="98.72" xlink:href="#mda1c957efd" y="449.807223"/>
      </g>
     </g>
    </g>
    <g id="ytick_13">
     <g id="line2d_50">
      <g>
       <use style="fill:#333333;stroke:#333333;stroke-width:0.6;" x="98.72" xlink:href="#mda1c957efd" y="444.239928"/>
      </g>
     </g>
    </g>
    <g id="ytick_14">
     <g id="line2d_51">
      <g>
       <use style="fill:#333333;stroke:#333333;stroke-width:0.6;" x="98.72" xlink:href="#mda1c957efd" y="439.417318"/>
      </g>
     </g>
    </g>
    <g id="ytick_15">
     <g id="line2d_52">
      <g>
       <use style="fill:#333333;stroke:#333333;stroke-width:0.6;" x="98.72" xlink:href="#mda1c957efd" y="435.163474"/>
      </g>
     </g>
    </g>
    <g id="ytick_16">
     <g id="line2d_53">
      <g>
       <use style="fill:#333333;stroke:#333333;stroke-width:0.6;" x="98.72" xlink:href="#mda1c957efd" y="406.324627"/>
      </g>
     </g>
    </g>
    <g id="ytick_17">
     <g id="line2d_54">
      <g>
       <use style="fill:#333333;stroke:#333333;stroke-width:0.6;" x="98.72" xlink:href="#mda1c957efd" y="391.680878"/>
      </g>
     </g>
    </g>
    <g id="ytick_18">
     <g id="line2d_55">
      <g>
       <use style="fill:#333333;stroke:#333333;stroke-width:0.6;" x="98.72" xlink:href="#mda1c957efd" y="381.290972"/>
      </g>
     </g>
    </g>
    <g id="ytick_19">
     <g id="line2d_56">
      <g>
       <use style="fill:#333333;stroke:#333333;stroke-width:0.6;" x="98.72" xlink:href="#mda1c957efd" y="373.231936"/>
      </g>
     </g>
    </g>
    <g id="ytick_20">
     <g id="line2d_57">
      <g>
       <use style="fill:#333333;stroke:#333333;stroke-width:0.6;" x="98.72" xlink:href="#mda1c957efd" y="366.647223"/>
      </g>
     </g>
    </g>
    <g id="ytick_21">
     <g id="line2d_58">
      <g>
       <use style="fill:#333333;stroke:#333333;stroke-width:0.6;" x="98.72" xlink:href="#mda1c957efd" y="361.079928"/>
      </g>
     </g>
    </g>
    <g id="ytick_22">
     <g id="line2d_59">
      <g>
       <use style="fill:#333333;stroke:#333333;stroke-width:0.6;" x="98.72" xlink:href="#mda1c957efd" y="356.257318"/>
      </g>
     </g>
    </g>
    <g id="ytick_23">
     <g id="line2d_60">
      <g>
       <use style="fill:#333333;stroke:#333333;stroke-width:0.6;" x="98.72" xlink:href="#mda1c957efd" y="352.003474"/>
      </g>
     </g>
    </g>
    <g id="ytick_24">
     <g id="line2d_61">
      <g>
       <use style="fill:#333333;stroke:#333333;stroke-width:0.6;" x="98.72" xlink:href="#mda1c957efd" y="323.164627"/>
      </g>
     </g>
    </g>
    <g id="ytick_25">
     <g id="line2d_62">
      <g>
       <use style="fill:#333333;stroke:#333333;stroke-width:0.6;" x="98.72" xlink:href="#mda1c957efd" y="308.520878"/>
      </g>
     </g>
    </g>
    <g id="ytick_26">
     <g id="line2d_63">
      <g>
       <use style="fill:#333333;stroke:#333333;stroke-width:0.6;" x="98.72" xlink:href="#mda1c957efd" y="298.130972"/>
      </g>
     </g>
    </g>
    <g id="ytick_27">
     <g id="line2d_64">
      <g>
       <use style="fill:#333333;stroke:#333333;stroke-width:0.6;" x="98.72" xlink:href="#mda1c957efd" y="290.071936"/>
      </g>
     </g>
    </g>
    <g id="ytick_28">
     <g id="line2d_65">
      <g>
       <use style="fill:#333333;stroke:#333333;stroke-width:0.6;" x="98.72" xlink:href="#mda1c957efd" y="283.487223"/>
      </g>
     </g>
    </g>
    <g id="ytick_29">
     <g id="line2d_66">
      <g>
       <use style="fill:#333333;stroke:#333333;stroke-width:0.6;" x="98.72" xlink:href="#mda1c957efd" y="277.919928"/>
      </g>
     </g>
    </g>
    <g id="ytick_30">
     <g id="line2d_67">
      <g>
       <use style="fill:#333333;stroke:#333333;stroke-width:0.6;" x="98.72" xlink:href="#mda1c957efd" y="273.097318"/>
      </g>
     </g>
    </g>
    <g id="ytick_31">
     <g id="line2d_68">
      <g>
       <use style="fill:#333333;stroke:#333333;stroke-width:0.6;" x="98.72" xlink:href="#mda1c957efd" y="268.843474"/>
      </g>
     </g>
    </g>
    <g id="ytick_32">
     <g id="line2d_69">
      <g>
       <use style="fill:#333333;stroke:#333333;stroke-width:0.6;" x="98.72" xlink:href="#mda1c957efd" y="240.004627"/>
      </g>
     </g>
    </g>
    <g id="ytick_33">
     <g id="line2d_70">
      <g>
       <use style="fill:#333333;stroke:#333333;stroke-width:0.6;" x="98.72" xlink:href="#mda1c957efd" y="225.360878"/>
      </g>
     </g>
    </g>
    <g id="ytick_34">
     <g id="line2d_71">
      <g>
       <use style="fill:#333333;stroke:#333333;stroke-width:0.6;" x="98.72" xlink:href="#mda1c957efd" y="214.970972"/>
      </g>
     </g>
    </g>
    <g id="ytick_35">
     <g id="line2d_72">
      <g>
       <use style="fill:#333333;stroke:#333333;stroke-width:0.6;" x="98.72" xlink:href="#mda1c957efd" y="206.911936"/>
      </g>
     </g>
    </g>
    <g id="ytick_36">
     <g id="line2d_73">
      <g>
       <use style="fill:#333333;stroke:#333333;stroke-width:0.6;" x="98.72" xlink:href="#mda1c957efd" y="200.327223"/>
      </g>
     </g>
    </g>
    <g id="ytick_37">
     <g id="line2d_74">
      <g>
       <use style="fill:#333333;stroke:#333333;stroke-width:0.6;" x="98.72" xlink:href="#mda1c957efd" y="194.759928"/>
      </g>
     </g>
    </g>
    <g id="ytick_38">
     <g id="line2d_75">
      <g>
       <use style="fill:#333333;stroke:#333333;stroke-width:0.6;" x="98.72" xlink:href="#mda1c957efd" y="189.937318"/>
      </g>
     </g>
    </g>
    <g id="ytick_39">
     <g id="line2d_76">
      <g>
       <use style="fill:#333333;stroke:#333333;stroke-width:0.6;" x="98.72" xlink:href="#mda1c957efd" y="185.683474"/>
      </g>
     </g>
    </g>
    <g id="ytick_40">
     <g id="line2d_77">
      <g>
       <use style="fill:#333333;stroke:#333333;stroke-width:0.6;" x="98.72" xlink:href="#mda1c957efd" y="156.844627"/>
      </g>
     </g>
    </g>
    <g id="ytick_41">
     <g id="line2d_78">
      <g>
       <use style="fill:#333333;stroke:#333333;stroke-width:0.6;" x="98.72" xlink:href="#mda1c957efd" y="142.200878"/>
      </g>
     </g>
    </g>
    <g id="ytick_42">
     <g id="line2d_79">
      <g>
       <use style="fill:#333333;stroke:#333333;stroke-width:0.6;" x="98.72" xlink:href="#mda1c957efd" y="131.810972"/>
      </g>
     </g>
    </g>
    <g id="ytick_43">
     <g id="line2d_80">
      <g>
       <use style="fill:#333333;stroke:#333333;stroke-width:0.6;" x="98.72" xlink:href="#mda1c957efd" y="123.751936"/>
      </g>
     </g>
    </g>
    <g id="ytick_44">
     <g id="line2d_81">
      <g>
       <use style="fill:#333333;stroke:#333333;stroke-width:0.6;" x="98.72" xlink:href="#mda1c957efd" y="117.167223"/>
      </g>
     </g>
    </g>
    <g id="ytick_45">
     <g id="line2d_82">
      <g>
       <use style="fill:#333333;stroke:#333333;stroke-width:0.6;" x="98.72" xlink:href="#mda1c957efd" y="111.599928"/>
      </g>
     </g>
    </g>
    <g id="ytick_46">
     <g id="line2d_83">
      <g>
       <use style="fill:#333333;stroke:#333333;stroke-width:0.6;" x="98.72" xlink:href="#mda1c957efd" y="106.777318"/>
      </g>
     </g>
    </g>
    <g id="ytick_47">
     <g id="line2d_84">
      <g>
       <use style="fill:#333333;stroke:#333333;stroke-width:0.6;" x="98.72" xlink:href="#mda1c957efd" y="102.523474"/>
      </g>
     </g>
    </g>
    <g id="ytick_48">
     <g id="line2d_85">
      <g>
       <use style="fill:#333333;stroke:#333333;stroke-width:0.6;" x="98.72" xlink:href="#mda1c957efd" y="73.684627"/>
      </g>
     </g>
    </g>
    <g id="ytick_49">
     <g id="line2d_86">
      <g>
       <use style="fill:#333333;stroke:#333333;stroke-width:0.6;" x="98.72" xlink:href="#mda1c957efd" y="59.040878"/>
      </g>
     </g>
    </g>
    <g id="ytick_50">
     <g id="line2d_87">
      <g>
       <use style="fill:#333333;stroke:#333333;stroke-width:0.6;" x="98.72" xlink:href="#mda1c957efd" y="48.650972"/>
      </g>
     </g>
    </g>
    <g id="ytick_51">
     <g id="line2d_88">
      <g>
       <use style="fill:#333333;stroke:#333333;stroke-width:0.6;" x="98.72" xlink:href="#mda1c957efd" y="40.591936"/>
      </g>
     </g>
    </g>
    <g id="ytick_52">
     <g id="line2d_89">
      <g>
       <use style="fill:#333333;stroke:#333333;stroke-width:0.6;" x="98.72" xlink:href="#mda1c957efd" y="34.007223"/>
      </g>
     </g>
    </g>
    <g id="ytick_53">
     <g id="line2d_90">
      <g>
       <use style="fill:#333333;stroke:#333333;stroke-width:0.6;" x="98.72" xlink:href="#mda1c957efd" y="28.439928"/>
      </g>
     </g>
    </g>
    <g id="ytick_54">
     <g id="line2d_91">
      <g>
       <use style="fill:#333333;stroke:#333333;stroke-width:0.6;" x="98.72" xlink:href="#mda1c957efd" y="23.617318"/>
      </g>
     </g>
    </g>
    <g id="ytick_55">
     <g id="line2d_92">
      <g>
       <use style="fill:#333333;stroke:#333333;stroke-width:0.6;" x="98.72" xlink:href="#mda1c957efd" y="19.363474"/>
      </g>
     </g>
    </g>
    <g id="text_14">
     <!-- $D_{\rm jj} [Myr^{-1}]$ -->
     <defs>
      <path d="M 32.8125 5.90625 
L 39.59375 5.90625 
Q 51.03125 5.90625 56.328125 13.234375 
Q 61.625 20.5625 61.625 36.53125 
Q 61.625 52.390625 56.34375 59.6875 
Q 51.078125 67 39.59375 67 
L 32.8125 67 
z
M 4.6875 0 
L 4.6875 5.90625 
L 14.015625 5.90625 
L 14.015625 67 
L 4.6875 67 
L 4.6875 72.90625 
L 42.09375 72.90625 
Q 61.71875 72.90625 72.109375 63.53125 
Q 82.515625 54.15625 82.515625 36.53125 
Q 82.515625 18.796875 72.09375 9.390625 
Q 61.671875 0 42.09375 0 
z
" id="DejaVuSerif-Bold-68"/>
      <path d="M 8.40625 54.6875 
L 25.875 54.6875 
L 25.875 0.984375 
Q 25.875 -10.015625 20.59375 -15.796875 
Q 15.328125 -21.578125 5.328125 -21.578125 
L -3.328125 -21.578125 
L -3.328125 -10.109375 
L -0.296875 -10.109375 
Q 4.6875 -10.109375 6.546875 -7.859375 
Q 8.40625 -5.609375 8.40625 0.984375 
z
M 8.40625 75.984375 
L 25.875 75.984375 
L 25.875 61.71875 
L 8.40625 61.71875 
z
" id="DejaVuSans-Bold-106"/>
      <path d="M 12.5 75.984375 
L 40.1875 75.984375 
L 40.1875 70.125 
L 29.78125 70.125 
L 29.78125 -7.328125 
L 40.1875 -7.328125 
L 40.1875 -13.1875 
L 12.5 -13.1875 
z
" id="DejaVuSerif-Bold-91"/>
      <path d="M 4.203125 0 
L 4.203125 5.90625 
L 13.484375 5.90625 
L 13.484375 67 
L 4.203125 67 
L 4.203125 72.90625 
L 34.28125 72.90625 
L 55.078125 26.125 
L 75.984375 72.90625 
L 106 72.90625 
L 106 67 
L 96.6875 67 
L 96.6875 5.90625 
L 106 5.90625 
L 106 0 
L 68.5 0 
L 68.5 5.90625 
L 77.78125 5.90625 
L 77.78125 61.53125 
L 55.171875 10.6875 
L 42.828125 10.6875 
L 20.3125 61.53125 
L 20.3125 5.90625 
L 29.59375 5.90625 
L 29.59375 0 
z
" id="DejaVuSerif-Bold-77"/>
      <path d="M 31.203125 -11.71875 
Q 28.859375 -17.4375 25.53125 -19.828125 
Q 22.21875 -22.21875 16.609375 -22.21875 
Q 14.203125 -22.21875 11.265625 -21.671875 
Q 8.34375 -21.140625 4.890625 -20.125 
L 4.890625 -9.28125 
L 10.40625 -9.328125 
Q 10.546875 -13.09375 12.171875 -14.890625 
Q 13.8125 -16.703125 17.09375 -16.703125 
Q 20.265625 -16.703125 22.21875 -14.96875 
Q 24.171875 -13.234375 26.125 -8.40625 
L 26.90625 -6.59375 
L 4.296875 46 
L -1.3125 46 
L -1.3125 51.90625 
L 28.609375 51.90625 
L 28.609375 46 
L 22.40625 46 
L 35.59375 15.28125 
L 47.90625 46 
L 41.015625 46 
L 41.015625 51.90625 
L 60.5 51.90625 
L 60.5 46 
L 54.203125 46 
z
" id="DejaVuSerif-Bold-121"/>
      <path d="M 53.71875 52.484375 
L 53.71875 37.015625 
L 48.1875 37.015625 
Q 47.90625 41.15625 45.953125 43.1875 
Q 44 45.21875 40.28125 45.21875 
Q 34.625 45.21875 31.34375 40.234375 
Q 28.078125 35.25 28.078125 26.421875 
L 28.078125 5.90625 
L 37.5 5.90625 
L 37.5 0 
L 3.421875 0 
L 3.421875 5.90625 
L 10.796875 5.90625 
L 10.796875 46 
L 2.875 46 
L 2.875 51.90625 
L 28.078125 51.90625 
L 28.078125 42.671875 
Q 30.609375 48.09375 34.78125 50.703125 
Q 38.96875 53.328125 45.015625 53.328125 
Q 46.53125 53.328125 48.703125 53.09375 
Q 50.875 52.875 53.71875 52.484375 
z
" id="DejaVuSerif-Bold-114"/>
      <path d="M 34.8125 75.984375 
L 34.8125 -13.1875 
L 7.078125 -13.1875 
L 7.078125 -7.328125 
L 17.484375 -7.328125 
L 17.484375 70.125 
L 7.078125 70.125 
L 7.078125 75.984375 
z
" id="DejaVuSerif-Bold-93"/>
     </defs>
     <g transform="translate(28.56 332.958281)rotate(-90)scale(0.24 -0.24)">
      <use transform="translate(0 0.7125)" xlink:href="#DejaVuSerif-Bold-68"/>
      <use transform="translate(87.627109 -14.859375)scale(0.7)" xlink:href="#DejaVuSans-Bold-106"/>
      <use transform="translate(111.62125 -14.859375)scale(0.7)" xlink:href="#DejaVuSans-Bold-106"/>
      <use transform="translate(138.210703 0.7125)" xlink:href="#DejaVuSerif-Bold-91"/>
      <use transform="translate(185.525156 0.7125)" xlink:href="#DejaVuSerif-Bold-77"/>
      <use transform="translate(296.218516 0.7125)" xlink:href="#DejaVuSerif-Bold-121"/>
      <use transform="translate(354.323984 0.7125)" xlink:href="#DejaVuSerif-Bold-114"/>
      <use transform="translate(407.917891 37.046875)scale(0.7)" xlink:href="#DejaVuSerif-Bold-8722"/>
      <use transform="translate(466.570234 37.046875)scale(0.7)" xlink:href="#DejaVuSerif-Bold-49"/>
      <use transform="translate(517.871602 0.7125)" xlink:href="#DejaVuSerif-Bold-93"/>
     </g>
    </g>
   </g>
   <g id="line2d_93">
    <path clip-path="url(#p8570ff723b)" d="M 140.034971 508.534228 
L 149.226755 502.32664 
L 152.290699 500.643453 
L 155.354651 498.327489 
L 158.418613 496.405633 
L 161.482583 494.258958 
L 164.546562 492.266196 
L 167.610551 490.490818 
L 170.674549 488.410531 
L 173.738558 486.082505 
L 176.802578 484.187019 
L 179.866608 482.563884 
L 185.994702 478.501135 
L 189.058767 476.144231 
L 198.251037 470.179033 
L 204.379284 466.51011 
L 216.635955 458.329124 
L 225.828628 452.752102 
L 231.957166 448.398003 
L 235.021463 446.654191 
L 238.08578 444.52942 
L 247.278857 438.830305 
L 250.34326 436.707402 
L 265.665636 427.003161 
L 268.73019 425.451672 
L 271.794771 423.196999 
L 277.924022 419.030827 
L 280.988693 417.374115 
L 284.053396 415.086073 
L 287.118131 413.330227 
L 290.182901 411.710278 
L 293.247705 409.644773 
L 296.312546 407.981428 
L 299.377423 405.699112 
L 302.44234 403.984696 
L 305.507296 402.09662 
L 308.572293 400.34496 
L 311.637332 398.456503 
L 314.702415 396.251309 
L 317.767542 394.339475 
L 320.832717 392.627242 
L 323.897939 390.560786 
L 326.963211 388.722936 
L 333.09391 384.826976 
L 336.15934 383.148468 
L 339.224827 380.803865 
L 342.290371 379.094223 
L 345.355976 377.15072 
L 351.487373 373.706676 
L 354.553169 371.632546 
L 357.619033 369.885664 
L 360.684967 367.836387 
L 376.015775 358.574081 
L 379.082181 356.629651 
L 388.281937 351.358525 
L 394.415585 347.238957 
L 397.482562 345.723688 
L 400.549645 343.685494 
L 403.616837 342.17794 
L 406.684143 339.952588 
L 409.751565 338.371527 
L 412.819108 336.647165 
L 415.886775 334.565182 
L 418.954571 332.670839 
L 425.090565 329.373173 
L 428.158772 327.451397 
L 458.849703 309.696664 
L 468.060632 304.408303 
L 471.131375 302.421352 
L 474.202346 300.916146 
L 477.273553 299.199769 
L 480.345003 297.252929 
L 483.416705 295.774478 
L 486.488667 293.988236 
L 492.633402 290.680432 
L 495.706195 288.679562 
L 498.779282 287.107201 
L 501.852674 285.199664 
L 504.926382 283.454848 
L 508.000414 282.045853 
L 511.074782 280.155091 
L 517.224571 276.961196 
L 523.37584 273.706166 
L 526.45206 271.876702 
L 532.605737 268.786067 
L 535.683222 266.830292 
L 538.761155 265.54635 
L 541.839553 263.64246 
L 544.918431 261.896233 
L 551.077688 258.873961 
L 557.239062 255.618074 
L 563.402695 251.968962 
L 566.485405 249.981183 
L 572.652716 246.444939 
L 575.737358 245.107419 
L 581.908728 241.273454 
L 584.995502 239.970023 
L 591.171353 236.76192 
L 594.260481 235.360908 
L 597.350448 233.587123 
L 609.71928 227.319208 
L 612.813884 225.536082 
L 619.006199 222.661321 
L 622.103982 220.984345 
L 625.202898 219.659103 
L 628.302985 218.188275 
L 631.404286 216.516134 
L 634.50684 212.05738 
L 637.610693 183.179724 
L 640.715888 159.446139 
L 643.822472 142.928386 
L 646.930495 133.256959 
L 650.040006 127.85254 
L 653.151057 124.966109 
L 656.263704 123.17583 
L 659.378001 122.219489 
L 662.494008 122.030749 
L 665.611785 122.375065 
L 668.731395 122.91027 
L 674.97638 124.780888 
L 678.101894 125.579593 
L 681.22952 126.638154 
L 684.359334 127.451067 
L 690.625847 129.863794 
L 693.762717 127.361624 
L 696.902113 123.668193 
L 700.044131 124.912864 
L 706.336423 129.274086 
L 709.486906 128.6516 
L 715.797098 134.395193 
L 718.957044 136.814725 
L 722.120389 138.604209 
L 725.287265 139.847803 
L 728.457809 140.650101 
L 731.632166 141.068839 
L 734.810484 141.022871 
L 737.992923 140.685994 
L 741.179647 139.891698 
L 744.370829 138.871394 
L 747.566649 137.462509 
L 750.767298 135.84538 
L 753.972975 133.974907 
L 757.18389 132.528174 
L 760.400263 133.810292 
L 763.622325 132.653923 
L 766.85032 131.299407 
L 770.084504 130.303364 
L 773.325147 129.612609 
L 776.572536 129.546878 
L 779.82697 132.533456 
L 783.088768 135.310806 
L 786.358266 135.352871 
L 789.63582 135.125973 
L 792.921809 134.444312 
L 796.216631 133.914475 
L 799.520712 133.766158 
L 802.834504 133.356405 
L 806.158488 133.362216 
L 822.950524 132.643038 
L 826.347762 132.851225 
L 833.186976 132.46818 
L 836.630694 132.68959 
L 840.091767 133.040128 
L 847.070317 133.488143 
L 854.132317 134.23999 
L 857.698147 135.131914 
L 868.555524 136.97488 
L 872.234773 137.502918 
L 875.948097 139.178738 
L 879.698349 140.219208 
L 883.488753 141.620279 
L 887.322975 142.803125 
L 891.205208 144.362317 
L 895.140286 146.091196 
L 899.133828 148.240711 
L 903.192425 150.25533 
L 907.323888 152.730579 
L 911.537591 155.653694 
L 915.844938 158.862915 
L 920.260032 163.101171 
L 924.800652 166.772995 
L 934.357791 176.397674 
L 939.446753 183.417168 
L 944.817213 189.989995 
L 950.562392 201.695011 
L 956.839638 213.536242 
L 963.956586 230.702513 
L 972.709727 266.371311 
L 972.709727 266.371311 
" style="fill:none;stroke:#000000;stroke-linecap:square;stroke-width:2;"/>
   </g>
   <g id="line2d_94">
    <path clip-path="url(#p8570ff723b)" d="M 142.043045 209.984435 
L 427.166631 209.911964 
L 511.699964 210.111552 
L 567.219401 210.447682 
L 611.19224 210.931546 
L 646.515099 211.543966 
L 676.096135 212.281203 
L 699.89297 213.079805 
L 720.842882 213.982037 
L 738.921287 214.950713 
L 757.140963 216.149591 
L 772.458029 217.370092 
L 787.925896 218.843783 
L 800.432314 220.24858 
L 813.081073 221.901495 
L 822.678563 223.338396 
L 832.388198 224.978918 
L 842.22921 226.863326 
L 852.225709 229.043875 
L 858.991296 230.695476 
L 865.85084 232.535503 
L 872.81808 234.597034 
L 879.909918 236.922205 
L 887.147504 239.565836 
L 894.55788 242.601094 
L 902.176508 246.128699 
L 906.078268 248.119821 
L 910.051412 250.292782 
L 914.105067 252.677104 
L 918.250339 255.310024 
L 922.500952 258.239435 
L 926.874206 261.528384 
L 931.392417 265.262231 
L 936.085211 269.560605 
L 940.993356 274.598609 
L 946.175659 280.647516 
L 951.722524 288.161316 
L 957.786325 297.989757 
L 964.664291 312.035475 
L 964.664291 312.035475 
" style="fill:none;stroke:#ff0000;stroke-dasharray:7.4,3.2;stroke-dashoffset:0;stroke-width:2;"/>
   </g>
   <g id="line2d_95">
    <path clip-path="url(#p8570ff723b)" d="M 664.855562 98.718281 
L 664.85559 73.684627 
L 664.855618 59.040878 
" style="fill:none;stroke:#0000ff;stroke-linecap:square;stroke-width:2;"/>
   </g>
   <g id="text_15">
    <g id="patch_3">
     <path d="M 317.84 200.631762 
L 538.40375 200.631762 
L 538.40375 169.244262 
L 317.84 169.244262 
z
" style="fill:#ffffff;opacity:0.1;stroke:#ffffff;stroke-linejoin:miter;"/>
    </g>
    <!-- NRR, a=0.01 pc -->
    <defs>
     <path d="M 4.390625 0 
L 4.390625 5.90625 
L 13.71875 5.90625 
L 13.71875 67 
L 4.390625 67 
L 4.390625 72.90625 
L 27.203125 72.90625 
L 71.1875 21.296875 
L 71.1875 67 
L 61.921875 67 
L 61.921875 72.90625 
L 87.40625 72.90625 
L 87.40625 67 
L 78.078125 67 
L 78.078125 0 
L 65.28125 0 
L 20.609375 52.6875 
L 20.609375 5.90625 
L 29.890625 5.90625 
L 29.890625 0 
z
" id="DejaVuSerif-Bold-78"/>
     <path d="M 53.078125 35.59375 
Q 57.421875 34.96875 60.390625 32.71875 
Q 63.375 30.46875 65.578125 26.21875 
L 76.21875 5.90625 
L 83.6875 5.90625 
L 83.6875 0 
L 59.71875 0 
L 48.09375 22.015625 
Q 44.734375 28.859375 42.359375 30.734375 
Q 39.984375 32.625 35.796875 32.625 
L 32.8125 32.625 
L 32.8125 5.90625 
L 42.1875 5.90625 
L 42.1875 0 
L 4.6875 0 
L 4.6875 5.90625 
L 14.015625 5.90625 
L 14.015625 67 
L 4.6875 67 
L 4.6875 72.90625 
L 46.296875 72.90625 
Q 58.984375 72.90625 65.890625 67.796875 
Q 72.796875 62.703125 72.796875 53.328125 
Q 72.796875 45.703125 67.890625 41.28125 
Q 62.984375 36.859375 53.078125 35.59375 
z
M 32.8125 38.484375 
L 39.203125 38.484375 
Q 46.046875 38.484375 49.734375 42.1875 
Q 53.421875 45.90625 53.421875 52.78125 
Q 53.421875 59.671875 49.734375 63.328125 
Q 46.046875 67 39.203125 67 
L 32.8125 67 
z
" id="DejaVuSerif-Bold-82"/>
     <path d="M 1.3125 -9.625 
Q 6.390625 -5.515625 8.78125 -0.4375 
Q 11.1875 4.640625 11.1875 11.375 
L 11.1875 15.578125 
L 25.09375 15.578125 
L 25.09375 15.1875 
Q 25.09375 4.390625 20.578125 -3.390625 
Q 16.0625 -11.1875 6.6875 -16.5 
z
" id="DejaVuSerif-Bold-44"/>
     <path id="DejaVuSerif-Bold-32"/>
     <path d="M 55.078125 31.890625 
L 55.078125 5.90625 
L 62.5 5.90625 
L 62.5 0 
L 37.796875 0 
L 37.796875 6.59375 
Q 34.375 2.484375 30.171875 0.53125 
Q 25.984375 -1.421875 20.609375 -1.421875 
Q 12.640625 -1.421875 8.375 2.84375 
Q 4.109375 7.125 4.109375 15.09375 
Q 4.109375 23.828125 10.234375 28.171875 
Q 16.359375 32.515625 28.71875 32.515625 
L 37.796875 32.515625 
L 37.796875 35.59375 
Q 37.796875 41.890625 34.8125 44.890625 
Q 31.84375 47.90625 25.59375 47.90625 
Q 20.40625 47.90625 17.59375 45.78125 
Q 14.796875 43.65625 13.625 38.8125 
L 8.109375 38.8125 
L 8.109375 50 
Q 12.75 51.65625 17.71875 52.484375 
Q 22.703125 53.328125 28.21875 53.328125 
Q 42.140625 53.328125 48.609375 48.140625 
Q 55.078125 42.96875 55.078125 31.890625 
z
M 37.796875 16.3125 
L 37.796875 26.703125 
L 31.296875 26.703125 
Q 26.46875 26.703125 23.875 24.0625 
Q 21.296875 21.4375 21.296875 16.5 
Q 21.296875 11.578125 23.171875 9.125 
Q 25.046875 6.6875 28.90625 6.6875 
Q 32.90625 6.6875 35.34375 9.328125 
Q 37.796875 11.96875 37.796875 16.3125 
z
" id="DejaVuSerif-Bold-97"/>
     <path d="M 10.59375 25.78125 
L 73.1875 25.78125 
L 73.1875 14.703125 
L 10.59375 14.703125 
z
M 10.59375 48 
L 73.1875 48 
L 73.1875 36.921875 
L 10.59375 36.921875 
z
" id="DejaVuSerif-Bold-61"/>
     <path d="M 8.109375 7.90625 
Q 8.109375 11.71875 10.84375 14.453125 
Q 13.578125 17.1875 17.390625 17.1875 
Q 21.234375 17.1875 23.96875 14.453125 
Q 26.703125 11.71875 26.703125 7.90625 
Q 26.703125 4.046875 23.96875 1.3125 
Q 21.234375 -1.421875 17.390625 -1.421875 
Q 13.578125 -1.421875 10.84375 1.3125 
Q 8.109375 4.046875 8.109375 7.90625 
z
" id="DejaVuSerif-Bold-46"/>
     <path d="M 27 28.515625 
L 27 23.390625 
Q 27 14.3125 29.3125 10.25 
Q 31.640625 6.203125 36.8125 6.203125 
Q 42.140625 6.203125 44.3125 10.5 
Q 46.484375 14.796875 46.484375 25.984375 
Q 46.484375 37.15625 44.3125 41.421875 
Q 42.140625 45.703125 36.8125 45.703125 
Q 31.640625 45.703125 29.3125 41.640625 
Q 27 37.59375 27 28.515625 
z
M 9.71875 46 
L 2.296875 46 
L 2.296875 51.90625 
L 27 51.90625 
L 27 45.3125 
Q 29.203125 49.359375 32.90625 51.34375 
Q 36.625 53.328125 42.09375 53.328125 
Q 53.171875 53.328125 59.546875 46.015625 
Q 65.921875 38.71875 65.921875 25.984375 
Q 65.921875 13.234375 59.546875 5.90625 
Q 53.171875 -1.421875 42.09375 -1.421875 
Q 36.625 -1.421875 32.90625 0.5625 
Q 29.203125 2.546875 27 6.59375 
L 27 -14.890625 
L 35.015625 -14.890625 
L 35.015625 -20.796875 
L 2.296875 -20.796875 
L 2.296875 -14.890625 
L 9.71875 -14.890625 
z
" id="DejaVuSerif-Bold-112"/>
     <path d="M 56.390625 16.21875 
Q 54.546875 7.328125 48.796875 2.953125 
Q 43.0625 -1.421875 33.203125 -1.421875 
Q 19.34375 -1.421875 11.71875 5.75 
Q 4.109375 12.9375 4.109375 25.984375 
Q 4.109375 38.875 11.625 46.09375 
Q 19.140625 53.328125 32.515625 53.328125 
Q 37.9375 53.328125 43.453125 52.296875 
Q 48.96875 51.265625 54.6875 49.21875 
L 54.6875 34.8125 
L 49.21875 34.8125 
Q 48.4375 41.40625 45.359375 44.59375 
Q 42.28125 47.796875 36.71875 47.796875 
Q 29.5 47.796875 26.4375 42.90625 
Q 23.390625 38.03125 23.390625 25.984375 
Q 23.390625 14.203125 26.359375 9.15625 
Q 29.34375 4.109375 36.078125 4.109375 
Q 41.3125 4.109375 44.453125 7.234375 
Q 47.609375 10.359375 48.296875 16.21875 
z
" id="DejaVuSerif-Bold-99"/>
    </defs>
    <g style="fill:#ff0000;" transform="translate(321.92 191.560512)scale(0.24 -0.24)">
     <use xlink:href="#DejaVuSerif-Bold-78"/>
     <use x="91.40625" xlink:href="#DejaVuSerif-Bold-82"/>
     <use x="174.511719" xlink:href="#DejaVuSerif-Bold-82"/>
     <use x="257.617188" xlink:href="#DejaVuSerif-Bold-44"/>
     <use x="292.431641" xlink:href="#DejaVuSerif-Bold-32"/>
     <use x="327.246094" xlink:href="#DejaVuSerif-Bold-97"/>
     <use x="392.041016" xlink:href="#DejaVuSerif-Bold-61"/>
     <use x="475.830078" xlink:href="#DejaVuSerif-Bold-48"/>
     <use x="545.410156" xlink:href="#DejaVuSerif-Bold-46"/>
     <use x="580.224609" xlink:href="#DejaVuSerif-Bold-48"/>
     <use x="649.804688" xlink:href="#DejaVuSerif-Bold-49"/>
     <use x="719.384766" xlink:href="#DejaVuSerif-Bold-32"/>
     <use x="754.199219" xlink:href="#DejaVuSerif-Bold-112"/>
     <use x="824.121094" xlink:href="#DejaVuSerif-Bold-99"/>
    </g>
   </g>
   <g id="text_16">
    <g id="patch_4">
     <path d="M 519.409685 264.383587 
L 718.035935 264.383587 
L 718.035935 232.996087 
L 519.409685 232.996087 
z
" style="fill:#ffffff;opacity:0.1;stroke:#ffffff;stroke-linejoin:miter;"/>
    </g>
    <!-- RR, a=0.01 pc -->
    <g transform="translate(523.489685 255.312337)scale(0.24 -0.24)">
     <use xlink:href="#DejaVuSerif-Bold-82"/>
     <use x="83.105469" xlink:href="#DejaVuSerif-Bold-82"/>
     <use x="166.210938" xlink:href="#DejaVuSerif-Bold-44"/>
     <use x="201.025391" xlink:href="#DejaVuSerif-Bold-32"/>
     <use x="235.839844" xlink:href="#DejaVuSerif-Bold-97"/>
     <use x="300.634766" xlink:href="#DejaVuSerif-Bold-61"/>
     <use x="384.423828" xlink:href="#DejaVuSerif-Bold-48"/>
     <use x="454.003906" xlink:href="#DejaVuSerif-Bold-46"/>
     <use x="488.818359" xlink:href="#DejaVuSerif-Bold-48"/>
     <use x="558.398438" xlink:href="#DejaVuSerif-Bold-49"/>
     <use x="627.978516" xlink:href="#DejaVuSerif-Bold-32"/>
     <use x="662.792969" xlink:href="#DejaVuSerif-Bold-112"/>
     <use x="732.714844" xlink:href="#DejaVuSerif-Bold-99"/>
    </g>
   </g>
   <g id="patch_5">
    <path d="M 98.72 514.518281 
L 98.72 15.558281 
" style="fill:none;stroke:#333333;stroke-linecap:square;stroke-linejoin:miter;stroke-width:0.8;"/>
   </g>
   <g id="patch_6">
    <path d="M 991.52 514.518281 
L 991.52 15.558281 
" style="fill:none;stroke:#333333;stroke-linecap:square;stroke-linejoin:miter;stroke-width:0.8;"/>
   </g>
   <g id="patch_7">
    <path d="M 98.72 514.518281 
L 991.52 514.518281 
" style="fill:none;stroke:#333333;stroke-linecap:square;stroke-linejoin:miter;stroke-width:0.8;"/>
   </g>
   <g id="patch_8">
    <path d="M 98.72 15.558281 
L 991.52 15.558281 
" style="fill:none;stroke:#333333;stroke-linecap:square;stroke-linejoin:miter;stroke-width:0.8;"/>
   </g>
   <g id="patch_9">
    <path d="M 547.815318 89.563317 
Q 585.602772 103.627325 623.390226 117.691334 
L 624.785471 113.942562 
Q 629.36284 118.847249 633.94021 123.751936 
Q 627.269973 124.470407 620.599736 125.188878 
L 621.994981 121.440106 
Q 584.207527 107.376097 546.420073 93.312089 
L 547.815318 89.563317 
z
"/>
   </g>
   <g id="text_17">
    <!-- Sch. Barrier -->
    <defs>
     <path d="M 7.71875 3.515625 
L 7.71875 20.796875 
L 13.921875 20.796875 
Q 15.328125 12.59375 20.59375 8.546875 
Q 25.875 4.5 35.203125 4.5 
Q 42.78125 4.5 46.734375 7.375 
Q 50.6875 10.25 50.6875 15.828125 
Q 50.6875 20.21875 48 22.65625 
Q 45.3125 25.09375 36.921875 27.203125 
L 25.984375 29.890625 
Q 15.28125 32.625 10.9375 37.46875 
Q 6.59375 42.328125 6.59375 51.3125 
Q 6.59375 62.15625 13.796875 68.1875 
Q 21 74.21875 33.984375 74.21875 
Q 40.375 74.21875 47.28125 73.140625 
Q 54.203125 72.078125 61.625 69.921875 
L 61.625 53.8125 
L 55.421875 53.8125 
Q 54 61.328125 49.21875 64.8125 
Q 44.4375 68.3125 35.59375 68.3125 
Q 28.375 68.3125 24.6875 65.796875 
Q 21 63.28125 21 58.296875 
Q 21 53.765625 23.53125 51.390625 
Q 26.078125 49.03125 35.984375 46.484375 
L 46.921875 43.796875 
Q 57.078125 41.265625 61.640625 35.890625 
Q 66.21875 30.515625 66.21875 21.09375 
Q 66.21875 10.0625 58.59375 4.3125 
Q 50.984375 -1.421875 36.1875 -1.421875 
Q 29.046875 -1.421875 22.015625 -0.1875 
Q 14.984375 1.03125 7.71875 3.515625 
z
" id="DejaVuSerif-Bold-83"/>
     <path d="M 3.421875 0 
L 3.421875 5.90625 
L 10.796875 5.90625 
L 10.796875 70.125 
L 3.078125 70.125 
L 3.078125 75.984375 
L 28.078125 75.984375 
L 28.078125 44.578125 
Q 31.203125 49.21875 35.203125 51.265625 
Q 39.203125 53.328125 45.3125 53.328125 
Q 54.046875 53.328125 58.515625 48.171875 
Q 62.984375 43.015625 62.984375 33.015625 
L 62.984375 5.90625 
L 70.40625 5.90625 
L 70.40625 0 
L 39.40625 0 
L 39.40625 5.90625 
L 45.703125 5.90625 
L 45.703125 33.5 
Q 45.703125 40.09375 44.015625 42.65625 
Q 42.328125 45.21875 38.1875 45.21875 
Q 32.953125 45.21875 30.515625 41.375 
Q 28.078125 37.546875 28.078125 29.203125 
L 28.078125 5.90625 
L 34.421875 5.90625 
L 34.421875 0 
z
" id="DejaVuSerif-Bold-104"/>
     <path d="M 4.6875 0 
L 4.6875 5.90625 
L 14.015625 5.90625 
L 14.015625 67 
L 4.6875 67 
L 4.6875 72.90625 
L 47.90625 72.90625 
Q 61.234375 72.90625 67.921875 68.40625 
Q 74.609375 63.921875 74.609375 54.890625 
Q 74.609375 48.390625 69.984375 44.578125 
Q 65.375 40.765625 56.296875 39.796875 
Q 67.28125 38.765625 73.140625 33.9375 
Q 79 29.109375 79 21.09375 
Q 79 10.25 70.8125 5.125 
Q 62.640625 0 45.21875 0 
z
M 32.8125 42.484375 
L 39.203125 42.484375 
Q 47.609375 42.484375 51.65625 45.53125 
Q 55.71875 48.578125 55.71875 54.890625 
Q 55.71875 61.234375 51.78125 64.109375 
Q 47.859375 67 39.203125 67 
L 32.8125 67 
z
M 32.8125 5.90625 
L 39.796875 5.90625 
Q 49.125 5.90625 53.609375 9.609375 
Q 58.109375 13.328125 58.109375 21.09375 
Q 58.109375 28.90625 53.5625 32.765625 
Q 49.03125 36.625 39.796875 36.625 
L 32.8125 36.625 
z
" id="DejaVuSerif-Bold-66"/>
     <path d="M 9.1875 66.609375 
Q 9.1875 70.5625 11.921875 73.265625 
Q 14.65625 75.984375 18.609375 75.984375 
Q 22.46875 75.984375 25.171875 73.265625 
Q 27.875 70.5625 27.875 66.609375 
Q 27.875 62.75 25.171875 60.03125 
Q 22.46875 57.328125 18.609375 57.328125 
Q 14.65625 57.328125 11.921875 60.015625 
Q 9.1875 62.703125 9.1875 66.609375 
z
M 28.078125 5.90625 
L 35.5 5.90625 
L 35.5 0 
L 3.421875 0 
L 3.421875 5.90625 
L 10.796875 5.90625 
L 10.796875 46 
L 3.421875 46 
L 3.421875 51.90625 
L 28.078125 51.90625 
z
" id="DejaVuSerif-Bold-105"/>
    </defs>
    <g transform="translate(380.85875 58.828186)scale(0.24 -0.24)">
     <use xlink:href="#DejaVuSerif-Bold-83"/>
     <use x="72.216797" xlink:href="#DejaVuSerif-Bold-99"/>
     <use x="133.105469" xlink:href="#DejaVuSerif-Bold-104"/>
     <use x="205.810547" xlink:href="#DejaVuSerif-Bold-46"/>
     <use x="240.625" xlink:href="#DejaVuSerif-Bold-32"/>
     <use x="275.439453" xlink:href="#DejaVuSerif-Bold-66"/>
     <use x="359.960938" xlink:href="#DejaVuSerif-Bold-97"/>
     <use x="424.755859" xlink:href="#DejaVuSerif-Bold-114"/>
     <use x="477.441406" xlink:href="#DejaVuSerif-Bold-114"/>
     <use x="530.126953" xlink:href="#DejaVuSerif-Bold-105"/>
     <use x="568.115234" xlink:href="#DejaVuSerif-Bold-101"/>
     <use x="631.738281" xlink:href="#DejaVuSerif-Bold-114"/>
    </g>
    <!-- (Merritt+2011) -->
    <defs>
     <path d="M 42.09375 -15.578125 
Q 25.640625 -9.46875 17.53125 1.90625 
Q 9.421875 13.28125 9.421875 30.171875 
Q 9.421875 47.078125 17.421875 58.296875 
Q 25.4375 69.53125 42.09375 75.984375 
L 42.09375 70.125 
Q 34.375 65.4375 30.984375 56.21875 
Q 27.59375 47.015625 27.59375 30.171875 
Q 27.59375 13.375 30.984375 4.171875 
Q 34.375 -5.03125 42.09375 -9.71875 
z
" id="DejaVuSerif-Bold-40"/>
     <path d="M 9.90625 46 
L 2.390625 46 
L 2.390625 51.90625 
L 9.90625 51.90625 
L 9.90625 68.015625 
L 27.203125 68.015625 
L 27.203125 51.90625 
L 41.609375 51.90625 
L 41.609375 46 
L 27.203125 46 
L 27.203125 14.203125 
Q 27.203125 7.421875 28.265625 5.765625 
Q 29.34375 4.109375 32.171875 4.109375 
Q 35.296875 4.109375 36.8125 6.203125 
Q 38.328125 8.296875 38.421875 12.703125 
L 45.703125 12.703125 
Q 45.265625 4.890625 41.421875 1.734375 
Q 37.59375 -1.421875 28.21875 -1.421875 
Q 17.53125 -1.421875 13.71875 1.921875 
Q 9.90625 5.28125 9.90625 14.203125 
z
" id="DejaVuSerif-Bold-116"/>
     <path d="M 47.515625 62.703125 
L 47.515625 37.015625 
L 73.1875 37.015625 
L 73.1875 25.78125 
L 47.515625 25.78125 
L 47.515625 0.09375 
L 36.28125 0.09375 
L 36.28125 25.78125 
L 10.59375 25.78125 
L 10.59375 37.015625 
L 36.28125 37.015625 
L 36.28125 62.703125 
z
" id="DejaVuSerif-Bold-43"/>
     <path d="M 5.078125 -15.578125 
L 5.078125 -9.71875 
Q 12.796875 -5.03125 16.1875 4.171875 
Q 19.578125 13.375 19.578125 30.171875 
Q 19.578125 47.015625 16.1875 56.21875 
Q 12.796875 65.4375 5.078125 70.125 
L 5.078125 75.984375 
Q 21.734375 69.53125 29.765625 58.296875 
Q 37.796875 47.078125 37.796875 30.171875 
Q 37.796875 13.28125 29.65625 1.90625 
Q 21.53125 -9.46875 5.078125 -15.578125 
z
" id="DejaVuSerif-Bold-41"/>
    </defs>
    <g transform="translate(337.0925 85.702936)scale(0.24 -0.24)">
     <use xlink:href="#DejaVuSerif-Bold-40"/>
     <use x="47.314453" xlink:href="#DejaVuSerif-Bold-77"/>
     <use x="158.007812" xlink:href="#DejaVuSerif-Bold-101"/>
     <use x="221.630859" xlink:href="#DejaVuSerif-Bold-114"/>
     <use x="274.316406" xlink:href="#DejaVuSerif-Bold-114"/>
     <use x="327.001953" xlink:href="#DejaVuSerif-Bold-105"/>
     <use x="364.990234" xlink:href="#DejaVuSerif-Bold-116"/>
     <use x="411.181641" xlink:href="#DejaVuSerif-Bold-116"/>
     <use x="457.373047" xlink:href="#DejaVuSerif-Bold-43"/>
     <use x="541.162109" xlink:href="#DejaVuSerif-Bold-50"/>
     <use x="610.742188" xlink:href="#DejaVuSerif-Bold-48"/>
     <use x="680.322266" xlink:href="#DejaVuSerif-Bold-49"/>
     <use x="749.902344" xlink:href="#DejaVuSerif-Bold-49"/>
     <use x="819.482422" xlink:href="#DejaVuSerif-Bold-41"/>
    </g>
   </g>
   <g id="text_18">
    <!-- $e=$0.97 -->
    <defs>
     <path d="M 34.078125 68.5 
Q 29.046875 68.5 26.921875 64.234375 
Q 24.8125 59.96875 24.8125 49.421875 
Q 24.8125 38.875 26.921875 34.59375 
Q 29.046875 30.328125 34.078125 30.328125 
Q 39.109375 30.328125 41.25 34.59375 
Q 43.40625 38.875 43.40625 49.421875 
Q 43.40625 59.96875 41.25 64.234375 
Q 39.109375 68.5 34.078125 68.5 
z
M 44.96875 29.6875 
Q 41.75 27.09375 37.8125 25.796875 
Q 33.890625 24.515625 29.296875 24.515625 
Q 18.171875 24.515625 11.796875 31.03125 
Q 5.421875 37.546875 5.421875 49.03125 
Q 5.421875 61.140625 12.546875 67.671875 
Q 19.671875 74.21875 32.90625 74.21875 
Q 47.859375 74.21875 55.5625 65.1875 
Q 63.28125 56.15625 63.28125 38.71875 
Q 63.28125 18.84375 54.734375 8.703125 
Q 46.1875 -1.421875 29.390625 -1.421875 
Q 25 -1.421875 19.96875 -0.6875 
Q 14.9375 0.046875 9.1875 1.515625 
L 9.1875 14.40625 
L 15.09375 14.40625 
Q 16.3125 9.421875 19.703125 6.859375 
Q 23.09375 4.296875 28.515625 4.296875 
Q 37.109375 4.296875 41.015625 10.28125 
Q 44.921875 16.265625 44.96875 29.6875 
z
" id="DejaVuSerif-Bold-57"/>
     <path d="M 61.28125 60.5 
L 31.203125 0 
L 21.296875 0 
L 50.59375 59.078125 
L 14.59375 59.078125 
L 14.59375 49.21875 
L 7.90625 49.21875 
L 7.90625 72.90625 
L 61.28125 72.90625 
z
" id="DejaVuSerif-Bold-55"/>
    </defs>
    <g style="fill:#0000ff;" transform="translate(643.225247 59.040878)scale(0.24 -0.24)">
     <use transform="translate(0 0.78125)" xlink:href="#DejaVuSerif-Bold-101"/>
     <use transform="translate(84.785156 0.78125)" xlink:href="#DejaVuSerif-Bold-61"/>
     <use transform="translate(189.736328 0.78125)" xlink:href="#DejaVuSerif-Bold-48"/>
     <use transform="translate(259.316406 0.78125)" xlink:href="#DejaVuSerif-Bold-46"/>
     <use transform="translate(294.130859 0.78125)" xlink:href="#DejaVuSerif-Bold-57"/>
     <use transform="translate(363.710938 0.78125)" xlink:href="#DejaVuSerif-Bold-55"/>
    </g>
   </g>
  </g>
 </g>
 <defs>
  <clipPath id="p8570ff723b">
   <rect height="498.96" width="892.8" x="98.72" y="15.558281"/>
  </clipPath>
 </defs>
</svg>
