<?xml version="1.0" encoding="utf-8" standalone="no"?>
<!DOCTYPE svg PUBLIC "-//W3C//DTD SVG 1.1//EN"
  "http://www.w3.org/Graphics/SVG/1.1/DTD/svg11.dtd">
<!-- Created with matplotlib (https://matplotlib.org/) -->
<svg height="589.615625pt" version="1.1" viewBox="0 0 1019.84 589.615625" width="1019.84pt" xmlns="http://www.w3.org/2000/svg" xmlns:xlink="http://www.w3.org/1999/xlink">
 <defs>
  <style type="text/css">
*{stroke-linecap:butt;stroke-linejoin:round;}
  </style>
 </defs>
 <g id="figure_1">
  <g id="patch_1">
   <path d="M 0 589.615625 
L 1019.84 589.615625 
L 1019.84 0 
L 0 0 
z
" style="fill:#ffffff;"/>
  </g>
  <g id="axes_1">
   <g id="patch_2">
    <path d="M 98.72 530.39625 
L 991.52 530.39625 
L 991.52 31.43625 
L 98.72 31.43625 
z
" style="fill:#ffffff;"/>
   </g>
   <g id="matplotlib.axis_1">
    <g id="xtick_1">
     <g id="line2d_1">
      <defs>
       <path d="M 0 0 
L 0 -6 
" id="mf9c01fe1f0" style="stroke:#333333;stroke-width:0.8;"/>
      </defs>
      <g>
       <use style="fill:#333333;stroke:#333333;stroke-width:0.8;" x="98.72" xlink:href="#mf9c01fe1f0" y="530.39625"/>
      </g>
     </g>
     <g id="text_1">
      <!-- $\mathdefault{10^{-4}}$ -->
      <defs>
       <path d="M 13.71875 0 
L 13.71875 5.90625 
L 27.390625 5.90625 
L 27.390625 64.890625 
L 12.203125 55.90625 
L 12.203125 63.1875 
L 30.515625 74.21875 
L 45.90625 74.21875 
L 45.90625 5.90625 
L 59.625 5.90625 
L 59.625 0 
z
" id="DejaVuSerif-Bold-49"/>
       <path d="M 34.8125 4.296875 
Q 40.671875 4.296875 42.84375 9.609375 
Q 45.015625 14.9375 45.015625 36.375 
Q 45.015625 57.671875 42.84375 63.078125 
Q 40.671875 68.5 34.8125 68.5 
Q 28.953125 68.5 26.78125 63.171875 
Q 24.609375 57.859375 24.609375 36.375 
Q 24.609375 14.9375 26.78125 9.609375 
Q 28.953125 4.296875 34.8125 4.296875 
z
M 34.8125 -1.421875 
Q 20.21875 -1.421875 12.453125 8.3125 
Q 4.6875 18.0625 4.6875 36.375 
Q 4.6875 54.6875 12.453125 64.453125 
Q 20.21875 74.21875 34.8125 74.21875 
Q 49.359375 74.21875 57.125 64.453125 
Q 64.890625 54.6875 64.890625 36.375 
Q 64.890625 18.0625 57.125 8.3125 
Q 49.359375 -1.421875 34.8125 -1.421875 
z
" id="DejaVuSerif-Bold-48"/>
       <path d="M 10.59375 36.921875 
L 73.1875 36.921875 
L 73.1875 25.6875 
L 10.59375 25.6875 
z
" id="DejaVuSerif-Bold-8722"/>
       <path d="M 63.8125 0 
L 23.6875 0 
L 23.6875 5.90625 
L 34.515625 5.90625 
L 34.515625 19.1875 
L 4.109375 19.1875 
L 4.109375 24.8125 
L 34.625 74.21875 
L 52.984375 74.21875 
L 52.984375 25.484375 
L 65.484375 25.484375 
L 65.484375 19.1875 
L 52.984375 19.1875 
L 52.984375 5.90625 
L 63.8125 5.90625 
z
M 34.515625 25.484375 
L 34.515625 60.890625 
L 12.796875 25.484375 
z
" id="DejaVuSerif-Bold-52"/>
      </defs>
      <g style="fill:#333333;" transform="translate(71.11 550.612813)scale(0.22 -0.22)">
       <use transform="translate(0 0.7125)" xlink:href="#DejaVuSerif-Bold-49"/>
       <use transform="translate(69.580078 0.7125)" xlink:href="#DejaVuSerif-Bold-48"/>
       <use transform="translate(140.068516 37.046875)scale(0.7)" xlink:href="#DejaVuSerif-Bold-8722"/>
       <use transform="translate(198.720859 37.046875)scale(0.7)" xlink:href="#DejaVuSerif-Bold-52"/>
      </g>
     </g>
    </g>
    <g id="xtick_2">
     <g id="line2d_2">
      <g>
       <use style="fill:#333333;stroke:#333333;stroke-width:0.8;" x="321.92" xlink:href="#mf9c01fe1f0" y="530.39625"/>
      </g>
     </g>
     <g id="text_2">
      <!-- $\mathdefault{10^{-3}}$ -->
      <defs>
       <path d="M 8.59375 70.796875 
Q 15.046875 72.515625 21.09375 73.359375 
Q 27.15625 74.21875 32.90625 74.21875 
Q 46.09375 74.21875 53.140625 69.5 
Q 60.203125 64.796875 60.203125 56 
Q 60.203125 49.421875 56.140625 45.3125 
Q 52.09375 41.21875 44.28125 39.796875 
Q 53.8125 38.28125 58.5 33.296875 
Q 63.1875 28.328125 63.1875 19.671875 
Q 63.1875 9.46875 55.09375 4.015625 
Q 47.015625 -1.421875 31.6875 -1.421875 
Q 25.921875 -1.421875 19.796875 -0.4375 
Q 13.671875 0.53125 6.984375 2.484375 
L 6.984375 18.5 
L 12.890625 18.5 
Q 13.421875 11.578125 17.234375 7.9375 
Q 21.046875 4.296875 27.78125 4.296875 
Q 35.203125 4.296875 39.25 8.421875 
Q 43.3125 12.546875 43.3125 20.125 
Q 43.3125 28.03125 39.078125 32.328125 
Q 34.859375 36.625 27.09375 36.625 
L 23.875 36.625 
L 23.875 42.484375 
L 26.421875 42.484375 
Q 33.59375 42.484375 37.203125 45.796875 
Q 40.828125 49.125 40.828125 55.71875 
Q 40.828125 61.921875 37.421875 65.203125 
Q 34.03125 68.5 27.6875 68.5 
Q 21.921875 68.5 18.546875 65.34375 
Q 15.1875 62.203125 14.5 56.203125 
L 8.59375 56.203125 
z
" id="DejaVuSerif-Bold-51"/>
      </defs>
      <g style="fill:#333333;" transform="translate(294.31 550.612813)scale(0.22 -0.22)">
       <use transform="translate(0 0.7125)" xlink:href="#DejaVuSerif-Bold-49"/>
       <use transform="translate(69.580078 0.7125)" xlink:href="#DejaVuSerif-Bold-48"/>
       <use transform="translate(140.068516 37.046875)scale(0.7)" xlink:href="#DejaVuSerif-Bold-8722"/>
       <use transform="translate(198.720859 37.046875)scale(0.7)" xlink:href="#DejaVuSerif-Bold-51"/>
      </g>
     </g>
    </g>
    <g id="xtick_3">
     <g id="line2d_3">
      <g>
       <use style="fill:#333333;stroke:#333333;stroke-width:0.8;" x="545.12" xlink:href="#mf9c01fe1f0" y="530.39625"/>
      </g>
     </g>
     <g id="text_3">
      <!-- $\mathdefault{10^{-2}}$ -->
      <defs>
       <path d="M 13.1875 54.890625 
L 7.328125 54.890625 
L 7.328125 70.609375 
Q 13.28125 72.40625 19.109375 73.3125 
Q 24.953125 74.21875 30.90625 74.21875 
Q 44.828125 74.21875 52.609375 68.53125 
Q 60.40625 62.84375 60.40625 52.6875 
Q 60.40625 45.453125 56.109375 39.71875 
Q 51.8125 33.984375 39.703125 26.125 
L 19.390625 12.796875 
L 53.90625 12.796875 
L 53.90625 21.390625 
L 60.59375 21.390625 
L 60.59375 0 
L 6.6875 0 
L 6.6875 11.921875 
L 17.484375 19.390625 
Q 31.296875 28.90625 35.890625 35.59375 
Q 40.484375 42.28125 40.484375 51.21875 
Q 40.484375 59.671875 36.984375 64.078125 
Q 33.5 68.5 26.8125 68.5 
Q 21.046875 68.5 17.578125 65.015625 
Q 14.109375 61.53125 13.1875 54.890625 
z
" id="DejaVuSerif-Bold-50"/>
      </defs>
      <g style="fill:#333333;" transform="translate(517.51 550.612813)scale(0.22 -0.22)">
       <use transform="translate(0 0.7125)" xlink:href="#DejaVuSerif-Bold-49"/>
       <use transform="translate(69.580078 0.7125)" xlink:href="#DejaVuSerif-Bold-48"/>
       <use transform="translate(140.068516 37.046875)scale(0.7)" xlink:href="#DejaVuSerif-Bold-8722"/>
       <use transform="translate(198.720859 37.046875)scale(0.7)" xlink:href="#DejaVuSerif-Bold-50"/>
      </g>
     </g>
    </g>
    <g id="xtick_4">
     <g id="line2d_4">
      <g>
       <use style="fill:#333333;stroke:#333333;stroke-width:0.8;" x="768.32" xlink:href="#mf9c01fe1f0" y="530.39625"/>
      </g>
     </g>
     <g id="text_4">
      <!-- $\mathdefault{10^{-1}}$ -->
      <g style="fill:#333333;" transform="translate(740.71 550.612813)scale(0.22 -0.22)">
       <use transform="translate(0 0.7125)" xlink:href="#DejaVuSerif-Bold-49"/>
       <use transform="translate(69.580078 0.7125)" xlink:href="#DejaVuSerif-Bold-48"/>
       <use transform="translate(140.068516 37.046875)scale(0.7)" xlink:href="#DejaVuSerif-Bold-8722"/>
       <use transform="translate(198.720859 37.046875)scale(0.7)" xlink:href="#DejaVuSerif-Bold-49"/>
      </g>
     </g>
    </g>
    <g id="xtick_5">
     <g id="line2d_5">
      <g>
       <use style="fill:#333333;stroke:#333333;stroke-width:0.8;" x="991.52" xlink:href="#mf9c01fe1f0" y="530.39625"/>
      </g>
     </g>
     <g id="text_5">
      <!-- $\mathdefault{10^{0}}$ -->
      <g style="fill:#333333;" transform="translate(970.4 550.612813)scale(0.22 -0.22)">
       <use transform="translate(0 0.7125)" xlink:href="#DejaVuSerif-Bold-49"/>
       <use transform="translate(69.580078 0.7125)" xlink:href="#DejaVuSerif-Bold-48"/>
       <use transform="translate(140.068516 37.046875)scale(0.7)" xlink:href="#DejaVuSerif-Bold-48"/>
      </g>
     </g>
    </g>
    <g id="xtick_6">
     <g id="line2d_6">
      <defs>
       <path d="M 0 0 
L 0 -3 
" id="m0c59071bbe" style="stroke:#333333;stroke-width:0.6;"/>
      </defs>
      <g>
       <use style="fill:#333333;stroke:#333333;stroke-width:0.6;" x="165.909895" xlink:href="#m0c59071bbe" y="530.39625"/>
      </g>
     </g>
    </g>
    <g id="xtick_7">
     <g id="line2d_7">
      <g>
       <use style="fill:#333333;stroke:#333333;stroke-width:0.6;" x="205.213464" xlink:href="#m0c59071bbe" y="530.39625"/>
      </g>
     </g>
    </g>
    <g id="xtick_8">
     <g id="line2d_8">
      <g>
       <use style="fill:#333333;stroke:#333333;stroke-width:0.6;" x="233.09979" xlink:href="#m0c59071bbe" y="530.39625"/>
      </g>
     </g>
    </g>
    <g id="xtick_9">
     <g id="line2d_9">
      <g>
       <use style="fill:#333333;stroke:#333333;stroke-width:0.6;" x="254.730105" xlink:href="#m0c59071bbe" y="530.39625"/>
      </g>
     </g>
    </g>
    <g id="xtick_10">
     <g id="line2d_10">
      <g>
       <use style="fill:#333333;stroke:#333333;stroke-width:0.6;" x="272.403359" xlink:href="#m0c59071bbe" y="530.39625"/>
      </g>
     </g>
    </g>
    <g id="xtick_11">
     <g id="line2d_11">
      <g>
       <use style="fill:#333333;stroke:#333333;stroke-width:0.6;" x="287.345883" xlink:href="#m0c59071bbe" y="530.39625"/>
      </g>
     </g>
    </g>
    <g id="xtick_12">
     <g id="line2d_12">
      <g>
       <use style="fill:#333333;stroke:#333333;stroke-width:0.6;" x="300.289685" xlink:href="#m0c59071bbe" y="530.39625"/>
      </g>
     </g>
    </g>
    <g id="xtick_13">
     <g id="line2d_13">
      <g>
       <use style="fill:#333333;stroke:#333333;stroke-width:0.6;" x="311.706928" xlink:href="#m0c59071bbe" y="530.39625"/>
      </g>
     </g>
    </g>
    <g id="xtick_14">
     <g id="line2d_14">
      <g>
       <use style="fill:#333333;stroke:#333333;stroke-width:0.6;" x="389.109895" xlink:href="#m0c59071bbe" y="530.39625"/>
      </g>
     </g>
    </g>
    <g id="xtick_15">
     <g id="line2d_15">
      <g>
       <use style="fill:#333333;stroke:#333333;stroke-width:0.6;" x="428.413464" xlink:href="#m0c59071bbe" y="530.39625"/>
      </g>
     </g>
    </g>
    <g id="xtick_16">
     <g id="line2d_16">
      <g>
       <use style="fill:#333333;stroke:#333333;stroke-width:0.6;" x="456.29979" xlink:href="#m0c59071bbe" y="530.39625"/>
      </g>
     </g>
    </g>
    <g id="xtick_17">
     <g id="line2d_17">
      <g>
       <use style="fill:#333333;stroke:#333333;stroke-width:0.6;" x="477.930105" xlink:href="#m0c59071bbe" y="530.39625"/>
      </g>
     </g>
    </g>
    <g id="xtick_18">
     <g id="line2d_18">
      <g>
       <use style="fill:#333333;stroke:#333333;stroke-width:0.6;" x="495.603359" xlink:href="#m0c59071bbe" y="530.39625"/>
      </g>
     </g>
    </g>
    <g id="xtick_19">
     <g id="line2d_19">
      <g>
       <use style="fill:#333333;stroke:#333333;stroke-width:0.6;" x="510.545883" xlink:href="#m0c59071bbe" y="530.39625"/>
      </g>
     </g>
    </g>
    <g id="xtick_20">
     <g id="line2d_20">
      <g>
       <use style="fill:#333333;stroke:#333333;stroke-width:0.6;" x="523.489685" xlink:href="#m0c59071bbe" y="530.39625"/>
      </g>
     </g>
    </g>
    <g id="xtick_21">
     <g id="line2d_21">
      <g>
       <use style="fill:#333333;stroke:#333333;stroke-width:0.6;" x="534.906928" xlink:href="#m0c59071bbe" y="530.39625"/>
      </g>
     </g>
    </g>
    <g id="xtick_22">
     <g id="line2d_22">
      <g>
       <use style="fill:#333333;stroke:#333333;stroke-width:0.6;" x="612.309895" xlink:href="#m0c59071bbe" y="530.39625"/>
      </g>
     </g>
    </g>
    <g id="xtick_23">
     <g id="line2d_23">
      <g>
       <use style="fill:#333333;stroke:#333333;stroke-width:0.6;" x="651.613464" xlink:href="#m0c59071bbe" y="530.39625"/>
      </g>
     </g>
    </g>
    <g id="xtick_24">
     <g id="line2d_24">
      <g>
       <use style="fill:#333333;stroke:#333333;stroke-width:0.6;" x="679.49979" xlink:href="#m0c59071bbe" y="530.39625"/>
      </g>
     </g>
    </g>
    <g id="xtick_25">
     <g id="line2d_25">
      <g>
       <use style="fill:#333333;stroke:#333333;stroke-width:0.6;" x="701.130105" xlink:href="#m0c59071bbe" y="530.39625"/>
      </g>
     </g>
    </g>
    <g id="xtick_26">
     <g id="line2d_26">
      <g>
       <use style="fill:#333333;stroke:#333333;stroke-width:0.6;" x="718.803359" xlink:href="#m0c59071bbe" y="530.39625"/>
      </g>
     </g>
    </g>
    <g id="xtick_27">
     <g id="line2d_27">
      <g>
       <use style="fill:#333333;stroke:#333333;stroke-width:0.6;" x="733.745883" xlink:href="#m0c59071bbe" y="530.39625"/>
      </g>
     </g>
    </g>
    <g id="xtick_28">
     <g id="line2d_28">
      <g>
       <use style="fill:#333333;stroke:#333333;stroke-width:0.6;" x="746.689685" xlink:href="#m0c59071bbe" y="530.39625"/>
      </g>
     </g>
    </g>
    <g id="xtick_29">
     <g id="line2d_29">
      <g>
       <use style="fill:#333333;stroke:#333333;stroke-width:0.6;" x="758.106928" xlink:href="#m0c59071bbe" y="530.39625"/>
      </g>
     </g>
    </g>
    <g id="xtick_30">
     <g id="line2d_30">
      <g>
       <use style="fill:#333333;stroke:#333333;stroke-width:0.6;" x="835.509895" xlink:href="#m0c59071bbe" y="530.39625"/>
      </g>
     </g>
    </g>
    <g id="xtick_31">
     <g id="line2d_31">
      <g>
       <use style="fill:#333333;stroke:#333333;stroke-width:0.6;" x="874.813464" xlink:href="#m0c59071bbe" y="530.39625"/>
      </g>
     </g>
    </g>
    <g id="xtick_32">
     <g id="line2d_32">
      <g>
       <use style="fill:#333333;stroke:#333333;stroke-width:0.6;" x="902.69979" xlink:href="#m0c59071bbe" y="530.39625"/>
      </g>
     </g>
    </g>
    <g id="xtick_33">
     <g id="line2d_33">
      <g>
       <use style="fill:#333333;stroke:#333333;stroke-width:0.6;" x="924.330105" xlink:href="#m0c59071bbe" y="530.39625"/>
      </g>
     </g>
    </g>
    <g id="xtick_34">
     <g id="line2d_34">
      <g>
       <use style="fill:#333333;stroke:#333333;stroke-width:0.6;" x="942.003359" xlink:href="#m0c59071bbe" y="530.39625"/>
      </g>
     </g>
    </g>
    <g id="xtick_35">
     <g id="line2d_35">
      <g>
       <use style="fill:#333333;stroke:#333333;stroke-width:0.6;" x="956.945883" xlink:href="#m0c59071bbe" y="530.39625"/>
      </g>
     </g>
    </g>
    <g id="xtick_36">
     <g id="line2d_36">
      <g>
       <use style="fill:#333333;stroke:#333333;stroke-width:0.6;" x="969.889685" xlink:href="#m0c59071bbe" y="530.39625"/>
      </g>
     </g>
    </g>
    <g id="xtick_37">
     <g id="line2d_37">
      <g>
       <use style="fill:#333333;stroke:#333333;stroke-width:0.6;" x="981.306928" xlink:href="#m0c59071bbe" y="530.39625"/>
      </g>
     </g>
    </g>
    <g id="text_6">
     <!-- $1-e$ -->
     <defs>
      <path d="M 40.09375 29.296875 
Q 40.09375 39.546875 38.1875 43.671875 
Q 36.28125 47.796875 31.6875 47.796875 
Q 27.25 47.796875 25.3125 43.75 
Q 23.390625 39.703125 23.390625 30.171875 
L 23.390625 29.296875 
z
M 59.078125 23.484375 
L 23.390625 23.484375 
L 23.390625 23.09375 
Q 23.390625 13.03125 26.40625 8.5625 
Q 29.4375 4.109375 36.1875 4.109375 
Q 41.796875 4.109375 45.265625 7.078125 
Q 48.734375 10.0625 49.703125 15.71875 
L 57.8125 15.71875 
Q 55.71875 6.890625 49.46875 2.734375 
Q 43.21875 -1.421875 31.984375 -1.421875 
Q 18.5 -1.421875 11.296875 5.6875 
Q 4.109375 12.796875 4.109375 25.984375 
Q 4.109375 38.875 11.46875 46.09375 
Q 18.84375 53.328125 31.984375 53.328125 
Q 44.875 53.328125 51.75 45.734375 
Q 58.640625 38.140625 59.078125 23.484375 
z
" id="DejaVuSerif-Bold-101"/>
     </defs>
     <g transform="translate(513.92 577.424375)scale(0.24 -0.24)">
      <use transform="translate(0 0.78125)" xlink:href="#DejaVuSerif-Bold-49"/>
      <use transform="translate(90.742188 0.78125)" xlink:href="#DejaVuSerif-Bold-8722"/>
      <use transform="translate(195.693359 0.78125)" xlink:href="#DejaVuSerif-Bold-101"/>
     </g>
    </g>
   </g>
   <g id="matplotlib.axis_2">
    <g id="ytick_1">
     <g id="line2d_38">
      <defs>
       <path d="M 0 0 
L 6 0 
" id="m701d5f6707" style="stroke:#333333;stroke-width:0.8;"/>
      </defs>
      <g>
       <use style="fill:#333333;stroke:#333333;stroke-width:0.8;" x="98.72" xlink:href="#m701d5f6707" y="530.39625"/>
      </g>
     </g>
     <g id="text_7">
      <!-- $\mathdefault{10^{-6}}$ -->
      <defs>
       <path d="M 24.609375 43.21875 
Q 27.78125 45.75 31.703125 47.015625 
Q 35.640625 48.296875 40.28125 48.296875 
Q 51.46875 48.296875 57.828125 41.75 
Q 64.203125 35.203125 64.203125 23.78125 
Q 64.203125 11.71875 57.03125 5.140625 
Q 49.859375 -1.421875 36.625 -1.421875 
Q 21.6875 -1.421875 13.984375 7.59375 
Q 6.296875 16.609375 6.296875 34.078125 
Q 6.296875 53.953125 14.84375 64.078125 
Q 23.390625 74.21875 40.1875 74.21875 
Q 44.578125 74.21875 49.609375 73.484375 
Q 54.640625 72.75 60.40625 71.296875 
L 60.40625 58.40625 
L 54.5 58.40625 
Q 53.265625 63.375 49.875 65.9375 
Q 46.484375 68.5 41.109375 68.5 
Q 32.421875 68.5 28.53125 62.546875 
Q 24.65625 56.59375 24.609375 43.21875 
z
M 35.5 4.296875 
Q 40.53125 4.296875 42.671875 8.5625 
Q 44.828125 12.84375 44.828125 23.390625 
Q 44.828125 33.9375 42.671875 38.203125 
Q 40.53125 42.484375 35.5 42.484375 
Q 30.46875 42.484375 28.34375 38.203125 
Q 26.21875 33.9375 26.21875 23.390625 
Q 26.21875 12.84375 28.34375 8.5625 
Q 30.46875 4.296875 35.5 4.296875 
z
" id="DejaVuSerif-Bold-54"/>
      </defs>
      <g style="fill:#333333;" transform="translate(40 538.754531)scale(0.22 -0.22)">
       <use transform="translate(0 0.7125)" xlink:href="#DejaVuSerif-Bold-49"/>
       <use transform="translate(69.580078 0.7125)" xlink:href="#DejaVuSerif-Bold-48"/>
       <use transform="translate(140.068516 37.046875)scale(0.7)" xlink:href="#DejaVuSerif-Bold-8722"/>
       <use transform="translate(198.720859 37.046875)scale(0.7)" xlink:href="#DejaVuSerif-Bold-54"/>
      </g>
     </g>
    </g>
    <g id="ytick_2">
     <g id="line2d_39">
      <g>
       <use style="fill:#333333;stroke:#333333;stroke-width:0.8;" x="98.72" xlink:href="#m701d5f6707" y="447.23625"/>
      </g>
     </g>
     <g id="text_8">
      <!-- $\mathdefault{10^{-5}}$ -->
      <defs>
       <path d="M 56.390625 72.90625 
L 56.390625 60.109375 
L 17.390625 60.109375 
L 17.390625 44.09375 
Q 20.609375 46.578125 24.5625 47.84375 
Q 28.515625 49.125 32.90625 49.125 
Q 46.390625 49.125 54.203125 42.3125 
Q 62.015625 35.5 62.015625 23.78125 
Q 62.015625 11.859375 54.203125 5.21875 
Q 46.390625 -1.421875 32.328125 -1.421875 
Q 26.375 -1.421875 20.484375 -0.4375 
Q 14.59375 0.53125 8.203125 2.59375 
L 8.203125 18.5 
L 14.0625 18.5 
Q 14.359375 11.328125 17.796875 7.8125 
Q 21.234375 4.296875 27.984375 4.296875 
Q 35.15625 4.296875 38.625 9.109375 
Q 42.09375 13.921875 42.09375 23.78125 
Q 42.09375 33.5 38.6875 38.296875 
Q 35.296875 43.109375 28.421875 43.109375 
Q 24.703125 43.109375 21.796875 41.578125 
Q 18.890625 40.046875 16.40625 36.8125 
L 11.53125 36.8125 
L 11.53125 72.90625 
z
" id="DejaVuSerif-Bold-53"/>
      </defs>
      <g style="fill:#333333;" transform="translate(40 455.594531)scale(0.22 -0.22)">
       <use transform="translate(0 0.63125)" xlink:href="#DejaVuSerif-Bold-49"/>
       <use transform="translate(69.580078 0.63125)" xlink:href="#DejaVuSerif-Bold-48"/>
       <use transform="translate(140.068516 36.965625)scale(0.7)" xlink:href="#DejaVuSerif-Bold-8722"/>
       <use transform="translate(198.720859 36.965625)scale(0.7)" xlink:href="#DejaVuSerif-Bold-53"/>
      </g>
     </g>
    </g>
    <g id="ytick_3">
     <g id="line2d_40">
      <g>
       <use style="fill:#333333;stroke:#333333;stroke-width:0.8;" x="98.72" xlink:href="#m701d5f6707" y="364.07625"/>
      </g>
     </g>
     <g id="text_9">
      <!-- $\mathdefault{10^{-4}}$ -->
      <g style="fill:#333333;" transform="translate(40 372.434531)scale(0.22 -0.22)">
       <use transform="translate(0 0.7125)" xlink:href="#DejaVuSerif-Bold-49"/>
       <use transform="translate(69.580078 0.7125)" xlink:href="#DejaVuSerif-Bold-48"/>
       <use transform="translate(140.068516 37.046875)scale(0.7)" xlink:href="#DejaVuSerif-Bold-8722"/>
       <use transform="translate(198.720859 37.046875)scale(0.7)" xlink:href="#DejaVuSerif-Bold-52"/>
      </g>
     </g>
    </g>
    <g id="ytick_4">
     <g id="line2d_41">
      <g>
       <use style="fill:#333333;stroke:#333333;stroke-width:0.8;" x="98.72" xlink:href="#m701d5f6707" y="280.91625"/>
      </g>
     </g>
     <g id="text_10">
      <!-- $\mathdefault{10^{-3}}$ -->
      <g style="fill:#333333;" transform="translate(40 289.274531)scale(0.22 -0.22)">
       <use transform="translate(0 0.7125)" xlink:href="#DejaVuSerif-Bold-49"/>
       <use transform="translate(69.580078 0.7125)" xlink:href="#DejaVuSerif-Bold-48"/>
       <use transform="translate(140.068516 37.046875)scale(0.7)" xlink:href="#DejaVuSerif-Bold-8722"/>
       <use transform="translate(198.720859 37.046875)scale(0.7)" xlink:href="#DejaVuSerif-Bold-51"/>
      </g>
     </g>
    </g>
    <g id="ytick_5">
     <g id="line2d_42">
      <g>
       <use style="fill:#333333;stroke:#333333;stroke-width:0.8;" x="98.72" xlink:href="#m701d5f6707" y="197.75625"/>
      </g>
     </g>
     <g id="text_11">
      <!-- $\mathdefault{10^{-2}}$ -->
      <g style="fill:#333333;" transform="translate(40 206.114531)scale(0.22 -0.22)">
       <use transform="translate(0 0.7125)" xlink:href="#DejaVuSerif-Bold-49"/>
       <use transform="translate(69.580078 0.7125)" xlink:href="#DejaVuSerif-Bold-48"/>
       <use transform="translate(140.068516 37.046875)scale(0.7)" xlink:href="#DejaVuSerif-Bold-8722"/>
       <use transform="translate(198.720859 37.046875)scale(0.7)" xlink:href="#DejaVuSerif-Bold-50"/>
      </g>
     </g>
    </g>
    <g id="ytick_6">
     <g id="line2d_43">
      <g>
       <use style="fill:#333333;stroke:#333333;stroke-width:0.8;" x="98.72" xlink:href="#m701d5f6707" y="114.59625"/>
      </g>
     </g>
     <g id="text_12">
      <!-- $\mathdefault{10^{-1}}$ -->
      <g style="fill:#333333;" transform="translate(40 122.954531)scale(0.22 -0.22)">
       <use transform="translate(0 0.7125)" xlink:href="#DejaVuSerif-Bold-49"/>
       <use transform="translate(69.580078 0.7125)" xlink:href="#DejaVuSerif-Bold-48"/>
       <use transform="translate(140.068516 37.046875)scale(0.7)" xlink:href="#DejaVuSerif-Bold-8722"/>
       <use transform="translate(198.720859 37.046875)scale(0.7)" xlink:href="#DejaVuSerif-Bold-49"/>
      </g>
     </g>
    </g>
    <g id="ytick_7">
     <g id="line2d_44">
      <g>
       <use style="fill:#333333;stroke:#333333;stroke-width:0.8;" x="98.72" xlink:href="#m701d5f6707" y="31.43625"/>
      </g>
     </g>
     <g id="text_13">
      <!-- $\mathdefault{10^{0}}$ -->
      <g style="fill:#333333;" transform="translate(52.98 39.794531)scale(0.22 -0.22)">
       <use transform="translate(0 0.7125)" xlink:href="#DejaVuSerif-Bold-49"/>
       <use transform="translate(69.580078 0.7125)" xlink:href="#DejaVuSerif-Bold-48"/>
       <use transform="translate(140.068516 37.046875)scale(0.7)" xlink:href="#DejaVuSerif-Bold-48"/>
      </g>
     </g>
    </g>
    <g id="ytick_8">
     <g id="line2d_45">
      <defs>
       <path d="M 0 0 
L 3 0 
" id="mac2720a19c" style="stroke:#333333;stroke-width:0.6;"/>
      </defs>
      <g>
       <use style="fill:#333333;stroke:#333333;stroke-width:0.6;" x="98.72" xlink:href="#mac2720a19c" y="505.362596"/>
      </g>
     </g>
    </g>
    <g id="ytick_9">
     <g id="line2d_46">
      <g>
       <use style="fill:#333333;stroke:#333333;stroke-width:0.6;" x="98.72" xlink:href="#mac2720a19c" y="490.718846"/>
      </g>
     </g>
    </g>
    <g id="ytick_10">
     <g id="line2d_47">
      <g>
       <use style="fill:#333333;stroke:#333333;stroke-width:0.6;" x="98.72" xlink:href="#mac2720a19c" y="480.328941"/>
      </g>
     </g>
    </g>
    <g id="ytick_11">
     <g id="line2d_48">
      <g>
       <use style="fill:#333333;stroke:#333333;stroke-width:0.6;" x="98.72" xlink:href="#mac2720a19c" y="472.269904"/>
      </g>
     </g>
    </g>
    <g id="ytick_12">
     <g id="line2d_49">
      <g>
       <use style="fill:#333333;stroke:#333333;stroke-width:0.6;" x="98.72" xlink:href="#mac2720a19c" y="465.685192"/>
      </g>
     </g>
    </g>
    <g id="ytick_13">
     <g id="line2d_50">
      <g>
       <use style="fill:#333333;stroke:#333333;stroke-width:0.6;" x="98.72" xlink:href="#mac2720a19c" y="460.117897"/>
      </g>
     </g>
    </g>
    <g id="ytick_14">
     <g id="line2d_51">
      <g>
       <use style="fill:#333333;stroke:#333333;stroke-width:0.6;" x="98.72" xlink:href="#mac2720a19c" y="455.295287"/>
      </g>
     </g>
    </g>
    <g id="ytick_15">
     <g id="line2d_52">
      <g>
       <use style="fill:#333333;stroke:#333333;stroke-width:0.6;" x="98.72" xlink:href="#mac2720a19c" y="451.041443"/>
      </g>
     </g>
    </g>
    <g id="ytick_16">
     <g id="line2d_53">
      <g>
       <use style="fill:#333333;stroke:#333333;stroke-width:0.6;" x="98.72" xlink:href="#mac2720a19c" y="422.202596"/>
      </g>
     </g>
    </g>
    <g id="ytick_17">
     <g id="line2d_54">
      <g>
       <use style="fill:#333333;stroke:#333333;stroke-width:0.6;" x="98.72" xlink:href="#mac2720a19c" y="407.558846"/>
      </g>
     </g>
    </g>
    <g id="ytick_18">
     <g id="line2d_55">
      <g>
       <use style="fill:#333333;stroke:#333333;stroke-width:0.6;" x="98.72" xlink:href="#mac2720a19c" y="397.168941"/>
      </g>
     </g>
    </g>
    <g id="ytick_19">
     <g id="line2d_56">
      <g>
       <use style="fill:#333333;stroke:#333333;stroke-width:0.6;" x="98.72" xlink:href="#mac2720a19c" y="389.109904"/>
      </g>
     </g>
    </g>
    <g id="ytick_20">
     <g id="line2d_57">
      <g>
       <use style="fill:#333333;stroke:#333333;stroke-width:0.6;" x="98.72" xlink:href="#mac2720a19c" y="382.525192"/>
      </g>
     </g>
    </g>
    <g id="ytick_21">
     <g id="line2d_58">
      <g>
       <use style="fill:#333333;stroke:#333333;stroke-width:0.6;" x="98.72" xlink:href="#mac2720a19c" y="376.957897"/>
      </g>
     </g>
    </g>
    <g id="ytick_22">
     <g id="line2d_59">
      <g>
       <use style="fill:#333333;stroke:#333333;stroke-width:0.6;" x="98.72" xlink:href="#mac2720a19c" y="372.135287"/>
      </g>
     </g>
    </g>
    <g id="ytick_23">
     <g id="line2d_60">
      <g>
       <use style="fill:#333333;stroke:#333333;stroke-width:0.6;" x="98.72" xlink:href="#mac2720a19c" y="367.881443"/>
      </g>
     </g>
    </g>
    <g id="ytick_24">
     <g id="line2d_61">
      <g>
       <use style="fill:#333333;stroke:#333333;stroke-width:0.6;" x="98.72" xlink:href="#mac2720a19c" y="339.042596"/>
      </g>
     </g>
    </g>
    <g id="ytick_25">
     <g id="line2d_62">
      <g>
       <use style="fill:#333333;stroke:#333333;stroke-width:0.6;" x="98.72" xlink:href="#mac2720a19c" y="324.398846"/>
      </g>
     </g>
    </g>
    <g id="ytick_26">
     <g id="line2d_63">
      <g>
       <use style="fill:#333333;stroke:#333333;stroke-width:0.6;" x="98.72" xlink:href="#mac2720a19c" y="314.008941"/>
      </g>
     </g>
    </g>
    <g id="ytick_27">
     <g id="line2d_64">
      <g>
       <use style="fill:#333333;stroke:#333333;stroke-width:0.6;" x="98.72" xlink:href="#mac2720a19c" y="305.949904"/>
      </g>
     </g>
    </g>
    <g id="ytick_28">
     <g id="line2d_65">
      <g>
       <use style="fill:#333333;stroke:#333333;stroke-width:0.6;" x="98.72" xlink:href="#mac2720a19c" y="299.365192"/>
      </g>
     </g>
    </g>
    <g id="ytick_29">
     <g id="line2d_66">
      <g>
       <use style="fill:#333333;stroke:#333333;stroke-width:0.6;" x="98.72" xlink:href="#mac2720a19c" y="293.797897"/>
      </g>
     </g>
    </g>
    <g id="ytick_30">
     <g id="line2d_67">
      <g>
       <use style="fill:#333333;stroke:#333333;stroke-width:0.6;" x="98.72" xlink:href="#mac2720a19c" y="288.975287"/>
      </g>
     </g>
    </g>
    <g id="ytick_31">
     <g id="line2d_68">
      <g>
       <use style="fill:#333333;stroke:#333333;stroke-width:0.6;" x="98.72" xlink:href="#mac2720a19c" y="284.721443"/>
      </g>
     </g>
    </g>
    <g id="ytick_32">
     <g id="line2d_69">
      <g>
       <use style="fill:#333333;stroke:#333333;stroke-width:0.6;" x="98.72" xlink:href="#mac2720a19c" y="255.882596"/>
      </g>
     </g>
    </g>
    <g id="ytick_33">
     <g id="line2d_70">
      <g>
       <use style="fill:#333333;stroke:#333333;stroke-width:0.6;" x="98.72" xlink:href="#mac2720a19c" y="241.238846"/>
      </g>
     </g>
    </g>
    <g id="ytick_34">
     <g id="line2d_71">
      <g>
       <use style="fill:#333333;stroke:#333333;stroke-width:0.6;" x="98.72" xlink:href="#mac2720a19c" y="230.848941"/>
      </g>
     </g>
    </g>
    <g id="ytick_35">
     <g id="line2d_72">
      <g>
       <use style="fill:#333333;stroke:#333333;stroke-width:0.6;" x="98.72" xlink:href="#mac2720a19c" y="222.789904"/>
      </g>
     </g>
    </g>
    <g id="ytick_36">
     <g id="line2d_73">
      <g>
       <use style="fill:#333333;stroke:#333333;stroke-width:0.6;" x="98.72" xlink:href="#mac2720a19c" y="216.205192"/>
      </g>
     </g>
    </g>
    <g id="ytick_37">
     <g id="line2d_74">
      <g>
       <use style="fill:#333333;stroke:#333333;stroke-width:0.6;" x="98.72" xlink:href="#mac2720a19c" y="210.637897"/>
      </g>
     </g>
    </g>
    <g id="ytick_38">
     <g id="line2d_75">
      <g>
       <use style="fill:#333333;stroke:#333333;stroke-width:0.6;" x="98.72" xlink:href="#mac2720a19c" y="205.815287"/>
      </g>
     </g>
    </g>
    <g id="ytick_39">
     <g id="line2d_76">
      <g>
       <use style="fill:#333333;stroke:#333333;stroke-width:0.6;" x="98.72" xlink:href="#mac2720a19c" y="201.561443"/>
      </g>
     </g>
    </g>
    <g id="ytick_40">
     <g id="line2d_77">
      <g>
       <use style="fill:#333333;stroke:#333333;stroke-width:0.6;" x="98.72" xlink:href="#mac2720a19c" y="172.722596"/>
      </g>
     </g>
    </g>
    <g id="ytick_41">
     <g id="line2d_78">
      <g>
       <use style="fill:#333333;stroke:#333333;stroke-width:0.6;" x="98.72" xlink:href="#mac2720a19c" y="158.078846"/>
      </g>
     </g>
    </g>
    <g id="ytick_42">
     <g id="line2d_79">
      <g>
       <use style="fill:#333333;stroke:#333333;stroke-width:0.6;" x="98.72" xlink:href="#mac2720a19c" y="147.688941"/>
      </g>
     </g>
    </g>
    <g id="ytick_43">
     <g id="line2d_80">
      <g>
       <use style="fill:#333333;stroke:#333333;stroke-width:0.6;" x="98.72" xlink:href="#mac2720a19c" y="139.629904"/>
      </g>
     </g>
    </g>
    <g id="ytick_44">
     <g id="line2d_81">
      <g>
       <use style="fill:#333333;stroke:#333333;stroke-width:0.6;" x="98.72" xlink:href="#mac2720a19c" y="133.045192"/>
      </g>
     </g>
    </g>
    <g id="ytick_45">
     <g id="line2d_82">
      <g>
       <use style="fill:#333333;stroke:#333333;stroke-width:0.6;" x="98.72" xlink:href="#mac2720a19c" y="127.477897"/>
      </g>
     </g>
    </g>
    <g id="ytick_46">
     <g id="line2d_83">
      <g>
       <use style="fill:#333333;stroke:#333333;stroke-width:0.6;" x="98.72" xlink:href="#mac2720a19c" y="122.655287"/>
      </g>
     </g>
    </g>
    <g id="ytick_47">
     <g id="line2d_84">
      <g>
       <use style="fill:#333333;stroke:#333333;stroke-width:0.6;" x="98.72" xlink:href="#mac2720a19c" y="118.401443"/>
      </g>
     </g>
    </g>
    <g id="ytick_48">
     <g id="line2d_85">
      <g>
       <use style="fill:#333333;stroke:#333333;stroke-width:0.6;" x="98.72" xlink:href="#mac2720a19c" y="89.562596"/>
      </g>
     </g>
    </g>
    <g id="ytick_49">
     <g id="line2d_86">
      <g>
       <use style="fill:#333333;stroke:#333333;stroke-width:0.6;" x="98.72" xlink:href="#mac2720a19c" y="74.918846"/>
      </g>
     </g>
    </g>
    <g id="ytick_50">
     <g id="line2d_87">
      <g>
       <use style="fill:#333333;stroke:#333333;stroke-width:0.6;" x="98.72" xlink:href="#mac2720a19c" y="64.528941"/>
      </g>
     </g>
    </g>
    <g id="ytick_51">
     <g id="line2d_88">
      <g>
       <use style="fill:#333333;stroke:#333333;stroke-width:0.6;" x="98.72" xlink:href="#mac2720a19c" y="56.469904"/>
      </g>
     </g>
    </g>
    <g id="ytick_52">
     <g id="line2d_89">
      <g>
       <use style="fill:#333333;stroke:#333333;stroke-width:0.6;" x="98.72" xlink:href="#mac2720a19c" y="49.885192"/>
      </g>
     </g>
    </g>
    <g id="ytick_53">
     <g id="line2d_90">
      <g>
       <use style="fill:#333333;stroke:#333333;stroke-width:0.6;" x="98.72" xlink:href="#mac2720a19c" y="44.317897"/>
      </g>
     </g>
    </g>
    <g id="ytick_54">
     <g id="line2d_91">
      <g>
       <use style="fill:#333333;stroke:#333333;stroke-width:0.6;" x="98.72" xlink:href="#mac2720a19c" y="39.495287"/>
      </g>
     </g>
    </g>
    <g id="ytick_55">
     <g id="line2d_92">
      <g>
       <use style="fill:#333333;stroke:#333333;stroke-width:0.6;" x="98.72" xlink:href="#mac2720a19c" y="35.241443"/>
      </g>
     </g>
    </g>
    <g id="text_14">
     <!-- $D_{\rm jj} [Myr^{-1}]$ -->
     <defs>
      <path d="M 32.8125 5.90625 
L 39.59375 5.90625 
Q 51.03125 5.90625 56.328125 13.234375 
Q 61.625 20.5625 61.625 36.53125 
Q 61.625 52.390625 56.34375 59.6875 
Q 51.078125 67 39.59375 67 
L 32.8125 67 
z
M 4.6875 0 
L 4.6875 5.90625 
L 14.015625 5.90625 
L 14.015625 67 
L 4.6875 67 
L 4.6875 72.90625 
L 42.09375 72.90625 
Q 61.71875 72.90625 72.109375 63.53125 
Q 82.515625 54.15625 82.515625 36.53125 
Q 82.515625 18.796875 72.09375 9.390625 
Q 61.671875 0 42.09375 0 
z
" id="DejaVuSerif-Bold-68"/>
      <path d="M 8.40625 54.6875 
L 25.875 54.6875 
L 25.875 0.984375 
Q 25.875 -10.015625 20.59375 -15.796875 
Q 15.328125 -21.578125 5.328125 -21.578125 
L -3.328125 -21.578125 
L -3.328125 -10.109375 
L -0.296875 -10.109375 
Q 4.6875 -10.109375 6.546875 -7.859375 
Q 8.40625 -5.609375 8.40625 0.984375 
z
M 8.40625 75.984375 
L 25.875 75.984375 
L 25.875 61.71875 
L 8.40625 61.71875 
z
" id="DejaVuSans-Bold-106"/>
      <path d="M 12.5 75.984375 
L 40.1875 75.984375 
L 40.1875 70.125 
L 29.78125 70.125 
L 29.78125 -7.328125 
L 40.1875 -7.328125 
L 40.1875 -13.1875 
L 12.5 -13.1875 
z
" id="DejaVuSerif-Bold-91"/>
      <path d="M 4.203125 0 
L 4.203125 5.90625 
L 13.484375 5.90625 
L 13.484375 67 
L 4.203125 67 
L 4.203125 72.90625 
L 34.28125 72.90625 
L 55.078125 26.125 
L 75.984375 72.90625 
L 106 72.90625 
L 106 67 
L 96.6875 67 
L 96.6875 5.90625 
L 106 5.90625 
L 106 0 
L 68.5 0 
L 68.5 5.90625 
L 77.78125 5.90625 
L 77.78125 61.53125 
L 55.171875 10.6875 
L 42.828125 10.6875 
L 20.3125 61.53125 
L 20.3125 5.90625 
L 29.59375 5.90625 
L 29.59375 0 
z
" id="DejaVuSerif-Bold-77"/>
      <path d="M 31.203125 -11.71875 
Q 28.859375 -17.4375 25.53125 -19.828125 
Q 22.21875 -22.21875 16.609375 -22.21875 
Q 14.203125 -22.21875 11.265625 -21.671875 
Q 8.34375 -21.140625 4.890625 -20.125 
L 4.890625 -9.28125 
L 10.40625 -9.328125 
Q 10.546875 -13.09375 12.171875 -14.890625 
Q 13.8125 -16.703125 17.09375 -16.703125 
Q 20.265625 -16.703125 22.21875 -14.96875 
Q 24.171875 -13.234375 26.125 -8.40625 
L 26.90625 -6.59375 
L 4.296875 46 
L -1.3125 46 
L -1.3125 51.90625 
L 28.609375 51.90625 
L 28.609375 46 
L 22.40625 46 
L 35.59375 15.28125 
L 47.90625 46 
L 41.015625 46 
L 41.015625 51.90625 
L 60.5 51.90625 
L 60.5 46 
L 54.203125 46 
z
" id="DejaVuSerif-Bold-121"/>
      <path d="M 53.71875 52.484375 
L 53.71875 37.015625 
L 48.1875 37.015625 
Q 47.90625 41.15625 45.953125 43.1875 
Q 44 45.21875 40.28125 45.21875 
Q 34.625 45.21875 31.34375 40.234375 
Q 28.078125 35.25 28.078125 26.421875 
L 28.078125 5.90625 
L 37.5 5.90625 
L 37.5 0 
L 3.421875 0 
L 3.421875 5.90625 
L 10.796875 5.90625 
L 10.796875 46 
L 2.875 46 
L 2.875 51.90625 
L 28.078125 51.90625 
L 28.078125 42.671875 
Q 30.609375 48.09375 34.78125 50.703125 
Q 38.96875 53.328125 45.015625 53.328125 
Q 46.53125 53.328125 48.703125 53.09375 
Q 50.875 52.875 53.71875 52.484375 
z
" id="DejaVuSerif-Bold-114"/>
      <path d="M 34.8125 75.984375 
L 34.8125 -13.1875 
L 7.078125 -13.1875 
L 7.078125 -7.328125 
L 17.484375 -7.328125 
L 17.484375 70.125 
L 7.078125 70.125 
L 7.078125 75.984375 
z
" id="DejaVuSerif-Bold-93"/>
     </defs>
     <g transform="translate(28.56 348.83625)rotate(-90)scale(0.24 -0.24)">
      <use transform="translate(0 0.7125)" xlink:href="#DejaVuSerif-Bold-68"/>
      <use transform="translate(87.627109 -14.859375)scale(0.7)" xlink:href="#DejaVuSans-Bold-106"/>
      <use transform="translate(111.62125 -14.859375)scale(0.7)" xlink:href="#DejaVuSans-Bold-106"/>
      <use transform="translate(138.210703 0.7125)" xlink:href="#DejaVuSerif-Bold-91"/>
      <use transform="translate(185.525156 0.7125)" xlink:href="#DejaVuSerif-Bold-77"/>
      <use transform="translate(296.218516 0.7125)" xlink:href="#DejaVuSerif-Bold-121"/>
      <use transform="translate(354.323984 0.7125)" xlink:href="#DejaVuSerif-Bold-114"/>
      <use transform="translate(407.917891 37.046875)scale(0.7)" xlink:href="#DejaVuSerif-Bold-8722"/>
      <use transform="translate(466.570234 37.046875)scale(0.7)" xlink:href="#DejaVuSerif-Bold-49"/>
      <use transform="translate(517.871602 0.7125)" xlink:href="#DejaVuSerif-Bold-93"/>
     </g>
    </g>
   </g>
   <g id="line2d_93">
    <path clip-path="url(#p5b37b614c9)" d="M 140.034971 524.412197 
L 149.226755 518.204609 
L 152.290699 516.521422 
L 155.354651 514.205458 
L 158.418613 512.283601 
L 161.482583 510.136926 
L 164.546562 508.144165 
L 167.610551 506.368787 
L 170.674549 504.2885 
L 173.738558 501.960474 
L 176.802578 500.064988 
L 179.866608 498.441853 
L 185.994702 494.379104 
L 189.058767 492.0222 
L 198.251037 486.057002 
L 204.379284 482.388078 
L 216.635955 474.207093 
L 225.828628 468.630071 
L 231.957166 464.275972 
L 235.021463 462.53216 
L 238.08578 460.407388 
L 247.278857 454.708273 
L 250.34326 452.585371 
L 265.665636 442.88113 
L 268.73019 441.329641 
L 271.794771 439.074967 
L 277.924022 434.908796 
L 280.988693 433.252084 
L 284.053396 430.964042 
L 287.118131 429.208196 
L 290.182901 427.588246 
L 293.247705 425.522742 
L 296.312546 423.859397 
L 299.377423 421.577081 
L 302.44234 419.862665 
L 305.507296 417.974589 
L 308.572293 416.222928 
L 311.637332 414.334471 
L 314.702415 412.129277 
L 317.767542 410.217444 
L 320.832717 408.50521 
L 323.897939 406.438755 
L 326.963211 404.600905 
L 333.09391 400.704945 
L 336.15934 399.026437 
L 339.224827 396.681833 
L 342.290371 394.972192 
L 345.355976 393.028688 
L 351.487373 389.584645 
L 354.553169 387.510515 
L 357.619033 385.763633 
L 360.684967 383.714356 
L 376.015775 374.45205 
L 379.082181 372.50762 
L 388.281937 367.236493 
L 394.415585 363.116926 
L 397.482562 361.601657 
L 400.549645 359.563463 
L 403.616837 358.055908 
L 406.684143 355.830557 
L 409.751565 354.249496 
L 412.819108 352.525134 
L 415.886775 350.443151 
L 418.954571 348.548807 
L 425.090565 345.251141 
L 428.158772 343.329366 
L 458.849703 325.574633 
L 468.060632 320.286271 
L 471.131375 318.299321 
L 474.202346 316.794115 
L 477.273553 315.077738 
L 480.345003 313.130897 
L 483.416705 311.652446 
L 486.488667 309.866205 
L 492.633402 306.558401 
L 495.706195 304.55753 
L 498.779282 302.98517 
L 501.852674 301.077632 
L 504.926382 299.332817 
L 508.000414 297.923821 
L 511.074782 296.03306 
L 517.224571 292.839165 
L 523.37584 289.584134 
L 526.45206 287.754671 
L 532.605737 284.664036 
L 535.683222 282.70826 
L 538.761155 281.424319 
L 541.839553 279.520428 
L 544.918431 277.774202 
L 551.077688 274.75193 
L 557.239062 271.496042 
L 563.402695 267.84693 
L 566.485405 265.859152 
L 572.652716 262.322908 
L 575.737358 260.985388 
L 581.908728 257.151422 
L 584.995502 255.847992 
L 591.171353 252.639889 
L 594.260481 251.238876 
L 597.350448 249.465091 
L 609.71928 243.197177 
L 612.813884 241.414051 
L 619.006199 238.53929 
L 622.103982 236.862314 
L 625.202898 235.537071 
L 628.302985 234.066244 
L 631.404286 232.394103 
L 634.50684 227.935349 
L 637.610693 199.057693 
L 640.715888 175.324107 
L 643.822472 158.806355 
L 646.930495 149.134928 
L 650.040006 143.730508 
L 653.151057 140.844078 
L 656.263704 139.053799 
L 659.378001 138.097458 
L 662.494008 137.908718 
L 665.611785 138.253034 
L 668.731395 138.788238 
L 674.97638 140.658857 
L 678.101894 141.457562 
L 681.22952 142.516122 
L 684.359334 143.329035 
L 690.625847 145.741763 
L 693.762717 143.239592 
L 696.902113 139.546162 
L 700.044131 140.790833 
L 706.336423 145.152055 
L 709.486906 144.529569 
L 715.797098 150.273161 
L 718.957044 152.692693 
L 722.120389 154.482178 
L 725.287265 155.725772 
L 728.457809 156.52807 
L 731.632166 156.946807 
L 734.810484 156.90084 
L 737.992923 156.563963 
L 741.179647 155.769667 
L 744.370829 154.749363 
L 747.566649 153.340477 
L 750.767298 151.723349 
L 753.972975 149.852876 
L 757.18389 148.406142 
L 760.400263 149.68826 
L 763.622325 148.531892 
L 766.85032 147.177376 
L 770.084504 146.181333 
L 773.325147 145.490577 
L 776.572536 145.424847 
L 779.82697 148.411424 
L 783.088768 151.188775 
L 786.358266 151.23084 
L 789.63582 151.003942 
L 792.921809 150.322281 
L 796.216631 149.792444 
L 799.520712 149.644127 
L 802.834504 149.234374 
L 806.158488 149.240185 
L 822.950524 148.521007 
L 826.347762 148.729194 
L 833.186976 148.346149 
L 836.630694 148.567559 
L 840.091767 148.918096 
L 847.070317 149.366112 
L 854.132317 150.117959 
L 857.698147 151.009883 
L 868.555524 152.852849 
L 872.234773 153.380887 
L 875.948097 155.056707 
L 879.698349 156.097177 
L 883.488753 157.498248 
L 887.322975 158.681093 
L 891.205208 160.240286 
L 895.140286 161.969165 
L 899.133828 164.11868 
L 903.192425 166.133299 
L 907.323888 168.608548 
L 911.537591 171.531663 
L 915.844938 174.740884 
L 920.260032 178.97914 
L 924.800652 182.650963 
L 934.357791 192.275642 
L 939.446753 199.295137 
L 944.817213 205.867964 
L 950.562392 217.57298 
L 956.839638 229.41421 
L 963.956586 246.580482 
L 972.709727 282.24928 
L 972.709727 282.24928 
" style="fill:none;stroke:#000000;stroke-linecap:square;stroke-width:2;"/>
   </g>
   <g id="line2d_94">
    <path clip-path="url(#p5b37b614c9)" d="M 142.043045 225.862404 
L 427.166631 225.789933 
L 511.699964 225.98952 
L 567.219401 226.325651 
L 611.19224 226.809514 
L 646.515099 227.421935 
L 676.096135 228.159171 
L 699.89297 228.957774 
L 720.842882 229.860006 
L 738.921287 230.828681 
L 757.140963 232.02756 
L 772.458029 233.248061 
L 787.925896 234.721751 
L 800.432314 236.126549 
L 813.081073 237.779464 
L 822.678563 239.216364 
L 832.388198 240.856887 
L 842.22921 242.741294 
L 852.225709 244.921844 
L 858.991296 246.573444 
L 865.85084 248.413471 
L 872.81808 250.475003 
L 879.909918 252.800174 
L 887.147504 255.443804 
L 894.55788 258.479063 
L 902.176508 262.006668 
L 906.078268 263.99779 
L 910.051412 266.170751 
L 914.105067 268.555073 
L 918.250339 271.187993 
L 922.500952 274.117404 
L 926.874206 277.406353 
L 931.392417 281.1402 
L 936.085211 285.438574 
L 940.993356 290.476578 
L 946.175659 296.525485 
L 951.722524 304.039284 
L 957.786325 313.867725 
L 964.664291 327.913444 
L 964.664291 327.913444 
" style="fill:none;stroke:#ff0000;stroke-dasharray:7.4,3.2;stroke-dashoffset:0;stroke-width:2;"/>
   </g>
   <g id="line2d_95">
    <path clip-path="url(#p5b37b614c9)" d="M 664.855562 114.59625 
L 664.85559 89.562596 
L 664.855618 74.918846 
" style="fill:none;stroke:#0000ff;stroke-linecap:square;stroke-width:2;"/>
   </g>
   <g id="text_15">
    <g id="patch_3">
     <path d="M 317.84 216.50973 
L 538.40375 216.50973 
L 538.40375 185.12223 
L 317.84 185.12223 
z
" style="fill:#ffffff;opacity:0.1;stroke:#ffffff;stroke-linejoin:miter;"/>
    </g>
    <!-- NRR, a=0.01 pc -->
    <defs>
     <path d="M 4.390625 0 
L 4.390625 5.90625 
L 13.71875 5.90625 
L 13.71875 67 
L 4.390625 67 
L 4.390625 72.90625 
L 27.203125 72.90625 
L 71.1875 21.296875 
L 71.1875 67 
L 61.921875 67 
L 61.921875 72.90625 
L 87.40625 72.90625 
L 87.40625 67 
L 78.078125 67 
L 78.078125 0 
L 65.28125 0 
L 20.609375 52.6875 
L 20.609375 5.90625 
L 29.890625 5.90625 
L 29.890625 0 
z
" id="DejaVuSerif-Bold-78"/>
     <path d="M 53.078125 35.59375 
Q 57.421875 34.96875 60.390625 32.71875 
Q 63.375 30.46875 65.578125 26.21875 
L 76.21875 5.90625 
L 83.6875 5.90625 
L 83.6875 0 
L 59.71875 0 
L 48.09375 22.015625 
Q 44.734375 28.859375 42.359375 30.734375 
Q 39.984375 32.625 35.796875 32.625 
L 32.8125 32.625 
L 32.8125 5.90625 
L 42.1875 5.90625 
L 42.1875 0 
L 4.6875 0 
L 4.6875 5.90625 
L 14.015625 5.90625 
L 14.015625 67 
L 4.6875 67 
L 4.6875 72.90625 
L 46.296875 72.90625 
Q 58.984375 72.90625 65.890625 67.796875 
Q 72.796875 62.703125 72.796875 53.328125 
Q 72.796875 45.703125 67.890625 41.28125 
Q 62.984375 36.859375 53.078125 35.59375 
z
M 32.8125 38.484375 
L 39.203125 38.484375 
Q 46.046875 38.484375 49.734375 42.1875 
Q 53.421875 45.90625 53.421875 52.78125 
Q 53.421875 59.671875 49.734375 63.328125 
Q 46.046875 67 39.203125 67 
L 32.8125 67 
z
" id="DejaVuSerif-Bold-82"/>
     <path d="M 1.3125 -9.625 
Q 6.390625 -5.515625 8.78125 -0.4375 
Q 11.1875 4.640625 11.1875 11.375 
L 11.1875 15.578125 
L 25.09375 15.578125 
L 25.09375 15.1875 
Q 25.09375 4.390625 20.578125 -3.390625 
Q 16.0625 -11.1875 6.6875 -16.5 
z
" id="DejaVuSerif-Bold-44"/>
     <path id="DejaVuSerif-Bold-32"/>
     <path d="M 55.078125 31.890625 
L 55.078125 5.90625 
L 62.5 5.90625 
L 62.5 0 
L 37.796875 0 
L 37.796875 6.59375 
Q 34.375 2.484375 30.171875 0.53125 
Q 25.984375 -1.421875 20.609375 -1.421875 
Q 12.640625 -1.421875 8.375 2.84375 
Q 4.109375 7.125 4.109375 15.09375 
Q 4.109375 23.828125 10.234375 28.171875 
Q 16.359375 32.515625 28.71875 32.515625 
L 37.796875 32.515625 
L 37.796875 35.59375 
Q 37.796875 41.890625 34.8125 44.890625 
Q 31.84375 47.90625 25.59375 47.90625 
Q 20.40625 47.90625 17.59375 45.78125 
Q 14.796875 43.65625 13.625 38.8125 
L 8.109375 38.8125 
L 8.109375 50 
Q 12.75 51.65625 17.71875 52.484375 
Q 22.703125 53.328125 28.21875 53.328125 
Q 42.140625 53.328125 48.609375 48.140625 
Q 55.078125 42.96875 55.078125 31.890625 
z
M 37.796875 16.3125 
L 37.796875 26.703125 
L 31.296875 26.703125 
Q 26.46875 26.703125 23.875 24.0625 
Q 21.296875 21.4375 21.296875 16.5 
Q 21.296875 11.578125 23.171875 9.125 
Q 25.046875 6.6875 28.90625 6.6875 
Q 32.90625 6.6875 35.34375 9.328125 
Q 37.796875 11.96875 37.796875 16.3125 
z
" id="DejaVuSerif-Bold-97"/>
     <path d="M 10.59375 25.78125 
L 73.1875 25.78125 
L 73.1875 14.703125 
L 10.59375 14.703125 
z
M 10.59375 48 
L 73.1875 48 
L 73.1875 36.921875 
L 10.59375 36.921875 
z
" id="DejaVuSerif-Bold-61"/>
     <path d="M 8.109375 7.90625 
Q 8.109375 11.71875 10.84375 14.453125 
Q 13.578125 17.1875 17.390625 17.1875 
Q 21.234375 17.1875 23.96875 14.453125 
Q 26.703125 11.71875 26.703125 7.90625 
Q 26.703125 4.046875 23.96875 1.3125 
Q 21.234375 -1.421875 17.390625 -1.421875 
Q 13.578125 -1.421875 10.84375 1.3125 
Q 8.109375 4.046875 8.109375 7.90625 
z
" id="DejaVuSerif-Bold-46"/>
     <path d="M 27 28.515625 
L 27 23.390625 
Q 27 14.3125 29.3125 10.25 
Q 31.640625 6.203125 36.8125 6.203125 
Q 42.140625 6.203125 44.3125 10.5 
Q 46.484375 14.796875 46.484375 25.984375 
Q 46.484375 37.15625 44.3125 41.421875 
Q 42.140625 45.703125 36.8125 45.703125 
Q 31.640625 45.703125 29.3125 41.640625 
Q 27 37.59375 27 28.515625 
z
M 9.71875 46 
L 2.296875 46 
L 2.296875 51.90625 
L 27 51.90625 
L 27 45.3125 
Q 29.203125 49.359375 32.90625 51.34375 
Q 36.625 53.328125 42.09375 53.328125 
Q 53.171875 53.328125 59.546875 46.015625 
Q 65.921875 38.71875 65.921875 25.984375 
Q 65.921875 13.234375 59.546875 5.90625 
Q 53.171875 -1.421875 42.09375 -1.421875 
Q 36.625 -1.421875 32.90625 0.5625 
Q 29.203125 2.546875 27 6.59375 
L 27 -14.890625 
L 35.015625 -14.890625 
L 35.015625 -20.796875 
L 2.296875 -20.796875 
L 2.296875 -14.890625 
L 9.71875 -14.890625 
z
" id="DejaVuSerif-Bold-112"/>
     <path d="M 56.390625 16.21875 
Q 54.546875 7.328125 48.796875 2.953125 
Q 43.0625 -1.421875 33.203125 -1.421875 
Q 19.34375 -1.421875 11.71875 5.75 
Q 4.109375 12.9375 4.109375 25.984375 
Q 4.109375 38.875 11.625 46.09375 
Q 19.140625 53.328125 32.515625 53.328125 
Q 37.9375 53.328125 43.453125 52.296875 
Q 48.96875 51.265625 54.6875 49.21875 
L 54.6875 34.8125 
L 49.21875 34.8125 
Q 48.4375 41.40625 45.359375 44.59375 
Q 42.28125 47.796875 36.71875 47.796875 
Q 29.5 47.796875 26.4375 42.90625 
Q 23.390625 38.03125 23.390625 25.984375 
Q 23.390625 14.203125 26.359375 9.15625 
Q 29.34375 4.109375 36.078125 4.109375 
Q 41.3125 4.109375 44.453125 7.234375 
Q 47.609375 10.359375 48.296875 16.21875 
z
" id="DejaVuSerif-Bold-99"/>
    </defs>
    <g style="fill:#ff0000;" transform="translate(321.92 207.43848)scale(0.24 -0.24)">
     <use xlink:href="#DejaVuSerif-Bold-78"/>
     <use x="91.40625" xlink:href="#DejaVuSerif-Bold-82"/>
     <use x="174.511719" xlink:href="#DejaVuSerif-Bold-82"/>
     <use x="257.617188" xlink:href="#DejaVuSerif-Bold-44"/>
     <use x="292.431641" xlink:href="#DejaVuSerif-Bold-32"/>
     <use x="327.246094" xlink:href="#DejaVuSerif-Bold-97"/>
     <use x="392.041016" xlink:href="#DejaVuSerif-Bold-61"/>
     <use x="475.830078" xlink:href="#DejaVuSerif-Bold-48"/>
     <use x="545.410156" xlink:href="#DejaVuSerif-Bold-46"/>
     <use x="580.224609" xlink:href="#DejaVuSerif-Bold-48"/>
     <use x="649.804688" xlink:href="#DejaVuSerif-Bold-49"/>
     <use x="719.384766" xlink:href="#DejaVuSerif-Bold-32"/>
     <use x="754.199219" xlink:href="#DejaVuSerif-Bold-112"/>
     <use x="824.121094" xlink:href="#DejaVuSerif-Bold-99"/>
    </g>
   </g>
   <g id="text_16">
    <g id="patch_4">
     <path d="M 519.409685 280.261556 
L 718.035935 280.261556 
L 718.035935 248.874056 
L 519.409685 248.874056 
z
" style="fill:#ffffff;opacity:0.1;stroke:#ffffff;stroke-linejoin:miter;"/>
    </g>
    <!-- RR, a=0.01 pc -->
    <g transform="translate(523.489685 271.190306)scale(0.24 -0.24)">
     <use xlink:href="#DejaVuSerif-Bold-82"/>
     <use x="83.105469" xlink:href="#DejaVuSerif-Bold-82"/>
     <use x="166.210938" xlink:href="#DejaVuSerif-Bold-44"/>
     <use x="201.025391" xlink:href="#DejaVuSerif-Bold-32"/>
     <use x="235.839844" xlink:href="#DejaVuSerif-Bold-97"/>
     <use x="300.634766" xlink:href="#DejaVuSerif-Bold-61"/>
     <use x="384.423828" xlink:href="#DejaVuSerif-Bold-48"/>
     <use x="454.003906" xlink:href="#DejaVuSerif-Bold-46"/>
     <use x="488.818359" xlink:href="#DejaVuSerif-Bold-48"/>
     <use x="558.398438" xlink:href="#DejaVuSerif-Bold-49"/>
     <use x="627.978516" xlink:href="#DejaVuSerif-Bold-32"/>
     <use x="662.792969" xlink:href="#DejaVuSerif-Bold-112"/>
     <use x="732.714844" xlink:href="#DejaVuSerif-Bold-99"/>
    </g>
   </g>
   <g id="patch_5">
    <path d="M 98.72 530.39625 
L 98.72 31.43625 
" style="fill:none;stroke:#333333;stroke-linecap:square;stroke-linejoin:miter;stroke-width:0.8;"/>
   </g>
   <g id="patch_6">
    <path d="M 991.52 530.39625 
L 991.52 31.43625 
" style="fill:none;stroke:#333333;stroke-linecap:square;stroke-linejoin:miter;stroke-width:0.8;"/>
   </g>
   <g id="patch_7">
    <path d="M 98.72 530.39625 
L 991.52 530.39625 
" style="fill:none;stroke:#333333;stroke-linecap:square;stroke-linejoin:miter;stroke-width:0.8;"/>
   </g>
   <g id="patch_8">
    <path d="M 98.72 31.43625 
L 991.52 31.43625 
" style="fill:none;stroke:#333333;stroke-linecap:square;stroke-linejoin:miter;stroke-width:0.8;"/>
   </g>
   <g id="patch_9">
    <path d="M 547.815318 105.441285 
Q 585.602772 119.505294 623.390226 133.569303 
L 624.785471 129.820531 
Q 629.36284 134.725218 633.94021 139.629904 
Q 627.269973 140.348375 620.599736 141.066847 
L 621.994981 137.318075 
Q 584.207527 123.254066 546.420073 109.190057 
L 547.815318 105.441285 
z
"/>
   </g>
   <g id="text_17">
    <!-- Sch. Barrier -->
    <defs>
     <path d="M 7.71875 3.515625 
L 7.71875 20.796875 
L 13.921875 20.796875 
Q 15.328125 12.59375 20.59375 8.546875 
Q 25.875 4.5 35.203125 4.5 
Q 42.78125 4.5 46.734375 7.375 
Q 50.6875 10.25 50.6875 15.828125 
Q 50.6875 20.21875 48 22.65625 
Q 45.3125 25.09375 36.921875 27.203125 
L 25.984375 29.890625 
Q 15.28125 32.625 10.9375 37.46875 
Q 6.59375 42.328125 6.59375 51.3125 
Q 6.59375 62.15625 13.796875 68.1875 
Q 21 74.21875 33.984375 74.21875 
Q 40.375 74.21875 47.28125 73.140625 
Q 54.203125 72.078125 61.625 69.921875 
L 61.625 53.8125 
L 55.421875 53.8125 
Q 54 61.328125 49.21875 64.8125 
Q 44.4375 68.3125 35.59375 68.3125 
Q 28.375 68.3125 24.6875 65.796875 
Q 21 63.28125 21 58.296875 
Q 21 53.765625 23.53125 51.390625 
Q 26.078125 49.03125 35.984375 46.484375 
L 46.921875 43.796875 
Q 57.078125 41.265625 61.640625 35.890625 
Q 66.21875 30.515625 66.21875 21.09375 
Q 66.21875 10.0625 58.59375 4.3125 
Q 50.984375 -1.421875 36.1875 -1.421875 
Q 29.046875 -1.421875 22.015625 -0.1875 
Q 14.984375 1.03125 7.71875 3.515625 
z
" id="DejaVuSerif-Bold-83"/>
     <path d="M 3.421875 0 
L 3.421875 5.90625 
L 10.796875 5.90625 
L 10.796875 70.125 
L 3.078125 70.125 
L 3.078125 75.984375 
L 28.078125 75.984375 
L 28.078125 44.578125 
Q 31.203125 49.21875 35.203125 51.265625 
Q 39.203125 53.328125 45.3125 53.328125 
Q 54.046875 53.328125 58.515625 48.171875 
Q 62.984375 43.015625 62.984375 33.015625 
L 62.984375 5.90625 
L 70.40625 5.90625 
L 70.40625 0 
L 39.40625 0 
L 39.40625 5.90625 
L 45.703125 5.90625 
L 45.703125 33.5 
Q 45.703125 40.09375 44.015625 42.65625 
Q 42.328125 45.21875 38.1875 45.21875 
Q 32.953125 45.21875 30.515625 41.375 
Q 28.078125 37.546875 28.078125 29.203125 
L 28.078125 5.90625 
L 34.421875 5.90625 
L 34.421875 0 
z
" id="DejaVuSerif-Bold-104"/>
     <path d="M 4.6875 0 
L 4.6875 5.90625 
L 14.015625 5.90625 
L 14.015625 67 
L 4.6875 67 
L 4.6875 72.90625 
L 47.90625 72.90625 
Q 61.234375 72.90625 67.921875 68.40625 
Q 74.609375 63.921875 74.609375 54.890625 
Q 74.609375 48.390625 69.984375 44.578125 
Q 65.375 40.765625 56.296875 39.796875 
Q 67.28125 38.765625 73.140625 33.9375 
Q 79 29.109375 79 21.09375 
Q 79 10.25 70.8125 5.125 
Q 62.640625 0 45.21875 0 
z
M 32.8125 42.484375 
L 39.203125 42.484375 
Q 47.609375 42.484375 51.65625 45.53125 
Q 55.71875 48.578125 55.71875 54.890625 
Q 55.71875 61.234375 51.78125 64.109375 
Q 47.859375 67 39.203125 67 
L 32.8125 67 
z
M 32.8125 5.90625 
L 39.796875 5.90625 
Q 49.125 5.90625 53.609375 9.609375 
Q 58.109375 13.328125 58.109375 21.09375 
Q 58.109375 28.90625 53.5625 32.765625 
Q 49.03125 36.625 39.796875 36.625 
L 32.8125 36.625 
z
" id="DejaVuSerif-Bold-66"/>
     <path d="M 9.1875 66.609375 
Q 9.1875 70.5625 11.921875 73.265625 
Q 14.65625 75.984375 18.609375 75.984375 
Q 22.46875 75.984375 25.171875 73.265625 
Q 27.875 70.5625 27.875 66.609375 
Q 27.875 62.75 25.171875 60.03125 
Q 22.46875 57.328125 18.609375 57.328125 
Q 14.65625 57.328125 11.921875 60.015625 
Q 9.1875 62.703125 9.1875 66.609375 
z
M 28.078125 5.90625 
L 35.5 5.90625 
L 35.5 0 
L 3.421875 0 
L 3.421875 5.90625 
L 10.796875 5.90625 
L 10.796875 46 
L 3.421875 46 
L 3.421875 51.90625 
L 28.078125 51.90625 
z
" id="DejaVuSerif-Bold-105"/>
    </defs>
    <g transform="translate(380.85875 74.706154)scale(0.24 -0.24)">
     <use xlink:href="#DejaVuSerif-Bold-83"/>
     <use x="72.216797" xlink:href="#DejaVuSerif-Bold-99"/>
     <use x="133.105469" xlink:href="#DejaVuSerif-Bold-104"/>
     <use x="205.810547" xlink:href="#DejaVuSerif-Bold-46"/>
     <use x="240.625" xlink:href="#DejaVuSerif-Bold-32"/>
     <use x="275.439453" xlink:href="#DejaVuSerif-Bold-66"/>
     <use x="359.960938" xlink:href="#DejaVuSerif-Bold-97"/>
     <use x="424.755859" xlink:href="#DejaVuSerif-Bold-114"/>
     <use x="477.441406" xlink:href="#DejaVuSerif-Bold-114"/>
     <use x="530.126953" xlink:href="#DejaVuSerif-Bold-105"/>
     <use x="568.115234" xlink:href="#DejaVuSerif-Bold-101"/>
     <use x="631.738281" xlink:href="#DejaVuSerif-Bold-114"/>
    </g>
    <!-- (Merritt+2011) -->
    <defs>
     <path d="M 42.09375 -15.578125 
Q 25.640625 -9.46875 17.53125 1.90625 
Q 9.421875 13.28125 9.421875 30.171875 
Q 9.421875 47.078125 17.421875 58.296875 
Q 25.4375 69.53125 42.09375 75.984375 
L 42.09375 70.125 
Q 34.375 65.4375 30.984375 56.21875 
Q 27.59375 47.015625 27.59375 30.171875 
Q 27.59375 13.375 30.984375 4.171875 
Q 34.375 -5.03125 42.09375 -9.71875 
z
" id="DejaVuSerif-Bold-40"/>
     <path d="M 9.90625 46 
L 2.390625 46 
L 2.390625 51.90625 
L 9.90625 51.90625 
L 9.90625 68.015625 
L 27.203125 68.015625 
L 27.203125 51.90625 
L 41.609375 51.90625 
L 41.609375 46 
L 27.203125 46 
L 27.203125 14.203125 
Q 27.203125 7.421875 28.265625 5.765625 
Q 29.34375 4.109375 32.171875 4.109375 
Q 35.296875 4.109375 36.8125 6.203125 
Q 38.328125 8.296875 38.421875 12.703125 
L 45.703125 12.703125 
Q 45.265625 4.890625 41.421875 1.734375 
Q 37.59375 -1.421875 28.21875 -1.421875 
Q 17.53125 -1.421875 13.71875 1.921875 
Q 9.90625 5.28125 9.90625 14.203125 
z
" id="DejaVuSerif-Bold-116"/>
     <path d="M 47.515625 62.703125 
L 47.515625 37.015625 
L 73.1875 37.015625 
L 73.1875 25.78125 
L 47.515625 25.78125 
L 47.515625 0.09375 
L 36.28125 0.09375 
L 36.28125 25.78125 
L 10.59375 25.78125 
L 10.59375 37.015625 
L 36.28125 37.015625 
L 36.28125 62.703125 
z
" id="DejaVuSerif-Bold-43"/>
     <path d="M 5.078125 -15.578125 
L 5.078125 -9.71875 
Q 12.796875 -5.03125 16.1875 4.171875 
Q 19.578125 13.375 19.578125 30.171875 
Q 19.578125 47.015625 16.1875 56.21875 
Q 12.796875 65.4375 5.078125 70.125 
L 5.078125 75.984375 
Q 21.734375 69.53125 29.765625 58.296875 
Q 37.796875 47.078125 37.796875 30.171875 
Q 37.796875 13.28125 29.65625 1.90625 
Q 21.53125 -9.46875 5.078125 -15.578125 
z
" id="DejaVuSerif-Bold-41"/>
    </defs>
    <g transform="translate(337.0925 101.580904)scale(0.24 -0.24)">
     <use xlink:href="#DejaVuSerif-Bold-40"/>
     <use x="47.314453" xlink:href="#DejaVuSerif-Bold-77"/>
     <use x="158.007812" xlink:href="#DejaVuSerif-Bold-101"/>
     <use x="221.630859" xlink:href="#DejaVuSerif-Bold-114"/>
     <use x="274.316406" xlink:href="#DejaVuSerif-Bold-114"/>
     <use x="327.001953" xlink:href="#DejaVuSerif-Bold-105"/>
     <use x="364.990234" xlink:href="#DejaVuSerif-Bold-116"/>
     <use x="411.181641" xlink:href="#DejaVuSerif-Bold-116"/>
     <use x="457.373047" xlink:href="#DejaVuSerif-Bold-43"/>
     <use x="541.162109" xlink:href="#DejaVuSerif-Bold-50"/>
     <use x="610.742188" xlink:href="#DejaVuSerif-Bold-48"/>
     <use x="680.322266" xlink:href="#DejaVuSerif-Bold-49"/>
     <use x="749.902344" xlink:href="#DejaVuSerif-Bold-49"/>
     <use x="819.482422" xlink:href="#DejaVuSerif-Bold-41"/>
    </g>
   </g>
   <g id="text_18">
    <!-- $e=$0.97 -->
    <defs>
     <path d="M 34.078125 68.5 
Q 29.046875 68.5 26.921875 64.234375 
Q 24.8125 59.96875 24.8125 49.421875 
Q 24.8125 38.875 26.921875 34.59375 
Q 29.046875 30.328125 34.078125 30.328125 
Q 39.109375 30.328125 41.25 34.59375 
Q 43.40625 38.875 43.40625 49.421875 
Q 43.40625 59.96875 41.25 64.234375 
Q 39.109375 68.5 34.078125 68.5 
z
M 44.96875 29.6875 
Q 41.75 27.09375 37.8125 25.796875 
Q 33.890625 24.515625 29.296875 24.515625 
Q 18.171875 24.515625 11.796875 31.03125 
Q 5.421875 37.546875 5.421875 49.03125 
Q 5.421875 61.140625 12.546875 67.671875 
Q 19.671875 74.21875 32.90625 74.21875 
Q 47.859375 74.21875 55.5625 65.1875 
Q 63.28125 56.15625 63.28125 38.71875 
Q 63.28125 18.84375 54.734375 8.703125 
Q 46.1875 -1.421875 29.390625 -1.421875 
Q 25 -1.421875 19.96875 -0.6875 
Q 14.9375 0.046875 9.1875 1.515625 
L 9.1875 14.40625 
L 15.09375 14.40625 
Q 16.3125 9.421875 19.703125 6.859375 
Q 23.09375 4.296875 28.515625 4.296875 
Q 37.109375 4.296875 41.015625 10.28125 
Q 44.921875 16.265625 44.96875 29.6875 
z
" id="DejaVuSerif-Bold-57"/>
     <path d="M 61.28125 60.5 
L 31.203125 0 
L 21.296875 0 
L 50.59375 59.078125 
L 14.59375 59.078125 
L 14.59375 49.21875 
L 7.90625 49.21875 
L 7.90625 72.90625 
L 61.28125 72.90625 
z
" id="DejaVuSerif-Bold-55"/>
    </defs>
    <g style="fill:#0000ff;" transform="translate(643.225247 74.918846)scale(0.24 -0.24)">
     <use transform="translate(0 0.78125)" xlink:href="#DejaVuSerif-Bold-101"/>
     <use transform="translate(84.785156 0.78125)" xlink:href="#DejaVuSerif-Bold-61"/>
     <use transform="translate(189.736328 0.78125)" xlink:href="#DejaVuSerif-Bold-48"/>
     <use transform="translate(259.316406 0.78125)" xlink:href="#DejaVuSerif-Bold-46"/>
     <use transform="translate(294.130859 0.78125)" xlink:href="#DejaVuSerif-Bold-57"/>
     <use transform="translate(363.710938 0.78125)" xlink:href="#DejaVuSerif-Bold-55"/>
    </g>
   </g>
   <g id="text_19">
    <!-- Bar-Or&amp;Fouvry 2018 formalism -->
    <defs>
     <path d="M 24.703125 5.171875 
L 39.3125 5.171875 
Q 48.09375 5.171875 52.140625 8.984375 
Q 56.203125 12.796875 56.203125 21.09375 
Q 56.203125 29.34375 52.171875 33.125 
Q 48.140625 36.921875 39.3125 36.921875 
L 24.703125 36.921875 
z
M 24.703125 42.09375 
L 37.109375 42.09375 
Q 45.125 42.09375 48.796875 45.171875 
Q 52.484375 48.25 52.484375 54.890625 
Q 52.484375 61.578125 48.796875 64.625 
Q 45.125 67.671875 37.109375 67.671875 
L 24.703125 67.671875 
z
M 5.515625 0 
L 5.515625 5.171875 
L 14.796875 5.171875 
L 14.796875 67.671875 
L 5.515625 67.671875 
L 5.515625 72.90625 
L 41.5 72.90625 
Q 52.546875 72.90625 58.125 68.390625 
Q 63.71875 63.875 63.71875 54.890625 
Q 63.71875 48.390625 59.828125 44.53125 
Q 55.953125 40.671875 48.484375 39.796875 
Q 57.765625 38.625 62.578125 33.859375 
Q 67.390625 29.109375 67.390625 21.09375 
Q 67.390625 10.25 60.546875 5.125 
Q 53.71875 0 39.203125 0 
z
" id="DejaVuSerif-66"/>
     <path d="M 39.796875 16.3125 
L 39.796875 27.296875 
L 28.21875 27.296875 
Q 21.53125 27.296875 18.25 24.40625 
Q 14.984375 21.53125 14.984375 15.578125 
Q 14.984375 10.15625 18.296875 6.984375 
Q 21.625 3.8125 27.296875 3.8125 
Q 32.90625 3.8125 36.34375 7.28125 
Q 39.796875 10.75 39.796875 16.3125 
z
M 48.78125 32.421875 
L 48.78125 5.171875 
L 56.78125 5.171875 
L 56.78125 0 
L 39.796875 0 
L 39.796875 5.609375 
Q 36.8125 2 32.90625 0.28125 
Q 29 -1.421875 23.78125 -1.421875 
Q 15.140625 -1.421875 10.0625 3.171875 
Q 4.984375 7.765625 4.984375 15.578125 
Q 4.984375 23.640625 10.796875 28.078125 
Q 16.609375 32.515625 27.203125 32.515625 
L 39.796875 32.515625 
L 39.796875 36.078125 
Q 39.796875 42 36.203125 45.234375 
Q 32.625 48.484375 26.125 48.484375 
Q 20.75 48.484375 17.578125 46.046875 
Q 14.40625 43.609375 13.625 38.8125 
L 8.984375 38.8125 
L 8.984375 49.3125 
Q 13.671875 51.3125 18.09375 52.3125 
Q 22.515625 53.328125 26.703125 53.328125 
Q 37.5 53.328125 43.140625 47.96875 
Q 48.78125 42.625 48.78125 32.421875 
z
" id="DejaVuSerif-97"/>
     <path d="M 47.796875 52 
L 47.796875 39.015625 
L 42.625 39.015625 
Q 42.390625 42.875 40.484375 44.78125 
Q 38.578125 46.6875 34.90625 46.6875 
Q 28.265625 46.6875 24.71875 42.09375 
Q 21.1875 37.5 21.1875 28.90625 
L 21.1875 5.171875 
L 31.59375 5.171875 
L 31.59375 0 
L 4.109375 0 
L 4.109375 5.171875 
L 12.203125 5.171875 
L 12.203125 46.78125 
L 3.609375 46.78125 
L 3.609375 51.90625 
L 21.1875 51.90625 
L 21.1875 42.671875 
Q 23.828125 48.09375 27.96875 50.703125 
Q 32.125 53.328125 38.09375 53.328125 
Q 40.28125 53.328125 42.703125 52.984375 
Q 45.125 52.640625 47.796875 52 
z
" id="DejaVuSerif-114"/>
     <path d="M 4.390625 30.609375 
L 29.390625 30.609375 
L 29.390625 23 
L 4.390625 23 
z
" id="DejaVuSerif-45"/>
     <path d="M 41.015625 3.8125 
Q 52.984375 3.8125 59.078125 12.03125 
Q 65.1875 20.265625 65.1875 36.375 
Q 65.1875 52.546875 59.078125 60.765625 
Q 52.984375 69 41.015625 69 
Q 29 69 22.890625 60.765625 
Q 16.796875 52.546875 16.796875 36.375 
Q 16.796875 20.265625 22.890625 12.03125 
Q 29 3.8125 41.015625 3.8125 
z
M 41.015625 -1.421875 
Q 33.59375 -1.421875 27.359375 1.015625 
Q 21.140625 3.46875 16.40625 8.203125 
Q 10.9375 13.671875 8.265625 20.609375 
Q 5.609375 27.546875 5.609375 36.375 
Q 5.609375 45.21875 8.265625 52.171875 
Q 10.9375 59.125 16.40625 64.59375 
Q 21.1875 69.390625 27.34375 71.796875 
Q 33.5 74.21875 41.015625 74.21875 
Q 56.890625 74.21875 66.65625 63.8125 
Q 76.421875 53.421875 76.421875 36.375 
Q 76.421875 27.640625 73.734375 20.625 
Q 71.046875 13.625 65.578125 8.203125 
Q 60.796875 3.421875 54.640625 1 
Q 48.484375 -1.421875 41.015625 -1.421875 
z
" id="DejaVuSerif-79"/>
     <path d="M 54 11.28125 
L 25.59375 41.21875 
Q 21.34375 37.40625 19.21875 32.984375 
Q 17.09375 28.5625 17.09375 23.578125 
Q 17.09375 15.484375 22.703125 9.984375 
Q 28.328125 4.5 36.71875 4.5 
Q 41.703125 4.5 46.109375 6.21875 
Q 50.53125 7.953125 54 11.28125 
z
M 84.28125 0 
L 64.703125 0 
L 58.015625 7.078125 
Q 52.875 2.78125 47.0625 0.671875 
Q 41.265625 -1.421875 34.515625 -1.421875 
Q 21.921875 -1.421875 14.546875 5.015625 
Q 7.171875 11.46875 7.171875 22.515625 
Q 7.171875 29 10.90625 34.640625 
Q 14.65625 40.28125 22.21875 45.21875 
Q 19.734375 48.1875 18.5625 51.140625 
Q 17.390625 54.109375 17.390625 57.328125 
Q 17.390625 65.09375 22.96875 69.65625 
Q 28.5625 74.21875 38.1875 74.21875 
Q 41.453125 74.21875 45.828125 73.390625 
Q 50.203125 72.5625 55.8125 70.90625 
L 55.8125 58.296875 
L 50.296875 58.296875 
Q 49.609375 63.53125 46.484375 66.265625 
Q 43.359375 69 37.984375 69 
Q 32.953125 69 29.828125 66.234375 
Q 26.703125 63.484375 26.703125 59.078125 
Q 26.703125 56.109375 28.359375 53.15625 
Q 30.03125 50.203125 35.296875 44.671875 
L 60.5 18.109375 
Q 63.875 22.015625 65.796875 26.53125 
Q 67.71875 31.0625 68.21875 36.1875 
L 59.421875 36.1875 
L 59.421875 41.40625 
L 82.515625 41.40625 
L 82.515625 36.1875 
L 74.125 36.1875 
Q 73.296875 29.828125 70.875 24.3125 
Q 68.453125 18.796875 64.40625 14.109375 
L 72.796875 5.171875 
L 84.28125 5.171875 
z
" id="DejaVuSerif-38"/>
     <path d="M 5.515625 0 
L 5.515625 5.171875 
L 14.796875 5.171875 
L 14.796875 67.671875 
L 5.515625 67.671875 
L 5.515625 72.90625 
L 65.1875 72.90625 
L 65.1875 56.6875 
L 59.1875 56.6875 
L 59.1875 66.890625 
L 24.703125 66.890625 
L 24.703125 42.484375 
L 49.609375 42.484375 
L 49.609375 51.609375 
L 55.609375 51.609375 
L 55.609375 27.390625 
L 49.609375 27.390625 
L 49.609375 36.53125 
L 24.703125 36.53125 
L 24.703125 5.171875 
L 36.375 5.171875 
L 36.375 0 
z
" id="DejaVuSerif-70"/>
     <path d="M 30.078125 3.421875 
Q 37.3125 3.421875 40.984375 9.125 
Q 44.671875 14.84375 44.671875 25.984375 
Q 44.671875 37.109375 40.984375 42.796875 
Q 37.3125 48.484375 30.078125 48.484375 
Q 22.859375 48.484375 19.171875 42.796875 
Q 15.484375 37.109375 15.484375 25.984375 
Q 15.484375 14.84375 19.1875 9.125 
Q 22.90625 3.421875 30.078125 3.421875 
z
M 30.078125 -1.421875 
Q 18.75 -1.421875 11.859375 6.078125 
Q 4.984375 13.578125 4.984375 25.984375 
Q 4.984375 38.375 11.84375 45.84375 
Q 18.703125 53.328125 30.078125 53.328125 
Q 41.453125 53.328125 48.3125 45.84375 
Q 55.171875 38.375 55.171875 25.984375 
Q 55.171875 13.578125 48.3125 6.078125 
Q 41.453125 -1.421875 30.078125 -1.421875 
z
" id="DejaVuSerif-111"/>
     <path d="M 35.40625 51.90625 
L 52.203125 51.90625 
L 52.203125 5.171875 
L 60.6875 5.171875 
L 60.6875 0 
L 43.21875 0 
L 43.21875 9.1875 
Q 40.71875 4 36.765625 1.28125 
Q 32.8125 -1.421875 27.59375 -1.421875 
Q 18.953125 -1.421875 14.875 3.484375 
Q 10.796875 8.40625 10.796875 18.890625 
L 10.796875 46.6875 
L 2.6875 46.6875 
L 2.6875 51.90625 
L 19.828125 51.90625 
L 19.828125 21.6875 
Q 19.828125 12.203125 22.140625 8.6875 
Q 24.46875 5.171875 30.421875 5.171875 
Q 36.671875 5.171875 39.9375 9.765625 
Q 43.21875 14.359375 43.21875 23.09375 
L 43.21875 46.6875 
L 35.40625 46.6875 
z
" id="DejaVuSerif-117"/>
     <path d="M 24.703125 0 
L 5.609375 46.6875 
L -0.296875 46.6875 
L -0.296875 51.90625 
L 23.578125 51.90625 
L 23.578125 46.6875 
L 15.28125 46.6875 
L 29.890625 10.984375 
L 44.484375 46.6875 
L 36.71875 46.6875 
L 36.71875 51.90625 
L 56.203125 51.90625 
L 56.203125 46.6875 
L 50.390625 46.6875 
L 31.296875 0 
z
" id="DejaVuSerif-118"/>
     <path d="M 21.578125 -9.515625 
L 25 -0.875 
L 5.609375 46.6875 
L -0.296875 46.6875 
L -0.296875 51.90625 
L 23.578125 51.90625 
L 23.578125 46.6875 
L 15.28125 46.6875 
L 29.890625 10.984375 
L 44.484375 46.6875 
L 36.71875 46.6875 
L 36.71875 51.90625 
L 56.203125 51.90625 
L 56.203125 46.6875 
L 50.390625 46.6875 
L 26.609375 -11.71875 
Q 24.171875 -17.78125 21.1875 -20 
Q 18.21875 -22.21875 12.796875 -22.21875 
Q 10.5 -22.21875 8.078125 -21.828125 
Q 5.671875 -21.4375 3.21875 -20.703125 
L 3.21875 -10.796875 
L 7.8125 -10.796875 
Q 8.109375 -14.109375 9.5 -15.546875 
Q 10.890625 -17 13.8125 -17 
Q 16.5 -17 18.140625 -15.5 
Q 19.78125 -14.015625 21.578125 -9.515625 
z
" id="DejaVuSerif-121"/>
     <path id="DejaVuSerif-32"/>
     <path d="M 12.796875 55.515625 
L 7.328125 55.515625 
L 7.328125 68.5 
Q 12.546875 71.296875 17.84375 72.75 
Q 23.140625 74.21875 28.21875 74.21875 
Q 39.59375 74.21875 46.1875 68.703125 
Q 52.78125 63.1875 52.78125 53.71875 
Q 52.78125 43.015625 37.84375 28.125 
Q 36.671875 27 36.078125 26.421875 
L 17.671875 8.015625 
L 48.09375 8.015625 
L 48.09375 17 
L 53.8125 17 
L 53.8125 0 
L 6.78125 0 
L 6.78125 5.328125 
L 28.90625 27.390625 
Q 36.234375 34.71875 39.359375 40.84375 
Q 42.484375 46.96875 42.484375 53.71875 
Q 42.484375 61.078125 38.640625 65.234375 
Q 34.8125 69.390625 28.078125 69.390625 
Q 21.09375 69.390625 17.28125 65.921875 
Q 13.484375 62.453125 12.796875 55.515625 
z
" id="DejaVuSerif-50"/>
     <path d="M 31.78125 3.421875 
Q 39.265625 3.421875 42.96875 11.625 
Q 46.6875 19.828125 46.6875 36.375 
Q 46.6875 52.984375 42.96875 61.1875 
Q 39.265625 69.390625 31.78125 69.390625 
Q 24.3125 69.390625 20.59375 61.1875 
Q 16.890625 52.984375 16.890625 36.375 
Q 16.890625 19.828125 20.59375 11.625 
Q 24.3125 3.421875 31.78125 3.421875 
z
M 31.78125 -1.421875 
Q 19.921875 -1.421875 13.25 8.53125 
Q 6.59375 18.5 6.59375 36.375 
Q 6.59375 54.296875 13.25 64.25 
Q 19.921875 74.21875 31.78125 74.21875 
Q 43.703125 74.21875 50.34375 64.25 
Q 56.984375 54.296875 56.984375 36.375 
Q 56.984375 18.5 50.34375 8.53125 
Q 43.703125 -1.421875 31.78125 -1.421875 
z
" id="DejaVuSerif-48"/>
     <path d="M 14.203125 0 
L 14.203125 5.171875 
L 26.90625 5.171875 
L 26.90625 65.828125 
L 12.203125 56.296875 
L 12.203125 62.703125 
L 29.984375 74.21875 
L 36.71875 74.21875 
L 36.71875 5.171875 
L 49.421875 5.171875 
L 49.421875 0 
z
" id="DejaVuSerif-49"/>
     <path d="M 46.578125 19.921875 
Q 46.578125 27.734375 42.6875 32.046875 
Q 38.8125 36.375 31.78125 36.375 
Q 24.75 36.375 20.875 32.046875 
Q 17 27.734375 17 19.921875 
Q 17 12.0625 20.875 7.734375 
Q 24.75 3.421875 31.78125 3.421875 
Q 38.8125 3.421875 42.6875 7.734375 
Q 46.578125 12.0625 46.578125 19.921875 
z
M 44.578125 55.328125 
Q 44.578125 61.96875 41.203125 65.671875 
Q 37.84375 69.390625 31.78125 69.390625 
Q 25.78125 69.390625 22.390625 65.671875 
Q 19 61.96875 19 55.328125 
Q 19 48.640625 22.390625 44.921875 
Q 25.78125 41.21875 31.78125 41.21875 
Q 37.84375 41.21875 41.203125 44.921875 
Q 44.578125 48.640625 44.578125 55.328125 
z
M 39.3125 38.8125 
Q 47.609375 37.703125 52.25 32.6875 
Q 56.890625 27.6875 56.890625 19.921875 
Q 56.890625 9.671875 50.390625 4.125 
Q 43.890625 -1.421875 31.78125 -1.421875 
Q 19.734375 -1.421875 13.203125 4.125 
Q 6.6875 9.671875 6.6875 19.921875 
Q 6.6875 27.6875 11.328125 32.6875 
Q 15.96875 37.703125 24.3125 38.8125 
Q 16.9375 40.140625 13 44.40625 
Q 9.078125 48.6875 9.078125 55.328125 
Q 9.078125 64.109375 15.125 69.15625 
Q 21.1875 74.21875 31.78125 74.21875 
Q 42.390625 74.21875 48.4375 69.15625 
Q 54.5 64.109375 54.5 55.328125 
Q 54.5 48.6875 50.5625 44.40625 
Q 46.625 40.140625 39.3125 38.8125 
z
" id="DejaVuSerif-56"/>
     <path d="M 43.015625 63.71875 
L 38.28125 63.71875 
Q 38.234375 67.390625 36.203125 69.28125 
Q 34.1875 71.1875 30.328125 71.1875 
Q 25.296875 71.1875 23.234375 68.421875 
Q 21.1875 65.671875 21.1875 58.59375 
L 21.1875 51.90625 
L 35.6875 51.90625 
L 35.6875 46.6875 
L 21.1875 46.6875 
L 21.1875 5.171875 
L 32.71875 5.171875 
L 32.71875 0 
L 3.609375 0 
L 3.609375 5.171875 
L 12.203125 5.171875 
L 12.203125 46.6875 
L 3.609375 46.6875 
L 3.609375 51.90625 
L 12.203125 51.90625 
L 12.203125 58.40625 
Q 12.203125 67.09375 16.71875 71.53125 
Q 21.234375 75.984375 29.984375 75.984375 
Q 33.25 75.984375 36.515625 75.390625 
Q 39.796875 74.8125 43.015625 73.578125 
z
" id="DejaVuSerif-102"/>
     <path d="M 51.8125 41.796875 
Q 54.390625 47.515625 58.421875 50.421875 
Q 62.453125 53.328125 67.828125 53.328125 
Q 75.984375 53.328125 79.984375 48.265625 
Q 83.984375 43.21875 83.984375 33.015625 
L 83.984375 5.171875 
L 92.09375 5.171875 
L 92.09375 0 
L 67.1875 0 
L 67.1875 5.171875 
L 75 5.171875 
L 75 31.984375 
Q 75 39.9375 72.65625 43.3125 
Q 70.3125 46.6875 64.890625 46.6875 
Q 58.890625 46.6875 55.734375 42.140625 
Q 52.59375 37.59375 52.59375 28.90625 
L 52.59375 5.171875 
L 60.40625 5.171875 
L 60.40625 0 
L 35.796875 0 
L 35.796875 5.171875 
L 43.609375 5.171875 
L 43.609375 32.328125 
Q 43.609375 40.09375 41.265625 43.390625 
Q 38.921875 46.6875 33.5 46.6875 
Q 27.484375 46.6875 24.328125 42.140625 
Q 21.1875 37.59375 21.1875 28.90625 
L 21.1875 5.171875 
L 29 5.171875 
L 29 0 
L 4.109375 0 
L 4.109375 5.171875 
L 12.203125 5.171875 
L 12.203125 46.78125 
L 3.609375 46.78125 
L 3.609375 51.90625 
L 21.1875 51.90625 
L 21.1875 42.671875 
Q 23.6875 47.859375 27.53125 50.59375 
Q 31.390625 53.328125 36.28125 53.328125 
Q 42.328125 53.328125 46.375 50.3125 
Q 50.4375 47.3125 51.8125 41.796875 
z
" id="DejaVuSerif-109"/>
     <path d="M 20.515625 5.171875 
L 29 5.171875 
L 29 0 
L 2.875 0 
L 2.875 5.171875 
L 11.53125 5.171875 
L 11.53125 70.796875 
L 2.875 70.796875 
L 2.875 75.984375 
L 20.515625 75.984375 
z
" id="DejaVuSerif-108"/>
     <path d="M 9.71875 68.015625 
Q 9.71875 70.265625 11.34375 71.921875 
Q 12.984375 73.578125 15.28125 73.578125 
Q 17.53125 73.578125 19.15625 71.921875 
Q 20.796875 70.265625 20.796875 68.015625 
Q 20.796875 65.71875 19.1875 64.109375 
Q 17.578125 62.5 15.28125 62.5 
Q 12.984375 62.5 11.34375 64.109375 
Q 9.71875 65.71875 9.71875 68.015625 
z
M 21.1875 5.171875 
L 29.6875 5.171875 
L 29.6875 0 
L 3.609375 0 
L 3.609375 5.171875 
L 12.203125 5.171875 
L 12.203125 46.6875 
L 3.609375 46.6875 
L 3.609375 51.90625 
L 21.1875 51.90625 
z
" id="DejaVuSerif-105"/>
     <path d="M 5.609375 2.875 
L 5.609375 14.984375 
L 10.796875 14.984375 
Q 10.984375 9.1875 14.421875 6.296875 
Q 17.875 3.421875 24.609375 3.421875 
Q 30.671875 3.421875 33.84375 5.6875 
Q 37.015625 7.953125 37.015625 12.3125 
Q 37.015625 15.71875 34.6875 17.8125 
Q 32.375 19.921875 24.90625 22.3125 
L 18.40625 24.515625 
Q 11.71875 26.65625 8.71875 29.875 
Q 5.71875 33.109375 5.71875 38.09375 
Q 5.71875 45.21875 10.9375 49.265625 
Q 16.15625 53.328125 25.390625 53.328125 
Q 29.5 53.328125 34.03125 52.25 
Q 38.578125 51.171875 43.40625 49.125 
L 43.40625 37.796875 
L 38.234375 37.796875 
Q 38.03125 42.828125 34.703125 45.65625 
Q 31.390625 48.484375 25.6875 48.484375 
Q 20.015625 48.484375 17.109375 46.484375 
Q 14.203125 44.484375 14.203125 40.484375 
Q 14.203125 37.203125 16.40625 35.21875 
Q 18.609375 33.25 25.203125 31.203125 
L 32.328125 29 
Q 39.703125 26.703125 42.9375 23.265625 
Q 46.1875 19.828125 46.1875 14.40625 
Q 46.1875 7.03125 40.546875 2.796875 
Q 34.90625 -1.421875 25 -1.421875 
Q 19.96875 -1.421875 15.1875 -0.34375 
Q 10.40625 0.734375 5.609375 2.875 
z
" id="DejaVuSerif-115"/>
    </defs>
    <g transform="translate(351.216875 25.43625)scale(0.24 -0.24)">
     <use xlink:href="#DejaVuSerif-66"/>
     <use x="73.486328" xlink:href="#DejaVuSerif-97"/>
     <use x="133.105469" xlink:href="#DejaVuSerif-114"/>
     <use x="180.908203" xlink:href="#DejaVuSerif-45"/>
     <use x="214.697266" xlink:href="#DejaVuSerif-79"/>
     <use x="296.679688" xlink:href="#DejaVuSerif-114"/>
     <use x="344.482422" xlink:href="#DejaVuSerif-38"/>
     <use x="433.496094" xlink:href="#DejaVuSerif-70"/>
     <use x="502.802734" xlink:href="#DejaVuSerif-111"/>
     <use x="563.007812" xlink:href="#DejaVuSerif-117"/>
     <use x="627.412109" xlink:href="#DejaVuSerif-118"/>
     <use x="683.90625" xlink:href="#DejaVuSerif-114"/>
     <use x="731.708984" xlink:href="#DejaVuSerif-121"/>
     <use x="788.203125" xlink:href="#DejaVuSerif-32"/>
     <use x="819.990234" xlink:href="#DejaVuSerif-50"/>
     <use x="883.613281" xlink:href="#DejaVuSerif-48"/>
     <use x="947.236328" xlink:href="#DejaVuSerif-49"/>
     <use x="1010.859375" xlink:href="#DejaVuSerif-56"/>
     <use x="1074.482422" xlink:href="#DejaVuSerif-32"/>
     <use x="1106.269531" xlink:href="#DejaVuSerif-102"/>
     <use x="1143.28125" xlink:href="#DejaVuSerif-111"/>
     <use x="1203.486328" xlink:href="#DejaVuSerif-114"/>
     <use x="1251.289062" xlink:href="#DejaVuSerif-109"/>
     <use x="1346.113281" xlink:href="#DejaVuSerif-97"/>
     <use x="1405.732422" xlink:href="#DejaVuSerif-108"/>
     <use x="1437.714844" xlink:href="#DejaVuSerif-105"/>
     <use x="1469.697266" xlink:href="#DejaVuSerif-115"/>
     <use x="1521.015625" xlink:href="#DejaVuSerif-109"/>
    </g>
   </g>
  </g>
 </g>
 <defs>
  <clipPath id="p5b37b614c9">
   <rect height="498.96" width="892.8" x="98.72" y="31.43625"/>
  </clipPath>
 </defs>
</svg>
