<?xml version="1.0" encoding="utf-8" standalone="no"?>
<!DOCTYPE svg PUBLIC "-//W3C//DTD SVG 1.1//EN"
  "http://www.w3.org/Graphics/SVG/1.1/DTD/svg11.dtd">
<!-- Created with matplotlib (http://matplotlib.org/) -->
<svg height="456.231875pt" version="1.1" viewBox="0 0 641.741875 456.231875" width="641.741875pt" xmlns="http://www.w3.org/2000/svg" xmlns:xlink="http://www.w3.org/1999/xlink">
 <defs>
  <style type="text/css">
*{stroke-linecap:butt;stroke-linejoin:round;}
  </style>
 </defs>
 <g id="figure_1">
  <g id="patch_1">
   <path d="M 0 456.231875 
L 641.741875 456.231875 
L 641.741875 0 
L 0 0 
z
" style="fill:#ffffff;"/>
  </g>
  <g id="axes_1">
   <g id="patch_2">
    <path d="M 76.541875 395.28 
L 634.541875 395.28 
L 634.541875 7.2 
L 76.541875 7.2 
z
" style="fill:#ffffff;"/>
   </g>
   <g id="PolyCollection_1">
    <defs>
     <path d="M 101.905511 -295.557068 
L 101.905511 -278.577517 
L 130.892524 -281.287229 
L 159.879537 -281.287229 
L 188.86655 -279.593616 
L 217.853563 -277.222801 
L 246.840576 -271.466321 
L 275.827589 -252.855031 
L 304.814602 -193.802491 
L 333.801615 -190.774378 
L 362.788628 -207.947092 
L 391.775641 -221.436373 
L 399.022394 -225.823792 
L 406.269148 -229.199786 
L 413.515901 -234.940991 
L 420.762654 -236.967883 
L 428.009407 -240.684617 
L 435.256161 -244.064301 
L 442.502914 -249.811521 
L 449.749667 -255.89912 
L 456.99642 -259.282103 
L 464.243174 -264.357841 
L 471.489927 -271.804889 
L 478.73668 -277.222801 
L 485.983433 -281.625969 
L 493.230187 -287.385409 
L 500.47694 -290.774058 
L 507.723693 -290.774058 
L 514.970446 -285.352481 
L 522.2172 -305.01209 
L 529.463953 -306.02943 
L 536.710706 -303.655704 
L 543.957459 -299.587021 
L 551.204213 -293.146432 
L 558.450966 -282.303465 
L 565.697719 -264.357841 
L 572.944472 -237.98144 
L 580.191226 -189.428902 
L 587.437979 -78.591875 
L 594.684732 -78.591875 
L 601.931485 -78.591875 
L 609.178239 -78.591875 
L 609.178239 -78.591875 
L 609.178239 -78.591875 
L 601.931485 -78.591875 
L 594.684732 -78.591875 
L 587.437979 -78.591875 
L 580.191226 -202.160044 
L 572.944472 -253.177854 
L 565.697719 -280.735392 
L 558.450966 -299.437188 
L 551.204213 -310.720965 
L 543.957459 -317.41813 
L 536.710706 -321.646976 
L 529.463953 -324.113476 
L 522.2172 -323.056434 
L 514.970446 -302.611319 
L 507.723693 -308.253114 
L 500.47694 -308.253114 
L 493.230187 -304.727156 
L 485.983433 -298.731763 
L 478.73668 -294.145941 
L 471.489927 -288.500481 
L 464.243174 -280.735392 
L 456.99642 -275.439219 
L 449.749667 -271.907594 
L 442.502914 -265.5489 
L 435.256161 -259.541287 
L 428.009407 -256.006364 
L 420.762654 -252.117029 
L 413.515901 -249.995157 
L 406.269148 -243.981529 
L 399.022394 -240.442915 
L 391.775641 -235.841344 
L 362.788628 -221.672196 
L 333.801615 -203.580411 
L 304.814602 -206.775445 
L 275.827589 -268.728536 
L 246.840576 -288.147588 
L 217.853563 -294.145941 
L 188.86655 -296.615352 
L 159.879537 -298.379042 
L 130.892524 -298.379042 
L 101.905511 -295.557068 
z
" id="mf35d4e6567" style="stroke:#ff0000;stroke-opacity:0.3;"/>
    </defs>
    <g clip-path="url(#pdd38591bf5)">
     <use style="fill:#ff0000;fill-opacity:0.3;stroke:#ff0000;stroke-opacity:0.3;" x="0" xlink:href="#mf35d4e6567" y="456.231875"/>
    </g>
   </g>
   <g id="PolyCollection_2">
    <defs>
     <path d="M 101.905511 -299.084478 
L 101.905511 -281.964714 
L 130.892524 -286.030101 
L 159.879537 -285.352481 
L 188.86655 -286.030101 
L 217.853563 -286.36892 
L 246.840576 -283.997307 
L 275.827589 -284.336092 
L 304.814602 -285.352481 
L 333.801615 -287.385409 
L 362.788628 -287.046573 
L 391.775641 -288.401946 
L 399.022394 -288.401946 
L 406.269148 -289.079666 
L 413.515901 -290.096285 
L 420.762654 -291.451853 
L 428.009407 -296.197006 
L 435.256161 -309.081711 
L 442.502914 -318.240827 
L 449.749667 -325.027471 
L 456.99642 -333.173705 
L 464.243174 -346.07669 
L 471.489927 -358.645409 
L 478.73668 -367.480416 
L 485.983433 -373.938225 
L 493.230187 -378.017456 
L 500.47694 -380.737202 
L 507.723693 -381.757159 
L 514.970446 -381.077184 
L 522.2172 -380.057246 
L 529.463953 -376.31772 
L 536.710706 -369.859468 
L 543.957459 -355.247964 
L 551.204213 -339.624486 
L 558.450966 -378.697373 
L 565.697719 -373.938225 
L 572.944472 -367.480416 
L 580.191226 -357.626138 
L 587.437979 -344.378606 
L 594.684732 -322.651947 
L 601.931485 -282.642222 
L 609.178239 -184.38537 
L 609.178239 -196.831664 
L 609.178239 -196.831664 
L 601.931485 -299.789892 
L 594.684732 -341.372536 
L 587.437979 -363.899365 
L 580.191226 -377.618802 
L 572.944472 -387.816887 
L 565.697719 -394.496832 
L 558.450966 -399.418134 
L 551.204213 -358.973035 
L 543.957459 -375.156751 
L 536.710706 -390.27806 
L 529.463953 -396.957563 
L 522.2172 -400.824104 
L 514.970446 -401.878549 
L 507.723693 -402.581496 
L 500.47694 -401.52707 
L 493.230187 -398.71513 
L 485.983433 -394.496832 
L 478.73668 -387.816887 
L 471.489927 -378.673914 
L 464.243174 -365.658585 
L 456.99642 -352.286061 
L 449.749667 -343.837237 
L 442.502914 -336.794666 
L 435.256161 -327.284342 
L 428.009407 -313.893538 
L 420.762654 -308.958241 
L 413.515901 -307.547965 
L 406.269148 -306.490203 
L 399.022394 -305.785 
L 391.775641 -305.785 
L 362.788628 -304.37453 
L 333.801615 -304.727156 
L 304.814602 -302.611319 
L 275.827589 -301.553326 
L 246.840576 -301.20065 
L 217.853563 -303.669262 
L 188.86655 -303.31662 
L 159.879537 -302.611319 
L 130.892524 -303.31662 
L 101.905511 -299.084478 
z
" id="m2fbec00e2a" style="stroke:#000000;stroke-opacity:0.3;"/>
    </defs>
    <g clip-path="url(#pdd38591bf5)">
     <use style="fill-opacity:0.3;stroke:#000000;stroke-opacity:0.3;" x="0" xlink:href="#m2fbec00e2a" y="456.231875"/>
    </g>
   </g>
   <g id="PolyCollection_3">
    <defs>
     <path d="M 101.905511 -354.749852 
L 101.905511 -335.55014 
L 130.892524 -333.513184 
L 159.879537 -330.458026 
L 188.86655 -326.385008 
L 217.853563 -322.651947 
L 246.840576 -318.919412 
L 275.827589 -313.491237 
L 304.814602 -307.725094 
L 333.801615 -299.926051 
L 362.788628 -290.774058 
L 391.775641 -276.545478 
L 399.022394 -272.482043 
L 406.269148 -267.40399 
L 413.515901 -263.342574 
L 420.762654 -257.252231 
L 428.009407 -252.178645 
L 435.256161 -245.416392 
L 442.502914 -236.967883 
L 449.749667 -225.823792 
L 456.99642 -213.340823 
L 464.243174 -195.821824 
L 471.489927 -168.940442 
L 478.73668 -124.228285 
L 485.983433 -78.591875 
L 493.230187 -78.591875 
L 500.47694 -78.591875 
L 507.723693 -78.591875 
L 514.970446 -78.591875 
L 522.2172 -78.591875 
L 529.463953 -78.591875 
L 536.710706 -78.591875 
L 543.957459 -78.591875 
L 551.204213 -78.591875 
L 558.450966 -78.591875 
L 565.697719 -78.591875 
L 572.944472 -78.591875 
L 580.191226 -78.591875 
L 587.437979 -78.591875 
L 594.684732 -78.591875 
L 601.931485 -78.591875 
L 609.178239 -78.591875 
L 609.178239 -78.591875 
L 609.178239 -78.591875 
L 601.931485 -78.591875 
L 594.684732 -78.591875 
L 587.437979 -78.591875 
L 580.191226 -78.591875 
L 572.944472 -78.591875 
L 565.697719 -78.591875 
L 558.450966 -78.591875 
L 551.204213 -78.591875 
L 543.957459 -78.591875 
L 536.710706 -78.591875 
L 529.463953 -78.591875 
L 522.2172 -78.591875 
L 514.970446 -78.591875 
L 507.723693 -78.591875 
L 500.47694 -78.591875 
L 493.230187 -78.591875 
L 485.983433 -78.591875 
L 478.73668 -132.525814 
L 471.489927 -180.469397 
L 464.243174 -208.904876 
L 456.99642 -227.341836 
L 449.749667 -240.442915 
L 442.502914 -252.117029 
L 435.256161 -260.955039 
L 428.009407 -268.022001 
L 420.762654 -273.320327 
L 413.515901 -279.676277 
L 406.269148 -283.91239 
L 399.022394 -289.206248 
L 391.775641 -293.440342 
L 362.788628 -308.253114 
L 333.801615 -317.770562 
L 304.814602 -325.875116 
L 275.827589 -331.863806 
L 246.840576 -337.499003 
L 217.853563 -341.372536 
L 188.86655 -345.245543 
L 159.879537 -349.470054 
L 130.892524 -352.638043 
L 101.905511 -354.749852 
z
" id="m3440ac1d47" style="stroke:#ff0000;stroke-opacity:0.3;"/>
    </defs>
    <g clip-path="url(#pdd38591bf5)">
     <use style="fill:#ff0000;fill-opacity:0.3;stroke:#ff0000;stroke-opacity:0.3;" x="0" xlink:href="#m3440ac1d47" y="456.231875"/>
    </g>
   </g>
   <g id="PolyCollection_4">
    <defs>
     <path d="M 101.905511 -376.563659 
L 101.905511 -356.606899 
L 130.892524 -358.305649 
L 159.879537 -361.023833 
L 188.86655 -364.421879 
L 217.853563 -368.160128 
L 246.840576 -372.918491 
L 275.827589 -378.697373 
L 304.814602 -385.837271 
L 333.801615 -395.359255 
L 362.788628 -405.904161 
L 391.775641 -408.285649 
L 399.022394 -408.966099 
L 406.269148 -408.285649 
L 413.515901 -409.306329 
L 420.762654 -409.646561 
L 428.009407 -409.306329 
L 435.256161 -408.966099 
L 442.502914 -408.625873 
L 449.749667 -408.625873 
L 456.99642 -407.945428 
L 464.243174 -406.924782 
L 471.489927 -406.584572 
L 478.73668 -406.244365 
L 485.983433 -404.203182 
L 493.230187 -402.842451 
L 500.47694 -401.141601 
L 507.723693 -398.760533 
L 514.970446 -396.039487 
L 522.2172 -393.998827 
L 529.463953 -390.597966 
L 536.710706 -386.1773 
L 543.957459 -379.377303 
L 551.204213 -370.199346 
L 558.450966 -354.568518 
L 565.697719 -326.724403 
L 572.944472 -266.050082 
L 580.191226 -181.360838 
L 587.437979 -78.591875 
L 594.684732 -78.591875 
L 601.931485 -78.591875 
L 609.178239 -78.591875 
L 609.178239 -78.591875 
L 609.178239 -78.591875 
L 601.931485 -78.591875 
L 594.684732 -78.591875 
L 587.437979 -78.591875 
L 580.191226 -193.633049 
L 572.944472 -282.500455 
L 565.697719 -345.597609 
L 558.450966 -374.453275 
L 551.204213 -390.629642 
L 543.957459 -400.121126 
L 536.710706 -407.150344 
L 529.463953 -411.718668 
L 522.2172 -415.232415 
L 514.970446 -417.340519 
L 507.723693 -420.151159 
L 500.47694 -422.610316 
L 493.230187 -424.36677 
L 485.983433 -425.771882 
L 478.73668 -427.879464 
L 471.489927 -428.230717 
L 464.243174 -428.581968 
L 456.99642 -429.635704 
L 449.749667 -430.338181 
L 442.502914 -430.338181 
L 435.256161 -430.689415 
L 428.009407 -431.040646 
L 420.762654 -431.391875 
L 413.515901 -431.040646 
L 406.269148 -429.986944 
L 399.022394 -430.689415 
L 391.775641 -429.986944 
L 362.788628 -427.528207 
L 333.801615 -416.637829 
L 304.814602 -406.798912 
L 275.827589 -399.418134 
L 246.840576 -393.442183 
L 217.853563 -388.520096 
L 188.86655 -384.652277 
L 159.879537 -381.135715 
L 130.892524 -378.322213 
L 101.905511 -376.563659 
z
" id="md0ac084de9" style="stroke:#000000;stroke-opacity:0.3;"/>
    </defs>
    <g clip-path="url(#pdd38591bf5)">
     <use style="fill-opacity:0.3;stroke:#000000;stroke-opacity:0.3;" x="0" xlink:href="#md0ac084de9" y="456.231875"/>
    </g>
   </g>
   <g id="matplotlib.axis_1">
    <g id="xtick_1">
     <g id="line2d_1">
      <defs>
       <path d="M 0 0 
L 0 -6 
" id="m025028467a" style="stroke:#333333;stroke-width:0.8;"/>
      </defs>
      <g>
       <use style="fill:#333333;stroke:#333333;stroke-width:0.8;" x="101.905511" xlink:href="#m025028467a" y="395.28"/>
      </g>
     </g>
     <g id="text_1">
      <!-- $\mathdefault{10^{-3}}$ -->
      <defs>
       <path d="M 13.71875 0 
L 13.71875 5.90625 
L 27.390625 5.90625 
L 27.390625 64.890625 
L 12.203125 55.90625 
L 12.203125 63.1875 
L 30.515625 74.21875 
L 45.90625 74.21875 
L 45.90625 5.90625 
L 59.625 5.90625 
L 59.625 0 
z
" id="DejaVuSerif-Bold-31"/>
       <path d="M 34.8125 4.296875 
Q 40.671875 4.296875 42.84375 9.609375 
Q 45.015625 14.9375 45.015625 36.375 
Q 45.015625 57.671875 42.84375 63.078125 
Q 40.671875 68.5 34.8125 68.5 
Q 28.953125 68.5 26.78125 63.171875 
Q 24.609375 57.859375 24.609375 36.375 
Q 24.609375 14.9375 26.78125 9.609375 
Q 28.953125 4.296875 34.8125 4.296875 
z
M 34.8125 -1.421875 
Q 20.21875 -1.421875 12.453125 8.3125 
Q 4.6875 18.0625 4.6875 36.375 
Q 4.6875 54.6875 12.453125 64.453125 
Q 20.21875 74.21875 34.8125 74.21875 
Q 49.359375 74.21875 57.125 64.453125 
Q 64.890625 54.6875 64.890625 36.375 
Q 64.890625 18.0625 57.125 8.3125 
Q 49.359375 -1.421875 34.8125 -1.421875 
z
" id="DejaVuSerif-Bold-30"/>
       <path d="M 10.59375 36.921875 
L 73.1875 36.921875 
L 73.1875 25.6875 
L 10.59375 25.6875 
z
" id="DejaVuSerif-Bold-2212"/>
       <path d="M 8.59375 70.796875 
Q 15.046875 72.515625 21.09375 73.359375 
Q 27.15625 74.21875 32.90625 74.21875 
Q 46.09375 74.21875 53.140625 69.5 
Q 60.203125 64.796875 60.203125 56 
Q 60.203125 49.421875 56.140625 45.3125 
Q 52.09375 41.21875 44.28125 39.796875 
Q 53.8125 38.28125 58.5 33.296875 
Q 63.1875 28.328125 63.1875 19.671875 
Q 63.1875 9.46875 55.09375 4.015625 
Q 47.015625 -1.421875 31.6875 -1.421875 
Q 25.921875 -1.421875 19.796875 -0.4375 
Q 13.671875 0.53125 6.984375 2.484375 
L 6.984375 18.5 
L 12.890625 18.5 
Q 13.421875 11.578125 17.234375 7.9375 
Q 21.046875 4.296875 27.78125 4.296875 
Q 35.203125 4.296875 39.25 8.421875 
Q 43.3125 12.546875 43.3125 20.125 
Q 43.3125 28.03125 39.078125 32.328125 
Q 34.859375 36.625 27.09375 36.625 
L 23.875 36.625 
L 23.875 42.484375 
L 26.421875 42.484375 
Q 33.59375 42.484375 37.203125 45.796875 
Q 40.828125 49.125 40.828125 55.71875 
Q 40.828125 61.921875 37.421875 65.203125 
Q 34.03125 68.5 27.6875 68.5 
Q 21.921875 68.5 18.546875 65.34375 
Q 15.1875 62.203125 14.5 56.203125 
L 8.59375 56.203125 
z
" id="DejaVuSerif-Bold-33"/>
      </defs>
      <g style="fill:#333333;" transform="translate(74.295511 415.496562)scale(0.22 -0.22)">
       <use transform="translate(0 0.7125)" xlink:href="#DejaVuSerif-Bold-31"/>
       <use transform="translate(69.580078 0.7125)" xlink:href="#DejaVuSerif-Bold-30"/>
       <use transform="translate(140.068516 37.046875)scale(0.7)" xlink:href="#DejaVuSerif-Bold-2212"/>
       <use transform="translate(198.720859 37.046875)scale(0.7)" xlink:href="#DejaVuSerif-Bold-33"/>
      </g>
     </g>
    </g>
    <g id="xtick_2">
     <g id="line2d_2">
      <g>
       <use style="fill:#333333;stroke:#333333;stroke-width:0.8;" x="246.840576" xlink:href="#m025028467a" y="395.28"/>
      </g>
     </g>
     <g id="text_2">
      <!-- $\mathdefault{10^{-2}}$ -->
      <defs>
       <path d="M 13.1875 54.890625 
L 7.328125 54.890625 
L 7.328125 70.609375 
Q 13.28125 72.40625 19.109375 73.3125 
Q 24.953125 74.21875 30.90625 74.21875 
Q 44.828125 74.21875 52.609375 68.53125 
Q 60.40625 62.84375 60.40625 52.6875 
Q 60.40625 45.453125 56.109375 39.71875 
Q 51.8125 33.984375 39.703125 26.125 
L 19.390625 12.796875 
L 53.90625 12.796875 
L 53.90625 21.390625 
L 60.59375 21.390625 
L 60.59375 0 
L 6.6875 0 
L 6.6875 11.921875 
L 17.484375 19.390625 
Q 31.296875 28.90625 35.890625 35.59375 
Q 40.484375 42.28125 40.484375 51.21875 
Q 40.484375 59.671875 36.984375 64.078125 
Q 33.5 68.5 26.8125 68.5 
Q 21.046875 68.5 17.578125 65.015625 
Q 14.109375 61.53125 13.1875 54.890625 
z
" id="DejaVuSerif-Bold-32"/>
      </defs>
      <g style="fill:#333333;" transform="translate(219.230576 415.496562)scale(0.22 -0.22)">
       <use transform="translate(0 0.7125)" xlink:href="#DejaVuSerif-Bold-31"/>
       <use transform="translate(69.580078 0.7125)" xlink:href="#DejaVuSerif-Bold-30"/>
       <use transform="translate(140.068516 37.046875)scale(0.7)" xlink:href="#DejaVuSerif-Bold-2212"/>
       <use transform="translate(198.720859 37.046875)scale(0.7)" xlink:href="#DejaVuSerif-Bold-32"/>
      </g>
     </g>
    </g>
    <g id="xtick_3">
     <g id="line2d_3">
      <g>
       <use style="fill:#333333;stroke:#333333;stroke-width:0.8;" x="391.775641" xlink:href="#m025028467a" y="395.28"/>
      </g>
     </g>
     <g id="text_3">
      <!-- $\mathdefault{10^{-1}}$ -->
      <g style="fill:#333333;" transform="translate(364.165641 415.496562)scale(0.22 -0.22)">
       <use transform="translate(0 0.7125)" xlink:href="#DejaVuSerif-Bold-31"/>
       <use transform="translate(69.580078 0.7125)" xlink:href="#DejaVuSerif-Bold-30"/>
       <use transform="translate(140.068516 37.046875)scale(0.7)" xlink:href="#DejaVuSerif-Bold-2212"/>
       <use transform="translate(198.720859 37.046875)scale(0.7)" xlink:href="#DejaVuSerif-Bold-31"/>
      </g>
     </g>
    </g>
    <g id="xtick_4">
     <g id="line2d_4">
      <g>
       <use style="fill:#333333;stroke:#333333;stroke-width:0.8;" x="536.710706" xlink:href="#m025028467a" y="395.28"/>
      </g>
     </g>
     <g id="text_4">
      <!-- $\mathdefault{10^{0}}$ -->
      <g style="fill:#333333;" transform="translate(515.590706 415.496562)scale(0.22 -0.22)">
       <use transform="translate(0 0.7125)" xlink:href="#DejaVuSerif-Bold-31"/>
       <use transform="translate(69.580078 0.7125)" xlink:href="#DejaVuSerif-Bold-30"/>
       <use transform="translate(140.068516 37.046875)scale(0.7)" xlink:href="#DejaVuSerif-Bold-30"/>
      </g>
     </g>
    </g>
    <g id="xtick_5">
     <g id="line2d_5">
      <defs>
       <path d="M 0 0 
L 0 -3 
" id="md1ce9b3972" style="stroke:#333333;stroke-width:0.6;"/>
      </defs>
      <g>
       <use style="fill:#333333;stroke:#333333;stroke-width:0.6;" x="79.454786" xlink:href="#md1ce9b3972" y="395.28"/>
      </g>
     </g>
    </g>
    <g id="xtick_6">
     <g id="line2d_6">
      <g>
       <use style="fill:#333333;stroke:#333333;stroke-width:0.6;" x="87.859852" xlink:href="#md1ce9b3972" y="395.28"/>
      </g>
     </g>
    </g>
    <g id="xtick_7">
     <g id="line2d_7">
      <g>
       <use style="fill:#333333;stroke:#333333;stroke-width:0.6;" x="95.273646" xlink:href="#md1ce9b3972" y="395.28"/>
      </g>
     </g>
    </g>
    <g id="xtick_8">
     <g id="line2d_8">
      <g>
       <use style="fill:#333333;stroke:#333333;stroke-width:0.6;" x="145.535313" xlink:href="#md1ce9b3972" y="395.28"/>
      </g>
     </g>
    </g>
    <g id="xtick_9">
     <g id="line2d_9">
      <g>
       <use style="fill:#333333;stroke:#333333;stroke-width:0.6;" x="171.057111" xlink:href="#md1ce9b3972" y="395.28"/>
      </g>
     </g>
    </g>
    <g id="xtick_10">
     <g id="line2d_10">
      <g>
       <use style="fill:#333333;stroke:#333333;stroke-width:0.6;" x="189.165115" xlink:href="#md1ce9b3972" y="395.28"/>
      </g>
     </g>
    </g>
    <g id="xtick_11">
     <g id="line2d_11">
      <g>
       <use style="fill:#333333;stroke:#333333;stroke-width:0.6;" x="203.210774" xlink:href="#md1ce9b3972" y="395.28"/>
      </g>
     </g>
    </g>
    <g id="xtick_12">
     <g id="line2d_12">
      <g>
       <use style="fill:#333333;stroke:#333333;stroke-width:0.6;" x="214.686913" xlink:href="#md1ce9b3972" y="395.28"/>
      </g>
     </g>
    </g>
    <g id="xtick_13">
     <g id="line2d_13">
      <g>
       <use style="fill:#333333;stroke:#333333;stroke-width:0.6;" x="224.389851" xlink:href="#md1ce9b3972" y="395.28"/>
      </g>
     </g>
    </g>
    <g id="xtick_14">
     <g id="line2d_14">
      <g>
       <use style="fill:#333333;stroke:#333333;stroke-width:0.6;" x="232.794917" xlink:href="#md1ce9b3972" y="395.28"/>
      </g>
     </g>
    </g>
    <g id="xtick_15">
     <g id="line2d_15">
      <g>
       <use style="fill:#333333;stroke:#333333;stroke-width:0.6;" x="240.208711" xlink:href="#md1ce9b3972" y="395.28"/>
      </g>
     </g>
    </g>
    <g id="xtick_16">
     <g id="line2d_16">
      <g>
       <use style="fill:#333333;stroke:#333333;stroke-width:0.6;" x="290.470378" xlink:href="#md1ce9b3972" y="395.28"/>
      </g>
     </g>
    </g>
    <g id="xtick_17">
     <g id="line2d_17">
      <g>
       <use style="fill:#333333;stroke:#333333;stroke-width:0.6;" x="315.992176" xlink:href="#md1ce9b3972" y="395.28"/>
      </g>
     </g>
    </g>
    <g id="xtick_18">
     <g id="line2d_18">
      <g>
       <use style="fill:#333333;stroke:#333333;stroke-width:0.6;" x="334.10018" xlink:href="#md1ce9b3972" y="395.28"/>
      </g>
     </g>
    </g>
    <g id="xtick_19">
     <g id="line2d_19">
      <g>
       <use style="fill:#333333;stroke:#333333;stroke-width:0.6;" x="348.145839" xlink:href="#md1ce9b3972" y="395.28"/>
      </g>
     </g>
    </g>
    <g id="xtick_20">
     <g id="line2d_20">
      <g>
       <use style="fill:#333333;stroke:#333333;stroke-width:0.6;" x="359.621978" xlink:href="#md1ce9b3972" y="395.28"/>
      </g>
     </g>
    </g>
    <g id="xtick_21">
     <g id="line2d_21">
      <g>
       <use style="fill:#333333;stroke:#333333;stroke-width:0.6;" x="369.324916" xlink:href="#md1ce9b3972" y="395.28"/>
      </g>
     </g>
    </g>
    <g id="xtick_22">
     <g id="line2d_22">
      <g>
       <use style="fill:#333333;stroke:#333333;stroke-width:0.6;" x="377.729982" xlink:href="#md1ce9b3972" y="395.28"/>
      </g>
     </g>
    </g>
    <g id="xtick_23">
     <g id="line2d_23">
      <g>
       <use style="fill:#333333;stroke:#333333;stroke-width:0.6;" x="385.143776" xlink:href="#md1ce9b3972" y="395.28"/>
      </g>
     </g>
    </g>
    <g id="xtick_24">
     <g id="line2d_24">
      <g>
       <use style="fill:#333333;stroke:#333333;stroke-width:0.6;" x="435.405443" xlink:href="#md1ce9b3972" y="395.28"/>
      </g>
     </g>
    </g>
    <g id="xtick_25">
     <g id="line2d_25">
      <g>
       <use style="fill:#333333;stroke:#333333;stroke-width:0.6;" x="460.927241" xlink:href="#md1ce9b3972" y="395.28"/>
      </g>
     </g>
    </g>
    <g id="xtick_26">
     <g id="line2d_26">
      <g>
       <use style="fill:#333333;stroke:#333333;stroke-width:0.6;" x="479.035245" xlink:href="#md1ce9b3972" y="395.28"/>
      </g>
     </g>
    </g>
    <g id="xtick_27">
     <g id="line2d_27">
      <g>
       <use style="fill:#333333;stroke:#333333;stroke-width:0.6;" x="493.080904" xlink:href="#md1ce9b3972" y="395.28"/>
      </g>
     </g>
    </g>
    <g id="xtick_28">
     <g id="line2d_28">
      <g>
       <use style="fill:#333333;stroke:#333333;stroke-width:0.6;" x="504.557043" xlink:href="#md1ce9b3972" y="395.28"/>
      </g>
     </g>
    </g>
    <g id="xtick_29">
     <g id="line2d_29">
      <g>
       <use style="fill:#333333;stroke:#333333;stroke-width:0.6;" x="514.259981" xlink:href="#md1ce9b3972" y="395.28"/>
      </g>
     </g>
    </g>
    <g id="xtick_30">
     <g id="line2d_30">
      <g>
       <use style="fill:#333333;stroke:#333333;stroke-width:0.6;" x="522.665047" xlink:href="#md1ce9b3972" y="395.28"/>
      </g>
     </g>
    </g>
    <g id="xtick_31">
     <g id="line2d_31">
      <g>
       <use style="fill:#333333;stroke:#333333;stroke-width:0.6;" x="530.078841" xlink:href="#md1ce9b3972" y="395.28"/>
      </g>
     </g>
    </g>
    <g id="xtick_32">
     <g id="line2d_32">
      <g>
       <use style="fill:#333333;stroke:#333333;stroke-width:0.6;" x="580.340508" xlink:href="#md1ce9b3972" y="395.28"/>
      </g>
     </g>
    </g>
    <g id="xtick_33">
     <g id="line2d_33">
      <g>
       <use style="fill:#333333;stroke:#333333;stroke-width:0.6;" x="605.862306" xlink:href="#md1ce9b3972" y="395.28"/>
      </g>
     </g>
    </g>
    <g id="xtick_34">
     <g id="line2d_34">
      <g>
       <use style="fill:#333333;stroke:#333333;stroke-width:0.6;" x="623.97031" xlink:href="#md1ce9b3972" y="395.28"/>
      </g>
     </g>
    </g>
    <g id="text_5">
     <!-- $r_p/r_t$ -->
     <defs>
      <path d="M 53.71875 52.484375 
L 53.71875 37.015625 
L 48.1875 37.015625 
Q 47.90625 41.15625 45.953125 43.1875 
Q 44 45.21875 40.28125 45.21875 
Q 34.625 45.21875 31.34375 40.234375 
Q 28.078125 35.25 28.078125 26.421875 
L 28.078125 5.90625 
L 37.5 5.90625 
L 37.5 0 
L 3.421875 0 
L 3.421875 5.90625 
L 10.796875 5.90625 
L 10.796875 46 
L 2.875 46 
L 2.875 51.90625 
L 28.078125 51.90625 
L 28.078125 42.671875 
Q 30.609375 48.09375 34.78125 50.703125 
Q 38.96875 53.328125 45.015625 53.328125 
Q 46.53125 53.328125 48.703125 53.09375 
Q 50.875 52.875 53.71875 52.484375 
z
" id="DejaVuSerif-Bold-72"/>
      <path d="M 27 28.515625 
L 27 23.390625 
Q 27 14.3125 29.3125 10.25 
Q 31.640625 6.203125 36.8125 6.203125 
Q 42.140625 6.203125 44.3125 10.5 
Q 46.484375 14.796875 46.484375 25.984375 
Q 46.484375 37.15625 44.3125 41.421875 
Q 42.140625 45.703125 36.8125 45.703125 
Q 31.640625 45.703125 29.3125 41.640625 
Q 27 37.59375 27 28.515625 
z
M 9.71875 46 
L 2.296875 46 
L 2.296875 51.90625 
L 27 51.90625 
L 27 45.3125 
Q 29.203125 49.359375 32.90625 51.34375 
Q 36.625 53.328125 42.09375 53.328125 
Q 53.171875 53.328125 59.546875 46.015625 
Q 65.921875 38.71875 65.921875 25.984375 
Q 65.921875 13.234375 59.546875 5.90625 
Q 53.171875 -1.421875 42.09375 -1.421875 
Q 36.625 -1.421875 32.90625 0.5625 
Q 29.203125 2.546875 27 6.59375 
L 27 -14.890625 
L 35.015625 -14.890625 
L 35.015625 -20.796875 
L 2.296875 -20.796875 
L 2.296875 -14.890625 
L 9.71875 -14.890625 
z
" id="DejaVuSerif-Bold-70"/>
      <path d="M 25.6875 72.90625 
L 36.53125 72.90625 
L 10.796875 -9.28125 
L 0 -9.28125 
z
" id="DejaVuSerif-Bold-2f"/>
      <path d="M 9.90625 46 
L 2.390625 46 
L 2.390625 51.90625 
L 9.90625 51.90625 
L 9.90625 68.015625 
L 27.203125 68.015625 
L 27.203125 51.90625 
L 41.609375 51.90625 
L 41.609375 46 
L 27.203125 46 
L 27.203125 14.203125 
Q 27.203125 7.421875 28.265625 5.765625 
Q 29.34375 4.109375 32.171875 4.109375 
Q 35.296875 4.109375 36.8125 6.203125 
Q 38.328125 8.296875 38.421875 12.703125 
L 45.703125 12.703125 
Q 45.265625 4.890625 41.421875 1.734375 
Q 37.59375 -1.421875 28.21875 -1.421875 
Q 17.53125 -1.421875 13.71875 1.921875 
Q 9.90625 5.28125 9.90625 14.203125 
z
" id="DejaVuSerif-Bold-74"/>
     </defs>
     <g transform="translate(327.821875 441.591875)scale(0.24 -0.24)">
      <use transform="translate(0 0.09375)" xlink:href="#DejaVuSerif-Bold-72"/>
      <use transform="translate(53.593906 -15.478125)scale(0.7)" xlink:href="#DejaVuSerif-Bold-70"/>
      <use transform="translate(105.134531 0.09375)" xlink:href="#DejaVuSerif-Bold-2f"/>
      <use transform="translate(141.657969 0.09375)" xlink:href="#DejaVuSerif-Bold-72"/>
      <use transform="translate(195.251875 -15.478125)scale(0.7)" xlink:href="#DejaVuSerif-Bold-74"/>
     </g>
    </g>
   </g>
   <g id="matplotlib.axis_2">
    <g id="ytick_1">
     <g id="line2d_35">
      <defs>
       <path d="M 0 0 
L 6 0 
" id="m9f357b0320" style="stroke:#333333;stroke-width:0.8;"/>
      </defs>
      <g>
       <use style="fill:#333333;stroke:#333333;stroke-width:0.8;" x="76.541875" xlink:href="#m9f357b0320" y="377.64"/>
      </g>
     </g>
     <g id="text_6">
      <!-- 0.0 -->
      <defs>
       <path d="M 8.109375 7.90625 
Q 8.109375 11.71875 10.84375 14.453125 
Q 13.578125 17.1875 17.390625 17.1875 
Q 21.234375 17.1875 23.96875 14.453125 
Q 26.703125 11.71875 26.703125 7.90625 
Q 26.703125 4.046875 23.96875 1.3125 
Q 21.234375 -1.421875 17.390625 -1.421875 
Q 13.578125 -1.421875 10.84375 1.3125 
Q 8.109375 4.046875 8.109375 7.90625 
z
" id="DejaVuSerif-Bold-2e"/>
      </defs>
      <g style="fill:#333333;" transform="translate(34.76875 385.998281)scale(0.22 -0.22)">
       <use xlink:href="#DejaVuSerif-Bold-30"/>
       <use x="69.580078" xlink:href="#DejaVuSerif-Bold-2e"/>
       <use x="104.394531" xlink:href="#DejaVuSerif-Bold-30"/>
      </g>
     </g>
    </g>
    <g id="ytick_2">
     <g id="line2d_36">
      <g>
       <use style="fill:#333333;stroke:#333333;stroke-width:0.8;" x="76.541875" xlink:href="#m9f357b0320" y="308.493925"/>
      </g>
     </g>
     <g id="text_7">
      <!-- 0.2 -->
      <g style="fill:#333333;" transform="translate(34.76875 316.852206)scale(0.22 -0.22)">
       <use xlink:href="#DejaVuSerif-Bold-30"/>
       <use x="69.580078" xlink:href="#DejaVuSerif-Bold-2e"/>
       <use x="104.394531" xlink:href="#DejaVuSerif-Bold-32"/>
      </g>
     </g>
    </g>
    <g id="ytick_3">
     <g id="line2d_37">
      <g>
       <use style="fill:#333333;stroke:#333333;stroke-width:0.8;" x="76.541875" xlink:href="#m9f357b0320" y="239.347849"/>
      </g>
     </g>
     <g id="text_8">
      <!-- 0.4 -->
      <defs>
       <path d="M 63.8125 0 
L 23.6875 0 
L 23.6875 5.90625 
L 34.515625 5.90625 
L 34.515625 19.1875 
L 4.109375 19.1875 
L 4.109375 24.8125 
L 34.625 74.21875 
L 52.984375 74.21875 
L 52.984375 25.484375 
L 65.484375 25.484375 
L 65.484375 19.1875 
L 52.984375 19.1875 
L 52.984375 5.90625 
L 63.8125 5.90625 
z
M 34.515625 25.484375 
L 34.515625 60.890625 
L 12.796875 25.484375 
z
" id="DejaVuSerif-Bold-34"/>
      </defs>
      <g style="fill:#333333;" transform="translate(34.76875 247.70613)scale(0.22 -0.22)">
       <use xlink:href="#DejaVuSerif-Bold-30"/>
       <use x="69.580078" xlink:href="#DejaVuSerif-Bold-2e"/>
       <use x="104.394531" xlink:href="#DejaVuSerif-Bold-34"/>
      </g>
     </g>
    </g>
    <g id="ytick_4">
     <g id="line2d_38">
      <g>
       <use style="fill:#333333;stroke:#333333;stroke-width:0.8;" x="76.541875" xlink:href="#m9f357b0320" y="170.201774"/>
      </g>
     </g>
     <g id="text_9">
      <!-- 0.6 -->
      <defs>
       <path d="M 24.609375 43.21875 
Q 27.78125 45.75 31.703125 47.015625 
Q 35.640625 48.296875 40.28125 48.296875 
Q 51.46875 48.296875 57.828125 41.75 
Q 64.203125 35.203125 64.203125 23.78125 
Q 64.203125 11.71875 57.03125 5.140625 
Q 49.859375 -1.421875 36.625 -1.421875 
Q 21.6875 -1.421875 13.984375 7.59375 
Q 6.296875 16.609375 6.296875 34.078125 
Q 6.296875 53.953125 14.84375 64.078125 
Q 23.390625 74.21875 40.1875 74.21875 
Q 44.578125 74.21875 49.609375 73.484375 
Q 54.640625 72.75 60.40625 71.296875 
L 60.40625 58.40625 
L 54.5 58.40625 
Q 53.265625 63.375 49.875 65.9375 
Q 46.484375 68.5 41.109375 68.5 
Q 32.421875 68.5 28.53125 62.546875 
Q 24.65625 56.59375 24.609375 43.21875 
z
M 35.5 4.296875 
Q 40.53125 4.296875 42.671875 8.5625 
Q 44.828125 12.84375 44.828125 23.390625 
Q 44.828125 33.9375 42.671875 38.203125 
Q 40.53125 42.484375 35.5 42.484375 
Q 30.46875 42.484375 28.34375 38.203125 
Q 26.21875 33.9375 26.21875 23.390625 
Q 26.21875 12.84375 28.34375 8.5625 
Q 30.46875 4.296875 35.5 4.296875 
z
" id="DejaVuSerif-Bold-36"/>
      </defs>
      <g style="fill:#333333;" transform="translate(34.76875 178.560055)scale(0.22 -0.22)">
       <use xlink:href="#DejaVuSerif-Bold-30"/>
       <use x="69.580078" xlink:href="#DejaVuSerif-Bold-2e"/>
       <use x="104.394531" xlink:href="#DejaVuSerif-Bold-36"/>
      </g>
     </g>
    </g>
    <g id="ytick_5">
     <g id="line2d_39">
      <g>
       <use style="fill:#333333;stroke:#333333;stroke-width:0.8;" x="76.541875" xlink:href="#m9f357b0320" y="101.055698"/>
      </g>
     </g>
     <g id="text_10">
      <!-- 0.8 -->
      <defs>
       <path d="M 46.484375 38.8125 
Q 55.171875 37.40625 59.6875 32.421875 
Q 64.203125 27.4375 64.203125 19.390625 
Q 64.203125 9.328125 56.609375 3.953125 
Q 49.03125 -1.421875 34.71875 -1.421875 
Q 20.40625 -1.421875 12.78125 3.953125 
Q 5.171875 9.328125 5.171875 19.390625 
Q 5.171875 27.4375 9.71875 32.421875 
Q 14.265625 37.40625 22.90625 38.8125 
Q 15.234375 40.578125 11.421875 44.703125 
Q 7.625 48.828125 7.625 55.171875 
Q 7.625 64.453125 14.546875 69.328125 
Q 21.484375 74.21875 34.71875 74.21875 
Q 47.90625 74.21875 54.859375 69.328125 
Q 61.8125 64.453125 61.8125 55.171875 
Q 61.8125 48.828125 57.984375 44.703125 
Q 54.15625 40.578125 46.484375 38.8125 
z
M 42.921875 54.984375 
Q 42.921875 62.703125 41.0625 65.59375 
Q 39.203125 68.5 34.71875 68.5 
Q 30.171875 68.5 28.34375 65.59375 
Q 26.515625 62.703125 26.515625 54.984375 
Q 26.515625 47.3125 28.34375 44.453125 
Q 30.171875 41.609375 34.71875 41.609375 
Q 39.265625 41.609375 41.09375 44.453125 
Q 42.921875 47.3125 42.921875 54.984375 
z
M 44.828125 20.21875 
Q 44.828125 29.15625 42.546875 32.515625 
Q 40.28125 35.890625 34.71875 35.890625 
Q 29.109375 35.890625 26.859375 32.515625 
Q 24.609375 29.15625 24.609375 20.21875 
Q 24.609375 11.1875 26.875 7.734375 
Q 29.15625 4.296875 34.71875 4.296875 
Q 40.234375 4.296875 42.53125 7.734375 
Q 44.828125 11.1875 44.828125 20.21875 
z
" id="DejaVuSerif-Bold-38"/>
      </defs>
      <g style="fill:#333333;" transform="translate(34.76875 109.413979)scale(0.22 -0.22)">
       <use xlink:href="#DejaVuSerif-Bold-30"/>
       <use x="69.580078" xlink:href="#DejaVuSerif-Bold-2e"/>
       <use x="104.394531" xlink:href="#DejaVuSerif-Bold-38"/>
      </g>
     </g>
    </g>
    <g id="ytick_6">
     <g id="line2d_40">
      <g>
       <use style="fill:#333333;stroke:#333333;stroke-width:0.8;" x="76.541875" xlink:href="#m9f357b0320" y="31.909623"/>
      </g>
     </g>
     <g id="text_11">
      <!-- 1.0 -->
      <g style="fill:#333333;" transform="translate(34.76875 40.267904)scale(0.22 -0.22)">
       <use xlink:href="#DejaVuSerif-Bold-31"/>
       <use x="69.580078" xlink:href="#DejaVuSerif-Bold-2e"/>
       <use x="104.394531" xlink:href="#DejaVuSerif-Bold-30"/>
      </g>
     </g>
    </g>
    <g id="text_12">
     <!-- Probability of disruption -->
     <defs>
      <path d="M 4.6875 0 
L 4.6875 5.90625 
L 14.015625 5.90625 
L 14.015625 67 
L 4.6875 67 
L 4.6875 72.90625 
L 46.1875 72.90625 
Q 58.34375 72.90625 65.515625 67.109375 
Q 72.703125 61.328125 72.703125 51.609375 
Q 72.703125 41.84375 65.5 36 
Q 58.296875 30.171875 46.1875 30.171875 
L 32.8125 30.171875 
L 32.8125 5.90625 
L 44.578125 5.90625 
L 44.578125 0 
z
M 32.8125 36.078125 
L 38.28125 36.078125 
Q 44.625 36.078125 48.40625 40.296875 
Q 52.203125 44.53125 52.203125 51.609375 
Q 52.203125 58.640625 48.4375 62.8125 
Q 44.671875 67 38.28125 67 
L 32.8125 67 
z
" id="DejaVuSerif-Bold-50"/>
      <path d="M 33.40625 4.109375 
Q 38.875 4.109375 41.09375 8.796875 
Q 43.3125 13.484375 43.3125 25.984375 
Q 43.3125 38.484375 41.109375 43.140625 
Q 38.921875 47.796875 33.40625 47.796875 
Q 27.875 47.796875 25.625 43.078125 
Q 23.390625 38.375 23.390625 25.984375 
Q 23.390625 13.578125 25.625 8.84375 
Q 27.875 4.109375 33.40625 4.109375 
z
M 33.40625 -1.421875 
Q 19.671875 -1.421875 11.890625 5.875 
Q 4.109375 13.1875 4.109375 25.984375 
Q 4.109375 38.8125 11.890625 46.0625 
Q 19.671875 53.328125 33.40625 53.328125 
Q 47.171875 53.328125 54.9375 46.0625 
Q 62.703125 38.8125 62.703125 25.984375 
Q 62.703125 13.1875 54.90625 5.875 
Q 47.125 -1.421875 33.40625 -1.421875 
z
" id="DejaVuSerif-Bold-6f"/>
      <path d="M 9.71875 5.90625 
L 9.71875 70.125 
L 2.296875 70.125 
L 2.296875 75.984375 
L 27 75.984375 
L 27 45.3125 
Q 29.203125 49.359375 32.90625 51.34375 
Q 36.625 53.328125 42.09375 53.328125 
Q 53.171875 53.328125 59.546875 46.015625 
Q 65.921875 38.71875 65.921875 25.984375 
Q 65.921875 13.234375 59.546875 5.90625 
Q 53.171875 -1.421875 42.09375 -1.421875 
Q 36.625 -1.421875 32.90625 0.5625 
Q 29.203125 2.546875 27 6.59375 
L 27 0 
L 2.296875 0 
L 2.296875 5.90625 
z
M 27 23.390625 
Q 27 14.3125 29.3125 10.25 
Q 31.640625 6.203125 36.8125 6.203125 
Q 42.140625 6.203125 44.3125 10.5 
Q 46.484375 14.796875 46.484375 25.984375 
Q 46.484375 37.15625 44.3125 41.421875 
Q 42.140625 45.703125 36.8125 45.703125 
Q 31.640625 45.703125 29.3125 41.640625 
Q 27 37.59375 27 28.515625 
z
" id="DejaVuSerif-Bold-62"/>
      <path d="M 55.078125 31.890625 
L 55.078125 5.90625 
L 62.5 5.90625 
L 62.5 0 
L 37.796875 0 
L 37.796875 6.59375 
Q 34.375 2.484375 30.171875 0.53125 
Q 25.984375 -1.421875 20.609375 -1.421875 
Q 12.640625 -1.421875 8.375 2.84375 
Q 4.109375 7.125 4.109375 15.09375 
Q 4.109375 23.828125 10.234375 28.171875 
Q 16.359375 32.515625 28.71875 32.515625 
L 37.796875 32.515625 
L 37.796875 35.59375 
Q 37.796875 41.890625 34.8125 44.890625 
Q 31.84375 47.90625 25.59375 47.90625 
Q 20.40625 47.90625 17.59375 45.78125 
Q 14.796875 43.65625 13.625 38.8125 
L 8.109375 38.8125 
L 8.109375 50 
Q 12.75 51.65625 17.71875 52.484375 
Q 22.703125 53.328125 28.21875 53.328125 
Q 42.140625 53.328125 48.609375 48.140625 
Q 55.078125 42.96875 55.078125 31.890625 
z
M 37.796875 16.3125 
L 37.796875 26.703125 
L 31.296875 26.703125 
Q 26.46875 26.703125 23.875 24.0625 
Q 21.296875 21.4375 21.296875 16.5 
Q 21.296875 11.578125 23.171875 9.125 
Q 25.046875 6.6875 28.90625 6.6875 
Q 32.90625 6.6875 35.34375 9.328125 
Q 37.796875 11.96875 37.796875 16.3125 
z
" id="DejaVuSerif-Bold-61"/>
      <path d="M 9.1875 66.609375 
Q 9.1875 70.5625 11.921875 73.265625 
Q 14.65625 75.984375 18.609375 75.984375 
Q 22.46875 75.984375 25.171875 73.265625 
Q 27.875 70.5625 27.875 66.609375 
Q 27.875 62.75 25.171875 60.03125 
Q 22.46875 57.328125 18.609375 57.328125 
Q 14.65625 57.328125 11.921875 60.015625 
Q 9.1875 62.703125 9.1875 66.609375 
z
M 28.078125 5.90625 
L 35.5 5.90625 
L 35.5 0 
L 3.421875 0 
L 3.421875 5.90625 
L 10.796875 5.90625 
L 10.796875 46 
L 3.421875 46 
L 3.421875 51.90625 
L 28.078125 51.90625 
z
" id="DejaVuSerif-Bold-69"/>
      <path d="M 28.078125 5.90625 
L 35.5 5.90625 
L 35.5 0 
L 3.421875 0 
L 3.421875 5.90625 
L 10.796875 5.90625 
L 10.796875 70.125 
L 3.421875 70.125 
L 3.421875 75.984375 
L 28.078125 75.984375 
z
" id="DejaVuSerif-Bold-6c"/>
      <path d="M 31.203125 -11.71875 
Q 28.859375 -17.4375 25.53125 -19.828125 
Q 22.21875 -22.21875 16.609375 -22.21875 
Q 14.203125 -22.21875 11.265625 -21.671875 
Q 8.34375 -21.140625 4.890625 -20.125 
L 4.890625 -9.28125 
L 10.40625 -9.328125 
Q 10.546875 -13.09375 12.171875 -14.890625 
Q 13.8125 -16.703125 17.09375 -16.703125 
Q 20.265625 -16.703125 22.21875 -14.96875 
Q 24.171875 -13.234375 26.125 -8.40625 
L 26.90625 -6.59375 
L 4.296875 46 
L -1.3125 46 
L -1.3125 51.90625 
L 28.609375 51.90625 
L 28.609375 46 
L 22.40625 46 
L 35.59375 15.28125 
L 47.90625 46 
L 41.015625 46 
L 41.015625 51.90625 
L 60.5 51.90625 
L 60.5 46 
L 54.203125 46 
z
" id="DejaVuSerif-Bold-79"/>
      <path id="DejaVuSerif-Bold-20"/>
      <path d="M 48.390625 62.984375 
L 42.921875 62.984375 
Q 42.53125 66.796875 40.703125 68.65625 
Q 38.875 70.515625 35.5 70.515625 
Q 31.59375 70.515625 29.828125 67.703125 
Q 28.078125 64.890625 28.078125 58.59375 
L 28.078125 51.90625 
L 41.109375 51.90625 
L 41.109375 46 
L 28.078125 46 
L 28.078125 5.90625 
L 38.09375 5.90625 
L 38.09375 0 
L 3.421875 0 
L 3.421875 5.90625 
L 10.796875 5.90625 
L 10.796875 46 
L 3.078125 46 
L 3.078125 51.90625 
L 10.796875 51.90625 
L 10.796875 58.40625 
Q 10.796875 67.046875 16.3125 71.515625 
Q 21.828125 75.984375 32.515625 75.984375 
Q 36.671875 75.984375 40.625 75.515625 
Q 44.578125 75.046875 48.390625 74.125 
z
" id="DejaVuSerif-Bold-66"/>
      <path d="M 42.921875 23.390625 
L 42.921875 28.515625 
Q 42.921875 37.59375 40.578125 41.640625 
Q 38.234375 45.703125 33.109375 45.703125 
Q 27.734375 45.703125 25.5625 41.421875 
Q 23.390625 37.15625 23.390625 25.984375 
Q 23.390625 14.796875 25.578125 10.5 
Q 27.78125 6.203125 33.109375 6.203125 
Q 38.234375 6.203125 40.578125 10.25 
Q 42.921875 14.3125 42.921875 23.390625 
z
M 60.203125 5.90625 
L 67.578125 5.90625 
L 67.578125 0 
L 42.921875 0 
L 42.921875 6.59375 
Q 40.71875 2.546875 36.984375 0.5625 
Q 33.25 -1.421875 27.78125 -1.421875 
Q 16.75 -1.421875 10.421875 5.90625 
Q 4.109375 13.234375 4.109375 25.984375 
Q 4.109375 38.765625 10.421875 46.046875 
Q 16.75 53.328125 27.78125 53.328125 
Q 33.25 53.328125 36.984375 51.34375 
Q 40.71875 49.359375 42.921875 45.3125 
L 42.921875 70.125 
L 35.5 70.125 
L 35.5 75.984375 
L 60.203125 75.984375 
z
" id="DejaVuSerif-Bold-64"/>
      <path d="M 4.6875 1.515625 
L 4.6875 16.015625 
L 10.203125 16.015625 
Q 10.890625 10.203125 14.546875 7.15625 
Q 18.21875 4.109375 24.515625 4.109375 
Q 29.78125 4.109375 32.59375 5.9375 
Q 35.40625 7.765625 35.40625 11.1875 
Q 35.40625 14.3125 33.625 16.015625 
Q 31.84375 17.71875 26.703125 19 
L 19.578125 20.796875 
Q 11.53125 22.796875 7.90625 26.53125 
Q 4.296875 30.28125 4.296875 36.625 
Q 4.296875 45.0625 10.15625 49.1875 
Q 16.015625 53.328125 28.21875 53.328125 
Q 32.8125 53.328125 38.015625 52.5625 
Q 43.21875 51.8125 49.515625 50.203125 
L 49.515625 37.109375 
L 44 37.109375 
Q 43.5625 42.4375 40.203125 45.109375 
Q 36.859375 47.796875 30.609375 47.796875 
Q 25.34375 47.796875 22.625 46.109375 
Q 19.921875 44.4375 19.921875 41.21875 
Q 19.921875 38.578125 21.484375 37.0625 
Q 23.046875 35.546875 27.09375 34.515625 
L 34.1875 32.71875 
Q 44.390625 30.125 48.296875 26.3125 
Q 52.203125 22.515625 52.203125 15.71875 
Q 52.203125 6.9375 45.921875 2.75 
Q 39.65625 -1.421875 26.421875 -1.421875 
Q 21.578125 -1.421875 16.15625 -0.6875 
Q 10.75 0.046875 4.6875 1.515625 
z
" id="DejaVuSerif-Bold-73"/>
      <path d="M 61.921875 51.90625 
L 61.921875 5.90625 
L 69.28125 5.90625 
L 69.28125 0 
L 44.578125 0 
L 44.578125 7.328125 
Q 41.5 2.6875 37.5 0.625 
Q 33.5 -1.421875 27.390625 -1.421875 
Q 18.65625 -1.421875 14.1875 3.734375 
Q 9.71875 8.890625 9.71875 18.890625 
L 9.71875 46 
L 2.296875 46 
L 2.296875 51.90625 
L 27 51.90625 
L 27 21.578125 
Q 27 11.921875 28.609375 9.296875 
Q 30.21875 6.6875 34.515625 6.6875 
Q 39.75 6.6875 42.15625 10.546875 
Q 44.578125 14.40625 44.578125 22.796875 
L 44.578125 46 
L 38.28125 46 
L 38.28125 51.90625 
z
" id="DejaVuSerif-Bold-75"/>
      <path d="M 3.421875 0 
L 3.421875 5.90625 
L 10.796875 5.90625 
L 10.796875 46 
L 3.421875 46 
L 3.421875 51.90625 
L 28.078125 51.90625 
L 28.078125 44.578125 
Q 31.203125 49.21875 35.203125 51.265625 
Q 39.203125 53.328125 45.3125 53.328125 
Q 54.046875 53.328125 58.515625 48.171875 
Q 62.984375 43.015625 62.984375 33.015625 
L 62.984375 5.90625 
L 70.40625 5.90625 
L 70.40625 0 
L 39.40625 0 
L 39.40625 5.90625 
L 45.703125 5.90625 
L 45.703125 33.5 
Q 45.703125 40.09375 44.015625 42.65625 
Q 42.328125 45.21875 38.1875 45.21875 
Q 32.953125 45.21875 30.515625 41.375 
Q 28.078125 37.546875 28.078125 29.203125 
L 28.078125 5.90625 
L 34.421875 5.90625 
L 34.421875 0 
z
" id="DejaVuSerif-Bold-6e"/>
     </defs>
     <g transform="translate(25.43625 366.830625)rotate(-90)scale(0.24 -0.24)">
      <use xlink:href="#DejaVuSerif-Bold-50"/>
      <use x="75.195312" xlink:href="#DejaVuSerif-Bold-72"/>
      <use x="127.880859" xlink:href="#DejaVuSerif-Bold-6f"/>
      <use x="194.580078" xlink:href="#DejaVuSerif-Bold-62"/>
      <use x="264.501953" xlink:href="#DejaVuSerif-Bold-61"/>
      <use x="329.296875" xlink:href="#DejaVuSerif-Bold-62"/>
      <use x="399.21875" xlink:href="#DejaVuSerif-Bold-69"/>
      <use x="437.207031" xlink:href="#DejaVuSerif-Bold-6c"/>
      <use x="475.195312" xlink:href="#DejaVuSerif-Bold-69"/>
      <use x="513.183594" xlink:href="#DejaVuSerif-Bold-74"/>
      <use x="559.375" xlink:href="#DejaVuSerif-Bold-79"/>
      <use x="617.480469" xlink:href="#DejaVuSerif-Bold-20"/>
      <use x="652.294922" xlink:href="#DejaVuSerif-Bold-6f"/>
      <use x="718.994141" xlink:href="#DejaVuSerif-Bold-66"/>
      <use x="762.011719" xlink:href="#DejaVuSerif-Bold-20"/>
      <use x="796.826172" xlink:href="#DejaVuSerif-Bold-64"/>
      <use x="866.748047" xlink:href="#DejaVuSerif-Bold-69"/>
      <use x="904.736328" xlink:href="#DejaVuSerif-Bold-73"/>
      <use x="961.035156" xlink:href="#DejaVuSerif-Bold-72"/>
      <use x="1013.720703" xlink:href="#DejaVuSerif-Bold-75"/>
      <use x="1086.425781" xlink:href="#DejaVuSerif-Bold-70"/>
      <use x="1156.347656" xlink:href="#DejaVuSerif-Bold-74"/>
      <use x="1202.539062" xlink:href="#DejaVuSerif-Bold-69"/>
      <use x="1240.527344" xlink:href="#DejaVuSerif-Bold-6f"/>
      <use x="1307.226562" xlink:href="#DejaVuSerif-Bold-6e"/>
     </g>
    </g>
   </g>
   <g id="line2d_41">
    <path clip-path="url(#pdd38591bf5)" d="M 101.905511 169.164583 
L 130.892524 166.39874 
L 159.879537 166.39874 
L 188.86655 168.127391 
L 217.853563 170.547504 
L 246.840576 176.42492 
L 275.827589 195.440091 
L 304.814602 255.942907 
L 333.801615 259.054481 
L 362.788628 241.422231 
L 391.775641 227.593016 
L 399.022394 223.098521 
L 406.269148 219.641218 
L 413.515901 213.763801 
L 420.762654 211.689419 
L 428.009407 207.886385 
L 435.256161 204.429081 
L 442.502914 198.551665 
L 449.749667 192.328518 
L 456.99642 188.871214 
L 464.243174 183.685258 
L 471.489927 176.07919 
L 478.73668 170.547504 
L 485.983433 166.053009 
L 493.230187 160.175593 
L 500.47694 156.718289 
L 507.723693 156.718289 
L 514.970446 162.249975 
L 522.2172 142.197613 
L 529.463953 141.160422 
L 536.710706 143.580535 
L 543.957459 147.729299 
L 551.204213 154.298176 
L 558.450966 165.361548 
L 565.697719 183.685258 
L 572.944472 210.652228 
L 580.191226 260.437402 
L 587.437979 377.64 
L 594.684732 377.64 
L 601.931485 377.64 
L 609.178239 377.64 
" style="fill:none;stroke:#ff0000;stroke-dasharray:7.4,3.2;stroke-dashoffset:0;stroke-width:2;"/>
   </g>
   <g id="line2d_42">
    <path clip-path="url(#pdd38591bf5)" d="M 101.905511 165.707279 
L 130.892524 161.558514 
L 159.879537 162.249975 
L 188.86655 161.558514 
L 217.853563 161.212784 
L 246.840576 163.632897 
L 275.827589 163.287166 
L 304.814602 162.249975 
L 333.801615 160.175593 
L 362.788628 160.521323 
L 391.775641 159.138402 
L 399.022394 159.138402 
L 406.269148 158.446941 
L 413.515901 157.40975 
L 420.762654 156.026828 
L 428.009407 151.186603 
L 435.256161 138.048849 
L 442.502914 128.714128 
L 449.749667 121.799521 
L 456.99642 113.501992 
L 464.243174 100.364237 
L 471.489927 87.572214 
L 478.73668 78.583224 
L 485.983433 72.014347 
L 493.230187 67.865582 
L 500.47694 65.099739 
L 507.723693 64.062548 
L 514.970446 64.754009 
L 522.2172 65.7912 
L 529.463953 69.594234 
L 536.710706 76.163111 
L 543.957459 91.029517 
L 551.204213 106.933115 
L 558.450966 67.174121 
L 565.697719 72.014347 
L 572.944472 78.583224 
L 580.191226 88.609405 
L 587.437979 102.092889 
L 594.684732 124.219634 
L 601.931485 165.015818 
L 609.178239 265.623358 
" style="fill:none;stroke:#000000;stroke-dasharray:7.4,3.2;stroke-dashoffset:0;stroke-width:2;"/>
   </g>
   <g id="line2d_43">
    <path clip-path="url(#pdd38591bf5)" d="M 101.905511 111.081879 
L 130.892524 113.156261 
L 159.879537 116.267835 
L 188.86655 120.416599 
L 217.853563 124.219634 
L 246.840576 128.022668 
L 275.827589 133.554354 
L 304.814602 139.43177 
L 333.801615 147.383569 
L 362.788628 156.718289 
L 391.775641 171.238965 
L 399.022394 175.387729 
L 406.269148 180.573685 
L 413.515901 184.72245 
L 420.762654 190.945596 
L 428.009407 196.131552 
L 435.256161 203.04616 
L 442.502914 211.689419 
L 449.749667 223.098521 
L 456.99642 235.890545 
L 464.243174 253.868525 
L 471.489927 281.526955 
L 478.73668 327.854826 
L 485.983433 377.64 
L 493.230187 377.64 
L 500.47694 377.64 
L 507.723693 377.64 
L 514.970446 377.64 
L 522.2172 377.64 
L 529.463953 377.64 
L 536.710706 377.64 
L 543.957459 377.64 
L 551.204213 377.64 
L 558.450966 377.64 
L 565.697719 377.64 
L 572.944472 377.64 
L 580.191226 377.64 
L 587.437979 377.64 
L 594.684732 377.64 
L 601.931485 377.64 
L 609.178239 377.64 
" style="fill:none;stroke:#ff0000;stroke-linecap:square;stroke-width:2;"/>
   </g>
   <g id="line2d_44">
    <path clip-path="url(#pdd38591bf5)" d="M 101.905511 89.646596 
L 130.892524 87.917944 
L 159.879537 85.152101 
L 188.86655 81.694797 
L 217.853563 77.891763 
L 246.840576 73.051538 
L 275.827589 67.174121 
L 304.814602 59.913783 
L 333.801615 50.233333 
L 362.788628 39.515691 
L 391.775641 37.095578 
L 399.022394 36.404118 
L 406.269148 37.095578 
L 413.515901 36.058387 
L 420.762654 35.712657 
L 428.009407 36.058387 
L 435.256161 36.404118 
L 442.502914 36.749848 
L 449.749667 36.749848 
L 456.99642 37.441309 
L 464.243174 38.4785 
L 471.489927 38.82423 
L 478.73668 39.169961 
L 485.983433 41.244343 
L 493.230187 42.627264 
L 500.47694 44.355916 
L 507.723693 46.776029 
L 514.970446 49.541872 
L 522.2172 51.616254 
L 529.463953 55.073558 
L 536.710706 59.568053 
L 543.957459 66.482661 
L 551.204213 75.817381 
L 558.450966 91.720978 
L 565.697719 120.070869 
L 572.944472 181.956607 
L 580.191226 268.734931 
L 587.437979 377.64 
L 594.684732 377.64 
L 601.931485 377.64 
L 609.178239 377.64 
" style="fill:none;stroke:#000000;stroke-linecap:square;stroke-width:2;"/>
   </g>
   <g id="text_13">
    <g id="patch_3">
     <path d="M 336.016429 250.345366 
L 488.546446 171.104928 
L 477.614783 150.062557 
L 325.084766 229.302994 
z
" style="fill:#ffffff;opacity:0.1;stroke:#ffffff;stroke-linejoin:miter;"/>
    </g>
    <!-- Retrograde, e=0.9 -->
    <defs>
     <path d="M 53.078125 35.59375 
Q 57.421875 34.96875 60.390625 32.71875 
Q 63.375 30.46875 65.578125 26.21875 
L 76.21875 5.90625 
L 83.6875 5.90625 
L 83.6875 0 
L 59.71875 0 
L 48.09375 22.015625 
Q 44.734375 28.859375 42.359375 30.734375 
Q 39.984375 32.625 35.796875 32.625 
L 32.8125 32.625 
L 32.8125 5.90625 
L 42.1875 5.90625 
L 42.1875 0 
L 4.6875 0 
L 4.6875 5.90625 
L 14.015625 5.90625 
L 14.015625 67 
L 4.6875 67 
L 4.6875 72.90625 
L 46.296875 72.90625 
Q 58.984375 72.90625 65.890625 67.796875 
Q 72.796875 62.703125 72.796875 53.328125 
Q 72.796875 45.703125 67.890625 41.28125 
Q 62.984375 36.859375 53.078125 35.59375 
z
M 32.8125 38.484375 
L 39.203125 38.484375 
Q 46.046875 38.484375 49.734375 42.1875 
Q 53.421875 45.90625 53.421875 52.78125 
Q 53.421875 59.671875 49.734375 63.328125 
Q 46.046875 67 39.203125 67 
L 32.8125 67 
z
" id="DejaVuSerif-Bold-52"/>
     <path d="M 40.09375 29.296875 
Q 40.09375 39.546875 38.1875 43.671875 
Q 36.28125 47.796875 31.6875 47.796875 
Q 27.25 47.796875 25.3125 43.75 
Q 23.390625 39.703125 23.390625 30.171875 
L 23.390625 29.296875 
z
M 59.078125 23.484375 
L 23.390625 23.484375 
L 23.390625 23.09375 
Q 23.390625 13.03125 26.40625 8.5625 
Q 29.4375 4.109375 36.1875 4.109375 
Q 41.796875 4.109375 45.265625 7.078125 
Q 48.734375 10.0625 49.703125 15.71875 
L 57.8125 15.71875 
Q 55.71875 6.890625 49.46875 2.734375 
Q 43.21875 -1.421875 31.984375 -1.421875 
Q 18.5 -1.421875 11.296875 5.6875 
Q 4.109375 12.796875 4.109375 25.984375 
Q 4.109375 38.875 11.46875 46.09375 
Q 18.84375 53.328125 31.984375 53.328125 
Q 44.875 53.328125 51.75 45.734375 
Q 58.640625 38.140625 59.078125 23.484375 
z
" id="DejaVuSerif-Bold-65"/>
     <path d="M 60.203125 46 
L 60.203125 0.6875 
Q 60.203125 -10.25 52.40625 -16.234375 
Q 44.625 -22.21875 30.421875 -22.21875 
Q 25.25 -22.21875 19.921875 -21.40625 
Q 14.59375 -20.609375 8.984375 -19 
L 8.984375 -6.59375 
L 14.5 -6.59375 
Q 15.234375 -11.71875 18.625 -14.203125 
Q 22.015625 -16.703125 28.328125 -16.703125 
Q 36.328125 -16.703125 39.625 -12.859375 
Q 42.921875 -9.03125 42.921875 0.6875 
L 42.921875 6.59375 
Q 40.71875 2.546875 36.984375 0.5625 
Q 33.25 -1.421875 27.78125 -1.421875 
Q 16.75 -1.421875 10.421875 5.90625 
Q 4.109375 13.234375 4.109375 25.984375 
Q 4.109375 38.765625 10.421875 46.046875 
Q 16.75 53.328125 27.78125 53.328125 
Q 33.25 53.328125 36.984375 51.34375 
Q 40.71875 49.359375 42.921875 45.3125 
L 42.921875 51.90625 
L 67.578125 51.90625 
L 67.578125 46 
z
M 42.921875 28.515625 
Q 42.921875 37.59375 40.578125 41.640625 
Q 38.234375 45.703125 33.109375 45.703125 
Q 27.734375 45.703125 25.5625 41.421875 
Q 23.390625 37.15625 23.390625 25.984375 
Q 23.390625 14.796875 25.578125 10.5 
Q 27.78125 6.203125 33.109375 6.203125 
Q 38.234375 6.203125 40.578125 10.25 
Q 42.921875 14.3125 42.921875 23.390625 
z
" id="DejaVuSerif-Bold-67"/>
     <path d="M 1.3125 -9.625 
Q 6.390625 -5.515625 8.78125 -0.4375 
Q 11.1875 4.640625 11.1875 11.375 
L 11.1875 15.578125 
L 25.09375 15.578125 
L 25.09375 15.1875 
Q 25.09375 4.390625 20.578125 -3.390625 
Q 16.0625 -11.1875 6.6875 -16.5 
z
" id="DejaVuSerif-Bold-2c"/>
     <path d="M 10.59375 25.78125 
L 73.1875 25.78125 
L 73.1875 14.703125 
L 10.59375 14.703125 
z
M 10.59375 48 
L 73.1875 48 
L 73.1875 36.921875 
L 10.59375 36.921875 
z
" id="DejaVuSerif-Bold-3d"/>
     <path d="M 34.078125 68.5 
Q 29.046875 68.5 26.921875 64.234375 
Q 24.8125 59.96875 24.8125 49.421875 
Q 24.8125 38.875 26.921875 34.59375 
Q 29.046875 30.328125 34.078125 30.328125 
Q 39.109375 30.328125 41.25 34.59375 
Q 43.40625 38.875 43.40625 49.421875 
Q 43.40625 59.96875 41.25 64.234375 
Q 39.109375 68.5 34.078125 68.5 
z
M 44.96875 29.6875 
Q 41.75 27.09375 37.8125 25.796875 
Q 33.890625 24.515625 29.296875 24.515625 
Q 18.171875 24.515625 11.796875 31.03125 
Q 5.421875 37.546875 5.421875 49.03125 
Q 5.421875 61.140625 12.546875 67.671875 
Q 19.671875 74.21875 32.90625 74.21875 
Q 47.859375 74.21875 55.5625 65.1875 
Q 63.28125 56.15625 63.28125 38.71875 
Q 63.28125 18.84375 54.734375 8.703125 
Q 46.1875 -1.421875 29.390625 -1.421875 
Q 25 -1.421875 19.96875 -0.6875 
Q 14.9375 0.046875 9.1875 1.515625 
L 9.1875 14.40625 
L 15.09375 14.40625 
Q 16.3125 9.421875 19.703125 6.859375 
Q 23.09375 4.296875 28.515625 4.296875 
Q 37.109375 4.296875 41.015625 10.28125 
Q 44.921875 16.265625 44.96875 29.6875 
z
" id="DejaVuSerif-Bold-39"/>
    </defs>
    <g style="fill:#ff0000;" transform="translate(336.083093 241.797057)rotate(-27.4522)scale(0.16 -0.16)">
     <use xlink:href="#DejaVuSerif-Bold-52"/>
     <use x="83.105469" xlink:href="#DejaVuSerif-Bold-65"/>
     <use x="146.728516" xlink:href="#DejaVuSerif-Bold-74"/>
     <use x="192.919922" xlink:href="#DejaVuSerif-Bold-72"/>
     <use x="245.605469" xlink:href="#DejaVuSerif-Bold-6f"/>
     <use x="312.304688" xlink:href="#DejaVuSerif-Bold-67"/>
     <use x="382.226562" xlink:href="#DejaVuSerif-Bold-72"/>
     <use x="434.912109" xlink:href="#DejaVuSerif-Bold-61"/>
     <use x="499.707031" xlink:href="#DejaVuSerif-Bold-64"/>
     <use x="569.628906" xlink:href="#DejaVuSerif-Bold-65"/>
     <use x="633.251953" xlink:href="#DejaVuSerif-Bold-2c"/>
     <use x="668.066406" xlink:href="#DejaVuSerif-Bold-20"/>
     <use x="702.880859" xlink:href="#DejaVuSerif-Bold-65"/>
     <use x="766.503906" xlink:href="#DejaVuSerif-Bold-3d"/>
     <use x="850.292969" xlink:href="#DejaVuSerif-Bold-30"/>
     <use x="919.873047" xlink:href="#DejaVuSerif-Bold-2e"/>
     <use x="954.6875" xlink:href="#DejaVuSerif-Bold-39"/>
    </g>
   </g>
   <g id="text_14">
    <g id="patch_4">
     <path d="M 373.729982 153.578956 
L 526.779982 153.578956 
L 526.779982 129.866456 
L 373.729982 129.866456 
z
" style="fill:#ffffff;opacity:0.1;stroke:#ffffff;stroke-linejoin:miter;"/>
    </g>
    <!-- Prograde, e=0.9 -->
    <g transform="translate(377.729982 146.023956)scale(0.16 -0.16)">
     <use xlink:href="#DejaVuSerif-Bold-50"/>
     <use x="75.195312" xlink:href="#DejaVuSerif-Bold-72"/>
     <use x="127.880859" xlink:href="#DejaVuSerif-Bold-6f"/>
     <use x="194.580078" xlink:href="#DejaVuSerif-Bold-67"/>
     <use x="264.501953" xlink:href="#DejaVuSerif-Bold-72"/>
     <use x="317.1875" xlink:href="#DejaVuSerif-Bold-61"/>
     <use x="381.982422" xlink:href="#DejaVuSerif-Bold-64"/>
     <use x="451.904297" xlink:href="#DejaVuSerif-Bold-65"/>
     <use x="515.527344" xlink:href="#DejaVuSerif-Bold-2c"/>
     <use x="550.341797" xlink:href="#DejaVuSerif-Bold-20"/>
     <use x="585.15625" xlink:href="#DejaVuSerif-Bold-65"/>
     <use x="648.779297" xlink:href="#DejaVuSerif-Bold-3d"/>
     <use x="732.568359" xlink:href="#DejaVuSerif-Bold-30"/>
     <use x="802.148438" xlink:href="#DejaVuSerif-Bold-2e"/>
     <use x="836.962891" xlink:href="#DejaVuSerif-Bold-39"/>
    </g>
   </g>
   <g id="text_15">
    <g id="patch_5">
     <path d="M 153.941516 105.919478 
L 307.558589 127.905912 
L 310.918203 104.432616 
L 157.30113 82.446181 
z
" style="fill:#ffffff;opacity:0.1;stroke:#ffffff;stroke-linejoin:miter;"/>
    </g>
    <!-- Retrograde, e=0 -->
    <g style="fill:#ff0000;" transform="translate(158.971566 99.007415)rotate(-351.854861)scale(0.16 -0.16)">
     <use xlink:href="#DejaVuSerif-Bold-52"/>
     <use x="83.105469" xlink:href="#DejaVuSerif-Bold-65"/>
     <use x="146.728516" xlink:href="#DejaVuSerif-Bold-74"/>
     <use x="192.919922" xlink:href="#DejaVuSerif-Bold-72"/>
     <use x="245.605469" xlink:href="#DejaVuSerif-Bold-6f"/>
     <use x="312.304688" xlink:href="#DejaVuSerif-Bold-67"/>
     <use x="382.226562" xlink:href="#DejaVuSerif-Bold-72"/>
     <use x="434.912109" xlink:href="#DejaVuSerif-Bold-61"/>
     <use x="499.707031" xlink:href="#DejaVuSerif-Bold-64"/>
     <use x="569.628906" xlink:href="#DejaVuSerif-Bold-65"/>
     <use x="633.251953" xlink:href="#DejaVuSerif-Bold-2c"/>
     <use x="668.066406" xlink:href="#DejaVuSerif-Bold-20"/>
     <use x="702.880859" xlink:href="#DejaVuSerif-Bold-65"/>
     <use x="766.503906" xlink:href="#DejaVuSerif-Bold-3d"/>
     <use x="850.292969" xlink:href="#DejaVuSerif-Bold-30"/>
    </g>
   </g>
   <g id="text_16">
    <g id="patch_6">
     <path d="M 157.013276 79.758752 
L 292.401194 63.610929 
L 289.59289 40.065312 
L 154.204971 56.213135 
z
" style="fill:#ffffff;opacity:0.1;stroke:#ffffff;stroke-linejoin:miter;"/>
    </g>
    <!-- Prograde, e=0 -->
    <g transform="translate(160.090375 71.783197)rotate(-6.801582)scale(0.16 -0.16)">
     <use xlink:href="#DejaVuSerif-Bold-50"/>
     <use x="75.195312" xlink:href="#DejaVuSerif-Bold-72"/>
     <use x="127.880859" xlink:href="#DejaVuSerif-Bold-6f"/>
     <use x="194.580078" xlink:href="#DejaVuSerif-Bold-67"/>
     <use x="264.501953" xlink:href="#DejaVuSerif-Bold-72"/>
     <use x="317.1875" xlink:href="#DejaVuSerif-Bold-61"/>
     <use x="381.982422" xlink:href="#DejaVuSerif-Bold-64"/>
     <use x="451.904297" xlink:href="#DejaVuSerif-Bold-65"/>
     <use x="515.527344" xlink:href="#DejaVuSerif-Bold-2c"/>
     <use x="550.341797" xlink:href="#DejaVuSerif-Bold-20"/>
     <use x="585.15625" xlink:href="#DejaVuSerif-Bold-65"/>
     <use x="648.779297" xlink:href="#DejaVuSerif-Bold-3d"/>
     <use x="732.568359" xlink:href="#DejaVuSerif-Bold-30"/>
    </g>
   </g>
   <g id="patch_7">
    <path d="M 76.541875 395.28 
L 76.541875 7.2 
" style="fill:none;stroke:#333333;stroke-linecap:square;stroke-linejoin:miter;stroke-width:0.8;"/>
   </g>
   <g id="patch_8">
    <path d="M 634.541875 395.28 
L 634.541875 7.2 
" style="fill:none;stroke:#333333;stroke-linecap:square;stroke-linejoin:miter;stroke-width:0.8;"/>
   </g>
   <g id="patch_9">
    <path d="M 76.541875 395.28 
L 634.541875 395.28 
" style="fill:none;stroke:#333333;stroke-linecap:square;stroke-linejoin:miter;stroke-width:0.8;"/>
   </g>
   <g id="patch_10">
    <path d="M 76.541875 7.2 
L 634.541875 7.2 
" style="fill:none;stroke:#333333;stroke-linecap:square;stroke-linejoin:miter;stroke-width:0.8;"/>
   </g>
  </g>
 </g>
 <defs>
  <clipPath id="pdd38591bf5">
   <rect height="388.08" width="558" x="76.541875" y="7.2"/>
  </clipPath>
 </defs>
</svg>
