<?xml version="1.0" encoding="utf-8" standalone="no"?>
<!DOCTYPE svg PUBLIC "-//W3C//DTD SVG 1.1//EN"
  "http://www.w3.org/Graphics/SVG/1.1/DTD/svg11.dtd">
<!-- Created with matplotlib (https://matplotlib.org/) -->
<svg height="626.4pt" version="1.1" viewBox="0 0 1166.4 626.4" width="1166.4pt" xmlns="http://www.w3.org/2000/svg" xmlns:xlink="http://www.w3.org/1999/xlink">
 <defs>
  <style type="text/css">
*{stroke-linecap:butt;stroke-linejoin:round;}
  </style>
 </defs>
 <g id="figure_1">
  <g id="patch_1">
   <path d="M 0 626.4 
L 1166.4 626.4 
L 1166.4 0 
L 0 0 
z
" style="fill:#ffffff;"/>
  </g>
  <g id="axes_1">
   <g id="patch_2">
    <path d="M 68.7275 567.180625 
L 1159.2 567.180625 
L 1159.2 7.2 
L 68.7275 7.2 
z
" style="fill:#ffffff;"/>
   </g>
   <g id="patch_3">
    <path clip-path="url(#p28344b7a42)" d="M 118.294432 567.180625 
L 167.861364 567.180625 
L 167.861364 553.505884 
L 118.294432 553.505884 
z
" style="fill:none;stroke:#ff0000;stroke-linejoin:miter;stroke-width:2;"/>
   </g>
   <g id="patch_4">
    <path clip-path="url(#p28344b7a42)" d="M 167.861364 567.180625 
L 217.428295 567.180625 
L 217.428295 416.758479 
L 167.861364 416.758479 
z
" style="fill:none;stroke:#ff0000;stroke-linejoin:miter;stroke-width:2;"/>
   </g>
   <g id="patch_5">
    <path clip-path="url(#p28344b7a42)" d="M 217.428295 567.180625 
L 266.995227 567.180625 
L 266.995227 471.457441 
L 217.428295 471.457441 
z
" style="fill:none;stroke:#ff0000;stroke-linejoin:miter;stroke-width:2;"/>
   </g>
   <g id="patch_6">
    <path clip-path="url(#p28344b7a42)" d="M 266.995227 567.180625 
L 316.562159 567.180625 
L 316.562159 457.782701 
L 266.995227 457.782701 
z
" style="fill:none;stroke:#ff0000;stroke-linejoin:miter;stroke-width:2;"/>
   </g>
   <g id="patch_7">
    <path clip-path="url(#p28344b7a42)" d="M 316.562159 567.180625 
L 366.129091 567.180625 
L 366.129091 430.43322 
L 316.562159 430.43322 
z
" style="fill:none;stroke:#ff0000;stroke-linejoin:miter;stroke-width:2;"/>
   </g>
   <g id="patch_8">
    <path clip-path="url(#p28344b7a42)" d="M 366.129091 567.180625 
L 415.696023 567.180625 
L 415.696023 293.685814 
L 366.129091 293.685814 
z
" style="fill:none;stroke:#ff0000;stroke-linejoin:miter;stroke-width:2;"/>
   </g>
   <g id="patch_9">
    <path clip-path="url(#p28344b7a42)" d="M 415.696023 567.180625 
L 465.262955 567.180625 
L 465.262955 403.083739 
L 415.696023 403.083739 
z
" style="fill:none;stroke:#ff0000;stroke-linejoin:miter;stroke-width:2;"/>
   </g>
   <g id="patch_10">
    <path clip-path="url(#p28344b7a42)" d="M 465.262955 567.180625 
L 514.829886 567.180625 
L 514.829886 321.035295 
L 465.262955 321.035295 
z
" style="fill:none;stroke:#ff0000;stroke-linejoin:miter;stroke-width:2;"/>
   </g>
   <g id="patch_11">
    <path clip-path="url(#p28344b7a42)" d="M 514.829886 567.180625 
L 564.396818 567.180625 
L 564.396818 362.059517 
L 514.829886 362.059517 
z
" style="fill:none;stroke:#ff0000;stroke-linejoin:miter;stroke-width:2;"/>
   </g>
   <g id="patch_12">
    <path clip-path="url(#p28344b7a42)" d="M 564.396818 567.180625 
L 613.96375 567.180625 
L 613.96375 375.734257 
L 564.396818 375.734257 
z
" style="fill:none;stroke:#ff0000;stroke-linejoin:miter;stroke-width:2;"/>
   </g>
   <g id="patch_13">
    <path clip-path="url(#p28344b7a42)" d="M 613.96375 567.180625 
L 663.530682 567.180625 
L 663.530682 389.408998 
L 613.96375 389.408998 
z
" style="fill:none;stroke:#ff0000;stroke-linejoin:miter;stroke-width:2;"/>
   </g>
   <g id="patch_14">
    <path clip-path="url(#p28344b7a42)" d="M 663.530682 567.180625 
L 713.097614 567.180625 
L 713.097614 389.408998 
L 663.530682 389.408998 
z
" style="fill:none;stroke:#ff0000;stroke-linejoin:miter;stroke-width:2;"/>
   </g>
   <g id="patch_15">
    <path clip-path="url(#p28344b7a42)" d="M 713.097614 567.180625 
L 762.664545 567.180625 
L 762.664545 471.457441 
L 713.097614 471.457441 
z
" style="fill:none;stroke:#ff0000;stroke-linejoin:miter;stroke-width:2;"/>
   </g>
   <g id="patch_16">
    <path clip-path="url(#p28344b7a42)" d="M 762.664545 567.180625 
L 812.231477 567.180625 
L 812.231477 444.10796 
L 762.664545 444.10796 
z
" style="fill:none;stroke:#ff0000;stroke-linejoin:miter;stroke-width:2;"/>
   </g>
   <g id="patch_17">
    <path clip-path="url(#p28344b7a42)" d="M 812.231477 567.180625 
L 861.798409 567.180625 
L 861.798409 485.132182 
L 812.231477 485.132182 
z
" style="fill:none;stroke:#ff0000;stroke-linejoin:miter;stroke-width:2;"/>
   </g>
   <g id="patch_18">
    <path clip-path="url(#p28344b7a42)" d="M 861.798409 567.180625 
L 911.365341 567.180625 
L 911.365341 539.831144 
L 861.798409 539.831144 
z
" style="fill:none;stroke:#ff0000;stroke-linejoin:miter;stroke-width:2;"/>
   </g>
   <g id="patch_19">
    <path clip-path="url(#p28344b7a42)" d="M 911.365341 567.180625 
L 960.932273 567.180625 
L 960.932273 539.831144 
L 911.365341 539.831144 
z
" style="fill:none;stroke:#ff0000;stroke-linejoin:miter;stroke-width:2;"/>
   </g>
   <g id="patch_20">
    <path clip-path="url(#p28344b7a42)" d="M 960.932273 567.180625 
L 1010.499205 567.180625 
L 1010.499205 512.481663 
L 960.932273 512.481663 
z
" style="fill:none;stroke:#ff0000;stroke-linejoin:miter;stroke-width:2;"/>
   </g>
   <g id="patch_21">
    <path clip-path="url(#p28344b7a42)" d="M 1010.499205 567.180625 
L 1060.066136 567.180625 
L 1060.066136 539.831144 
L 1010.499205 539.831144 
z
" style="fill:none;stroke:#ff0000;stroke-linejoin:miter;stroke-width:2;"/>
   </g>
   <g id="patch_22">
    <path clip-path="url(#p28344b7a42)" d="M 1060.066136 567.180625 
L 1109.633068 567.180625 
L 1109.633068 526.156403 
L 1060.066136 526.156403 
z
" style="fill:none;stroke:#ff0000;stroke-linejoin:miter;stroke-width:2;"/>
   </g>
   <g id="patch_23">
    <path clip-path="url(#p28344b7a42)" d="M 118.294432 553.505884 
L 167.861364 553.505884 
L 167.861364 485.132182 
L 118.294432 485.132182 
z
" style="fill:none;stroke:#0000ff;stroke-linejoin:miter;stroke-width:3;"/>
   </g>
   <g id="patch_24">
    <path clip-path="url(#p28344b7a42)" d="M 167.861364 416.758479 
L 217.428295 416.758479 
L 217.428295 266.336333 
L 167.861364 266.336333 
z
" style="fill:none;stroke:#0000ff;stroke-linejoin:miter;stroke-width:3;"/>
   </g>
   <g id="patch_25">
    <path clip-path="url(#p28344b7a42)" d="M 217.428295 471.457441 
L 266.995227 471.457441 
L 266.995227 348.384776 
L 217.428295 348.384776 
z
" style="fill:none;stroke:#0000ff;stroke-linejoin:miter;stroke-width:3;"/>
   </g>
   <g id="patch_26">
    <path clip-path="url(#p28344b7a42)" d="M 266.995227 457.782701 
L 316.562159 457.782701 
L 316.562159 156.938409 
L 266.995227 156.938409 
z
" style="fill:none;stroke:#0000ff;stroke-linejoin:miter;stroke-width:3;"/>
   </g>
   <g id="patch_27">
    <path clip-path="url(#p28344b7a42)" d="M 316.562159 430.43322 
L 366.129091 430.43322 
L 366.129091 88.564706 
L 316.562159 88.564706 
z
" style="fill:none;stroke:#0000ff;stroke-linejoin:miter;stroke-width:3;"/>
   </g>
   <g id="patch_28">
    <path clip-path="url(#p28344b7a42)" d="M 366.129091 293.685814 
L 415.696023 293.685814 
L 415.696023 47.540485 
L 366.129091 47.540485 
z
" style="fill:none;stroke:#0000ff;stroke-linejoin:miter;stroke-width:3;"/>
   </g>
   <g id="patch_29">
    <path clip-path="url(#p28344b7a42)" d="M 415.696023 403.083739 
L 465.262955 403.083739 
L 465.262955 129.588928 
L 415.696023 129.588928 
z
" style="fill:none;stroke:#0000ff;stroke-linejoin:miter;stroke-width:3;"/>
   </g>
   <g id="patch_30">
    <path clip-path="url(#p28344b7a42)" d="M 465.262955 321.035295 
L 514.829886 321.035295 
L 514.829886 33.865744 
L 465.262955 33.865744 
z
" style="fill:none;stroke:#0000ff;stroke-linejoin:miter;stroke-width:3;"/>
   </g>
   <g id="patch_31">
    <path clip-path="url(#p28344b7a42)" d="M 514.829886 362.059517 
L 564.396818 362.059517 
L 564.396818 61.215225 
L 514.829886 61.215225 
z
" style="fill:none;stroke:#0000ff;stroke-linejoin:miter;stroke-width:3;"/>
   </g>
   <g id="patch_32">
    <path clip-path="url(#p28344b7a42)" d="M 564.396818 375.734257 
L 613.96375 375.734257 
L 613.96375 238.986852 
L 564.396818 238.986852 
z
" style="fill:none;stroke:#0000ff;stroke-linejoin:miter;stroke-width:3;"/>
   </g>
   <g id="patch_33">
    <path clip-path="url(#p28344b7a42)" d="M 613.96375 389.408998 
L 663.530682 389.408998 
L 663.530682 211.637371 
L 613.96375 211.637371 
z
" style="fill:none;stroke:#0000ff;stroke-linejoin:miter;stroke-width:3;"/>
   </g>
   <g id="patch_34">
    <path clip-path="url(#p28344b7a42)" d="M 663.530682 389.408998 
L 713.097614 389.408998 
L 713.097614 252.661593 
L 663.530682 252.661593 
z
" style="fill:none;stroke:#0000ff;stroke-linejoin:miter;stroke-width:3;"/>
   </g>
   <g id="patch_35">
    <path clip-path="url(#p28344b7a42)" d="M 713.097614 471.457441 
L 762.664545 471.457441 
L 762.664545 362.059517 
L 713.097614 362.059517 
z
" style="fill:none;stroke:#0000ff;stroke-linejoin:miter;stroke-width:3;"/>
   </g>
   <g id="patch_36">
    <path clip-path="url(#p28344b7a42)" d="M 762.664545 444.10796 
L 812.231477 444.10796 
L 812.231477 403.083739 
L 762.664545 403.083739 
z
" style="fill:none;stroke:#0000ff;stroke-linejoin:miter;stroke-width:3;"/>
   </g>
   <g id="patch_37">
    <path clip-path="url(#p28344b7a42)" d="M 812.231477 485.132182 
L 861.798409 485.132182 
L 861.798409 389.408998 
L 812.231477 389.408998 
z
" style="fill:none;stroke:#0000ff;stroke-linejoin:miter;stroke-width:3;"/>
   </g>
   <g id="patch_38">
    <path clip-path="url(#p28344b7a42)" d="M 861.798409 539.831144 
L 911.365341 539.831144 
L 911.365341 471.457441 
L 861.798409 471.457441 
z
" style="fill:none;stroke:#0000ff;stroke-linejoin:miter;stroke-width:3;"/>
   </g>
   <g id="patch_39">
    <path clip-path="url(#p28344b7a42)" d="M 911.365341 539.831144 
L 960.932273 539.831144 
L 960.932273 512.481663 
L 911.365341 512.481663 
z
" style="fill:none;stroke:#0000ff;stroke-linejoin:miter;stroke-width:3;"/>
   </g>
   <g id="patch_40">
    <path clip-path="url(#p28344b7a42)" d="M 960.932273 512.481663 
L 1010.499205 512.481663 
L 1010.499205 485.132182 
L 960.932273 485.132182 
z
" style="fill:none;stroke:#0000ff;stroke-linejoin:miter;stroke-width:3;"/>
   </g>
   <g id="patch_41">
    <path clip-path="url(#p28344b7a42)" d="M 1010.499205 539.831144 
L 1060.066136 539.831144 
L 1060.066136 498.806922 
L 1010.499205 498.806922 
z
" style="fill:none;stroke:#0000ff;stroke-linejoin:miter;stroke-width:3;"/>
   </g>
   <g id="patch_42">
    <path clip-path="url(#p28344b7a42)" d="M 1060.066136 526.156403 
L 1109.633068 526.156403 
L 1109.633068 526.156403 
L 1060.066136 526.156403 
z
" style="fill:none;stroke:#0000ff;stroke-linejoin:miter;stroke-width:3;"/>
   </g>
   <g id="matplotlib.axis_1">
    <g id="xtick_1">
     <g id="line2d_1">
      <defs>
       <path d="M 0 0 
L 0 -6 
" id="m6a371a2aba" style="stroke:#333333;stroke-width:0.8;"/>
      </defs>
      <g>
       <use style="fill:#333333;stroke:#333333;stroke-width:0.8;" x="118.294432" xlink:href="#m6a371a2aba" y="567.180625"/>
      </g>
     </g>
     <g id="text_1">
      <!-- $\mathdefault{0.0}$ -->
      <defs>
       <path d="M 34.8125 4.296875 
Q 40.671875 4.296875 42.84375 9.609375 
Q 45.015625 14.9375 45.015625 36.375 
Q 45.015625 57.671875 42.84375 63.078125 
Q 40.671875 68.5 34.8125 68.5 
Q 28.953125 68.5 26.78125 63.171875 
Q 24.609375 57.859375 24.609375 36.375 
Q 24.609375 14.9375 26.78125 9.609375 
Q 28.953125 4.296875 34.8125 4.296875 
z
M 34.8125 -1.421875 
Q 20.21875 -1.421875 12.453125 8.3125 
Q 4.6875 18.0625 4.6875 36.375 
Q 4.6875 54.6875 12.453125 64.453125 
Q 20.21875 74.21875 34.8125 74.21875 
Q 49.359375 74.21875 57.125 64.453125 
Q 64.890625 54.6875 64.890625 36.375 
Q 64.890625 18.0625 57.125 8.3125 
Q 49.359375 -1.421875 34.8125 -1.421875 
z
" id="DejaVuSerif-Bold-48"/>
       <path d="M 8.109375 7.90625 
Q 8.109375 11.71875 10.84375 14.453125 
Q 13.578125 17.1875 17.390625 17.1875 
Q 21.234375 17.1875 23.96875 14.453125 
Q 26.703125 11.71875 26.703125 7.90625 
Q 26.703125 4.046875 23.96875 1.3125 
Q 21.234375 -1.421875 17.390625 -1.421875 
Q 13.578125 -1.421875 10.84375 1.3125 
Q 8.109375 4.046875 8.109375 7.90625 
z
" id="DejaVuSerif-Bold-46"/>
      </defs>
      <g style="fill:#333333;" transform="translate(99.154432 587.397187)scale(0.22 -0.22)">
       <use transform="translate(0 0.78125)" xlink:href="#DejaVuSerif-Bold-48"/>
       <use transform="translate(69.580078 0.78125)" xlink:href="#DejaVuSerif-Bold-46"/>
       <use transform="translate(104.394531 0.78125)" xlink:href="#DejaVuSerif-Bold-48"/>
      </g>
     </g>
    </g>
    <g id="xtick_2">
     <g id="line2d_2">
      <g>
       <use style="fill:#333333;stroke:#333333;stroke-width:0.8;" x="316.562159" xlink:href="#m6a371a2aba" y="567.180625"/>
      </g>
     </g>
     <g id="text_2">
      <!-- $\mathdefault{0.2}$ -->
      <defs>
       <path d="M 13.1875 54.890625 
L 7.328125 54.890625 
L 7.328125 70.609375 
Q 13.28125 72.40625 19.109375 73.3125 
Q 24.953125 74.21875 30.90625 74.21875 
Q 44.828125 74.21875 52.609375 68.53125 
Q 60.40625 62.84375 60.40625 52.6875 
Q 60.40625 45.453125 56.109375 39.71875 
Q 51.8125 33.984375 39.703125 26.125 
L 19.390625 12.796875 
L 53.90625 12.796875 
L 53.90625 21.390625 
L 60.59375 21.390625 
L 60.59375 0 
L 6.6875 0 
L 6.6875 11.921875 
L 17.484375 19.390625 
Q 31.296875 28.90625 35.890625 35.59375 
Q 40.484375 42.28125 40.484375 51.21875 
Q 40.484375 59.671875 36.984375 64.078125 
Q 33.5 68.5 26.8125 68.5 
Q 21.046875 68.5 17.578125 65.015625 
Q 14.109375 61.53125 13.1875 54.890625 
z
" id="DejaVuSerif-Bold-50"/>
      </defs>
      <g style="fill:#333333;" transform="translate(297.422159 587.397187)scale(0.22 -0.22)">
       <use transform="translate(0 0.78125)" xlink:href="#DejaVuSerif-Bold-48"/>
       <use transform="translate(69.580078 0.78125)" xlink:href="#DejaVuSerif-Bold-46"/>
       <use transform="translate(104.363281 0.78125)" xlink:href="#DejaVuSerif-Bold-50"/>
      </g>
     </g>
    </g>
    <g id="xtick_3">
     <g id="line2d_3">
      <g>
       <use style="fill:#333333;stroke:#333333;stroke-width:0.8;" x="514.829886" xlink:href="#m6a371a2aba" y="567.180625"/>
      </g>
     </g>
     <g id="text_3">
      <!-- $\mathdefault{0.4}$ -->
      <defs>
       <path d="M 63.8125 0 
L 23.6875 0 
L 23.6875 5.90625 
L 34.515625 5.90625 
L 34.515625 19.1875 
L 4.109375 19.1875 
L 4.109375 24.8125 
L 34.625 74.21875 
L 52.984375 74.21875 
L 52.984375 25.484375 
L 65.484375 25.484375 
L 65.484375 19.1875 
L 52.984375 19.1875 
L 52.984375 5.90625 
L 63.8125 5.90625 
z
M 34.515625 25.484375 
L 34.515625 60.890625 
L 12.796875 25.484375 
z
" id="DejaVuSerif-Bold-52"/>
      </defs>
      <g style="fill:#333333;" transform="translate(495.689886 587.397187)scale(0.22 -0.22)">
       <use transform="translate(0 0.78125)" xlink:href="#DejaVuSerif-Bold-48"/>
       <use transform="translate(69.580078 0.78125)" xlink:href="#DejaVuSerif-Bold-46"/>
       <use transform="translate(104.394531 0.78125)" xlink:href="#DejaVuSerif-Bold-52"/>
      </g>
     </g>
    </g>
    <g id="xtick_4">
     <g id="line2d_4">
      <g>
       <use style="fill:#333333;stroke:#333333;stroke-width:0.8;" x="713.097614" xlink:href="#m6a371a2aba" y="567.180625"/>
      </g>
     </g>
     <g id="text_4">
      <!-- $\mathdefault{0.6}$ -->
      <defs>
       <path d="M 24.609375 43.21875 
Q 27.78125 45.75 31.703125 47.015625 
Q 35.640625 48.296875 40.28125 48.296875 
Q 51.46875 48.296875 57.828125 41.75 
Q 64.203125 35.203125 64.203125 23.78125 
Q 64.203125 11.71875 57.03125 5.140625 
Q 49.859375 -1.421875 36.625 -1.421875 
Q 21.6875 -1.421875 13.984375 7.59375 
Q 6.296875 16.609375 6.296875 34.078125 
Q 6.296875 53.953125 14.84375 64.078125 
Q 23.390625 74.21875 40.1875 74.21875 
Q 44.578125 74.21875 49.609375 73.484375 
Q 54.640625 72.75 60.40625 71.296875 
L 60.40625 58.40625 
L 54.5 58.40625 
Q 53.265625 63.375 49.875 65.9375 
Q 46.484375 68.5 41.109375 68.5 
Q 32.421875 68.5 28.53125 62.546875 
Q 24.65625 56.59375 24.609375 43.21875 
z
M 35.5 4.296875 
Q 40.53125 4.296875 42.671875 8.5625 
Q 44.828125 12.84375 44.828125 23.390625 
Q 44.828125 33.9375 42.671875 38.203125 
Q 40.53125 42.484375 35.5 42.484375 
Q 30.46875 42.484375 28.34375 38.203125 
Q 26.21875 33.9375 26.21875 23.390625 
Q 26.21875 12.84375 28.34375 8.5625 
Q 30.46875 4.296875 35.5 4.296875 
z
" id="DejaVuSerif-Bold-54"/>
      </defs>
      <g style="fill:#333333;" transform="translate(693.957614 587.397187)scale(0.22 -0.22)">
       <use transform="translate(0 0.78125)" xlink:href="#DejaVuSerif-Bold-48"/>
       <use transform="translate(69.580078 0.78125)" xlink:href="#DejaVuSerif-Bold-46"/>
       <use transform="translate(104.394531 0.78125)" xlink:href="#DejaVuSerif-Bold-54"/>
      </g>
     </g>
    </g>
    <g id="xtick_5">
     <g id="line2d_5">
      <g>
       <use style="fill:#333333;stroke:#333333;stroke-width:0.8;" x="911.365341" xlink:href="#m6a371a2aba" y="567.180625"/>
      </g>
     </g>
     <g id="text_5">
      <!-- $\mathdefault{0.8}$ -->
      <defs>
       <path d="M 46.484375 38.8125 
Q 55.171875 37.40625 59.6875 32.421875 
Q 64.203125 27.4375 64.203125 19.390625 
Q 64.203125 9.328125 56.609375 3.953125 
Q 49.03125 -1.421875 34.71875 -1.421875 
Q 20.40625 -1.421875 12.78125 3.953125 
Q 5.171875 9.328125 5.171875 19.390625 
Q 5.171875 27.4375 9.71875 32.421875 
Q 14.265625 37.40625 22.90625 38.8125 
Q 15.234375 40.578125 11.421875 44.703125 
Q 7.625 48.828125 7.625 55.171875 
Q 7.625 64.453125 14.546875 69.328125 
Q 21.484375 74.21875 34.71875 74.21875 
Q 47.90625 74.21875 54.859375 69.328125 
Q 61.8125 64.453125 61.8125 55.171875 
Q 61.8125 48.828125 57.984375 44.703125 
Q 54.15625 40.578125 46.484375 38.8125 
z
M 42.921875 54.984375 
Q 42.921875 62.703125 41.0625 65.59375 
Q 39.203125 68.5 34.71875 68.5 
Q 30.171875 68.5 28.34375 65.59375 
Q 26.515625 62.703125 26.515625 54.984375 
Q 26.515625 47.3125 28.34375 44.453125 
Q 30.171875 41.609375 34.71875 41.609375 
Q 39.265625 41.609375 41.09375 44.453125 
Q 42.921875 47.3125 42.921875 54.984375 
z
M 44.828125 20.21875 
Q 44.828125 29.15625 42.546875 32.515625 
Q 40.28125 35.890625 34.71875 35.890625 
Q 29.109375 35.890625 26.859375 32.515625 
Q 24.609375 29.15625 24.609375 20.21875 
Q 24.609375 11.1875 26.875 7.734375 
Q 29.15625 4.296875 34.71875 4.296875 
Q 40.234375 4.296875 42.53125 7.734375 
Q 44.828125 11.1875 44.828125 20.21875 
z
" id="DejaVuSerif-Bold-56"/>
      </defs>
      <g style="fill:#333333;" transform="translate(892.225341 587.397187)scale(0.22 -0.22)">
       <use transform="translate(0 0.78125)" xlink:href="#DejaVuSerif-Bold-48"/>
       <use transform="translate(69.580078 0.78125)" xlink:href="#DejaVuSerif-Bold-46"/>
       <use transform="translate(104.347656 0.78125)" xlink:href="#DejaVuSerif-Bold-56"/>
      </g>
     </g>
    </g>
    <g id="xtick_6">
     <g id="line2d_6">
      <g>
       <use style="fill:#333333;stroke:#333333;stroke-width:0.8;" x="1109.633068" xlink:href="#m6a371a2aba" y="567.180625"/>
      </g>
     </g>
     <g id="text_6">
      <!-- $\mathdefault{1.0}$ -->
      <defs>
       <path d="M 13.71875 0 
L 13.71875 5.90625 
L 27.390625 5.90625 
L 27.390625 64.890625 
L 12.203125 55.90625 
L 12.203125 63.1875 
L 30.515625 74.21875 
L 45.90625 74.21875 
L 45.90625 5.90625 
L 59.625 5.90625 
L 59.625 0 
z
" id="DejaVuSerif-Bold-49"/>
      </defs>
      <g style="fill:#333333;" transform="translate(1090.493068 587.397187)scale(0.22 -0.22)">
       <use transform="translate(0 0.78125)" xlink:href="#DejaVuSerif-Bold-49"/>
       <use transform="translate(69.580078 0.78125)" xlink:href="#DejaVuSerif-Bold-46"/>
       <use transform="translate(104.394531 0.78125)" xlink:href="#DejaVuSerif-Bold-48"/>
      </g>
     </g>
    </g>
    <g id="text_7">
     <!-- e -->
     <defs>
      <path d="M 40.09375 29.296875 
Q 40.09375 39.546875 38.1875 43.671875 
Q 36.28125 47.796875 31.6875 47.796875 
Q 27.25 47.796875 25.3125 43.75 
Q 23.390625 39.703125 23.390625 30.171875 
L 23.390625 29.296875 
z
M 59.078125 23.484375 
L 23.390625 23.484375 
L 23.390625 23.09375 
Q 23.390625 13.03125 26.40625 8.5625 
Q 29.4375 4.109375 36.1875 4.109375 
Q 41.796875 4.109375 45.265625 7.078125 
Q 48.734375 10.0625 49.703125 15.71875 
L 57.8125 15.71875 
Q 55.71875 6.890625 49.46875 2.734375 
Q 43.21875 -1.421875 31.984375 -1.421875 
Q 18.5 -1.421875 11.296875 5.6875 
Q 4.109375 12.796875 4.109375 25.984375 
Q 4.109375 38.875 11.46875 46.09375 
Q 18.84375 53.328125 31.984375 53.328125 
Q 44.875 53.328125 51.75 45.734375 
Q 58.640625 38.140625 59.078125 23.484375 
z
" id="DejaVuSerif-Bold-101"/>
     </defs>
     <g transform="translate(606.32875 614.20875)scale(0.24 -0.24)">
      <use xlink:href="#DejaVuSerif-Bold-101"/>
     </g>
    </g>
   </g>
   <g id="matplotlib.axis_2">
    <g id="ytick_1">
     <g id="line2d_7">
      <defs>
       <path d="M 0 0 
L 6 0 
" id="mbecf8e4d63" style="stroke:#333333;stroke-width:0.8;"/>
      </defs>
      <g>
       <use style="fill:#333333;stroke:#333333;stroke-width:0.8;" x="68.7275" xlink:href="#mbecf8e4d63" y="567.180625"/>
      </g>
     </g>
     <g id="text_8">
      <!-- $\mathdefault{0}$ -->
      <g style="fill:#333333;" transform="translate(49.8275 575.538906)scale(0.22 -0.22)">
       <use transform="translate(0 0.78125)" xlink:href="#DejaVuSerif-Bold-48"/>
      </g>
     </g>
    </g>
    <g id="ytick_2">
     <g id="line2d_8">
      <g>
       <use style="fill:#333333;stroke:#333333;stroke-width:0.8;" x="68.7275" xlink:href="#mbecf8e4d63" y="498.806922"/>
      </g>
     </g>
     <g id="text_9">
      <!-- $\mathdefault{5}$ -->
      <defs>
       <path d="M 56.390625 72.90625 
L 56.390625 60.109375 
L 17.390625 60.109375 
L 17.390625 44.09375 
Q 20.609375 46.578125 24.5625 47.84375 
Q 28.515625 49.125 32.90625 49.125 
Q 46.390625 49.125 54.203125 42.3125 
Q 62.015625 35.5 62.015625 23.78125 
Q 62.015625 11.859375 54.203125 5.21875 
Q 46.390625 -1.421875 32.328125 -1.421875 
Q 26.375 -1.421875 20.484375 -0.4375 
Q 14.59375 0.53125 8.203125 2.59375 
L 8.203125 18.5 
L 14.0625 18.5 
Q 14.359375 11.328125 17.796875 7.8125 
Q 21.234375 4.296875 27.984375 4.296875 
Q 35.15625 4.296875 38.625 9.109375 
Q 42.09375 13.921875 42.09375 23.78125 
Q 42.09375 33.5 38.6875 38.296875 
Q 35.296875 43.109375 28.421875 43.109375 
Q 24.703125 43.109375 21.796875 41.578125 
Q 18.890625 40.046875 16.40625 36.8125 
L 11.53125 36.8125 
L 11.53125 72.90625 
z
" id="DejaVuSerif-Bold-53"/>
      </defs>
      <g style="fill:#333333;" transform="translate(49.8275 507.165204)scale(0.22 -0.22)">
       <use transform="translate(0 0.09375)" xlink:href="#DejaVuSerif-Bold-53"/>
      </g>
     </g>
    </g>
    <g id="ytick_3">
     <g id="line2d_9">
      <g>
       <use style="fill:#333333;stroke:#333333;stroke-width:0.8;" x="68.7275" xlink:href="#mbecf8e4d63" y="430.43322"/>
      </g>
     </g>
     <g id="text_10">
      <!-- $\mathdefault{10}$ -->
      <g style="fill:#333333;" transform="translate(34.4275 438.791501)scale(0.22 -0.22)">
       <use transform="translate(0 0.78125)" xlink:href="#DejaVuSerif-Bold-49"/>
       <use transform="translate(69.580078 0.78125)" xlink:href="#DejaVuSerif-Bold-48"/>
      </g>
     </g>
    </g>
    <g id="ytick_4">
     <g id="line2d_10">
      <g>
       <use style="fill:#333333;stroke:#333333;stroke-width:0.8;" x="68.7275" xlink:href="#mbecf8e4d63" y="362.059517"/>
      </g>
     </g>
     <g id="text_11">
      <!-- $\mathdefault{15}$ -->
      <g style="fill:#333333;" transform="translate(34.4275 370.417798)scale(0.22 -0.22)">
       <use transform="translate(0 0.78125)" xlink:href="#DejaVuSerif-Bold-49"/>
       <use transform="translate(69.580078 0.78125)" xlink:href="#DejaVuSerif-Bold-53"/>
      </g>
     </g>
    </g>
    <g id="ytick_5">
     <g id="line2d_11">
      <g>
       <use style="fill:#333333;stroke:#333333;stroke-width:0.8;" x="68.7275" xlink:href="#mbecf8e4d63" y="293.685814"/>
      </g>
     </g>
     <g id="text_12">
      <!-- $\mathdefault{20}$ -->
      <g style="fill:#333333;" transform="translate(34.4275 302.044096)scale(0.22 -0.22)">
       <use transform="translate(0 0.78125)" xlink:href="#DejaVuSerif-Bold-50"/>
       <use transform="translate(69.580078 0.78125)" xlink:href="#DejaVuSerif-Bold-48"/>
      </g>
     </g>
    </g>
    <g id="ytick_6">
     <g id="line2d_12">
      <g>
       <use style="fill:#333333;stroke:#333333;stroke-width:0.8;" x="68.7275" xlink:href="#mbecf8e4d63" y="225.312112"/>
      </g>
     </g>
     <g id="text_13">
      <!-- $\mathdefault{25}$ -->
      <g style="fill:#333333;" transform="translate(34.4275 233.670393)scale(0.22 -0.22)">
       <use transform="translate(0 0.78125)" xlink:href="#DejaVuSerif-Bold-50"/>
       <use transform="translate(69.580078 0.78125)" xlink:href="#DejaVuSerif-Bold-53"/>
      </g>
     </g>
    </g>
    <g id="ytick_7">
     <g id="line2d_13">
      <g>
       <use style="fill:#333333;stroke:#333333;stroke-width:0.8;" x="68.7275" xlink:href="#mbecf8e4d63" y="156.938409"/>
      </g>
     </g>
     <g id="text_14">
      <!-- $\mathdefault{30}$ -->
      <defs>
       <path d="M 8.59375 70.796875 
Q 15.046875 72.515625 21.09375 73.359375 
Q 27.15625 74.21875 32.90625 74.21875 
Q 46.09375 74.21875 53.140625 69.5 
Q 60.203125 64.796875 60.203125 56 
Q 60.203125 49.421875 56.140625 45.3125 
Q 52.09375 41.21875 44.28125 39.796875 
Q 53.8125 38.28125 58.5 33.296875 
Q 63.1875 28.328125 63.1875 19.671875 
Q 63.1875 9.46875 55.09375 4.015625 
Q 47.015625 -1.421875 31.6875 -1.421875 
Q 25.921875 -1.421875 19.796875 -0.4375 
Q 13.671875 0.53125 6.984375 2.484375 
L 6.984375 18.5 
L 12.890625 18.5 
Q 13.421875 11.578125 17.234375 7.9375 
Q 21.046875 4.296875 27.78125 4.296875 
Q 35.203125 4.296875 39.25 8.421875 
Q 43.3125 12.546875 43.3125 20.125 
Q 43.3125 28.03125 39.078125 32.328125 
Q 34.859375 36.625 27.09375 36.625 
L 23.875 36.625 
L 23.875 42.484375 
L 26.421875 42.484375 
Q 33.59375 42.484375 37.203125 45.796875 
Q 40.828125 49.125 40.828125 55.71875 
Q 40.828125 61.921875 37.421875 65.203125 
Q 34.03125 68.5 27.6875 68.5 
Q 21.921875 68.5 18.546875 65.34375 
Q 15.1875 62.203125 14.5 56.203125 
L 8.59375 56.203125 
z
" id="DejaVuSerif-Bold-51"/>
      </defs>
      <g style="fill:#333333;" transform="translate(34.4275 165.29669)scale(0.22 -0.22)">
       <use transform="translate(0 0.78125)" xlink:href="#DejaVuSerif-Bold-51"/>
       <use transform="translate(69.580078 0.78125)" xlink:href="#DejaVuSerif-Bold-48"/>
      </g>
     </g>
    </g>
    <g id="ytick_8">
     <g id="line2d_14">
      <g>
       <use style="fill:#333333;stroke:#333333;stroke-width:0.8;" x="68.7275" xlink:href="#mbecf8e4d63" y="88.564706"/>
      </g>
     </g>
     <g id="text_15">
      <!-- $\mathdefault{35}$ -->
      <g style="fill:#333333;" transform="translate(34.4275 96.922987)scale(0.22 -0.22)">
       <use transform="translate(0 0.78125)" xlink:href="#DejaVuSerif-Bold-51"/>
       <use transform="translate(69.580078 0.78125)" xlink:href="#DejaVuSerif-Bold-53"/>
      </g>
     </g>
    </g>
    <g id="ytick_9">
     <g id="line2d_15">
      <g>
       <use style="fill:#333333;stroke:#333333;stroke-width:0.8;" x="68.7275" xlink:href="#mbecf8e4d63" y="20.191004"/>
      </g>
     </g>
     <g id="text_16">
      <!-- $\mathdefault{40}$ -->
      <g style="fill:#333333;" transform="translate(34.4275 28.549285)scale(0.22 -0.22)">
       <use transform="translate(0 0.78125)" xlink:href="#DejaVuSerif-Bold-52"/>
       <use transform="translate(69.580078 0.78125)" xlink:href="#DejaVuSerif-Bold-48"/>
      </g>
     </g>
    </g>
    <g id="text_17">
     <!-- N(e) -->
     <defs>
      <path d="M 4.390625 0 
L 4.390625 5.90625 
L 13.71875 5.90625 
L 13.71875 67 
L 4.390625 67 
L 4.390625 72.90625 
L 27.203125 72.90625 
L 71.1875 21.296875 
L 71.1875 67 
L 61.921875 67 
L 61.921875 72.90625 
L 87.40625 72.90625 
L 87.40625 67 
L 78.078125 67 
L 78.078125 0 
L 65.28125 0 
L 20.609375 52.6875 
L 20.609375 5.90625 
L 29.890625 5.90625 
L 29.890625 0 
z
" id="DejaVuSerif-Bold-78"/>
      <path d="M 42.09375 -15.578125 
Q 25.640625 -9.46875 17.53125 1.90625 
Q 9.421875 13.28125 9.421875 30.171875 
Q 9.421875 47.078125 17.421875 58.296875 
Q 25.4375 69.53125 42.09375 75.984375 
L 42.09375 70.125 
Q 34.375 65.4375 30.984375 56.21875 
Q 27.59375 47.015625 27.59375 30.171875 
Q 27.59375 13.375 30.984375 4.171875 
Q 34.375 -5.03125 42.09375 -9.71875 
z
" id="DejaVuSerif-Bold-40"/>
      <path d="M 5.078125 -15.578125 
L 5.078125 -9.71875 
Q 12.796875 -5.03125 16.1875 4.171875 
Q 19.578125 13.375 19.578125 30.171875 
Q 19.578125 47.015625 16.1875 56.21875 
Q 12.796875 65.4375 5.078125 70.125 
L 5.078125 75.984375 
Q 21.734375 69.53125 29.765625 58.296875 
Q 37.796875 47.078125 37.796875 30.171875 
Q 37.796875 13.28125 29.65625 1.90625 
Q 21.53125 -9.46875 5.078125 -15.578125 
z
" id="DejaVuSerif-Bold-41"/>
     </defs>
     <g transform="translate(25.43625 317.149062)rotate(-90)scale(0.24 -0.24)">
      <use xlink:href="#DejaVuSerif-Bold-78"/>
      <use x="91.40625" xlink:href="#DejaVuSerif-Bold-40"/>
      <use x="138.720703" xlink:href="#DejaVuSerif-Bold-101"/>
      <use x="202.34375" xlink:href="#DejaVuSerif-Bold-41"/>
     </g>
    </g>
   </g>
   <g id="patch_43">
    <path d="M 68.7275 567.180625 
L 68.7275 7.2 
" style="fill:none;stroke:#333333;stroke-linecap:square;stroke-linejoin:miter;stroke-width:0.8;"/>
   </g>
   <g id="patch_44">
    <path d="M 1159.2 567.180625 
L 1159.2 7.2 
" style="fill:none;stroke:#333333;stroke-linecap:square;stroke-linejoin:miter;stroke-width:0.8;"/>
   </g>
   <g id="patch_45">
    <path d="M 68.7275 567.180625 
L 1159.2 567.180625 
" style="fill:none;stroke:#333333;stroke-linecap:square;stroke-linejoin:miter;stroke-width:0.8;"/>
   </g>
   <g id="patch_46">
    <path d="M 68.7275 7.2 
L 1159.2 7.2 
" style="fill:none;stroke:#333333;stroke-linecap:square;stroke-linejoin:miter;stroke-width:0.8;"/>
   </g>
   <g id="text_18">
    <!-- $&lt;e&gt;_h=$0.37, $&lt;e&gt;_l=$0.42 -->
    <defs>
     <path d="M 73.1875 47.796875 
L 25.390625 31.296875 
L 73.1875 14.890625 
L 73.1875 3.21875 
L 10.59375 25.875 
L 10.59375 36.921875 
L 73.1875 59.515625 
z
" id="DejaVuSerif-Bold-60"/>
     <path d="M 10.59375 47.796875 
L 10.59375 59.515625 
L 73.1875 36.921875 
L 73.1875 25.875 
L 10.59375 3.21875 
L 10.59375 14.890625 
L 58.40625 31.296875 
z
" id="DejaVuSerif-Bold-62"/>
     <path d="M 3.421875 0 
L 3.421875 5.90625 
L 10.796875 5.90625 
L 10.796875 70.125 
L 3.078125 70.125 
L 3.078125 75.984375 
L 28.078125 75.984375 
L 28.078125 44.578125 
Q 31.203125 49.21875 35.203125 51.265625 
Q 39.203125 53.328125 45.3125 53.328125 
Q 54.046875 53.328125 58.515625 48.171875 
Q 62.984375 43.015625 62.984375 33.015625 
L 62.984375 5.90625 
L 70.40625 5.90625 
L 70.40625 0 
L 39.40625 0 
L 39.40625 5.90625 
L 45.703125 5.90625 
L 45.703125 33.5 
Q 45.703125 40.09375 44.015625 42.65625 
Q 42.328125 45.21875 38.1875 45.21875 
Q 32.953125 45.21875 30.515625 41.375 
Q 28.078125 37.546875 28.078125 29.203125 
L 28.078125 5.90625 
L 34.421875 5.90625 
L 34.421875 0 
z
" id="DejaVuSerif-Bold-104"/>
     <path d="M 10.59375 25.78125 
L 73.1875 25.78125 
L 73.1875 14.703125 
L 10.59375 14.703125 
z
M 10.59375 48 
L 73.1875 48 
L 73.1875 36.921875 
L 10.59375 36.921875 
z
" id="DejaVuSerif-Bold-61"/>
     <path d="M 61.28125 60.5 
L 31.203125 0 
L 21.296875 0 
L 50.59375 59.078125 
L 14.59375 59.078125 
L 14.59375 49.21875 
L 7.90625 49.21875 
L 7.90625 72.90625 
L 61.28125 72.90625 
z
" id="DejaVuSerif-Bold-55"/>
     <path d="M 1.3125 -9.625 
Q 6.390625 -5.515625 8.78125 -0.4375 
Q 11.1875 4.640625 11.1875 11.375 
L 11.1875 15.578125 
L 25.09375 15.578125 
L 25.09375 15.1875 
Q 25.09375 4.390625 20.578125 -3.390625 
Q 16.0625 -11.1875 6.6875 -16.5 
z
" id="DejaVuSerif-Bold-44"/>
     <path id="DejaVuSerif-Bold-32"/>
     <path d="M 28.078125 5.90625 
L 35.5 5.90625 
L 35.5 0 
L 3.421875 0 
L 3.421875 5.90625 
L 10.796875 5.90625 
L 10.796875 70.125 
L 3.421875 70.125 
L 3.421875 75.984375 
L 28.078125 75.984375 
z
" id="DejaVuSerif-Bold-108"/>
    </defs>
    <g transform="translate(79.632225 31.036056)scale(0.24 -0.24)">
     <use transform="translate(21.162109 0.78125)" xlink:href="#DejaVuSerif-Bold-60"/>
     <use transform="translate(126.113281 0.78125)" xlink:href="#DejaVuSerif-Bold-101"/>
     <use transform="translate(210.898438 0.78125)" xlink:href="#DejaVuSerif-Bold-62"/>
     <use transform="translate(316.757969 -14.790625)scale(0.7)" xlink:href="#DejaVuSerif-Bold-104"/>
     <use transform="translate(391.408945 0.78125)" xlink:href="#DejaVuSerif-Bold-61"/>
     <use transform="translate(496.360117 0.78125)" xlink:href="#DejaVuSerif-Bold-48"/>
     <use transform="translate(565.940195 0.78125)" xlink:href="#DejaVuSerif-Bold-46"/>
     <use transform="translate(600.754648 0.78125)" xlink:href="#DejaVuSerif-Bold-51"/>
     <use transform="translate(670.334727 0.78125)" xlink:href="#DejaVuSerif-Bold-55"/>
     <use transform="translate(739.914805 0.78125)" xlink:href="#DejaVuSerif-Bold-44"/>
     <use transform="translate(774.729258 0.78125)" xlink:href="#DejaVuSerif-Bold-32"/>
     <use transform="translate(830.70582 0.78125)" xlink:href="#DejaVuSerif-Bold-60"/>
     <use transform="translate(935.656992 0.78125)" xlink:href="#DejaVuSerif-Bold-101"/>
     <use transform="translate(1020.442148 0.78125)" xlink:href="#DejaVuSerif-Bold-62"/>
     <use transform="translate(1126.30168 -14.790625)scale(0.7)" xlink:href="#DejaVuSerif-Bold-108"/>
     <use transform="translate(1176.650898 0.78125)" xlink:href="#DejaVuSerif-Bold-61"/>
     <use transform="translate(1281.60207 0.78125)" xlink:href="#DejaVuSerif-Bold-48"/>
     <use transform="translate(1351.182148 0.78125)" xlink:href="#DejaVuSerif-Bold-46"/>
     <use transform="translate(1385.996602 0.78125)" xlink:href="#DejaVuSerif-Bold-52"/>
     <use transform="translate(1455.57668 0.78125)" xlink:href="#DejaVuSerif-Bold-50"/>
    </g>
    <!-- $&lt;e&gt;_{obs}=0.27 \pm 0.07$ (Yelda+2014) -->
    <defs>
     <path d="M 33.40625 4.109375 
Q 38.875 4.109375 41.09375 8.796875 
Q 43.3125 13.484375 43.3125 25.984375 
Q 43.3125 38.484375 41.109375 43.140625 
Q 38.921875 47.796875 33.40625 47.796875 
Q 27.875 47.796875 25.625 43.078125 
Q 23.390625 38.375 23.390625 25.984375 
Q 23.390625 13.578125 25.625 8.84375 
Q 27.875 4.109375 33.40625 4.109375 
z
M 33.40625 -1.421875 
Q 19.671875 -1.421875 11.890625 5.875 
Q 4.109375 13.1875 4.109375 25.984375 
Q 4.109375 38.8125 11.890625 46.0625 
Q 19.671875 53.328125 33.40625 53.328125 
Q 47.171875 53.328125 54.9375 46.0625 
Q 62.703125 38.8125 62.703125 25.984375 
Q 62.703125 13.1875 54.90625 5.875 
Q 47.125 -1.421875 33.40625 -1.421875 
z
" id="DejaVuSerif-Bold-111"/>
     <path d="M 9.71875 5.90625 
L 9.71875 70.125 
L 2.296875 70.125 
L 2.296875 75.984375 
L 27 75.984375 
L 27 45.3125 
Q 29.203125 49.359375 32.90625 51.34375 
Q 36.625 53.328125 42.09375 53.328125 
Q 53.171875 53.328125 59.546875 46.015625 
Q 65.921875 38.71875 65.921875 25.984375 
Q 65.921875 13.234375 59.546875 5.90625 
Q 53.171875 -1.421875 42.09375 -1.421875 
Q 36.625 -1.421875 32.90625 0.5625 
Q 29.203125 2.546875 27 6.59375 
L 27 0 
L 2.296875 0 
L 2.296875 5.90625 
z
M 27 23.390625 
Q 27 14.3125 29.3125 10.25 
Q 31.640625 6.203125 36.8125 6.203125 
Q 42.140625 6.203125 44.3125 10.5 
Q 46.484375 14.796875 46.484375 25.984375 
Q 46.484375 37.15625 44.3125 41.421875 
Q 42.140625 45.703125 36.8125 45.703125 
Q 31.640625 45.703125 29.3125 41.640625 
Q 27 37.59375 27 28.515625 
z
" id="DejaVuSerif-Bold-98"/>
     <path d="M 4.6875 1.515625 
L 4.6875 16.015625 
L 10.203125 16.015625 
Q 10.890625 10.203125 14.546875 7.15625 
Q 18.21875 4.109375 24.515625 4.109375 
Q 29.78125 4.109375 32.59375 5.9375 
Q 35.40625 7.765625 35.40625 11.1875 
Q 35.40625 14.3125 33.625 16.015625 
Q 31.84375 17.71875 26.703125 19 
L 19.578125 20.796875 
Q 11.53125 22.796875 7.90625 26.53125 
Q 4.296875 30.28125 4.296875 36.625 
Q 4.296875 45.0625 10.15625 49.1875 
Q 16.015625 53.328125 28.21875 53.328125 
Q 32.8125 53.328125 38.015625 52.5625 
Q 43.21875 51.8125 49.515625 50.203125 
L 49.515625 37.109375 
L 44 37.109375 
Q 43.5625 42.4375 40.203125 45.109375 
Q 36.859375 47.796875 30.609375 47.796875 
Q 25.34375 47.796875 22.625 46.109375 
Q 19.921875 44.4375 19.921875 41.21875 
Q 19.921875 38.578125 21.484375 37.0625 
Q 23.046875 35.546875 27.09375 34.515625 
L 34.1875 32.71875 
Q 44.390625 30.125 48.296875 26.3125 
Q 52.203125 22.515625 52.203125 15.71875 
Q 52.203125 6.9375 45.921875 2.75 
Q 39.65625 -1.421875 26.421875 -1.421875 
Q 21.578125 -1.421875 16.15625 -0.6875 
Q 10.75 0.046875 4.6875 1.515625 
z
" id="DejaVuSerif-Bold-115"/>
     <path d="M 10.59375 11.078125 
L 73.1875 11.078125 
L 73.1875 0 
L 10.59375 0 
z
M 47.515625 62.703125 
L 47.515625 45.21875 
L 73.1875 45.21875 
L 73.1875 34.078125 
L 47.515625 34.078125 
L 47.515625 16.609375 
L 36.28125 16.609375 
L 36.28125 34.078125 
L 10.59375 34.078125 
L 10.59375 45.21875 
L 36.28125 45.21875 
L 36.28125 62.703125 
z
" id="DejaVuSerif-Bold-177"/>
     <path d="M 17.1875 0 
L 17.1875 5.90625 
L 27 5.90625 
L 27 30.171875 
L 5.328125 67 
L -0.875 67 
L -0.875 72.90625 
L 34.078125 72.90625 
L 34.078125 67 
L 25.984375 67 
L 42.390625 39.203125 
L 58.6875 67 
L 51.421875 67 
L 51.421875 72.90625 
L 72.3125 72.90625 
L 72.3125 67 
L 66.109375 67 
L 45.90625 32.71875 
L 45.90625 5.90625 
L 55.71875 5.90625 
L 55.71875 0 
z
" id="DejaVuSerif-Bold-89"/>
     <path d="M 42.921875 23.390625 
L 42.921875 28.515625 
Q 42.921875 37.59375 40.578125 41.640625 
Q 38.234375 45.703125 33.109375 45.703125 
Q 27.734375 45.703125 25.5625 41.421875 
Q 23.390625 37.15625 23.390625 25.984375 
Q 23.390625 14.796875 25.578125 10.5 
Q 27.78125 6.203125 33.109375 6.203125 
Q 38.234375 6.203125 40.578125 10.25 
Q 42.921875 14.3125 42.921875 23.390625 
z
M 60.203125 5.90625 
L 67.578125 5.90625 
L 67.578125 0 
L 42.921875 0 
L 42.921875 6.59375 
Q 40.71875 2.546875 36.984375 0.5625 
Q 33.25 -1.421875 27.78125 -1.421875 
Q 16.75 -1.421875 10.421875 5.90625 
Q 4.109375 13.234375 4.109375 25.984375 
Q 4.109375 38.765625 10.421875 46.046875 
Q 16.75 53.328125 27.78125 53.328125 
Q 33.25 53.328125 36.984375 51.34375 
Q 40.71875 49.359375 42.921875 45.3125 
L 42.921875 70.125 
L 35.5 70.125 
L 35.5 75.984375 
L 60.203125 75.984375 
z
" id="DejaVuSerif-Bold-100"/>
     <path d="M 55.078125 31.890625 
L 55.078125 5.90625 
L 62.5 5.90625 
L 62.5 0 
L 37.796875 0 
L 37.796875 6.59375 
Q 34.375 2.484375 30.171875 0.53125 
Q 25.984375 -1.421875 20.609375 -1.421875 
Q 12.640625 -1.421875 8.375 2.84375 
Q 4.109375 7.125 4.109375 15.09375 
Q 4.109375 23.828125 10.234375 28.171875 
Q 16.359375 32.515625 28.71875 32.515625 
L 37.796875 32.515625 
L 37.796875 35.59375 
Q 37.796875 41.890625 34.8125 44.890625 
Q 31.84375 47.90625 25.59375 47.90625 
Q 20.40625 47.90625 17.59375 45.78125 
Q 14.796875 43.65625 13.625 38.8125 
L 8.109375 38.8125 
L 8.109375 50 
Q 12.75 51.65625 17.71875 52.484375 
Q 22.703125 53.328125 28.21875 53.328125 
Q 42.140625 53.328125 48.609375 48.140625 
Q 55.078125 42.96875 55.078125 31.890625 
z
M 37.796875 16.3125 
L 37.796875 26.703125 
L 31.296875 26.703125 
Q 26.46875 26.703125 23.875 24.0625 
Q 21.296875 21.4375 21.296875 16.5 
Q 21.296875 11.578125 23.171875 9.125 
Q 25.046875 6.6875 28.90625 6.6875 
Q 32.90625 6.6875 35.34375 9.328125 
Q 37.796875 11.96875 37.796875 16.3125 
z
" id="DejaVuSerif-Bold-97"/>
     <path d="M 47.515625 62.703125 
L 47.515625 37.015625 
L 73.1875 37.015625 
L 73.1875 25.78125 
L 47.515625 25.78125 
L 47.515625 0.09375 
L 36.28125 0.09375 
L 36.28125 25.78125 
L 10.59375 25.78125 
L 10.59375 37.015625 
L 36.28125 37.015625 
L 36.28125 62.703125 
z
" id="DejaVuSerif-Bold-43"/>
    </defs>
    <g transform="translate(79.632225 57.910806)scale(0.24 -0.24)">
     <use transform="translate(21.162109 0.015625)" xlink:href="#DejaVuSerif-Bold-60"/>
     <use transform="translate(126.113281 0.015625)" xlink:href="#DejaVuSerif-Bold-101"/>
     <use transform="translate(210.898438 0.015625)" xlink:href="#DejaVuSerif-Bold-62"/>
     <use transform="translate(316.757969 -15.55625)scale(0.7)" xlink:href="#DejaVuSerif-Bold-111"/>
     <use transform="translate(363.447422 -15.55625)scale(0.7)" xlink:href="#DejaVuSerif-Bold-98"/>
     <use transform="translate(412.392734 -15.55625)scale(0.7)" xlink:href="#DejaVuSerif-Bold-115"/>
     <use transform="translate(475.559336 0.015625)" xlink:href="#DejaVuSerif-Bold-61"/>
     <use transform="translate(580.510508 0.015625)" xlink:href="#DejaVuSerif-Bold-48"/>
     <use transform="translate(650.090586 0.015625)" xlink:href="#DejaVuSerif-Bold-46"/>
     <use transform="translate(684.873789 0.015625)" xlink:href="#DejaVuSerif-Bold-50"/>
     <use transform="translate(754.453867 0.015625)" xlink:href="#DejaVuSerif-Bold-55"/>
     <use transform="translate(845.196055 0.015625)" xlink:href="#DejaVuSerif-Bold-177"/>
     <use transform="translate(950.147227 0.015625)" xlink:href="#DejaVuSerif-Bold-48"/>
     <use transform="translate(1019.727305 0.015625)" xlink:href="#DejaVuSerif-Bold-46"/>
     <use transform="translate(1054.541758 0.015625)" xlink:href="#DejaVuSerif-Bold-48"/>
     <use transform="translate(1124.121836 0.015625)" xlink:href="#DejaVuSerif-Bold-55"/>
     <use transform="translate(1193.701914 0.015625)" xlink:href="#DejaVuSerif-Bold-32"/>
     <use transform="translate(1228.516367 0.015625)" xlink:href="#DejaVuSerif-Bold-40"/>
     <use transform="translate(1275.83082 0.015625)" xlink:href="#DejaVuSerif-Bold-89"/>
     <use transform="translate(1347.217539 0.015625)" xlink:href="#DejaVuSerif-Bold-101"/>
     <use transform="translate(1410.840586 0.015625)" xlink:href="#DejaVuSerif-Bold-108"/>
     <use transform="translate(1448.828867 0.015625)" xlink:href="#DejaVuSerif-Bold-100"/>
     <use transform="translate(1518.750742 0.015625)" xlink:href="#DejaVuSerif-Bold-97"/>
     <use transform="translate(1583.545664 0.015625)" xlink:href="#DejaVuSerif-Bold-43"/>
     <use transform="translate(1667.334727 0.015625)" xlink:href="#DejaVuSerif-Bold-50"/>
     <use transform="translate(1736.914805 0.015625)" xlink:href="#DejaVuSerif-Bold-48"/>
     <use transform="translate(1806.494883 0.015625)" xlink:href="#DejaVuSerif-Bold-49"/>
     <use transform="translate(1876.074961 0.015625)" xlink:href="#DejaVuSerif-Bold-52"/>
     <use transform="translate(1945.655039 0.015625)" xlink:href="#DejaVuSerif-Bold-41"/>
    </g>
   </g>
   <g id="text_19">
    <!-- $&lt;e&gt;_h=$0.37, $&lt;e&gt;_l=$0.42 -->
    <g style="fill:#ff0000;" transform="translate(79.632225 31.036056)scale(0.24 -0.24)">
     <use transform="translate(21.162109 0.78125)" xlink:href="#DejaVuSerif-Bold-60"/>
     <use transform="translate(126.113281 0.78125)" xlink:href="#DejaVuSerif-Bold-101"/>
     <use transform="translate(210.898438 0.78125)" xlink:href="#DejaVuSerif-Bold-62"/>
     <use transform="translate(316.757969 -14.790625)scale(0.7)" xlink:href="#DejaVuSerif-Bold-104"/>
     <use transform="translate(391.408945 0.78125)" xlink:href="#DejaVuSerif-Bold-61"/>
     <use transform="translate(496.360117 0.78125)" xlink:href="#DejaVuSerif-Bold-48"/>
     <use transform="translate(565.940195 0.78125)" xlink:href="#DejaVuSerif-Bold-46"/>
     <use transform="translate(600.754648 0.78125)" xlink:href="#DejaVuSerif-Bold-51"/>
     <use transform="translate(670.334727 0.78125)" xlink:href="#DejaVuSerif-Bold-55"/>
     <use transform="translate(739.914805 0.78125)" xlink:href="#DejaVuSerif-Bold-44"/>
     <use transform="translate(774.729258 0.78125)" xlink:href="#DejaVuSerif-Bold-32"/>
     <use transform="translate(830.70582 0.78125)" xlink:href="#DejaVuSerif-Bold-60"/>
     <use transform="translate(935.656992 0.78125)" xlink:href="#DejaVuSerif-Bold-101"/>
     <use transform="translate(1020.442148 0.78125)" xlink:href="#DejaVuSerif-Bold-62"/>
     <use transform="translate(1126.30168 -14.790625)scale(0.7)" xlink:href="#DejaVuSerif-Bold-108"/>
     <use transform="translate(1176.650898 0.78125)" xlink:href="#DejaVuSerif-Bold-61"/>
     <use transform="translate(1281.60207 0.78125)" xlink:href="#DejaVuSerif-Bold-48"/>
     <use transform="translate(1351.182148 0.78125)" xlink:href="#DejaVuSerif-Bold-46"/>
     <use transform="translate(1385.996602 0.78125)" xlink:href="#DejaVuSerif-Bold-52"/>
     <use transform="translate(1455.57668 0.78125)" xlink:href="#DejaVuSerif-Bold-50"/>
    </g>
   </g>
   <g id="text_20">
    <!-- $&lt;e&gt;_h=$0.37  -->
    <g style="fill:#0000ff;" transform="translate(79.632225 31.036056)scale(0.24 -0.24)">
     <use transform="translate(21.162109 0.78125)" xlink:href="#DejaVuSerif-Bold-60"/>
     <use transform="translate(126.113281 0.78125)" xlink:href="#DejaVuSerif-Bold-101"/>
     <use transform="translate(210.898438 0.78125)" xlink:href="#DejaVuSerif-Bold-62"/>
     <use transform="translate(316.757969 -14.790625)scale(0.7)" xlink:href="#DejaVuSerif-Bold-104"/>
     <use transform="translate(391.408945 0.78125)" xlink:href="#DejaVuSerif-Bold-61"/>
     <use transform="translate(496.360117 0.78125)" xlink:href="#DejaVuSerif-Bold-48"/>
     <use transform="translate(565.940195 0.78125)" xlink:href="#DejaVuSerif-Bold-46"/>
     <use transform="translate(600.754648 0.78125)" xlink:href="#DejaVuSerif-Bold-51"/>
     <use transform="translate(670.334727 0.78125)" xlink:href="#DejaVuSerif-Bold-55"/>
     <use transform="translate(739.914805 0.78125)" xlink:href="#DejaVuSerif-Bold-32"/>
    </g>
   </g>
   <g id="legend_1">
    <g id="text_21">
     <!-- Cloud 1, MF -->
     <defs>
      <path d="M 74.515625 20.796875 
Q 71.625 9.515625 64.15625 4.046875 
Q 56.6875 -1.421875 44.09375 -1.421875 
Q 25.640625 -1.421875 14.921875 8.765625 
Q 4.203125 18.953125 4.203125 36.375 
Q 4.203125 53.859375 14.921875 64.03125 
Q 25.640625 74.21875 44.09375 74.21875 
Q 50.59375 74.21875 57.625 72.65625 
Q 64.65625 71.09375 72.515625 67.921875 
L 72.515625 50 
L 66.3125 50 
Q 64.40625 59.1875 59.375 63.75 
Q 54.34375 68.3125 46.09375 68.3125 
Q 35.453125 68.3125 30.265625 60.46875 
Q 25.09375 52.640625 25.09375 36.375 
Q 25.09375 20.125 30.265625 12.3125 
Q 35.453125 4.5 46.1875 4.5 
Q 53.46875 4.5 58.078125 8.546875 
Q 62.703125 12.59375 64.796875 20.796875 
z
" id="DejaVuSerif-Bold-67"/>
      <path d="M 61.921875 51.90625 
L 61.921875 5.90625 
L 69.28125 5.90625 
L 69.28125 0 
L 44.578125 0 
L 44.578125 7.328125 
Q 41.5 2.6875 37.5 0.625 
Q 33.5 -1.421875 27.390625 -1.421875 
Q 18.65625 -1.421875 14.1875 3.734375 
Q 9.71875 8.890625 9.71875 18.890625 
L 9.71875 46 
L 2.296875 46 
L 2.296875 51.90625 
L 27 51.90625 
L 27 21.578125 
Q 27 11.921875 28.609375 9.296875 
Q 30.21875 6.6875 34.515625 6.6875 
Q 39.75 6.6875 42.15625 10.546875 
Q 44.578125 14.40625 44.578125 22.796875 
L 44.578125 46 
L 38.28125 46 
L 38.28125 51.90625 
z
" id="DejaVuSerif-Bold-117"/>
      <path d="M 4.203125 0 
L 4.203125 5.90625 
L 13.484375 5.90625 
L 13.484375 67 
L 4.203125 67 
L 4.203125 72.90625 
L 34.28125 72.90625 
L 55.078125 26.125 
L 75.984375 72.90625 
L 106 72.90625 
L 106 67 
L 96.6875 67 
L 96.6875 5.90625 
L 106 5.90625 
L 106 0 
L 68.5 0 
L 68.5 5.90625 
L 77.78125 5.90625 
L 77.78125 61.53125 
L 55.171875 10.6875 
L 42.828125 10.6875 
L 20.3125 61.53125 
L 20.3125 5.90625 
L 29.59375 5.90625 
L 29.59375 0 
z
" id="DejaVuSerif-Bold-77"/>
      <path d="M 4.6875 0 
L 4.6875 5.90625 
L 14.015625 5.90625 
L 14.015625 67 
L 4.6875 67 
L 4.6875 72.90625 
L 69.671875 72.90625 
L 69.671875 55.71875 
L 62.984375 55.71875 
L 62.984375 66.21875 
L 32.90625 66.21875 
L 32.90625 42.828125 
L 51.421875 42.828125 
L 51.421875 52.09375 
L 58.109375 52.09375 
L 58.109375 26.90625 
L 51.421875 26.90625 
L 51.421875 36.1875 
L 32.90625 36.1875 
L 32.90625 5.90625 
L 44.390625 5.90625 
L 44.390625 0 
z
" id="DejaVuSerif-Bold-70"/>
     </defs>
     <g transform="translate(960.576875 45.23625)scale(0.24 -0.24)">
      <use xlink:href="#DejaVuSerif-Bold-67"/>
      <use x="79.589844" xlink:href="#DejaVuSerif-Bold-108"/>
      <use x="117.578125" xlink:href="#DejaVuSerif-Bold-111"/>
      <use x="184.277344" xlink:href="#DejaVuSerif-Bold-117"/>
      <use x="256.982422" xlink:href="#DejaVuSerif-Bold-100"/>
      <use x="326.904297" xlink:href="#DejaVuSerif-Bold-32"/>
      <use x="361.71875" xlink:href="#DejaVuSerif-Bold-49"/>
      <use x="431.298828" xlink:href="#DejaVuSerif-Bold-44"/>
      <use x="466.113281" xlink:href="#DejaVuSerif-Bold-32"/>
      <use x="500.927734" xlink:href="#DejaVuSerif-Bold-77"/>
      <use x="611.621094" xlink:href="#DejaVuSerif-Bold-70"/>
     </g>
    </g>
    <g id="patch_47">
     <path d="M 945.58 77.944062 
L 989.58 77.944062 
L 989.58 62.544062 
L 945.58 62.544062 
z
" style="fill:none;stroke:#ff0000;stroke-linejoin:miter;stroke-width:2;"/>
    </g>
    <g id="text_22">
     <!-- $t_N=$ 5 Myr -->
     <defs>
      <path d="M 9.90625 46 
L 2.390625 46 
L 2.390625 51.90625 
L 9.90625 51.90625 
L 9.90625 68.015625 
L 27.203125 68.015625 
L 27.203125 51.90625 
L 41.609375 51.90625 
L 41.609375 46 
L 27.203125 46 
L 27.203125 14.203125 
Q 27.203125 7.421875 28.265625 5.765625 
Q 29.34375 4.109375 32.171875 4.109375 
Q 35.296875 4.109375 36.8125 6.203125 
Q 38.328125 8.296875 38.421875 12.703125 
L 45.703125 12.703125 
Q 45.265625 4.890625 41.421875 1.734375 
Q 37.59375 -1.421875 28.21875 -1.421875 
Q 17.53125 -1.421875 13.71875 1.921875 
Q 9.90625 5.28125 9.90625 14.203125 
z
" id="DejaVuSerif-Bold-116"/>
      <path d="M 31.203125 -11.71875 
Q 28.859375 -17.4375 25.53125 -19.828125 
Q 22.21875 -22.21875 16.609375 -22.21875 
Q 14.203125 -22.21875 11.265625 -21.671875 
Q 8.34375 -21.140625 4.890625 -20.125 
L 4.890625 -9.28125 
L 10.40625 -9.328125 
Q 10.546875 -13.09375 12.171875 -14.890625 
Q 13.8125 -16.703125 17.09375 -16.703125 
Q 20.265625 -16.703125 22.21875 -14.96875 
Q 24.171875 -13.234375 26.125 -8.40625 
L 26.90625 -6.59375 
L 4.296875 46 
L -1.3125 46 
L -1.3125 51.90625 
L 28.609375 51.90625 
L 28.609375 46 
L 22.40625 46 
L 35.59375 15.28125 
L 47.90625 46 
L 41.015625 46 
L 41.015625 51.90625 
L 60.5 51.90625 
L 60.5 46 
L 54.203125 46 
z
" id="DejaVuSerif-Bold-121"/>
      <path d="M 53.71875 52.484375 
L 53.71875 37.015625 
L 48.1875 37.015625 
Q 47.90625 41.15625 45.953125 43.1875 
Q 44 45.21875 40.28125 45.21875 
Q 34.625 45.21875 31.34375 40.234375 
Q 28.078125 35.25 28.078125 26.421875 
L 28.078125 5.90625 
L 37.5 5.90625 
L 37.5 0 
L 3.421875 0 
L 3.421875 5.90625 
L 10.796875 5.90625 
L 10.796875 46 
L 2.875 46 
L 2.875 51.90625 
L 28.078125 51.90625 
L 28.078125 42.671875 
Q 30.609375 48.09375 34.78125 50.703125 
Q 38.96875 53.328125 45.015625 53.328125 
Q 46.53125 53.328125 48.703125 53.09375 
Q 50.875 52.875 53.71875 52.484375 
z
" id="DejaVuSerif-Bold-114"/>
     </defs>
     <g transform="translate(1007.18 77.944062)scale(0.22 -0.22)">
      <use transform="translate(0 0.09375)" xlink:href="#DejaVuSerif-Bold-116"/>
      <use transform="translate(47.099766 -15.478125)scale(0.7)" xlink:href="#DejaVuSerif-Bold-78"/>
      <use transform="translate(134.841563 0.09375)" xlink:href="#DejaVuSerif-Bold-61"/>
      <use transform="translate(239.792734 0.09375)" xlink:href="#DejaVuSerif-Bold-32"/>
      <use transform="translate(274.607188 0.09375)" xlink:href="#DejaVuSerif-Bold-53"/>
      <use transform="translate(344.187266 0.09375)" xlink:href="#DejaVuSerif-Bold-32"/>
      <use transform="translate(379.001719 0.09375)" xlink:href="#DejaVuSerif-Bold-77"/>
      <use transform="translate(489.695078 0.09375)" xlink:href="#DejaVuSerif-Bold-121"/>
      <use transform="translate(547.800547 0.09375)" xlink:href="#DejaVuSerif-Bold-114"/>
     </g>
    </g>
   </g>
  </g>
 </g>
 <defs>
  <clipPath id="p28344b7a42">
   <rect height="559.980625" width="1090.4725" x="68.7275" y="7.2"/>
  </clipPath>
 </defs>
</svg>
