<?xml version="1.0" encoding="utf-8" standalone="no"?>
<!DOCTYPE svg PUBLIC "-//W3C//DTD SVG 1.1//EN"
  "http://www.w3.org/Graphics/SVG/1.1/DTD/svg11.dtd">
<!-- Created with matplotlib (https://matplotlib.org/) -->
<svg height="626.4pt" version="1.1" viewBox="0 0 1166.4 626.4" width="1166.4pt" xmlns="http://www.w3.org/2000/svg" xmlns:xlink="http://www.w3.org/1999/xlink">
 <defs>
  <style type="text/css">
*{stroke-linecap:butt;stroke-linejoin:round;}
  </style>
 </defs>
 <g id="figure_1">
  <g id="patch_1">
   <path d="M 0 626.4 
L 1166.4 626.4 
L 1166.4 0 
L 0 0 
z
" style="fill:#ffffff;"/>
  </g>
  <g id="axes_1">
   <g id="patch_2">
    <path d="M 83.9075 567.180625 
L 1159.2 567.180625 
L 1159.2 15.558281 
L 83.9075 15.558281 
z
" style="fill:#ffffff;"/>
   </g>
   <g id="patch_3">
    <path clip-path="url(#p2d123fe089)" d="M 132.784432 567.180625 
L 181.661364 567.180625 
L 181.661364 562.583772 
L 132.784432 562.583772 
z
" style="fill:none;stroke:#ff0000;stroke-dasharray:5,2;stroke-dashoffset:0;stroke-linejoin:miter;"/>
   </g>
   <g id="patch_4">
    <path clip-path="url(#p2d123fe089)" d="M 181.661364 567.180625 
L 230.538295 567.180625 
L 230.538295 512.018391 
L 181.661364 512.018391 
z
" style="fill:none;stroke:#ff0000;stroke-dasharray:5,2;stroke-dashoffset:0;stroke-linejoin:miter;"/>
   </g>
   <g id="patch_5">
    <path clip-path="url(#p2d123fe089)" d="M 230.538295 567.180625 
L 279.415227 567.180625 
L 279.415227 489.034126 
L 230.538295 489.034126 
z
" style="fill:none;stroke:#ff0000;stroke-dasharray:5,2;stroke-dashoffset:0;stroke-linejoin:miter;"/>
   </g>
   <g id="patch_6">
    <path clip-path="url(#p2d123fe089)" d="M 279.415227 567.180625 
L 328.292159 567.180625 
L 328.292159 456.856156 
L 279.415227 456.856156 
z
" style="fill:none;stroke:#ff0000;stroke-dasharray:5,2;stroke-dashoffset:0;stroke-linejoin:miter;"/>
   </g>
   <g id="patch_7">
    <path clip-path="url(#p2d123fe089)" d="M 328.292159 567.180625 
L 377.169091 567.180625 
L 377.169091 466.049862 
L 328.292159 466.049862 
z
" style="fill:none;stroke:#ff0000;stroke-dasharray:5,2;stroke-dashoffset:0;stroke-linejoin:miter;"/>
   </g>
   <g id="patch_8">
    <path clip-path="url(#p2d123fe089)" d="M 377.169091 567.180625 
L 426.046023 567.180625 
L 426.046023 401.693922 
L 377.169091 401.693922 
z
" style="fill:none;stroke:#ff0000;stroke-dasharray:5,2;stroke-dashoffset:0;stroke-linejoin:miter;"/>
   </g>
   <g id="patch_9">
    <path clip-path="url(#p2d123fe089)" d="M 426.046023 567.180625 
L 474.922955 567.180625 
L 474.922955 305.160012 
L 426.046023 305.160012 
z
" style="fill:none;stroke:#ff0000;stroke-dasharray:5,2;stroke-dashoffset:0;stroke-linejoin:miter;"/>
   </g>
   <g id="patch_10">
    <path clip-path="url(#p2d123fe089)" d="M 474.922955 567.180625 
L 523.799886 567.180625 
L 523.799886 263.788336 
L 474.922955 263.788336 
z
" style="fill:none;stroke:#ff0000;stroke-dasharray:5,2;stroke-dashoffset:0;stroke-linejoin:miter;"/>
   </g>
   <g id="patch_11">
    <path clip-path="url(#p2d123fe089)" d="M 523.799886 567.180625 
L 572.676818 567.180625 
L 572.676818 282.175747 
L 523.799886 282.175747 
z
" style="fill:none;stroke:#ff0000;stroke-dasharray:5,2;stroke-dashoffset:0;stroke-linejoin:miter;"/>
   </g>
   <g id="patch_12">
    <path clip-path="url(#p2d123fe089)" d="M 572.676818 567.180625 
L 621.55375 567.180625 
L 621.55375 249.997777 
L 572.676818 249.997777 
z
" style="fill:none;stroke:#ff0000;stroke-dasharray:5,2;stroke-dashoffset:0;stroke-linejoin:miter;"/>
   </g>
   <g id="patch_13">
    <path clip-path="url(#p2d123fe089)" d="M 621.55375 567.180625 
L 670.430682 567.180625 
L 670.430682 213.222954 
L 621.55375 213.222954 
z
" style="fill:none;stroke:#ff0000;stroke-dasharray:5,2;stroke-dashoffset:0;stroke-linejoin:miter;"/>
   </g>
   <g id="patch_14">
    <path clip-path="url(#p2d123fe089)" d="M 670.430682 567.180625 
L 719.307614 567.180625 
L 719.307614 204.029249 
L 670.430682 204.029249 
z
" style="fill:none;stroke:#ff0000;stroke-dasharray:5,2;stroke-dashoffset:0;stroke-linejoin:miter;"/>
   </g>
   <g id="patch_15">
    <path clip-path="url(#p2d123fe089)" d="M 719.307614 567.180625 
L 768.184545 567.180625 
L 768.184545 217.819807 
L 719.307614 217.819807 
z
" style="fill:none;stroke:#ff0000;stroke-dasharray:5,2;stroke-dashoffset:0;stroke-linejoin:miter;"/>
   </g>
   <g id="patch_16">
    <path clip-path="url(#p2d123fe089)" d="M 768.184545 567.180625 
L 817.061477 567.180625 
L 817.061477 158.06072 
L 768.184545 158.06072 
z
" style="fill:none;stroke:#ff0000;stroke-dasharray:5,2;stroke-dashoffset:0;stroke-linejoin:miter;"/>
   </g>
   <g id="patch_17">
    <path clip-path="url(#p2d123fe089)" d="M 817.061477 567.180625 
L 865.938409 567.180625 
L 865.938409 231.610366 
L 817.061477 231.610366 
z
" style="fill:none;stroke:#ff0000;stroke-dasharray:5,2;stroke-dashoffset:0;stroke-linejoin:miter;"/>
   </g>
   <g id="patch_18">
    <path clip-path="url(#p2d123fe089)" d="M 865.938409 567.180625 
L 914.815341 567.180625 
L 914.815341 272.982042 
L 865.938409 272.982042 
z
" style="fill:none;stroke:#ff0000;stroke-dasharray:5,2;stroke-dashoffset:0;stroke-linejoin:miter;"/>
   </g>
   <g id="patch_19">
    <path clip-path="url(#p2d123fe089)" d="M 914.815341 567.180625 
L 963.692273 567.180625 
L 963.692273 392.500216 
L 914.815341 392.500216 
z
" style="fill:none;stroke:#ff0000;stroke-dasharray:5,2;stroke-dashoffset:0;stroke-linejoin:miter;"/>
   </g>
   <g id="patch_20">
    <path clip-path="url(#p2d123fe089)" d="M 963.692273 567.180625 
L 1012.569205 567.180625 
L 1012.569205 447.662451 
L 963.692273 447.662451 
z
" style="fill:none;stroke:#ff0000;stroke-dasharray:5,2;stroke-dashoffset:0;stroke-linejoin:miter;"/>
   </g>
   <g id="patch_21">
    <path clip-path="url(#p2d123fe089)" d="M 1012.569205 567.180625 
L 1061.446136 567.180625 
L 1061.446136 516.615243 
L 1012.569205 516.615243 
z
" style="fill:none;stroke:#ff0000;stroke-dasharray:5,2;stroke-dashoffset:0;stroke-linejoin:miter;"/>
   </g>
   <g id="patch_22">
    <path clip-path="url(#p2d123fe089)" d="M 1061.446136 567.180625 
L 1110.323068 567.180625 
L 1110.323068 562.583772 
L 1061.446136 562.583772 
z
" style="fill:none;stroke:#ff0000;stroke-dasharray:5,2;stroke-dashoffset:0;stroke-linejoin:miter;"/>
   </g>
   <g id="patch_23">
    <path clip-path="url(#p2d123fe089)" d="M 132.784432 567.180625 
L 181.661364 567.180625 
L 181.661364 525.808949 
L 132.784432 525.808949 
z
" style="fill:none;stroke:#000000;stroke-linejoin:miter;stroke-width:3;"/>
   </g>
   <g id="patch_24">
    <path clip-path="url(#p2d123fe089)" d="M 181.661364 567.180625 
L 230.538295 567.180625 
L 230.538295 406.290775 
L 181.661364 406.290775 
z
" style="fill:none;stroke:#000000;stroke-linejoin:miter;stroke-width:3;"/>
   </g>
   <g id="patch_25">
    <path clip-path="url(#p2d123fe089)" d="M 230.538295 567.180625 
L 279.415227 567.180625 
L 279.415227 231.610366 
L 230.538295 231.610366 
z
" style="fill:none;stroke:#000000;stroke-linejoin:miter;stroke-width:3;"/>
   </g>
   <g id="patch_26">
    <path clip-path="url(#p2d123fe089)" d="M 279.415227 567.180625 
L 328.292159 567.180625 
L 328.292159 222.41666 
L 279.415227 222.41666 
z
" style="fill:none;stroke:#000000;stroke-linejoin:miter;stroke-width:3;"/>
   </g>
   <g id="patch_27">
    <path clip-path="url(#p2d123fe089)" d="M 328.292159 567.180625 
L 377.169091 567.180625 
L 377.169091 176.448132 
L 328.292159 176.448132 
z
" style="fill:none;stroke:#000000;stroke-linejoin:miter;stroke-width:3;"/>
   </g>
   <g id="patch_28">
    <path clip-path="url(#p2d123fe089)" d="M 377.169091 567.180625 
L 426.046023 567.180625 
L 426.046023 181.044984 
L 377.169091 181.044984 
z
" style="fill:none;stroke:#000000;stroke-linejoin:miter;stroke-width:3;"/>
   </g>
   <g id="patch_29">
    <path clip-path="url(#p2d123fe089)" d="M 426.046023 567.180625 
L 474.922955 567.180625 
L 474.922955 217.819807 
L 426.046023 217.819807 
z
" style="fill:none;stroke:#000000;stroke-linejoin:miter;stroke-width:3;"/>
   </g>
   <g id="patch_30">
    <path clip-path="url(#p2d123fe089)" d="M 474.922955 567.180625 
L 523.799886 567.180625 
L 523.799886 263.788336 
L 474.922955 263.788336 
z
" style="fill:none;stroke:#000000;stroke-linejoin:miter;stroke-width:3;"/>
   </g>
   <g id="patch_31">
    <path clip-path="url(#p2d123fe089)" d="M 523.799886 567.180625 
L 572.676818 567.180625 
L 572.676818 190.23869 
L 523.799886 190.23869 
z
" style="fill:none;stroke:#000000;stroke-linejoin:miter;stroke-width:3;"/>
   </g>
   <g id="patch_32">
    <path clip-path="url(#p2d123fe089)" d="M 572.676818 567.180625 
L 621.55375 567.180625 
L 621.55375 387.903363 
L 572.676818 387.903363 
z
" style="fill:none;stroke:#000000;stroke-linejoin:miter;stroke-width:3;"/>
   </g>
   <g id="patch_33">
    <path clip-path="url(#p2d123fe089)" d="M 621.55375 567.180625 
L 670.430682 567.180625 
L 670.430682 410.887628 
L 621.55375 410.887628 
z
" style="fill:none;stroke:#000000;stroke-linejoin:miter;stroke-width:3;"/>
   </g>
   <g id="patch_34">
    <path clip-path="url(#p2d123fe089)" d="M 670.430682 567.180625 
L 719.307614 567.180625 
L 719.307614 456.856156 
L 670.430682 456.856156 
z
" style="fill:none;stroke:#000000;stroke-linejoin:miter;stroke-width:3;"/>
   </g>
   <g id="patch_35">
    <path clip-path="url(#p2d123fe089)" d="M 719.307614 567.180625 
L 768.184545 567.180625 
L 768.184545 475.243568 
L 719.307614 475.243568 
z
" style="fill:none;stroke:#000000;stroke-linejoin:miter;stroke-width:3;"/>
   </g>
   <g id="patch_36">
    <path clip-path="url(#p2d123fe089)" d="M 768.184545 567.180625 
L 817.061477 567.180625 
L 817.061477 456.856156 
L 768.184545 456.856156 
z
" style="fill:none;stroke:#000000;stroke-linejoin:miter;stroke-width:3;"/>
   </g>
   <g id="patch_37">
    <path clip-path="url(#p2d123fe089)" d="M 817.061477 567.180625 
L 865.938409 567.180625 
L 865.938409 489.034126 
L 817.061477 489.034126 
z
" style="fill:none;stroke:#000000;stroke-linejoin:miter;stroke-width:3;"/>
   </g>
   <g id="patch_38">
    <path clip-path="url(#p2d123fe089)" d="M 865.938409 567.180625 
L 914.815341 567.180625 
L 914.815341 479.840421 
L 865.938409 479.840421 
z
" style="fill:none;stroke:#000000;stroke-linejoin:miter;stroke-width:3;"/>
   </g>
   <g id="patch_39">
    <path clip-path="url(#p2d123fe089)" d="M 914.815341 567.180625 
L 963.692273 567.180625 
L 963.692273 498.227832 
L 914.815341 498.227832 
z
" style="fill:none;stroke:#000000;stroke-linejoin:miter;stroke-width:3;"/>
   </g>
   <g id="patch_40">
    <path clip-path="url(#p2d123fe089)" d="M 963.692273 567.180625 
L 1012.569205 567.180625 
L 1012.569205 466.049862 
L 963.692273 466.049862 
z
" style="fill:none;stroke:#000000;stroke-linejoin:miter;stroke-width:3;"/>
   </g>
   <g id="patch_41">
    <path clip-path="url(#p2d123fe089)" d="M 1012.569205 567.180625 
L 1061.446136 567.180625 
L 1061.446136 461.453009 
L 1012.569205 461.453009 
z
" style="fill:none;stroke:#000000;stroke-linejoin:miter;stroke-width:3;"/>
   </g>
   <g id="patch_42">
    <path clip-path="url(#p2d123fe089)" d="M 1061.446136 567.180625 
L 1110.323068 567.180625 
L 1110.323068 530.405802 
L 1061.446136 530.405802 
z
" style="fill:none;stroke:#000000;stroke-linejoin:miter;stroke-width:3;"/>
   </g>
   <g id="patch_43">
    <path clip-path="url(#p2d123fe089)" d="M 132.784432 567.180625 
L 181.661364 567.180625 
L 181.661364 562.583772 
L 132.784432 562.583772 
z
" style="fill:none;stroke:#ff0000;stroke-dasharray:5,2;stroke-dashoffset:0;stroke-linejoin:miter;"/>
   </g>
   <g id="patch_44">
    <path clip-path="url(#p2d123fe089)" d="M 181.661364 567.180625 
L 230.538295 567.180625 
L 230.538295 512.018391 
L 181.661364 512.018391 
z
" style="fill:none;stroke:#ff0000;stroke-dasharray:5,2;stroke-dashoffset:0;stroke-linejoin:miter;"/>
   </g>
   <g id="patch_45">
    <path clip-path="url(#p2d123fe089)" d="M 230.538295 567.180625 
L 279.415227 567.180625 
L 279.415227 489.034126 
L 230.538295 489.034126 
z
" style="fill:none;stroke:#ff0000;stroke-dasharray:5,2;stroke-dashoffset:0;stroke-linejoin:miter;"/>
   </g>
   <g id="patch_46">
    <path clip-path="url(#p2d123fe089)" d="M 279.415227 567.180625 
L 328.292159 567.180625 
L 328.292159 456.856156 
L 279.415227 456.856156 
z
" style="fill:none;stroke:#ff0000;stroke-dasharray:5,2;stroke-dashoffset:0;stroke-linejoin:miter;"/>
   </g>
   <g id="patch_47">
    <path clip-path="url(#p2d123fe089)" d="M 328.292159 567.180625 
L 377.169091 567.180625 
L 377.169091 466.049862 
L 328.292159 466.049862 
z
" style="fill:none;stroke:#ff0000;stroke-dasharray:5,2;stroke-dashoffset:0;stroke-linejoin:miter;"/>
   </g>
   <g id="patch_48">
    <path clip-path="url(#p2d123fe089)" d="M 377.169091 567.180625 
L 426.046023 567.180625 
L 426.046023 401.693922 
L 377.169091 401.693922 
z
" style="fill:none;stroke:#ff0000;stroke-dasharray:5,2;stroke-dashoffset:0;stroke-linejoin:miter;"/>
   </g>
   <g id="patch_49">
    <path clip-path="url(#p2d123fe089)" d="M 426.046023 567.180625 
L 474.922955 567.180625 
L 474.922955 305.160012 
L 426.046023 305.160012 
z
" style="fill:none;stroke:#ff0000;stroke-dasharray:5,2;stroke-dashoffset:0;stroke-linejoin:miter;"/>
   </g>
   <g id="patch_50">
    <path clip-path="url(#p2d123fe089)" d="M 474.922955 567.180625 
L 523.799886 567.180625 
L 523.799886 263.788336 
L 474.922955 263.788336 
z
" style="fill:none;stroke:#ff0000;stroke-dasharray:5,2;stroke-dashoffset:0;stroke-linejoin:miter;"/>
   </g>
   <g id="patch_51">
    <path clip-path="url(#p2d123fe089)" d="M 523.799886 567.180625 
L 572.676818 567.180625 
L 572.676818 282.175747 
L 523.799886 282.175747 
z
" style="fill:none;stroke:#ff0000;stroke-dasharray:5,2;stroke-dashoffset:0;stroke-linejoin:miter;"/>
   </g>
   <g id="patch_52">
    <path clip-path="url(#p2d123fe089)" d="M 572.676818 567.180625 
L 621.55375 567.180625 
L 621.55375 249.997777 
L 572.676818 249.997777 
z
" style="fill:none;stroke:#ff0000;stroke-dasharray:5,2;stroke-dashoffset:0;stroke-linejoin:miter;"/>
   </g>
   <g id="patch_53">
    <path clip-path="url(#p2d123fe089)" d="M 621.55375 567.180625 
L 670.430682 567.180625 
L 670.430682 213.222954 
L 621.55375 213.222954 
z
" style="fill:none;stroke:#ff0000;stroke-dasharray:5,2;stroke-dashoffset:0;stroke-linejoin:miter;"/>
   </g>
   <g id="patch_54">
    <path clip-path="url(#p2d123fe089)" d="M 670.430682 567.180625 
L 719.307614 567.180625 
L 719.307614 204.029249 
L 670.430682 204.029249 
z
" style="fill:none;stroke:#ff0000;stroke-dasharray:5,2;stroke-dashoffset:0;stroke-linejoin:miter;"/>
   </g>
   <g id="patch_55">
    <path clip-path="url(#p2d123fe089)" d="M 719.307614 567.180625 
L 768.184545 567.180625 
L 768.184545 217.819807 
L 719.307614 217.819807 
z
" style="fill:none;stroke:#ff0000;stroke-dasharray:5,2;stroke-dashoffset:0;stroke-linejoin:miter;"/>
   </g>
   <g id="patch_56">
    <path clip-path="url(#p2d123fe089)" d="M 768.184545 567.180625 
L 817.061477 567.180625 
L 817.061477 158.06072 
L 768.184545 158.06072 
z
" style="fill:none;stroke:#ff0000;stroke-dasharray:5,2;stroke-dashoffset:0;stroke-linejoin:miter;"/>
   </g>
   <g id="patch_57">
    <path clip-path="url(#p2d123fe089)" d="M 817.061477 567.180625 
L 865.938409 567.180625 
L 865.938409 231.610366 
L 817.061477 231.610366 
z
" style="fill:none;stroke:#ff0000;stroke-dasharray:5,2;stroke-dashoffset:0;stroke-linejoin:miter;"/>
   </g>
   <g id="patch_58">
    <path clip-path="url(#p2d123fe089)" d="M 865.938409 567.180625 
L 914.815341 567.180625 
L 914.815341 272.982042 
L 865.938409 272.982042 
z
" style="fill:none;stroke:#ff0000;stroke-dasharray:5,2;stroke-dashoffset:0;stroke-linejoin:miter;"/>
   </g>
   <g id="patch_59">
    <path clip-path="url(#p2d123fe089)" d="M 914.815341 567.180625 
L 963.692273 567.180625 
L 963.692273 392.500216 
L 914.815341 392.500216 
z
" style="fill:none;stroke:#ff0000;stroke-dasharray:5,2;stroke-dashoffset:0;stroke-linejoin:miter;"/>
   </g>
   <g id="patch_60">
    <path clip-path="url(#p2d123fe089)" d="M 963.692273 567.180625 
L 1012.569205 567.180625 
L 1012.569205 447.662451 
L 963.692273 447.662451 
z
" style="fill:none;stroke:#ff0000;stroke-dasharray:5,2;stroke-dashoffset:0;stroke-linejoin:miter;"/>
   </g>
   <g id="patch_61">
    <path clip-path="url(#p2d123fe089)" d="M 1012.569205 567.180625 
L 1061.446136 567.180625 
L 1061.446136 516.615243 
L 1012.569205 516.615243 
z
" style="fill:none;stroke:#ff0000;stroke-dasharray:5,2;stroke-dashoffset:0;stroke-linejoin:miter;"/>
   </g>
   <g id="patch_62">
    <path clip-path="url(#p2d123fe089)" d="M 1061.446136 567.180625 
L 1110.323068 567.180625 
L 1110.323068 562.583772 
L 1061.446136 562.583772 
z
" style="fill:none;stroke:#ff0000;stroke-dasharray:5,2;stroke-dashoffset:0;stroke-linejoin:miter;"/>
   </g>
   <g id="matplotlib.axis_1">
    <g id="xtick_1">
     <g id="line2d_1">
      <defs>
       <path d="M 0 0 
L 0 -6 
" id="m0882187718" style="stroke:#333333;stroke-width:0.8;"/>
      </defs>
      <g>
       <use style="fill:#333333;stroke:#333333;stroke-width:0.8;" x="132.784432" xlink:href="#m0882187718" y="567.180625"/>
      </g>
     </g>
     <g id="text_1">
      <!-- $\mathdefault{0.0}$ -->
      <defs>
       <path d="M 34.8125 4.296875 
Q 40.671875 4.296875 42.84375 9.609375 
Q 45.015625 14.9375 45.015625 36.375 
Q 45.015625 57.671875 42.84375 63.078125 
Q 40.671875 68.5 34.8125 68.5 
Q 28.953125 68.5 26.78125 63.171875 
Q 24.609375 57.859375 24.609375 36.375 
Q 24.609375 14.9375 26.78125 9.609375 
Q 28.953125 4.296875 34.8125 4.296875 
z
M 34.8125 -1.421875 
Q 20.21875 -1.421875 12.453125 8.3125 
Q 4.6875 18.0625 4.6875 36.375 
Q 4.6875 54.6875 12.453125 64.453125 
Q 20.21875 74.21875 34.8125 74.21875 
Q 49.359375 74.21875 57.125 64.453125 
Q 64.890625 54.6875 64.890625 36.375 
Q 64.890625 18.0625 57.125 8.3125 
Q 49.359375 -1.421875 34.8125 -1.421875 
z
" id="DejaVuSerif-Bold-48"/>
       <path d="M 8.109375 7.90625 
Q 8.109375 11.71875 10.84375 14.453125 
Q 13.578125 17.1875 17.390625 17.1875 
Q 21.234375 17.1875 23.96875 14.453125 
Q 26.703125 11.71875 26.703125 7.90625 
Q 26.703125 4.046875 23.96875 1.3125 
Q 21.234375 -1.421875 17.390625 -1.421875 
Q 13.578125 -1.421875 10.84375 1.3125 
Q 8.109375 4.046875 8.109375 7.90625 
z
" id="DejaVuSerif-Bold-46"/>
      </defs>
      <g style="fill:#333333;" transform="translate(113.644432 587.397188)scale(0.22 -0.22)">
       <use transform="translate(0 0.78125)" xlink:href="#DejaVuSerif-Bold-48"/>
       <use transform="translate(69.580078 0.78125)" xlink:href="#DejaVuSerif-Bold-46"/>
       <use transform="translate(104.394531 0.78125)" xlink:href="#DejaVuSerif-Bold-48"/>
      </g>
     </g>
    </g>
    <g id="xtick_2">
     <g id="line2d_2">
      <g>
       <use style="fill:#333333;stroke:#333333;stroke-width:0.8;" x="328.292159" xlink:href="#m0882187718" y="567.180625"/>
      </g>
     </g>
     <g id="text_2">
      <!-- $\mathdefault{0.2}$ -->
      <defs>
       <path d="M 13.1875 54.890625 
L 7.328125 54.890625 
L 7.328125 70.609375 
Q 13.28125 72.40625 19.109375 73.3125 
Q 24.953125 74.21875 30.90625 74.21875 
Q 44.828125 74.21875 52.609375 68.53125 
Q 60.40625 62.84375 60.40625 52.6875 
Q 60.40625 45.453125 56.109375 39.71875 
Q 51.8125 33.984375 39.703125 26.125 
L 19.390625 12.796875 
L 53.90625 12.796875 
L 53.90625 21.390625 
L 60.59375 21.390625 
L 60.59375 0 
L 6.6875 0 
L 6.6875 11.921875 
L 17.484375 19.390625 
Q 31.296875 28.90625 35.890625 35.59375 
Q 40.484375 42.28125 40.484375 51.21875 
Q 40.484375 59.671875 36.984375 64.078125 
Q 33.5 68.5 26.8125 68.5 
Q 21.046875 68.5 17.578125 65.015625 
Q 14.109375 61.53125 13.1875 54.890625 
z
" id="DejaVuSerif-Bold-50"/>
      </defs>
      <g style="fill:#333333;" transform="translate(309.152159 587.397188)scale(0.22 -0.22)">
       <use transform="translate(0 0.78125)" xlink:href="#DejaVuSerif-Bold-48"/>
       <use transform="translate(69.580078 0.78125)" xlink:href="#DejaVuSerif-Bold-46"/>
       <use transform="translate(104.363281 0.78125)" xlink:href="#DejaVuSerif-Bold-50"/>
      </g>
     </g>
    </g>
    <g id="xtick_3">
     <g id="line2d_3">
      <g>
       <use style="fill:#333333;stroke:#333333;stroke-width:0.8;" x="523.799886" xlink:href="#m0882187718" y="567.180625"/>
      </g>
     </g>
     <g id="text_3">
      <!-- $\mathdefault{0.4}$ -->
      <defs>
       <path d="M 63.8125 0 
L 23.6875 0 
L 23.6875 5.90625 
L 34.515625 5.90625 
L 34.515625 19.1875 
L 4.109375 19.1875 
L 4.109375 24.8125 
L 34.625 74.21875 
L 52.984375 74.21875 
L 52.984375 25.484375 
L 65.484375 25.484375 
L 65.484375 19.1875 
L 52.984375 19.1875 
L 52.984375 5.90625 
L 63.8125 5.90625 
z
M 34.515625 25.484375 
L 34.515625 60.890625 
L 12.796875 25.484375 
z
" id="DejaVuSerif-Bold-52"/>
      </defs>
      <g style="fill:#333333;" transform="translate(504.659886 587.397188)scale(0.22 -0.22)">
       <use transform="translate(0 0.78125)" xlink:href="#DejaVuSerif-Bold-48"/>
       <use transform="translate(69.580078 0.78125)" xlink:href="#DejaVuSerif-Bold-46"/>
       <use transform="translate(104.394531 0.78125)" xlink:href="#DejaVuSerif-Bold-52"/>
      </g>
     </g>
    </g>
    <g id="xtick_4">
     <g id="line2d_4">
      <g>
       <use style="fill:#333333;stroke:#333333;stroke-width:0.8;" x="719.307614" xlink:href="#m0882187718" y="567.180625"/>
      </g>
     </g>
     <g id="text_4">
      <!-- $\mathdefault{0.6}$ -->
      <defs>
       <path d="M 24.609375 43.21875 
Q 27.78125 45.75 31.703125 47.015625 
Q 35.640625 48.296875 40.28125 48.296875 
Q 51.46875 48.296875 57.828125 41.75 
Q 64.203125 35.203125 64.203125 23.78125 
Q 64.203125 11.71875 57.03125 5.140625 
Q 49.859375 -1.421875 36.625 -1.421875 
Q 21.6875 -1.421875 13.984375 7.59375 
Q 6.296875 16.609375 6.296875 34.078125 
Q 6.296875 53.953125 14.84375 64.078125 
Q 23.390625 74.21875 40.1875 74.21875 
Q 44.578125 74.21875 49.609375 73.484375 
Q 54.640625 72.75 60.40625 71.296875 
L 60.40625 58.40625 
L 54.5 58.40625 
Q 53.265625 63.375 49.875 65.9375 
Q 46.484375 68.5 41.109375 68.5 
Q 32.421875 68.5 28.53125 62.546875 
Q 24.65625 56.59375 24.609375 43.21875 
z
M 35.5 4.296875 
Q 40.53125 4.296875 42.671875 8.5625 
Q 44.828125 12.84375 44.828125 23.390625 
Q 44.828125 33.9375 42.671875 38.203125 
Q 40.53125 42.484375 35.5 42.484375 
Q 30.46875 42.484375 28.34375 38.203125 
Q 26.21875 33.9375 26.21875 23.390625 
Q 26.21875 12.84375 28.34375 8.5625 
Q 30.46875 4.296875 35.5 4.296875 
z
" id="DejaVuSerif-Bold-54"/>
      </defs>
      <g style="fill:#333333;" transform="translate(700.167614 587.397188)scale(0.22 -0.22)">
       <use transform="translate(0 0.78125)" xlink:href="#DejaVuSerif-Bold-48"/>
       <use transform="translate(69.580078 0.78125)" xlink:href="#DejaVuSerif-Bold-46"/>
       <use transform="translate(104.394531 0.78125)" xlink:href="#DejaVuSerif-Bold-54"/>
      </g>
     </g>
    </g>
    <g id="xtick_5">
     <g id="line2d_5">
      <g>
       <use style="fill:#333333;stroke:#333333;stroke-width:0.8;" x="914.815341" xlink:href="#m0882187718" y="567.180625"/>
      </g>
     </g>
     <g id="text_5">
      <!-- $\mathdefault{0.8}$ -->
      <defs>
       <path d="M 46.484375 38.8125 
Q 55.171875 37.40625 59.6875 32.421875 
Q 64.203125 27.4375 64.203125 19.390625 
Q 64.203125 9.328125 56.609375 3.953125 
Q 49.03125 -1.421875 34.71875 -1.421875 
Q 20.40625 -1.421875 12.78125 3.953125 
Q 5.171875 9.328125 5.171875 19.390625 
Q 5.171875 27.4375 9.71875 32.421875 
Q 14.265625 37.40625 22.90625 38.8125 
Q 15.234375 40.578125 11.421875 44.703125 
Q 7.625 48.828125 7.625 55.171875 
Q 7.625 64.453125 14.546875 69.328125 
Q 21.484375 74.21875 34.71875 74.21875 
Q 47.90625 74.21875 54.859375 69.328125 
Q 61.8125 64.453125 61.8125 55.171875 
Q 61.8125 48.828125 57.984375 44.703125 
Q 54.15625 40.578125 46.484375 38.8125 
z
M 42.921875 54.984375 
Q 42.921875 62.703125 41.0625 65.59375 
Q 39.203125 68.5 34.71875 68.5 
Q 30.171875 68.5 28.34375 65.59375 
Q 26.515625 62.703125 26.515625 54.984375 
Q 26.515625 47.3125 28.34375 44.453125 
Q 30.171875 41.609375 34.71875 41.609375 
Q 39.265625 41.609375 41.09375 44.453125 
Q 42.921875 47.3125 42.921875 54.984375 
z
M 44.828125 20.21875 
Q 44.828125 29.15625 42.546875 32.515625 
Q 40.28125 35.890625 34.71875 35.890625 
Q 29.109375 35.890625 26.859375 32.515625 
Q 24.609375 29.15625 24.609375 20.21875 
Q 24.609375 11.1875 26.875 7.734375 
Q 29.15625 4.296875 34.71875 4.296875 
Q 40.234375 4.296875 42.53125 7.734375 
Q 44.828125 11.1875 44.828125 20.21875 
z
" id="DejaVuSerif-Bold-56"/>
      </defs>
      <g style="fill:#333333;" transform="translate(895.675341 587.397188)scale(0.22 -0.22)">
       <use transform="translate(0 0.78125)" xlink:href="#DejaVuSerif-Bold-48"/>
       <use transform="translate(69.580078 0.78125)" xlink:href="#DejaVuSerif-Bold-46"/>
       <use transform="translate(104.347656 0.78125)" xlink:href="#DejaVuSerif-Bold-56"/>
      </g>
     </g>
    </g>
    <g id="xtick_6">
     <g id="line2d_6">
      <g>
       <use style="fill:#333333;stroke:#333333;stroke-width:0.8;" x="1110.323068" xlink:href="#m0882187718" y="567.180625"/>
      </g>
     </g>
     <g id="text_6">
      <!-- $\mathdefault{1.0}$ -->
      <defs>
       <path d="M 13.71875 0 
L 13.71875 5.90625 
L 27.390625 5.90625 
L 27.390625 64.890625 
L 12.203125 55.90625 
L 12.203125 63.1875 
L 30.515625 74.21875 
L 45.90625 74.21875 
L 45.90625 5.90625 
L 59.625 5.90625 
L 59.625 0 
z
" id="DejaVuSerif-Bold-49"/>
      </defs>
      <g style="fill:#333333;" transform="translate(1091.183068 587.397188)scale(0.22 -0.22)">
       <use transform="translate(0 0.78125)" xlink:href="#DejaVuSerif-Bold-49"/>
       <use transform="translate(69.580078 0.78125)" xlink:href="#DejaVuSerif-Bold-46"/>
       <use transform="translate(104.394531 0.78125)" xlink:href="#DejaVuSerif-Bold-48"/>
      </g>
     </g>
    </g>
    <g id="text_7">
     <!-- e -->
     <defs>
      <path d="M 40.09375 29.296875 
Q 40.09375 39.546875 38.1875 43.671875 
Q 36.28125 47.796875 31.6875 47.796875 
Q 27.25 47.796875 25.3125 43.75 
Q 23.390625 39.703125 23.390625 30.171875 
L 23.390625 29.296875 
z
M 59.078125 23.484375 
L 23.390625 23.484375 
L 23.390625 23.09375 
Q 23.390625 13.03125 26.40625 8.5625 
Q 29.4375 4.109375 36.1875 4.109375 
Q 41.796875 4.109375 45.265625 7.078125 
Q 48.734375 10.0625 49.703125 15.71875 
L 57.8125 15.71875 
Q 55.71875 6.890625 49.46875 2.734375 
Q 43.21875 -1.421875 31.984375 -1.421875 
Q 18.5 -1.421875 11.296875 5.6875 
Q 4.109375 12.796875 4.109375 25.984375 
Q 4.109375 38.875 11.46875 46.09375 
Q 18.84375 53.328125 31.984375 53.328125 
Q 44.875 53.328125 51.75 45.734375 
Q 58.640625 38.140625 59.078125 23.484375 
z
" id="DejaVuSerif-Bold-101"/>
     </defs>
     <g transform="translate(613.91875 614.20875)scale(0.24 -0.24)">
      <use xlink:href="#DejaVuSerif-Bold-101"/>
     </g>
    </g>
   </g>
   <g id="matplotlib.axis_2">
    <g id="ytick_1">
     <g id="line2d_7">
      <defs>
       <path d="M 0 0 
L 6 0 
" id="mebe495a0f8" style="stroke:#333333;stroke-width:0.8;"/>
      </defs>
      <g>
       <use style="fill:#333333;stroke:#333333;stroke-width:0.8;" x="83.9075" xlink:href="#mebe495a0f8" y="567.180625"/>
      </g>
     </g>
     <g id="text_8">
      <!-- $\mathdefault{0}$ -->
      <g style="fill:#333333;" transform="translate(65.0075 575.538906)scale(0.22 -0.22)">
       <use transform="translate(0 0.78125)" xlink:href="#DejaVuSerif-Bold-48"/>
      </g>
     </g>
    </g>
    <g id="ytick_2">
     <g id="line2d_8">
      <g>
       <use style="fill:#333333;stroke:#333333;stroke-width:0.8;" x="83.9075" xlink:href="#mebe495a0f8" y="475.243568"/>
      </g>
     </g>
     <g id="text_9">
      <!-- $\mathdefault{20}$ -->
      <g style="fill:#333333;" transform="translate(49.6075 483.601849)scale(0.22 -0.22)">
       <use transform="translate(0 0.78125)" xlink:href="#DejaVuSerif-Bold-50"/>
       <use transform="translate(69.580078 0.78125)" xlink:href="#DejaVuSerif-Bold-48"/>
      </g>
     </g>
    </g>
    <g id="ytick_3">
     <g id="line2d_9">
      <g>
       <use style="fill:#333333;stroke:#333333;stroke-width:0.8;" x="83.9075" xlink:href="#mebe495a0f8" y="383.30651"/>
      </g>
     </g>
     <g id="text_10">
      <!-- $\mathdefault{40}$ -->
      <g style="fill:#333333;" transform="translate(49.6075 391.664792)scale(0.22 -0.22)">
       <use transform="translate(0 0.78125)" xlink:href="#DejaVuSerif-Bold-52"/>
       <use transform="translate(69.580078 0.78125)" xlink:href="#DejaVuSerif-Bold-48"/>
      </g>
     </g>
    </g>
    <g id="ytick_4">
     <g id="line2d_10">
      <g>
       <use style="fill:#333333;stroke:#333333;stroke-width:0.8;" x="83.9075" xlink:href="#mebe495a0f8" y="291.369453"/>
      </g>
     </g>
     <g id="text_11">
      <!-- $\mathdefault{60}$ -->
      <g style="fill:#333333;" transform="translate(49.6075 299.727734)scale(0.22 -0.22)">
       <use transform="translate(0 0.78125)" xlink:href="#DejaVuSerif-Bold-54"/>
       <use transform="translate(69.580078 0.78125)" xlink:href="#DejaVuSerif-Bold-48"/>
      </g>
     </g>
    </g>
    <g id="ytick_5">
     <g id="line2d_11">
      <g>
       <use style="fill:#333333;stroke:#333333;stroke-width:0.8;" x="83.9075" xlink:href="#mebe495a0f8" y="199.432396"/>
      </g>
     </g>
     <g id="text_12">
      <!-- $\mathdefault{80}$ -->
      <g style="fill:#333333;" transform="translate(49.6075 207.790677)scale(0.22 -0.22)">
       <use transform="translate(0 0.78125)" xlink:href="#DejaVuSerif-Bold-56"/>
       <use transform="translate(69.580078 0.78125)" xlink:href="#DejaVuSerif-Bold-48"/>
      </g>
     </g>
    </g>
    <g id="ytick_6">
     <g id="line2d_12">
      <g>
       <use style="fill:#333333;stroke:#333333;stroke-width:0.8;" x="83.9075" xlink:href="#mebe495a0f8" y="107.495339"/>
      </g>
     </g>
     <g id="text_13">
      <!-- $\mathdefault{100}$ -->
      <g style="fill:#333333;" transform="translate(34.4275 115.85362)scale(0.22 -0.22)">
       <use transform="translate(0 0.78125)" xlink:href="#DejaVuSerif-Bold-49"/>
       <use transform="translate(69.580078 0.78125)" xlink:href="#DejaVuSerif-Bold-48"/>
       <use transform="translate(139.160156 0.78125)" xlink:href="#DejaVuSerif-Bold-48"/>
      </g>
     </g>
    </g>
    <g id="ytick_7">
     <g id="line2d_13">
      <g>
       <use style="fill:#333333;stroke:#333333;stroke-width:0.8;" x="83.9075" xlink:href="#mebe495a0f8" y="15.558281"/>
      </g>
     </g>
     <g id="text_14">
      <!-- $\mathdefault{120}$ -->
      <g style="fill:#333333;" transform="translate(34.4275 23.916563)scale(0.22 -0.22)">
       <use transform="translate(0 0.78125)" xlink:href="#DejaVuSerif-Bold-49"/>
       <use transform="translate(69.580078 0.78125)" xlink:href="#DejaVuSerif-Bold-50"/>
       <use transform="translate(139.160156 0.78125)" xlink:href="#DejaVuSerif-Bold-48"/>
      </g>
     </g>
    </g>
    <g id="text_15">
     <!-- N(e) -->
     <defs>
      <path d="M 4.390625 0 
L 4.390625 5.90625 
L 13.71875 5.90625 
L 13.71875 67 
L 4.390625 67 
L 4.390625 72.90625 
L 27.203125 72.90625 
L 71.1875 21.296875 
L 71.1875 67 
L 61.921875 67 
L 61.921875 72.90625 
L 87.40625 72.90625 
L 87.40625 67 
L 78.078125 67 
L 78.078125 0 
L 65.28125 0 
L 20.609375 52.6875 
L 20.609375 5.90625 
L 29.890625 5.90625 
L 29.890625 0 
z
" id="DejaVuSerif-Bold-78"/>
      <path d="M 42.09375 -15.578125 
Q 25.640625 -9.46875 17.53125 1.90625 
Q 9.421875 13.28125 9.421875 30.171875 
Q 9.421875 47.078125 17.421875 58.296875 
Q 25.4375 69.53125 42.09375 75.984375 
L 42.09375 70.125 
Q 34.375 65.4375 30.984375 56.21875 
Q 27.59375 47.015625 27.59375 30.171875 
Q 27.59375 13.375 30.984375 4.171875 
Q 34.375 -5.03125 42.09375 -9.71875 
z
" id="DejaVuSerif-Bold-40"/>
      <path d="M 5.078125 -15.578125 
L 5.078125 -9.71875 
Q 12.796875 -5.03125 16.1875 4.171875 
Q 19.578125 13.375 19.578125 30.171875 
Q 19.578125 47.015625 16.1875 56.21875 
Q 12.796875 65.4375 5.078125 70.125 
L 5.078125 75.984375 
Q 21.734375 69.53125 29.765625 58.296875 
Q 37.796875 47.078125 37.796875 30.171875 
Q 37.796875 13.28125 29.65625 1.90625 
Q 21.53125 -9.46875 5.078125 -15.578125 
z
" id="DejaVuSerif-Bold-41"/>
     </defs>
     <g transform="translate(25.43625 321.328203)rotate(-90)scale(0.24 -0.24)">
      <use xlink:href="#DejaVuSerif-Bold-78"/>
      <use x="91.40625" xlink:href="#DejaVuSerif-Bold-40"/>
      <use x="138.720703" xlink:href="#DejaVuSerif-Bold-101"/>
      <use x="202.34375" xlink:href="#DejaVuSerif-Bold-41"/>
     </g>
    </g>
   </g>
   <g id="patch_63">
    <path d="M 83.9075 567.180625 
L 83.9075 15.558281 
" style="fill:none;stroke:#333333;stroke-linecap:square;stroke-linejoin:miter;stroke-width:0.8;"/>
   </g>
   <g id="patch_64">
    <path d="M 1159.2 567.180625 
L 1159.2 15.558281 
" style="fill:none;stroke:#333333;stroke-linecap:square;stroke-linejoin:miter;stroke-width:0.8;"/>
   </g>
   <g id="patch_65">
    <path d="M 83.9075 567.180625 
L 1159.2 567.180625 
" style="fill:none;stroke:#333333;stroke-linecap:square;stroke-linejoin:miter;stroke-width:0.8;"/>
   </g>
   <g id="patch_66">
    <path d="M 83.9075 15.558281 
L 1159.2 15.558281 
" style="fill:none;stroke:#333333;stroke-linecap:square;stroke-linejoin:miter;stroke-width:0.8;"/>
   </g>
   <g id="legend_1">
    <g id="text_16">
     <!-- Cloud 1 -->
     <defs>
      <path d="M 74.515625 20.796875 
Q 71.625 9.515625 64.15625 4.046875 
Q 56.6875 -1.421875 44.09375 -1.421875 
Q 25.640625 -1.421875 14.921875 8.765625 
Q 4.203125 18.953125 4.203125 36.375 
Q 4.203125 53.859375 14.921875 64.03125 
Q 25.640625 74.21875 44.09375 74.21875 
Q 50.59375 74.21875 57.625 72.65625 
Q 64.65625 71.09375 72.515625 67.921875 
L 72.515625 50 
L 66.3125 50 
Q 64.40625 59.1875 59.375 63.75 
Q 54.34375 68.3125 46.09375 68.3125 
Q 35.453125 68.3125 30.265625 60.46875 
Q 25.09375 52.640625 25.09375 36.375 
Q 25.09375 20.125 30.265625 12.3125 
Q 35.453125 4.5 46.1875 4.5 
Q 53.46875 4.5 58.078125 8.546875 
Q 62.703125 12.59375 64.796875 20.796875 
z
" id="DejaVuSerif-Bold-67"/>
      <path d="M 28.078125 5.90625 
L 35.5 5.90625 
L 35.5 0 
L 3.421875 0 
L 3.421875 5.90625 
L 10.796875 5.90625 
L 10.796875 70.125 
L 3.421875 70.125 
L 3.421875 75.984375 
L 28.078125 75.984375 
z
" id="DejaVuSerif-Bold-108"/>
      <path d="M 33.40625 4.109375 
Q 38.875 4.109375 41.09375 8.796875 
Q 43.3125 13.484375 43.3125 25.984375 
Q 43.3125 38.484375 41.109375 43.140625 
Q 38.921875 47.796875 33.40625 47.796875 
Q 27.875 47.796875 25.625 43.078125 
Q 23.390625 38.375 23.390625 25.984375 
Q 23.390625 13.578125 25.625 8.84375 
Q 27.875 4.109375 33.40625 4.109375 
z
M 33.40625 -1.421875 
Q 19.671875 -1.421875 11.890625 5.875 
Q 4.109375 13.1875 4.109375 25.984375 
Q 4.109375 38.8125 11.890625 46.0625 
Q 19.671875 53.328125 33.40625 53.328125 
Q 47.171875 53.328125 54.9375 46.0625 
Q 62.703125 38.8125 62.703125 25.984375 
Q 62.703125 13.1875 54.90625 5.875 
Q 47.125 -1.421875 33.40625 -1.421875 
z
" id="DejaVuSerif-Bold-111"/>
      <path d="M 61.921875 51.90625 
L 61.921875 5.90625 
L 69.28125 5.90625 
L 69.28125 0 
L 44.578125 0 
L 44.578125 7.328125 
Q 41.5 2.6875 37.5 0.625 
Q 33.5 -1.421875 27.390625 -1.421875 
Q 18.65625 -1.421875 14.1875 3.734375 
Q 9.71875 8.890625 9.71875 18.890625 
L 9.71875 46 
L 2.296875 46 
L 2.296875 51.90625 
L 27 51.90625 
L 27 21.578125 
Q 27 11.921875 28.609375 9.296875 
Q 30.21875 6.6875 34.515625 6.6875 
Q 39.75 6.6875 42.15625 10.546875 
Q 44.578125 14.40625 44.578125 22.796875 
L 44.578125 46 
L 38.28125 46 
L 38.28125 51.90625 
z
" id="DejaVuSerif-Bold-117"/>
      <path d="M 42.921875 23.390625 
L 42.921875 28.515625 
Q 42.921875 37.59375 40.578125 41.640625 
Q 38.234375 45.703125 33.109375 45.703125 
Q 27.734375 45.703125 25.5625 41.421875 
Q 23.390625 37.15625 23.390625 25.984375 
Q 23.390625 14.796875 25.578125 10.5 
Q 27.78125 6.203125 33.109375 6.203125 
Q 38.234375 6.203125 40.578125 10.25 
Q 42.921875 14.3125 42.921875 23.390625 
z
M 60.203125 5.90625 
L 67.578125 5.90625 
L 67.578125 0 
L 42.921875 0 
L 42.921875 6.59375 
Q 40.71875 2.546875 36.984375 0.5625 
Q 33.25 -1.421875 27.78125 -1.421875 
Q 16.75 -1.421875 10.421875 5.90625 
Q 4.109375 13.234375 4.109375 25.984375 
Q 4.109375 38.765625 10.421875 46.046875 
Q 16.75 53.328125 27.78125 53.328125 
Q 33.25 53.328125 36.984375 51.34375 
Q 40.71875 49.359375 42.921875 45.3125 
L 42.921875 70.125 
L 35.5 70.125 
L 35.5 75.984375 
L 60.203125 75.984375 
z
" id="DejaVuSerif-Bold-100"/>
      <path id="DejaVuSerif-Bold-32"/>
     </defs>
     <g transform="translate(990.734375 53.594531)scale(0.24 -0.24)">
      <use xlink:href="#DejaVuSerif-Bold-67"/>
      <use x="79.589844" xlink:href="#DejaVuSerif-Bold-108"/>
      <use x="117.578125" xlink:href="#DejaVuSerif-Bold-111"/>
      <use x="184.277344" xlink:href="#DejaVuSerif-Bold-117"/>
      <use x="256.982422" xlink:href="#DejaVuSerif-Bold-100"/>
      <use x="326.904297" xlink:href="#DejaVuSerif-Bold-32"/>
      <use x="361.71875" xlink:href="#DejaVuSerif-Bold-49"/>
     </g>
    </g>
    <g id="patch_67">
     <path d="M 945.58 86.302344 
L 989.58 86.302344 
L 989.58 70.902344 
L 945.58 70.902344 
z
" style="fill:none;stroke:#ff0000;stroke-dasharray:5,2;stroke-dashoffset:0;stroke-linejoin:miter;"/>
    </g>
    <g id="text_17">
     <!-- $t_N=$ 0 Myr -->
     <defs>
      <path d="M 9.90625 46 
L 2.390625 46 
L 2.390625 51.90625 
L 9.90625 51.90625 
L 9.90625 68.015625 
L 27.203125 68.015625 
L 27.203125 51.90625 
L 41.609375 51.90625 
L 41.609375 46 
L 27.203125 46 
L 27.203125 14.203125 
Q 27.203125 7.421875 28.265625 5.765625 
Q 29.34375 4.109375 32.171875 4.109375 
Q 35.296875 4.109375 36.8125 6.203125 
Q 38.328125 8.296875 38.421875 12.703125 
L 45.703125 12.703125 
Q 45.265625 4.890625 41.421875 1.734375 
Q 37.59375 -1.421875 28.21875 -1.421875 
Q 17.53125 -1.421875 13.71875 1.921875 
Q 9.90625 5.28125 9.90625 14.203125 
z
" id="DejaVuSerif-Bold-116"/>
      <path d="M 10.59375 25.78125 
L 73.1875 25.78125 
L 73.1875 14.703125 
L 10.59375 14.703125 
z
M 10.59375 48 
L 73.1875 48 
L 73.1875 36.921875 
L 10.59375 36.921875 
z
" id="DejaVuSerif-Bold-61"/>
      <path d="M 4.203125 0 
L 4.203125 5.90625 
L 13.484375 5.90625 
L 13.484375 67 
L 4.203125 67 
L 4.203125 72.90625 
L 34.28125 72.90625 
L 55.078125 26.125 
L 75.984375 72.90625 
L 106 72.90625 
L 106 67 
L 96.6875 67 
L 96.6875 5.90625 
L 106 5.90625 
L 106 0 
L 68.5 0 
L 68.5 5.90625 
L 77.78125 5.90625 
L 77.78125 61.53125 
L 55.171875 10.6875 
L 42.828125 10.6875 
L 20.3125 61.53125 
L 20.3125 5.90625 
L 29.59375 5.90625 
L 29.59375 0 
z
" id="DejaVuSerif-Bold-77"/>
      <path d="M 31.203125 -11.71875 
Q 28.859375 -17.4375 25.53125 -19.828125 
Q 22.21875 -22.21875 16.609375 -22.21875 
Q 14.203125 -22.21875 11.265625 -21.671875 
Q 8.34375 -21.140625 4.890625 -20.125 
L 4.890625 -9.28125 
L 10.40625 -9.328125 
Q 10.546875 -13.09375 12.171875 -14.890625 
Q 13.8125 -16.703125 17.09375 -16.703125 
Q 20.265625 -16.703125 22.21875 -14.96875 
Q 24.171875 -13.234375 26.125 -8.40625 
L 26.90625 -6.59375 
L 4.296875 46 
L -1.3125 46 
L -1.3125 51.90625 
L 28.609375 51.90625 
L 28.609375 46 
L 22.40625 46 
L 35.59375 15.28125 
L 47.90625 46 
L 41.015625 46 
L 41.015625 51.90625 
L 60.5 51.90625 
L 60.5 46 
L 54.203125 46 
z
" id="DejaVuSerif-Bold-121"/>
      <path d="M 53.71875 52.484375 
L 53.71875 37.015625 
L 48.1875 37.015625 
Q 47.90625 41.15625 45.953125 43.1875 
Q 44 45.21875 40.28125 45.21875 
Q 34.625 45.21875 31.34375 40.234375 
Q 28.078125 35.25 28.078125 26.421875 
L 28.078125 5.90625 
L 37.5 5.90625 
L 37.5 0 
L 3.421875 0 
L 3.421875 5.90625 
L 10.796875 5.90625 
L 10.796875 46 
L 2.875 46 
L 2.875 51.90625 
L 28.078125 51.90625 
L 28.078125 42.671875 
Q 30.609375 48.09375 34.78125 50.703125 
Q 38.96875 53.328125 45.015625 53.328125 
Q 46.53125 53.328125 48.703125 53.09375 
Q 50.875 52.875 53.71875 52.484375 
z
" id="DejaVuSerif-Bold-114"/>
     </defs>
     <g transform="translate(1007.18 86.302344)scale(0.22 -0.22)">
      <use transform="translate(0 0.78125)" xlink:href="#DejaVuSerif-Bold-116"/>
      <use transform="translate(47.099766 -14.790625)scale(0.7)" xlink:href="#DejaVuSerif-Bold-78"/>
      <use transform="translate(134.841563 0.78125)" xlink:href="#DejaVuSerif-Bold-61"/>
      <use transform="translate(239.792734 0.78125)" xlink:href="#DejaVuSerif-Bold-32"/>
      <use transform="translate(274.607188 0.78125)" xlink:href="#DejaVuSerif-Bold-48"/>
      <use transform="translate(344.187266 0.78125)" xlink:href="#DejaVuSerif-Bold-32"/>
      <use transform="translate(379.001719 0.78125)" xlink:href="#DejaVuSerif-Bold-77"/>
      <use transform="translate(489.695078 0.78125)" xlink:href="#DejaVuSerif-Bold-121"/>
      <use transform="translate(547.800547 0.78125)" xlink:href="#DejaVuSerif-Bold-114"/>
     </g>
    </g>
    <g id="patch_68">
     <path d="M 945.58 119.078906 
L 989.58 119.078906 
L 989.58 103.678906 
L 945.58 103.678906 
z
" style="fill:none;stroke:#000000;stroke-linejoin:miter;stroke-width:3;"/>
    </g>
    <g id="text_18">
     <!-- $t_N=$ 5 Myr -->
     <defs>
      <path d="M 56.390625 72.90625 
L 56.390625 60.109375 
L 17.390625 60.109375 
L 17.390625 44.09375 
Q 20.609375 46.578125 24.5625 47.84375 
Q 28.515625 49.125 32.90625 49.125 
Q 46.390625 49.125 54.203125 42.3125 
Q 62.015625 35.5 62.015625 23.78125 
Q 62.015625 11.859375 54.203125 5.21875 
Q 46.390625 -1.421875 32.328125 -1.421875 
Q 26.375 -1.421875 20.484375 -0.4375 
Q 14.59375 0.53125 8.203125 2.59375 
L 8.203125 18.5 
L 14.0625 18.5 
Q 14.359375 11.328125 17.796875 7.8125 
Q 21.234375 4.296875 27.984375 4.296875 
Q 35.15625 4.296875 38.625 9.109375 
Q 42.09375 13.921875 42.09375 23.78125 
Q 42.09375 33.5 38.6875 38.296875 
Q 35.296875 43.109375 28.421875 43.109375 
Q 24.703125 43.109375 21.796875 41.578125 
Q 18.890625 40.046875 16.40625 36.8125 
L 11.53125 36.8125 
L 11.53125 72.90625 
z
" id="DejaVuSerif-Bold-53"/>
     </defs>
     <g transform="translate(1007.18 119.078906)scale(0.22 -0.22)">
      <use transform="translate(0 0.09375)" xlink:href="#DejaVuSerif-Bold-116"/>
      <use transform="translate(47.099766 -15.478125)scale(0.7)" xlink:href="#DejaVuSerif-Bold-78"/>
      <use transform="translate(134.841563 0.09375)" xlink:href="#DejaVuSerif-Bold-61"/>
      <use transform="translate(239.792734 0.09375)" xlink:href="#DejaVuSerif-Bold-32"/>
      <use transform="translate(274.607188 0.09375)" xlink:href="#DejaVuSerif-Bold-53"/>
      <use transform="translate(344.187266 0.09375)" xlink:href="#DejaVuSerif-Bold-32"/>
      <use transform="translate(379.001719 0.09375)" xlink:href="#DejaVuSerif-Bold-77"/>
      <use transform="translate(489.695078 0.09375)" xlink:href="#DejaVuSerif-Bold-121"/>
      <use transform="translate(547.800547 0.09375)" xlink:href="#DejaVuSerif-Bold-114"/>
     </g>
    </g>
   </g>
  </g>
 </g>
 <defs>
  <clipPath id="p2d123fe089">
   <rect height="551.622344" width="1075.2925" x="83.9075" y="15.558281"/>
  </clipPath>
 </defs>
</svg>
