<?xml version="1.0" encoding="utf-8" standalone="no"?>
<!DOCTYPE svg PUBLIC "-//W3C//DTD SVG 1.1//EN"
  "http://www.w3.org/Graphics/SVG/1.1/DTD/svg11.dtd">
<!-- Created with matplotlib (https://matplotlib.org/) -->
<svg height="520.750156pt" version="1.1" viewBox="0 0 641.4075 520.750156" width="641.4075pt" xmlns="http://www.w3.org/2000/svg" xmlns:xlink="http://www.w3.org/1999/xlink">
 <defs>
  <style type="text/css">
*{stroke-linecap:butt;stroke-linejoin:round;}
  </style>
 </defs>
 <g id="figure_1">
  <g id="patch_1">
   <path d="M 0 520.750156 
L 641.4075 520.750156 
L 641.4075 0 
L 0 0 
z
" style="fill:#ffffff;"/>
  </g>
  <g id="axes_1">
   <g id="patch_2">
    <path d="M 76.2075 459.078281 
L 634.2075 459.078281 
L 634.2075 15.558281 
L 76.2075 15.558281 
z
" style="fill:#ffffff;"/>
   </g>
   <g id="matplotlib.axis_1">
    <g id="xtick_1">
     <g id="line2d_1">
      <defs>
       <path d="M 0 0 
L 0 -6 
" id="m2c6a335fcd" style="stroke:#333333;stroke-width:0.8;"/>
      </defs>
      <g>
       <use style="fill:#333333;stroke:#333333;stroke-width:0.8;" x="153.427948" xlink:href="#m2c6a335fcd" y="459.078281"/>
      </g>
     </g>
     <g id="text_1">
      <!-- $\mathdefault{2.0}$ -->
      <defs>
       <path d="M 13.1875 54.890625 
L 7.328125 54.890625 
L 7.328125 70.609375 
Q 13.28125 72.40625 19.109375 73.3125 
Q 24.953125 74.21875 30.90625 74.21875 
Q 44.828125 74.21875 52.609375 68.53125 
Q 60.40625 62.84375 60.40625 52.6875 
Q 60.40625 45.453125 56.109375 39.71875 
Q 51.8125 33.984375 39.703125 26.125 
L 19.390625 12.796875 
L 53.90625 12.796875 
L 53.90625 21.390625 
L 60.59375 21.390625 
L 60.59375 0 
L 6.6875 0 
L 6.6875 11.921875 
L 17.484375 19.390625 
Q 31.296875 28.90625 35.890625 35.59375 
Q 40.484375 42.28125 40.484375 51.21875 
Q 40.484375 59.671875 36.984375 64.078125 
Q 33.5 68.5 26.8125 68.5 
Q 21.046875 68.5 17.578125 65.015625 
Q 14.109375 61.53125 13.1875 54.890625 
z
" id="DejaVuSerif-Bold-50"/>
       <path d="M 8.109375 7.90625 
Q 8.109375 11.71875 10.84375 14.453125 
Q 13.578125 17.1875 17.390625 17.1875 
Q 21.234375 17.1875 23.96875 14.453125 
Q 26.703125 11.71875 26.703125 7.90625 
Q 26.703125 4.046875 23.96875 1.3125 
Q 21.234375 -1.421875 17.390625 -1.421875 
Q 13.578125 -1.421875 10.84375 1.3125 
Q 8.109375 4.046875 8.109375 7.90625 
z
" id="DejaVuSerif-Bold-46"/>
       <path d="M 34.8125 4.296875 
Q 40.671875 4.296875 42.84375 9.609375 
Q 45.015625 14.9375 45.015625 36.375 
Q 45.015625 57.671875 42.84375 63.078125 
Q 40.671875 68.5 34.8125 68.5 
Q 28.953125 68.5 26.78125 63.171875 
Q 24.609375 57.859375 24.609375 36.375 
Q 24.609375 14.9375 26.78125 9.609375 
Q 28.953125 4.296875 34.8125 4.296875 
z
M 34.8125 -1.421875 
Q 20.21875 -1.421875 12.453125 8.3125 
Q 4.6875 18.0625 4.6875 36.375 
Q 4.6875 54.6875 12.453125 64.453125 
Q 20.21875 74.21875 34.8125 74.21875 
Q 49.359375 74.21875 57.125 64.453125 
Q 64.890625 54.6875 64.890625 36.375 
Q 64.890625 18.0625 57.125 8.3125 
Q 49.359375 -1.421875 34.8125 -1.421875 
z
" id="DejaVuSerif-Bold-48"/>
      </defs>
      <g style="fill:#333333;" transform="translate(134.287948 479.294844)scale(0.22 -0.22)">
       <use transform="translate(0 0.78125)" xlink:href="#DejaVuSerif-Bold-50"/>
       <use transform="translate(69.580078 0.78125)" xlink:href="#DejaVuSerif-Bold-46"/>
       <use transform="translate(104.394531 0.78125)" xlink:href="#DejaVuSerif-Bold-48"/>
      </g>
     </g>
    </g>
    <g id="xtick_2">
     <g id="line2d_2">
      <g>
       <use style="fill:#333333;stroke:#333333;stroke-width:0.8;" x="239.942097" xlink:href="#m2c6a335fcd" y="459.078281"/>
      </g>
     </g>
     <g id="text_2">
      <!-- $\mathdefault{2.5}$ -->
      <defs>
       <path d="M 56.390625 72.90625 
L 56.390625 60.109375 
L 17.390625 60.109375 
L 17.390625 44.09375 
Q 20.609375 46.578125 24.5625 47.84375 
Q 28.515625 49.125 32.90625 49.125 
Q 46.390625 49.125 54.203125 42.3125 
Q 62.015625 35.5 62.015625 23.78125 
Q 62.015625 11.859375 54.203125 5.21875 
Q 46.390625 -1.421875 32.328125 -1.421875 
Q 26.375 -1.421875 20.484375 -0.4375 
Q 14.59375 0.53125 8.203125 2.59375 
L 8.203125 18.5 
L 14.0625 18.5 
Q 14.359375 11.328125 17.796875 7.8125 
Q 21.234375 4.296875 27.984375 4.296875 
Q 35.15625 4.296875 38.625 9.109375 
Q 42.09375 13.921875 42.09375 23.78125 
Q 42.09375 33.5 38.6875 38.296875 
Q 35.296875 43.109375 28.421875 43.109375 
Q 24.703125 43.109375 21.796875 41.578125 
Q 18.890625 40.046875 16.40625 36.8125 
L 11.53125 36.8125 
L 11.53125 72.90625 
z
" id="DejaVuSerif-Bold-53"/>
      </defs>
      <g style="fill:#333333;" transform="translate(220.802097 479.294844)scale(0.22 -0.22)">
       <use transform="translate(0 0.78125)" xlink:href="#DejaVuSerif-Bold-50"/>
       <use transform="translate(69.580078 0.78125)" xlink:href="#DejaVuSerif-Bold-46"/>
       <use transform="translate(104.394531 0.78125)" xlink:href="#DejaVuSerif-Bold-53"/>
      </g>
     </g>
    </g>
    <g id="xtick_3">
     <g id="line2d_3">
      <g>
       <use style="fill:#333333;stroke:#333333;stroke-width:0.8;" x="326.456246" xlink:href="#m2c6a335fcd" y="459.078281"/>
      </g>
     </g>
     <g id="text_3">
      <!-- $\mathdefault{3.0}$ -->
      <defs>
       <path d="M 8.59375 70.796875 
Q 15.046875 72.515625 21.09375 73.359375 
Q 27.15625 74.21875 32.90625 74.21875 
Q 46.09375 74.21875 53.140625 69.5 
Q 60.203125 64.796875 60.203125 56 
Q 60.203125 49.421875 56.140625 45.3125 
Q 52.09375 41.21875 44.28125 39.796875 
Q 53.8125 38.28125 58.5 33.296875 
Q 63.1875 28.328125 63.1875 19.671875 
Q 63.1875 9.46875 55.09375 4.015625 
Q 47.015625 -1.421875 31.6875 -1.421875 
Q 25.921875 -1.421875 19.796875 -0.4375 
Q 13.671875 0.53125 6.984375 2.484375 
L 6.984375 18.5 
L 12.890625 18.5 
Q 13.421875 11.578125 17.234375 7.9375 
Q 21.046875 4.296875 27.78125 4.296875 
Q 35.203125 4.296875 39.25 8.421875 
Q 43.3125 12.546875 43.3125 20.125 
Q 43.3125 28.03125 39.078125 32.328125 
Q 34.859375 36.625 27.09375 36.625 
L 23.875 36.625 
L 23.875 42.484375 
L 26.421875 42.484375 
Q 33.59375 42.484375 37.203125 45.796875 
Q 40.828125 49.125 40.828125 55.71875 
Q 40.828125 61.921875 37.421875 65.203125 
Q 34.03125 68.5 27.6875 68.5 
Q 21.921875 68.5 18.546875 65.34375 
Q 15.1875 62.203125 14.5 56.203125 
L 8.59375 56.203125 
z
" id="DejaVuSerif-Bold-51"/>
      </defs>
      <g style="fill:#333333;" transform="translate(307.316246 479.294844)scale(0.22 -0.22)">
       <use transform="translate(0 0.78125)" xlink:href="#DejaVuSerif-Bold-51"/>
       <use transform="translate(69.580078 0.78125)" xlink:href="#DejaVuSerif-Bold-46"/>
       <use transform="translate(104.394531 0.78125)" xlink:href="#DejaVuSerif-Bold-48"/>
      </g>
     </g>
    </g>
    <g id="xtick_4">
     <g id="line2d_4">
      <g>
       <use style="fill:#333333;stroke:#333333;stroke-width:0.8;" x="412.970395" xlink:href="#m2c6a335fcd" y="459.078281"/>
      </g>
     </g>
     <g id="text_4">
      <!-- $\mathdefault{3.5}$ -->
      <g style="fill:#333333;" transform="translate(393.830395 479.294844)scale(0.22 -0.22)">
       <use transform="translate(0 0.78125)" xlink:href="#DejaVuSerif-Bold-51"/>
       <use transform="translate(69.580078 0.78125)" xlink:href="#DejaVuSerif-Bold-46"/>
       <use transform="translate(104.394531 0.78125)" xlink:href="#DejaVuSerif-Bold-53"/>
      </g>
     </g>
    </g>
    <g id="xtick_5">
     <g id="line2d_5">
      <g>
       <use style="fill:#333333;stroke:#333333;stroke-width:0.8;" x="499.484543" xlink:href="#m2c6a335fcd" y="459.078281"/>
      </g>
     </g>
     <g id="text_5">
      <!-- $\mathdefault{4.0}$ -->
      <defs>
       <path d="M 63.8125 0 
L 23.6875 0 
L 23.6875 5.90625 
L 34.515625 5.90625 
L 34.515625 19.1875 
L 4.109375 19.1875 
L 4.109375 24.8125 
L 34.625 74.21875 
L 52.984375 74.21875 
L 52.984375 25.484375 
L 65.484375 25.484375 
L 65.484375 19.1875 
L 52.984375 19.1875 
L 52.984375 5.90625 
L 63.8125 5.90625 
z
M 34.515625 25.484375 
L 34.515625 60.890625 
L 12.796875 25.484375 
z
" id="DejaVuSerif-Bold-52"/>
      </defs>
      <g style="fill:#333333;" transform="translate(480.344543 479.294844)scale(0.22 -0.22)">
       <use transform="translate(0 0.78125)" xlink:href="#DejaVuSerif-Bold-52"/>
       <use transform="translate(69.580078 0.78125)" xlink:href="#DejaVuSerif-Bold-46"/>
       <use transform="translate(104.394531 0.78125)" xlink:href="#DejaVuSerif-Bold-48"/>
      </g>
     </g>
    </g>
    <g id="xtick_6">
     <g id="line2d_6">
      <g>
       <use style="fill:#333333;stroke:#333333;stroke-width:0.8;" x="585.998692" xlink:href="#m2c6a335fcd" y="459.078281"/>
      </g>
     </g>
     <g id="text_6">
      <!-- $\mathdefault{4.5}$ -->
      <g style="fill:#333333;" transform="translate(566.858692 479.294844)scale(0.22 -0.22)">
       <use transform="translate(0 0.78125)" xlink:href="#DejaVuSerif-Bold-52"/>
       <use transform="translate(69.580078 0.78125)" xlink:href="#DejaVuSerif-Bold-46"/>
       <use transform="translate(104.394531 0.78125)" xlink:href="#DejaVuSerif-Bold-53"/>
      </g>
     </g>
    </g>
    <g id="text_7">
     <!-- $r_p [r_{t,o}]$ -->
     <defs>
      <path d="M 53.71875 52.484375 
L 53.71875 37.015625 
L 48.1875 37.015625 
Q 47.90625 41.15625 45.953125 43.1875 
Q 44 45.21875 40.28125 45.21875 
Q 34.625 45.21875 31.34375 40.234375 
Q 28.078125 35.25 28.078125 26.421875 
L 28.078125 5.90625 
L 37.5 5.90625 
L 37.5 0 
L 3.421875 0 
L 3.421875 5.90625 
L 10.796875 5.90625 
L 10.796875 46 
L 2.875 46 
L 2.875 51.90625 
L 28.078125 51.90625 
L 28.078125 42.671875 
Q 30.609375 48.09375 34.78125 50.703125 
Q 38.96875 53.328125 45.015625 53.328125 
Q 46.53125 53.328125 48.703125 53.09375 
Q 50.875 52.875 53.71875 52.484375 
z
" id="DejaVuSerif-Bold-114"/>
      <path d="M 27 28.515625 
L 27 23.390625 
Q 27 14.3125 29.3125 10.25 
Q 31.640625 6.203125 36.8125 6.203125 
Q 42.140625 6.203125 44.3125 10.5 
Q 46.484375 14.796875 46.484375 25.984375 
Q 46.484375 37.15625 44.3125 41.421875 
Q 42.140625 45.703125 36.8125 45.703125 
Q 31.640625 45.703125 29.3125 41.640625 
Q 27 37.59375 27 28.515625 
z
M 9.71875 46 
L 2.296875 46 
L 2.296875 51.90625 
L 27 51.90625 
L 27 45.3125 
Q 29.203125 49.359375 32.90625 51.34375 
Q 36.625 53.328125 42.09375 53.328125 
Q 53.171875 53.328125 59.546875 46.015625 
Q 65.921875 38.71875 65.921875 25.984375 
Q 65.921875 13.234375 59.546875 5.90625 
Q 53.171875 -1.421875 42.09375 -1.421875 
Q 36.625 -1.421875 32.90625 0.5625 
Q 29.203125 2.546875 27 6.59375 
L 27 -14.890625 
L 35.015625 -14.890625 
L 35.015625 -20.796875 
L 2.296875 -20.796875 
L 2.296875 -14.890625 
L 9.71875 -14.890625 
z
" id="DejaVuSerif-Bold-112"/>
      <path d="M 12.5 75.984375 
L 40.1875 75.984375 
L 40.1875 70.125 
L 29.78125 70.125 
L 29.78125 -7.328125 
L 40.1875 -7.328125 
L 40.1875 -13.1875 
L 12.5 -13.1875 
z
" id="DejaVuSerif-Bold-91"/>
      <path d="M 9.90625 46 
L 2.390625 46 
L 2.390625 51.90625 
L 9.90625 51.90625 
L 9.90625 68.015625 
L 27.203125 68.015625 
L 27.203125 51.90625 
L 41.609375 51.90625 
L 41.609375 46 
L 27.203125 46 
L 27.203125 14.203125 
Q 27.203125 7.421875 28.265625 5.765625 
Q 29.34375 4.109375 32.171875 4.109375 
Q 35.296875 4.109375 36.8125 6.203125 
Q 38.328125 8.296875 38.421875 12.703125 
L 45.703125 12.703125 
Q 45.265625 4.890625 41.421875 1.734375 
Q 37.59375 -1.421875 28.21875 -1.421875 
Q 17.53125 -1.421875 13.71875 1.921875 
Q 9.90625 5.28125 9.90625 14.203125 
z
" id="DejaVuSerif-Bold-116"/>
      <path d="M 1.3125 -9.625 
Q 6.390625 -5.515625 8.78125 -0.4375 
Q 11.1875 4.640625 11.1875 11.375 
L 11.1875 15.578125 
L 25.09375 15.578125 
L 25.09375 15.1875 
Q 25.09375 4.390625 20.578125 -3.390625 
Q 16.0625 -11.1875 6.6875 -16.5 
z
" id="DejaVuSerif-Bold-44"/>
      <path d="M 33.40625 4.109375 
Q 38.875 4.109375 41.09375 8.796875 
Q 43.3125 13.484375 43.3125 25.984375 
Q 43.3125 38.484375 41.109375 43.140625 
Q 38.921875 47.796875 33.40625 47.796875 
Q 27.875 47.796875 25.625 43.078125 
Q 23.390625 38.375 23.390625 25.984375 
Q 23.390625 13.578125 25.625 8.84375 
Q 27.875 4.109375 33.40625 4.109375 
z
M 33.40625 -1.421875 
Q 19.671875 -1.421875 11.890625 5.875 
Q 4.109375 13.1875 4.109375 25.984375 
Q 4.109375 38.8125 11.890625 46.0625 
Q 19.671875 53.328125 33.40625 53.328125 
Q 47.171875 53.328125 54.9375 46.0625 
Q 62.703125 38.8125 62.703125 25.984375 
Q 62.703125 13.1875 54.90625 5.875 
Q 47.125 -1.421875 33.40625 -1.421875 
z
" id="DejaVuSerif-Bold-111"/>
      <path d="M 34.8125 75.984375 
L 34.8125 -13.1875 
L 7.078125 -13.1875 
L 7.078125 -7.328125 
L 17.484375 -7.328125 
L 17.484375 70.125 
L 7.078125 70.125 
L 7.078125 75.984375 
z
" id="DejaVuSerif-Bold-93"/>
     </defs>
     <g transform="translate(310.2075 506.110156)scale(0.24 -0.24)">
      <use transform="translate(0 0.015625)" xlink:href="#DejaVuSerif-Bold-114"/>
      <use transform="translate(53.593906 -15.55625)scale(0.7)" xlink:href="#DejaVuSerif-Bold-112"/>
      <use transform="translate(105.134531 0.015625)" xlink:href="#DejaVuSerif-Bold-91"/>
      <use transform="translate(152.448984 0.015625)" xlink:href="#DejaVuSerif-Bold-114"/>
      <use transform="translate(206.042891 -15.55625)scale(0.7)" xlink:href="#DejaVuSerif-Bold-116"/>
      <use transform="translate(238.376875 -15.55625)scale(0.7)" xlink:href="#DejaVuSerif-Bold-44"/>
      <use transform="translate(277.560469 -15.55625)scale(0.7)" xlink:href="#DejaVuSerif-Bold-111"/>
      <use transform="translate(326.845234 0.015625)" xlink:href="#DejaVuSerif-Bold-93"/>
     </g>
    </g>
   </g>
   <g id="matplotlib.axis_2">
    <g id="ytick_1">
     <g id="line2d_7">
      <defs>
       <path d="M 0 0 
L 6 0 
" id="m053556bbfd" style="stroke:#333333;stroke-width:0.8;"/>
      </defs>
      <g>
       <use style="fill:#333333;stroke:#333333;stroke-width:0.8;" x="76.2075" xlink:href="#m053556bbfd" y="459.078281"/>
      </g>
     </g>
     <g id="text_8">
      <!-- $\mathdefault{0.0}$ -->
      <g style="fill:#333333;" transform="translate(34.4275 467.436562)scale(0.22 -0.22)">
       <use transform="translate(0 0.78125)" xlink:href="#DejaVuSerif-Bold-48"/>
       <use transform="translate(69.580078 0.78125)" xlink:href="#DejaVuSerif-Bold-46"/>
       <use transform="translate(104.394531 0.78125)" xlink:href="#DejaVuSerif-Bold-48"/>
      </g>
     </g>
    </g>
    <g id="ytick_2">
     <g id="line2d_8">
      <g>
       <use style="fill:#333333;stroke:#333333;stroke-width:0.8;" x="76.2075" xlink:href="#m053556bbfd" y="370.374281"/>
      </g>
     </g>
     <g id="text_9">
      <!-- $\mathdefault{0.2}$ -->
      <g style="fill:#333333;" transform="translate(34.4275 378.732562)scale(0.22 -0.22)">
       <use transform="translate(0 0.78125)" xlink:href="#DejaVuSerif-Bold-48"/>
       <use transform="translate(69.580078 0.78125)" xlink:href="#DejaVuSerif-Bold-46"/>
       <use transform="translate(104.363281 0.78125)" xlink:href="#DejaVuSerif-Bold-50"/>
      </g>
     </g>
    </g>
    <g id="ytick_3">
     <g id="line2d_9">
      <g>
       <use style="fill:#333333;stroke:#333333;stroke-width:0.8;" x="76.2075" xlink:href="#m053556bbfd" y="281.670281"/>
      </g>
     </g>
     <g id="text_10">
      <!-- $\mathdefault{0.4}$ -->
      <g style="fill:#333333;" transform="translate(34.4275 290.028562)scale(0.22 -0.22)">
       <use transform="translate(0 0.78125)" xlink:href="#DejaVuSerif-Bold-48"/>
       <use transform="translate(69.580078 0.78125)" xlink:href="#DejaVuSerif-Bold-46"/>
       <use transform="translate(104.394531 0.78125)" xlink:href="#DejaVuSerif-Bold-52"/>
      </g>
     </g>
    </g>
    <g id="ytick_4">
     <g id="line2d_10">
      <g>
       <use style="fill:#333333;stroke:#333333;stroke-width:0.8;" x="76.2075" xlink:href="#m053556bbfd" y="192.966281"/>
      </g>
     </g>
     <g id="text_11">
      <!-- $\mathdefault{0.6}$ -->
      <defs>
       <path d="M 24.609375 43.21875 
Q 27.78125 45.75 31.703125 47.015625 
Q 35.640625 48.296875 40.28125 48.296875 
Q 51.46875 48.296875 57.828125 41.75 
Q 64.203125 35.203125 64.203125 23.78125 
Q 64.203125 11.71875 57.03125 5.140625 
Q 49.859375 -1.421875 36.625 -1.421875 
Q 21.6875 -1.421875 13.984375 7.59375 
Q 6.296875 16.609375 6.296875 34.078125 
Q 6.296875 53.953125 14.84375 64.078125 
Q 23.390625 74.21875 40.1875 74.21875 
Q 44.578125 74.21875 49.609375 73.484375 
Q 54.640625 72.75 60.40625 71.296875 
L 60.40625 58.40625 
L 54.5 58.40625 
Q 53.265625 63.375 49.875 65.9375 
Q 46.484375 68.5 41.109375 68.5 
Q 32.421875 68.5 28.53125 62.546875 
Q 24.65625 56.59375 24.609375 43.21875 
z
M 35.5 4.296875 
Q 40.53125 4.296875 42.671875 8.5625 
Q 44.828125 12.84375 44.828125 23.390625 
Q 44.828125 33.9375 42.671875 38.203125 
Q 40.53125 42.484375 35.5 42.484375 
Q 30.46875 42.484375 28.34375 38.203125 
Q 26.21875 33.9375 26.21875 23.390625 
Q 26.21875 12.84375 28.34375 8.5625 
Q 30.46875 4.296875 35.5 4.296875 
z
" id="DejaVuSerif-Bold-54"/>
      </defs>
      <g style="fill:#333333;" transform="translate(34.4275 201.324562)scale(0.22 -0.22)">
       <use transform="translate(0 0.78125)" xlink:href="#DejaVuSerif-Bold-48"/>
       <use transform="translate(69.580078 0.78125)" xlink:href="#DejaVuSerif-Bold-46"/>
       <use transform="translate(104.394531 0.78125)" xlink:href="#DejaVuSerif-Bold-54"/>
      </g>
     </g>
    </g>
    <g id="ytick_5">
     <g id="line2d_11">
      <g>
       <use style="fill:#333333;stroke:#333333;stroke-width:0.8;" x="76.2075" xlink:href="#m053556bbfd" y="104.262281"/>
      </g>
     </g>
     <g id="text_12">
      <!-- $\mathdefault{0.8}$ -->
      <defs>
       <path d="M 46.484375 38.8125 
Q 55.171875 37.40625 59.6875 32.421875 
Q 64.203125 27.4375 64.203125 19.390625 
Q 64.203125 9.328125 56.609375 3.953125 
Q 49.03125 -1.421875 34.71875 -1.421875 
Q 20.40625 -1.421875 12.78125 3.953125 
Q 5.171875 9.328125 5.171875 19.390625 
Q 5.171875 27.4375 9.71875 32.421875 
Q 14.265625 37.40625 22.90625 38.8125 
Q 15.234375 40.578125 11.421875 44.703125 
Q 7.625 48.828125 7.625 55.171875 
Q 7.625 64.453125 14.546875 69.328125 
Q 21.484375 74.21875 34.71875 74.21875 
Q 47.90625 74.21875 54.859375 69.328125 
Q 61.8125 64.453125 61.8125 55.171875 
Q 61.8125 48.828125 57.984375 44.703125 
Q 54.15625 40.578125 46.484375 38.8125 
z
M 42.921875 54.984375 
Q 42.921875 62.703125 41.0625 65.59375 
Q 39.203125 68.5 34.71875 68.5 
Q 30.171875 68.5 28.34375 65.59375 
Q 26.515625 62.703125 26.515625 54.984375 
Q 26.515625 47.3125 28.34375 44.453125 
Q 30.171875 41.609375 34.71875 41.609375 
Q 39.265625 41.609375 41.09375 44.453125 
Q 42.921875 47.3125 42.921875 54.984375 
z
M 44.828125 20.21875 
Q 44.828125 29.15625 42.546875 32.515625 
Q 40.28125 35.890625 34.71875 35.890625 
Q 29.109375 35.890625 26.859375 32.515625 
Q 24.609375 29.15625 24.609375 20.21875 
Q 24.609375 11.1875 26.875 7.734375 
Q 29.15625 4.296875 34.71875 4.296875 
Q 40.234375 4.296875 42.53125 7.734375 
Q 44.828125 11.1875 44.828125 20.21875 
z
" id="DejaVuSerif-Bold-56"/>
      </defs>
      <g style="fill:#333333;" transform="translate(34.4275 112.620562)scale(0.22 -0.22)">
       <use transform="translate(0 0.78125)" xlink:href="#DejaVuSerif-Bold-48"/>
       <use transform="translate(69.580078 0.78125)" xlink:href="#DejaVuSerif-Bold-46"/>
       <use transform="translate(104.347656 0.78125)" xlink:href="#DejaVuSerif-Bold-56"/>
      </g>
     </g>
    </g>
    <g id="ytick_6">
     <g id="line2d_12">
      <g>
       <use style="fill:#333333;stroke:#333333;stroke-width:0.8;" x="76.2075" xlink:href="#m053556bbfd" y="15.558281"/>
      </g>
     </g>
     <g id="text_13">
      <!-- $\mathdefault{1.0}$ -->
      <defs>
       <path d="M 13.71875 0 
L 13.71875 5.90625 
L 27.390625 5.90625 
L 27.390625 64.890625 
L 12.203125 55.90625 
L 12.203125 63.1875 
L 30.515625 74.21875 
L 45.90625 74.21875 
L 45.90625 5.90625 
L 59.625 5.90625 
L 59.625 0 
z
" id="DejaVuSerif-Bold-49"/>
      </defs>
      <g style="fill:#333333;" transform="translate(34.4275 23.916562)scale(0.22 -0.22)">
       <use transform="translate(0 0.78125)" xlink:href="#DejaVuSerif-Bold-49"/>
       <use transform="translate(69.580078 0.78125)" xlink:href="#DejaVuSerif-Bold-46"/>
       <use transform="translate(104.394531 0.78125)" xlink:href="#DejaVuSerif-Bold-48"/>
      </g>
     </g>
    </g>
    <g id="text_14">
     <!-- $e_{bin}$ -->
     <defs>
      <path d="M 40.09375 29.296875 
Q 40.09375 39.546875 38.1875 43.671875 
Q 36.28125 47.796875 31.6875 47.796875 
Q 27.25 47.796875 25.3125 43.75 
Q 23.390625 39.703125 23.390625 30.171875 
L 23.390625 29.296875 
z
M 59.078125 23.484375 
L 23.390625 23.484375 
L 23.390625 23.09375 
Q 23.390625 13.03125 26.40625 8.5625 
Q 29.4375 4.109375 36.1875 4.109375 
Q 41.796875 4.109375 45.265625 7.078125 
Q 48.734375 10.0625 49.703125 15.71875 
L 57.8125 15.71875 
Q 55.71875 6.890625 49.46875 2.734375 
Q 43.21875 -1.421875 31.984375 -1.421875 
Q 18.5 -1.421875 11.296875 5.6875 
Q 4.109375 12.796875 4.109375 25.984375 
Q 4.109375 38.875 11.46875 46.09375 
Q 18.84375 53.328125 31.984375 53.328125 
Q 44.875 53.328125 51.75 45.734375 
Q 58.640625 38.140625 59.078125 23.484375 
z
" id="DejaVuSerif-Bold-101"/>
      <path d="M 9.71875 5.90625 
L 9.71875 70.125 
L 2.296875 70.125 
L 2.296875 75.984375 
L 27 75.984375 
L 27 45.3125 
Q 29.203125 49.359375 32.90625 51.34375 
Q 36.625 53.328125 42.09375 53.328125 
Q 53.171875 53.328125 59.546875 46.015625 
Q 65.921875 38.71875 65.921875 25.984375 
Q 65.921875 13.234375 59.546875 5.90625 
Q 53.171875 -1.421875 42.09375 -1.421875 
Q 36.625 -1.421875 32.90625 0.5625 
Q 29.203125 2.546875 27 6.59375 
L 27 0 
L 2.296875 0 
L 2.296875 5.90625 
z
M 27 23.390625 
Q 27 14.3125 29.3125 10.25 
Q 31.640625 6.203125 36.8125 6.203125 
Q 42.140625 6.203125 44.3125 10.5 
Q 46.484375 14.796875 46.484375 25.984375 
Q 46.484375 37.15625 44.3125 41.421875 
Q 42.140625 45.703125 36.8125 45.703125 
Q 31.640625 45.703125 29.3125 41.640625 
Q 27 37.59375 27 28.515625 
z
" id="DejaVuSerif-Bold-98"/>
      <path d="M 9.1875 66.609375 
Q 9.1875 70.5625 11.921875 73.265625 
Q 14.65625 75.984375 18.609375 75.984375 
Q 22.46875 75.984375 25.171875 73.265625 
Q 27.875 70.5625 27.875 66.609375 
Q 27.875 62.75 25.171875 60.03125 
Q 22.46875 57.328125 18.609375 57.328125 
Q 14.65625 57.328125 11.921875 60.015625 
Q 9.1875 62.703125 9.1875 66.609375 
z
M 28.078125 5.90625 
L 35.5 5.90625 
L 35.5 0 
L 3.421875 0 
L 3.421875 5.90625 
L 10.796875 5.90625 
L 10.796875 46 
L 3.421875 46 
L 3.421875 51.90625 
L 28.078125 51.90625 
z
" id="DejaVuSerif-Bold-105"/>
      <path d="M 3.421875 0 
L 3.421875 5.90625 
L 10.796875 5.90625 
L 10.796875 46 
L 3.421875 46 
L 3.421875 51.90625 
L 28.078125 51.90625 
L 28.078125 44.578125 
Q 31.203125 49.21875 35.203125 51.265625 
Q 39.203125 53.328125 45.3125 53.328125 
Q 54.046875 53.328125 58.515625 48.171875 
Q 62.984375 43.015625 62.984375 33.015625 
L 62.984375 5.90625 
L 70.40625 5.90625 
L 70.40625 0 
L 39.40625 0 
L 39.40625 5.90625 
L 45.703125 5.90625 
L 45.703125 33.5 
Q 45.703125 40.09375 44.015625 42.65625 
Q 42.328125 45.21875 38.1875 45.21875 
Q 32.953125 45.21875 30.515625 41.375 
Q 28.078125 37.546875 28.078125 29.203125 
L 28.078125 5.90625 
L 34.421875 5.90625 
L 34.421875 0 
z
" id="DejaVuSerif-Bold-110"/>
     </defs>
     <g transform="translate(25.43625 260.598281)rotate(-90)scale(0.24 -0.24)">
      <use transform="translate(0 0.671875)" xlink:href="#DejaVuSerif-Bold-101"/>
      <use transform="translate(64.531406 -14.9)scale(0.7)" xlink:href="#DejaVuSerif-Bold-98"/>
      <use transform="translate(113.476719 -14.9)scale(0.7)" xlink:href="#DejaVuSerif-Bold-105"/>
      <use transform="translate(140.068516 -14.9)scale(0.7)" xlink:href="#DejaVuSerif-Bold-110"/>
     </g>
    </g>
   </g>
   <g id="line2d_13">
    <path clip-path="url(#p5070b51657)" d="M 608.843864 459.078281 
L 588.975706 458.96411 
" style="fill:none;stroke:#808080;stroke-linecap:square;stroke-width:2;"/>
    <defs>
     <path d="M -5 5 
L 5 5 
L 5 -5 
L -5 -5 
z
" id="m78caae3721"/>
    </defs>
    <g clip-path="url(#p5070b51657)">
     <use style="fill:#808080;" x="608.843864" xlink:href="#m78caae3721" y="459.078281"/>
     <use style="fill:#808080;" x="588.975706" xlink:href="#m78caae3721" y="458.96411"/>
    </g>
   </g>
   <g id="line2d_14">
    <path clip-path="url(#p5070b51657)" d="M 588.975706 458.96411 
L 565.260592 459.0398 
" style="fill:none;stroke:#808080;stroke-linecap:square;stroke-width:2;"/>
    <g clip-path="url(#p5070b51657)">
     <use style="fill:#808080;" x="588.975706" xlink:href="#m78caae3721" y="458.96411"/>
     <use style="fill:#808080;" x="565.260592" xlink:href="#m78caae3721" y="459.0398"/>
    </g>
   </g>
   <g id="line2d_15">
    <path clip-path="url(#p5070b51657)" d="M 565.260592 459.0398 
L 534.846733 458.863907 
" style="fill:none;stroke:#808080;stroke-linecap:square;stroke-width:2;"/>
    <g clip-path="url(#p5070b51657)">
     <use style="fill:#808080;" x="565.260592" xlink:href="#m78caae3721" y="459.0398"/>
     <use style="fill:#808080;" x="534.846733" xlink:href="#m78caae3721" y="458.863907"/>
    </g>
   </g>
   <g id="line2d_16">
    <path clip-path="url(#p5070b51657)" d="M 534.846733 458.863907 
L 505.020638 458.886127 
" style="fill:none;stroke:#808080;stroke-linecap:square;stroke-width:2;"/>
    <g clip-path="url(#p5070b51657)">
     <use style="fill:#808080;" x="534.846733" xlink:href="#m78caae3721" y="458.863907"/>
     <use style="fill:#808080;" x="505.020638" xlink:href="#m78caae3721" y="458.886127"/>
    </g>
   </g>
   <g id="line2d_17">
    <path clip-path="url(#p5070b51657)" d="M 505.020638 458.886127 
L 481.728436 458.468757 
" style="fill:none;stroke:#808080;stroke-linecap:square;stroke-width:2;"/>
    <g clip-path="url(#p5070b51657)">
     <use style="fill:#808080;" x="505.020638" xlink:href="#m78caae3721" y="458.886127"/>
     <use style="fill:#808080;" x="481.728436" xlink:href="#m78caae3721" y="458.468757"/>
    </g>
   </g>
   <g id="line2d_18">
    <path clip-path="url(#p5070b51657)" d="M 481.728436 458.468757 
L 460.57226 458.887002 
" style="fill:none;stroke:#808080;stroke-linecap:square;stroke-width:2;"/>
    <g clip-path="url(#p5070b51657)">
     <use style="fill:#808080;" x="481.728436" xlink:href="#m78caae3721" y="458.468757"/>
     <use style="fill:#808080;" x="460.57226" xlink:href="#m78caae3721" y="458.887002"/>
    </g>
   </g>
   <g id="line2d_19">
    <path clip-path="url(#p5070b51657)" d="M 460.57226 458.887002 
L 448.998485 458.197999 
" style="fill:none;stroke:#808080;stroke-linecap:square;stroke-width:2;"/>
    <g clip-path="url(#p5070b51657)">
     <use style="fill:#808080;" x="460.57226" xlink:href="#m78caae3721" y="458.887002"/>
     <use style="fill:#808080;" x="448.998485" xlink:href="#m78caae3721" y="458.197999"/>
    </g>
   </g>
   <g id="line2d_20">
    <path clip-path="url(#p5070b51657)" d="M 448.998485 458.197999 
L 418.803536 458.298531 
" style="fill:none;stroke:#808080;stroke-linecap:square;stroke-width:2;"/>
    <g clip-path="url(#p5070b51657)">
     <use style="fill:#808080;" x="448.998485" xlink:href="#m78caae3721" y="458.197999"/>
     <use style="fill:#808080;" x="418.803536" xlink:href="#m78caae3721" y="458.298531"/>
    </g>
   </g>
   <g id="line2d_21">
    <path clip-path="url(#p5070b51657)" d="M 418.803536 458.298531 
L 399.919875 457.036982 
" style="fill:none;stroke:#808080;stroke-linecap:square;stroke-width:2;"/>
    <g clip-path="url(#p5070b51657)">
     <use style="fill:#808080;" x="418.803536" xlink:href="#m78caae3721" y="458.298531"/>
     <use style="fill:#808080;" x="399.919875" xlink:href="#m78caae3721" y="457.036982"/>
    </g>
   </g>
   <g id="line2d_22">
    <path clip-path="url(#p5070b51657)" d="M 399.919875 457.036982 
L 382.276068 458.404858 
" style="fill:none;stroke:#808080;stroke-linecap:square;stroke-width:2;"/>
    <g clip-path="url(#p5070b51657)">
     <use style="fill:#808080;" x="399.919875" xlink:href="#m78caae3721" y="457.036982"/>
     <use style="fill:#808080;" x="382.276068" xlink:href="#m78caae3721" y="458.404858"/>
    </g>
   </g>
   <g id="line2d_23">
    <path clip-path="url(#p5070b51657)" d="M 382.276068 458.404858 
L 360.538237 455.461903 
" style="fill:none;stroke:#808080;stroke-linecap:square;stroke-width:2;"/>
    <g clip-path="url(#p5070b51657)">
     <use style="fill:#808080;" x="382.276068" xlink:href="#m78caae3721" y="458.404858"/>
     <use style="fill:#808080;" x="360.538237" xlink:href="#m78caae3721" y="455.461903"/>
    </g>
   </g>
   <g id="line2d_24">
    <path clip-path="url(#p5070b51657)" d="M 360.538237 455.461903 
L 328.702845 458.677602 
" style="fill:none;stroke:#808080;stroke-linecap:square;stroke-width:2;"/>
    <g clip-path="url(#p5070b51657)">
     <use style="fill:#808080;" x="360.538237" xlink:href="#m78caae3721" y="455.461903"/>
     <use style="fill:#808080;" x="328.702845" xlink:href="#m78caae3721" y="458.677602"/>
    </g>
   </g>
   <g id="line2d_25">
    <path clip-path="url(#p5070b51657)" d="M 328.702845 458.677602 
L 312.036504 454.316636 
" style="fill:none;stroke:#808080;stroke-linecap:square;stroke-width:2;"/>
    <g clip-path="url(#p5070b51657)">
     <use style="fill:#808080;" x="328.702845" xlink:href="#m78caae3721" y="458.677602"/>
     <use style="fill:#808080;" x="312.036504" xlink:href="#m78caae3721" y="454.316636"/>
    </g>
   </g>
   <g id="line2d_26">
    <path clip-path="url(#p5070b51657)" d="M 312.036504 454.316636 
L 294.844656 449.372081 
" style="fill:none;stroke:#808080;stroke-linecap:square;stroke-width:2;"/>
    <g clip-path="url(#p5070b51657)">
     <use style="fill:#808080;" x="312.036504" xlink:href="#m78caae3721" y="454.316636"/>
     <use style="fill:#808080;" x="294.844656" xlink:href="#m78caae3721" y="449.372081"/>
    </g>
   </g>
   <g id="line2d_27">
    <path clip-path="url(#p5070b51657)" d="M 294.844656 449.372081 
L 287.680302 454.874239 
" style="fill:none;stroke:#808080;stroke-linecap:square;stroke-width:2;"/>
    <g clip-path="url(#p5070b51657)">
     <use style="fill:#808080;" x="294.844656" xlink:href="#m78caae3721" y="449.372081"/>
     <use style="fill:#808080;" x="287.680302" xlink:href="#m78caae3721" y="454.874239"/>
    </g>
   </g>
   <g id="line2d_28">
    <path clip-path="url(#p5070b51657)" d="M 287.680302 454.874239 
L 277.13993 449.311036 
" style="fill:none;stroke:#808080;stroke-linecap:square;stroke-width:2;"/>
    <g clip-path="url(#p5070b51657)">
     <use style="fill:#808080;" x="287.680302" xlink:href="#m78caae3721" y="454.874239"/>
     <use style="fill:#808080;" x="277.13993" xlink:href="#m78caae3721" y="449.311036"/>
    </g>
   </g>
   <g id="line2d_29">
    <path clip-path="url(#p5070b51657)" d="M 277.13993 449.311036 
L 259.423926 453.549679 
" style="fill:none;stroke:#808080;stroke-linecap:square;stroke-width:2;"/>
    <g clip-path="url(#p5070b51657)">
     <use style="fill:#808080;" x="277.13993" xlink:href="#m78caae3721" y="449.311036"/>
     <use style="fill:#808080;" x="259.423926" xlink:href="#m78caae3721" y="453.549679"/>
    </g>
   </g>
   <g id="line2d_30">
    <path clip-path="url(#p5070b51657)" d="M 259.423926 453.549679 
L 244.253561 447.233631 
" style="fill:none;stroke:#808080;stroke-linecap:square;stroke-width:2;"/>
    <g clip-path="url(#p5070b51657)">
     <use style="fill:#808080;" x="259.423926" xlink:href="#m78caae3721" y="453.549679"/>
     <use style="fill:#808080;" x="244.253561" xlink:href="#m78caae3721" y="447.233631"/>
    </g>
   </g>
   <g id="line2d_31">
    <path clip-path="url(#p5070b51657)" d="M 244.253561 447.233631 
L 230.955654 446.868339 
" style="fill:none;stroke:#808080;stroke-linecap:square;stroke-width:2;"/>
    <g clip-path="url(#p5070b51657)">
     <use style="fill:#808080;" x="244.253561" xlink:href="#m78caae3721" y="447.233631"/>
     <use style="fill:#808080;" x="230.955654" xlink:href="#m78caae3721" y="446.868339"/>
    </g>
   </g>
   <g id="line2d_32">
    <path clip-path="url(#p5070b51657)" d="M 230.955654 446.868339 
L 213.759643 444.356678 
" style="fill:none;stroke:#808080;stroke-linecap:square;stroke-width:2;"/>
    <g clip-path="url(#p5070b51657)">
     <use style="fill:#808080;" x="230.955654" xlink:href="#m78caae3721" y="446.868339"/>
     <use style="fill:#808080;" x="213.759643" xlink:href="#m78caae3721" y="444.356678"/>
    </g>
   </g>
   <g id="line2d_33">
    <path clip-path="url(#p5070b51657)" d="M 213.759643 444.356678 
L 199.726447 428.844565 
" style="fill:none;stroke:#808080;stroke-linecap:square;stroke-width:2;"/>
    <g clip-path="url(#p5070b51657)">
     <use style="fill:#808080;" x="213.759643" xlink:href="#m78caae3721" y="444.356678"/>
     <use style="fill:#808080;" x="199.726447" xlink:href="#m78caae3721" y="428.844565"/>
    </g>
   </g>
   <g id="line2d_34">
    <path clip-path="url(#p5070b51657)" d="M 199.726447 428.844565 
L 189.91923 407.021377 
" style="fill:none;stroke:#808080;stroke-linecap:square;stroke-width:2;"/>
    <g clip-path="url(#p5070b51657)">
     <use style="fill:#808080;" x="199.726447" xlink:href="#m78caae3721" y="428.844565"/>
     <use style="fill:#808080;" x="189.91923" xlink:href="#m78caae3721" y="407.021377"/>
    </g>
   </g>
   <g id="line2d_35">
    <path clip-path="url(#p5070b51657)" d="M 189.91923 407.021377 
L 175.41825 375.592692 
" style="fill:none;stroke:#808080;stroke-linecap:square;stroke-width:2;"/>
    <g clip-path="url(#p5070b51657)">
     <use style="fill:#808080;" x="189.91923" xlink:href="#m78caae3721" y="407.021377"/>
     <use style="fill:#808080;" x="175.41825" xlink:href="#m78caae3721" y="375.592692"/>
    </g>
   </g>
   <g id="line2d_36">
    <path clip-path="url(#p5070b51657)" d="M 175.41825 375.592692 
L 144.617663 300.439388 
" style="fill:none;stroke:#808080;stroke-linecap:square;stroke-width:2;"/>
    <g clip-path="url(#p5070b51657)">
     <use style="fill:#808080;" x="175.41825" xlink:href="#m78caae3721" y="375.592692"/>
     <use style="fill:#808080;" x="144.617663" xlink:href="#m78caae3721" y="300.439388"/>
    </g>
   </g>
   <g id="line2d_37">
    <path clip-path="url(#p5070b51657)" d="M 144.617663 300.439388 
L 133.937058 206.180323 
" style="fill:none;stroke:#808080;stroke-linecap:square;stroke-width:2;"/>
    <g clip-path="url(#p5070b51657)">
     <use style="fill:#808080;" x="144.617663" xlink:href="#m78caae3721" y="300.439388"/>
     <use style="fill:#808080;" x="133.937058" xlink:href="#m78caae3721" y="206.180323"/>
    </g>
   </g>
   <g id="line2d_38">
    <path clip-path="url(#p5070b51657)" d="M 133.937058 206.180323 
L 124.832387 136.15295 
" style="fill:none;stroke:#808080;stroke-linecap:square;stroke-width:2;"/>
    <g clip-path="url(#p5070b51657)">
     <use style="fill:#808080;" x="133.937058" xlink:href="#m78caae3721" y="206.180323"/>
     <use style="fill:#808080;" x="124.832387" xlink:href="#m78caae3721" y="136.15295"/>
    </g>
   </g>
   <g id="line2d_39">
    <path clip-path="url(#p5070b51657)" d="M 124.832387 136.15295 
L 106.286608 222.437604 
" style="fill:none;stroke:#808080;stroke-linecap:square;stroke-width:2;"/>
    <g clip-path="url(#p5070b51657)">
     <use style="fill:#808080;" x="124.832387" xlink:href="#m78caae3721" y="136.15295"/>
     <use style="fill:#808080;" x="106.286608" xlink:href="#m78caae3721" y="222.437604"/>
    </g>
   </g>
   <g id="line2d_40">
    <path clip-path="url(#p5070b51657)" d="M 106.286608 222.437604 
L 101.571136 86.428929 
" style="fill:none;stroke:#808080;stroke-linecap:square;stroke-width:2;"/>
    <g clip-path="url(#p5070b51657)">
     <use style="fill:#808080;" x="106.286608" xlink:href="#m78caae3721" y="222.437604"/>
     <use style="fill:#808080;" x="101.571136" xlink:href="#m78caae3721" y="86.428929"/>
    </g>
   </g>
   <g id="patch_3">
    <path d="M 76.2075 459.078281 
L 76.2075 15.558281 
" style="fill:none;stroke:#333333;stroke-linecap:square;stroke-linejoin:miter;stroke-width:0.8;"/>
   </g>
   <g id="patch_4">
    <path d="M 634.2075 459.078281 
L 634.2075 15.558281 
" style="fill:none;stroke:#333333;stroke-linecap:square;stroke-linejoin:miter;stroke-width:0.8;"/>
   </g>
   <g id="patch_5">
    <path d="M 76.2075 459.078281 
L 634.2075 459.078281 
" style="fill:none;stroke:#333333;stroke-linecap:square;stroke-linejoin:miter;stroke-width:0.8;"/>
   </g>
   <g id="patch_6">
    <path d="M 76.2075 15.558281 
L 634.2075 15.558281 
" style="fill:none;stroke:#333333;stroke-linecap:square;stroke-linejoin:miter;stroke-width:0.8;"/>
   </g>
   <g id="legend_1">
    <g id="text_15">
     <!-- $a_{bin,o}=$0.10 au, $a_o=0.05 pc$ -->
     <defs>
      <path d="M 55.078125 31.890625 
L 55.078125 5.90625 
L 62.5 5.90625 
L 62.5 0 
L 37.796875 0 
L 37.796875 6.59375 
Q 34.375 2.484375 30.171875 0.53125 
Q 25.984375 -1.421875 20.609375 -1.421875 
Q 12.640625 -1.421875 8.375 2.84375 
Q 4.109375 7.125 4.109375 15.09375 
Q 4.109375 23.828125 10.234375 28.171875 
Q 16.359375 32.515625 28.71875 32.515625 
L 37.796875 32.515625 
L 37.796875 35.59375 
Q 37.796875 41.890625 34.8125 44.890625 
Q 31.84375 47.90625 25.59375 47.90625 
Q 20.40625 47.90625 17.59375 45.78125 
Q 14.796875 43.65625 13.625 38.8125 
L 8.109375 38.8125 
L 8.109375 50 
Q 12.75 51.65625 17.71875 52.484375 
Q 22.703125 53.328125 28.21875 53.328125 
Q 42.140625 53.328125 48.609375 48.140625 
Q 55.078125 42.96875 55.078125 31.890625 
z
M 37.796875 16.3125 
L 37.796875 26.703125 
L 31.296875 26.703125 
Q 26.46875 26.703125 23.875 24.0625 
Q 21.296875 21.4375 21.296875 16.5 
Q 21.296875 11.578125 23.171875 9.125 
Q 25.046875 6.6875 28.90625 6.6875 
Q 32.90625 6.6875 35.34375 9.328125 
Q 37.796875 11.96875 37.796875 16.3125 
z
" id="DejaVuSerif-Bold-97"/>
      <path d="M 10.59375 25.78125 
L 73.1875 25.78125 
L 73.1875 14.703125 
L 10.59375 14.703125 
z
M 10.59375 48 
L 73.1875 48 
L 73.1875 36.921875 
L 10.59375 36.921875 
z
" id="DejaVuSerif-Bold-61"/>
      <path id="DejaVuSerif-Bold-32"/>
      <path d="M 61.921875 51.90625 
L 61.921875 5.90625 
L 69.28125 5.90625 
L 69.28125 0 
L 44.578125 0 
L 44.578125 7.328125 
Q 41.5 2.6875 37.5 0.625 
Q 33.5 -1.421875 27.390625 -1.421875 
Q 18.65625 -1.421875 14.1875 3.734375 
Q 9.71875 8.890625 9.71875 18.890625 
L 9.71875 46 
L 2.296875 46 
L 2.296875 51.90625 
L 27 51.90625 
L 27 21.578125 
Q 27 11.921875 28.609375 9.296875 
Q 30.21875 6.6875 34.515625 6.6875 
Q 39.75 6.6875 42.15625 10.546875 
Q 44.578125 14.40625 44.578125 22.796875 
L 44.578125 46 
L 38.28125 46 
L 38.28125 51.90625 
z
" id="DejaVuSerif-Bold-117"/>
      <path d="M 56.390625 16.21875 
Q 54.546875 7.328125 48.796875 2.953125 
Q 43.0625 -1.421875 33.203125 -1.421875 
Q 19.34375 -1.421875 11.71875 5.75 
Q 4.109375 12.9375 4.109375 25.984375 
Q 4.109375 38.875 11.625 46.09375 
Q 19.140625 53.328125 32.515625 53.328125 
Q 37.9375 53.328125 43.453125 52.296875 
Q 48.96875 51.265625 54.6875 49.21875 
L 54.6875 34.8125 
L 49.21875 34.8125 
Q 48.4375 41.40625 45.359375 44.59375 
Q 42.28125 47.796875 36.71875 47.796875 
Q 29.5 47.796875 26.4375 42.90625 
Q 23.390625 38.03125 23.390625 25.984375 
Q 23.390625 14.203125 26.359375 9.15625 
Q 29.34375 4.109375 36.078125 4.109375 
Q 41.3125 4.109375 44.453125 7.234375 
Q 47.609375 10.359375 48.296875 16.21875 
z
" id="DejaVuSerif-Bold-99"/>
     </defs>
     <g transform="translate(252.4875 53.594531)scale(0.24 -0.24)">
      <use transform="translate(0 0.78125)" xlink:href="#DejaVuSerif-Bold-97"/>
      <use transform="translate(65.703281 -14.790625)scale(0.7)" xlink:href="#DejaVuSerif-Bold-98"/>
      <use transform="translate(114.648594 -14.790625)scale(0.7)" xlink:href="#DejaVuSerif-Bold-105"/>
      <use transform="translate(141.240391 -14.790625)scale(0.7)" xlink:href="#DejaVuSerif-Bold-110"/>
      <use transform="translate(192.133945 -14.790625)scale(0.7)" xlink:href="#DejaVuSerif-Bold-44"/>
      <use transform="translate(231.317539 -14.790625)scale(0.7)" xlink:href="#DejaVuSerif-Bold-111"/>
      <use transform="translate(301.764414 0.78125)" xlink:href="#DejaVuSerif-Bold-61"/>
      <use transform="translate(406.715586 0.78125)" xlink:href="#DejaVuSerif-Bold-48"/>
      <use transform="translate(476.295664 0.78125)" xlink:href="#DejaVuSerif-Bold-46"/>
      <use transform="translate(511.110117 0.78125)" xlink:href="#DejaVuSerif-Bold-49"/>
      <use transform="translate(580.690195 0.78125)" xlink:href="#DejaVuSerif-Bold-48"/>
      <use transform="translate(650.270273 0.78125)" xlink:href="#DejaVuSerif-Bold-32"/>
      <use transform="translate(685.084727 0.78125)" xlink:href="#DejaVuSerif-Bold-97"/>
      <use transform="translate(749.879648 0.78125)" xlink:href="#DejaVuSerif-Bold-117"/>
      <use transform="translate(822.584727 0.78125)" xlink:href="#DejaVuSerif-Bold-44"/>
      <use transform="translate(857.39918 0.78125)" xlink:href="#DejaVuSerif-Bold-32"/>
      <use transform="translate(892.213633 0.78125)" xlink:href="#DejaVuSerif-Bold-97"/>
      <use transform="translate(957.916914 -14.790625)scale(0.7)" xlink:href="#DejaVuSerif-Bold-111"/>
      <use transform="translate(1028.363789 0.78125)" xlink:href="#DejaVuSerif-Bold-61"/>
      <use transform="translate(1133.314961 0.78125)" xlink:href="#DejaVuSerif-Bold-48"/>
      <use transform="translate(1202.895039 0.78125)" xlink:href="#DejaVuSerif-Bold-46"/>
      <use transform="translate(1237.709492 0.78125)" xlink:href="#DejaVuSerif-Bold-48"/>
      <use transform="translate(1307.28957 0.78125)" xlink:href="#DejaVuSerif-Bold-53"/>
      <use transform="translate(1376.869648 0.78125)" xlink:href="#DejaVuSerif-Bold-112"/>
      <use transform="translate(1446.791523 0.78125)" xlink:href="#DejaVuSerif-Bold-99"/>
     </g>
    </g>
   </g>
  </g>
 </g>
 <defs>
  <clipPath id="p5070b51657">
   <rect height="443.52" width="558" x="76.2075" y="15.558281"/>
  </clipPath>
 </defs>
</svg>
