<?xml version="1.0" encoding="utf-8" standalone="no"?>
<!DOCTYPE svg PUBLIC "-//W3C//DTD SVG 1.1//EN"
  "http://www.w3.org/Graphics/SVG/1.1/DTD/svg11.dtd">
<!-- Created with matplotlib (https://matplotlib.org/) -->
<svg height="611.751875pt" version="1.1" viewBox="0 0 663.68 611.751875" width="663.68pt" xmlns="http://www.w3.org/2000/svg" xmlns:xlink="http://www.w3.org/1999/xlink">
 <defs>
  <style type="text/css">
*{stroke-linecap:butt;stroke-linejoin:round;white-space:pre;}
  </style>
 </defs>
 <g id="figure_1">
  <g id="patch_1">
   <path d="M 0 611.751875 
L 663.68 611.751875 
L 663.68 0 
L 0 0 
z
" style="fill:#ffffff;"/>
  </g>
  <g id="axes_1">
   <g id="patch_2">
    <path d="M 98.48 550.8 
L 656.48 550.8 
L 656.48 7.2 
L 98.48 7.2 
z
" style="fill:#ffffff;"/>
   </g>
   <g id="matplotlib.axis_1">
    <g id="xtick_1">
     <g id="line2d_1">
      <defs>
       <path d="M 0 0 
L 0 -6 
" id="m040d3df874" style="stroke:#333333;stroke-width:0.8;"/>
      </defs>
      <g>
       <use style="fill:#333333;stroke:#333333;stroke-width:0.8;" x="235.01094" xlink:href="#m040d3df874" y="550.8"/>
      </g>
     </g>
     <g id="text_1">
      <!-- $\mathdefault{10^{1}}$ -->
      <defs>
       <path d="M 13.71875 0 
L 13.71875 5.90625 
L 27.390625 5.90625 
L 27.390625 64.890625 
L 12.203125 55.90625 
L 12.203125 63.1875 
L 30.515625 74.21875 
L 45.90625 74.21875 
L 45.90625 5.90625 
L 59.625 5.90625 
L 59.625 0 
z
" id="DejaVuSerif-Bold-49"/>
       <path d="M 34.8125 4.296875 
Q 40.671875 4.296875 42.84375 9.609375 
Q 45.015625 14.9375 45.015625 36.375 
Q 45.015625 57.671875 42.84375 63.078125 
Q 40.671875 68.5 34.8125 68.5 
Q 28.953125 68.5 26.78125 63.171875 
Q 24.609375 57.859375 24.609375 36.375 
Q 24.609375 14.9375 26.78125 9.609375 
Q 28.953125 4.296875 34.8125 4.296875 
z
M 34.8125 -1.421875 
Q 20.21875 -1.421875 12.453125 8.3125 
Q 4.6875 18.0625 4.6875 36.375 
Q 4.6875 54.6875 12.453125 64.453125 
Q 20.21875 74.21875 34.8125 74.21875 
Q 49.359375 74.21875 57.125 64.453125 
Q 64.890625 54.6875 64.890625 36.375 
Q 64.890625 18.0625 57.125 8.3125 
Q 49.359375 -1.421875 34.8125 -1.421875 
z
" id="DejaVuSerif-Bold-48"/>
      </defs>
      <g style="fill:#333333;" transform="translate(213.89094 571.016563)scale(0.22 -0.22)">
       <use transform="translate(0 0.7125)" xlink:href="#DejaVuSerif-Bold-49"/>
       <use transform="translate(69.580078 0.7125)" xlink:href="#DejaVuSerif-Bold-48"/>
       <use transform="translate(140.068516 37.046875)scale(0.7)" xlink:href="#DejaVuSerif-Bold-49"/>
      </g>
     </g>
    </g>
    <g id="xtick_2">
     <g id="line2d_2">
      <g>
       <use style="fill:#333333;stroke:#333333;stroke-width:0.8;" x="502.361132" xlink:href="#m040d3df874" y="550.8"/>
      </g>
     </g>
     <g id="text_2">
      <!-- $\mathdefault{10^{2}}$ -->
      <defs>
       <path d="M 13.1875 54.890625 
L 7.328125 54.890625 
L 7.328125 70.609375 
Q 13.28125 72.40625 19.109375 73.3125 
Q 24.953125 74.21875 30.90625 74.21875 
Q 44.828125 74.21875 52.609375 68.53125 
Q 60.40625 62.84375 60.40625 52.6875 
Q 60.40625 45.453125 56.109375 39.71875 
Q 51.8125 33.984375 39.703125 26.125 
L 19.390625 12.796875 
L 53.90625 12.796875 
L 53.90625 21.390625 
L 60.59375 21.390625 
L 60.59375 0 
L 6.6875 0 
L 6.6875 11.921875 
L 17.484375 19.390625 
Q 31.296875 28.90625 35.890625 35.59375 
Q 40.484375 42.28125 40.484375 51.21875 
Q 40.484375 59.671875 36.984375 64.078125 
Q 33.5 68.5 26.8125 68.5 
Q 21.046875 68.5 17.578125 65.015625 
Q 14.109375 61.53125 13.1875 54.890625 
z
" id="DejaVuSerif-Bold-50"/>
      </defs>
      <g style="fill:#333333;" transform="translate(481.241132 571.016563)scale(0.22 -0.22)">
       <use transform="translate(0 0.7125)" xlink:href="#DejaVuSerif-Bold-49"/>
       <use transform="translate(69.580078 0.7125)" xlink:href="#DejaVuSerif-Bold-48"/>
       <use transform="translate(140.068516 37.046875)scale(0.7)" xlink:href="#DejaVuSerif-Bold-50"/>
      </g>
     </g>
    </g>
    <g id="xtick_3">
     <g id="line2d_3">
      <defs>
       <path d="M 0 0 
L 0 -3 
" id="m0b76b205e0" style="stroke:#333333;stroke-width:0.6;"/>
      </defs>
      <g>
       <use style="fill:#333333;stroke:#333333;stroke-width:0.6;" x="128.621602" xlink:href="#m0b76b205e0" y="550.8"/>
      </g>
     </g>
    </g>
    <g id="xtick_4">
     <g id="line2d_4">
      <g>
       <use style="fill:#333333;stroke:#333333;stroke-width:0.6;" x="154.530513" xlink:href="#m0b76b205e0" y="550.8"/>
      </g>
     </g>
    </g>
    <g id="xtick_5">
     <g id="line2d_5">
      <g>
       <use style="fill:#333333;stroke:#333333;stroke-width:0.6;" x="175.699634" xlink:href="#m0b76b205e0" y="550.8"/>
      </g>
     </g>
    </g>
    <g id="xtick_6">
     <g id="line2d_6">
      <g>
       <use style="fill:#333333;stroke:#333333;stroke-width:0.6;" x="193.597871" xlink:href="#m0b76b205e0" y="550.8"/>
      </g>
     </g>
    </g>
    <g id="xtick_7">
     <g id="line2d_7">
      <g>
       <use style="fill:#333333;stroke:#333333;stroke-width:0.6;" x="209.102029" xlink:href="#m0b76b205e0" y="550.8"/>
      </g>
     </g>
    </g>
    <g id="xtick_8">
     <g id="line2d_8">
      <g>
       <use style="fill:#333333;stroke:#333333;stroke-width:0.6;" x="222.777666" xlink:href="#m0b76b205e0" y="550.8"/>
      </g>
     </g>
    </g>
    <g id="xtick_9">
     <g id="line2d_9">
      <g>
       <use style="fill:#333333;stroke:#333333;stroke-width:0.6;" x="315.491367" xlink:href="#m0b76b205e0" y="550.8"/>
      </g>
     </g>
    </g>
    <g id="xtick_10">
     <g id="line2d_10">
      <g>
       <use style="fill:#333333;stroke:#333333;stroke-width:0.6;" x="362.569399" xlink:href="#m0b76b205e0" y="550.8"/>
      </g>
     </g>
    </g>
    <g id="xtick_11">
     <g id="line2d_11">
      <g>
       <use style="fill:#333333;stroke:#333333;stroke-width:0.6;" x="395.971794" xlink:href="#m0b76b205e0" y="550.8"/>
      </g>
     </g>
    </g>
    <g id="xtick_12">
     <g id="line2d_12">
      <g>
       <use style="fill:#333333;stroke:#333333;stroke-width:0.6;" x="421.880704" xlink:href="#m0b76b205e0" y="550.8"/>
      </g>
     </g>
    </g>
    <g id="xtick_13">
     <g id="line2d_13">
      <g>
       <use style="fill:#333333;stroke:#333333;stroke-width:0.6;" x="443.049826" xlink:href="#m0b76b205e0" y="550.8"/>
      </g>
     </g>
    </g>
    <g id="xtick_14">
     <g id="line2d_14">
      <g>
       <use style="fill:#333333;stroke:#333333;stroke-width:0.6;" x="460.948063" xlink:href="#m0b76b205e0" y="550.8"/>
      </g>
     </g>
    </g>
    <g id="xtick_15">
     <g id="line2d_15">
      <g>
       <use style="fill:#333333;stroke:#333333;stroke-width:0.6;" x="476.452221" xlink:href="#m0b76b205e0" y="550.8"/>
      </g>
     </g>
    </g>
    <g id="xtick_16">
     <g id="line2d_16">
      <g>
       <use style="fill:#333333;stroke:#333333;stroke-width:0.6;" x="490.127858" xlink:href="#m0b76b205e0" y="550.8"/>
      </g>
     </g>
    </g>
    <g id="xtick_17">
     <g id="line2d_17">
      <g>
       <use style="fill:#333333;stroke:#333333;stroke-width:0.6;" x="582.841559" xlink:href="#m0b76b205e0" y="550.8"/>
      </g>
     </g>
    </g>
    <g id="xtick_18">
     <g id="line2d_18">
      <g>
       <use style="fill:#333333;stroke:#333333;stroke-width:0.6;" x="629.919591" xlink:href="#m0b76b205e0" y="550.8"/>
      </g>
     </g>
    </g>
    <g id="text_3">
     <!-- $V_p/V_c$ -->
     <defs>
      <path d="M 79 72.90625 
L 79 67 
L 72.90625 67 
L 45.40625 0 
L 33.796875 0 
L 6.296875 67 
L -0.59375 67 
L -0.59375 72.90625 
L 33.59375 72.90625 
L 33.59375 67 
L 26.515625 67 
L 46.1875 18.703125 
L 66.015625 67 
L 57.328125 67 
L 57.328125 72.90625 
z
" id="DejaVuSerif-Bold-86"/>
      <path d="M 27 28.515625 
L 27 23.390625 
Q 27 14.3125 29.3125 10.25 
Q 31.640625 6.203125 36.8125 6.203125 
Q 42.140625 6.203125 44.3125 10.5 
Q 46.484375 14.796875 46.484375 25.984375 
Q 46.484375 37.15625 44.3125 41.421875 
Q 42.140625 45.703125 36.8125 45.703125 
Q 31.640625 45.703125 29.3125 41.640625 
Q 27 37.59375 27 28.515625 
z
M 9.71875 46 
L 2.296875 46 
L 2.296875 51.90625 
L 27 51.90625 
L 27 45.3125 
Q 29.203125 49.359375 32.90625 51.34375 
Q 36.625 53.328125 42.09375 53.328125 
Q 53.171875 53.328125 59.546875 46.015625 
Q 65.921875 38.71875 65.921875 25.984375 
Q 65.921875 13.234375 59.546875 5.90625 
Q 53.171875 -1.421875 42.09375 -1.421875 
Q 36.625 -1.421875 32.90625 0.5625 
Q 29.203125 2.546875 27 6.59375 
L 27 -14.890625 
L 35.015625 -14.890625 
L 35.015625 -20.796875 
L 2.296875 -20.796875 
L 2.296875 -14.890625 
L 9.71875 -14.890625 
z
" id="DejaVuSerif-Bold-112"/>
      <path d="M 25.6875 72.90625 
L 36.53125 72.90625 
L 10.796875 -9.28125 
L 0 -9.28125 
z
" id="DejaVuSerif-Bold-47"/>
      <path d="M 56.390625 16.21875 
Q 54.546875 7.328125 48.796875 2.953125 
Q 43.0625 -1.421875 33.203125 -1.421875 
Q 19.34375 -1.421875 11.71875 5.75 
Q 4.109375 12.9375 4.109375 25.984375 
Q 4.109375 38.875 11.625 46.09375 
Q 19.140625 53.328125 32.515625 53.328125 
Q 37.9375 53.328125 43.453125 52.296875 
Q 48.96875 51.265625 54.6875 49.21875 
L 54.6875 34.8125 
L 49.21875 34.8125 
Q 48.4375 41.40625 45.359375 44.59375 
Q 42.28125 47.796875 36.71875 47.796875 
Q 29.5 47.796875 26.4375 42.90625 
Q 23.390625 38.03125 23.390625 25.984375 
Q 23.390625 14.203125 26.359375 9.15625 
Q 29.34375 4.109375 36.078125 4.109375 
Q 41.3125 4.109375 44.453125 7.234375 
Q 47.609375 10.359375 48.296875 16.21875 
z
" id="DejaVuSerif-Bold-99"/>
     </defs>
     <g transform="translate(342.56 597.111875)scale(0.24 -0.24)">
      <use transform="translate(0 0.09375)" xlink:href="#DejaVuSerif-Bold-86"/>
      <use transform="translate(78.49625 -15.478125)scale(0.7)" xlink:href="#DejaVuSerif-Bold-112"/>
      <use transform="translate(130.036875 0.09375)" xlink:href="#DejaVuSerif-Bold-47"/>
      <use transform="translate(166.560313 0.09375)" xlink:href="#DejaVuSerif-Bold-86"/>
      <use transform="translate(245.056563 -15.478125)scale(0.7)" xlink:href="#DejaVuSerif-Bold-99"/>
     </g>
    </g>
   </g>
   <g id="matplotlib.axis_2">
    <g id="ytick_1">
     <g id="line2d_19">
      <defs>
       <path d="M 0 0 
L 6 0 
" id="m70cf82fa17" style="stroke:#333333;stroke-width:0.8;"/>
      </defs>
      <g>
       <use style="fill:#333333;stroke:#333333;stroke-width:0.8;" x="98.48" xlink:href="#m70cf82fa17" y="478.582138"/>
      </g>
     </g>
     <g id="text_4">
      <!-- $\mathdefault{10^{-1}}$ -->
      <defs>
       <path d="M 10.59375 36.921875 
L 73.1875 36.921875 
L 73.1875 25.6875 
L 10.59375 25.6875 
z
" id="DejaVuSerif-Bold-8722"/>
      </defs>
      <g style="fill:#333333;" transform="translate(39.76 486.940419)scale(0.22 -0.22)">
       <use transform="translate(0 0.7125)" xlink:href="#DejaVuSerif-Bold-49"/>
       <use transform="translate(69.580078 0.7125)" xlink:href="#DejaVuSerif-Bold-48"/>
       <use transform="translate(140.068516 37.046875)scale(0.7)" xlink:href="#DejaVuSerif-Bold-8722"/>
       <use transform="translate(198.720859 37.046875)scale(0.7)" xlink:href="#DejaVuSerif-Bold-49"/>
      </g>
     </g>
    </g>
    <g id="ytick_2">
     <g id="line2d_20">
      <g>
       <use style="fill:#333333;stroke:#333333;stroke-width:0.8;" x="98.48" xlink:href="#m70cf82fa17" y="355.036684"/>
      </g>
     </g>
     <g id="text_5">
      <!-- $\mathdefault{10^{0}}$ -->
      <g style="fill:#333333;" transform="translate(52.74 363.394965)scale(0.22 -0.22)">
       <use transform="translate(0 0.7125)" xlink:href="#DejaVuSerif-Bold-49"/>
       <use transform="translate(69.580078 0.7125)" xlink:href="#DejaVuSerif-Bold-48"/>
       <use transform="translate(140.068516 37.046875)scale(0.7)" xlink:href="#DejaVuSerif-Bold-48"/>
      </g>
     </g>
    </g>
    <g id="ytick_3">
     <g id="line2d_21">
      <g>
       <use style="fill:#333333;stroke:#333333;stroke-width:0.8;" x="98.48" xlink:href="#m70cf82fa17" y="231.491229"/>
      </g>
     </g>
     <g id="text_6">
      <!-- $\mathdefault{10^{1}}$ -->
      <g style="fill:#333333;" transform="translate(52.74 239.84951)scale(0.22 -0.22)">
       <use transform="translate(0 0.7125)" xlink:href="#DejaVuSerif-Bold-49"/>
       <use transform="translate(69.580078 0.7125)" xlink:href="#DejaVuSerif-Bold-48"/>
       <use transform="translate(140.068516 37.046875)scale(0.7)" xlink:href="#DejaVuSerif-Bold-49"/>
      </g>
     </g>
    </g>
    <g id="ytick_4">
     <g id="line2d_22">
      <g>
       <use style="fill:#333333;stroke:#333333;stroke-width:0.8;" x="98.48" xlink:href="#m70cf82fa17" y="107.945775"/>
      </g>
     </g>
     <g id="text_7">
      <!-- $\mathdefault{10^{2}}$ -->
      <g style="fill:#333333;" transform="translate(52.74 116.304056)scale(0.22 -0.22)">
       <use transform="translate(0 0.7125)" xlink:href="#DejaVuSerif-Bold-49"/>
       <use transform="translate(69.580078 0.7125)" xlink:href="#DejaVuSerif-Bold-48"/>
       <use transform="translate(140.068516 37.046875)scale(0.7)" xlink:href="#DejaVuSerif-Bold-50"/>
      </g>
     </g>
    </g>
    <g id="ytick_5">
     <g id="line2d_23">
      <defs>
       <path d="M 0 0 
L 3 0 
" id="ma154ee5b72" style="stroke:#333333;stroke-width:0.6;"/>
      </defs>
      <g>
       <use style="fill:#333333;stroke:#333333;stroke-width:0.6;" x="98.48" xlink:href="#ma154ee5b72" y="543.18143"/>
      </g>
     </g>
    </g>
    <g id="ytick_6">
     <g id="line2d_24">
      <g>
       <use style="fill:#333333;stroke:#333333;stroke-width:0.6;" x="98.48" xlink:href="#ma154ee5b72" y="527.745817"/>
      </g>
     </g>
    </g>
    <g id="ytick_7">
     <g id="line2d_25">
      <g>
       <use style="fill:#333333;stroke:#333333;stroke-width:0.6;" x="98.48" xlink:href="#ma154ee5b72" y="515.773026"/>
      </g>
     </g>
    </g>
    <g id="ytick_8">
     <g id="line2d_26">
      <g>
       <use style="fill:#333333;stroke:#333333;stroke-width:0.6;" x="98.48" xlink:href="#ma154ee5b72" y="505.990543"/>
      </g>
     </g>
    </g>
    <g id="ytick_9">
     <g id="line2d_27">
      <g>
       <use style="fill:#333333;stroke:#333333;stroke-width:0.6;" x="98.48" xlink:href="#ma154ee5b72" y="497.719571"/>
      </g>
     </g>
    </g>
    <g id="ytick_10">
     <g id="line2d_28">
      <g>
       <use style="fill:#333333;stroke:#333333;stroke-width:0.6;" x="98.48" xlink:href="#ma154ee5b72" y="490.55493"/>
      </g>
     </g>
    </g>
    <g id="ytick_11">
     <g id="line2d_29">
      <g>
       <use style="fill:#333333;stroke:#333333;stroke-width:0.6;" x="98.48" xlink:href="#ma154ee5b72" y="484.235268"/>
      </g>
     </g>
    </g>
    <g id="ytick_12">
     <g id="line2d_30">
      <g>
       <use style="fill:#333333;stroke:#333333;stroke-width:0.6;" x="98.48" xlink:href="#ma154ee5b72" y="441.391251"/>
      </g>
     </g>
    </g>
    <g id="ytick_13">
     <g id="line2d_31">
      <g>
       <use style="fill:#333333;stroke:#333333;stroke-width:0.6;" x="98.48" xlink:href="#ma154ee5b72" y="419.635976"/>
      </g>
     </g>
    </g>
    <g id="ytick_14">
     <g id="line2d_32">
      <g>
       <use style="fill:#333333;stroke:#333333;stroke-width:0.6;" x="98.48" xlink:href="#ma154ee5b72" y="404.200363"/>
      </g>
     </g>
    </g>
    <g id="ytick_15">
     <g id="line2d_33">
      <g>
       <use style="fill:#333333;stroke:#333333;stroke-width:0.6;" x="98.48" xlink:href="#ma154ee5b72" y="392.227571"/>
      </g>
     </g>
    </g>
    <g id="ytick_16">
     <g id="line2d_34">
      <g>
       <use style="fill:#333333;stroke:#333333;stroke-width:0.6;" x="98.48" xlink:href="#ma154ee5b72" y="382.445088"/>
      </g>
     </g>
    </g>
    <g id="ytick_17">
     <g id="line2d_35">
      <g>
       <use style="fill:#333333;stroke:#333333;stroke-width:0.6;" x="98.48" xlink:href="#ma154ee5b72" y="374.174117"/>
      </g>
     </g>
    </g>
    <g id="ytick_18">
     <g id="line2d_36">
      <g>
       <use style="fill:#333333;stroke:#333333;stroke-width:0.6;" x="98.48" xlink:href="#ma154ee5b72" y="367.009475"/>
      </g>
     </g>
    </g>
    <g id="ytick_19">
     <g id="line2d_37">
      <g>
       <use style="fill:#333333;stroke:#333333;stroke-width:0.6;" x="98.48" xlink:href="#ma154ee5b72" y="360.689814"/>
      </g>
     </g>
    </g>
    <g id="ytick_20">
     <g id="line2d_38">
      <g>
       <use style="fill:#333333;stroke:#333333;stroke-width:0.6;" x="98.48" xlink:href="#ma154ee5b72" y="317.845796"/>
      </g>
     </g>
    </g>
    <g id="ytick_21">
     <g id="line2d_39">
      <g>
       <use style="fill:#333333;stroke:#333333;stroke-width:0.6;" x="98.48" xlink:href="#ma154ee5b72" y="296.090521"/>
      </g>
     </g>
    </g>
    <g id="ytick_22">
     <g id="line2d_40">
      <g>
       <use style="fill:#333333;stroke:#333333;stroke-width:0.6;" x="98.48" xlink:href="#ma154ee5b72" y="280.654908"/>
      </g>
     </g>
    </g>
    <g id="ytick_23">
     <g id="line2d_41">
      <g>
       <use style="fill:#333333;stroke:#333333;stroke-width:0.6;" x="98.48" xlink:href="#ma154ee5b72" y="268.682117"/>
      </g>
     </g>
    </g>
    <g id="ytick_24">
     <g id="line2d_42">
      <g>
       <use style="fill:#333333;stroke:#333333;stroke-width:0.6;" x="98.48" xlink:href="#ma154ee5b72" y="258.899634"/>
      </g>
     </g>
    </g>
    <g id="ytick_25">
     <g id="line2d_43">
      <g>
       <use style="fill:#333333;stroke:#333333;stroke-width:0.6;" x="98.48" xlink:href="#ma154ee5b72" y="250.628662"/>
      </g>
     </g>
    </g>
    <g id="ytick_26">
     <g id="line2d_44">
      <g>
       <use style="fill:#333333;stroke:#333333;stroke-width:0.6;" x="98.48" xlink:href="#ma154ee5b72" y="243.464021"/>
      </g>
     </g>
    </g>
    <g id="ytick_27">
     <g id="line2d_45">
      <g>
       <use style="fill:#333333;stroke:#333333;stroke-width:0.6;" x="98.48" xlink:href="#ma154ee5b72" y="237.144359"/>
      </g>
     </g>
    </g>
    <g id="ytick_28">
     <g id="line2d_46">
      <g>
       <use style="fill:#333333;stroke:#333333;stroke-width:0.6;" x="98.48" xlink:href="#ma154ee5b72" y="194.300341"/>
      </g>
     </g>
    </g>
    <g id="ytick_29">
     <g id="line2d_47">
      <g>
       <use style="fill:#333333;stroke:#333333;stroke-width:0.6;" x="98.48" xlink:href="#ma154ee5b72" y="172.545067"/>
      </g>
     </g>
    </g>
    <g id="ytick_30">
     <g id="line2d_48">
      <g>
       <use style="fill:#333333;stroke:#333333;stroke-width:0.6;" x="98.48" xlink:href="#ma154ee5b72" y="157.109454"/>
      </g>
     </g>
    </g>
    <g id="ytick_31">
     <g id="line2d_49">
      <g>
       <use style="fill:#333333;stroke:#333333;stroke-width:0.6;" x="98.48" xlink:href="#ma154ee5b72" y="145.136662"/>
      </g>
     </g>
    </g>
    <g id="ytick_32">
     <g id="line2d_50">
      <g>
       <use style="fill:#333333;stroke:#333333;stroke-width:0.6;" x="98.48" xlink:href="#ma154ee5b72" y="135.354179"/>
      </g>
     </g>
    </g>
    <g id="ytick_33">
     <g id="line2d_51">
      <g>
       <use style="fill:#333333;stroke:#333333;stroke-width:0.6;" x="98.48" xlink:href="#ma154ee5b72" y="127.083208"/>
      </g>
     </g>
    </g>
    <g id="ytick_34">
     <g id="line2d_52">
      <g>
       <use style="fill:#333333;stroke:#333333;stroke-width:0.6;" x="98.48" xlink:href="#ma154ee5b72" y="119.918566"/>
      </g>
     </g>
    </g>
    <g id="ytick_35">
     <g id="line2d_53">
      <g>
       <use style="fill:#333333;stroke:#333333;stroke-width:0.6;" x="98.48" xlink:href="#ma154ee5b72" y="113.598905"/>
      </g>
     </g>
    </g>
    <g id="ytick_36">
     <g id="line2d_54">
      <g>
       <use style="fill:#333333;stroke:#333333;stroke-width:0.6;" x="98.48" xlink:href="#ma154ee5b72" y="70.754887"/>
      </g>
     </g>
    </g>
    <g id="ytick_37">
     <g id="line2d_55">
      <g>
       <use style="fill:#333333;stroke:#333333;stroke-width:0.6;" x="98.48" xlink:href="#ma154ee5b72" y="48.999612"/>
      </g>
     </g>
    </g>
    <g id="ytick_38">
     <g id="line2d_56">
      <g>
       <use style="fill:#333333;stroke:#333333;stroke-width:0.6;" x="98.48" xlink:href="#ma154ee5b72" y="33.563999"/>
      </g>
     </g>
    </g>
    <g id="ytick_39">
     <g id="line2d_57">
      <g>
       <use style="fill:#333333;stroke:#333333;stroke-width:0.6;" x="98.48" xlink:href="#ma154ee5b72" y="21.591208"/>
      </g>
     </g>
    </g>
    <g id="ytick_40">
     <g id="line2d_58">
      <g>
       <use style="fill:#333333;stroke:#333333;stroke-width:0.6;" x="98.48" xlink:href="#ma154ee5b72" y="11.808725"/>
      </g>
     </g>
    </g>
    <g id="text_8">
     <!-- $\Sigma/\pi a_{bin}^2$ -->
     <defs>
      <path d="M 4.046875 0 
L 36.46875 36.53125 
L 4.046875 72.90625 
L 63.96875 72.90625 
L 63.96875 56.6875 
L 57.953125 56.6875 
L 57.953125 66.21875 
L 33.015625 66.21875 
L 52.4375 43.265625 
L 25.6875 13.578125 
L 57.953125 13.578125 
L 57.953125 20.609375 
L 63.96875 20.609375 
L 63.96875 0 
z
" id="DejaVuSerif-Bold-931"/>
      <path d="M 3.421875 0 
L 3.421875 5.90625 
L 10.796875 5.90625 
L 10.796875 46 
L 3.421875 46 
L 3.421875 51.90625 
L 69.828125 51.90625 
L 69.828125 46 
L 62.40625 46 
L 62.40625 5.90625 
L 69.828125 5.90625 
L 69.828125 0 
L 38.71875 0 
L 38.71875 5.90625 
L 45.125 5.90625 
L 45.125 46 
L 28.078125 46 
L 28.078125 5.90625 
L 34.421875 5.90625 
L 34.421875 0 
z
" id="DejaVuSerif-Bold-960"/>
      <path d="M 55.078125 31.890625 
L 55.078125 5.90625 
L 62.5 5.90625 
L 62.5 0 
L 37.796875 0 
L 37.796875 6.59375 
Q 34.375 2.484375 30.171875 0.53125 
Q 25.984375 -1.421875 20.609375 -1.421875 
Q 12.640625 -1.421875 8.375 2.84375 
Q 4.109375 7.125 4.109375 15.09375 
Q 4.109375 23.828125 10.234375 28.171875 
Q 16.359375 32.515625 28.71875 32.515625 
L 37.796875 32.515625 
L 37.796875 35.59375 
Q 37.796875 41.890625 34.8125 44.890625 
Q 31.84375 47.90625 25.59375 47.90625 
Q 20.40625 47.90625 17.59375 45.78125 
Q 14.796875 43.65625 13.625 38.8125 
L 8.109375 38.8125 
L 8.109375 50 
Q 12.75 51.65625 17.71875 52.484375 
Q 22.703125 53.328125 28.21875 53.328125 
Q 42.140625 53.328125 48.609375 48.140625 
Q 55.078125 42.96875 55.078125 31.890625 
z
M 37.796875 16.3125 
L 37.796875 26.703125 
L 31.296875 26.703125 
Q 26.46875 26.703125 23.875 24.0625 
Q 21.296875 21.4375 21.296875 16.5 
Q 21.296875 11.578125 23.171875 9.125 
Q 25.046875 6.6875 28.90625 6.6875 
Q 32.90625 6.6875 35.34375 9.328125 
Q 37.796875 11.96875 37.796875 16.3125 
z
" id="DejaVuSerif-Bold-97"/>
      <path d="M 9.71875 5.90625 
L 9.71875 70.125 
L 2.296875 70.125 
L 2.296875 75.984375 
L 27 75.984375 
L 27 45.3125 
Q 29.203125 49.359375 32.90625 51.34375 
Q 36.625 53.328125 42.09375 53.328125 
Q 53.171875 53.328125 59.546875 46.015625 
Q 65.921875 38.71875 65.921875 25.984375 
Q 65.921875 13.234375 59.546875 5.90625 
Q 53.171875 -1.421875 42.09375 -1.421875 
Q 36.625 -1.421875 32.90625 0.5625 
Q 29.203125 2.546875 27 6.59375 
L 27 0 
L 2.296875 0 
L 2.296875 5.90625 
z
M 27 23.390625 
Q 27 14.3125 29.3125 10.25 
Q 31.640625 6.203125 36.8125 6.203125 
Q 42.140625 6.203125 44.3125 10.5 
Q 46.484375 14.796875 46.484375 25.984375 
Q 46.484375 37.15625 44.3125 41.421875 
Q 42.140625 45.703125 36.8125 45.703125 
Q 31.640625 45.703125 29.3125 41.640625 
Q 27 37.59375 27 28.515625 
z
" id="DejaVuSerif-Bold-98"/>
      <path d="M 9.1875 66.609375 
Q 9.1875 70.5625 11.921875 73.265625 
Q 14.65625 75.984375 18.609375 75.984375 
Q 22.46875 75.984375 25.171875 73.265625 
Q 27.875 70.5625 27.875 66.609375 
Q 27.875 62.75 25.171875 60.03125 
Q 22.46875 57.328125 18.609375 57.328125 
Q 14.65625 57.328125 11.921875 60.015625 
Q 9.1875 62.703125 9.1875 66.609375 
z
M 28.078125 5.90625 
L 35.5 5.90625 
L 35.5 0 
L 3.421875 0 
L 3.421875 5.90625 
L 10.796875 5.90625 
L 10.796875 46 
L 3.421875 46 
L 3.421875 51.90625 
L 28.078125 51.90625 
z
" id="DejaVuSerif-Bold-105"/>
      <path d="M 3.421875 0 
L 3.421875 5.90625 
L 10.796875 5.90625 
L 10.796875 46 
L 3.421875 46 
L 3.421875 51.90625 
L 28.078125 51.90625 
L 28.078125 44.578125 
Q 31.203125 49.21875 35.203125 51.265625 
Q 39.203125 53.328125 45.3125 53.328125 
Q 54.046875 53.328125 58.515625 48.171875 
Q 62.984375 43.015625 62.984375 33.015625 
L 62.984375 5.90625 
L 70.40625 5.90625 
L 70.40625 0 
L 39.40625 0 
L 39.40625 5.90625 
L 45.703125 5.90625 
L 45.703125 33.5 
Q 45.703125 40.09375 44.015625 42.65625 
Q 42.328125 45.21875 38.1875 45.21875 
Q 32.953125 45.21875 30.515625 41.375 
Q 28.078125 37.546875 28.078125 29.203125 
L 28.078125 5.90625 
L 34.421875 5.90625 
L 34.421875 0 
z
" id="DejaVuSerif-Bold-110"/>
     </defs>
     <g transform="translate(29.28 324.12)rotate(-90)scale(0.24 -0.24)">
      <use transform="translate(0 0.310937)" xlink:href="#DejaVuSerif-Bold-931"/>
      <use transform="translate(70.703125 0.310937)" xlink:href="#DejaVuSerif-Bold-47"/>
      <use transform="translate(107.226562 0.310937)" xlink:href="#DejaVuSerif-Bold-960"/>
      <use transform="translate(180.419922 0.310937)" xlink:href="#DejaVuSerif-Bold-97"/>
      <use transform="translate(246.123203 40.046875)scale(0.7)" xlink:href="#DejaVuSerif-Bold-50"/>
      <use transform="translate(246.123203 -25.642188)scale(0.7)" xlink:href="#DejaVuSerif-Bold-98"/>
      <use transform="translate(295.068516 -25.642188)scale(0.7)" xlink:href="#DejaVuSerif-Bold-105"/>
      <use transform="translate(321.660312 -25.642188)scale(0.7)" xlink:href="#DejaVuSerif-Bold-110"/>
     </g>
    </g>
   </g>
   <g id="line2d_59">
    <path clip-path="url(#p9a1e719533)" d="M 110.713274 210.356279 
L 121.625527 207.872041 
L 132.537779 213.042243 
L 143.450032 219.274584 
L 154.362285 226.184428 
L 165.274538 233.282433 
L 176.18679 240.168696 
L 187.099043 247.691391 
L 198.011296 254.937353 
L 208.923548 262.31696 
L 219.835801 269.462104 
L 230.748054 276.605765 
L 241.660307 283.234167 
L 252.572559 290.026838 
L 263.484812 296.563196 
L 274.397065 302.594201 
L 285.309318 308.761456 
L 296.22157 314.393366 
L 307.133823 320.514668 
L 318.046076 325.628692 
L 328.958328 331.427637 
L 339.870581 336.830666 
L 350.782834 342.143636 
L 361.695087 347.296443 
L 372.607339 352.524431 
L 383.519592 357.726883 
L 394.431845 362.976666 
L 405.344098 368.341513 
L 416.25635 373.572296 
L 427.168603 379.104561 
L 438.080856 383.770451 
L 448.993109 389.09287 
L 459.905361 394.600682 
L 470.817614 399.893482 
L 481.729867 406.173448 
L 492.642119 412.275841 
L 503.554372 417.748469 
L 514.466625 423.800051 
L 525.378878 430.74154 
L 536.29113 437.772547 
L 547.203383 444.552193 
L 558.115636 452.531209 
L 569.027889 460.758587 
L 579.940141 469.933446 
L 590.852394 478.56487 
L 601.764647 487.59131 
L 612.676899 496.077306 
L 623.589152 505.59408 
L 634.501405 514.883421 
L 645.413658 523.734702 
" style="fill:none;stroke:#1a1a1a;stroke-linecap:square;stroke-width:2;"/>
   </g>
   <g id="line2d_60">
    <path clip-path="url(#p9a1e719533)" d="M 110.713274 31.909091 
L 121.625527 41.994434 
L 132.537779 52.079777 
L 143.450032 62.165121 
L 154.362285 72.250464 
L 165.274538 82.335807 
L 176.18679 92.42115 
L 187.099043 102.506494 
L 198.011296 112.591837 
L 208.923548 122.67718 
L 219.835801 132.762523 
L 230.748054 142.847866 
L 241.660307 152.93321 
L 252.572559 163.018553 
L 263.484812 173.103896 
L 274.397065 183.189239 
L 285.309318 193.274583 
L 296.22157 203.359926 
L 307.133823 213.445269 
L 318.046076 223.530612 
L 328.958328 233.615955 
L 339.870581 243.701299 
L 350.782834 253.786642 
L 361.695087 263.871985 
L 372.607339 273.957328 
L 383.519592 284.042672 
L 394.431845 294.128015 
L 405.344098 304.213358 
L 416.25635 314.298701 
L 427.168603 324.384045 
L 438.080856 334.469388 
L 448.993109 344.554731 
L 459.905361 354.640074 
L 470.817614 364.725417 
L 481.729867 374.810761 
L 492.642119 384.896104 
L 503.554372 394.981447 
L 514.466625 405.06679 
L 525.378878 415.152134 
L 536.29113 425.237477 
L 547.203383 435.32282 
L 558.115636 445.408163 
L 569.027889 455.493506 
L 579.940141 465.57885 
L 590.852394 475.664193 
L 601.764647 485.749536 
L 612.676899 495.834879 
L 623.589152 505.920223 
L 634.501405 516.005566 
L 645.413658 526.090909 
" style="fill:none;stroke:#ff0000;stroke-dasharray:7.4,3.2;stroke-dashoffset:0;stroke-width:2;"/>
   </g>
   <g id="line2d_61">
    <defs>
     <path d="M 0 5 
C 1.326016 5 2.597899 4.473168 3.535534 3.535534 
C 4.473168 2.597899 5 1.326016 5 0 
C 5 -1.326016 4.473168 -2.597899 3.535534 -3.535534 
C 2.597899 -4.473168 1.326016 -5 0 -5 
C -1.326016 -5 -2.597899 -4.473168 -3.535534 -3.535534 
C -4.473168 -2.597899 -5 -1.326016 -5 0 
C -5 1.326016 -4.473168 2.597899 -3.535534 3.535534 
C -2.597899 4.473168 -1.326016 5 0 5 
z
" id="me6559ee8e5"/>
    </defs>
    <g clip-path="url(#p9a1e719533)">
     <use style="fill:#ff0000;" x="551.399477" xlink:href="#me6559ee8e5" y="447.39499"/>
    </g>
   </g>
   <g id="patch_3">
    <path d="M 98.48 550.8 
L 98.48 7.2 
" style="fill:none;stroke:#333333;stroke-linecap:square;stroke-linejoin:miter;stroke-width:0.8;"/>
   </g>
   <g id="patch_4">
    <path d="M 656.48 550.8 
L 656.48 7.2 
" style="fill:none;stroke:#333333;stroke-linecap:square;stroke-linejoin:miter;stroke-width:0.8;"/>
   </g>
   <g id="patch_5">
    <path d="M 98.48 550.8 
L 656.48 550.8 
" style="fill:none;stroke:#333333;stroke-linecap:square;stroke-linejoin:miter;stroke-width:0.8;"/>
   </g>
   <g id="patch_6">
    <path d="M 98.48 7.2 
L 656.48 7.2 
" style="fill:none;stroke:#333333;stroke-linecap:square;stroke-linejoin:miter;stroke-width:0.8;"/>
   </g>
   <g id="legend_1">
    <g id="text_9">
     <!-- $m_{\rm bin}=2, m_p=$20.0 -->
     <defs>
      <path d="M 60.6875 43.40625 
Q 64.3125 48.578125 68.5 50.953125 
Q 72.703125 53.328125 78.328125 53.328125 
Q 87.25 53.328125 91.671875 48.265625 
Q 96.09375 43.21875 96.09375 33.015625 
L 96.09375 5.90625 
L 103.515625 5.90625 
L 103.515625 0 
L 72.609375 0 
L 72.609375 5.90625 
L 78.8125 5.90625 
L 78.8125 30.421875 
Q 78.8125 40.140625 77.3125 42.671875 
Q 75.828125 45.21875 71.78125 45.21875 
Q 67.1875 45.21875 64.640625 41.671875 
Q 62.109375 38.140625 62.109375 31.59375 
L 62.109375 5.90625 
L 68.3125 5.90625 
L 68.3125 0 
L 38.625 0 
L 38.625 5.90625 
L 44.828125 5.90625 
L 44.828125 30.421875 
Q 44.828125 40.140625 43.3125 42.671875 
Q 41.796875 45.21875 37.796875 45.21875 
Q 33.15625 45.21875 30.609375 41.671875 
Q 28.078125 38.140625 28.078125 31.59375 
L 28.078125 5.90625 
L 34.28125 5.90625 
L 34.28125 0 
L 3.421875 0 
L 3.421875 5.90625 
L 10.796875 5.90625 
L 10.796875 46 
L 3.421875 46 
L 3.421875 51.90625 
L 28.078125 51.90625 
L 28.078125 44.578125 
Q 31.109375 49.125 35.015625 51.21875 
Q 38.921875 53.328125 44.28125 53.328125 
Q 50.640625 53.328125 54.59375 50.90625 
Q 58.546875 48.484375 60.6875 43.40625 
z
" id="DejaVuSerif-Bold-109"/>
      <path d="M 37.5 11.28125 
Q 43.109375 11.28125 46.0625 15.375 
Q 49.03125 19.484375 49.03125 27.296875 
Q 49.03125 35.109375 46.0625 39.203125 
Q 43.109375 43.3125 37.5 43.3125 
Q 31.890625 43.3125 28.875 39.1875 
Q 25.875 35.0625 25.875 27.296875 
Q 25.875 19.53125 28.875 15.40625 
Q 31.890625 11.28125 37.5 11.28125 
z
M 25.875 46.6875 
Q 29.5 51.46875 33.890625 53.734375 
Q 38.28125 56 44 56 
Q 54.109375 56 60.59375 47.96875 
Q 67.09375 39.9375 67.09375 27.296875 
Q 67.09375 14.65625 60.59375 6.609375 
Q 54.109375 -1.421875 44 -1.421875 
Q 38.28125 -1.421875 33.890625 0.84375 
Q 29.5 3.125 25.875 7.90625 
L 25.875 0 
L 8.40625 0 
L 8.40625 75.984375 
L 25.875 75.984375 
z
" id="DejaVuSans-Bold-98"/>
      <path d="M 8.40625 54.6875 
L 25.875 54.6875 
L 25.875 0 
L 8.40625 0 
z
M 8.40625 75.984375 
L 25.875 75.984375 
L 25.875 61.71875 
L 8.40625 61.71875 
z
" id="DejaVuSans-Bold-105"/>
      <path d="M 63.375 33.296875 
L 63.375 0 
L 45.796875 0 
L 45.796875 5.421875 
L 45.796875 25.484375 
Q 45.796875 32.5625 45.484375 35.25 
Q 45.171875 37.9375 44.390625 39.203125 
Q 43.359375 40.921875 41.59375 41.875 
Q 39.84375 42.828125 37.59375 42.828125 
Q 32.125 42.828125 29 38.59375 
Q 25.875 34.375 25.875 26.90625 
L 25.875 0 
L 8.40625 0 
L 8.40625 54.6875 
L 25.875 54.6875 
L 25.875 46.6875 
Q 29.828125 51.46875 34.265625 53.734375 
Q 38.71875 56 44.09375 56 
Q 53.5625 56 58.46875 50.1875 
Q 63.375 44.390625 63.375 33.296875 
z
" id="DejaVuSans-Bold-110"/>
      <path d="M 10.59375 25.78125 
L 73.1875 25.78125 
L 73.1875 14.703125 
L 10.59375 14.703125 
z
M 10.59375 48 
L 73.1875 48 
L 73.1875 36.921875 
L 10.59375 36.921875 
z
" id="DejaVuSerif-Bold-61"/>
      <path d="M 1.3125 -9.625 
Q 6.390625 -5.515625 8.78125 -0.4375 
Q 11.1875 4.640625 11.1875 11.375 
L 11.1875 15.578125 
L 25.09375 15.578125 
L 25.09375 15.1875 
Q 25.09375 4.390625 20.578125 -3.390625 
Q 16.0625 -11.1875 6.6875 -16.5 
z
" id="DejaVuSerif-Bold-44"/>
      <path d="M 8.109375 7.90625 
Q 8.109375 11.71875 10.84375 14.453125 
Q 13.578125 17.1875 17.390625 17.1875 
Q 21.234375 17.1875 23.96875 14.453125 
Q 26.703125 11.71875 26.703125 7.90625 
Q 26.703125 4.046875 23.96875 1.3125 
Q 21.234375 -1.421875 17.390625 -1.421875 
Q 13.578125 -1.421875 10.84375 1.3125 
Q 8.109375 4.046875 8.109375 7.90625 
z
" id="DejaVuSerif-Bold-46"/>
     </defs>
     <g transform="translate(354.2 43.716563)scale(0.22 -0.22)">
      <use transform="translate(0 0.78125)" xlink:href="#DejaVuSerif-Bold-109"/>
      <use transform="translate(106.718906 -14.790625)scale(0.7)" xlink:href="#DejaVuSans-Bold-98"/>
      <use transform="translate(156.826328 -14.790625)scale(0.7)" xlink:href="#DejaVuSans-Bold-105"/>
      <use transform="translate(180.820469 -14.790625)scale(0.7)" xlink:href="#DejaVuSans-Bold-110"/>
      <use transform="translate(254.411875 0.78125)" xlink:href="#DejaVuSerif-Bold-61"/>
      <use transform="translate(359.363047 0.78125)" xlink:href="#DejaVuSerif-Bold-50"/>
      <use transform="translate(428.943125 0.78125)" xlink:href="#DejaVuSerif-Bold-44"/>
      <use transform="translate(484.919688 0.78125)" xlink:href="#DejaVuSerif-Bold-109"/>
      <use transform="translate(591.638594 -14.790625)scale(0.7)" xlink:href="#DejaVuSerif-Bold-112"/>
      <use transform="translate(664.341328 0.78125)" xlink:href="#DejaVuSerif-Bold-61"/>
      <use transform="translate(769.2925 0.78125)" xlink:href="#DejaVuSerif-Bold-50"/>
      <use transform="translate(838.872578 0.78125)" xlink:href="#DejaVuSerif-Bold-48"/>
      <use transform="translate(908.452656 0.78125)" xlink:href="#DejaVuSerif-Bold-46"/>
      <use transform="translate(943.267109 0.78125)" xlink:href="#DejaVuSerif-Bold-48"/>
     </g>
    </g>
    <g id="line2d_62">
     <path d="M 294.58 73.416562 
L 338.58 73.416562 
" style="fill:none;stroke:#ff0000;stroke-dasharray:7.4,3.2;stroke-dashoffset:0;stroke-width:2;"/>
    </g>
    <g id="line2d_63"/>
    <g id="text_10">
     <!-- Hut 1983: $\Sigma \propto (V_p/V_c)^{-2}$ -->
     <defs>
      <path d="M 4.6875 0 
L 4.6875 5.90625 
L 14.015625 5.90625 
L 14.015625 67 
L 4.6875 67 
L 4.6875 72.90625 
L 42.1875 72.90625 
L 42.1875 67 
L 32.8125 67 
L 32.8125 42.484375 
L 61.8125 42.484375 
L 61.8125 67 
L 52.484375 67 
L 52.484375 72.90625 
L 89.984375 72.90625 
L 89.984375 67 
L 80.609375 67 
L 80.609375 5.90625 
L 89.984375 5.90625 
L 89.984375 0 
L 52.484375 0 
L 52.484375 5.90625 
L 61.8125 5.90625 
L 61.8125 35.796875 
L 32.8125 35.796875 
L 32.8125 5.90625 
L 42.1875 5.90625 
L 42.1875 0 
z
" id="DejaVuSerif-Bold-72"/>
      <path d="M 61.921875 51.90625 
L 61.921875 5.90625 
L 69.28125 5.90625 
L 69.28125 0 
L 44.578125 0 
L 44.578125 7.328125 
Q 41.5 2.6875 37.5 0.625 
Q 33.5 -1.421875 27.390625 -1.421875 
Q 18.65625 -1.421875 14.1875 3.734375 
Q 9.71875 8.890625 9.71875 18.890625 
L 9.71875 46 
L 2.296875 46 
L 2.296875 51.90625 
L 27 51.90625 
L 27 21.578125 
Q 27 11.921875 28.609375 9.296875 
Q 30.21875 6.6875 34.515625 6.6875 
Q 39.75 6.6875 42.15625 10.546875 
Q 44.578125 14.40625 44.578125 22.796875 
L 44.578125 46 
L 38.28125 46 
L 38.28125 51.90625 
z
" id="DejaVuSerif-Bold-117"/>
      <path d="M 9.90625 46 
L 2.390625 46 
L 2.390625 51.90625 
L 9.90625 51.90625 
L 9.90625 68.015625 
L 27.203125 68.015625 
L 27.203125 51.90625 
L 41.609375 51.90625 
L 41.609375 46 
L 27.203125 46 
L 27.203125 14.203125 
Q 27.203125 7.421875 28.265625 5.765625 
Q 29.34375 4.109375 32.171875 4.109375 
Q 35.296875 4.109375 36.8125 6.203125 
Q 38.328125 8.296875 38.421875 12.703125 
L 45.703125 12.703125 
Q 45.265625 4.890625 41.421875 1.734375 
Q 37.59375 -1.421875 28.21875 -1.421875 
Q 17.53125 -1.421875 13.71875 1.921875 
Q 9.90625 5.28125 9.90625 14.203125 
z
" id="DejaVuSerif-Bold-116"/>
      <path id="DejaVuSerif-Bold-32"/>
      <path d="M 34.078125 68.5 
Q 29.046875 68.5 26.921875 64.234375 
Q 24.8125 59.96875 24.8125 49.421875 
Q 24.8125 38.875 26.921875 34.59375 
Q 29.046875 30.328125 34.078125 30.328125 
Q 39.109375 30.328125 41.25 34.59375 
Q 43.40625 38.875 43.40625 49.421875 
Q 43.40625 59.96875 41.25 64.234375 
Q 39.109375 68.5 34.078125 68.5 
z
M 44.96875 29.6875 
Q 41.75 27.09375 37.8125 25.796875 
Q 33.890625 24.515625 29.296875 24.515625 
Q 18.171875 24.515625 11.796875 31.03125 
Q 5.421875 37.546875 5.421875 49.03125 
Q 5.421875 61.140625 12.546875 67.671875 
Q 19.671875 74.21875 32.90625 74.21875 
Q 47.859375 74.21875 55.5625 65.1875 
Q 63.28125 56.15625 63.28125 38.71875 
Q 63.28125 18.84375 54.734375 8.703125 
Q 46.1875 -1.421875 29.390625 -1.421875 
Q 25 -1.421875 19.96875 -0.6875 
Q 14.9375 0.046875 9.1875 1.515625 
L 9.1875 14.40625 
L 15.09375 14.40625 
Q 16.3125 9.421875 19.703125 6.859375 
Q 23.09375 4.296875 28.515625 4.296875 
Q 37.109375 4.296875 41.015625 10.28125 
Q 44.921875 16.265625 44.96875 29.6875 
z
" id="DejaVuSerif-Bold-57"/>
      <path d="M 46.484375 38.8125 
Q 55.171875 37.40625 59.6875 32.421875 
Q 64.203125 27.4375 64.203125 19.390625 
Q 64.203125 9.328125 56.609375 3.953125 
Q 49.03125 -1.421875 34.71875 -1.421875 
Q 20.40625 -1.421875 12.78125 3.953125 
Q 5.171875 9.328125 5.171875 19.390625 
Q 5.171875 27.4375 9.71875 32.421875 
Q 14.265625 37.40625 22.90625 38.8125 
Q 15.234375 40.578125 11.421875 44.703125 
Q 7.625 48.828125 7.625 55.171875 
Q 7.625 64.453125 14.546875 69.328125 
Q 21.484375 74.21875 34.71875 74.21875 
Q 47.90625 74.21875 54.859375 69.328125 
Q 61.8125 64.453125 61.8125 55.171875 
Q 61.8125 48.828125 57.984375 44.703125 
Q 54.15625 40.578125 46.484375 38.8125 
z
M 42.921875 54.984375 
Q 42.921875 62.703125 41.0625 65.59375 
Q 39.203125 68.5 34.71875 68.5 
Q 30.171875 68.5 28.34375 65.59375 
Q 26.515625 62.703125 26.515625 54.984375 
Q 26.515625 47.3125 28.34375 44.453125 
Q 30.171875 41.609375 34.71875 41.609375 
Q 39.265625 41.609375 41.09375 44.453125 
Q 42.921875 47.3125 42.921875 54.984375 
z
M 44.828125 20.21875 
Q 44.828125 29.15625 42.546875 32.515625 
Q 40.28125 35.890625 34.71875 35.890625 
Q 29.109375 35.890625 26.859375 32.515625 
Q 24.609375 29.15625 24.609375 20.21875 
Q 24.609375 11.1875 26.875 7.734375 
Q 29.15625 4.296875 34.71875 4.296875 
Q 40.234375 4.296875 42.53125 7.734375 
Q 44.828125 11.1875 44.828125 20.21875 
z
" id="DejaVuSerif-Bold-56"/>
      <path d="M 8.59375 70.796875 
Q 15.046875 72.515625 21.09375 73.359375 
Q 27.15625 74.21875 32.90625 74.21875 
Q 46.09375 74.21875 53.140625 69.5 
Q 60.203125 64.796875 60.203125 56 
Q 60.203125 49.421875 56.140625 45.3125 
Q 52.09375 41.21875 44.28125 39.796875 
Q 53.8125 38.28125 58.5 33.296875 
Q 63.1875 28.328125 63.1875 19.671875 
Q 63.1875 9.46875 55.09375 4.015625 
Q 47.015625 -1.421875 31.6875 -1.421875 
Q 25.921875 -1.421875 19.796875 -0.4375 
Q 13.671875 0.53125 6.984375 2.484375 
L 6.984375 18.5 
L 12.890625 18.5 
Q 13.421875 11.578125 17.234375 7.9375 
Q 21.046875 4.296875 27.78125 4.296875 
Q 35.203125 4.296875 39.25 8.421875 
Q 43.3125 12.546875 43.3125 20.125 
Q 43.3125 28.03125 39.078125 32.328125 
Q 34.859375 36.625 27.09375 36.625 
L 23.875 36.625 
L 23.875 42.484375 
L 26.421875 42.484375 
Q 33.59375 42.484375 37.203125 45.796875 
Q 40.828125 49.125 40.828125 55.71875 
Q 40.828125 61.921875 37.421875 65.203125 
Q 34.03125 68.5 27.6875 68.5 
Q 21.921875 68.5 18.546875 65.34375 
Q 15.1875 62.203125 14.5 56.203125 
L 8.59375 56.203125 
z
" id="DejaVuSerif-Bold-51"/>
      <path d="M 9.1875 39.703125 
Q 9.1875 43.5625 11.890625 46.296875 
Q 14.59375 49.03125 18.40625 49.03125 
Q 22.21875 49.03125 24.953125 46.265625 
Q 27.6875 43.5 27.6875 39.703125 
Q 27.6875 35.890625 24.96875 33.203125 
Q 22.265625 30.515625 18.40625 30.515625 
Q 14.546875 30.515625 11.859375 33.203125 
Q 9.1875 35.890625 9.1875 39.703125 
z
M 9.1875 7.90625 
Q 9.1875 11.71875 11.890625 14.453125 
Q 14.59375 17.1875 18.40625 17.1875 
Q 22.21875 17.1875 24.953125 14.453125 
Q 27.6875 11.71875 27.6875 7.90625 
Q 27.6875 4.046875 24.953125 1.3125 
Q 22.21875 -1.421875 18.40625 -1.421875 
Q 14.59375 -1.421875 11.890625 1.3125 
Q 9.1875 4.046875 9.1875 7.90625 
z
" id="DejaVuSerif-Bold-58"/>
      <path d="M 37.40625 32.171875 
Q 35.15625 35.890625 32.171875 37.6875 
Q 29.203125 39.5 25.390625 39.5 
Q 20.84375 39.5 17.96875 36.734375 
Q 15.09375 33.984375 15.09375 29.6875 
Q 15.09375 25.53125 17.71875 22.765625 
Q 20.359375 20.015625 24.3125 20.015625 
Q 27.984375 20.015625 31.046875 22.84375 
Q 34.125 25.6875 37.40625 32.171875 
z
M 57.171875 9.8125 
Q 53.765625 9.8125 50.078125 12.5625 
Q 46.390625 15.328125 41.890625 22.3125 
Q 38.53125 15.828125 34.71875 12.765625 
Q 30.90625 9.71875 26.21875 9.71875 
Q 19.4375 9.71875 14.71875 15.453125 
Q 10.015625 21.1875 10.015625 29.78125 
Q 10.015625 38.765625 14.1875 44.28125 
Q 18.359375 49.8125 25.09375 49.8125 
Q 29.640625 49.8125 33.375 46.953125 
Q 37.109375 44.09375 41.40625 37.203125 
Q 44.734375 43.65625 48.640625 46.78125 
Q 52.546875 49.90625 57.171875 49.90625 
L 57.171875 39.5 
Q 55.46875 39.5 52.4375 36.71875 
Q 49.421875 33.9375 46 27.390625 
Q 48.1875 23.734375 51.1875 21.875 
Q 54.203125 20.015625 57.171875 20.015625 
z
" id="DejaVuSerif-Bold-8733"/>
      <path d="M 42.09375 -15.578125 
Q 25.640625 -9.46875 17.53125 1.90625 
Q 9.421875 13.28125 9.421875 30.171875 
Q 9.421875 47.078125 17.421875 58.296875 
Q 25.4375 69.53125 42.09375 75.984375 
L 42.09375 70.125 
Q 34.375 65.4375 30.984375 56.21875 
Q 27.59375 47.015625 27.59375 30.171875 
Q 27.59375 13.375 30.984375 4.171875 
Q 34.375 -5.03125 42.09375 -9.71875 
z
" id="DejaVuSerif-Bold-40"/>
      <path d="M 5.078125 -15.578125 
L 5.078125 -9.71875 
Q 12.796875 -5.03125 16.1875 4.171875 
Q 19.578125 13.375 19.578125 30.171875 
Q 19.578125 47.015625 16.1875 56.21875 
Q 12.796875 65.4375 5.078125 70.125 
L 5.078125 75.984375 
Q 21.734375 69.53125 29.765625 58.296875 
Q 37.796875 47.078125 37.796875 30.171875 
Q 37.796875 13.28125 29.65625 1.90625 
Q 21.53125 -9.46875 5.078125 -15.578125 
z
" id="DejaVuSerif-Bold-41"/>
     </defs>
     <g transform="translate(356.18 81.116562)scale(0.22 -0.22)">
      <use transform="translate(0 0.7125)" xlink:href="#DejaVuSerif-Bold-72"/>
      <use transform="translate(94.482422 0.7125)" xlink:href="#DejaVuSerif-Bold-117"/>
      <use transform="translate(167.1875 0.7125)" xlink:href="#DejaVuSerif-Bold-116"/>
      <use transform="translate(213.378906 0.7125)" xlink:href="#DejaVuSerif-Bold-32"/>
      <use transform="translate(248.193359 0.7125)" xlink:href="#DejaVuSerif-Bold-49"/>
      <use transform="translate(317.773438 0.7125)" xlink:href="#DejaVuSerif-Bold-57"/>
      <use transform="translate(387.353516 0.7125)" xlink:href="#DejaVuSerif-Bold-56"/>
      <use transform="translate(456.933594 0.7125)" xlink:href="#DejaVuSerif-Bold-51"/>
      <use transform="translate(526.513672 0.7125)" xlink:href="#DejaVuSerif-Bold-58"/>
      <use transform="translate(563.427734 0.7125)" xlink:href="#DejaVuSerif-Bold-32"/>
      <use transform="translate(598.242188 0.7125)" xlink:href="#DejaVuSerif-Bold-931"/>
      <use transform="translate(690.107422 0.7125)" xlink:href="#DejaVuSerif-Bold-8733"/>
      <use transform="translate(778.457031 0.7125)" xlink:href="#DejaVuSerif-Bold-40"/>
      <use transform="translate(825.771484 0.7125)" xlink:href="#DejaVuSerif-Bold-86"/>
      <use transform="translate(904.267734 -14.859375)scale(0.7)" xlink:href="#DejaVuSerif-Bold-112"/>
      <use transform="translate(955.808359 0.7125)" xlink:href="#DejaVuSerif-Bold-47"/>
      <use transform="translate(992.331797 0.7125)" xlink:href="#DejaVuSerif-Bold-86"/>
      <use transform="translate(1070.828047 -14.859375)scale(0.7)" xlink:href="#DejaVuSerif-Bold-99"/>
      <use transform="translate(1116.04543 0.7125)" xlink:href="#DejaVuSerif-Bold-41"/>
      <use transform="translate(1164.268242 37.046875)scale(0.7)" xlink:href="#DejaVuSerif-Bold-8722"/>
      <use transform="translate(1222.920586 37.046875)scale(0.7)" xlink:href="#DejaVuSerif-Bold-50"/>
     </g>
    </g>
    <g id="line2d_64"/>
    <g id="line2d_65">
     <g>
      <use style="fill:#ff0000;" x="316.58" xlink:href="#me6559ee8e5" y="107.953125"/>
     </g>
    </g>
    <g id="text_11">
     <!-- $m_p/m_c=0.125$ -->
     <defs>
      <path d="M 56.390625 72.90625 
L 56.390625 60.109375 
L 17.390625 60.109375 
L 17.390625 44.09375 
Q 20.609375 46.578125 24.5625 47.84375 
Q 28.515625 49.125 32.90625 49.125 
Q 46.390625 49.125 54.203125 42.3125 
Q 62.015625 35.5 62.015625 23.78125 
Q 62.015625 11.859375 54.203125 5.21875 
Q 46.390625 -1.421875 32.328125 -1.421875 
Q 26.375 -1.421875 20.484375 -0.4375 
Q 14.59375 0.53125 8.203125 2.59375 
L 8.203125 18.5 
L 14.0625 18.5 
Q 14.359375 11.328125 17.796875 7.8125 
Q 21.234375 4.296875 27.984375 4.296875 
Q 35.15625 4.296875 38.625 9.109375 
Q 42.09375 13.921875 42.09375 23.78125 
Q 42.09375 33.5 38.6875 38.296875 
Q 35.296875 43.109375 28.421875 43.109375 
Q 24.703125 43.109375 21.796875 41.578125 
Q 18.890625 40.046875 16.40625 36.8125 
L 11.53125 36.8125 
L 11.53125 72.90625 
z
" id="DejaVuSerif-Bold-53"/>
     </defs>
     <g transform="translate(356.18 115.653125)scale(0.22 -0.22)">
      <use transform="translate(0 0.78125)" xlink:href="#DejaVuSerif-Bold-109"/>
      <use transform="translate(106.718906 -14.790625)scale(0.7)" xlink:href="#DejaVuSerif-Bold-112"/>
      <use transform="translate(158.259531 0.78125)" xlink:href="#DejaVuSerif-Bold-47"/>
      <use transform="translate(194.782969 0.78125)" xlink:href="#DejaVuSerif-Bold-109"/>
      <use transform="translate(301.501875 -14.790625)scale(0.7)" xlink:href="#DejaVuSerif-Bold-99"/>
      <use transform="translate(367.881367 0.78125)" xlink:href="#DejaVuSerif-Bold-61"/>
      <use transform="translate(472.832539 0.78125)" xlink:href="#DejaVuSerif-Bold-48"/>
      <use transform="translate(542.412617 0.78125)" xlink:href="#DejaVuSerif-Bold-46"/>
      <use transform="translate(577.22707 0.78125)" xlink:href="#DejaVuSerif-Bold-49"/>
      <use transform="translate(646.807148 0.78125)" xlink:href="#DejaVuSerif-Bold-50"/>
      <use transform="translate(716.387227 0.78125)" xlink:href="#DejaVuSerif-Bold-53"/>
     </g>
    </g>
   </g>
  </g>
 </g>
 <defs>
  <clipPath id="p9a1e719533">
   <rect height="543.6" width="558" x="98.48" y="7.2"/>
  </clipPath>
 </defs>
</svg>
