<?xml version="1.0" encoding="utf-8" standalone="no"?>
<!DOCTYPE svg PUBLIC "-//W3C//DTD SVG 1.1//EN"
  "http://www.w3.org/Graphics/SVG/1.1/DTD/svg11.dtd">
<!-- Created with matplotlib (http://matplotlib.org/) -->
<svg height="509.939375pt" version="1.1" viewBox="0 0 660.532031 509.939375" width="660.532031pt" xmlns="http://www.w3.org/2000/svg" xmlns:xlink="http://www.w3.org/1999/xlink">
 <defs>
  <style type="text/css">
*{stroke-linecap:butt;stroke-linejoin:round;}
  </style>
 </defs>
 <g id="figure_1">
  <g id="patch_1">
   <path d="M 0 509.939375 
L 660.532031 509.939375 
L 660.532031 0 
L 0 0 
z
" style="fill:#ffffff;"/>
  </g>
  <g id="axes_1">
   <g id="patch_2">
    <path d="M 68.541875 450.72 
L 626.541875 450.72 
L 626.541875 7.2 
L 68.541875 7.2 
z
" style="fill:#ffffff;"/>
   </g>
   <g id="patch_3">
    <path clip-path="url(#p303d8275c0)" d="M -489.458125 450.72 
L -483.878125 450.72 
L -483.878125 450.72 
L -489.458125 450.72 
z
" style="stroke:#000000;stroke-linejoin:miter;"/>
   </g>
   <g id="patch_4">
    <path clip-path="url(#p303d8275c0)" d="M -483.878125 450.72 
L -478.298125 450.72 
L -478.298125 450.72 
L -483.878125 450.72 
z
" style="stroke:#000000;stroke-linejoin:miter;"/>
   </g>
   <g id="patch_5">
    <path clip-path="url(#p303d8275c0)" d="M -478.298125 450.72 
L -472.718125 450.72 
L -472.718125 450.72 
L -478.298125 450.72 
z
" style="stroke:#000000;stroke-linejoin:miter;"/>
   </g>
   <g id="patch_6">
    <path clip-path="url(#p303d8275c0)" d="M -472.718125 450.72 
L -467.138125 450.72 
L -467.138125 450.72 
L -472.718125 450.72 
z
" style="stroke:#000000;stroke-linejoin:miter;"/>
   </g>
   <g id="patch_7">
    <path clip-path="url(#p303d8275c0)" d="M -467.138125 450.72 
L -461.558125 450.72 
L -461.558125 450.72 
L -467.138125 450.72 
z
" style="stroke:#000000;stroke-linejoin:miter;"/>
   </g>
   <g id="patch_8">
    <path clip-path="url(#p303d8275c0)" d="M -461.558125 450.72 
L -455.978125 450.72 
L -455.978125 450.72 
L -461.558125 450.72 
z
" style="stroke:#000000;stroke-linejoin:miter;"/>
   </g>
   <g id="patch_9">
    <path clip-path="url(#p303d8275c0)" d="M -455.978125 450.72 
L -450.398125 450.72 
L -450.398125 450.72 
L -455.978125 450.72 
z
" style="stroke:#000000;stroke-linejoin:miter;"/>
   </g>
   <g id="patch_10">
    <path clip-path="url(#p303d8275c0)" d="M -450.398125 450.72 
L -444.818125 450.72 
L -444.818125 450.72 
L -450.398125 450.72 
z
" style="stroke:#000000;stroke-linejoin:miter;"/>
   </g>
   <g id="patch_11">
    <path clip-path="url(#p303d8275c0)" d="M -444.818125 450.72 
L -439.238125 450.72 
L -439.238125 450.72 
L -444.818125 450.72 
z
" style="stroke:#000000;stroke-linejoin:miter;"/>
   </g>
   <g id="patch_12">
    <path clip-path="url(#p303d8275c0)" d="M -439.238125 450.72 
L -433.658125 450.72 
L -433.658125 450.72 
L -439.238125 450.72 
z
" style="stroke:#000000;stroke-linejoin:miter;"/>
   </g>
   <g id="patch_13">
    <path clip-path="url(#p303d8275c0)" d="M -433.658125 450.72 
L -428.078125 450.72 
L -428.078125 450.72 
L -433.658125 450.72 
z
" style="stroke:#000000;stroke-linejoin:miter;"/>
   </g>
   <g id="patch_14">
    <path clip-path="url(#p303d8275c0)" d="M -428.078125 450.72 
L -422.498125 450.72 
L -422.498125 450.72 
L -428.078125 450.72 
z
" style="stroke:#000000;stroke-linejoin:miter;"/>
   </g>
   <g id="patch_15">
    <path clip-path="url(#p303d8275c0)" d="M -422.498125 450.72 
L -416.918125 450.72 
L -416.918125 450.72 
L -422.498125 450.72 
z
" style="stroke:#000000;stroke-linejoin:miter;"/>
   </g>
   <g id="patch_16">
    <path clip-path="url(#p303d8275c0)" d="M -416.918125 450.72 
L -411.338125 450.72 
L -411.338125 450.72 
L -416.918125 450.72 
z
" style="stroke:#000000;stroke-linejoin:miter;"/>
   </g>
   <g id="patch_17">
    <path clip-path="url(#p303d8275c0)" d="M -411.338125 450.72 
L -405.758125 450.72 
L -405.758125 450.72 
L -411.338125 450.72 
z
" style="stroke:#000000;stroke-linejoin:miter;"/>
   </g>
   <g id="patch_18">
    <path clip-path="url(#p303d8275c0)" d="M -405.758125 450.72 
L -400.178125 450.72 
L -400.178125 450.72 
L -405.758125 450.72 
z
" style="stroke:#000000;stroke-linejoin:miter;"/>
   </g>
   <g id="patch_19">
    <path clip-path="url(#p303d8275c0)" d="M -400.178125 450.72 
L -394.598125 450.72 
L -394.598125 450.72 
L -400.178125 450.72 
z
" style="stroke:#000000;stroke-linejoin:miter;"/>
   </g>
   <g id="patch_20">
    <path clip-path="url(#p303d8275c0)" d="M -394.598125 450.72 
L -389.018125 450.72 
L -389.018125 450.72 
L -394.598125 450.72 
z
" style="stroke:#000000;stroke-linejoin:miter;"/>
   </g>
   <g id="patch_21">
    <path clip-path="url(#p303d8275c0)" d="M -389.018125 450.72 
L -383.438125 450.72 
L -383.438125 450.72 
L -389.018125 450.72 
z
" style="stroke:#000000;stroke-linejoin:miter;"/>
   </g>
   <g id="patch_22">
    <path clip-path="url(#p303d8275c0)" d="M -383.438125 450.72 
L -377.858125 450.72 
L -377.858125 450.72 
L -383.438125 450.72 
z
" style="stroke:#000000;stroke-linejoin:miter;"/>
   </g>
   <g id="patch_23">
    <path clip-path="url(#p303d8275c0)" d="M -377.858125 450.72 
L -372.278125 450.72 
L -372.278125 450.72 
L -377.858125 450.72 
z
" style="stroke:#000000;stroke-linejoin:miter;"/>
   </g>
   <g id="patch_24">
    <path clip-path="url(#p303d8275c0)" d="M -372.278125 450.72 
L -366.698125 450.72 
L -366.698125 450.72 
L -372.278125 450.72 
z
" style="stroke:#000000;stroke-linejoin:miter;"/>
   </g>
   <g id="patch_25">
    <path clip-path="url(#p303d8275c0)" d="M -366.698125 450.72 
L -361.118125 450.72 
L -361.118125 450.72 
L -366.698125 450.72 
z
" style="stroke:#000000;stroke-linejoin:miter;"/>
   </g>
   <g id="patch_26">
    <path clip-path="url(#p303d8275c0)" d="M -361.118125 450.72 
L -355.538125 450.72 
L -355.538125 450.72 
L -361.118125 450.72 
z
" style="stroke:#000000;stroke-linejoin:miter;"/>
   </g>
   <g id="patch_27">
    <path clip-path="url(#p303d8275c0)" d="M -355.538125 450.72 
L -349.958125 450.72 
L -349.958125 450.72 
L -355.538125 450.72 
z
" style="stroke:#000000;stroke-linejoin:miter;"/>
   </g>
   <g id="patch_28">
    <path clip-path="url(#p303d8275c0)" d="M -349.958125 450.72 
L -344.378125 450.72 
L -344.378125 450.72 
L -349.958125 450.72 
z
" style="stroke:#000000;stroke-linejoin:miter;"/>
   </g>
   <g id="patch_29">
    <path clip-path="url(#p303d8275c0)" d="M -344.378125 450.72 
L -338.798125 450.72 
L -338.798125 448.879958 
L -344.378125 448.879958 
z
" style="stroke:#000000;stroke-linejoin:miter;"/>
   </g>
   <g id="patch_30">
    <path clip-path="url(#p303d8275c0)" d="M -338.798125 450.72 
L -333.218125 450.72 
L -333.218125 450.72 
L -338.798125 450.72 
z
" style="stroke:#000000;stroke-linejoin:miter;"/>
   </g>
   <g id="patch_31">
    <path clip-path="url(#p303d8275c0)" d="M -333.218125 450.72 
L -327.638125 450.72 
L -327.638125 450.72 
L -333.218125 450.72 
z
" style="stroke:#000000;stroke-linejoin:miter;"/>
   </g>
   <g id="patch_32">
    <path clip-path="url(#p303d8275c0)" d="M -327.638125 450.72 
L -322.058125 450.72 
L -322.058125 448.879958 
L -327.638125 448.879958 
z
" style="stroke:#000000;stroke-linejoin:miter;"/>
   </g>
   <g id="patch_33">
    <path clip-path="url(#p303d8275c0)" d="M -322.058125 450.72 
L -316.478125 450.72 
L -316.478125 450.72 
L -322.058125 450.72 
z
" style="stroke:#000000;stroke-linejoin:miter;"/>
   </g>
   <g id="patch_34">
    <path clip-path="url(#p303d8275c0)" d="M -316.478125 450.72 
L -310.898125 450.72 
L -310.898125 450.72 
L -316.478125 450.72 
z
" style="stroke:#000000;stroke-linejoin:miter;"/>
   </g>
   <g id="patch_35">
    <path clip-path="url(#p303d8275c0)" d="M -310.898125 450.72 
L -305.318125 450.72 
L -305.318125 450.72 
L -310.898125 450.72 
z
" style="stroke:#000000;stroke-linejoin:miter;"/>
   </g>
   <g id="patch_36">
    <path clip-path="url(#p303d8275c0)" d="M -305.318125 450.72 
L -299.738125 450.72 
L -299.738125 450.72 
L -305.318125 450.72 
z
" style="stroke:#000000;stroke-linejoin:miter;"/>
   </g>
   <g id="patch_37">
    <path clip-path="url(#p303d8275c0)" d="M -299.738125 450.72 
L -294.158125 450.72 
L -294.158125 450.72 
L -299.738125 450.72 
z
" style="stroke:#000000;stroke-linejoin:miter;"/>
   </g>
   <g id="patch_38">
    <path clip-path="url(#p303d8275c0)" d="M -294.158125 450.72 
L -288.578125 450.72 
L -288.578125 450.72 
L -294.158125 450.72 
z
" style="stroke:#000000;stroke-linejoin:miter;"/>
   </g>
   <g id="patch_39">
    <path clip-path="url(#p303d8275c0)" d="M -288.578125 450.72 
L -282.998125 450.72 
L -282.998125 448.879958 
L -288.578125 448.879958 
z
" style="stroke:#000000;stroke-linejoin:miter;"/>
   </g>
   <g id="patch_40">
    <path clip-path="url(#p303d8275c0)" d="M -282.998125 450.72 
L -277.418125 450.72 
L -277.418125 450.72 
L -282.998125 450.72 
z
" style="stroke:#000000;stroke-linejoin:miter;"/>
   </g>
   <g id="patch_41">
    <path clip-path="url(#p303d8275c0)" d="M -277.418125 450.72 
L -271.838125 450.72 
L -271.838125 450.72 
L -277.418125 450.72 
z
" style="stroke:#000000;stroke-linejoin:miter;"/>
   </g>
   <g id="patch_42">
    <path clip-path="url(#p303d8275c0)" d="M -271.838125 450.72 
L -266.258125 450.72 
L -266.258125 450.72 
L -271.838125 450.72 
z
" style="stroke:#000000;stroke-linejoin:miter;"/>
   </g>
   <g id="patch_43">
    <path clip-path="url(#p303d8275c0)" d="M -266.258125 450.72 
L -260.678125 450.72 
L -260.678125 450.72 
L -266.258125 450.72 
z
" style="stroke:#000000;stroke-linejoin:miter;"/>
   </g>
   <g id="patch_44">
    <path clip-path="url(#p303d8275c0)" d="M -260.678125 450.72 
L -255.098125 450.72 
L -255.098125 450.72 
L -260.678125 450.72 
z
" style="stroke:#000000;stroke-linejoin:miter;"/>
   </g>
   <g id="patch_45">
    <path clip-path="url(#p303d8275c0)" d="M -255.098125 450.72 
L -249.518125 450.72 
L -249.518125 450.72 
L -255.098125 450.72 
z
" style="stroke:#000000;stroke-linejoin:miter;"/>
   </g>
   <g id="patch_46">
    <path clip-path="url(#p303d8275c0)" d="M -249.518125 450.72 
L -243.938125 450.72 
L -243.938125 448.879958 
L -249.518125 448.879958 
z
" style="stroke:#000000;stroke-linejoin:miter;"/>
   </g>
   <g id="patch_47">
    <path clip-path="url(#p303d8275c0)" d="M -243.938125 450.72 
L -238.358125 450.72 
L -238.358125 450.72 
L -243.938125 450.72 
z
" style="stroke:#000000;stroke-linejoin:miter;"/>
   </g>
   <g id="patch_48">
    <path clip-path="url(#p303d8275c0)" d="M -238.358125 450.72 
L -232.778125 450.72 
L -232.778125 450.72 
L -238.358125 450.72 
z
" style="stroke:#000000;stroke-linejoin:miter;"/>
   </g>
   <g id="patch_49">
    <path clip-path="url(#p303d8275c0)" d="M -232.778125 450.72 
L -227.198125 450.72 
L -227.198125 450.72 
L -232.778125 450.72 
z
" style="stroke:#000000;stroke-linejoin:miter;"/>
   </g>
   <g id="patch_50">
    <path clip-path="url(#p303d8275c0)" d="M -227.198125 450.72 
L -221.618125 450.72 
L -221.618125 450.72 
L -227.198125 450.72 
z
" style="stroke:#000000;stroke-linejoin:miter;"/>
   </g>
   <g id="patch_51">
    <path clip-path="url(#p303d8275c0)" d="M -221.618125 450.72 
L -216.038125 450.72 
L -216.038125 450.72 
L -221.618125 450.72 
z
" style="stroke:#000000;stroke-linejoin:miter;"/>
   </g>
   <g id="patch_52">
    <path clip-path="url(#p303d8275c0)" d="M -216.038125 450.72 
L -210.458125 450.72 
L -210.458125 448.879958 
L -216.038125 448.879958 
z
" style="stroke:#000000;stroke-linejoin:miter;"/>
   </g>
   <g id="patch_53">
    <path clip-path="url(#p303d8275c0)" d="M -210.458125 450.72 
L -204.878125 450.72 
L -204.878125 450.72 
L -210.458125 450.72 
z
" style="stroke:#000000;stroke-linejoin:miter;"/>
   </g>
   <g id="patch_54">
    <path clip-path="url(#p303d8275c0)" d="M -204.878125 450.72 
L -199.298125 450.72 
L -199.298125 450.72 
L -204.878125 450.72 
z
" style="stroke:#000000;stroke-linejoin:miter;"/>
   </g>
   <g id="patch_55">
    <path clip-path="url(#p303d8275c0)" d="M -199.298125 450.72 
L -193.718125 450.72 
L -193.718125 447.039916 
L -199.298125 447.039916 
z
" style="stroke:#000000;stroke-linejoin:miter;"/>
   </g>
   <g id="patch_56">
    <path clip-path="url(#p303d8275c0)" d="M -193.718125 450.72 
L -188.138125 450.72 
L -188.138125 450.72 
L -193.718125 450.72 
z
" style="stroke:#000000;stroke-linejoin:miter;"/>
   </g>
   <g id="patch_57">
    <path clip-path="url(#p303d8275c0)" d="M -188.138125 450.72 
L -182.558125 450.72 
L -182.558125 450.72 
L -188.138125 450.72 
z
" style="stroke:#000000;stroke-linejoin:miter;"/>
   </g>
   <g id="patch_58">
    <path clip-path="url(#p303d8275c0)" d="M -182.558125 450.72 
L -176.978125 450.72 
L -176.978125 448.879958 
L -182.558125 448.879958 
z
" style="stroke:#000000;stroke-linejoin:miter;"/>
   </g>
   <g id="patch_59">
    <path clip-path="url(#p303d8275c0)" d="M -176.978125 450.72 
L -171.398125 450.72 
L -171.398125 450.72 
L -176.978125 450.72 
z
" style="stroke:#000000;stroke-linejoin:miter;"/>
   </g>
   <g id="patch_60">
    <path clip-path="url(#p303d8275c0)" d="M -171.398125 450.72 
L -165.818125 450.72 
L -165.818125 450.72 
L -171.398125 450.72 
z
" style="stroke:#000000;stroke-linejoin:miter;"/>
   </g>
   <g id="patch_61">
    <path clip-path="url(#p303d8275c0)" d="M -165.818125 450.72 
L -160.238125 450.72 
L -160.238125 448.879958 
L -165.818125 448.879958 
z
" style="stroke:#000000;stroke-linejoin:miter;"/>
   </g>
   <g id="patch_62">
    <path clip-path="url(#p303d8275c0)" d="M -160.238125 450.72 
L -154.658125 450.72 
L -154.658125 450.72 
L -160.238125 450.72 
z
" style="stroke:#000000;stroke-linejoin:miter;"/>
   </g>
   <g id="patch_63">
    <path clip-path="url(#p303d8275c0)" d="M -154.658125 450.72 
L -149.078125 450.72 
L -149.078125 450.72 
L -154.658125 450.72 
z
" style="stroke:#000000;stroke-linejoin:miter;"/>
   </g>
   <g id="patch_64">
    <path clip-path="url(#p303d8275c0)" d="M -149.078125 450.72 
L -143.498125 450.72 
L -143.498125 450.72 
L -149.078125 450.72 
z
" style="stroke:#000000;stroke-linejoin:miter;"/>
   </g>
   <g id="patch_65">
    <path clip-path="url(#p303d8275c0)" d="M -143.498125 450.72 
L -137.918125 450.72 
L -137.918125 450.72 
L -143.498125 450.72 
z
" style="stroke:#000000;stroke-linejoin:miter;"/>
   </g>
   <g id="patch_66">
    <path clip-path="url(#p303d8275c0)" d="M -137.918125 450.72 
L -132.338125 450.72 
L -132.338125 450.72 
L -137.918125 450.72 
z
" style="stroke:#000000;stroke-linejoin:miter;"/>
   </g>
   <g id="patch_67">
    <path clip-path="url(#p303d8275c0)" d="M -132.338125 450.72 
L -126.758125 450.72 
L -126.758125 448.879958 
L -132.338125 448.879958 
z
" style="stroke:#000000;stroke-linejoin:miter;"/>
   </g>
   <g id="patch_68">
    <path clip-path="url(#p303d8275c0)" d="M -126.758125 450.72 
L -121.178125 450.72 
L -121.178125 450.72 
L -126.758125 450.72 
z
" style="stroke:#000000;stroke-linejoin:miter;"/>
   </g>
   <g id="patch_69">
    <path clip-path="url(#p303d8275c0)" d="M -121.178125 450.72 
L -115.598125 450.72 
L -115.598125 450.72 
L -121.178125 450.72 
z
" style="stroke:#000000;stroke-linejoin:miter;"/>
   </g>
   <g id="patch_70">
    <path clip-path="url(#p303d8275c0)" d="M -115.598125 450.72 
L -110.018125 450.72 
L -110.018125 448.879958 
L -115.598125 448.879958 
z
" style="stroke:#000000;stroke-linejoin:miter;"/>
   </g>
   <g id="patch_71">
    <path clip-path="url(#p303d8275c0)" d="M -110.018125 450.72 
L -104.438125 450.72 
L -104.438125 445.199875 
L -110.018125 445.199875 
z
" style="stroke:#000000;stroke-linejoin:miter;"/>
   </g>
   <g id="patch_72">
    <path clip-path="url(#p303d8275c0)" d="M -104.438125 450.72 
L -98.858125 450.72 
L -98.858125 448.879958 
L -104.438125 448.879958 
z
" style="stroke:#000000;stroke-linejoin:miter;"/>
   </g>
   <g id="patch_73">
    <path clip-path="url(#p303d8275c0)" d="M -98.858125 450.72 
L -93.278125 450.72 
L -93.278125 450.72 
L -98.858125 450.72 
z
" style="stroke:#000000;stroke-linejoin:miter;"/>
   </g>
   <g id="patch_74">
    <path clip-path="url(#p303d8275c0)" d="M -93.278125 450.72 
L -87.698125 450.72 
L -87.698125 447.039916 
L -93.278125 447.039916 
z
" style="stroke:#000000;stroke-linejoin:miter;"/>
   </g>
   <g id="patch_75">
    <path clip-path="url(#p303d8275c0)" d="M -87.698125 450.72 
L -82.118125 450.72 
L -82.118125 450.72 
L -87.698125 450.72 
z
" style="stroke:#000000;stroke-linejoin:miter;"/>
   </g>
   <g id="patch_76">
    <path clip-path="url(#p303d8275c0)" d="M -82.118125 450.72 
L -76.538125 450.72 
L -76.538125 448.879958 
L -82.118125 448.879958 
z
" style="stroke:#000000;stroke-linejoin:miter;"/>
   </g>
   <g id="patch_77">
    <path clip-path="url(#p303d8275c0)" d="M -76.538125 450.72 
L -70.958125 450.72 
L -70.958125 447.039916 
L -76.538125 447.039916 
z
" style="stroke:#000000;stroke-linejoin:miter;"/>
   </g>
   <g id="patch_78">
    <path clip-path="url(#p303d8275c0)" d="M -70.958125 450.72 
L -65.378125 450.72 
L -65.378125 448.879958 
L -70.958125 448.879958 
z
" style="stroke:#000000;stroke-linejoin:miter;"/>
   </g>
   <g id="patch_79">
    <path clip-path="url(#p303d8275c0)" d="M -65.378125 450.72 
L -59.798125 450.72 
L -59.798125 450.72 
L -65.378125 450.72 
z
" style="stroke:#000000;stroke-linejoin:miter;"/>
   </g>
   <g id="patch_80">
    <path clip-path="url(#p303d8275c0)" d="M -59.798125 450.72 
L -54.218125 450.72 
L -54.218125 447.039916 
L -59.798125 447.039916 
z
" style="stroke:#000000;stroke-linejoin:miter;"/>
   </g>
   <g id="patch_81">
    <path clip-path="url(#p303d8275c0)" d="M -54.218125 450.72 
L -48.638125 450.72 
L -48.638125 447.039916 
L -54.218125 447.039916 
z
" style="stroke:#000000;stroke-linejoin:miter;"/>
   </g>
   <g id="patch_82">
    <path clip-path="url(#p303d8275c0)" d="M -48.638125 450.72 
L -43.058125 450.72 
L -43.058125 448.879958 
L -48.638125 448.879958 
z
" style="stroke:#000000;stroke-linejoin:miter;"/>
   </g>
   <g id="patch_83">
    <path clip-path="url(#p303d8275c0)" d="M -43.058125 450.72 
L -37.478125 450.72 
L -37.478125 447.039916 
L -43.058125 447.039916 
z
" style="stroke:#000000;stroke-linejoin:miter;"/>
   </g>
   <g id="patch_84">
    <path clip-path="url(#p303d8275c0)" d="M -37.478125 450.72 
L -31.898125 450.72 
L -31.898125 448.879958 
L -37.478125 448.879958 
z
" style="stroke:#000000;stroke-linejoin:miter;"/>
   </g>
   <g id="patch_85">
    <path clip-path="url(#p303d8275c0)" d="M -31.898125 450.72 
L -26.318125 450.72 
L -26.318125 447.039916 
L -31.898125 447.039916 
z
" style="stroke:#000000;stroke-linejoin:miter;"/>
   </g>
   <g id="patch_86">
    <path clip-path="url(#p303d8275c0)" d="M -26.318125 450.72 
L -20.738125 450.72 
L -20.738125 450.72 
L -26.318125 450.72 
z
" style="stroke:#000000;stroke-linejoin:miter;"/>
   </g>
   <g id="patch_87">
    <path clip-path="url(#p303d8275c0)" d="M -20.738125 450.72 
L -15.158125 450.72 
L -15.158125 450.72 
L -20.738125 450.72 
z
" style="stroke:#000000;stroke-linejoin:miter;"/>
   </g>
   <g id="patch_88">
    <path clip-path="url(#p303d8275c0)" d="M -15.158125 450.72 
L -9.578125 450.72 
L -9.578125 445.199875 
L -15.158125 445.199875 
z
" style="stroke:#000000;stroke-linejoin:miter;"/>
   </g>
   <g id="patch_89">
    <path clip-path="url(#p303d8275c0)" d="M -9.578125 450.72 
L -3.998125 450.72 
L -3.998125 447.039916 
L -9.578125 447.039916 
z
" style="stroke:#000000;stroke-linejoin:miter;"/>
   </g>
   <g id="patch_90">
    <path clip-path="url(#p303d8275c0)" d="M -3.998125 450.72 
L 1.581875 450.72 
L 1.581875 443.359833 
L -3.998125 443.359833 
z
" style="stroke:#000000;stroke-linejoin:miter;"/>
   </g>
   <g id="patch_91">
    <path clip-path="url(#p303d8275c0)" d="M 1.581875 450.72 
L 7.161875 450.72 
L 7.161875 443.359833 
L 1.581875 443.359833 
z
" style="stroke:#000000;stroke-linejoin:miter;"/>
   </g>
   <g id="patch_92">
    <path clip-path="url(#p303d8275c0)" d="M 7.161875 450.72 
L 12.741875 450.72 
L 12.741875 448.879958 
L 7.161875 448.879958 
z
" style="stroke:#000000;stroke-linejoin:miter;"/>
   </g>
   <g id="patch_93">
    <path clip-path="url(#p303d8275c0)" d="M 12.741875 450.72 
L 18.321875 450.72 
L 18.321875 447.039916 
L 12.741875 447.039916 
z
" style="stroke:#000000;stroke-linejoin:miter;"/>
   </g>
   <g id="patch_94">
    <path clip-path="url(#p303d8275c0)" d="M 18.321875 450.72 
L 23.901875 450.72 
L 23.901875 445.199875 
L 18.321875 445.199875 
z
" style="stroke:#000000;stroke-linejoin:miter;"/>
   </g>
   <g id="patch_95">
    <path clip-path="url(#p303d8275c0)" d="M 23.901875 450.72 
L 29.481875 450.72 
L 29.481875 448.879958 
L 23.901875 448.879958 
z
" style="stroke:#000000;stroke-linejoin:miter;"/>
   </g>
   <g id="patch_96">
    <path clip-path="url(#p303d8275c0)" d="M 29.481875 450.72 
L 35.061875 450.72 
L 35.061875 450.72 
L 29.481875 450.72 
z
" style="stroke:#000000;stroke-linejoin:miter;"/>
   </g>
   <g id="patch_97">
    <path clip-path="url(#p303d8275c0)" d="M 35.061875 450.72 
L 40.641875 450.72 
L 40.641875 443.359833 
L 35.061875 443.359833 
z
" style="stroke:#000000;stroke-linejoin:miter;"/>
   </g>
   <g id="patch_98">
    <path clip-path="url(#p303d8275c0)" d="M 40.641875 450.72 
L 46.221875 450.72 
L 46.221875 441.519791 
L 40.641875 441.519791 
z
" style="stroke:#000000;stroke-linejoin:miter;"/>
   </g>
   <g id="patch_99">
    <path clip-path="url(#p303d8275c0)" d="M 46.221875 450.72 
L 51.801875 450.72 
L 51.801875 447.039916 
L 46.221875 447.039916 
z
" style="stroke:#000000;stroke-linejoin:miter;"/>
   </g>
   <g id="patch_100">
    <path clip-path="url(#p303d8275c0)" d="M 51.801875 450.72 
L 57.381875 450.72 
L 57.381875 439.679749 
L 51.801875 439.679749 
z
" style="stroke:#000000;stroke-linejoin:miter;"/>
   </g>
   <g id="patch_101">
    <path clip-path="url(#p303d8275c0)" d="M 57.381875 450.72 
L 62.961875 450.72 
L 62.961875 445.199875 
L 57.381875 445.199875 
z
" style="stroke:#000000;stroke-linejoin:miter;"/>
   </g>
   <g id="patch_102">
    <path clip-path="url(#p303d8275c0)" d="M 62.961875 450.72 
L 68.541875 450.72 
L 68.541875 439.679749 
L 62.961875 439.679749 
z
" style="stroke:#000000;stroke-linejoin:miter;"/>
   </g>
   <g id="patch_103">
    <path clip-path="url(#p303d8275c0)" d="M 68.541875 450.72 
L 74.121875 450.72 
L 74.121875 441.519791 
L 68.541875 441.519791 
z
" style="stroke:#000000;stroke-linejoin:miter;"/>
   </g>
   <g id="patch_104">
    <path clip-path="url(#p303d8275c0)" d="M 74.121875 450.72 
L 79.701875 450.72 
L 79.701875 445.199875 
L 74.121875 445.199875 
z
" style="stroke:#000000;stroke-linejoin:miter;"/>
   </g>
   <g id="patch_105">
    <path clip-path="url(#p303d8275c0)" d="M 79.701875 450.72 
L 85.281875 450.72 
L 85.281875 445.199875 
L 79.701875 445.199875 
z
" style="stroke:#000000;stroke-linejoin:miter;"/>
   </g>
   <g id="patch_106">
    <path clip-path="url(#p303d8275c0)" d="M 85.281875 450.72 
L 90.861875 450.72 
L 90.861875 441.519791 
L 85.281875 441.519791 
z
" style="stroke:#000000;stroke-linejoin:miter;"/>
   </g>
   <g id="patch_107">
    <path clip-path="url(#p303d8275c0)" d="M 90.861875 450.72 
L 96.441875 450.72 
L 96.441875 437.839707 
L 90.861875 437.839707 
z
" style="stroke:#000000;stroke-linejoin:miter;"/>
   </g>
   <g id="patch_108">
    <path clip-path="url(#p303d8275c0)" d="M 96.441875 450.72 
L 102.021875 450.72 
L 102.021875 439.679749 
L 96.441875 439.679749 
z
" style="stroke:#000000;stroke-linejoin:miter;"/>
   </g>
   <g id="patch_109">
    <path clip-path="url(#p303d8275c0)" d="M 102.021875 450.72 
L 107.601875 450.72 
L 107.601875 437.839707 
L 102.021875 437.839707 
z
" style="stroke:#000000;stroke-linejoin:miter;"/>
   </g>
   <g id="patch_110">
    <path clip-path="url(#p303d8275c0)" d="M 107.601875 450.72 
L 113.181875 450.72 
L 113.181875 432.319582 
L 107.601875 432.319582 
z
" style="stroke:#000000;stroke-linejoin:miter;"/>
   </g>
   <g id="patch_111">
    <path clip-path="url(#p303d8275c0)" d="M 113.181875 450.72 
L 118.761875 450.72 
L 118.761875 437.839707 
L 113.181875 437.839707 
z
" style="stroke:#000000;stroke-linejoin:miter;"/>
   </g>
   <g id="patch_112">
    <path clip-path="url(#p303d8275c0)" d="M 118.761875 450.72 
L 124.341875 450.72 
L 124.341875 435.999665 
L 118.761875 435.999665 
z
" style="stroke:#000000;stroke-linejoin:miter;"/>
   </g>
   <g id="patch_113">
    <path clip-path="url(#p303d8275c0)" d="M 124.341875 450.72 
L 129.921875 450.72 
L 129.921875 443.359833 
L 124.341875 443.359833 
z
" style="stroke:#000000;stroke-linejoin:miter;"/>
   </g>
   <g id="patch_114">
    <path clip-path="url(#p303d8275c0)" d="M 129.921875 450.72 
L 135.501875 450.72 
L 135.501875 437.839707 
L 129.921875 437.839707 
z
" style="stroke:#000000;stroke-linejoin:miter;"/>
   </g>
   <g id="patch_115">
    <path clip-path="url(#p303d8275c0)" d="M 135.501875 450.72 
L 141.081875 450.72 
L 141.081875 439.679749 
L 135.501875 439.679749 
z
" style="stroke:#000000;stroke-linejoin:miter;"/>
   </g>
   <g id="patch_116">
    <path clip-path="url(#p303d8275c0)" d="M 141.081875 450.72 
L 146.661875 450.72 
L 146.661875 439.679749 
L 141.081875 439.679749 
z
" style="stroke:#000000;stroke-linejoin:miter;"/>
   </g>
   <g id="patch_117">
    <path clip-path="url(#p303d8275c0)" d="M 146.661875 450.72 
L 152.241875 450.72 
L 152.241875 434.159624 
L 146.661875 434.159624 
z
" style="stroke:#000000;stroke-linejoin:miter;"/>
   </g>
   <g id="patch_118">
    <path clip-path="url(#p303d8275c0)" d="M 152.241875 450.72 
L 157.821875 450.72 
L 157.821875 424.959415 
L 152.241875 424.959415 
z
" style="stroke:#000000;stroke-linejoin:miter;"/>
   </g>
   <g id="patch_119">
    <path clip-path="url(#p303d8275c0)" d="M 157.821875 450.72 
L 163.401875 450.72 
L 163.401875 432.319582 
L 157.821875 432.319582 
z
" style="stroke:#000000;stroke-linejoin:miter;"/>
   </g>
   <g id="patch_120">
    <path clip-path="url(#p303d8275c0)" d="M 163.401875 450.72 
L 168.981875 450.72 
L 168.981875 430.47954 
L 163.401875 430.47954 
z
" style="stroke:#000000;stroke-linejoin:miter;"/>
   </g>
   <g id="patch_121">
    <path clip-path="url(#p303d8275c0)" d="M 168.981875 450.72 
L 174.561875 450.72 
L 174.561875 426.799456 
L 168.981875 426.799456 
z
" style="stroke:#000000;stroke-linejoin:miter;"/>
   </g>
   <g id="patch_122">
    <path clip-path="url(#p303d8275c0)" d="M 174.561875 450.72 
L 180.141875 450.72 
L 180.141875 426.799456 
L 174.561875 426.799456 
z
" style="stroke:#000000;stroke-linejoin:miter;"/>
   </g>
   <g id="patch_123">
    <path clip-path="url(#p303d8275c0)" d="M 180.141875 450.72 
L 185.721875 450.72 
L 185.721875 437.839707 
L 180.141875 437.839707 
z
" style="stroke:#000000;stroke-linejoin:miter;"/>
   </g>
   <g id="patch_124">
    <path clip-path="url(#p303d8275c0)" d="M 185.721875 450.72 
L 191.301875 450.72 
L 191.301875 417.599247 
L 185.721875 417.599247 
z
" style="stroke:#000000;stroke-linejoin:miter;"/>
   </g>
   <g id="patch_125">
    <path clip-path="url(#p303d8275c0)" d="M 191.301875 450.72 
L 196.881875 450.72 
L 196.881875 432.319582 
L 191.301875 432.319582 
z
" style="stroke:#000000;stroke-linejoin:miter;"/>
   </g>
   <g id="patch_126">
    <path clip-path="url(#p303d8275c0)" d="M 196.881875 450.72 
L 202.461875 450.72 
L 202.461875 423.119373 
L 196.881875 423.119373 
z
" style="stroke:#000000;stroke-linejoin:miter;"/>
   </g>
   <g id="patch_127">
    <path clip-path="url(#p303d8275c0)" d="M 202.461875 450.72 
L 208.041875 450.72 
L 208.041875 435.999665 
L 202.461875 435.999665 
z
" style="stroke:#000000;stroke-linejoin:miter;"/>
   </g>
   <g id="patch_128">
    <path clip-path="url(#p303d8275c0)" d="M 208.041875 450.72 
L 213.621875 450.72 
L 213.621875 432.319582 
L 208.041875 432.319582 
z
" style="stroke:#000000;stroke-linejoin:miter;"/>
   </g>
   <g id="patch_129">
    <path clip-path="url(#p303d8275c0)" d="M 213.621875 450.72 
L 219.201875 450.72 
L 219.201875 428.639498 
L 213.621875 428.639498 
z
" style="stroke:#000000;stroke-linejoin:miter;"/>
   </g>
   <g id="patch_130">
    <path clip-path="url(#p303d8275c0)" d="M 219.201875 450.72 
L 224.781875 450.72 
L 224.781875 423.119373 
L 219.201875 423.119373 
z
" style="stroke:#000000;stroke-linejoin:miter;"/>
   </g>
   <g id="patch_131">
    <path clip-path="url(#p303d8275c0)" d="M 224.781875 450.72 
L 230.361875 450.72 
L 230.361875 432.319582 
L 224.781875 432.319582 
z
" style="stroke:#000000;stroke-linejoin:miter;"/>
   </g>
   <g id="patch_132">
    <path clip-path="url(#p303d8275c0)" d="M 230.361875 450.72 
L 235.941875 450.72 
L 235.941875 415.759205 
L 230.361875 415.759205 
z
" style="stroke:#000000;stroke-linejoin:miter;"/>
   </g>
   <g id="patch_133">
    <path clip-path="url(#p303d8275c0)" d="M 235.941875 450.72 
L 241.521875 450.72 
L 241.521875 426.799456 
L 235.941875 426.799456 
z
" style="stroke:#000000;stroke-linejoin:miter;"/>
   </g>
   <g id="patch_134">
    <path clip-path="url(#p303d8275c0)" d="M 241.521875 450.72 
L 247.101875 450.72 
L 247.101875 412.079122 
L 241.521875 412.079122 
z
" style="stroke:#000000;stroke-linejoin:miter;"/>
   </g>
   <g id="patch_135">
    <path clip-path="url(#p303d8275c0)" d="M 247.101875 450.72 
L 252.681875 450.72 
L 252.681875 406.558996 
L 247.101875 406.558996 
z
" style="stroke:#000000;stroke-linejoin:miter;"/>
   </g>
   <g id="patch_136">
    <path clip-path="url(#p303d8275c0)" d="M 252.681875 450.72 
L 258.261875 450.72 
L 258.261875 413.919164 
L 252.681875 413.919164 
z
" style="stroke:#000000;stroke-linejoin:miter;"/>
   </g>
   <g id="patch_137">
    <path clip-path="url(#p303d8275c0)" d="M 258.261875 450.72 
L 263.841875 450.72 
L 263.841875 419.439289 
L 258.261875 419.439289 
z
" style="stroke:#000000;stroke-linejoin:miter;"/>
   </g>
   <g id="patch_138">
    <path clip-path="url(#p303d8275c0)" d="M 263.841875 450.72 
L 269.421875 450.72 
L 269.421875 423.119373 
L 263.841875 423.119373 
z
" style="stroke:#000000;stroke-linejoin:miter;"/>
   </g>
   <g id="patch_139">
    <path clip-path="url(#p303d8275c0)" d="M 269.421875 450.72 
L 275.001875 450.72 
L 275.001875 404.718955 
L 269.421875 404.718955 
z
" style="stroke:#000000;stroke-linejoin:miter;"/>
   </g>
   <g id="patch_140">
    <path clip-path="url(#p303d8275c0)" d="M 275.001875 450.72 
L 280.581875 450.72 
L 280.581875 393.678704 
L 275.001875 393.678704 
z
" style="stroke:#000000;stroke-linejoin:miter;"/>
   </g>
   <g id="patch_141">
    <path clip-path="url(#p303d8275c0)" d="M 280.581875 450.72 
L 286.161875 450.72 
L 286.161875 419.439289 
L 280.581875 419.439289 
z
" style="stroke:#000000;stroke-linejoin:miter;"/>
   </g>
   <g id="patch_142">
    <path clip-path="url(#p303d8275c0)" d="M 286.161875 450.72 
L 291.741875 450.72 
L 291.741875 389.99862 
L 286.161875 389.99862 
z
" style="stroke:#000000;stroke-linejoin:miter;"/>
   </g>
   <g id="patch_143">
    <path clip-path="url(#p303d8275c0)" d="M 291.741875 450.72 
L 297.321875 450.72 
L 297.321875 404.718955 
L 291.741875 404.718955 
z
" style="stroke:#000000;stroke-linejoin:miter;"/>
   </g>
   <g id="patch_144">
    <path clip-path="url(#p303d8275c0)" d="M 297.321875 450.72 
L 302.901875 450.72 
L 302.901875 406.558996 
L 297.321875 406.558996 
z
" style="stroke:#000000;stroke-linejoin:miter;"/>
   </g>
   <g id="patch_145">
    <path clip-path="url(#p303d8275c0)" d="M 302.901875 450.72 
L 308.481875 450.72 
L 308.481875 401.038871 
L 302.901875 401.038871 
z
" style="stroke:#000000;stroke-linejoin:miter;"/>
   </g>
   <g id="patch_146">
    <path clip-path="url(#p303d8275c0)" d="M 308.481875 450.72 
L 314.061875 450.72 
L 314.061875 399.198829 
L 308.481875 399.198829 
z
" style="stroke:#000000;stroke-linejoin:miter;"/>
   </g>
   <g id="patch_147">
    <path clip-path="url(#p303d8275c0)" d="M 314.061875 450.72 
L 319.641875 450.72 
L 319.641875 388.158578 
L 314.061875 388.158578 
z
" style="stroke:#000000;stroke-linejoin:miter;"/>
   </g>
   <g id="patch_148">
    <path clip-path="url(#p303d8275c0)" d="M 319.641875 450.72 
L 325.221875 450.72 
L 325.221875 380.798411 
L 319.641875 380.798411 
z
" style="stroke:#000000;stroke-linejoin:miter;"/>
   </g>
   <g id="patch_149">
    <path clip-path="url(#p303d8275c0)" d="M 325.221875 450.72 
L 330.801875 450.72 
L 330.801875 369.75816 
L 325.221875 369.75816 
z
" style="stroke:#000000;stroke-linejoin:miter;"/>
   </g>
   <g id="patch_150">
    <path clip-path="url(#p303d8275c0)" d="M 330.801875 450.72 
L 336.381875 450.72 
L 336.381875 375.278285 
L 330.801875 375.278285 
z
" style="stroke:#000000;stroke-linejoin:miter;"/>
   </g>
   <g id="patch_151">
    <path clip-path="url(#p303d8275c0)" d="M 336.381875 450.72 
L 341.961875 450.72 
L 341.961875 362.397993 
L 336.381875 362.397993 
z
" style="stroke:#000000;stroke-linejoin:miter;"/>
   </g>
   <g id="patch_152">
    <path clip-path="url(#p303d8275c0)" d="M 341.961875 450.72 
L 347.541875 450.72 
L 347.541875 367.918118 
L 341.961875 367.918118 
z
" style="stroke:#000000;stroke-linejoin:miter;"/>
   </g>
   <g id="patch_153">
    <path clip-path="url(#p303d8275c0)" d="M 347.541875 450.72 
L 353.121875 450.72 
L 353.121875 366.078076 
L 347.541875 366.078076 
z
" style="stroke:#000000;stroke-linejoin:miter;"/>
   </g>
   <g id="patch_154">
    <path clip-path="url(#p303d8275c0)" d="M 353.121875 450.72 
L 358.701875 450.72 
L 358.701875 360.557951 
L 353.121875 360.557951 
z
" style="stroke:#000000;stroke-linejoin:miter;"/>
   </g>
   <g id="patch_155">
    <path clip-path="url(#p303d8275c0)" d="M 358.701875 450.72 
L 364.281875 450.72 
L 364.281875 331.117282 
L 358.701875 331.117282 
z
" style="stroke:#000000;stroke-linejoin:miter;"/>
   </g>
   <g id="patch_156">
    <path clip-path="url(#p303d8275c0)" d="M 364.281875 450.72 
L 369.861875 450.72 
L 369.861875 325.597156 
L 364.281875 325.597156 
z
" style="stroke:#000000;stroke-linejoin:miter;"/>
   </g>
   <g id="patch_157">
    <path clip-path="url(#p303d8275c0)" d="M 369.861875 450.72 
L 375.441875 450.72 
L 375.441875 355.037825 
L 369.861875 355.037825 
z
" style="stroke:#000000;stroke-linejoin:miter;"/>
   </g>
   <g id="patch_158">
    <path clip-path="url(#p303d8275c0)" d="M 375.441875 450.72 
L 381.021875 450.72 
L 381.021875 323.757114 
L 375.441875 323.757114 
z
" style="stroke:#000000;stroke-linejoin:miter;"/>
   </g>
   <g id="patch_159">
    <path clip-path="url(#p303d8275c0)" d="M 381.021875 450.72 
L 386.601875 450.72 
L 386.601875 321.917073 
L 381.021875 321.917073 
z
" style="stroke:#000000;stroke-linejoin:miter;"/>
   </g>
   <g id="patch_160">
    <path clip-path="url(#p303d8275c0)" d="M 386.601875 450.72 
L 392.181875 450.72 
L 392.181875 270.395902 
L 386.601875 270.395902 
z
" style="stroke:#000000;stroke-linejoin:miter;"/>
   </g>
   <g id="patch_161">
    <path clip-path="url(#p303d8275c0)" d="M 392.181875 450.72 
L 397.761875 450.72 
L 397.761875 305.356696 
L 392.181875 305.356696 
z
" style="stroke:#000000;stroke-linejoin:miter;"/>
   </g>
   <g id="patch_162">
    <path clip-path="url(#p303d8275c0)" d="M 397.761875 450.72 
L 403.341875 450.72 
L 403.341875 294.316445 
L 397.761875 294.316445 
z
" style="stroke:#000000;stroke-linejoin:miter;"/>
   </g>
   <g id="patch_163">
    <path clip-path="url(#p303d8275c0)" d="M 403.341875 450.72 
L 408.921875 450.72 
L 408.921875 268.55586 
L 403.341875 268.55586 
z
" style="stroke:#000000;stroke-linejoin:miter;"/>
   </g>
   <g id="patch_164">
    <path clip-path="url(#p303d8275c0)" d="M 408.921875 450.72 
L 414.501875 450.72 
L 414.501875 277.756069 
L 408.921875 277.756069 
z
" style="stroke:#000000;stroke-linejoin:miter;"/>
   </g>
   <g id="patch_165">
    <path clip-path="url(#p303d8275c0)" d="M 414.501875 450.72 
L 420.081875 450.72 
L 420.081875 222.554814 
L 414.501875 222.554814 
z
" style="stroke:#000000;stroke-linejoin:miter;"/>
   </g>
   <g id="patch_166">
    <path clip-path="url(#p303d8275c0)" d="M 420.081875 450.72 
L 425.661875 450.72 
L 425.661875 205.994438 
L 420.081875 205.994438 
z
" style="stroke:#000000;stroke-linejoin:miter;"/>
   </g>
   <g id="patch_167">
    <path clip-path="url(#p303d8275c0)" d="M 425.661875 450.72 
L 431.241875 450.72 
L 431.241875 235.435107 
L 425.661875 235.435107 
z
" style="stroke:#000000;stroke-linejoin:miter;"/>
   </g>
   <g id="patch_168">
    <path clip-path="url(#p303d8275c0)" d="M 431.241875 450.72 
L 436.821875 450.72 
L 436.821875 176.553769 
L 431.241875 176.553769 
z
" style="stroke:#000000;stroke-linejoin:miter;"/>
   </g>
   <g id="patch_169">
    <path clip-path="url(#p303d8275c0)" d="M 436.821875 450.72 
L 442.401875 450.72 
L 442.401875 209.674522 
L 436.821875 209.674522 
z
" style="stroke:#000000;stroke-linejoin:miter;"/>
   </g>
   <g id="patch_170">
    <path clip-path="url(#p303d8275c0)" d="M 442.401875 450.72 
L 447.981875 450.72 
L 447.981875 152.633225 
L 442.401875 152.633225 
z
" style="stroke:#000000;stroke-linejoin:miter;"/>
   </g>
   <g id="patch_171">
    <path clip-path="url(#p303d8275c0)" d="M 447.981875 450.72 
L 453.561875 450.72 
L 453.561875 159.993393 
L 447.981875 159.993393 
z
" style="stroke:#000000;stroke-linejoin:miter;"/>
   </g>
   <g id="patch_172">
    <path clip-path="url(#p303d8275c0)" d="M 453.561875 450.72 
L 459.141875 450.72 
L 459.141875 187.59402 
L 453.561875 187.59402 
z
" style="stroke:#000000;stroke-linejoin:miter;"/>
   </g>
   <g id="patch_173">
    <path clip-path="url(#p303d8275c0)" d="M 459.141875 450.72 
L 464.721875 450.72 
L 464.721875 154.473267 
L 459.141875 154.473267 
z
" style="stroke:#000000;stroke-linejoin:miter;"/>
   </g>
   <g id="patch_174">
    <path clip-path="url(#p303d8275c0)" d="M 464.721875 450.72 
L 470.301875 450.72 
L 470.301875 123.192556 
L 464.721875 123.192556 
z
" style="stroke:#000000;stroke-linejoin:miter;"/>
   </g>
   <g id="patch_175">
    <path clip-path="url(#p303d8275c0)" d="M 470.301875 450.72 
L 475.881875 450.72 
L 475.881875 134.232807 
L 470.301875 134.232807 
z
" style="stroke:#000000;stroke-linejoin:miter;"/>
   </g>
   <g id="patch_176">
    <path clip-path="url(#p303d8275c0)" d="M 475.881875 450.72 
L 481.461875 450.72 
L 481.461875 119.512473 
L 475.881875 119.512473 
z
" style="stroke:#000000;stroke-linejoin:miter;"/>
   </g>
   <g id="patch_177">
    <path clip-path="url(#p303d8275c0)" d="M 481.461875 450.72 
L 487.041875 450.72 
L 487.041875 117.672431 
L 481.461875 117.672431 
z
" style="stroke:#000000;stroke-linejoin:miter;"/>
   </g>
   <g id="patch_178">
    <path clip-path="url(#p303d8275c0)" d="M 487.041875 450.72 
L 492.621875 450.72 
L 492.621875 77.191511 
L 487.041875 77.191511 
z
" style="stroke:#000000;stroke-linejoin:miter;"/>
   </g>
   <g id="patch_179">
    <path clip-path="url(#p303d8275c0)" d="M 492.621875 450.72 
L 498.201875 450.72 
L 498.201875 121.352514 
L 492.621875 121.352514 
z
" style="stroke:#000000;stroke-linejoin:miter;"/>
   </g>
   <g id="patch_180">
    <path clip-path="url(#p303d8275c0)" d="M 498.201875 450.72 
L 503.781875 450.72 
L 503.781875 73.511427 
L 498.201875 73.511427 
z
" style="stroke:#000000;stroke-linejoin:miter;"/>
   </g>
   <g id="patch_181">
    <path clip-path="url(#p303d8275c0)" d="M 503.781875 450.72 
L 509.361875 450.72 
L 509.361875 106.63218 
L 503.781875 106.63218 
z
" style="stroke:#000000;stroke-linejoin:miter;"/>
   </g>
   <g id="patch_182">
    <path clip-path="url(#p303d8275c0)" d="M 509.361875 450.72 
L 514.941875 450.72 
L 514.941875 112.152305 
L 509.361875 112.152305 
z
" style="stroke:#000000;stroke-linejoin:miter;"/>
   </g>
   <g id="patch_183">
    <path clip-path="url(#p303d8275c0)" d="M 514.941875 450.72 
L 520.521875 450.72 
L 520.521875 93.751887 
L 514.941875 93.751887 
z
" style="stroke:#000000;stroke-linejoin:miter;"/>
   </g>
   <g id="patch_184">
    <path clip-path="url(#p303d8275c0)" d="M 520.521875 450.72 
L 526.101875 450.72 
L 526.101875 185.753978 
L 520.521875 185.753978 
z
" style="stroke:#000000;stroke-linejoin:miter;"/>
   </g>
   <g id="patch_185">
    <path clip-path="url(#p303d8275c0)" d="M 526.101875 450.72 
L 531.681875 450.72 
L 531.681875 121.352514 
L 526.101875 121.352514 
z
" style="stroke:#000000;stroke-linejoin:miter;"/>
   </g>
   <g id="patch_186">
    <path clip-path="url(#p303d8275c0)" d="M 531.681875 450.72 
L 537.261875 450.72 
L 537.261875 145.273058 
L 531.681875 145.273058 
z
" style="stroke:#000000;stroke-linejoin:miter;"/>
   </g>
   <g id="patch_187">
    <path clip-path="url(#p303d8275c0)" d="M 537.261875 450.72 
L 542.841875 450.72 
L 542.841875 228.07494 
L 537.261875 228.07494 
z
" style="stroke:#000000;stroke-linejoin:miter;"/>
   </g>
   <g id="patch_188">
    <path clip-path="url(#p303d8275c0)" d="M 542.841875 450.72 
L 548.421875 450.72 
L 548.421875 244.635316 
L 542.841875 244.635316 
z
" style="stroke:#000000;stroke-linejoin:miter;"/>
   </g>
   <g id="patch_189">
    <path clip-path="url(#p303d8275c0)" d="M 548.421875 450.72 
L 554.001875 450.72 
L 554.001875 228.07494 
L 548.421875 228.07494 
z
" style="stroke:#000000;stroke-linejoin:miter;"/>
   </g>
   <g id="patch_190">
    <path clip-path="url(#p303d8275c0)" d="M 554.001875 450.72 
L 559.581875 450.72 
L 559.581875 242.795274 
L 554.001875 242.795274 
z
" style="stroke:#000000;stroke-linejoin:miter;"/>
   </g>
   <g id="patch_191">
    <path clip-path="url(#p303d8275c0)" d="M 559.581875 450.72 
L 565.161875 450.72 
L 565.161875 242.795274 
L 559.581875 242.795274 
z
" style="stroke:#000000;stroke-linejoin:miter;"/>
   </g>
   <g id="patch_192">
    <path clip-path="url(#p303d8275c0)" d="M 565.161875 450.72 
L 570.741875 450.72 
L 570.741875 211.514564 
L 565.161875 211.514564 
z
" style="stroke:#000000;stroke-linejoin:miter;"/>
   </g>
   <g id="patch_193">
    <path clip-path="url(#p303d8275c0)" d="M 570.741875 450.72 
L 576.321875 450.72 
L 576.321875 242.795274 
L 570.741875 242.795274 
z
" style="stroke:#000000;stroke-linejoin:miter;"/>
   </g>
   <g id="patch_194">
    <path clip-path="url(#p303d8275c0)" d="M 576.321875 450.72 
L 581.901875 450.72 
L 581.901875 185.753978 
L 576.321875 185.753978 
z
" style="stroke:#000000;stroke-linejoin:miter;"/>
   </g>
   <g id="patch_195">
    <path clip-path="url(#p303d8275c0)" d="M 581.901875 450.72 
L 587.481875 450.72 
L 587.481875 167.35356 
L 581.901875 167.35356 
z
" style="stroke:#000000;stroke-linejoin:miter;"/>
   </g>
   <g id="patch_196">
    <path clip-path="url(#p303d8275c0)" d="M 587.481875 450.72 
L 593.061875 450.72 
L 593.061875 119.512473 
L 587.481875 119.512473 
z
" style="stroke:#000000;stroke-linejoin:miter;"/>
   </g>
   <g id="patch_197">
    <path clip-path="url(#p303d8275c0)" d="M 593.061875 450.72 
L 598.641875 450.72 
L 598.641875 159.993393 
L 593.061875 159.993393 
z
" style="stroke:#000000;stroke-linejoin:miter;"/>
   </g>
   <g id="patch_198">
    <path clip-path="url(#p303d8275c0)" d="M 598.641875 450.72 
L 604.221875 450.72 
L 604.221875 141.592974 
L 598.641875 141.592974 
z
" style="stroke:#000000;stroke-linejoin:miter;"/>
   </g>
   <g id="patch_199">
    <path clip-path="url(#p303d8275c0)" d="M 604.221875 450.72 
L 609.801875 450.72 
L 609.801875 102.952096 
L 604.221875 102.952096 
z
" style="stroke:#000000;stroke-linejoin:miter;"/>
   </g>
   <g id="patch_200">
    <path clip-path="url(#p303d8275c0)" d="M 609.801875 450.72 
L 615.381875 450.72 
L 615.381875 108.472222 
L 609.801875 108.472222 
z
" style="stroke:#000000;stroke-linejoin:miter;"/>
   </g>
   <g id="patch_201">
    <path clip-path="url(#p303d8275c0)" d="M 615.381875 450.72 
L 620.961875 450.72 
L 620.961875 44.070758 
L 615.381875 44.070758 
z
" style="stroke:#000000;stroke-linejoin:miter;"/>
   </g>
   <g id="matplotlib.axis_1">
    <g id="xtick_1">
     <g id="line2d_1">
      <defs>
       <path d="M 0 0 
L 0 -6 
" id="meaac9f3a4f" style="stroke:#333333;stroke-width:0.8;"/>
      </defs>
      <g>
       <use style="fill:#333333;stroke:#333333;stroke-width:0.8;" x="68.541875" xlink:href="#meaac9f3a4f" y="450.72"/>
      </g>
     </g>
     <g id="text_1">
      <!-- 0.95 -->
      <defs>
       <path d="M 34.8125 4.296875 
Q 40.671875 4.296875 42.84375 9.609375 
Q 45.015625 14.9375 45.015625 36.375 
Q 45.015625 57.671875 42.84375 63.078125 
Q 40.671875 68.5 34.8125 68.5 
Q 28.953125 68.5 26.78125 63.171875 
Q 24.609375 57.859375 24.609375 36.375 
Q 24.609375 14.9375 26.78125 9.609375 
Q 28.953125 4.296875 34.8125 4.296875 
z
M 34.8125 -1.421875 
Q 20.21875 -1.421875 12.453125 8.3125 
Q 4.6875 18.0625 4.6875 36.375 
Q 4.6875 54.6875 12.453125 64.453125 
Q 20.21875 74.21875 34.8125 74.21875 
Q 49.359375 74.21875 57.125 64.453125 
Q 64.890625 54.6875 64.890625 36.375 
Q 64.890625 18.0625 57.125 8.3125 
Q 49.359375 -1.421875 34.8125 -1.421875 
z
" id="DejaVuSerif-Bold-30"/>
       <path d="M 8.109375 7.90625 
Q 8.109375 11.71875 10.84375 14.453125 
Q 13.578125 17.1875 17.390625 17.1875 
Q 21.234375 17.1875 23.96875 14.453125 
Q 26.703125 11.71875 26.703125 7.90625 
Q 26.703125 4.046875 23.96875 1.3125 
Q 21.234375 -1.421875 17.390625 -1.421875 
Q 13.578125 -1.421875 10.84375 1.3125 
Q 8.109375 4.046875 8.109375 7.90625 
z
" id="DejaVuSerif-Bold-2e"/>
       <path d="M 34.078125 68.5 
Q 29.046875 68.5 26.921875 64.234375 
Q 24.8125 59.96875 24.8125 49.421875 
Q 24.8125 38.875 26.921875 34.59375 
Q 29.046875 30.328125 34.078125 30.328125 
Q 39.109375 30.328125 41.25 34.59375 
Q 43.40625 38.875 43.40625 49.421875 
Q 43.40625 59.96875 41.25 64.234375 
Q 39.109375 68.5 34.078125 68.5 
z
M 44.96875 29.6875 
Q 41.75 27.09375 37.8125 25.796875 
Q 33.890625 24.515625 29.296875 24.515625 
Q 18.171875 24.515625 11.796875 31.03125 
Q 5.421875 37.546875 5.421875 49.03125 
Q 5.421875 61.140625 12.546875 67.671875 
Q 19.671875 74.21875 32.90625 74.21875 
Q 47.859375 74.21875 55.5625 65.1875 
Q 63.28125 56.15625 63.28125 38.71875 
Q 63.28125 18.84375 54.734375 8.703125 
Q 46.1875 -1.421875 29.390625 -1.421875 
Q 25 -1.421875 19.96875 -0.6875 
Q 14.9375 0.046875 9.1875 1.515625 
L 9.1875 14.40625 
L 15.09375 14.40625 
Q 16.3125 9.421875 19.703125 6.859375 
Q 23.09375 4.296875 28.515625 4.296875 
Q 37.109375 4.296875 41.015625 10.28125 
Q 44.921875 16.265625 44.96875 29.6875 
z
" id="DejaVuSerif-Bold-39"/>
       <path d="M 56.390625 72.90625 
L 56.390625 60.109375 
L 17.390625 60.109375 
L 17.390625 44.09375 
Q 20.609375 46.578125 24.5625 47.84375 
Q 28.515625 49.125 32.90625 49.125 
Q 46.390625 49.125 54.203125 42.3125 
Q 62.015625 35.5 62.015625 23.78125 
Q 62.015625 11.859375 54.203125 5.21875 
Q 46.390625 -1.421875 32.328125 -1.421875 
Q 26.375 -1.421875 20.484375 -0.4375 
Q 14.59375 0.53125 8.203125 2.59375 
L 8.203125 18.5 
L 14.0625 18.5 
Q 14.359375 11.328125 17.796875 7.8125 
Q 21.234375 4.296875 27.984375 4.296875 
Q 35.15625 4.296875 38.625 9.109375 
Q 42.09375 13.921875 42.09375 23.78125 
Q 42.09375 33.5 38.6875 38.296875 
Q 35.296875 43.109375 28.421875 43.109375 
Q 24.703125 43.109375 21.796875 41.578125 
Q 18.890625 40.046875 16.40625 36.8125 
L 11.53125 36.8125 
L 11.53125 72.90625 
z
" id="DejaVuSerif-Bold-35"/>
      </defs>
      <g style="fill:#333333;" transform="translate(41.751719 470.936562)scale(0.22 -0.22)">
       <use xlink:href="#DejaVuSerif-Bold-30"/>
       <use x="69.580078" xlink:href="#DejaVuSerif-Bold-2e"/>
       <use x="104.394531" xlink:href="#DejaVuSerif-Bold-39"/>
       <use x="173.974609" xlink:href="#DejaVuSerif-Bold-35"/>
      </g>
     </g>
    </g>
    <g id="xtick_2">
     <g id="line2d_2">
      <g>
       <use style="fill:#333333;stroke:#333333;stroke-width:0.8;" x="180.141875" xlink:href="#meaac9f3a4f" y="450.72"/>
      </g>
     </g>
     <g id="text_2">
      <!-- 0.96 -->
      <defs>
       <path d="M 24.609375 43.21875 
Q 27.78125 45.75 31.703125 47.015625 
Q 35.640625 48.296875 40.28125 48.296875 
Q 51.46875 48.296875 57.828125 41.75 
Q 64.203125 35.203125 64.203125 23.78125 
Q 64.203125 11.71875 57.03125 5.140625 
Q 49.859375 -1.421875 36.625 -1.421875 
Q 21.6875 -1.421875 13.984375 7.59375 
Q 6.296875 16.609375 6.296875 34.078125 
Q 6.296875 53.953125 14.84375 64.078125 
Q 23.390625 74.21875 40.1875 74.21875 
Q 44.578125 74.21875 49.609375 73.484375 
Q 54.640625 72.75 60.40625 71.296875 
L 60.40625 58.40625 
L 54.5 58.40625 
Q 53.265625 63.375 49.875 65.9375 
Q 46.484375 68.5 41.109375 68.5 
Q 32.421875 68.5 28.53125 62.546875 
Q 24.65625 56.59375 24.609375 43.21875 
z
M 35.5 4.296875 
Q 40.53125 4.296875 42.671875 8.5625 
Q 44.828125 12.84375 44.828125 23.390625 
Q 44.828125 33.9375 42.671875 38.203125 
Q 40.53125 42.484375 35.5 42.484375 
Q 30.46875 42.484375 28.34375 38.203125 
Q 26.21875 33.9375 26.21875 23.390625 
Q 26.21875 12.84375 28.34375 8.5625 
Q 30.46875 4.296875 35.5 4.296875 
z
" id="DejaVuSerif-Bold-36"/>
      </defs>
      <g style="fill:#333333;" transform="translate(153.351719 470.936562)scale(0.22 -0.22)">
       <use xlink:href="#DejaVuSerif-Bold-30"/>
       <use x="69.580078" xlink:href="#DejaVuSerif-Bold-2e"/>
       <use x="104.394531" xlink:href="#DejaVuSerif-Bold-39"/>
       <use x="173.974609" xlink:href="#DejaVuSerif-Bold-36"/>
      </g>
     </g>
    </g>
    <g id="xtick_3">
     <g id="line2d_3">
      <g>
       <use style="fill:#333333;stroke:#333333;stroke-width:0.8;" x="291.741875" xlink:href="#meaac9f3a4f" y="450.72"/>
      </g>
     </g>
     <g id="text_3">
      <!-- 0.97 -->
      <defs>
       <path d="M 61.28125 60.5 
L 31.203125 0 
L 21.296875 0 
L 50.59375 59.078125 
L 14.59375 59.078125 
L 14.59375 49.21875 
L 7.90625 49.21875 
L 7.90625 72.90625 
L 61.28125 72.90625 
z
" id="DejaVuSerif-Bold-37"/>
      </defs>
      <g style="fill:#333333;" transform="translate(264.951719 470.936562)scale(0.22 -0.22)">
       <use xlink:href="#DejaVuSerif-Bold-30"/>
       <use x="69.580078" xlink:href="#DejaVuSerif-Bold-2e"/>
       <use x="104.394531" xlink:href="#DejaVuSerif-Bold-39"/>
       <use x="173.974609" xlink:href="#DejaVuSerif-Bold-37"/>
      </g>
     </g>
    </g>
    <g id="xtick_4">
     <g id="line2d_4">
      <g>
       <use style="fill:#333333;stroke:#333333;stroke-width:0.8;" x="403.341875" xlink:href="#meaac9f3a4f" y="450.72"/>
      </g>
     </g>
     <g id="text_4">
      <!-- 0.98 -->
      <defs>
       <path d="M 46.484375 38.8125 
Q 55.171875 37.40625 59.6875 32.421875 
Q 64.203125 27.4375 64.203125 19.390625 
Q 64.203125 9.328125 56.609375 3.953125 
Q 49.03125 -1.421875 34.71875 -1.421875 
Q 20.40625 -1.421875 12.78125 3.953125 
Q 5.171875 9.328125 5.171875 19.390625 
Q 5.171875 27.4375 9.71875 32.421875 
Q 14.265625 37.40625 22.90625 38.8125 
Q 15.234375 40.578125 11.421875 44.703125 
Q 7.625 48.828125 7.625 55.171875 
Q 7.625 64.453125 14.546875 69.328125 
Q 21.484375 74.21875 34.71875 74.21875 
Q 47.90625 74.21875 54.859375 69.328125 
Q 61.8125 64.453125 61.8125 55.171875 
Q 61.8125 48.828125 57.984375 44.703125 
Q 54.15625 40.578125 46.484375 38.8125 
z
M 42.921875 54.984375 
Q 42.921875 62.703125 41.0625 65.59375 
Q 39.203125 68.5 34.71875 68.5 
Q 30.171875 68.5 28.34375 65.59375 
Q 26.515625 62.703125 26.515625 54.984375 
Q 26.515625 47.3125 28.34375 44.453125 
Q 30.171875 41.609375 34.71875 41.609375 
Q 39.265625 41.609375 41.09375 44.453125 
Q 42.921875 47.3125 42.921875 54.984375 
z
M 44.828125 20.21875 
Q 44.828125 29.15625 42.546875 32.515625 
Q 40.28125 35.890625 34.71875 35.890625 
Q 29.109375 35.890625 26.859375 32.515625 
Q 24.609375 29.15625 24.609375 20.21875 
Q 24.609375 11.1875 26.875 7.734375 
Q 29.15625 4.296875 34.71875 4.296875 
Q 40.234375 4.296875 42.53125 7.734375 
Q 44.828125 11.1875 44.828125 20.21875 
z
" id="DejaVuSerif-Bold-38"/>
      </defs>
      <g style="fill:#333333;" transform="translate(376.551719 470.936562)scale(0.22 -0.22)">
       <use xlink:href="#DejaVuSerif-Bold-30"/>
       <use x="69.580078" xlink:href="#DejaVuSerif-Bold-2e"/>
       <use x="104.394531" xlink:href="#DejaVuSerif-Bold-39"/>
       <use x="173.974609" xlink:href="#DejaVuSerif-Bold-38"/>
      </g>
     </g>
    </g>
    <g id="xtick_5">
     <g id="line2d_5">
      <g>
       <use style="fill:#333333;stroke:#333333;stroke-width:0.8;" x="514.941875" xlink:href="#meaac9f3a4f" y="450.72"/>
      </g>
     </g>
     <g id="text_5">
      <!-- 0.99 -->
      <g style="fill:#333333;" transform="translate(488.151719 470.936562)scale(0.22 -0.22)">
       <use xlink:href="#DejaVuSerif-Bold-30"/>
       <use x="69.580078" xlink:href="#DejaVuSerif-Bold-2e"/>
       <use x="104.394531" xlink:href="#DejaVuSerif-Bold-39"/>
       <use x="173.974609" xlink:href="#DejaVuSerif-Bold-39"/>
      </g>
     </g>
    </g>
    <g id="xtick_6">
     <g id="line2d_6">
      <g>
       <use style="fill:#333333;stroke:#333333;stroke-width:0.8;" x="626.541875" xlink:href="#meaac9f3a4f" y="450.72"/>
      </g>
     </g>
     <g id="text_6">
      <!-- 1.00 -->
      <defs>
       <path d="M 13.71875 0 
L 13.71875 5.90625 
L 27.390625 5.90625 
L 27.390625 64.890625 
L 12.203125 55.90625 
L 12.203125 63.1875 
L 30.515625 74.21875 
L 45.90625 74.21875 
L 45.90625 5.90625 
L 59.625 5.90625 
L 59.625 0 
z
" id="DejaVuSerif-Bold-31"/>
      </defs>
      <g style="fill:#333333;" transform="translate(599.751719 470.936562)scale(0.22 -0.22)">
       <use xlink:href="#DejaVuSerif-Bold-31"/>
       <use x="69.580078" xlink:href="#DejaVuSerif-Bold-2e"/>
       <use x="104.394531" xlink:href="#DejaVuSerif-Bold-30"/>
       <use x="173.974609" xlink:href="#DejaVuSerif-Bold-30"/>
      </g>
     </g>
    </g>
    <g id="text_7">
     <!-- $e_s$ -->
     <defs>
      <path d="M 40.09375 29.296875 
Q 40.09375 39.546875 38.1875 43.671875 
Q 36.28125 47.796875 31.6875 47.796875 
Q 27.25 47.796875 25.3125 43.75 
Q 23.390625 39.703125 23.390625 30.171875 
L 23.390625 29.296875 
z
M 59.078125 23.484375 
L 23.390625 23.484375 
L 23.390625 23.09375 
Q 23.390625 13.03125 26.40625 8.5625 
Q 29.4375 4.109375 36.1875 4.109375 
Q 41.796875 4.109375 45.265625 7.078125 
Q 48.734375 10.0625 49.703125 15.71875 
L 57.8125 15.71875 
Q 55.71875 6.890625 49.46875 2.734375 
Q 43.21875 -1.421875 31.984375 -1.421875 
Q 18.5 -1.421875 11.296875 5.6875 
Q 4.109375 12.796875 4.109375 25.984375 
Q 4.109375 38.875 11.46875 46.09375 
Q 18.84375 53.328125 31.984375 53.328125 
Q 44.875 53.328125 51.75 45.734375 
Q 58.640625 38.140625 59.078125 23.484375 
z
" id="DejaVuSerif-Bold-65"/>
      <path d="M 4.6875 1.515625 
L 4.6875 16.015625 
L 10.203125 16.015625 
Q 10.890625 10.203125 14.546875 7.15625 
Q 18.21875 4.109375 24.515625 4.109375 
Q 29.78125 4.109375 32.59375 5.9375 
Q 35.40625 7.765625 35.40625 11.1875 
Q 35.40625 14.3125 33.625 16.015625 
Q 31.84375 17.71875 26.703125 19 
L 19.578125 20.796875 
Q 11.53125 22.796875 7.90625 26.53125 
Q 4.296875 30.28125 4.296875 36.625 
Q 4.296875 45.0625 10.15625 49.1875 
Q 16.015625 53.328125 28.21875 53.328125 
Q 32.8125 53.328125 38.015625 52.5625 
Q 43.21875 51.8125 49.515625 50.203125 
L 49.515625 37.109375 
L 44 37.109375 
Q 43.5625 42.4375 40.203125 45.109375 
Q 36.859375 47.796875 30.609375 47.796875 
Q 25.34375 47.796875 22.625 46.109375 
Q 19.921875 44.4375 19.921875 41.21875 
Q 19.921875 38.578125 21.484375 37.0625 
Q 23.046875 35.546875 27.09375 34.515625 
L 34.1875 32.71875 
Q 44.390625 30.125 48.296875 26.3125 
Q 52.203125 22.515625 52.203125 15.71875 
Q 52.203125 6.9375 45.921875 2.75 
Q 39.65625 -1.421875 26.421875 -1.421875 
Q 21.578125 -1.421875 16.15625 -0.6875 
Q 10.75 0.046875 4.6875 1.515625 
z
" id="DejaVuSerif-Bold-73"/>
     </defs>
     <g transform="translate(334.701875 497.748125)scale(0.24 -0.24)">
      <use transform="translate(0 0.671875)" xlink:href="#DejaVuSerif-Bold-65"/>
      <use transform="translate(64.531406 -14.9)scale(0.7)" xlink:href="#DejaVuSerif-Bold-73"/>
     </g>
    </g>
   </g>
   <g id="matplotlib.axis_2">
    <g id="ytick_1">
     <g id="line2d_7">
      <defs>
       <path d="M 0 0 
L 6 0 
" id="m95068edb73" style="stroke:#333333;stroke-width:0.8;"/>
      </defs>
      <g>
       <use style="fill:#333333;stroke:#333333;stroke-width:0.8;" x="68.541875" xlink:href="#m95068edb73" y="450.72"/>
      </g>
     </g>
     <g id="text_8">
      <!-- 0 -->
      <g style="fill:#333333;" transform="translate(49.734688 459.078281)scale(0.22 -0.22)">
       <use xlink:href="#DejaVuSerif-Bold-30"/>
      </g>
     </g>
    </g>
    <g id="ytick_2">
     <g id="line2d_8">
      <g>
       <use style="fill:#333333;stroke:#333333;stroke-width:0.8;" x="68.541875" xlink:href="#m95068edb73" y="380.32"/>
      </g>
     </g>
     <g id="text_9">
      <!-- 10 -->
      <g style="fill:#333333;" transform="translate(34.4275 388.678281)scale(0.22 -0.22)">
       <use xlink:href="#DejaVuSerif-Bold-31"/>
       <use x="69.580078" xlink:href="#DejaVuSerif-Bold-30"/>
      </g>
     </g>
    </g>
    <g id="ytick_3">
     <g id="line2d_9">
      <g>
       <use style="fill:#333333;stroke:#333333;stroke-width:0.8;" x="68.541875" xlink:href="#m95068edb73" y="309.92"/>
      </g>
     </g>
     <g id="text_10">
      <!-- 20 -->
      <defs>
       <path d="M 13.1875 54.890625 
L 7.328125 54.890625 
L 7.328125 70.609375 
Q 13.28125 72.40625 19.109375 73.3125 
Q 24.953125 74.21875 30.90625 74.21875 
Q 44.828125 74.21875 52.609375 68.53125 
Q 60.40625 62.84375 60.40625 52.6875 
Q 60.40625 45.453125 56.109375 39.71875 
Q 51.8125 33.984375 39.703125 26.125 
L 19.390625 12.796875 
L 53.90625 12.796875 
L 53.90625 21.390625 
L 60.59375 21.390625 
L 60.59375 0 
L 6.6875 0 
L 6.6875 11.921875 
L 17.484375 19.390625 
Q 31.296875 28.90625 35.890625 35.59375 
Q 40.484375 42.28125 40.484375 51.21875 
Q 40.484375 59.671875 36.984375 64.078125 
Q 33.5 68.5 26.8125 68.5 
Q 21.046875 68.5 17.578125 65.015625 
Q 14.109375 61.53125 13.1875 54.890625 
z
" id="DejaVuSerif-Bold-32"/>
      </defs>
      <g style="fill:#333333;" transform="translate(34.4275 318.278281)scale(0.22 -0.22)">
       <use xlink:href="#DejaVuSerif-Bold-32"/>
       <use x="69.580078" xlink:href="#DejaVuSerif-Bold-30"/>
      </g>
     </g>
    </g>
    <g id="ytick_4">
     <g id="line2d_10">
      <g>
       <use style="fill:#333333;stroke:#333333;stroke-width:0.8;" x="68.541875" xlink:href="#m95068edb73" y="239.52"/>
      </g>
     </g>
     <g id="text_11">
      <!-- 30 -->
      <defs>
       <path d="M 8.59375 70.796875 
Q 15.046875 72.515625 21.09375 73.359375 
Q 27.15625 74.21875 32.90625 74.21875 
Q 46.09375 74.21875 53.140625 69.5 
Q 60.203125 64.796875 60.203125 56 
Q 60.203125 49.421875 56.140625 45.3125 
Q 52.09375 41.21875 44.28125 39.796875 
Q 53.8125 38.28125 58.5 33.296875 
Q 63.1875 28.328125 63.1875 19.671875 
Q 63.1875 9.46875 55.09375 4.015625 
Q 47.015625 -1.421875 31.6875 -1.421875 
Q 25.921875 -1.421875 19.796875 -0.4375 
Q 13.671875 0.53125 6.984375 2.484375 
L 6.984375 18.5 
L 12.890625 18.5 
Q 13.421875 11.578125 17.234375 7.9375 
Q 21.046875 4.296875 27.78125 4.296875 
Q 35.203125 4.296875 39.25 8.421875 
Q 43.3125 12.546875 43.3125 20.125 
Q 43.3125 28.03125 39.078125 32.328125 
Q 34.859375 36.625 27.09375 36.625 
L 23.875 36.625 
L 23.875 42.484375 
L 26.421875 42.484375 
Q 33.59375 42.484375 37.203125 45.796875 
Q 40.828125 49.125 40.828125 55.71875 
Q 40.828125 61.921875 37.421875 65.203125 
Q 34.03125 68.5 27.6875 68.5 
Q 21.921875 68.5 18.546875 65.34375 
Q 15.1875 62.203125 14.5 56.203125 
L 8.59375 56.203125 
z
" id="DejaVuSerif-Bold-33"/>
      </defs>
      <g style="fill:#333333;" transform="translate(34.4275 247.878281)scale(0.22 -0.22)">
       <use xlink:href="#DejaVuSerif-Bold-33"/>
       <use x="69.580078" xlink:href="#DejaVuSerif-Bold-30"/>
      </g>
     </g>
    </g>
    <g id="ytick_5">
     <g id="line2d_11">
      <g>
       <use style="fill:#333333;stroke:#333333;stroke-width:0.8;" x="68.541875" xlink:href="#m95068edb73" y="169.12"/>
      </g>
     </g>
     <g id="text_12">
      <!-- 40 -->
      <defs>
       <path d="M 63.8125 0 
L 23.6875 0 
L 23.6875 5.90625 
L 34.515625 5.90625 
L 34.515625 19.1875 
L 4.109375 19.1875 
L 4.109375 24.8125 
L 34.625 74.21875 
L 52.984375 74.21875 
L 52.984375 25.484375 
L 65.484375 25.484375 
L 65.484375 19.1875 
L 52.984375 19.1875 
L 52.984375 5.90625 
L 63.8125 5.90625 
z
M 34.515625 25.484375 
L 34.515625 60.890625 
L 12.796875 25.484375 
z
" id="DejaVuSerif-Bold-34"/>
      </defs>
      <g style="fill:#333333;" transform="translate(34.4275 177.478281)scale(0.22 -0.22)">
       <use xlink:href="#DejaVuSerif-Bold-34"/>
       <use x="69.580078" xlink:href="#DejaVuSerif-Bold-30"/>
      </g>
     </g>
    </g>
    <g id="ytick_6">
     <g id="line2d_12">
      <g>
       <use style="fill:#333333;stroke:#333333;stroke-width:0.8;" x="68.541875" xlink:href="#m95068edb73" y="98.72"/>
      </g>
     </g>
     <g id="text_13">
      <!-- 50 -->
      <g style="fill:#333333;" transform="translate(34.4275 107.078281)scale(0.22 -0.22)">
       <use xlink:href="#DejaVuSerif-Bold-35"/>
       <use x="69.580078" xlink:href="#DejaVuSerif-Bold-30"/>
      </g>
     </g>
    </g>
    <g id="ytick_7">
     <g id="line2d_13">
      <g>
       <use style="fill:#333333;stroke:#333333;stroke-width:0.8;" x="68.541875" xlink:href="#m95068edb73" y="28.32"/>
      </g>
     </g>
     <g id="text_14">
      <!-- 60 -->
      <g style="fill:#333333;" transform="translate(34.4275 36.678281)scale(0.22 -0.22)">
       <use xlink:href="#DejaVuSerif-Bold-36"/>
       <use x="69.580078" xlink:href="#DejaVuSerif-Bold-30"/>
      </g>
     </g>
    </g>
    <g id="text_15">
     <!-- $P(e_s)$ -->
     <defs>
      <path d="M 4.6875 0 
L 4.6875 5.90625 
L 14.015625 5.90625 
L 14.015625 67 
L 4.6875 67 
L 4.6875 72.90625 
L 46.1875 72.90625 
Q 58.34375 72.90625 65.515625 67.109375 
Q 72.703125 61.328125 72.703125 51.609375 
Q 72.703125 41.84375 65.5 36 
Q 58.296875 30.171875 46.1875 30.171875 
L 32.8125 30.171875 
L 32.8125 5.90625 
L 44.578125 5.90625 
L 44.578125 0 
z
M 32.8125 36.078125 
L 38.28125 36.078125 
Q 44.625 36.078125 48.40625 40.296875 
Q 52.203125 44.53125 52.203125 51.609375 
Q 52.203125 58.640625 48.4375 62.8125 
Q 44.671875 67 38.28125 67 
L 32.8125 67 
z
" id="DejaVuSerif-Bold-50"/>
      <path d="M 42.09375 -15.578125 
Q 25.640625 -9.46875 17.53125 1.90625 
Q 9.421875 13.28125 9.421875 30.171875 
Q 9.421875 47.078125 17.421875 58.296875 
Q 25.4375 69.53125 42.09375 75.984375 
L 42.09375 70.125 
Q 34.375 65.4375 30.984375 56.21875 
Q 27.59375 47.015625 27.59375 30.171875 
Q 27.59375 13.375 30.984375 4.171875 
Q 34.375 -5.03125 42.09375 -9.71875 
z
" id="DejaVuSerif-Bold-28"/>
      <path d="M 5.078125 -15.578125 
L 5.078125 -9.71875 
Q 12.796875 -5.03125 16.1875 4.171875 
Q 19.578125 13.375 19.578125 30.171875 
Q 19.578125 47.015625 16.1875 56.21875 
Q 12.796875 65.4375 5.078125 70.125 
L 5.078125 75.984375 
Q 21.734375 69.53125 29.765625 58.296875 
Q 37.796875 47.078125 37.796875 30.171875 
Q 37.796875 13.28125 29.65625 1.90625 
Q 21.53125 -9.46875 5.078125 -15.578125 
z
" id="DejaVuSerif-Bold-29"/>
     </defs>
     <g transform="translate(25.43625 262.2)rotate(-90)scale(0.24 -0.24)">
      <use transform="translate(0 0.015625)" xlink:href="#DejaVuSerif-Bold-50"/>
      <use transform="translate(75.195312 0.015625)" xlink:href="#DejaVuSerif-Bold-28"/>
      <use transform="translate(122.509766 0.015625)" xlink:href="#DejaVuSerif-Bold-65"/>
      <use transform="translate(187.041172 -15.55625)scale(0.7)" xlink:href="#DejaVuSerif-Bold-73"/>
      <use transform="translate(229.045664 0.015625)" xlink:href="#DejaVuSerif-Bold-29"/>
     </g>
    </g>
   </g>
   <g id="line2d_14">
    <path clip-path="url(#p303d8275c0)" d="M 498.791766 450.72 
L 498.791766 28.32 
" style="fill:none;stroke:#00ffff;stroke-dasharray:7.4,3.2;stroke-dashoffset:0;stroke-width:2;"/>
   </g>
   <g id="patch_202">
    <path d="M 68.541875 450.72 
L 68.541875 7.2 
" style="fill:none;stroke:#333333;stroke-linecap:square;stroke-linejoin:miter;stroke-width:0.8;"/>
   </g>
   <g id="patch_203">
    <path d="M 626.541875 450.72 
L 626.541875 7.2 
" style="fill:none;stroke:#333333;stroke-linecap:square;stroke-linejoin:miter;stroke-width:0.8;"/>
   </g>
   <g id="patch_204">
    <path d="M 68.541875 450.72 
L 626.541875 450.72 
" style="fill:none;stroke:#333333;stroke-linecap:square;stroke-linejoin:miter;stroke-width:0.8;"/>
   </g>
   <g id="patch_205">
    <path d="M 68.541875 7.2 
L 626.541875 7.2 
" style="fill:none;stroke:#333333;stroke-linecap:square;stroke-linejoin:miter;stroke-width:0.8;"/>
   </g>
   <g id="text_16">
    <!-- $1-\left(\frac{M_{\bullet}}{&lt;M_{*}&gt;}\right)^{-1/3}$ -->
    <defs>
     <path d="M 10.59375 36.921875 
L 73.1875 36.921875 
L 73.1875 25.6875 
L 10.59375 25.6875 
z
" id="DejaVuSerif-Bold-2212"/>
     <path d="M 51.203125 -18 
L 51.203125 -24.09375 
Q 31.5 -5.59375 21.25 16.953125 
Q 11 39.5 11 68.203125 
Q 11 97.5 21.5 121.25 
Q 32 145 51.203125 160.40625 
L 51.203125 154.296875 
Q 39.703125 142.59375 32.046875 121.046875 
Q 24.40625 99.5 24.40625 68.203125 
Q 24.40625 51.90625 26.59375 38.09375 
Q 28.796875 24.296875 32.890625 13.9375 
Q 37 3.59375 41.296875 -3.75 
Q 45.59375 -11.09375 51.203125 -18 
z
" id="STIXSizeTwoSym-Bold-28"/>
     <path d="M 4.203125 0 
L 4.203125 5.90625 
L 13.484375 5.90625 
L 13.484375 67 
L 4.203125 67 
L 4.203125 72.90625 
L 34.28125 72.90625 
L 55.078125 26.125 
L 75.984375 72.90625 
L 106 72.90625 
L 106 67 
L 96.6875 67 
L 96.6875 5.90625 
L 106 5.90625 
L 106 0 
L 68.5 0 
L 68.5 5.90625 
L 77.78125 5.90625 
L 77.78125 61.53125 
L 55.171875 10.6875 
L 42.828125 10.6875 
L 20.3125 61.53125 
L 20.3125 5.90625 
L 29.59375 5.90625 
L 29.59375 0 
z
" id="DejaVuSerif-Bold-4d"/>
     <path d="M 10.59375 24.859375 
Q 10.59375 37.84375 15.03125 42.328125 
Q 19.484375 46.828125 26.03125 46.828125 
Q 32.328125 46.828125 36.796875 42.234375 
Q 41.265625 37.640625 41.265625 31.390625 
Q 41.265625 24.953125 36.796875 20.53125 
Q 32.328125 16.109375 25.828125 16.109375 
Q 19.34375 16.109375 14.96875 20.484375 
Q 10.59375 24.859375 10.59375 37.84375 
z
" id="DejaVuSerif-Bold-2219"/>
     <path d="M 73.1875 47.796875 
L 25.390625 31.296875 
L 73.1875 14.890625 
L 73.1875 3.21875 
L 10.59375 25.875 
L 10.59375 36.921875 
L 73.1875 59.515625 
z
" id="DejaVuSerif-Bold-3c"/>
     <path d="M 50.09375 59.1875 
L 32.515625 50.984375 
L 50.09375 42.671875 
L 45.3125 35.109375 
L 29.296875 46.78125 
L 30.609375 27.78125 
L 21.6875 27.78125 
L 23 46.78125 
L 6.984375 35.109375 
L 2.203125 42.671875 
L 19.828125 50.984375 
L 2.203125 59.1875 
L 6.984375 66.890625 
L 23 55.078125 
L 21.6875 74.21875 
L 30.609375 74.21875 
L 29.296875 55.078125 
L 45.3125 66.890625 
z
" id="DejaVuSerif-Bold-2a"/>
     <path d="M 10.59375 47.796875 
L 10.59375 59.515625 
L 73.1875 36.921875 
L 73.1875 25.875 
L 10.59375 3.21875 
L 10.59375 14.890625 
L 58.40625 31.296875 
z
" id="DejaVuSerif-Bold-3e"/>
     <path d="M 9.59375 154.296875 
L 9.59375 160.40625 
Q 28.796875 145 39.296875 121.25 
Q 49.796875 97.5 49.796875 68.203125 
Q 49.796875 39.5 39.546875 16.953125 
Q 29.296875 -5.59375 9.59375 -24.09375 
L 9.59375 -18 
Q 15.203125 -11.09375 19.5 -3.75 
Q 23.796875 3.59375 27.890625 13.9375 
Q 32 24.296875 34.203125 38.09375 
Q 36.40625 51.90625 36.40625 68.203125 
Q 36.40625 99.5 28.75 121.046875 
Q 21.09375 142.59375 9.59375 154.296875 
z
" id="STIXSizeTwoSym-Bold-29"/>
     <path d="M 25.6875 72.90625 
L 36.53125 72.90625 
L 10.796875 -9.28125 
L 0 -9.28125 
z
" id="DejaVuSerif-Bold-2f"/>
    </defs>
    <g style="fill:#00ffff;" transform="translate(538.261875 387.36)rotate(-90)scale(0.22 -0.22)">
     <use transform="translate(0 0.21375)" xlink:href="#DejaVuSerif-Bold-31"/>
     <use transform="translate(90.742188 0.21375)" xlink:href="#DejaVuSerif-Bold-2212"/>
     <use transform="translate(195.693359 -28.85375)scale(0.840755)" xlink:href="#STIXSizeTwoSym-Bold-28"/>
     <use transform="translate(334.803345 54.965625)scale(0.7)" xlink:href="#DejaVuSerif-Bold-4d"/>
     <use transform="translate(412.924548 44.065313)scale(0.49)" xlink:href="#DejaVuSerif-Bold-2219"/>
     <use transform="translate(261.616821 -38.219063)scale(0.7)" xlink:href="#DejaVuSerif-Bold-3c"/>
     <use transform="translate(335.082642 -38.219063)scale(0.7)" xlink:href="#DejaVuSerif-Bold-4d"/>
     <use transform="translate(413.203845 -49.119375)scale(0.49)" xlink:href="#DejaVuSerif-Bold-2a"/>
     <use transform="translate(455.458552 -38.219063)scale(0.7)" xlink:href="#DejaVuSerif-Bold-3e"/>
     <use transform="translate(541.424372 -28.85375)scale(0.840755)" xlink:href="#STIXSizeTwoSym-Bold-29"/>
     <use transform="translate(593.442717 36.548125)scale(0.7)" xlink:href="#DejaVuSerif-Bold-2212"/>
     <use transform="translate(652.095061 36.548125)scale(0.7)" xlink:href="#DejaVuSerif-Bold-31"/>
     <use transform="translate(700.801115 36.548125)scale(0.7)" xlink:href="#DejaVuSerif-Bold-2f"/>
     <use transform="translate(726.367521 36.548125)scale(0.7)" xlink:href="#DejaVuSerif-Bold-33"/>
     <path d="M 246.803345 19.065313 
L 246.803345 25.315313 
L 528.924372 25.315313 
L 528.924372 19.065313 
L 246.803345 19.065313 
z
"/>
    </g>
   </g>
   <g id="text_17">
    <!-- $M_{\bullet}=4\times 10^6 M_{\odot}$ -->
    <defs>
     <path d="M 10.59375 25.78125 
L 73.1875 25.78125 
L 73.1875 14.703125 
L 10.59375 14.703125 
z
M 10.59375 48 
L 73.1875 48 
L 73.1875 36.921875 
L 10.59375 36.921875 
z
" id="DejaVuSerif-Bold-3d"/>
     <path d="M 70.90625 52.78125 
L 49.421875 31.296875 
L 70.90625 9.8125 
L 63.375 2.296875 
L 41.890625 23.78125 
L 20.40625 2.296875 
L 12.890625 9.8125 
L 34.421875 31.296875 
L 12.890625 52.78125 
L 20.40625 60.40625 
L 41.890625 38.921875 
L 63.375 60.40625 
z
" id="DejaVuSerif-Bold-d7"/>
     <path d="M 38.09375 22.125 
Q 32.625 27.546875 32.625 31.34375 
Q 32.625 35.15625 35.359375 37.890625 
Q 38.09375 40.625 41.890625 40.625 
Q 45.75 40.625 48.484375 37.890625 
Q 51.21875 35.15625 51.21875 31.34375 
Q 51.21875 27.546875 48.484375 24.828125 
Q 45.75 22.125 41.890625 22.125 
Q 38.09375 22.125 32.625 27.546875 
z
M 27.203125 46.046875 
Q 21.78125 36.765625 21.78125 31.34375 
Q 21.78125 25.921875 24.484375 21.28125 
Q 27.203125 16.65625 31.828125 13.9375 
Q 36.46875 11.234375 41.890625 11.234375 
Q 47.3125 11.234375 51.953125 13.9375 
Q 56.59375 16.65625 59.296875 21.28125 
Q 62.015625 25.921875 62.015625 31.34375 
Q 62.015625 36.765625 59.296875 41.40625 
Q 56.59375 46.046875 51.953125 48.75 
Q 47.3125 51.46875 41.890625 51.46875 
Q 36.46875 51.46875 31.828125 48.75 
Q 27.203125 46.046875 21.78125 36.765625 
z
M 18.953125 8.40625 
Q 10.546875 22.859375 10.546875 31.34375 
Q 10.546875 39.84375 14.75 47.0625 
Q 18.953125 54.296875 26.171875 58.5 
Q 33.40625 62.703125 41.890625 62.703125 
Q 50.390625 62.703125 57.609375 58.5 
Q 64.84375 54.296875 69.046875 47.0625 
Q 73.25 39.84375 73.25 31.34375 
Q 73.25 22.859375 69.046875 15.625 
Q 64.84375 8.40625 57.609375 4.203125 
Q 50.390625 0 41.890625 0 
Q 33.40625 0 26.171875 4.203125 
Q 18.953125 8.40625 10.546875 22.859375 
z
" id="DejaVuSerif-Bold-2299"/>
    </defs>
    <g transform="translate(79.701875 46.844687)scale(0.22 -0.22)">
     <use transform="translate(0 0.7125)" xlink:href="#DejaVuSerif-Bold-4d"/>
     <use transform="translate(111.601719 -14.859375)scale(0.7)" xlink:href="#DejaVuSerif-Bold-2219"/>
     <use transform="translate(171.657969 0.7125)" xlink:href="#DejaVuSerif-Bold-3d"/>
     <use transform="translate(276.609141 0.7125)" xlink:href="#DejaVuSerif-Bold-34"/>
     <use transform="translate(367.351328 0.7125)" xlink:href="#DejaVuSerif-Bold-d7"/>
     <use transform="translate(472.3025 0.7125)" xlink:href="#DejaVuSerif-Bold-31"/>
     <use transform="translate(541.882578 0.7125)" xlink:href="#DejaVuSerif-Bold-30"/>
     <use transform="translate(612.371016 37.046875)scale(0.7)" xlink:href="#DejaVuSerif-Bold-36"/>
     <use transform="translate(663.672383 0.7125)" xlink:href="#DejaVuSerif-Bold-4d"/>
     <use transform="translate(775.274102 -14.859375)scale(0.7)" xlink:href="#DejaVuSerif-Bold-2299"/>
    </g>
    <!-- $e_{bin}:Thermal$ -->
    <defs>
     <path d="M 9.71875 5.90625 
L 9.71875 70.125 
L 2.296875 70.125 
L 2.296875 75.984375 
L 27 75.984375 
L 27 45.3125 
Q 29.203125 49.359375 32.90625 51.34375 
Q 36.625 53.328125 42.09375 53.328125 
Q 53.171875 53.328125 59.546875 46.015625 
Q 65.921875 38.71875 65.921875 25.984375 
Q 65.921875 13.234375 59.546875 5.90625 
Q 53.171875 -1.421875 42.09375 -1.421875 
Q 36.625 -1.421875 32.90625 0.5625 
Q 29.203125 2.546875 27 6.59375 
L 27 0 
L 2.296875 0 
L 2.296875 5.90625 
z
M 27 23.390625 
Q 27 14.3125 29.3125 10.25 
Q 31.640625 6.203125 36.8125 6.203125 
Q 42.140625 6.203125 44.3125 10.5 
Q 46.484375 14.796875 46.484375 25.984375 
Q 46.484375 37.15625 44.3125 41.421875 
Q 42.140625 45.703125 36.8125 45.703125 
Q 31.640625 45.703125 29.3125 41.640625 
Q 27 37.59375 27 28.515625 
z
" id="DejaVuSerif-Bold-62"/>
     <path d="M 9.1875 66.609375 
Q 9.1875 70.5625 11.921875 73.265625 
Q 14.65625 75.984375 18.609375 75.984375 
Q 22.46875 75.984375 25.171875 73.265625 
Q 27.875 70.5625 27.875 66.609375 
Q 27.875 62.75 25.171875 60.03125 
Q 22.46875 57.328125 18.609375 57.328125 
Q 14.65625 57.328125 11.921875 60.015625 
Q 9.1875 62.703125 9.1875 66.609375 
z
M 28.078125 5.90625 
L 35.5 5.90625 
L 35.5 0 
L 3.421875 0 
L 3.421875 5.90625 
L 10.796875 5.90625 
L 10.796875 46 
L 3.421875 46 
L 3.421875 51.90625 
L 28.078125 51.90625 
z
" id="DejaVuSerif-Bold-69"/>
     <path d="M 3.421875 0 
L 3.421875 5.90625 
L 10.796875 5.90625 
L 10.796875 46 
L 3.421875 46 
L 3.421875 51.90625 
L 28.078125 51.90625 
L 28.078125 44.578125 
Q 31.203125 49.21875 35.203125 51.265625 
Q 39.203125 53.328125 45.3125 53.328125 
Q 54.046875 53.328125 58.515625 48.171875 
Q 62.984375 43.015625 62.984375 33.015625 
L 62.984375 5.90625 
L 70.40625 5.90625 
L 70.40625 0 
L 39.40625 0 
L 39.40625 5.90625 
L 45.703125 5.90625 
L 45.703125 33.5 
Q 45.703125 40.09375 44.015625 42.65625 
Q 42.328125 45.21875 38.1875 45.21875 
Q 32.953125 45.21875 30.515625 41.375 
Q 28.078125 37.546875 28.078125 29.203125 
L 28.078125 5.90625 
L 34.421875 5.90625 
L 34.421875 0 
z
" id="DejaVuSerif-Bold-6e"/>
     <path d="M 9.1875 39.703125 
Q 9.1875 43.5625 11.890625 46.296875 
Q 14.59375 49.03125 18.40625 49.03125 
Q 22.21875 49.03125 24.953125 46.265625 
Q 27.6875 43.5 27.6875 39.703125 
Q 27.6875 35.890625 24.96875 33.203125 
Q 22.265625 30.515625 18.40625 30.515625 
Q 14.546875 30.515625 11.859375 33.203125 
Q 9.1875 35.890625 9.1875 39.703125 
z
M 9.1875 7.90625 
Q 9.1875 11.71875 11.890625 14.453125 
Q 14.59375 17.1875 18.40625 17.1875 
Q 22.21875 17.1875 24.953125 14.453125 
Q 27.6875 11.71875 27.6875 7.90625 
Q 27.6875 4.046875 24.953125 1.3125 
Q 22.21875 -1.421875 18.40625 -1.421875 
Q 14.59375 -1.421875 11.890625 1.3125 
Q 9.1875 4.046875 9.1875 7.90625 
z
" id="DejaVuSerif-Bold-3a"/>
     <path d="M 18.109375 0 
L 18.109375 5.90625 
L 27.78125 5.90625 
L 27.78125 66.21875 
L 7.8125 66.21875 
L 7.8125 54.6875 
L 1.125 54.6875 
L 1.125 72.90625 
L 73.390625 72.90625 
L 73.390625 54.6875 
L 66.796875 54.6875 
L 66.796875 66.21875 
L 46.6875 66.21875 
L 46.6875 5.90625 
L 56.390625 5.90625 
L 56.390625 0 
z
" id="DejaVuSerif-Bold-54"/>
     <path d="M 3.421875 0 
L 3.421875 5.90625 
L 10.796875 5.90625 
L 10.796875 70.125 
L 3.078125 70.125 
L 3.078125 75.984375 
L 28.078125 75.984375 
L 28.078125 44.578125 
Q 31.203125 49.21875 35.203125 51.265625 
Q 39.203125 53.328125 45.3125 53.328125 
Q 54.046875 53.328125 58.515625 48.171875 
Q 62.984375 43.015625 62.984375 33.015625 
L 62.984375 5.90625 
L 70.40625 5.90625 
L 70.40625 0 
L 39.40625 0 
L 39.40625 5.90625 
L 45.703125 5.90625 
L 45.703125 33.5 
Q 45.703125 40.09375 44.015625 42.65625 
Q 42.328125 45.21875 38.1875 45.21875 
Q 32.953125 45.21875 30.515625 41.375 
Q 28.078125 37.546875 28.078125 29.203125 
L 28.078125 5.90625 
L 34.421875 5.90625 
L 34.421875 0 
z
" id="DejaVuSerif-Bold-68"/>
     <path d="M 53.71875 52.484375 
L 53.71875 37.015625 
L 48.1875 37.015625 
Q 47.90625 41.15625 45.953125 43.1875 
Q 44 45.21875 40.28125 45.21875 
Q 34.625 45.21875 31.34375 40.234375 
Q 28.078125 35.25 28.078125 26.421875 
L 28.078125 5.90625 
L 37.5 5.90625 
L 37.5 0 
L 3.421875 0 
L 3.421875 5.90625 
L 10.796875 5.90625 
L 10.796875 46 
L 2.875 46 
L 2.875 51.90625 
L 28.078125 51.90625 
L 28.078125 42.671875 
Q 30.609375 48.09375 34.78125 50.703125 
Q 38.96875 53.328125 45.015625 53.328125 
Q 46.53125 53.328125 48.703125 53.09375 
Q 50.875 52.875 53.71875 52.484375 
z
" id="DejaVuSerif-Bold-72"/>
     <path d="M 60.6875 43.40625 
Q 64.3125 48.578125 68.5 50.953125 
Q 72.703125 53.328125 78.328125 53.328125 
Q 87.25 53.328125 91.671875 48.265625 
Q 96.09375 43.21875 96.09375 33.015625 
L 96.09375 5.90625 
L 103.515625 5.90625 
L 103.515625 0 
L 72.609375 0 
L 72.609375 5.90625 
L 78.8125 5.90625 
L 78.8125 30.421875 
Q 78.8125 40.140625 77.3125 42.671875 
Q 75.828125 45.21875 71.78125 45.21875 
Q 67.1875 45.21875 64.640625 41.671875 
Q 62.109375 38.140625 62.109375 31.59375 
L 62.109375 5.90625 
L 68.3125 5.90625 
L 68.3125 0 
L 38.625 0 
L 38.625 5.90625 
L 44.828125 5.90625 
L 44.828125 30.421875 
Q 44.828125 40.140625 43.3125 42.671875 
Q 41.796875 45.21875 37.796875 45.21875 
Q 33.15625 45.21875 30.609375 41.671875 
Q 28.078125 38.140625 28.078125 31.59375 
L 28.078125 5.90625 
L 34.28125 5.90625 
L 34.28125 0 
L 3.421875 0 
L 3.421875 5.90625 
L 10.796875 5.90625 
L 10.796875 46 
L 3.421875 46 
L 3.421875 51.90625 
L 28.078125 51.90625 
L 28.078125 44.578125 
Q 31.109375 49.125 35.015625 51.21875 
Q 38.921875 53.328125 44.28125 53.328125 
Q 50.640625 53.328125 54.59375 50.90625 
Q 58.546875 48.484375 60.6875 43.40625 
z
" id="DejaVuSerif-Bold-6d"/>
     <path d="M 55.078125 31.890625 
L 55.078125 5.90625 
L 62.5 5.90625 
L 62.5 0 
L 37.796875 0 
L 37.796875 6.59375 
Q 34.375 2.484375 30.171875 0.53125 
Q 25.984375 -1.421875 20.609375 -1.421875 
Q 12.640625 -1.421875 8.375 2.84375 
Q 4.109375 7.125 4.109375 15.09375 
Q 4.109375 23.828125 10.234375 28.171875 
Q 16.359375 32.515625 28.71875 32.515625 
L 37.796875 32.515625 
L 37.796875 35.59375 
Q 37.796875 41.890625 34.8125 44.890625 
Q 31.84375 47.90625 25.59375 47.90625 
Q 20.40625 47.90625 17.59375 45.78125 
Q 14.796875 43.65625 13.625 38.8125 
L 8.109375 38.8125 
L 8.109375 50 
Q 12.75 51.65625 17.71875 52.484375 
Q 22.703125 53.328125 28.21875 53.328125 
Q 42.140625 53.328125 48.609375 48.140625 
Q 55.078125 42.96875 55.078125 31.890625 
z
M 37.796875 16.3125 
L 37.796875 26.703125 
L 31.296875 26.703125 
Q 26.46875 26.703125 23.875 24.0625 
Q 21.296875 21.4375 21.296875 16.5 
Q 21.296875 11.578125 23.171875 9.125 
Q 25.046875 6.6875 28.90625 6.6875 
Q 32.90625 6.6875 35.34375 9.328125 
Q 37.796875 11.96875 37.796875 16.3125 
z
" id="DejaVuSerif-Bold-61"/>
     <path d="M 28.078125 5.90625 
L 35.5 5.90625 
L 35.5 0 
L 3.421875 0 
L 3.421875 5.90625 
L 10.796875 5.90625 
L 10.796875 70.125 
L 3.421875 70.125 
L 3.421875 75.984375 
L 28.078125 75.984375 
z
" id="DejaVuSerif-Bold-6c"/>
    </defs>
    <g transform="translate(79.701875 71.479875)scale(0.22 -0.22)">
     <use transform="translate(0 0.015625)" xlink:href="#DejaVuSerif-Bold-65"/>
     <use transform="translate(64.531406 -15.55625)scale(0.7)" xlink:href="#DejaVuSerif-Bold-62"/>
     <use transform="translate(113.476719 -15.55625)scale(0.7)" xlink:href="#DejaVuSerif-Bold-69"/>
     <use transform="translate(140.068516 -15.55625)scale(0.7)" xlink:href="#DejaVuSerif-Bold-6e"/>
     <use transform="translate(214.719492 0.015625)" xlink:href="#DejaVuSerif-Bold-3a"/>
     <use transform="translate(272.795664 0.015625)" xlink:href="#DejaVuSerif-Bold-54"/>
     <use transform="translate(347.209727 0.015625)" xlink:href="#DejaVuSerif-Bold-68"/>
     <use transform="translate(419.914805 0.015625)" xlink:href="#DejaVuSerif-Bold-65"/>
     <use transform="translate(483.537852 0.015625)" xlink:href="#DejaVuSerif-Bold-72"/>
     <use transform="translate(536.223398 0.015625)" xlink:href="#DejaVuSerif-Bold-6d"/>
     <use transform="translate(642.033945 0.015625)" xlink:href="#DejaVuSerif-Bold-61"/>
     <use transform="translate(706.828867 0.015625)" xlink:href="#DejaVuSerif-Bold-6c"/>
    </g>
   </g>
  </g>
 </g>
 <defs>
  <clipPath id="p303d8275c0">
   <rect height="443.52" width="558" x="68.541875" y="7.2"/>
  </clipPath>
 </defs>
</svg>
