<?xml version="1.0" encoding="utf-8" standalone="no"?>
<!DOCTYPE svg PUBLIC "-//W3C//DTD SVG 1.1//EN"
  "http://www.w3.org/Graphics/SVG/1.1/DTD/svg11.dtd">
<!-- Created with matplotlib (http://matplotlib.org/) -->
<svg height="510.471875pt" version="1.1" viewBox="0 0 661.069687 510.471875" width="661.069687pt" xmlns="http://www.w3.org/2000/svg" xmlns:xlink="http://www.w3.org/1999/xlink">
 <defs>
  <style type="text/css">
*{stroke-linecap:butt;stroke-linejoin:round;}
  </style>
 </defs>
 <g id="figure_1">
  <g id="patch_1">
   <path d="M 0 510.471875 
L 661.069687 510.471875 
L 661.069687 0 
L 0 0 
z
" style="fill:#ffffff;"/>
  </g>
  <g id="axes_1">
   <g id="patch_2">
    <path d="M 76.733125 450.72 
L 634.733125 450.72 
L 634.733125 7.2 
L 76.733125 7.2 
z
" style="fill:#ffffff;"/>
   </g>
   <g id="patch_3">
    <path clip-path="url(#p6e1ab5511e)" d="M -16.266875 450.72 
L 4.22465 450.72 
L 4.22465 450.001633 
L -16.266875 450.001633 
z
" style="fill:#1a1a1a;stroke:#000000;stroke-linejoin:miter;"/>
   </g>
   <g id="patch_4">
    <path clip-path="url(#p6e1ab5511e)" d="M 4.22465 450.72 
L 24.716176 450.72 
L 24.716176 448.564898 
L 4.22465 448.564898 
z
" style="fill:#1a1a1a;stroke:#000000;stroke-linejoin:miter;"/>
   </g>
   <g id="patch_5">
    <path clip-path="url(#p6e1ab5511e)" d="M 24.716176 450.72 
L 45.207701 450.72 
L 45.207701 447.846531 
L 24.716176 447.846531 
z
" style="fill:#1a1a1a;stroke:#000000;stroke-linejoin:miter;"/>
   </g>
   <g id="patch_6">
    <path clip-path="url(#p6e1ab5511e)" d="M 45.207701 450.72 
L 65.699227 450.72 
L 65.699227 437.789388 
L 45.207701 437.789388 
z
" style="fill:#1a1a1a;stroke:#000000;stroke-linejoin:miter;"/>
   </g>
   <g id="patch_7">
    <path clip-path="url(#p6e1ab5511e)" d="M 65.699227 450.72 
L 86.190752 450.72 
L 86.190752 422.703673 
L 65.699227 422.703673 
z
" style="fill:#1a1a1a;stroke:#000000;stroke-linejoin:miter;"/>
   </g>
   <g id="patch_8">
    <path clip-path="url(#p6e1ab5511e)" d="M 86.190752 450.72 
L 106.682278 450.72 
L 106.682278 410.491429 
L 86.190752 410.491429 
z
" style="fill:#1a1a1a;stroke:#000000;stroke-linejoin:miter;"/>
   </g>
   <g id="patch_9">
    <path clip-path="url(#p6e1ab5511e)" d="M 106.682278 450.72 
L 127.173803 450.72 
L 127.173803 384.630204 
L 106.682278 384.630204 
z
" style="fill:#1a1a1a;stroke:#000000;stroke-linejoin:miter;"/>
   </g>
   <g id="patch_10">
    <path clip-path="url(#p6e1ab5511e)" d="M 127.173803 450.72 
L 147.665328 450.72 
L 147.665328 360.924082 
L 127.173803 360.924082 
z
" style="fill:#1a1a1a;stroke:#000000;stroke-linejoin:miter;"/>
   </g>
   <g id="patch_11">
    <path clip-path="url(#p6e1ab5511e)" d="M 147.665328 450.72 
L 168.156854 450.72 
L 168.156854 330.752653 
L 147.665328 330.752653 
z
" style="fill:#1a1a1a;stroke:#000000;stroke-linejoin:miter;"/>
   </g>
   <g id="patch_12">
    <path clip-path="url(#p6e1ab5511e)" d="M 168.156854 450.72 
L 188.648379 450.72 
L 188.648379 312.793469 
L 168.156854 312.793469 
z
" style="fill:#1a1a1a;stroke:#000000;stroke-linejoin:miter;"/>
   </g>
   <g id="patch_13">
    <path clip-path="url(#p6e1ab5511e)" d="M 188.648379 450.72 
L 209.139905 450.72 
L 209.139905 269.691429 
L 188.648379 269.691429 
z
" style="fill:#1a1a1a;stroke:#000000;stroke-linejoin:miter;"/>
   </g>
   <g id="patch_14">
    <path clip-path="url(#p6e1ab5511e)" d="M 209.139905 450.72 
L 229.63143 450.72 
L 229.63143 235.209796 
L 209.139905 235.209796 
z
" style="fill:#1a1a1a;stroke:#000000;stroke-linejoin:miter;"/>
   </g>
   <g id="patch_15">
    <path clip-path="url(#p6e1ab5511e)" d="M 229.63143 450.72 
L 250.122956 450.72 
L 250.122956 212.940408 
L 229.63143 212.940408 
z
" style="fill:#1a1a1a;stroke:#000000;stroke-linejoin:miter;"/>
   </g>
   <g id="patch_16">
    <path clip-path="url(#p6e1ab5511e)" d="M 250.122956 450.72 
L 270.614481 450.72 
L 270.614481 184.924082 
L 250.122956 184.924082 
z
" style="fill:#1a1a1a;stroke:#000000;stroke-linejoin:miter;"/>
   </g>
   <g id="patch_17">
    <path clip-path="url(#p6e1ab5511e)" d="M 270.614481 450.72 
L 291.106006 450.72 
L 291.106006 159.062857 
L 270.614481 159.062857 
z
" style="fill:#1a1a1a;stroke:#000000;stroke-linejoin:miter;"/>
   </g>
   <g id="patch_18">
    <path clip-path="url(#p6e1ab5511e)" d="M 291.106006 450.72 
L 311.597532 450.72 
L 311.597532 143.258776 
L 291.106006 143.258776 
z
" style="fill:#1a1a1a;stroke:#000000;stroke-linejoin:miter;"/>
   </g>
   <g id="patch_19">
    <path clip-path="url(#p6e1ab5511e)" d="M 311.597532 450.72 
L 332.089057 450.72 
L 332.089057 92.973061 
L 311.597532 92.973061 
z
" style="fill:#1a1a1a;stroke:#000000;stroke-linejoin:miter;"/>
   </g>
   <g id="patch_20">
    <path clip-path="url(#p6e1ab5511e)" d="M 332.089057 450.72 
L 352.580583 450.72 
L 352.580583 104.466939 
L 332.089057 104.466939 
z
" style="fill:#1a1a1a;stroke:#000000;stroke-linejoin:miter;"/>
   </g>
   <g id="patch_21">
    <path clip-path="url(#p6e1ab5511e)" d="M 352.580583 450.72 
L 373.072108 450.72 
L 373.072108 86.507755 
L 352.580583 86.507755 
z
" style="fill:#1a1a1a;stroke:#000000;stroke-linejoin:miter;"/>
   </g>
   <g id="patch_22">
    <path clip-path="url(#p6e1ab5511e)" d="M 373.072108 450.72 
L 393.563633 450.72 
L 393.563633 46.279184 
L 373.072108 46.279184 
z
" style="fill:#1a1a1a;stroke:#000000;stroke-linejoin:miter;"/>
   </g>
   <g id="patch_23">
    <path clip-path="url(#p6e1ab5511e)" d="M 393.563633 450.72 
L 414.055159 450.72 
L 414.055159 28.32 
L 393.563633 28.32 
z
" style="fill:#1a1a1a;stroke:#000000;stroke-linejoin:miter;"/>
   </g>
   <g id="patch_24">
    <path clip-path="url(#p6e1ab5511e)" d="M 414.055159 450.72 
L 434.546684 450.72 
L 434.546684 48.434286 
L 414.055159 48.434286 
z
" style="fill:#1a1a1a;stroke:#000000;stroke-linejoin:miter;"/>
   </g>
   <g id="patch_25">
    <path clip-path="url(#p6e1ab5511e)" d="M 434.546684 450.72 
L 455.03821 450.72 
L 455.03821 82.915918 
L 434.546684 82.915918 
z
" style="fill:#1a1a1a;stroke:#000000;stroke-linejoin:miter;"/>
   </g>
   <g id="patch_26">
    <path clip-path="url(#p6e1ab5511e)" d="M 455.03821 450.72 
L 475.529735 450.72 
L 475.529735 124.581224 
L 455.03821 124.581224 
z
" style="fill:#1a1a1a;stroke:#000000;stroke-linejoin:miter;"/>
   </g>
   <g id="patch_27">
    <path clip-path="url(#p6e1ab5511e)" d="M 475.529735 450.72 
L 496.021261 450.72 
L 496.021261 216.532245 
L 475.529735 216.532245 
z
" style="fill:#1a1a1a;stroke:#000000;stroke-linejoin:miter;"/>
   </g>
   <g id="patch_28">
    <path clip-path="url(#p6e1ab5511e)" d="M 496.021261 450.72 
L 516.512786 450.72 
L 516.512786 289.087347 
L 496.021261 289.087347 
z
" style="fill:#1a1a1a;stroke:#000000;stroke-linejoin:miter;"/>
   </g>
   <g id="patch_29">
    <path clip-path="url(#p6e1ab5511e)" d="M 516.512786 450.72 
L 537.004311 450.72 
L 537.004311 331.47102 
L 516.512786 331.47102 
z
" style="fill:#1a1a1a;stroke:#000000;stroke-linejoin:miter;"/>
   </g>
   <g id="patch_30">
    <path clip-path="url(#p6e1ab5511e)" d="M 537.004311 450.72 
L 557.495837 450.72 
L 557.495837 375.291429 
L 537.004311 375.291429 
z
" style="fill:#1a1a1a;stroke:#000000;stroke-linejoin:miter;"/>
   </g>
   <g id="patch_31">
    <path clip-path="url(#p6e1ab5511e)" d="M 557.495837 450.72 
L 577.987362 450.72 
L 577.987362 407.617959 
L 557.495837 407.617959 
z
" style="fill:#1a1a1a;stroke:#000000;stroke-linejoin:miter;"/>
   </g>
   <g id="patch_32">
    <path clip-path="url(#p6e1ab5511e)" d="M 577.987362 450.72 
L 598.478888 450.72 
L 598.478888 414.801633 
L 577.987362 414.801633 
z
" style="fill:#1a1a1a;stroke:#000000;stroke-linejoin:miter;"/>
   </g>
   <g id="patch_33">
    <path clip-path="url(#p6e1ab5511e)" d="M 598.478888 450.72 
L 618.970413 450.72 
L 618.970413 428.450612 
L 598.478888 428.450612 
z
" style="fill:#1a1a1a;stroke:#000000;stroke-linejoin:miter;"/>
   </g>
   <g id="patch_34">
    <path clip-path="url(#p6e1ab5511e)" d="M 618.970413 450.72 
L 639.461939 450.72 
L 639.461939 434.915918 
L 618.970413 434.915918 
z
" style="fill:#1a1a1a;stroke:#000000;stroke-linejoin:miter;"/>
   </g>
   <g id="patch_35">
    <path clip-path="url(#p6e1ab5511e)" d="M 639.461939 450.72 
L 659.953464 450.72 
L 659.953464 439.94449 
L 639.461939 439.94449 
z
" style="fill:#1a1a1a;stroke:#000000;stroke-linejoin:miter;"/>
   </g>
   <g id="patch_36">
    <path clip-path="url(#p6e1ab5511e)" d="M 659.953464 450.72 
L 680.444989 450.72 
L 680.444989 439.226122 
L 659.953464 439.226122 
z
" style="fill:#1a1a1a;stroke:#000000;stroke-linejoin:miter;"/>
   </g>
   <g id="patch_37">
    <path clip-path="url(#p6e1ab5511e)" d="M 680.444989 450.72 
L 700.936515 450.72 
L 700.936515 447.846531 
L 680.444989 447.846531 
z
" style="fill:#1a1a1a;stroke:#000000;stroke-linejoin:miter;"/>
   </g>
   <g id="patch_38">
    <path clip-path="url(#p6e1ab5511e)" d="M 700.936515 450.72 
L 721.42804 450.72 
L 721.42804 442.817959 
L 700.936515 442.817959 
z
" style="fill:#1a1a1a;stroke:#000000;stroke-linejoin:miter;"/>
   </g>
   <g id="patch_39">
    <path clip-path="url(#p6e1ab5511e)" d="M 721.42804 450.72 
L 741.919566 450.72 
L 741.919566 445.691429 
L 721.42804 445.691429 
z
" style="fill:#1a1a1a;stroke:#000000;stroke-linejoin:miter;"/>
   </g>
   <g id="patch_40">
    <path clip-path="url(#p6e1ab5511e)" d="M 741.919566 450.72 
L 762.411091 450.72 
L 762.411091 444.254694 
L 741.919566 444.254694 
z
" style="fill:#1a1a1a;stroke:#000000;stroke-linejoin:miter;"/>
   </g>
   <g id="patch_41">
    <path clip-path="url(#p6e1ab5511e)" d="M 762.411091 450.72 
L 782.902617 450.72 
L 782.902617 447.128163 
L 762.411091 447.128163 
z
" style="fill:#1a1a1a;stroke:#000000;stroke-linejoin:miter;"/>
   </g>
   <g id="patch_42">
    <path clip-path="url(#p6e1ab5511e)" d="M 782.902617 450.72 
L 803.394142 450.72 
L 803.394142 449.283265 
L 782.902617 449.283265 
z
" style="fill:#1a1a1a;stroke:#000000;stroke-linejoin:miter;"/>
   </g>
   <g id="patch_43">
    <path clip-path="url(#p6e1ab5511e)" d="M 803.394142 450.72 
L 823.885667 450.72 
L 823.885667 446.409796 
L 803.394142 446.409796 
z
" style="fill:#1a1a1a;stroke:#000000;stroke-linejoin:miter;"/>
   </g>
   <g id="patch_44">
    <path clip-path="url(#p6e1ab5511e)" d="M 823.885667 450.72 
L 844.377193 450.72 
L 844.377193 449.283265 
L 823.885667 449.283265 
z
" style="fill:#1a1a1a;stroke:#000000;stroke-linejoin:miter;"/>
   </g>
   <g id="patch_45">
    <path clip-path="url(#p6e1ab5511e)" d="M 844.377193 450.72 
L 864.868718 450.72 
L 864.868718 450.001633 
L 844.377193 450.001633 
z
" style="fill:#1a1a1a;stroke:#000000;stroke-linejoin:miter;"/>
   </g>
   <g id="patch_46">
    <path clip-path="url(#p6e1ab5511e)" d="M 864.868718 450.72 
L 885.360244 450.72 
L 885.360244 450.001633 
L 864.868718 450.001633 
z
" style="fill:#1a1a1a;stroke:#000000;stroke-linejoin:miter;"/>
   </g>
   <g id="patch_47">
    <path clip-path="url(#p6e1ab5511e)" d="M 885.360244 450.72 
L 905.851769 450.72 
L 905.851769 450.001633 
L 885.360244 450.001633 
z
" style="fill:#1a1a1a;stroke:#000000;stroke-linejoin:miter;"/>
   </g>
   <g id="patch_48">
    <path clip-path="url(#p6e1ab5511e)" d="M 905.851769 450.72 
L 926.343294 450.72 
L 926.343294 450.001633 
L 905.851769 450.001633 
z
" style="fill:#1a1a1a;stroke:#000000;stroke-linejoin:miter;"/>
   </g>
   <g id="patch_49">
    <path clip-path="url(#p6e1ab5511e)" d="M 926.343294 450.72 
L 946.83482 450.72 
L 946.83482 450.001633 
L 926.343294 450.001633 
z
" style="fill:#1a1a1a;stroke:#000000;stroke-linejoin:miter;"/>
   </g>
   <g id="patch_50">
    <path clip-path="url(#p6e1ab5511e)" d="M 946.83482 450.72 
L 967.326345 450.72 
L 967.326345 450.72 
L 946.83482 450.72 
z
" style="fill:#1a1a1a;stroke:#000000;stroke-linejoin:miter;"/>
   </g>
   <g id="patch_51">
    <path clip-path="url(#p6e1ab5511e)" d="M 967.326345 450.72 
L 987.817871 450.72 
L 987.817871 450.72 
L 967.326345 450.72 
z
" style="fill:#1a1a1a;stroke:#000000;stroke-linejoin:miter;"/>
   </g>
   <g id="patch_52">
    <path clip-path="url(#p6e1ab5511e)" d="M 987.817871 450.72 
L 1008.309396 450.72 
L 1008.309396 450.72 
L 987.817871 450.72 
z
" style="fill:#1a1a1a;stroke:#000000;stroke-linejoin:miter;"/>
   </g>
   <g id="patch_53">
    <path clip-path="url(#p6e1ab5511e)" d="M 1008.309396 450.72 
L 1028.800922 450.72 
L 1028.800922 450.72 
L 1008.309396 450.72 
z
" style="fill:#1a1a1a;stroke:#000000;stroke-linejoin:miter;"/>
   </g>
   <g id="patch_54">
    <path clip-path="url(#p6e1ab5511e)" d="M 1028.800922 450.72 
L 1049.292447 450.72 
L 1049.292447 450.72 
L 1028.800922 450.72 
z
" style="fill:#1a1a1a;stroke:#000000;stroke-linejoin:miter;"/>
   </g>
   <g id="patch_55">
    <path clip-path="url(#p6e1ab5511e)" d="M 1049.292447 450.72 
L 1069.783972 450.72 
L 1069.783972 450.72 
L 1049.292447 450.72 
z
" style="fill:#1a1a1a;stroke:#000000;stroke-linejoin:miter;"/>
   </g>
   <g id="patch_56">
    <path clip-path="url(#p6e1ab5511e)" d="M 1069.783972 450.72 
L 1090.275498 450.72 
L 1090.275498 450.72 
L 1069.783972 450.72 
z
" style="fill:#1a1a1a;stroke:#000000;stroke-linejoin:miter;"/>
   </g>
   <g id="patch_57">
    <path clip-path="url(#p6e1ab5511e)" d="M 1090.275498 450.72 
L 1110.767023 450.72 
L 1110.767023 450.001633 
L 1090.275498 450.001633 
z
" style="fill:#1a1a1a;stroke:#000000;stroke-linejoin:miter;"/>
   </g>
   <g id="patch_58">
    <path clip-path="url(#p6e1ab5511e)" d="M 1110.767023 450.72 
L 1131.258549 450.72 
L 1131.258549 450.72 
L 1110.767023 450.72 
z
" style="fill:#1a1a1a;stroke:#000000;stroke-linejoin:miter;"/>
   </g>
   <g id="patch_59">
    <path clip-path="url(#p6e1ab5511e)" d="M 1131.258549 450.72 
L 1151.750074 450.72 
L 1151.750074 450.72 
L 1131.258549 450.72 
z
" style="fill:#1a1a1a;stroke:#000000;stroke-linejoin:miter;"/>
   </g>
   <g id="patch_60">
    <path clip-path="url(#p6e1ab5511e)" d="M 1151.750074 450.72 
L 1172.2416 450.72 
L 1172.2416 450.72 
L 1151.750074 450.72 
z
" style="fill:#1a1a1a;stroke:#000000;stroke-linejoin:miter;"/>
   </g>
   <g id="patch_61">
    <path clip-path="url(#p6e1ab5511e)" d="M 1172.2416 450.72 
L 1192.733125 450.72 
L 1192.733125 450.72 
L 1172.2416 450.72 
z
" style="fill:#1a1a1a;stroke:#000000;stroke-linejoin:miter;"/>
   </g>
   <g id="matplotlib.axis_1">
    <g id="xtick_1">
     <g id="line2d_1">
      <defs>
       <path d="M 0 0 
L 0 -6 
" id="m04cae05e2c" style="stroke:#333333;stroke-width:0.8;"/>
      </defs>
      <g>
       <use style="fill:#333333;stroke:#333333;stroke-width:0.8;" x="76.733125" xlink:href="#m04cae05e2c" y="450.72"/>
      </g>
     </g>
     <g id="text_1">
      <!-- −3.0 -->
      <defs>
       <path d="M 10.59375 36.921875 
L 73.1875 36.921875 
L 73.1875 25.6875 
L 10.59375 25.6875 
z
" id="DejaVuSerif-Bold-2212"/>
       <path d="M 8.59375 70.796875 
Q 15.046875 72.515625 21.09375 73.359375 
Q 27.15625 74.21875 32.90625 74.21875 
Q 46.09375 74.21875 53.140625 69.5 
Q 60.203125 64.796875 60.203125 56 
Q 60.203125 49.421875 56.140625 45.3125 
Q 52.09375 41.21875 44.28125 39.796875 
Q 53.8125 38.28125 58.5 33.296875 
Q 63.1875 28.328125 63.1875 19.671875 
Q 63.1875 9.46875 55.09375 4.015625 
Q 47.015625 -1.421875 31.6875 -1.421875 
Q 25.921875 -1.421875 19.796875 -0.4375 
Q 13.671875 0.53125 6.984375 2.484375 
L 6.984375 18.5 
L 12.890625 18.5 
Q 13.421875 11.578125 17.234375 7.9375 
Q 21.046875 4.296875 27.78125 4.296875 
Q 35.203125 4.296875 39.25 8.421875 
Q 43.3125 12.546875 43.3125 20.125 
Q 43.3125 28.03125 39.078125 32.328125 
Q 34.859375 36.625 27.09375 36.625 
L 23.875 36.625 
L 23.875 42.484375 
L 26.421875 42.484375 
Q 33.59375 42.484375 37.203125 45.796875 
Q 40.828125 49.125 40.828125 55.71875 
Q 40.828125 61.921875 37.421875 65.203125 
Q 34.03125 68.5 27.6875 68.5 
Q 21.921875 68.5 18.546875 65.34375 
Q 15.1875 62.203125 14.5 56.203125 
L 8.59375 56.203125 
z
" id="DejaVuSerif-Bold-33"/>
       <path d="M 8.109375 7.90625 
Q 8.109375 11.71875 10.84375 14.453125 
Q 13.578125 17.1875 17.390625 17.1875 
Q 21.234375 17.1875 23.96875 14.453125 
Q 26.703125 11.71875 26.703125 7.90625 
Q 26.703125 4.046875 23.96875 1.3125 
Q 21.234375 -1.421875 17.390625 -1.421875 
Q 13.578125 -1.421875 10.84375 1.3125 
Q 8.109375 4.046875 8.109375 7.90625 
z
" id="DejaVuSerif-Bold-2e"/>
       <path d="M 34.8125 4.296875 
Q 40.671875 4.296875 42.84375 9.609375 
Q 45.015625 14.9375 45.015625 36.375 
Q 45.015625 57.671875 42.84375 63.078125 
Q 40.671875 68.5 34.8125 68.5 
Q 28.953125 68.5 26.78125 63.171875 
Q 24.609375 57.859375 24.609375 36.375 
Q 24.609375 14.9375 26.78125 9.609375 
Q 28.953125 4.296875 34.8125 4.296875 
z
M 34.8125 -1.421875 
Q 20.21875 -1.421875 12.453125 8.3125 
Q 4.6875 18.0625 4.6875 36.375 
Q 4.6875 54.6875 12.453125 64.453125 
Q 20.21875 74.21875 34.8125 74.21875 
Q 49.359375 74.21875 57.125 64.453125 
Q 64.890625 54.6875 64.890625 36.375 
Q 64.890625 18.0625 57.125 8.3125 
Q 49.359375 -1.421875 34.8125 -1.421875 
z
" id="DejaVuSerif-Bold-30"/>
      </defs>
      <g style="fill:#333333;" transform="translate(48.378906 470.936562)scale(0.22 -0.22)">
       <use xlink:href="#DejaVuSerif-Bold-2212"/>
       <use x="83.789062" xlink:href="#DejaVuSerif-Bold-33"/>
       <use x="153.369141" xlink:href="#DejaVuSerif-Bold-2e"/>
       <use x="188.183594" xlink:href="#DejaVuSerif-Bold-30"/>
      </g>
     </g>
    </g>
    <g id="xtick_2">
     <g id="line2d_2">
      <g>
       <use style="fill:#333333;stroke:#333333;stroke-width:0.8;" x="169.733125" xlink:href="#m04cae05e2c" y="450.72"/>
      </g>
     </g>
     <g id="text_2">
      <!-- −2.5 -->
      <defs>
       <path d="M 13.1875 54.890625 
L 7.328125 54.890625 
L 7.328125 70.609375 
Q 13.28125 72.40625 19.109375 73.3125 
Q 24.953125 74.21875 30.90625 74.21875 
Q 44.828125 74.21875 52.609375 68.53125 
Q 60.40625 62.84375 60.40625 52.6875 
Q 60.40625 45.453125 56.109375 39.71875 
Q 51.8125 33.984375 39.703125 26.125 
L 19.390625 12.796875 
L 53.90625 12.796875 
L 53.90625 21.390625 
L 60.59375 21.390625 
L 60.59375 0 
L 6.6875 0 
L 6.6875 11.921875 
L 17.484375 19.390625 
Q 31.296875 28.90625 35.890625 35.59375 
Q 40.484375 42.28125 40.484375 51.21875 
Q 40.484375 59.671875 36.984375 64.078125 
Q 33.5 68.5 26.8125 68.5 
Q 21.046875 68.5 17.578125 65.015625 
Q 14.109375 61.53125 13.1875 54.890625 
z
" id="DejaVuSerif-Bold-32"/>
       <path d="M 56.390625 72.90625 
L 56.390625 60.109375 
L 17.390625 60.109375 
L 17.390625 44.09375 
Q 20.609375 46.578125 24.5625 47.84375 
Q 28.515625 49.125 32.90625 49.125 
Q 46.390625 49.125 54.203125 42.3125 
Q 62.015625 35.5 62.015625 23.78125 
Q 62.015625 11.859375 54.203125 5.21875 
Q 46.390625 -1.421875 32.328125 -1.421875 
Q 26.375 -1.421875 20.484375 -0.4375 
Q 14.59375 0.53125 8.203125 2.59375 
L 8.203125 18.5 
L 14.0625 18.5 
Q 14.359375 11.328125 17.796875 7.8125 
Q 21.234375 4.296875 27.984375 4.296875 
Q 35.15625 4.296875 38.625 9.109375 
Q 42.09375 13.921875 42.09375 23.78125 
Q 42.09375 33.5 38.6875 38.296875 
Q 35.296875 43.109375 28.421875 43.109375 
Q 24.703125 43.109375 21.796875 41.578125 
Q 18.890625 40.046875 16.40625 36.8125 
L 11.53125 36.8125 
L 11.53125 72.90625 
z
" id="DejaVuSerif-Bold-35"/>
      </defs>
      <g style="fill:#333333;" transform="translate(141.378906 470.936562)scale(0.22 -0.22)">
       <use xlink:href="#DejaVuSerif-Bold-2212"/>
       <use x="83.789062" xlink:href="#DejaVuSerif-Bold-32"/>
       <use x="153.369141" xlink:href="#DejaVuSerif-Bold-2e"/>
       <use x="188.183594" xlink:href="#DejaVuSerif-Bold-35"/>
      </g>
     </g>
    </g>
    <g id="xtick_3">
     <g id="line2d_3">
      <g>
       <use style="fill:#333333;stroke:#333333;stroke-width:0.8;" x="262.733125" xlink:href="#m04cae05e2c" y="450.72"/>
      </g>
     </g>
     <g id="text_3">
      <!-- −2.0 -->
      <g style="fill:#333333;" transform="translate(234.378906 470.936562)scale(0.22 -0.22)">
       <use xlink:href="#DejaVuSerif-Bold-2212"/>
       <use x="83.789062" xlink:href="#DejaVuSerif-Bold-32"/>
       <use x="153.369141" xlink:href="#DejaVuSerif-Bold-2e"/>
       <use x="188.183594" xlink:href="#DejaVuSerif-Bold-30"/>
      </g>
     </g>
    </g>
    <g id="xtick_4">
     <g id="line2d_4">
      <g>
       <use style="fill:#333333;stroke:#333333;stroke-width:0.8;" x="355.733125" xlink:href="#m04cae05e2c" y="450.72"/>
      </g>
     </g>
     <g id="text_4">
      <!-- −1.5 -->
      <defs>
       <path d="M 13.71875 0 
L 13.71875 5.90625 
L 27.390625 5.90625 
L 27.390625 64.890625 
L 12.203125 55.90625 
L 12.203125 63.1875 
L 30.515625 74.21875 
L 45.90625 74.21875 
L 45.90625 5.90625 
L 59.625 5.90625 
L 59.625 0 
z
" id="DejaVuSerif-Bold-31"/>
      </defs>
      <g style="fill:#333333;" transform="translate(327.378906 470.936562)scale(0.22 -0.22)">
       <use xlink:href="#DejaVuSerif-Bold-2212"/>
       <use x="83.789062" xlink:href="#DejaVuSerif-Bold-31"/>
       <use x="153.369141" xlink:href="#DejaVuSerif-Bold-2e"/>
       <use x="188.183594" xlink:href="#DejaVuSerif-Bold-35"/>
      </g>
     </g>
    </g>
    <g id="xtick_5">
     <g id="line2d_5">
      <g>
       <use style="fill:#333333;stroke:#333333;stroke-width:0.8;" x="448.733125" xlink:href="#m04cae05e2c" y="450.72"/>
      </g>
     </g>
     <g id="text_5">
      <!-- −1.0 -->
      <g style="fill:#333333;" transform="translate(420.378906 470.936562)scale(0.22 -0.22)">
       <use xlink:href="#DejaVuSerif-Bold-2212"/>
       <use x="83.789062" xlink:href="#DejaVuSerif-Bold-31"/>
       <use x="153.369141" xlink:href="#DejaVuSerif-Bold-2e"/>
       <use x="188.183594" xlink:href="#DejaVuSerif-Bold-30"/>
      </g>
     </g>
    </g>
    <g id="xtick_6">
     <g id="line2d_6">
      <g>
       <use style="fill:#333333;stroke:#333333;stroke-width:0.8;" x="541.733125" xlink:href="#m04cae05e2c" y="450.72"/>
      </g>
     </g>
     <g id="text_6">
      <!-- −0.5 -->
      <g style="fill:#333333;" transform="translate(513.378906 470.936562)scale(0.22 -0.22)">
       <use xlink:href="#DejaVuSerif-Bold-2212"/>
       <use x="83.789062" xlink:href="#DejaVuSerif-Bold-30"/>
       <use x="153.369141" xlink:href="#DejaVuSerif-Bold-2e"/>
       <use x="188.183594" xlink:href="#DejaVuSerif-Bold-35"/>
      </g>
     </g>
    </g>
    <g id="xtick_7">
     <g id="line2d_7">
      <g>
       <use style="fill:#333333;stroke:#333333;stroke-width:0.8;" x="634.733125" xlink:href="#m04cae05e2c" y="450.72"/>
      </g>
     </g>
     <g id="text_7">
      <!-- 0.0 -->
      <g style="fill:#333333;" transform="translate(615.596563 470.936562)scale(0.22 -0.22)">
       <use xlink:href="#DejaVuSerif-Bold-30"/>
       <use x="69.580078" xlink:href="#DejaVuSerif-Bold-2e"/>
       <use x="104.394531" xlink:href="#DejaVuSerif-Bold-30"/>
      </g>
     </g>
    </g>
    <g id="text_8">
     <!-- $Log[a_s/pc]$ -->
     <defs>
      <path d="M 4.6875 0 
L 4.6875 5.90625 
L 14.015625 5.90625 
L 14.015625 67 
L 4.6875 67 
L 4.6875 72.90625 
L 42.1875 72.90625 
L 42.1875 67 
L 32.8125 67 
L 32.8125 6.6875 
L 61.53125 6.6875 
L 61.53125 18.21875 
L 68.109375 18.21875 
L 68.109375 0 
z
" id="DejaVuSerif-Bold-4c"/>
      <path d="M 33.40625 4.109375 
Q 38.875 4.109375 41.09375 8.796875 
Q 43.3125 13.484375 43.3125 25.984375 
Q 43.3125 38.484375 41.109375 43.140625 
Q 38.921875 47.796875 33.40625 47.796875 
Q 27.875 47.796875 25.625 43.078125 
Q 23.390625 38.375 23.390625 25.984375 
Q 23.390625 13.578125 25.625 8.84375 
Q 27.875 4.109375 33.40625 4.109375 
z
M 33.40625 -1.421875 
Q 19.671875 -1.421875 11.890625 5.875 
Q 4.109375 13.1875 4.109375 25.984375 
Q 4.109375 38.8125 11.890625 46.0625 
Q 19.671875 53.328125 33.40625 53.328125 
Q 47.171875 53.328125 54.9375 46.0625 
Q 62.703125 38.8125 62.703125 25.984375 
Q 62.703125 13.1875 54.90625 5.875 
Q 47.125 -1.421875 33.40625 -1.421875 
z
" id="DejaVuSerif-Bold-6f"/>
      <path d="M 60.203125 46 
L 60.203125 0.6875 
Q 60.203125 -10.25 52.40625 -16.234375 
Q 44.625 -22.21875 30.421875 -22.21875 
Q 25.25 -22.21875 19.921875 -21.40625 
Q 14.59375 -20.609375 8.984375 -19 
L 8.984375 -6.59375 
L 14.5 -6.59375 
Q 15.234375 -11.71875 18.625 -14.203125 
Q 22.015625 -16.703125 28.328125 -16.703125 
Q 36.328125 -16.703125 39.625 -12.859375 
Q 42.921875 -9.03125 42.921875 0.6875 
L 42.921875 6.59375 
Q 40.71875 2.546875 36.984375 0.5625 
Q 33.25 -1.421875 27.78125 -1.421875 
Q 16.75 -1.421875 10.421875 5.90625 
Q 4.109375 13.234375 4.109375 25.984375 
Q 4.109375 38.765625 10.421875 46.046875 
Q 16.75 53.328125 27.78125 53.328125 
Q 33.25 53.328125 36.984375 51.34375 
Q 40.71875 49.359375 42.921875 45.3125 
L 42.921875 51.90625 
L 67.578125 51.90625 
L 67.578125 46 
z
M 42.921875 28.515625 
Q 42.921875 37.59375 40.578125 41.640625 
Q 38.234375 45.703125 33.109375 45.703125 
Q 27.734375 45.703125 25.5625 41.421875 
Q 23.390625 37.15625 23.390625 25.984375 
Q 23.390625 14.796875 25.578125 10.5 
Q 27.78125 6.203125 33.109375 6.203125 
Q 38.234375 6.203125 40.578125 10.25 
Q 42.921875 14.3125 42.921875 23.390625 
z
" id="DejaVuSerif-Bold-67"/>
      <path d="M 12.5 75.984375 
L 40.1875 75.984375 
L 40.1875 70.125 
L 29.78125 70.125 
L 29.78125 -7.328125 
L 40.1875 -7.328125 
L 40.1875 -13.1875 
L 12.5 -13.1875 
z
" id="DejaVuSerif-Bold-5b"/>
      <path d="M 55.078125 31.890625 
L 55.078125 5.90625 
L 62.5 5.90625 
L 62.5 0 
L 37.796875 0 
L 37.796875 6.59375 
Q 34.375 2.484375 30.171875 0.53125 
Q 25.984375 -1.421875 20.609375 -1.421875 
Q 12.640625 -1.421875 8.375 2.84375 
Q 4.109375 7.125 4.109375 15.09375 
Q 4.109375 23.828125 10.234375 28.171875 
Q 16.359375 32.515625 28.71875 32.515625 
L 37.796875 32.515625 
L 37.796875 35.59375 
Q 37.796875 41.890625 34.8125 44.890625 
Q 31.84375 47.90625 25.59375 47.90625 
Q 20.40625 47.90625 17.59375 45.78125 
Q 14.796875 43.65625 13.625 38.8125 
L 8.109375 38.8125 
L 8.109375 50 
Q 12.75 51.65625 17.71875 52.484375 
Q 22.703125 53.328125 28.21875 53.328125 
Q 42.140625 53.328125 48.609375 48.140625 
Q 55.078125 42.96875 55.078125 31.890625 
z
M 37.796875 16.3125 
L 37.796875 26.703125 
L 31.296875 26.703125 
Q 26.46875 26.703125 23.875 24.0625 
Q 21.296875 21.4375 21.296875 16.5 
Q 21.296875 11.578125 23.171875 9.125 
Q 25.046875 6.6875 28.90625 6.6875 
Q 32.90625 6.6875 35.34375 9.328125 
Q 37.796875 11.96875 37.796875 16.3125 
z
" id="DejaVuSerif-Bold-61"/>
      <path d="M 4.6875 1.515625 
L 4.6875 16.015625 
L 10.203125 16.015625 
Q 10.890625 10.203125 14.546875 7.15625 
Q 18.21875 4.109375 24.515625 4.109375 
Q 29.78125 4.109375 32.59375 5.9375 
Q 35.40625 7.765625 35.40625 11.1875 
Q 35.40625 14.3125 33.625 16.015625 
Q 31.84375 17.71875 26.703125 19 
L 19.578125 20.796875 
Q 11.53125 22.796875 7.90625 26.53125 
Q 4.296875 30.28125 4.296875 36.625 
Q 4.296875 45.0625 10.15625 49.1875 
Q 16.015625 53.328125 28.21875 53.328125 
Q 32.8125 53.328125 38.015625 52.5625 
Q 43.21875 51.8125 49.515625 50.203125 
L 49.515625 37.109375 
L 44 37.109375 
Q 43.5625 42.4375 40.203125 45.109375 
Q 36.859375 47.796875 30.609375 47.796875 
Q 25.34375 47.796875 22.625 46.109375 
Q 19.921875 44.4375 19.921875 41.21875 
Q 19.921875 38.578125 21.484375 37.0625 
Q 23.046875 35.546875 27.09375 34.515625 
L 34.1875 32.71875 
Q 44.390625 30.125 48.296875 26.3125 
Q 52.203125 22.515625 52.203125 15.71875 
Q 52.203125 6.9375 45.921875 2.75 
Q 39.65625 -1.421875 26.421875 -1.421875 
Q 21.578125 -1.421875 16.15625 -0.6875 
Q 10.75 0.046875 4.6875 1.515625 
z
" id="DejaVuSerif-Bold-73"/>
      <path d="M 25.6875 72.90625 
L 36.53125 72.90625 
L 10.796875 -9.28125 
L 0 -9.28125 
z
" id="DejaVuSerif-Bold-2f"/>
      <path d="M 27 28.515625 
L 27 23.390625 
Q 27 14.3125 29.3125 10.25 
Q 31.640625 6.203125 36.8125 6.203125 
Q 42.140625 6.203125 44.3125 10.5 
Q 46.484375 14.796875 46.484375 25.984375 
Q 46.484375 37.15625 44.3125 41.421875 
Q 42.140625 45.703125 36.8125 45.703125 
Q 31.640625 45.703125 29.3125 41.640625 
Q 27 37.59375 27 28.515625 
z
M 9.71875 46 
L 2.296875 46 
L 2.296875 51.90625 
L 27 51.90625 
L 27 45.3125 
Q 29.203125 49.359375 32.90625 51.34375 
Q 36.625 53.328125 42.09375 53.328125 
Q 53.171875 53.328125 59.546875 46.015625 
Q 65.921875 38.71875 65.921875 25.984375 
Q 65.921875 13.234375 59.546875 5.90625 
Q 53.171875 -1.421875 42.09375 -1.421875 
Q 36.625 -1.421875 32.90625 0.5625 
Q 29.203125 2.546875 27 6.59375 
L 27 -14.890625 
L 35.015625 -14.890625 
L 35.015625 -20.796875 
L 2.296875 -20.796875 
L 2.296875 -14.890625 
L 9.71875 -14.890625 
z
" id="DejaVuSerif-Bold-70"/>
      <path d="M 56.390625 16.21875 
Q 54.546875 7.328125 48.796875 2.953125 
Q 43.0625 -1.421875 33.203125 -1.421875 
Q 19.34375 -1.421875 11.71875 5.75 
Q 4.109375 12.9375 4.109375 25.984375 
Q 4.109375 38.875 11.625 46.09375 
Q 19.140625 53.328125 32.515625 53.328125 
Q 37.9375 53.328125 43.453125 52.296875 
Q 48.96875 51.265625 54.6875 49.21875 
L 54.6875 34.8125 
L 49.21875 34.8125 
Q 48.4375 41.40625 45.359375 44.59375 
Q 42.28125 47.796875 36.71875 47.796875 
Q 29.5 47.796875 26.4375 42.90625 
Q 23.390625 38.03125 23.390625 25.984375 
Q 23.390625 14.203125 26.359375 9.15625 
Q 29.34375 4.109375 36.078125 4.109375 
Q 41.3125 4.109375 44.453125 7.234375 
Q 47.609375 10.359375 48.296875 16.21875 
z
" id="DejaVuSerif-Bold-63"/>
      <path d="M 34.8125 75.984375 
L 34.8125 -13.1875 
L 7.078125 -13.1875 
L 7.078125 -7.328125 
L 17.484375 -7.328125 
L 17.484375 70.125 
L 7.078125 70.125 
L 7.078125 75.984375 
z
" id="DejaVuSerif-Bold-5d"/>
     </defs>
     <g transform="translate(286.493125 497.751875)scale(0.24 -0.24)">
      <use transform="translate(0 0.015625)" xlink:href="#DejaVuSerif-Bold-4c"/>
      <use transform="translate(70.3125 0.015625)" xlink:href="#DejaVuSerif-Bold-6f"/>
      <use transform="translate(137.011719 0.015625)" xlink:href="#DejaVuSerif-Bold-67"/>
      <use transform="translate(206.933594 0.015625)" xlink:href="#DejaVuSerif-Bold-5b"/>
      <use transform="translate(254.248047 0.015625)" xlink:href="#DejaVuSerif-Bold-61"/>
      <use transform="translate(319.951328 -15.55625)scale(0.7)" xlink:href="#DejaVuSerif-Bold-73"/>
      <use transform="translate(361.95582 0.015625)" xlink:href="#DejaVuSerif-Bold-2f"/>
      <use transform="translate(398.479258 0.015625)" xlink:href="#DejaVuSerif-Bold-70"/>
      <use transform="translate(468.401133 0.015625)" xlink:href="#DejaVuSerif-Bold-63"/>
      <use transform="translate(529.289805 0.015625)" xlink:href="#DejaVuSerif-Bold-5d"/>
     </g>
    </g>
   </g>
   <g id="matplotlib.axis_2">
    <g id="ytick_1">
     <g id="line2d_8">
      <defs>
       <path d="M 0 0 
L 6 0 
" id="mb0f43a0069" style="stroke:#333333;stroke-width:0.8;"/>
      </defs>
      <g>
       <use style="fill:#333333;stroke:#333333;stroke-width:0.8;" x="76.733125" xlink:href="#mb0f43a0069" y="450.72"/>
      </g>
     </g>
     <g id="text_9">
      <!-- 0.0 -->
      <g style="fill:#333333;" transform="translate(34.96 459.078281)scale(0.22 -0.22)">
       <use xlink:href="#DejaVuSerif-Bold-30"/>
       <use x="69.580078" xlink:href="#DejaVuSerif-Bold-2e"/>
       <use x="104.394531" xlink:href="#DejaVuSerif-Bold-30"/>
      </g>
     </g>
    </g>
    <g id="ytick_2">
     <g id="line2d_9">
      <g>
       <use style="fill:#333333;stroke:#333333;stroke-width:0.8;" x="76.733125" xlink:href="#mb0f43a0069" y="387.27964"/>
      </g>
     </g>
     <g id="text_10">
      <!-- 0.1 -->
      <g style="fill:#333333;" transform="translate(34.96 395.637922)scale(0.22 -0.22)">
       <use xlink:href="#DejaVuSerif-Bold-30"/>
       <use x="69.580078" xlink:href="#DejaVuSerif-Bold-2e"/>
       <use x="104.394531" xlink:href="#DejaVuSerif-Bold-31"/>
      </g>
     </g>
    </g>
    <g id="ytick_3">
     <g id="line2d_10">
      <g>
       <use style="fill:#333333;stroke:#333333;stroke-width:0.8;" x="76.733125" xlink:href="#mb0f43a0069" y="323.839281"/>
      </g>
     </g>
     <g id="text_11">
      <!-- 0.2 -->
      <g style="fill:#333333;" transform="translate(34.96 332.197562)scale(0.22 -0.22)">
       <use xlink:href="#DejaVuSerif-Bold-30"/>
       <use x="69.580078" xlink:href="#DejaVuSerif-Bold-2e"/>
       <use x="104.394531" xlink:href="#DejaVuSerif-Bold-32"/>
      </g>
     </g>
    </g>
    <g id="ytick_4">
     <g id="line2d_11">
      <g>
       <use style="fill:#333333;stroke:#333333;stroke-width:0.8;" x="76.733125" xlink:href="#mb0f43a0069" y="260.398921"/>
      </g>
     </g>
     <g id="text_12">
      <!-- 0.3 -->
      <g style="fill:#333333;" transform="translate(34.96 268.757202)scale(0.22 -0.22)">
       <use xlink:href="#DejaVuSerif-Bold-30"/>
       <use x="69.580078" xlink:href="#DejaVuSerif-Bold-2e"/>
       <use x="104.394531" xlink:href="#DejaVuSerif-Bold-33"/>
      </g>
     </g>
    </g>
    <g id="ytick_5">
     <g id="line2d_12">
      <g>
       <use style="fill:#333333;stroke:#333333;stroke-width:0.8;" x="76.733125" xlink:href="#mb0f43a0069" y="196.958561"/>
      </g>
     </g>
     <g id="text_13">
      <!-- 0.4 -->
      <defs>
       <path d="M 63.8125 0 
L 23.6875 0 
L 23.6875 5.90625 
L 34.515625 5.90625 
L 34.515625 19.1875 
L 4.109375 19.1875 
L 4.109375 24.8125 
L 34.625 74.21875 
L 52.984375 74.21875 
L 52.984375 25.484375 
L 65.484375 25.484375 
L 65.484375 19.1875 
L 52.984375 19.1875 
L 52.984375 5.90625 
L 63.8125 5.90625 
z
M 34.515625 25.484375 
L 34.515625 60.890625 
L 12.796875 25.484375 
z
" id="DejaVuSerif-Bold-34"/>
      </defs>
      <g style="fill:#333333;" transform="translate(34.96 205.316842)scale(0.22 -0.22)">
       <use xlink:href="#DejaVuSerif-Bold-30"/>
       <use x="69.580078" xlink:href="#DejaVuSerif-Bold-2e"/>
       <use x="104.394531" xlink:href="#DejaVuSerif-Bold-34"/>
      </g>
     </g>
    </g>
    <g id="ytick_6">
     <g id="line2d_13">
      <g>
       <use style="fill:#333333;stroke:#333333;stroke-width:0.8;" x="76.733125" xlink:href="#mb0f43a0069" y="133.518201"/>
      </g>
     </g>
     <g id="text_14">
      <!-- 0.5 -->
      <g style="fill:#333333;" transform="translate(34.96 141.876483)scale(0.22 -0.22)">
       <use xlink:href="#DejaVuSerif-Bold-30"/>
       <use x="69.580078" xlink:href="#DejaVuSerif-Bold-2e"/>
       <use x="104.394531" xlink:href="#DejaVuSerif-Bold-35"/>
      </g>
     </g>
    </g>
    <g id="ytick_7">
     <g id="line2d_14">
      <g>
       <use style="fill:#333333;stroke:#333333;stroke-width:0.8;" x="76.733125" xlink:href="#mb0f43a0069" y="70.077842"/>
      </g>
     </g>
     <g id="text_15">
      <!-- 0.6 -->
      <defs>
       <path d="M 24.609375 43.21875 
Q 27.78125 45.75 31.703125 47.015625 
Q 35.640625 48.296875 40.28125 48.296875 
Q 51.46875 48.296875 57.828125 41.75 
Q 64.203125 35.203125 64.203125 23.78125 
Q 64.203125 11.71875 57.03125 5.140625 
Q 49.859375 -1.421875 36.625 -1.421875 
Q 21.6875 -1.421875 13.984375 7.59375 
Q 6.296875 16.609375 6.296875 34.078125 
Q 6.296875 53.953125 14.84375 64.078125 
Q 23.390625 74.21875 40.1875 74.21875 
Q 44.578125 74.21875 49.609375 73.484375 
Q 54.640625 72.75 60.40625 71.296875 
L 60.40625 58.40625 
L 54.5 58.40625 
Q 53.265625 63.375 49.875 65.9375 
Q 46.484375 68.5 41.109375 68.5 
Q 32.421875 68.5 28.53125 62.546875 
Q 24.65625 56.59375 24.609375 43.21875 
z
M 35.5 4.296875 
Q 40.53125 4.296875 42.671875 8.5625 
Q 44.828125 12.84375 44.828125 23.390625 
Q 44.828125 33.9375 42.671875 38.203125 
Q 40.53125 42.484375 35.5 42.484375 
Q 30.46875 42.484375 28.34375 38.203125 
Q 26.21875 33.9375 26.21875 23.390625 
Q 26.21875 12.84375 28.34375 8.5625 
Q 30.46875 4.296875 35.5 4.296875 
z
" id="DejaVuSerif-Bold-36"/>
      </defs>
      <g style="fill:#333333;" transform="translate(34.96 78.436123)scale(0.22 -0.22)">
       <use xlink:href="#DejaVuSerif-Bold-30"/>
       <use x="69.580078" xlink:href="#DejaVuSerif-Bold-2e"/>
       <use x="104.394531" xlink:href="#DejaVuSerif-Bold-36"/>
      </g>
     </g>
    </g>
    <g id="text_16">
     <!-- $P(Log[a_s])$ -->
     <defs>
      <path d="M 4.6875 0 
L 4.6875 5.90625 
L 14.015625 5.90625 
L 14.015625 67 
L 4.6875 67 
L 4.6875 72.90625 
L 46.1875 72.90625 
Q 58.34375 72.90625 65.515625 67.109375 
Q 72.703125 61.328125 72.703125 51.609375 
Q 72.703125 41.84375 65.5 36 
Q 58.296875 30.171875 46.1875 30.171875 
L 32.8125 30.171875 
L 32.8125 5.90625 
L 44.578125 5.90625 
L 44.578125 0 
z
M 32.8125 36.078125 
L 38.28125 36.078125 
Q 44.625 36.078125 48.40625 40.296875 
Q 52.203125 44.53125 52.203125 51.609375 
Q 52.203125 58.640625 48.4375 62.8125 
Q 44.671875 67 38.28125 67 
L 32.8125 67 
z
" id="DejaVuSerif-Bold-50"/>
      <path d="M 42.09375 -15.578125 
Q 25.640625 -9.46875 17.53125 1.90625 
Q 9.421875 13.28125 9.421875 30.171875 
Q 9.421875 47.078125 17.421875 58.296875 
Q 25.4375 69.53125 42.09375 75.984375 
L 42.09375 70.125 
Q 34.375 65.4375 30.984375 56.21875 
Q 27.59375 47.015625 27.59375 30.171875 
Q 27.59375 13.375 30.984375 4.171875 
Q 34.375 -5.03125 42.09375 -9.71875 
z
" id="DejaVuSerif-Bold-28"/>
      <path d="M 5.078125 -15.578125 
L 5.078125 -9.71875 
Q 12.796875 -5.03125 16.1875 4.171875 
Q 19.578125 13.375 19.578125 30.171875 
Q 19.578125 47.015625 16.1875 56.21875 
Q 12.796875 65.4375 5.078125 70.125 
L 5.078125 75.984375 
Q 21.734375 69.53125 29.765625 58.296875 
Q 37.796875 47.078125 37.796875 30.171875 
Q 37.796875 13.28125 29.65625 1.90625 
Q 21.53125 -9.46875 5.078125 -15.578125 
z
" id="DejaVuSerif-Bold-29"/>
     </defs>
     <g transform="translate(25.44 298.56)rotate(-90)scale(0.24 -0.24)">
      <use transform="translate(0 0.015625)" xlink:href="#DejaVuSerif-Bold-50"/>
      <use transform="translate(75.195312 0.015625)" xlink:href="#DejaVuSerif-Bold-28"/>
      <use transform="translate(122.509766 0.015625)" xlink:href="#DejaVuSerif-Bold-4c"/>
      <use transform="translate(192.822266 0.015625)" xlink:href="#DejaVuSerif-Bold-6f"/>
      <use transform="translate(259.521484 0.015625)" xlink:href="#DejaVuSerif-Bold-67"/>
      <use transform="translate(329.443359 0.015625)" xlink:href="#DejaVuSerif-Bold-5b"/>
      <use transform="translate(376.757812 0.015625)" xlink:href="#DejaVuSerif-Bold-61"/>
      <use transform="translate(442.461094 -15.55625)scale(0.7)" xlink:href="#DejaVuSerif-Bold-73"/>
      <use transform="translate(484.465586 0.015625)" xlink:href="#DejaVuSerif-Bold-5d"/>
      <use transform="translate(531.780039 0.015625)" xlink:href="#DejaVuSerif-Bold-29"/>
     </g>
    </g>
   </g>
   <g id="patch_62">
    <path d="M 76.733125 450.72 
L 76.733125 7.2 
" style="fill:none;stroke:#333333;stroke-linecap:square;stroke-linejoin:miter;stroke-width:0.8;"/>
   </g>
   <g id="patch_63">
    <path d="M 634.733125 450.72 
L 634.733125 7.2 
" style="fill:none;stroke:#333333;stroke-linecap:square;stroke-linejoin:miter;stroke-width:0.8;"/>
   </g>
   <g id="patch_64">
    <path d="M 76.733125 450.72 
L 634.733125 450.72 
" style="fill:none;stroke:#333333;stroke-linecap:square;stroke-linejoin:miter;stroke-width:0.8;"/>
   </g>
   <g id="patch_65">
    <path d="M 76.733125 7.2 
L 634.733125 7.2 
" style="fill:none;stroke:#333333;stroke-linecap:square;stroke-linejoin:miter;stroke-width:0.8;"/>
   </g>
   <g id="text_17">
    <!-- $M_{\bullet}=4\times 10^6 M_{\odot}$ -->
    <defs>
     <path d="M 4.203125 0 
L 4.203125 5.90625 
L 13.484375 5.90625 
L 13.484375 67 
L 4.203125 67 
L 4.203125 72.90625 
L 34.28125 72.90625 
L 55.078125 26.125 
L 75.984375 72.90625 
L 106 72.90625 
L 106 67 
L 96.6875 67 
L 96.6875 5.90625 
L 106 5.90625 
L 106 0 
L 68.5 0 
L 68.5 5.90625 
L 77.78125 5.90625 
L 77.78125 61.53125 
L 55.171875 10.6875 
L 42.828125 10.6875 
L 20.3125 61.53125 
L 20.3125 5.90625 
L 29.59375 5.90625 
L 29.59375 0 
z
" id="DejaVuSerif-Bold-4d"/>
     <path d="M 10.59375 24.859375 
Q 10.59375 37.84375 15.03125 42.328125 
Q 19.484375 46.828125 26.03125 46.828125 
Q 32.328125 46.828125 36.796875 42.234375 
Q 41.265625 37.640625 41.265625 31.390625 
Q 41.265625 24.953125 36.796875 20.53125 
Q 32.328125 16.109375 25.828125 16.109375 
Q 19.34375 16.109375 14.96875 20.484375 
Q 10.59375 24.859375 10.59375 37.84375 
z
" id="DejaVuSerif-Bold-2219"/>
     <path d="M 10.59375 25.78125 
L 73.1875 25.78125 
L 73.1875 14.703125 
L 10.59375 14.703125 
z
M 10.59375 48 
L 73.1875 48 
L 73.1875 36.921875 
L 10.59375 36.921875 
z
" id="DejaVuSerif-Bold-3d"/>
     <path d="M 70.90625 52.78125 
L 49.421875 31.296875 
L 70.90625 9.8125 
L 63.375 2.296875 
L 41.890625 23.78125 
L 20.40625 2.296875 
L 12.890625 9.8125 
L 34.421875 31.296875 
L 12.890625 52.78125 
L 20.40625 60.40625 
L 41.890625 38.921875 
L 63.375 60.40625 
z
" id="DejaVuSerif-Bold-d7"/>
     <path d="M 38.09375 22.125 
Q 32.625 27.546875 32.625 31.34375 
Q 32.625 35.15625 35.359375 37.890625 
Q 38.09375 40.625 41.890625 40.625 
Q 45.75 40.625 48.484375 37.890625 
Q 51.21875 35.15625 51.21875 31.34375 
Q 51.21875 27.546875 48.484375 24.828125 
Q 45.75 22.125 41.890625 22.125 
Q 38.09375 22.125 32.625 27.546875 
z
M 27.203125 46.046875 
Q 21.78125 36.765625 21.78125 31.34375 
Q 21.78125 25.921875 24.484375 21.28125 
Q 27.203125 16.65625 31.828125 13.9375 
Q 36.46875 11.234375 41.890625 11.234375 
Q 47.3125 11.234375 51.953125 13.9375 
Q 56.59375 16.65625 59.296875 21.28125 
Q 62.015625 25.921875 62.015625 31.34375 
Q 62.015625 36.765625 59.296875 41.40625 
Q 56.59375 46.046875 51.953125 48.75 
Q 47.3125 51.46875 41.890625 51.46875 
Q 36.46875 51.46875 31.828125 48.75 
Q 27.203125 46.046875 21.78125 36.765625 
z
M 18.953125 8.40625 
Q 10.546875 22.859375 10.546875 31.34375 
Q 10.546875 39.84375 14.75 47.0625 
Q 18.953125 54.296875 26.171875 58.5 
Q 33.40625 62.703125 41.890625 62.703125 
Q 50.390625 62.703125 57.609375 58.5 
Q 64.84375 54.296875 69.046875 47.0625 
Q 73.25 39.84375 73.25 31.34375 
Q 73.25 22.859375 69.046875 15.625 
Q 64.84375 8.40625 57.609375 4.203125 
Q 50.390625 0 41.890625 0 
Q 33.40625 0 26.171875 4.203125 
Q 18.953125 8.40625 10.546875 22.859375 
z
" id="DejaVuSerif-Bold-2299"/>
    </defs>
    <g transform="translate(95.333125 44.194277)scale(0.22 -0.22)">
     <use transform="translate(0 0.7125)" xlink:href="#DejaVuSerif-Bold-4d"/>
     <use transform="translate(111.601719 -14.859375)scale(0.7)" xlink:href="#DejaVuSerif-Bold-2219"/>
     <use transform="translate(171.657969 0.7125)" xlink:href="#DejaVuSerif-Bold-3d"/>
     <use transform="translate(276.609141 0.7125)" xlink:href="#DejaVuSerif-Bold-34"/>
     <use transform="translate(367.351328 0.7125)" xlink:href="#DejaVuSerif-Bold-d7"/>
     <use transform="translate(472.3025 0.7125)" xlink:href="#DejaVuSerif-Bold-31"/>
     <use transform="translate(541.882578 0.7125)" xlink:href="#DejaVuSerif-Bold-30"/>
     <use transform="translate(612.371016 37.046875)scale(0.7)" xlink:href="#DejaVuSerif-Bold-36"/>
     <use transform="translate(663.672383 0.7125)" xlink:href="#DejaVuSerif-Bold-4d"/>
     <use transform="translate(775.274102 -14.859375)scale(0.7)" xlink:href="#DejaVuSerif-Bold-2299"/>
    </g>
    <!-- $e_{bin}:Thermal$ -->
    <defs>
     <path d="M 40.09375 29.296875 
Q 40.09375 39.546875 38.1875 43.671875 
Q 36.28125 47.796875 31.6875 47.796875 
Q 27.25 47.796875 25.3125 43.75 
Q 23.390625 39.703125 23.390625 30.171875 
L 23.390625 29.296875 
z
M 59.078125 23.484375 
L 23.390625 23.484375 
L 23.390625 23.09375 
Q 23.390625 13.03125 26.40625 8.5625 
Q 29.4375 4.109375 36.1875 4.109375 
Q 41.796875 4.109375 45.265625 7.078125 
Q 48.734375 10.0625 49.703125 15.71875 
L 57.8125 15.71875 
Q 55.71875 6.890625 49.46875 2.734375 
Q 43.21875 -1.421875 31.984375 -1.421875 
Q 18.5 -1.421875 11.296875 5.6875 
Q 4.109375 12.796875 4.109375 25.984375 
Q 4.109375 38.875 11.46875 46.09375 
Q 18.84375 53.328125 31.984375 53.328125 
Q 44.875 53.328125 51.75 45.734375 
Q 58.640625 38.140625 59.078125 23.484375 
z
" id="DejaVuSerif-Bold-65"/>
     <path d="M 9.71875 5.90625 
L 9.71875 70.125 
L 2.296875 70.125 
L 2.296875 75.984375 
L 27 75.984375 
L 27 45.3125 
Q 29.203125 49.359375 32.90625 51.34375 
Q 36.625 53.328125 42.09375 53.328125 
Q 53.171875 53.328125 59.546875 46.015625 
Q 65.921875 38.71875 65.921875 25.984375 
Q 65.921875 13.234375 59.546875 5.90625 
Q 53.171875 -1.421875 42.09375 -1.421875 
Q 36.625 -1.421875 32.90625 0.5625 
Q 29.203125 2.546875 27 6.59375 
L 27 0 
L 2.296875 0 
L 2.296875 5.90625 
z
M 27 23.390625 
Q 27 14.3125 29.3125 10.25 
Q 31.640625 6.203125 36.8125 6.203125 
Q 42.140625 6.203125 44.3125 10.5 
Q 46.484375 14.796875 46.484375 25.984375 
Q 46.484375 37.15625 44.3125 41.421875 
Q 42.140625 45.703125 36.8125 45.703125 
Q 31.640625 45.703125 29.3125 41.640625 
Q 27 37.59375 27 28.515625 
z
" id="DejaVuSerif-Bold-62"/>
     <path d="M 9.1875 66.609375 
Q 9.1875 70.5625 11.921875 73.265625 
Q 14.65625 75.984375 18.609375 75.984375 
Q 22.46875 75.984375 25.171875 73.265625 
Q 27.875 70.5625 27.875 66.609375 
Q 27.875 62.75 25.171875 60.03125 
Q 22.46875 57.328125 18.609375 57.328125 
Q 14.65625 57.328125 11.921875 60.015625 
Q 9.1875 62.703125 9.1875 66.609375 
z
M 28.078125 5.90625 
L 35.5 5.90625 
L 35.5 0 
L 3.421875 0 
L 3.421875 5.90625 
L 10.796875 5.90625 
L 10.796875 46 
L 3.421875 46 
L 3.421875 51.90625 
L 28.078125 51.90625 
z
" id="DejaVuSerif-Bold-69"/>
     <path d="M 3.421875 0 
L 3.421875 5.90625 
L 10.796875 5.90625 
L 10.796875 46 
L 3.421875 46 
L 3.421875 51.90625 
L 28.078125 51.90625 
L 28.078125 44.578125 
Q 31.203125 49.21875 35.203125 51.265625 
Q 39.203125 53.328125 45.3125 53.328125 
Q 54.046875 53.328125 58.515625 48.171875 
Q 62.984375 43.015625 62.984375 33.015625 
L 62.984375 5.90625 
L 70.40625 5.90625 
L 70.40625 0 
L 39.40625 0 
L 39.40625 5.90625 
L 45.703125 5.90625 
L 45.703125 33.5 
Q 45.703125 40.09375 44.015625 42.65625 
Q 42.328125 45.21875 38.1875 45.21875 
Q 32.953125 45.21875 30.515625 41.375 
Q 28.078125 37.546875 28.078125 29.203125 
L 28.078125 5.90625 
L 34.421875 5.90625 
L 34.421875 0 
z
" id="DejaVuSerif-Bold-6e"/>
     <path d="M 9.1875 39.703125 
Q 9.1875 43.5625 11.890625 46.296875 
Q 14.59375 49.03125 18.40625 49.03125 
Q 22.21875 49.03125 24.953125 46.265625 
Q 27.6875 43.5 27.6875 39.703125 
Q 27.6875 35.890625 24.96875 33.203125 
Q 22.265625 30.515625 18.40625 30.515625 
Q 14.546875 30.515625 11.859375 33.203125 
Q 9.1875 35.890625 9.1875 39.703125 
z
M 9.1875 7.90625 
Q 9.1875 11.71875 11.890625 14.453125 
Q 14.59375 17.1875 18.40625 17.1875 
Q 22.21875 17.1875 24.953125 14.453125 
Q 27.6875 11.71875 27.6875 7.90625 
Q 27.6875 4.046875 24.953125 1.3125 
Q 22.21875 -1.421875 18.40625 -1.421875 
Q 14.59375 -1.421875 11.890625 1.3125 
Q 9.1875 4.046875 9.1875 7.90625 
z
" id="DejaVuSerif-Bold-3a"/>
     <path d="M 18.109375 0 
L 18.109375 5.90625 
L 27.78125 5.90625 
L 27.78125 66.21875 
L 7.8125 66.21875 
L 7.8125 54.6875 
L 1.125 54.6875 
L 1.125 72.90625 
L 73.390625 72.90625 
L 73.390625 54.6875 
L 66.796875 54.6875 
L 66.796875 66.21875 
L 46.6875 66.21875 
L 46.6875 5.90625 
L 56.390625 5.90625 
L 56.390625 0 
z
" id="DejaVuSerif-Bold-54"/>
     <path d="M 3.421875 0 
L 3.421875 5.90625 
L 10.796875 5.90625 
L 10.796875 70.125 
L 3.078125 70.125 
L 3.078125 75.984375 
L 28.078125 75.984375 
L 28.078125 44.578125 
Q 31.203125 49.21875 35.203125 51.265625 
Q 39.203125 53.328125 45.3125 53.328125 
Q 54.046875 53.328125 58.515625 48.171875 
Q 62.984375 43.015625 62.984375 33.015625 
L 62.984375 5.90625 
L 70.40625 5.90625 
L 70.40625 0 
L 39.40625 0 
L 39.40625 5.90625 
L 45.703125 5.90625 
L 45.703125 33.5 
Q 45.703125 40.09375 44.015625 42.65625 
Q 42.328125 45.21875 38.1875 45.21875 
Q 32.953125 45.21875 30.515625 41.375 
Q 28.078125 37.546875 28.078125 29.203125 
L 28.078125 5.90625 
L 34.421875 5.90625 
L 34.421875 0 
z
" id="DejaVuSerif-Bold-68"/>
     <path d="M 53.71875 52.484375 
L 53.71875 37.015625 
L 48.1875 37.015625 
Q 47.90625 41.15625 45.953125 43.1875 
Q 44 45.21875 40.28125 45.21875 
Q 34.625 45.21875 31.34375 40.234375 
Q 28.078125 35.25 28.078125 26.421875 
L 28.078125 5.90625 
L 37.5 5.90625 
L 37.5 0 
L 3.421875 0 
L 3.421875 5.90625 
L 10.796875 5.90625 
L 10.796875 46 
L 2.875 46 
L 2.875 51.90625 
L 28.078125 51.90625 
L 28.078125 42.671875 
Q 30.609375 48.09375 34.78125 50.703125 
Q 38.96875 53.328125 45.015625 53.328125 
Q 46.53125 53.328125 48.703125 53.09375 
Q 50.875 52.875 53.71875 52.484375 
z
" id="DejaVuSerif-Bold-72"/>
     <path d="M 60.6875 43.40625 
Q 64.3125 48.578125 68.5 50.953125 
Q 72.703125 53.328125 78.328125 53.328125 
Q 87.25 53.328125 91.671875 48.265625 
Q 96.09375 43.21875 96.09375 33.015625 
L 96.09375 5.90625 
L 103.515625 5.90625 
L 103.515625 0 
L 72.609375 0 
L 72.609375 5.90625 
L 78.8125 5.90625 
L 78.8125 30.421875 
Q 78.8125 40.140625 77.3125 42.671875 
Q 75.828125 45.21875 71.78125 45.21875 
Q 67.1875 45.21875 64.640625 41.671875 
Q 62.109375 38.140625 62.109375 31.59375 
L 62.109375 5.90625 
L 68.3125 5.90625 
L 68.3125 0 
L 38.625 0 
L 38.625 5.90625 
L 44.828125 5.90625 
L 44.828125 30.421875 
Q 44.828125 40.140625 43.3125 42.671875 
Q 41.796875 45.21875 37.796875 45.21875 
Q 33.15625 45.21875 30.609375 41.671875 
Q 28.078125 38.140625 28.078125 31.59375 
L 28.078125 5.90625 
L 34.28125 5.90625 
L 34.28125 0 
L 3.421875 0 
L 3.421875 5.90625 
L 10.796875 5.90625 
L 10.796875 46 
L 3.421875 46 
L 3.421875 51.90625 
L 28.078125 51.90625 
L 28.078125 44.578125 
Q 31.109375 49.125 35.015625 51.21875 
Q 38.921875 53.328125 44.28125 53.328125 
Q 50.640625 53.328125 54.59375 50.90625 
Q 58.546875 48.484375 60.6875 43.40625 
z
" id="DejaVuSerif-Bold-6d"/>
     <path d="M 28.078125 5.90625 
L 35.5 5.90625 
L 35.5 0 
L 3.421875 0 
L 3.421875 5.90625 
L 10.796875 5.90625 
L 10.796875 70.125 
L 3.421875 70.125 
L 3.421875 75.984375 
L 28.078125 75.984375 
z
" id="DejaVuSerif-Bold-6c"/>
    </defs>
    <g transform="translate(95.333125 68.829465)scale(0.22 -0.22)">
     <use transform="translate(0 0.015625)" xlink:href="#DejaVuSerif-Bold-65"/>
     <use transform="translate(64.531406 -15.55625)scale(0.7)" xlink:href="#DejaVuSerif-Bold-62"/>
     <use transform="translate(113.476719 -15.55625)scale(0.7)" xlink:href="#DejaVuSerif-Bold-69"/>
     <use transform="translate(140.068516 -15.55625)scale(0.7)" xlink:href="#DejaVuSerif-Bold-6e"/>
     <use transform="translate(214.719492 0.015625)" xlink:href="#DejaVuSerif-Bold-3a"/>
     <use transform="translate(272.795664 0.015625)" xlink:href="#DejaVuSerif-Bold-54"/>
     <use transform="translate(347.209727 0.015625)" xlink:href="#DejaVuSerif-Bold-68"/>
     <use transform="translate(419.914805 0.015625)" xlink:href="#DejaVuSerif-Bold-65"/>
     <use transform="translate(483.537852 0.015625)" xlink:href="#DejaVuSerif-Bold-72"/>
     <use transform="translate(536.223398 0.015625)" xlink:href="#DejaVuSerif-Bold-6d"/>
     <use transform="translate(642.033945 0.015625)" xlink:href="#DejaVuSerif-Bold-61"/>
     <use transform="translate(706.828867 0.015625)" xlink:href="#DejaVuSerif-Bold-6c"/>
    </g>
   </g>
  </g>
 </g>
 <defs>
  <clipPath id="p6e1ab5511e">
   <rect height="443.52" width="558" x="76.733125" y="7.2"/>
  </clipPath>
 </defs>
</svg>
