<?xml version="1.0" encoding="utf-8" standalone="no"?>
<!DOCTYPE svg PUBLIC "-//W3C//DTD SVG 1.1//EN"
  "http://www.w3.org/Graphics/SVG/1.1/DTD/svg11.dtd">
<!-- Created with matplotlib (https://matplotlib.org/) -->
<svg height="576.430156pt" version="1.1" viewBox="0 0 1012.41125 576.430156" width="1012.41125pt" xmlns="http://www.w3.org/2000/svg" xmlns:xlink="http://www.w3.org/1999/xlink">
 <defs>
  <style type="text/css">
*{stroke-linecap:butt;stroke-linejoin:round;white-space:pre;}
  </style>
 </defs>
 <g id="figure_1">
  <g id="patch_1">
   <path d="M 0 576.430156 
L 1012.41125 576.430156 
L 1012.41125 0 
L 0 0 
z
" style="fill:#ffffff;"/>
  </g>
  <g id="axes_1">
   <g id="patch_2">
    <path d="M 112.41125 514.518281 
L 1005.21125 514.518281 
L 1005.21125 15.558281 
L 112.41125 15.558281 
z
" style="fill:#ffffff;"/>
   </g>
   <g id="patch_3">
    <path clip-path="url(#p06973123c9)" d="M 152.993068 514.518281 
L 198.083977 514.518281 
L 198.083977 383.213018 
L 152.993068 383.213018 
z
" style="fill:none;stroke:#000000;stroke-linejoin:miter;"/>
   </g>
   <g id="patch_4">
    <path clip-path="url(#p06973123c9)" d="M 198.083977 514.518281 
L 243.174886 514.518281 
L 243.174886 251.907755 
L 198.083977 251.907755 
z
" style="fill:none;stroke:#000000;stroke-linejoin:miter;"/>
   </g>
   <g id="patch_5">
    <path clip-path="url(#p06973123c9)" d="M 243.174886 514.518281 
L 288.265795 514.518281 
L 288.265795 383.213018 
L 243.174886 383.213018 
z
" style="fill:none;stroke:#000000;stroke-linejoin:miter;"/>
   </g>
   <g id="patch_6">
    <path clip-path="url(#p06973123c9)" d="M 288.265795 514.518281 
L 333.356705 514.518281 
L 333.356705 448.86565 
L 288.265795 448.86565 
z
" style="fill:none;stroke:#000000;stroke-linejoin:miter;"/>
   </g>
   <g id="patch_7">
    <path clip-path="url(#p06973123c9)" d="M 333.356705 514.518281 
L 378.447614 514.518281 
L 378.447614 514.518281 
L 333.356705 514.518281 
z
" style="fill:none;stroke:#000000;stroke-linejoin:miter;"/>
   </g>
   <g id="patch_8">
    <path clip-path="url(#p06973123c9)" d="M 378.447614 514.518281 
L 423.538523 514.518281 
L 423.538523 514.518281 
L 378.447614 514.518281 
z
" style="fill:none;stroke:#000000;stroke-linejoin:miter;"/>
   </g>
   <g id="patch_9">
    <path clip-path="url(#p06973123c9)" d="M 423.538523 514.518281 
L 468.629432 514.518281 
L 468.629432 514.518281 
L 423.538523 514.518281 
z
" style="fill:none;stroke:#000000;stroke-linejoin:miter;"/>
   </g>
   <g id="patch_10">
    <path clip-path="url(#p06973123c9)" d="M 468.629432 514.518281 
L 513.720341 514.518281 
L 513.720341 514.518281 
L 468.629432 514.518281 
z
" style="fill:none;stroke:#000000;stroke-linejoin:miter;"/>
   </g>
   <g id="patch_11">
    <path clip-path="url(#p06973123c9)" d="M 513.720341 514.518281 
L 558.81125 514.518281 
L 558.81125 514.518281 
L 513.720341 514.518281 
z
" style="fill:none;stroke:#000000;stroke-linejoin:miter;"/>
   </g>
   <g id="patch_12">
    <path clip-path="url(#p06973123c9)" d="M 558.81125 514.518281 
L 603.902159 514.518281 
L 603.902159 514.518281 
L 558.81125 514.518281 
z
" style="fill:none;stroke:#000000;stroke-linejoin:miter;"/>
   </g>
   <g id="patch_13">
    <path clip-path="url(#p06973123c9)" d="M 603.902159 514.518281 
L 648.993068 514.518281 
L 648.993068 514.518281 
L 603.902159 514.518281 
z
" style="fill:none;stroke:#000000;stroke-linejoin:miter;"/>
   </g>
   <g id="patch_14">
    <path clip-path="url(#p06973123c9)" d="M 648.993068 514.518281 
L 694.083977 514.518281 
L 694.083977 514.518281 
L 648.993068 514.518281 
z
" style="fill:none;stroke:#000000;stroke-linejoin:miter;"/>
   </g>
   <g id="patch_15">
    <path clip-path="url(#p06973123c9)" d="M 694.083977 514.518281 
L 739.174886 514.518281 
L 739.174886 481.691965 
L 694.083977 481.691965 
z
" style="fill:none;stroke:#000000;stroke-linejoin:miter;"/>
   </g>
   <g id="patch_16">
    <path clip-path="url(#p06973123c9)" d="M 739.174886 514.518281 
L 784.265795 514.518281 
L 784.265795 416.039334 
L 739.174886 416.039334 
z
" style="fill:none;stroke:#000000;stroke-linejoin:miter;"/>
   </g>
   <g id="patch_17">
    <path clip-path="url(#p06973123c9)" d="M 784.265795 514.518281 
L 829.356705 514.518281 
L 829.356705 383.213018 
L 784.265795 383.213018 
z
" style="fill:none;stroke:#000000;stroke-linejoin:miter;"/>
   </g>
   <g id="patch_18">
    <path clip-path="url(#p06973123c9)" d="M 829.356705 514.518281 
L 874.447614 514.518281 
L 874.447614 317.560387 
L 829.356705 317.560387 
z
" style="fill:none;stroke:#000000;stroke-linejoin:miter;"/>
   </g>
   <g id="patch_19">
    <path clip-path="url(#p06973123c9)" d="M 874.447614 514.518281 
L 919.538523 514.518281 
L 919.538523 416.039334 
L 874.447614 416.039334 
z
" style="fill:none;stroke:#000000;stroke-linejoin:miter;"/>
   </g>
   <g id="patch_20">
    <path clip-path="url(#p06973123c9)" d="M 919.538523 514.518281 
L 964.629432 514.518281 
L 964.629432 416.039334 
L 919.538523 416.039334 
z
" style="fill:none;stroke:#000000;stroke-linejoin:miter;"/>
   </g>
   <g id="patch_21">
    <path clip-path="url(#p06973123c9)" d="M 152.993068 514.518281 
L 198.083977 514.518281 
L 198.083977 514.518281 
L 152.993068 514.518281 
z
" style="fill:none;stroke:#ff0000;stroke-dasharray:5,3;stroke-dashoffset:0;stroke-linejoin:miter;"/>
   </g>
   <g id="patch_22">
    <path clip-path="url(#p06973123c9)" d="M 198.083977 514.518281 
L 243.174886 514.518281 
L 243.174886 514.518281 
L 198.083977 514.518281 
z
" style="fill:none;stroke:#ff0000;stroke-dasharray:5,3;stroke-dashoffset:0;stroke-linejoin:miter;"/>
   </g>
   <g id="patch_23">
    <path clip-path="url(#p06973123c9)" d="M 243.174886 514.518281 
L 288.265795 514.518281 
L 288.265795 514.518281 
L 243.174886 514.518281 
z
" style="fill:none;stroke:#ff0000;stroke-dasharray:5,3;stroke-dashoffset:0;stroke-linejoin:miter;"/>
   </g>
   <g id="patch_24">
    <path clip-path="url(#p06973123c9)" d="M 288.265795 514.518281 
L 333.356705 514.518281 
L 333.356705 514.518281 
L 288.265795 514.518281 
z
" style="fill:none;stroke:#ff0000;stroke-dasharray:5,3;stroke-dashoffset:0;stroke-linejoin:miter;"/>
   </g>
   <g id="patch_25">
    <path clip-path="url(#p06973123c9)" d="M 333.356705 514.518281 
L 378.447614 514.518281 
L 378.447614 495.128644 
L 333.356705 495.128644 
z
" style="fill:none;stroke:#ff0000;stroke-dasharray:5,3;stroke-dashoffset:0;stroke-linejoin:miter;"/>
   </g>
   <g id="patch_26">
    <path clip-path="url(#p06973123c9)" d="M 378.447614 514.518281 
L 423.538523 514.518281 
L 423.538523 514.518281 
L 378.447614 514.518281 
z
" style="fill:none;stroke:#ff0000;stroke-dasharray:5,3;stroke-dashoffset:0;stroke-linejoin:miter;"/>
   </g>
   <g id="patch_27">
    <path clip-path="url(#p06973123c9)" d="M 423.538523 514.518281 
L 468.629432 514.518281 
L 468.629432 488.665432 
L 423.538523 488.665432 
z
" style="fill:none;stroke:#ff0000;stroke-dasharray:5,3;stroke-dashoffset:0;stroke-linejoin:miter;"/>
   </g>
   <g id="patch_28">
    <path clip-path="url(#p06973123c9)" d="M 468.629432 514.518281 
L 513.720341 514.518281 
L 513.720341 508.055069 
L 468.629432 508.055069 
z
" style="fill:none;stroke:#ff0000;stroke-dasharray:5,3;stroke-dashoffset:0;stroke-linejoin:miter;"/>
   </g>
   <g id="patch_29">
    <path clip-path="url(#p06973123c9)" d="M 513.720341 514.518281 
L 558.81125 514.518281 
L 558.81125 495.128644 
L 513.720341 495.128644 
z
" style="fill:none;stroke:#ff0000;stroke-dasharray:5,3;stroke-dashoffset:0;stroke-linejoin:miter;"/>
   </g>
   <g id="patch_30">
    <path clip-path="url(#p06973123c9)" d="M 558.81125 514.518281 
L 603.902159 514.518281 
L 603.902159 495.128644 
L 558.81125 495.128644 
z
" style="fill:none;stroke:#ff0000;stroke-dasharray:5,3;stroke-dashoffset:0;stroke-linejoin:miter;"/>
   </g>
   <g id="patch_31">
    <path clip-path="url(#p06973123c9)" d="M 603.902159 514.518281 
L 648.993068 514.518281 
L 648.993068 488.665432 
L 603.902159 488.665432 
z
" style="fill:none;stroke:#ff0000;stroke-dasharray:5,3;stroke-dashoffset:0;stroke-linejoin:miter;"/>
   </g>
   <g id="patch_32">
    <path clip-path="url(#p06973123c9)" d="M 648.993068 514.518281 
L 694.083977 514.518281 
L 694.083977 456.349369 
L 648.993068 456.349369 
z
" style="fill:none;stroke:#ff0000;stroke-dasharray:5,3;stroke-dashoffset:0;stroke-linejoin:miter;"/>
   </g>
   <g id="patch_33">
    <path clip-path="url(#p06973123c9)" d="M 694.083977 514.518281 
L 739.174886 514.518281 
L 739.174886 352.93797 
L 694.083977 352.93797 
z
" style="fill:none;stroke:#ff0000;stroke-dasharray:5,3;stroke-dashoffset:0;stroke-linejoin:miter;"/>
   </g>
   <g id="patch_34">
    <path clip-path="url(#p06973123c9)" d="M 739.174886 514.518281 
L 784.265795 514.518281 
L 784.265795 75.019836 
L 739.174886 75.019836 
z
" style="fill:none;stroke:#ff0000;stroke-dasharray:5,3;stroke-dashoffset:0;stroke-linejoin:miter;"/>
   </g>
   <g id="patch_35">
    <path clip-path="url(#p06973123c9)" d="M 784.265795 514.518281 
L 829.356705 514.518281 
L 829.356705 159.041597 
L 784.265795 159.041597 
z
" style="fill:none;stroke:#ff0000;stroke-dasharray:5,3;stroke-dashoffset:0;stroke-linejoin:miter;"/>
   </g>
   <g id="patch_36">
    <path clip-path="url(#p06973123c9)" d="M 829.356705 514.518281 
L 874.447614 514.518281 
L 874.447614 417.570095 
L 829.356705 417.570095 
z
" style="fill:none;stroke:#ff0000;stroke-dasharray:5,3;stroke-dashoffset:0;stroke-linejoin:miter;"/>
   </g>
   <g id="patch_37">
    <path clip-path="url(#p06973123c9)" d="M 874.447614 514.518281 
L 919.538523 514.518281 
L 919.538523 495.128644 
L 874.447614 495.128644 
z
" style="fill:none;stroke:#ff0000;stroke-dasharray:5,3;stroke-dashoffset:0;stroke-linejoin:miter;"/>
   </g>
   <g id="patch_38">
    <path clip-path="url(#p06973123c9)" d="M 919.538523 514.518281 
L 964.629432 514.518281 
L 964.629432 514.518281 
L 919.538523 514.518281 
z
" style="fill:none;stroke:#ff0000;stroke-dasharray:5,3;stroke-dashoffset:0;stroke-linejoin:miter;"/>
   </g>
   <g id="matplotlib.axis_1">
    <g id="xtick_1">
     <g id="line2d_1">
      <defs>
       <path d="M 0 0 
L 0 -6 
" id="m5818924919" style="stroke:#333333;stroke-width:0.8;"/>
      </defs>
      <g>
       <use style="fill:#333333;stroke:#333333;stroke-width:0.8;" x="152.993068" xlink:href="#m5818924919" y="514.518281"/>
      </g>
     </g>
     <g id="text_1">
      <!-- $\mathdefault{0}$ -->
      <defs>
       <path d="M 34.8125 4.296875 
Q 40.671875 4.296875 42.84375 9.609375 
Q 45.015625 14.9375 45.015625 36.375 
Q 45.015625 57.671875 42.84375 63.078125 
Q 40.671875 68.5 34.8125 68.5 
Q 28.953125 68.5 26.78125 63.171875 
Q 24.609375 57.859375 24.609375 36.375 
Q 24.609375 14.9375 26.78125 9.609375 
Q 28.953125 4.296875 34.8125 4.296875 
z
M 34.8125 -1.421875 
Q 20.21875 -1.421875 12.453125 8.3125 
Q 4.6875 18.0625 4.6875 36.375 
Q 4.6875 54.6875 12.453125 64.453125 
Q 20.21875 74.21875 34.8125 74.21875 
Q 49.359375 74.21875 57.125 64.453125 
Q 64.890625 54.6875 64.890625 36.375 
Q 64.890625 18.0625 57.125 8.3125 
Q 49.359375 -1.421875 34.8125 -1.421875 
z
" id="DejaVuSerif-Bold-48"/>
      </defs>
      <g style="fill:#333333;" transform="translate(145.293068 534.734844)scale(0.22 -0.22)">
       <use transform="translate(0 0.78125)" xlink:href="#DejaVuSerif-Bold-48"/>
      </g>
     </g>
    </g>
    <g id="xtick_2">
     <g id="line2d_2">
      <g>
       <use style="fill:#333333;stroke:#333333;stroke-width:0.8;" x="265.720341" xlink:href="#m5818924919" y="514.518281"/>
      </g>
     </g>
     <g id="text_2">
      <!-- $\mathdefault{50}$ -->
      <defs>
       <path d="M 56.390625 72.90625 
L 56.390625 60.109375 
L 17.390625 60.109375 
L 17.390625 44.09375 
Q 20.609375 46.578125 24.5625 47.84375 
Q 28.515625 49.125 32.90625 49.125 
Q 46.390625 49.125 54.203125 42.3125 
Q 62.015625 35.5 62.015625 23.78125 
Q 62.015625 11.859375 54.203125 5.21875 
Q 46.390625 -1.421875 32.328125 -1.421875 
Q 26.375 -1.421875 20.484375 -0.4375 
Q 14.59375 0.53125 8.203125 2.59375 
L 8.203125 18.5 
L 14.0625 18.5 
Q 14.359375 11.328125 17.796875 7.8125 
Q 21.234375 4.296875 27.984375 4.296875 
Q 35.15625 4.296875 38.625 9.109375 
Q 42.09375 13.921875 42.09375 23.78125 
Q 42.09375 33.5 38.6875 38.296875 
Q 35.296875 43.109375 28.421875 43.109375 
Q 24.703125 43.109375 21.796875 41.578125 
Q 18.890625 40.046875 16.40625 36.8125 
L 11.53125 36.8125 
L 11.53125 72.90625 
z
" id="DejaVuSerif-Bold-53"/>
      </defs>
      <g style="fill:#333333;" transform="translate(250.320341 534.734844)scale(0.22 -0.22)">
       <use transform="translate(0 0.78125)" xlink:href="#DejaVuSerif-Bold-53"/>
       <use transform="translate(69.580078 0.78125)" xlink:href="#DejaVuSerif-Bold-48"/>
      </g>
     </g>
    </g>
    <g id="xtick_3">
     <g id="line2d_3">
      <g>
       <use style="fill:#333333;stroke:#333333;stroke-width:0.8;" x="378.447614" xlink:href="#m5818924919" y="514.518281"/>
      </g>
     </g>
     <g id="text_3">
      <!-- $\mathdefault{100}$ -->
      <defs>
       <path d="M 13.71875 0 
L 13.71875 5.90625 
L 27.390625 5.90625 
L 27.390625 64.890625 
L 12.203125 55.90625 
L 12.203125 63.1875 
L 30.515625 74.21875 
L 45.90625 74.21875 
L 45.90625 5.90625 
L 59.625 5.90625 
L 59.625 0 
z
" id="DejaVuSerif-Bold-49"/>
      </defs>
      <g style="fill:#333333;" transform="translate(355.457614 534.734844)scale(0.22 -0.22)">
       <use transform="translate(0 0.78125)" xlink:href="#DejaVuSerif-Bold-49"/>
       <use transform="translate(69.580078 0.78125)" xlink:href="#DejaVuSerif-Bold-48"/>
       <use transform="translate(139.160156 0.78125)" xlink:href="#DejaVuSerif-Bold-48"/>
      </g>
     </g>
    </g>
    <g id="xtick_4">
     <g id="line2d_4">
      <g>
       <use style="fill:#333333;stroke:#333333;stroke-width:0.8;" x="491.174886" xlink:href="#m5818924919" y="514.518281"/>
      </g>
     </g>
     <g id="text_4">
      <!-- $\mathdefault{150}$ -->
      <g style="fill:#333333;" transform="translate(468.184886 534.734844)scale(0.22 -0.22)">
       <use transform="translate(0 0.78125)" xlink:href="#DejaVuSerif-Bold-49"/>
       <use transform="translate(69.580078 0.78125)" xlink:href="#DejaVuSerif-Bold-53"/>
       <use transform="translate(139.160156 0.78125)" xlink:href="#DejaVuSerif-Bold-48"/>
      </g>
     </g>
    </g>
    <g id="xtick_5">
     <g id="line2d_5">
      <g>
       <use style="fill:#333333;stroke:#333333;stroke-width:0.8;" x="603.902159" xlink:href="#m5818924919" y="514.518281"/>
      </g>
     </g>
     <g id="text_5">
      <!-- $\mathdefault{200}$ -->
      <defs>
       <path d="M 13.1875 54.890625 
L 7.328125 54.890625 
L 7.328125 70.609375 
Q 13.28125 72.40625 19.109375 73.3125 
Q 24.953125 74.21875 30.90625 74.21875 
Q 44.828125 74.21875 52.609375 68.53125 
Q 60.40625 62.84375 60.40625 52.6875 
Q 60.40625 45.453125 56.109375 39.71875 
Q 51.8125 33.984375 39.703125 26.125 
L 19.390625 12.796875 
L 53.90625 12.796875 
L 53.90625 21.390625 
L 60.59375 21.390625 
L 60.59375 0 
L 6.6875 0 
L 6.6875 11.921875 
L 17.484375 19.390625 
Q 31.296875 28.90625 35.890625 35.59375 
Q 40.484375 42.28125 40.484375 51.21875 
Q 40.484375 59.671875 36.984375 64.078125 
Q 33.5 68.5 26.8125 68.5 
Q 21.046875 68.5 17.578125 65.015625 
Q 14.109375 61.53125 13.1875 54.890625 
z
" id="DejaVuSerif-Bold-50"/>
      </defs>
      <g style="fill:#333333;" transform="translate(580.912159 534.734844)scale(0.22 -0.22)">
       <use transform="translate(0 0.78125)" xlink:href="#DejaVuSerif-Bold-50"/>
       <use transform="translate(69.580078 0.78125)" xlink:href="#DejaVuSerif-Bold-48"/>
       <use transform="translate(139.160156 0.78125)" xlink:href="#DejaVuSerif-Bold-48"/>
      </g>
     </g>
    </g>
    <g id="xtick_6">
     <g id="line2d_6">
      <g>
       <use style="fill:#333333;stroke:#333333;stroke-width:0.8;" x="716.629432" xlink:href="#m5818924919" y="514.518281"/>
      </g>
     </g>
     <g id="text_6">
      <!-- $\mathdefault{250}$ -->
      <g style="fill:#333333;" transform="translate(693.639432 534.734844)scale(0.22 -0.22)">
       <use transform="translate(0 0.78125)" xlink:href="#DejaVuSerif-Bold-50"/>
       <use transform="translate(69.580078 0.78125)" xlink:href="#DejaVuSerif-Bold-53"/>
       <use transform="translate(139.160156 0.78125)" xlink:href="#DejaVuSerif-Bold-48"/>
      </g>
     </g>
    </g>
    <g id="xtick_7">
     <g id="line2d_7">
      <g>
       <use style="fill:#333333;stroke:#333333;stroke-width:0.8;" x="829.356705" xlink:href="#m5818924919" y="514.518281"/>
      </g>
     </g>
     <g id="text_7">
      <!-- $\mathdefault{300}$ -->
      <defs>
       <path d="M 8.59375 70.796875 
Q 15.046875 72.515625 21.09375 73.359375 
Q 27.15625 74.21875 32.90625 74.21875 
Q 46.09375 74.21875 53.140625 69.5 
Q 60.203125 64.796875 60.203125 56 
Q 60.203125 49.421875 56.140625 45.3125 
Q 52.09375 41.21875 44.28125 39.796875 
Q 53.8125 38.28125 58.5 33.296875 
Q 63.1875 28.328125 63.1875 19.671875 
Q 63.1875 9.46875 55.09375 4.015625 
Q 47.015625 -1.421875 31.6875 -1.421875 
Q 25.921875 -1.421875 19.796875 -0.4375 
Q 13.671875 0.53125 6.984375 2.484375 
L 6.984375 18.5 
L 12.890625 18.5 
Q 13.421875 11.578125 17.234375 7.9375 
Q 21.046875 4.296875 27.78125 4.296875 
Q 35.203125 4.296875 39.25 8.421875 
Q 43.3125 12.546875 43.3125 20.125 
Q 43.3125 28.03125 39.078125 32.328125 
Q 34.859375 36.625 27.09375 36.625 
L 23.875 36.625 
L 23.875 42.484375 
L 26.421875 42.484375 
Q 33.59375 42.484375 37.203125 45.796875 
Q 40.828125 49.125 40.828125 55.71875 
Q 40.828125 61.921875 37.421875 65.203125 
Q 34.03125 68.5 27.6875 68.5 
Q 21.921875 68.5 18.546875 65.34375 
Q 15.1875 62.203125 14.5 56.203125 
L 8.59375 56.203125 
z
" id="DejaVuSerif-Bold-51"/>
      </defs>
      <g style="fill:#333333;" transform="translate(806.366705 534.734844)scale(0.22 -0.22)">
       <use transform="translate(0 0.78125)" xlink:href="#DejaVuSerif-Bold-51"/>
       <use transform="translate(69.580078 0.78125)" xlink:href="#DejaVuSerif-Bold-48"/>
       <use transform="translate(139.160156 0.78125)" xlink:href="#DejaVuSerif-Bold-48"/>
      </g>
     </g>
    </g>
    <g id="xtick_8">
     <g id="line2d_8">
      <g>
       <use style="fill:#333333;stroke:#333333;stroke-width:0.8;" x="942.083977" xlink:href="#m5818924919" y="514.518281"/>
      </g>
     </g>
     <g id="text_8">
      <!-- $\mathdefault{350}$ -->
      <g style="fill:#333333;" transform="translate(919.093977 534.734844)scale(0.22 -0.22)">
       <use transform="translate(0 0.78125)" xlink:href="#DejaVuSerif-Bold-51"/>
       <use transform="translate(69.580078 0.78125)" xlink:href="#DejaVuSerif-Bold-53"/>
       <use transform="translate(139.160156 0.78125)" xlink:href="#DejaVuSerif-Bold-48"/>
      </g>
     </g>
    </g>
    <g id="text_9">
     <!-- $i_{xy}$ [$^{\circ}$] -->
     <defs>
      <path d="M 9.1875 66.609375 
Q 9.1875 70.5625 11.921875 73.265625 
Q 14.65625 75.984375 18.609375 75.984375 
Q 22.46875 75.984375 25.171875 73.265625 
Q 27.875 70.5625 27.875 66.609375 
Q 27.875 62.75 25.171875 60.03125 
Q 22.46875 57.328125 18.609375 57.328125 
Q 14.65625 57.328125 11.921875 60.015625 
Q 9.1875 62.703125 9.1875 66.609375 
z
M 28.078125 5.90625 
L 35.5 5.90625 
L 35.5 0 
L 3.421875 0 
L 3.421875 5.90625 
L 10.796875 5.90625 
L 10.796875 46 
L 3.421875 46 
L 3.421875 51.90625 
L 28.078125 51.90625 
z
" id="DejaVuSerif-Bold-105"/>
      <path d="M 35.109375 33.109375 
L 44.28125 46 
L 37.890625 46 
L 37.890625 51.90625 
L 58.109375 51.90625 
L 58.109375 46 
L 51.21875 46 
L 37.984375 27.484375 
L 53.421875 5.90625 
L 60.296875 5.90625 
L 60.296875 0 
L 27.296875 0 
L 27.296875 5.90625 
L 33.984375 5.90625 
L 24.21875 19.578125 
L 14.40625 5.90625 
L 21.390625 5.90625 
L 21.390625 0 
L 0 0 
L 0 5.90625 
L 7.421875 5.90625 
L 21.1875 25.296875 
L 6.296875 46 
L 0.484375 46 
L 0.484375 51.90625 
L 32.171875 51.90625 
L 32.171875 46 
L 25.875 46 
z
" id="DejaVuSerif-Bold-120"/>
      <path d="M 31.203125 -11.71875 
Q 28.859375 -17.4375 25.53125 -19.828125 
Q 22.21875 -22.21875 16.609375 -22.21875 
Q 14.203125 -22.21875 11.265625 -21.671875 
Q 8.34375 -21.140625 4.890625 -20.125 
L 4.890625 -9.28125 
L 10.40625 -9.328125 
Q 10.546875 -13.09375 12.171875 -14.890625 
Q 13.8125 -16.703125 17.09375 -16.703125 
Q 20.265625 -16.703125 22.21875 -14.96875 
Q 24.171875 -13.234375 26.125 -8.40625 
L 26.90625 -6.59375 
L 4.296875 46 
L -1.3125 46 
L -1.3125 51.90625 
L 28.609375 51.90625 
L 28.609375 46 
L 22.40625 46 
L 35.59375 15.28125 
L 47.90625 46 
L 41.015625 46 
L 41.015625 51.90625 
L 60.5 51.90625 
L 60.5 46 
L 54.203125 46 
z
" id="DejaVuSerif-Bold-121"/>
      <path id="DejaVuSerif-Bold-32"/>
      <path d="M 12.5 75.984375 
L 40.1875 75.984375 
L 40.1875 70.125 
L 29.78125 70.125 
L 29.78125 -7.328125 
L 40.1875 -7.328125 
L 40.1875 -13.1875 
L 12.5 -13.1875 
z
" id="DejaVuSerif-Bold-91"/>
      <path d="M 32.328125 31.34375 
Q 32.328125 34.03125 30.4375 35.9375 
Q 28.5625 37.84375 25.875 37.84375 
Q 23.1875 37.84375 21.359375 35.984375 
Q 19.53125 34.125 19.53125 31.390625 
Q 19.53125 28.65625 21.359375 26.84375 
Q 23.1875 25.046875 25.921875 25.046875 
Q 28.65625 25.046875 30.484375 26.875 
Q 32.328125 28.71875 32.328125 31.34375 
z
M 10.59375 24.859375 
Q 10.59375 37.84375 15.03125 42.328125 
Q 19.484375 46.828125 26.03125 46.828125 
Q 32.328125 46.828125 36.796875 42.234375 
Q 41.265625 37.640625 41.265625 31.390625 
Q 41.265625 24.953125 36.796875 20.53125 
Q 32.328125 16.109375 25.828125 16.109375 
Q 19.34375 16.109375 14.96875 20.484375 
Q 10.59375 24.859375 10.59375 37.84375 
z
" id="DejaVuSerif-Bold-8728"/>
      <path d="M 34.8125 75.984375 
L 34.8125 -13.1875 
L 7.078125 -13.1875 
L 7.078125 -7.328125 
L 17.484375 -7.328125 
L 17.484375 70.125 
L 7.078125 70.125 
L 7.078125 75.984375 
z
" id="DejaVuSerif-Bold-93"/>
     </defs>
     <g transform="translate(523.53125 561.550156)scale(0.24 -0.24)">
      <use transform="translate(0 0.015625)" xlink:href="#DejaVuSerif-Bold-105"/>
      <use transform="translate(38.896641 -15.55625)scale(0.7)" xlink:href="#DejaVuSerif-Bold-120"/>
      <use transform="translate(80.630039 -15.55625)scale(0.7)" xlink:href="#DejaVuSerif-Bold-121"/>
      <use transform="translate(123.89918 0.015625)" xlink:href="#DejaVuSerif-Bold-32"/>
      <use transform="translate(158.713633 0.015625)" xlink:href="#DejaVuSerif-Bold-91"/>
      <use transform="translate(206.936445 36.35)scale(0.7)" xlink:href="#DejaVuSerif-Bold-8728"/>
      <use transform="translate(245.830586 0.015625)" xlink:href="#DejaVuSerif-Bold-93"/>
     </g>
    </g>
   </g>
   <g id="matplotlib.axis_2">
    <g id="ytick_1">
     <g id="line2d_9">
      <defs>
       <path d="M 0 0 
L 6 0 
" id="m568874a126" style="stroke:#333333;stroke-width:0.8;"/>
      </defs>
      <g>
       <use style="fill:#333333;stroke:#333333;stroke-width:0.8;" x="112.41125" xlink:href="#m568874a126" y="514.518281"/>
      </g>
     </g>
     <g id="text_10">
      <!-- 0.0% -->
      <defs>
       <path d="M 8.109375 7.90625 
Q 8.109375 11.71875 10.84375 14.453125 
Q 13.578125 17.1875 17.390625 17.1875 
Q 21.234375 17.1875 23.96875 14.453125 
Q 26.703125 11.71875 26.703125 7.90625 
Q 26.703125 4.046875 23.96875 1.3125 
Q 21.234375 -1.421875 17.390625 -1.421875 
Q 13.578125 -1.421875 10.84375 1.3125 
Q 8.109375 4.046875 8.109375 7.90625 
z
" id="DejaVuSerif-Bold-46"/>
       <path d="M 21.578125 69.28125 
Q 18.453125 69.28125 17.078125 65.890625 
Q 15.71875 62.5 15.71875 54.390625 
Q 15.71875 46.234375 17.078125 42.8125 
Q 18.453125 39.40625 21.578125 39.40625 
Q 24.75 39.40625 26.109375 42.8125 
Q 27.484375 46.234375 27.484375 54.390625 
Q 27.484375 62.5 26.109375 65.890625 
Q 24.75 69.28125 21.578125 69.28125 
z
M 21.578125 74.21875 
Q 30.90625 74.21875 35.859375 69.109375 
Q 40.828125 64.015625 40.828125 54.390625 
Q 40.828125 44.78125 35.859375 39.640625 
Q 30.90625 34.515625 21.578125 34.515625 
Q 12.3125 34.515625 7.34375 39.640625 
Q 2.390625 44.78125 2.390625 54.390625 
Q 2.390625 64.015625 7.34375 69.109375 
Q 12.3125 74.21875 21.578125 74.21875 
z
M 66.109375 74.21875 
L 74.515625 74.21875 
L 28.90625 -1.421875 
L 20.515625 -1.421875 
z
M 73.390625 38.28125 
Q 82.71875 38.28125 87.640625 33.171875 
Q 92.578125 28.078125 92.578125 18.5 
Q 92.578125 8.890625 87.640625 3.734375 
Q 82.71875 -1.421875 73.390625 -1.421875 
Q 64.109375 -1.421875 59.15625 3.734375 
Q 54.203125 8.890625 54.203125 18.5 
Q 54.203125 28.078125 59.15625 33.171875 
Q 64.109375 38.28125 73.390625 38.28125 
z
M 73.390625 33.40625 
Q 70.21875 33.40625 68.84375 30 
Q 67.484375 26.609375 67.484375 18.5 
Q 67.484375 10.359375 68.875 6.9375 
Q 70.265625 3.515625 73.390625 3.515625 
Q 76.5625 3.515625 77.921875 6.9375 
Q 79.296875 10.359375 79.296875 18.5 
Q 79.296875 26.609375 77.921875 30 
Q 76.5625 33.40625 73.390625 33.40625 
z
" id="DejaVuSerif-Bold-37"/>
      </defs>
      <g style="fill:#333333;" transform="translate(49.734688 522.876562)scale(0.22 -0.22)">
       <use xlink:href="#DejaVuSerif-Bold-48"/>
       <use x="69.580078" xlink:href="#DejaVuSerif-Bold-46"/>
       <use x="104.394531" xlink:href="#DejaVuSerif-Bold-48"/>
       <use x="173.974609" xlink:href="#DejaVuSerif-Bold-37"/>
      </g>
     </g>
    </g>
    <g id="ytick_2">
     <g id="line2d_10">
      <g>
       <use style="fill:#333333;stroke:#333333;stroke-width:0.8;" x="112.41125" xlink:href="#m568874a126" y="452.148281"/>
      </g>
     </g>
     <g id="text_11">
      <!-- 5.0% -->
      <g style="fill:#333333;" transform="translate(49.734688 460.506562)scale(0.22 -0.22)">
       <use xlink:href="#DejaVuSerif-Bold-53"/>
       <use x="69.580078" xlink:href="#DejaVuSerif-Bold-46"/>
       <use x="104.394531" xlink:href="#DejaVuSerif-Bold-48"/>
       <use x="173.974609" xlink:href="#DejaVuSerif-Bold-37"/>
      </g>
     </g>
    </g>
    <g id="ytick_3">
     <g id="line2d_11">
      <g>
       <use style="fill:#333333;stroke:#333333;stroke-width:0.8;" x="112.41125" xlink:href="#m568874a126" y="389.778281"/>
      </g>
     </g>
     <g id="text_12">
      <!-- 10.0% -->
      <g style="fill:#333333;" transform="translate(34.4275 398.136562)scale(0.22 -0.22)">
       <use xlink:href="#DejaVuSerif-Bold-49"/>
       <use x="69.580078" xlink:href="#DejaVuSerif-Bold-48"/>
       <use x="139.160156" xlink:href="#DejaVuSerif-Bold-46"/>
       <use x="173.974609" xlink:href="#DejaVuSerif-Bold-48"/>
       <use x="243.554688" xlink:href="#DejaVuSerif-Bold-37"/>
      </g>
     </g>
    </g>
    <g id="ytick_4">
     <g id="line2d_12">
      <g>
       <use style="fill:#333333;stroke:#333333;stroke-width:0.8;" x="112.41125" xlink:href="#m568874a126" y="327.408281"/>
      </g>
     </g>
     <g id="text_13">
      <!-- 15.0% -->
      <g style="fill:#333333;" transform="translate(34.4275 335.766562)scale(0.22 -0.22)">
       <use xlink:href="#DejaVuSerif-Bold-49"/>
       <use x="69.580078" xlink:href="#DejaVuSerif-Bold-53"/>
       <use x="139.160156" xlink:href="#DejaVuSerif-Bold-46"/>
       <use x="173.974609" xlink:href="#DejaVuSerif-Bold-48"/>
       <use x="243.554688" xlink:href="#DejaVuSerif-Bold-37"/>
      </g>
     </g>
    </g>
    <g id="ytick_5">
     <g id="line2d_13">
      <g>
       <use style="fill:#333333;stroke:#333333;stroke-width:0.8;" x="112.41125" xlink:href="#m568874a126" y="265.038281"/>
      </g>
     </g>
     <g id="text_14">
      <!-- 20.0% -->
      <g style="fill:#333333;" transform="translate(34.4275 273.396562)scale(0.22 -0.22)">
       <use xlink:href="#DejaVuSerif-Bold-50"/>
       <use x="69.580078" xlink:href="#DejaVuSerif-Bold-48"/>
       <use x="139.160156" xlink:href="#DejaVuSerif-Bold-46"/>
       <use x="173.974609" xlink:href="#DejaVuSerif-Bold-48"/>
       <use x="243.554688" xlink:href="#DejaVuSerif-Bold-37"/>
      </g>
     </g>
    </g>
    <g id="ytick_6">
     <g id="line2d_14">
      <g>
       <use style="fill:#333333;stroke:#333333;stroke-width:0.8;" x="112.41125" xlink:href="#m568874a126" y="202.668281"/>
      </g>
     </g>
     <g id="text_15">
      <!-- 25.0% -->
      <g style="fill:#333333;" transform="translate(34.4275 211.026562)scale(0.22 -0.22)">
       <use xlink:href="#DejaVuSerif-Bold-50"/>
       <use x="69.580078" xlink:href="#DejaVuSerif-Bold-53"/>
       <use x="139.160156" xlink:href="#DejaVuSerif-Bold-46"/>
       <use x="173.974609" xlink:href="#DejaVuSerif-Bold-48"/>
       <use x="243.554688" xlink:href="#DejaVuSerif-Bold-37"/>
      </g>
     </g>
    </g>
    <g id="ytick_7">
     <g id="line2d_15">
      <g>
       <use style="fill:#333333;stroke:#333333;stroke-width:0.8;" x="112.41125" xlink:href="#m568874a126" y="140.298281"/>
      </g>
     </g>
     <g id="text_16">
      <!-- 30.0% -->
      <g style="fill:#333333;" transform="translate(34.4275 148.656562)scale(0.22 -0.22)">
       <use xlink:href="#DejaVuSerif-Bold-51"/>
       <use x="69.580078" xlink:href="#DejaVuSerif-Bold-48"/>
       <use x="139.160156" xlink:href="#DejaVuSerif-Bold-46"/>
       <use x="173.974609" xlink:href="#DejaVuSerif-Bold-48"/>
       <use x="243.554688" xlink:href="#DejaVuSerif-Bold-37"/>
      </g>
     </g>
    </g>
    <g id="ytick_8">
     <g id="line2d_16">
      <g>
       <use style="fill:#333333;stroke:#333333;stroke-width:0.8;" x="112.41125" xlink:href="#m568874a126" y="77.928281"/>
      </g>
     </g>
     <g id="text_17">
      <!-- 35.0% -->
      <g style="fill:#333333;" transform="translate(34.4275 86.286562)scale(0.22 -0.22)">
       <use xlink:href="#DejaVuSerif-Bold-51"/>
       <use x="69.580078" xlink:href="#DejaVuSerif-Bold-53"/>
       <use x="139.160156" xlink:href="#DejaVuSerif-Bold-46"/>
       <use x="173.974609" xlink:href="#DejaVuSerif-Bold-48"/>
       <use x="243.554688" xlink:href="#DejaVuSerif-Bold-37"/>
      </g>
     </g>
    </g>
    <g id="ytick_9">
     <g id="line2d_17">
      <g>
       <use style="fill:#333333;stroke:#333333;stroke-width:0.8;" x="112.41125" xlink:href="#m568874a126" y="15.558281"/>
      </g>
     </g>
     <g id="text_18">
      <!-- 40.0% -->
      <defs>
       <path d="M 63.8125 0 
L 23.6875 0 
L 23.6875 5.90625 
L 34.515625 5.90625 
L 34.515625 19.1875 
L 4.109375 19.1875 
L 4.109375 24.8125 
L 34.625 74.21875 
L 52.984375 74.21875 
L 52.984375 25.484375 
L 65.484375 25.484375 
L 65.484375 19.1875 
L 52.984375 19.1875 
L 52.984375 5.90625 
L 63.8125 5.90625 
z
M 34.515625 25.484375 
L 34.515625 60.890625 
L 12.796875 25.484375 
z
" id="DejaVuSerif-Bold-52"/>
      </defs>
      <g style="fill:#333333;" transform="translate(34.4275 23.916562)scale(0.22 -0.22)">
       <use xlink:href="#DejaVuSerif-Bold-52"/>
       <use x="69.580078" xlink:href="#DejaVuSerif-Bold-48"/>
       <use x="139.160156" xlink:href="#DejaVuSerif-Bold-46"/>
       <use x="173.974609" xlink:href="#DejaVuSerif-Bold-48"/>
       <use x="243.554688" xlink:href="#DejaVuSerif-Bold-37"/>
      </g>
     </g>
    </g>
    <g id="text_19">
     <!-- Percent of stars -->
     <defs>
      <path d="M 4.6875 0 
L 4.6875 5.90625 
L 14.015625 5.90625 
L 14.015625 67 
L 4.6875 67 
L 4.6875 72.90625 
L 46.1875 72.90625 
Q 58.34375 72.90625 65.515625 67.109375 
Q 72.703125 61.328125 72.703125 51.609375 
Q 72.703125 41.84375 65.5 36 
Q 58.296875 30.171875 46.1875 30.171875 
L 32.8125 30.171875 
L 32.8125 5.90625 
L 44.578125 5.90625 
L 44.578125 0 
z
M 32.8125 36.078125 
L 38.28125 36.078125 
Q 44.625 36.078125 48.40625 40.296875 
Q 52.203125 44.53125 52.203125 51.609375 
Q 52.203125 58.640625 48.4375 62.8125 
Q 44.671875 67 38.28125 67 
L 32.8125 67 
z
" id="DejaVuSerif-Bold-80"/>
      <path d="M 40.09375 29.296875 
Q 40.09375 39.546875 38.1875 43.671875 
Q 36.28125 47.796875 31.6875 47.796875 
Q 27.25 47.796875 25.3125 43.75 
Q 23.390625 39.703125 23.390625 30.171875 
L 23.390625 29.296875 
z
M 59.078125 23.484375 
L 23.390625 23.484375 
L 23.390625 23.09375 
Q 23.390625 13.03125 26.40625 8.5625 
Q 29.4375 4.109375 36.1875 4.109375 
Q 41.796875 4.109375 45.265625 7.078125 
Q 48.734375 10.0625 49.703125 15.71875 
L 57.8125 15.71875 
Q 55.71875 6.890625 49.46875 2.734375 
Q 43.21875 -1.421875 31.984375 -1.421875 
Q 18.5 -1.421875 11.296875 5.6875 
Q 4.109375 12.796875 4.109375 25.984375 
Q 4.109375 38.875 11.46875 46.09375 
Q 18.84375 53.328125 31.984375 53.328125 
Q 44.875 53.328125 51.75 45.734375 
Q 58.640625 38.140625 59.078125 23.484375 
z
" id="DejaVuSerif-Bold-101"/>
      <path d="M 53.71875 52.484375 
L 53.71875 37.015625 
L 48.1875 37.015625 
Q 47.90625 41.15625 45.953125 43.1875 
Q 44 45.21875 40.28125 45.21875 
Q 34.625 45.21875 31.34375 40.234375 
Q 28.078125 35.25 28.078125 26.421875 
L 28.078125 5.90625 
L 37.5 5.90625 
L 37.5 0 
L 3.421875 0 
L 3.421875 5.90625 
L 10.796875 5.90625 
L 10.796875 46 
L 2.875 46 
L 2.875 51.90625 
L 28.078125 51.90625 
L 28.078125 42.671875 
Q 30.609375 48.09375 34.78125 50.703125 
Q 38.96875 53.328125 45.015625 53.328125 
Q 46.53125 53.328125 48.703125 53.09375 
Q 50.875 52.875 53.71875 52.484375 
z
" id="DejaVuSerif-Bold-114"/>
      <path d="M 56.390625 16.21875 
Q 54.546875 7.328125 48.796875 2.953125 
Q 43.0625 -1.421875 33.203125 -1.421875 
Q 19.34375 -1.421875 11.71875 5.75 
Q 4.109375 12.9375 4.109375 25.984375 
Q 4.109375 38.875 11.625 46.09375 
Q 19.140625 53.328125 32.515625 53.328125 
Q 37.9375 53.328125 43.453125 52.296875 
Q 48.96875 51.265625 54.6875 49.21875 
L 54.6875 34.8125 
L 49.21875 34.8125 
Q 48.4375 41.40625 45.359375 44.59375 
Q 42.28125 47.796875 36.71875 47.796875 
Q 29.5 47.796875 26.4375 42.90625 
Q 23.390625 38.03125 23.390625 25.984375 
Q 23.390625 14.203125 26.359375 9.15625 
Q 29.34375 4.109375 36.078125 4.109375 
Q 41.3125 4.109375 44.453125 7.234375 
Q 47.609375 10.359375 48.296875 16.21875 
z
" id="DejaVuSerif-Bold-99"/>
      <path d="M 3.421875 0 
L 3.421875 5.90625 
L 10.796875 5.90625 
L 10.796875 46 
L 3.421875 46 
L 3.421875 51.90625 
L 28.078125 51.90625 
L 28.078125 44.578125 
Q 31.203125 49.21875 35.203125 51.265625 
Q 39.203125 53.328125 45.3125 53.328125 
Q 54.046875 53.328125 58.515625 48.171875 
Q 62.984375 43.015625 62.984375 33.015625 
L 62.984375 5.90625 
L 70.40625 5.90625 
L 70.40625 0 
L 39.40625 0 
L 39.40625 5.90625 
L 45.703125 5.90625 
L 45.703125 33.5 
Q 45.703125 40.09375 44.015625 42.65625 
Q 42.328125 45.21875 38.1875 45.21875 
Q 32.953125 45.21875 30.515625 41.375 
Q 28.078125 37.546875 28.078125 29.203125 
L 28.078125 5.90625 
L 34.421875 5.90625 
L 34.421875 0 
z
" id="DejaVuSerif-Bold-110"/>
      <path d="M 9.90625 46 
L 2.390625 46 
L 2.390625 51.90625 
L 9.90625 51.90625 
L 9.90625 68.015625 
L 27.203125 68.015625 
L 27.203125 51.90625 
L 41.609375 51.90625 
L 41.609375 46 
L 27.203125 46 
L 27.203125 14.203125 
Q 27.203125 7.421875 28.265625 5.765625 
Q 29.34375 4.109375 32.171875 4.109375 
Q 35.296875 4.109375 36.8125 6.203125 
Q 38.328125 8.296875 38.421875 12.703125 
L 45.703125 12.703125 
Q 45.265625 4.890625 41.421875 1.734375 
Q 37.59375 -1.421875 28.21875 -1.421875 
Q 17.53125 -1.421875 13.71875 1.921875 
Q 9.90625 5.28125 9.90625 14.203125 
z
" id="DejaVuSerif-Bold-116"/>
      <path d="M 33.40625 4.109375 
Q 38.875 4.109375 41.09375 8.796875 
Q 43.3125 13.484375 43.3125 25.984375 
Q 43.3125 38.484375 41.109375 43.140625 
Q 38.921875 47.796875 33.40625 47.796875 
Q 27.875 47.796875 25.625 43.078125 
Q 23.390625 38.375 23.390625 25.984375 
Q 23.390625 13.578125 25.625 8.84375 
Q 27.875 4.109375 33.40625 4.109375 
z
M 33.40625 -1.421875 
Q 19.671875 -1.421875 11.890625 5.875 
Q 4.109375 13.1875 4.109375 25.984375 
Q 4.109375 38.8125 11.890625 46.0625 
Q 19.671875 53.328125 33.40625 53.328125 
Q 47.171875 53.328125 54.9375 46.0625 
Q 62.703125 38.8125 62.703125 25.984375 
Q 62.703125 13.1875 54.90625 5.875 
Q 47.125 -1.421875 33.40625 -1.421875 
z
" id="DejaVuSerif-Bold-111"/>
      <path d="M 48.390625 62.984375 
L 42.921875 62.984375 
Q 42.53125 66.796875 40.703125 68.65625 
Q 38.875 70.515625 35.5 70.515625 
Q 31.59375 70.515625 29.828125 67.703125 
Q 28.078125 64.890625 28.078125 58.59375 
L 28.078125 51.90625 
L 41.109375 51.90625 
L 41.109375 46 
L 28.078125 46 
L 28.078125 5.90625 
L 38.09375 5.90625 
L 38.09375 0 
L 3.421875 0 
L 3.421875 5.90625 
L 10.796875 5.90625 
L 10.796875 46 
L 3.078125 46 
L 3.078125 51.90625 
L 10.796875 51.90625 
L 10.796875 58.40625 
Q 10.796875 67.046875 16.3125 71.515625 
Q 21.828125 75.984375 32.515625 75.984375 
Q 36.671875 75.984375 40.625 75.515625 
Q 44.578125 75.046875 48.390625 74.125 
z
" id="DejaVuSerif-Bold-102"/>
      <path d="M 4.6875 1.515625 
L 4.6875 16.015625 
L 10.203125 16.015625 
Q 10.890625 10.203125 14.546875 7.15625 
Q 18.21875 4.109375 24.515625 4.109375 
Q 29.78125 4.109375 32.59375 5.9375 
Q 35.40625 7.765625 35.40625 11.1875 
Q 35.40625 14.3125 33.625 16.015625 
Q 31.84375 17.71875 26.703125 19 
L 19.578125 20.796875 
Q 11.53125 22.796875 7.90625 26.53125 
Q 4.296875 30.28125 4.296875 36.625 
Q 4.296875 45.0625 10.15625 49.1875 
Q 16.015625 53.328125 28.21875 53.328125 
Q 32.8125 53.328125 38.015625 52.5625 
Q 43.21875 51.8125 49.515625 50.203125 
L 49.515625 37.109375 
L 44 37.109375 
Q 43.5625 42.4375 40.203125 45.109375 
Q 36.859375 47.796875 30.609375 47.796875 
Q 25.34375 47.796875 22.625 46.109375 
Q 19.921875 44.4375 19.921875 41.21875 
Q 19.921875 38.578125 21.484375 37.0625 
Q 23.046875 35.546875 27.09375 34.515625 
L 34.1875 32.71875 
Q 44.390625 30.125 48.296875 26.3125 
Q 52.203125 22.515625 52.203125 15.71875 
Q 52.203125 6.9375 45.921875 2.75 
Q 39.65625 -1.421875 26.421875 -1.421875 
Q 21.578125 -1.421875 16.15625 -0.6875 
Q 10.75 0.046875 4.6875 1.515625 
z
" id="DejaVuSerif-Bold-115"/>
      <path d="M 55.078125 31.890625 
L 55.078125 5.90625 
L 62.5 5.90625 
L 62.5 0 
L 37.796875 0 
L 37.796875 6.59375 
Q 34.375 2.484375 30.171875 0.53125 
Q 25.984375 -1.421875 20.609375 -1.421875 
Q 12.640625 -1.421875 8.375 2.84375 
Q 4.109375 7.125 4.109375 15.09375 
Q 4.109375 23.828125 10.234375 28.171875 
Q 16.359375 32.515625 28.71875 32.515625 
L 37.796875 32.515625 
L 37.796875 35.59375 
Q 37.796875 41.890625 34.8125 44.890625 
Q 31.84375 47.90625 25.59375 47.90625 
Q 20.40625 47.90625 17.59375 45.78125 
Q 14.796875 43.65625 13.625 38.8125 
L 8.109375 38.8125 
L 8.109375 50 
Q 12.75 51.65625 17.71875 52.484375 
Q 22.703125 53.328125 28.21875 53.328125 
Q 42.140625 53.328125 48.609375 48.140625 
Q 55.078125 42.96875 55.078125 31.890625 
z
M 37.796875 16.3125 
L 37.796875 26.703125 
L 31.296875 26.703125 
Q 26.46875 26.703125 23.875 24.0625 
Q 21.296875 21.4375 21.296875 16.5 
Q 21.296875 11.578125 23.171875 9.125 
Q 25.046875 6.6875 28.90625 6.6875 
Q 32.90625 6.6875 35.34375 9.328125 
Q 37.796875 11.96875 37.796875 16.3125 
z
" id="DejaVuSerif-Bold-97"/>
     </defs>
     <g transform="translate(25.43625 371.898281)rotate(-90)scale(0.24 -0.24)">
      <use xlink:href="#DejaVuSerif-Bold-80"/>
      <use x="75.164062" xlink:href="#DejaVuSerif-Bold-101"/>
      <use x="138.787109" xlink:href="#DejaVuSerif-Bold-114"/>
      <use x="191.472656" xlink:href="#DejaVuSerif-Bold-99"/>
      <use x="252.361328" xlink:href="#DejaVuSerif-Bold-101"/>
      <use x="315.984375" xlink:href="#DejaVuSerif-Bold-110"/>
      <use x="388.689453" xlink:href="#DejaVuSerif-Bold-116"/>
      <use x="434.880859" xlink:href="#DejaVuSerif-Bold-32"/>
      <use x="469.695312" xlink:href="#DejaVuSerif-Bold-111"/>
      <use x="536.394531" xlink:href="#DejaVuSerif-Bold-102"/>
      <use x="579.412109" xlink:href="#DejaVuSerif-Bold-32"/>
      <use x="614.226562" xlink:href="#DejaVuSerif-Bold-115"/>
      <use x="670.525391" xlink:href="#DejaVuSerif-Bold-116"/>
      <use x="716.716797" xlink:href="#DejaVuSerif-Bold-97"/>
      <use x="781.511719" xlink:href="#DejaVuSerif-Bold-114"/>
      <use x="834.197266" xlink:href="#DejaVuSerif-Bold-115"/>
     </g>
    </g>
   </g>
   <g id="patch_39">
    <path d="M 112.41125 514.518281 
L 112.41125 15.558281 
" style="fill:none;stroke:#333333;stroke-linecap:square;stroke-linejoin:miter;stroke-width:0.8;"/>
   </g>
   <g id="patch_40">
    <path d="M 1005.21125 514.518281 
L 1005.21125 15.558281 
" style="fill:none;stroke:#333333;stroke-linecap:square;stroke-linejoin:miter;stroke-width:0.8;"/>
   </g>
   <g id="patch_41">
    <path d="M 112.41125 514.518281 
L 1005.21125 514.518281 
" style="fill:none;stroke:#333333;stroke-linecap:square;stroke-linejoin:miter;stroke-width:0.8;"/>
   </g>
   <g id="patch_42">
    <path d="M 112.41125 15.558281 
L 1005.21125 15.558281 
" style="fill:none;stroke:#333333;stroke-linecap:square;stroke-linejoin:miter;stroke-width:0.8;"/>
   </g>
   <g id="legend_1">
    <g id="patch_43">
     <path d="M 132.21125 68.779031 
L 176.21125 68.779031 
L 176.21125 53.379031 
L 132.21125 53.379031 
z
" style="fill:none;stroke:#000000;stroke-linejoin:miter;"/>
    </g>
    <g id="text_20">
     <!-- $M_d=10^4 M_{\odot}$ -->
     <defs>
      <path d="M 4.203125 0 
L 4.203125 5.90625 
L 13.484375 5.90625 
L 13.484375 67 
L 4.203125 67 
L 4.203125 72.90625 
L 34.28125 72.90625 
L 55.078125 26.125 
L 75.984375 72.90625 
L 106 72.90625 
L 106 67 
L 96.6875 67 
L 96.6875 5.90625 
L 106 5.90625 
L 106 0 
L 68.5 0 
L 68.5 5.90625 
L 77.78125 5.90625 
L 77.78125 61.53125 
L 55.171875 10.6875 
L 42.828125 10.6875 
L 20.3125 61.53125 
L 20.3125 5.90625 
L 29.59375 5.90625 
L 29.59375 0 
z
" id="DejaVuSerif-Bold-77"/>
      <path d="M 42.921875 23.390625 
L 42.921875 28.515625 
Q 42.921875 37.59375 40.578125 41.640625 
Q 38.234375 45.703125 33.109375 45.703125 
Q 27.734375 45.703125 25.5625 41.421875 
Q 23.390625 37.15625 23.390625 25.984375 
Q 23.390625 14.796875 25.578125 10.5 
Q 27.78125 6.203125 33.109375 6.203125 
Q 38.234375 6.203125 40.578125 10.25 
Q 42.921875 14.3125 42.921875 23.390625 
z
M 60.203125 5.90625 
L 67.578125 5.90625 
L 67.578125 0 
L 42.921875 0 
L 42.921875 6.59375 
Q 40.71875 2.546875 36.984375 0.5625 
Q 33.25 -1.421875 27.78125 -1.421875 
Q 16.75 -1.421875 10.421875 5.90625 
Q 4.109375 13.234375 4.109375 25.984375 
Q 4.109375 38.765625 10.421875 46.046875 
Q 16.75 53.328125 27.78125 53.328125 
Q 33.25 53.328125 36.984375 51.34375 
Q 40.71875 49.359375 42.921875 45.3125 
L 42.921875 70.125 
L 35.5 70.125 
L 35.5 75.984375 
L 60.203125 75.984375 
z
" id="DejaVuSerif-Bold-100"/>
      <path d="M 10.59375 25.78125 
L 73.1875 25.78125 
L 73.1875 14.703125 
L 10.59375 14.703125 
z
M 10.59375 48 
L 73.1875 48 
L 73.1875 36.921875 
L 10.59375 36.921875 
z
" id="DejaVuSerif-Bold-61"/>
      <path d="M 38.09375 22.125 
Q 32.625 27.546875 32.625 31.34375 
Q 32.625 35.15625 35.359375 37.890625 
Q 38.09375 40.625 41.890625 40.625 
Q 45.75 40.625 48.484375 37.890625 
Q 51.21875 35.15625 51.21875 31.34375 
Q 51.21875 27.546875 48.484375 24.828125 
Q 45.75 22.125 41.890625 22.125 
Q 38.09375 22.125 32.625 27.546875 
z
M 27.203125 46.046875 
Q 21.78125 36.765625 21.78125 31.34375 
Q 21.78125 25.921875 24.484375 21.28125 
Q 27.203125 16.65625 31.828125 13.9375 
Q 36.46875 11.234375 41.890625 11.234375 
Q 47.3125 11.234375 51.953125 13.9375 
Q 56.59375 16.65625 59.296875 21.28125 
Q 62.015625 25.921875 62.015625 31.34375 
Q 62.015625 36.765625 59.296875 41.40625 
Q 56.59375 46.046875 51.953125 48.75 
Q 47.3125 51.46875 41.890625 51.46875 
Q 36.46875 51.46875 31.828125 48.75 
Q 27.203125 46.046875 21.78125 36.765625 
z
M 18.953125 8.40625 
Q 10.546875 22.859375 10.546875 31.34375 
Q 10.546875 39.84375 14.75 47.0625 
Q 18.953125 54.296875 26.171875 58.5 
Q 33.40625 62.703125 41.890625 62.703125 
Q 50.390625 62.703125 57.609375 58.5 
Q 64.84375 54.296875 69.046875 47.0625 
Q 73.25 39.84375 73.25 31.34375 
Q 73.25 22.859375 69.046875 15.625 
Q 64.84375 8.40625 57.609375 4.203125 
Q 50.390625 0 41.890625 0 
Q 33.40625 0 26.171875 4.203125 
Q 18.953125 8.40625 10.546875 22.859375 
z
" id="DejaVuSerif-Bold-8857"/>
     </defs>
     <g transform="translate(193.81125 54.102969)scale(0.22 -0.22)">
      <use transform="translate(0 0.7125)" xlink:href="#DejaVuSerif-Bold-77"/>
      <use transform="translate(111.601719 -14.859375)scale(0.7)" xlink:href="#DejaVuSerif-Bold-100"/>
      <use transform="translate(184.304453 0.7125)" xlink:href="#DejaVuSerif-Bold-61"/>
      <use transform="translate(289.255625 0.7125)" xlink:href="#DejaVuSerif-Bold-49"/>
      <use transform="translate(358.835703 0.7125)" xlink:href="#DejaVuSerif-Bold-48"/>
      <use transform="translate(429.324141 37.046875)scale(0.7)" xlink:href="#DejaVuSerif-Bold-52"/>
      <use transform="translate(480.625508 0.7125)" xlink:href="#DejaVuSerif-Bold-77"/>
      <use transform="translate(592.227227 -14.859375)scale(0.7)" xlink:href="#DejaVuSerif-Bold-8857"/>
     </g>
     <!-- $n(r)\propto r^{-1.5}$ -->
     <defs>
      <path d="M 42.09375 -15.578125 
Q 25.640625 -9.46875 17.53125 1.90625 
Q 9.421875 13.28125 9.421875 30.171875 
Q 9.421875 47.078125 17.421875 58.296875 
Q 25.4375 69.53125 42.09375 75.984375 
L 42.09375 70.125 
Q 34.375 65.4375 30.984375 56.21875 
Q 27.59375 47.015625 27.59375 30.171875 
Q 27.59375 13.375 30.984375 4.171875 
Q 34.375 -5.03125 42.09375 -9.71875 
z
" id="DejaVuSerif-Bold-40"/>
      <path d="M 5.078125 -15.578125 
L 5.078125 -9.71875 
Q 12.796875 -5.03125 16.1875 4.171875 
Q 19.578125 13.375 19.578125 30.171875 
Q 19.578125 47.015625 16.1875 56.21875 
Q 12.796875 65.4375 5.078125 70.125 
L 5.078125 75.984375 
Q 21.734375 69.53125 29.765625 58.296875 
Q 37.796875 47.078125 37.796875 30.171875 
Q 37.796875 13.28125 29.65625 1.90625 
Q 21.53125 -9.46875 5.078125 -15.578125 
z
" id="DejaVuSerif-Bold-41"/>
      <path d="M 37.40625 32.171875 
Q 35.15625 35.890625 32.171875 37.6875 
Q 29.203125 39.5 25.390625 39.5 
Q 20.84375 39.5 17.96875 36.734375 
Q 15.09375 33.984375 15.09375 29.6875 
Q 15.09375 25.53125 17.71875 22.765625 
Q 20.359375 20.015625 24.3125 20.015625 
Q 27.984375 20.015625 31.046875 22.84375 
Q 34.125 25.6875 37.40625 32.171875 
z
M 57.171875 9.8125 
Q 53.765625 9.8125 50.078125 12.5625 
Q 46.390625 15.328125 41.890625 22.3125 
Q 38.53125 15.828125 34.71875 12.765625 
Q 30.90625 9.71875 26.21875 9.71875 
Q 19.4375 9.71875 14.71875 15.453125 
Q 10.015625 21.1875 10.015625 29.78125 
Q 10.015625 38.765625 14.1875 44.28125 
Q 18.359375 49.8125 25.09375 49.8125 
Q 29.640625 49.8125 33.375 46.953125 
Q 37.109375 44.09375 41.40625 37.203125 
Q 44.734375 43.65625 48.640625 46.78125 
Q 52.546875 49.90625 57.171875 49.90625 
L 57.171875 39.5 
Q 55.46875 39.5 52.4375 36.71875 
Q 49.421875 33.9375 46 27.390625 
Q 48.1875 23.734375 51.1875 21.875 
Q 54.203125 20.015625 57.171875 20.015625 
z
" id="DejaVuSerif-Bold-8733"/>
      <path d="M 10.59375 36.921875 
L 73.1875 36.921875 
L 73.1875 25.6875 
L 10.59375 25.6875 
z
" id="DejaVuSerif-Bold-8722"/>
     </defs>
     <g transform="translate(193.81125 80.907906)scale(0.22 -0.22)">
      <use transform="translate(0 0.7125)" xlink:href="#DejaVuSerif-Bold-110"/>
      <use transform="translate(72.705078 0.7125)" xlink:href="#DejaVuSerif-Bold-40"/>
      <use transform="translate(120.019531 0.7125)" xlink:href="#DejaVuSerif-Bold-114"/>
      <use transform="translate(172.705078 0.7125)" xlink:href="#DejaVuSerif-Bold-41"/>
      <use transform="translate(241.181641 0.7125)" xlink:href="#DejaVuSerif-Bold-8733"/>
      <use transform="translate(329.53125 0.7125)" xlink:href="#DejaVuSerif-Bold-114"/>
      <use transform="translate(383.125156 37.046875)scale(0.7)" xlink:href="#DejaVuSerif-Bold-8722"/>
      <use transform="translate(441.7775 37.046875)scale(0.7)" xlink:href="#DejaVuSerif-Bold-49"/>
      <use transform="translate(490.483555 37.046875)scale(0.7)" xlink:href="#DejaVuSerif-Bold-46"/>
      <use transform="translate(514.853672 37.046875)scale(0.7)" xlink:href="#DejaVuSerif-Bold-53"/>
     </g>
    </g>
    <g id="patch_44">
     <path d="M 132.21125 129.903969 
L 176.21125 129.903969 
L 176.21125 114.503969 
L 132.21125 114.503969 
z
" style="fill:none;stroke:#ff0000;stroke-dasharray:5,3;stroke-dashoffset:0;stroke-linejoin:miter;"/>
    </g>
    <g id="text_21">
     <!-- $M_d=2\times 10^4 M_{\odot}$ -->
     <defs>
      <path d="M 70.90625 52.78125 
L 49.421875 31.296875 
L 70.90625 9.8125 
L 63.375 2.296875 
L 41.890625 23.78125 
L 20.40625 2.296875 
L 12.890625 9.8125 
L 34.421875 31.296875 
L 12.890625 52.78125 
L 20.40625 60.40625 
L 41.890625 38.921875 
L 63.375 60.40625 
z
" id="DejaVuSerif-Bold-215"/>
     </defs>
     <g transform="translate(193.81125 115.227906)scale(0.22 -0.22)">
      <use transform="translate(0 0.7125)" xlink:href="#DejaVuSerif-Bold-77"/>
      <use transform="translate(111.601719 -14.859375)scale(0.7)" xlink:href="#DejaVuSerif-Bold-100"/>
      <use transform="translate(184.304453 0.7125)" xlink:href="#DejaVuSerif-Bold-61"/>
      <use transform="translate(289.255625 0.7125)" xlink:href="#DejaVuSerif-Bold-50"/>
      <use transform="translate(379.997813 0.7125)" xlink:href="#DejaVuSerif-Bold-215"/>
      <use transform="translate(484.948984 0.7125)" xlink:href="#DejaVuSerif-Bold-49"/>
      <use transform="translate(554.529063 0.7125)" xlink:href="#DejaVuSerif-Bold-48"/>
      <use transform="translate(625.0175 37.046875)scale(0.7)" xlink:href="#DejaVuSerif-Bold-52"/>
      <use transform="translate(676.318867 0.7125)" xlink:href="#DejaVuSerif-Bold-77"/>
      <use transform="translate(787.920586 -14.859375)scale(0.7)" xlink:href="#DejaVuSerif-Bold-8857"/>
     </g>
     <!-- $n(r)\propto r^{-1.1}$ -->
     <g transform="translate(193.81125 142.032844)scale(0.22 -0.22)">
      <use transform="translate(0 0.7125)" xlink:href="#DejaVuSerif-Bold-110"/>
      <use transform="translate(72.705078 0.7125)" xlink:href="#DejaVuSerif-Bold-40"/>
      <use transform="translate(120.019531 0.7125)" xlink:href="#DejaVuSerif-Bold-114"/>
      <use transform="translate(172.705078 0.7125)" xlink:href="#DejaVuSerif-Bold-41"/>
      <use transform="translate(241.181641 0.7125)" xlink:href="#DejaVuSerif-Bold-8733"/>
      <use transform="translate(329.53125 0.7125)" xlink:href="#DejaVuSerif-Bold-114"/>
      <use transform="translate(383.125156 37.046875)scale(0.7)" xlink:href="#DejaVuSerif-Bold-8722"/>
      <use transform="translate(441.7775 37.046875)scale(0.7)" xlink:href="#DejaVuSerif-Bold-49"/>
      <use transform="translate(490.483555 37.046875)scale(0.7)" xlink:href="#DejaVuSerif-Bold-46"/>
      <use transform="translate(514.853672 37.046875)scale(0.7)" xlink:href="#DejaVuSerif-Bold-49"/>
     </g>
    </g>
   </g>
  </g>
 </g>
 <defs>
  <clipPath id="p06973123c9">
   <rect height="498.96" width="892.8" x="112.41125" y="15.558281"/>
  </clipPath>
 </defs>
</svg>
