<?xml version="1.0" encoding="utf-8" standalone="no"?>
<!DOCTYPE svg PUBLIC "-//W3C//DTD SVG 1.1//EN"
  "http://www.w3.org/Graphics/SVG/1.1/DTD/svg11.dtd">
<!-- Created with matplotlib (https://matplotlib.org/) -->
<svg height="626.4pt" version="1.1" viewBox="0 0 1166.4 626.4" width="1166.4pt" xmlns="http://www.w3.org/2000/svg" xmlns:xlink="http://www.w3.org/1999/xlink">
 <defs>
  <style type="text/css">
*{stroke-linecap:butt;stroke-linejoin:round;}
  </style>
 </defs>
 <g id="figure_1">
  <g id="patch_1">
   <path d="M 0 626.4 
L 1166.4 626.4 
L 1166.4 0 
L 0 0 
z
" style="fill:#ffffff;"/>
  </g>
  <g id="axes_1">
   <g id="patch_2">
    <path d="M 53.3275 566.648125 
L 1159.2 566.648125 
L 1159.2 7.2 
L 53.3275 7.2 
z
" style="fill:#ffffff;"/>
   </g>
   <g id="matplotlib.axis_1">
    <g id="xtick_1">
     <g id="line2d_1">
      <defs>
       <path d="M 0 0 
L 0 -6 
" id="mf48599409c" style="stroke:#333333;stroke-width:0.8;"/>
      </defs>
      <g>
       <use style="fill:#333333;stroke:#333333;stroke-width:0.8;" x="151.817857" xlink:href="#mf48599409c" y="566.648125"/>
      </g>
     </g>
     <g id="text_1">
      <!-- $\mathdefault{0.07}$ -->
      <defs>
       <path d="M 34.8125 4.296875 
Q 40.671875 4.296875 42.84375 9.609375 
Q 45.015625 14.9375 45.015625 36.375 
Q 45.015625 57.671875 42.84375 63.078125 
Q 40.671875 68.5 34.8125 68.5 
Q 28.953125 68.5 26.78125 63.171875 
Q 24.609375 57.859375 24.609375 36.375 
Q 24.609375 14.9375 26.78125 9.609375 
Q 28.953125 4.296875 34.8125 4.296875 
z
M 34.8125 -1.421875 
Q 20.21875 -1.421875 12.453125 8.3125 
Q 4.6875 18.0625 4.6875 36.375 
Q 4.6875 54.6875 12.453125 64.453125 
Q 20.21875 74.21875 34.8125 74.21875 
Q 49.359375 74.21875 57.125 64.453125 
Q 64.890625 54.6875 64.890625 36.375 
Q 64.890625 18.0625 57.125 8.3125 
Q 49.359375 -1.421875 34.8125 -1.421875 
z
" id="DejaVuSerif-Bold-48"/>
       <path d="M 8.109375 7.90625 
Q 8.109375 11.71875 10.84375 14.453125 
Q 13.578125 17.1875 17.390625 17.1875 
Q 21.234375 17.1875 23.96875 14.453125 
Q 26.703125 11.71875 26.703125 7.90625 
Q 26.703125 4.046875 23.96875 1.3125 
Q 21.234375 -1.421875 17.390625 -1.421875 
Q 13.578125 -1.421875 10.84375 1.3125 
Q 8.109375 4.046875 8.109375 7.90625 
z
" id="DejaVuSerif-Bold-46"/>
       <path d="M 61.28125 60.5 
L 31.203125 0 
L 21.296875 0 
L 50.59375 59.078125 
L 14.59375 59.078125 
L 14.59375 49.21875 
L 7.90625 49.21875 
L 7.90625 72.90625 
L 61.28125 72.90625 
z
" id="DejaVuSerif-Bold-55"/>
      </defs>
      <g style="fill:#333333;" transform="translate(124.977857 586.864687)scale(0.22 -0.22)">
       <use transform="translate(0 0.78125)" xlink:href="#DejaVuSerif-Bold-48"/>
       <use transform="translate(69.580078 0.78125)" xlink:href="#DejaVuSerif-Bold-46"/>
       <use transform="translate(104.394531 0.78125)" xlink:href="#DejaVuSerif-Bold-48"/>
       <use transform="translate(173.974609 0.78125)" xlink:href="#DejaVuSerif-Bold-55"/>
      </g>
     </g>
    </g>
    <g id="xtick_2">
     <g id="line2d_2">
      <g>
       <use style="fill:#333333;stroke:#333333;stroke-width:0.8;" x="308.735323" xlink:href="#mf48599409c" y="566.648125"/>
      </g>
     </g>
     <g id="text_2">
      <!-- $\mathdefault{0.08}$ -->
      <defs>
       <path d="M 46.484375 38.8125 
Q 55.171875 37.40625 59.6875 32.421875 
Q 64.203125 27.4375 64.203125 19.390625 
Q 64.203125 9.328125 56.609375 3.953125 
Q 49.03125 -1.421875 34.71875 -1.421875 
Q 20.40625 -1.421875 12.78125 3.953125 
Q 5.171875 9.328125 5.171875 19.390625 
Q 5.171875 27.4375 9.71875 32.421875 
Q 14.265625 37.40625 22.90625 38.8125 
Q 15.234375 40.578125 11.421875 44.703125 
Q 7.625 48.828125 7.625 55.171875 
Q 7.625 64.453125 14.546875 69.328125 
Q 21.484375 74.21875 34.71875 74.21875 
Q 47.90625 74.21875 54.859375 69.328125 
Q 61.8125 64.453125 61.8125 55.171875 
Q 61.8125 48.828125 57.984375 44.703125 
Q 54.15625 40.578125 46.484375 38.8125 
z
M 42.921875 54.984375 
Q 42.921875 62.703125 41.0625 65.59375 
Q 39.203125 68.5 34.71875 68.5 
Q 30.171875 68.5 28.34375 65.59375 
Q 26.515625 62.703125 26.515625 54.984375 
Q 26.515625 47.3125 28.34375 44.453125 
Q 30.171875 41.609375 34.71875 41.609375 
Q 39.265625 41.609375 41.09375 44.453125 
Q 42.921875 47.3125 42.921875 54.984375 
z
M 44.828125 20.21875 
Q 44.828125 29.15625 42.546875 32.515625 
Q 40.28125 35.890625 34.71875 35.890625 
Q 29.109375 35.890625 26.859375 32.515625 
Q 24.609375 29.15625 24.609375 20.21875 
Q 24.609375 11.1875 26.875 7.734375 
Q 29.15625 4.296875 34.71875 4.296875 
Q 40.234375 4.296875 42.53125 7.734375 
Q 44.828125 11.1875 44.828125 20.21875 
z
" id="DejaVuSerif-Bold-56"/>
      </defs>
      <g style="fill:#333333;" transform="translate(281.895323 586.864687)scale(0.22 -0.22)">
       <use transform="translate(0 0.78125)" xlink:href="#DejaVuSerif-Bold-48"/>
       <use transform="translate(69.580078 0.78125)" xlink:href="#DejaVuSerif-Bold-46"/>
       <use transform="translate(104.394531 0.78125)" xlink:href="#DejaVuSerif-Bold-48"/>
       <use transform="translate(173.974609 0.78125)" xlink:href="#DejaVuSerif-Bold-56"/>
      </g>
     </g>
    </g>
    <g id="xtick_3">
     <g id="line2d_3">
      <g>
       <use style="fill:#333333;stroke:#333333;stroke-width:0.8;" x="465.652788" xlink:href="#mf48599409c" y="566.648125"/>
      </g>
     </g>
     <g id="text_3">
      <!-- $\mathdefault{0.09}$ -->
      <defs>
       <path d="M 34.078125 68.5 
Q 29.046875 68.5 26.921875 64.234375 
Q 24.8125 59.96875 24.8125 49.421875 
Q 24.8125 38.875 26.921875 34.59375 
Q 29.046875 30.328125 34.078125 30.328125 
Q 39.109375 30.328125 41.25 34.59375 
Q 43.40625 38.875 43.40625 49.421875 
Q 43.40625 59.96875 41.25 64.234375 
Q 39.109375 68.5 34.078125 68.5 
z
M 44.96875 29.6875 
Q 41.75 27.09375 37.8125 25.796875 
Q 33.890625 24.515625 29.296875 24.515625 
Q 18.171875 24.515625 11.796875 31.03125 
Q 5.421875 37.546875 5.421875 49.03125 
Q 5.421875 61.140625 12.546875 67.671875 
Q 19.671875 74.21875 32.90625 74.21875 
Q 47.859375 74.21875 55.5625 65.1875 
Q 63.28125 56.15625 63.28125 38.71875 
Q 63.28125 18.84375 54.734375 8.703125 
Q 46.1875 -1.421875 29.390625 -1.421875 
Q 25 -1.421875 19.96875 -0.6875 
Q 14.9375 0.046875 9.1875 1.515625 
L 9.1875 14.40625 
L 15.09375 14.40625 
Q 16.3125 9.421875 19.703125 6.859375 
Q 23.09375 4.296875 28.515625 4.296875 
Q 37.109375 4.296875 41.015625 10.28125 
Q 44.921875 16.265625 44.96875 29.6875 
z
" id="DejaVuSerif-Bold-57"/>
      </defs>
      <g style="fill:#333333;" transform="translate(438.812788 586.864687)scale(0.22 -0.22)">
       <use transform="translate(0 0.78125)" xlink:href="#DejaVuSerif-Bold-48"/>
       <use transform="translate(69.580078 0.78125)" xlink:href="#DejaVuSerif-Bold-46"/>
       <use transform="translate(104.394531 0.78125)" xlink:href="#DejaVuSerif-Bold-48"/>
       <use transform="translate(173.974609 0.78125)" xlink:href="#DejaVuSerif-Bold-57"/>
      </g>
     </g>
    </g>
    <g id="xtick_4">
     <g id="line2d_4">
      <g>
       <use style="fill:#333333;stroke:#333333;stroke-width:0.8;" x="622.570254" xlink:href="#mf48599409c" y="566.648125"/>
      </g>
     </g>
     <g id="text_4">
      <!-- $\mathdefault{0.10}$ -->
      <defs>
       <path d="M 13.71875 0 
L 13.71875 5.90625 
L 27.390625 5.90625 
L 27.390625 64.890625 
L 12.203125 55.90625 
L 12.203125 63.1875 
L 30.515625 74.21875 
L 45.90625 74.21875 
L 45.90625 5.90625 
L 59.625 5.90625 
L 59.625 0 
z
" id="DejaVuSerif-Bold-49"/>
      </defs>
      <g style="fill:#333333;" transform="translate(595.730254 586.864687)scale(0.22 -0.22)">
       <use transform="translate(0 0.78125)" xlink:href="#DejaVuSerif-Bold-48"/>
       <use transform="translate(69.580078 0.78125)" xlink:href="#DejaVuSerif-Bold-46"/>
       <use transform="translate(104.394531 0.78125)" xlink:href="#DejaVuSerif-Bold-49"/>
       <use transform="translate(173.974609 0.78125)" xlink:href="#DejaVuSerif-Bold-48"/>
      </g>
     </g>
    </g>
    <g id="xtick_5">
     <g id="line2d_5">
      <g>
       <use style="fill:#333333;stroke:#333333;stroke-width:0.8;" x="779.48772" xlink:href="#mf48599409c" y="566.648125"/>
      </g>
     </g>
     <g id="text_5">
      <!-- $\mathdefault{0.11}$ -->
      <g style="fill:#333333;" transform="translate(752.64772 586.864687)scale(0.22 -0.22)">
       <use transform="translate(0 0.78125)" xlink:href="#DejaVuSerif-Bold-48"/>
       <use transform="translate(69.580078 0.78125)" xlink:href="#DejaVuSerif-Bold-46"/>
       <use transform="translate(104.394531 0.78125)" xlink:href="#DejaVuSerif-Bold-49"/>
       <use transform="translate(173.974609 0.78125)" xlink:href="#DejaVuSerif-Bold-49"/>
      </g>
     </g>
    </g>
    <g id="xtick_6">
     <g id="line2d_6">
      <g>
       <use style="fill:#333333;stroke:#333333;stroke-width:0.8;" x="936.405186" xlink:href="#mf48599409c" y="566.648125"/>
      </g>
     </g>
     <g id="text_6">
      <!-- $\mathdefault{0.12}$ -->
      <defs>
       <path d="M 13.1875 54.890625 
L 7.328125 54.890625 
L 7.328125 70.609375 
Q 13.28125 72.40625 19.109375 73.3125 
Q 24.953125 74.21875 30.90625 74.21875 
Q 44.828125 74.21875 52.609375 68.53125 
Q 60.40625 62.84375 60.40625 52.6875 
Q 60.40625 45.453125 56.109375 39.71875 
Q 51.8125 33.984375 39.703125 26.125 
L 19.390625 12.796875 
L 53.90625 12.796875 
L 53.90625 21.390625 
L 60.59375 21.390625 
L 60.59375 0 
L 6.6875 0 
L 6.6875 11.921875 
L 17.484375 19.390625 
Q 31.296875 28.90625 35.890625 35.59375 
Q 40.484375 42.28125 40.484375 51.21875 
Q 40.484375 59.671875 36.984375 64.078125 
Q 33.5 68.5 26.8125 68.5 
Q 21.046875 68.5 17.578125 65.015625 
Q 14.109375 61.53125 13.1875 54.890625 
z
" id="DejaVuSerif-Bold-50"/>
      </defs>
      <g style="fill:#333333;" transform="translate(909.565186 586.864687)scale(0.22 -0.22)">
       <use transform="translate(0 0.78125)" xlink:href="#DejaVuSerif-Bold-48"/>
       <use transform="translate(69.580078 0.78125)" xlink:href="#DejaVuSerif-Bold-46"/>
       <use transform="translate(104.394531 0.78125)" xlink:href="#DejaVuSerif-Bold-49"/>
       <use transform="translate(173.974609 0.78125)" xlink:href="#DejaVuSerif-Bold-50"/>
      </g>
     </g>
    </g>
    <g id="xtick_7">
     <g id="line2d_7">
      <g>
       <use style="fill:#333333;stroke:#333333;stroke-width:0.8;" x="1093.322651" xlink:href="#mf48599409c" y="566.648125"/>
      </g>
     </g>
     <g id="text_7">
      <!-- $\mathdefault{0.13}$ -->
      <defs>
       <path d="M 8.59375 70.796875 
Q 15.046875 72.515625 21.09375 73.359375 
Q 27.15625 74.21875 32.90625 74.21875 
Q 46.09375 74.21875 53.140625 69.5 
Q 60.203125 64.796875 60.203125 56 
Q 60.203125 49.421875 56.140625 45.3125 
Q 52.09375 41.21875 44.28125 39.796875 
Q 53.8125 38.28125 58.5 33.296875 
Q 63.1875 28.328125 63.1875 19.671875 
Q 63.1875 9.46875 55.09375 4.015625 
Q 47.015625 -1.421875 31.6875 -1.421875 
Q 25.921875 -1.421875 19.796875 -0.4375 
Q 13.671875 0.53125 6.984375 2.484375 
L 6.984375 18.5 
L 12.890625 18.5 
Q 13.421875 11.578125 17.234375 7.9375 
Q 21.046875 4.296875 27.78125 4.296875 
Q 35.203125 4.296875 39.25 8.421875 
Q 43.3125 12.546875 43.3125 20.125 
Q 43.3125 28.03125 39.078125 32.328125 
Q 34.859375 36.625 27.09375 36.625 
L 23.875 36.625 
L 23.875 42.484375 
L 26.421875 42.484375 
Q 33.59375 42.484375 37.203125 45.796875 
Q 40.828125 49.125 40.828125 55.71875 
Q 40.828125 61.921875 37.421875 65.203125 
Q 34.03125 68.5 27.6875 68.5 
Q 21.921875 68.5 18.546875 65.34375 
Q 15.1875 62.203125 14.5 56.203125 
L 8.59375 56.203125 
z
" id="DejaVuSerif-Bold-51"/>
      </defs>
      <g style="fill:#333333;" transform="translate(1066.482651 586.864687)scale(0.22 -0.22)">
       <use transform="translate(0 0.78125)" xlink:href="#DejaVuSerif-Bold-48"/>
       <use transform="translate(69.580078 0.78125)" xlink:href="#DejaVuSerif-Bold-46"/>
       <use transform="translate(104.394531 0.78125)" xlink:href="#DejaVuSerif-Bold-49"/>
       <use transform="translate(173.974609 0.78125)" xlink:href="#DejaVuSerif-Bold-51"/>
      </g>
     </g>
    </g>
    <g id="text_8">
     <!-- $\left&lt;j_{lc}/j\right&gt;$ -->
     <defs>
      <path d="M 10.5 31.34375 
L 24.421875 75.875 
L 37.703125 75.875 
L 23.734375 31.34375 
L 37.703125 -13.1875 
L 24.421875 -13.1875 
z
" id="DejaVuSans-Bold-10216"/>
      <path d="M 8.6875 66.609375 
Q 8.6875 70.5625 11.390625 73.265625 
Q 14.109375 75.984375 18.109375 75.984375 
Q 21.921875 75.984375 24.65625 73.25 
Q 27.390625 70.515625 27.390625 66.609375 
Q 27.390625 62.75 24.671875 60.03125 
Q 21.96875 57.328125 18.109375 57.328125 
Q 14.15625 57.328125 11.421875 60.015625 
Q 8.6875 62.703125 8.6875 66.609375 
z
M 10.6875 46 
L 3.328125 46 
L 3.328125 51.90625 
L 27.984375 51.90625 
L 27.984375 -6.109375 
Q 27.984375 -14.0625 22.34375 -18.140625 
Q 16.703125 -22.21875 5.71875 -22.21875 
Q 2.78125 -22.21875 -0.53125 -21.71875 
Q -3.859375 -21.234375 -7.421875 -20.3125 
L -7.421875 -9.28125 
L -1.90625 -9.328125 
Q -1.8125 -13.234375 -0.359375 -14.96875 
Q 1.078125 -16.703125 4.296875 -16.703125 
Q 7.859375 -16.703125 9.265625 -14.40625 
Q 10.6875 -12.109375 10.6875 -6.109375 
z
" id="DejaVuSerif-Bold-106"/>
      <path d="M 28.078125 5.90625 
L 35.5 5.90625 
L 35.5 0 
L 3.421875 0 
L 3.421875 5.90625 
L 10.796875 5.90625 
L 10.796875 70.125 
L 3.421875 70.125 
L 3.421875 75.984375 
L 28.078125 75.984375 
z
" id="DejaVuSerif-Bold-108"/>
      <path d="M 56.390625 16.21875 
Q 54.546875 7.328125 48.796875 2.953125 
Q 43.0625 -1.421875 33.203125 -1.421875 
Q 19.34375 -1.421875 11.71875 5.75 
Q 4.109375 12.9375 4.109375 25.984375 
Q 4.109375 38.875 11.625 46.09375 
Q 19.140625 53.328125 32.515625 53.328125 
Q 37.9375 53.328125 43.453125 52.296875 
Q 48.96875 51.265625 54.6875 49.21875 
L 54.6875 34.8125 
L 49.21875 34.8125 
Q 48.4375 41.40625 45.359375 44.59375 
Q 42.28125 47.796875 36.71875 47.796875 
Q 29.5 47.796875 26.4375 42.90625 
Q 23.390625 38.03125 23.390625 25.984375 
Q 23.390625 14.203125 26.359375 9.15625 
Q 29.34375 4.109375 36.078125 4.109375 
Q 41.3125 4.109375 44.453125 7.234375 
Q 47.609375 10.359375 48.296875 16.21875 
z
" id="DejaVuSerif-Bold-99"/>
      <path d="M 25.6875 72.90625 
L 36.53125 72.90625 
L 10.796875 -9.28125 
L 0 -9.28125 
z
" id="DejaVuSerif-Bold-47"/>
      <path d="M 35.203125 31.34375 
L 21.296875 -13.1875 
L 8.015625 -13.1875 
L 21.96875 31.34375 
L 8.015625 75.875 
L 21.296875 75.875 
z
" id="DejaVuSans-Bold-10217"/>
     </defs>
     <g transform="translate(573.38375 613.68)scale(0.24 -0.24)">
      <use transform="translate(0 0.015625)" xlink:href="#DejaVuSans-Bold-10216"/>
      <use transform="translate(45.703125 0.015625)" xlink:href="#DejaVuSerif-Bold-106"/>
      <use transform="translate(82.793125 -15.55625)scale(0.7)" xlink:href="#DejaVuSerif-Bold-108"/>
      <use transform="translate(109.384922 -15.55625)scale(0.7)" xlink:href="#DejaVuSerif-Bold-99"/>
      <use transform="translate(154.602305 0.015625)" xlink:href="#DejaVuSerif-Bold-47"/>
      <use transform="translate(191.125742 0.015625)" xlink:href="#DejaVuSerif-Bold-106"/>
      <use transform="translate(227.307383 0.015625)" xlink:href="#DejaVuSans-Bold-10217"/>
     </g>
    </g>
   </g>
   <g id="matplotlib.axis_2">
    <g id="ytick_1">
     <g id="line2d_8">
      <defs>
       <path d="M 0 0 
L 6 0 
" id="m00a8c08e7e" style="stroke:#333333;stroke-width:0.8;"/>
      </defs>
      <g>
       <use style="fill:#333333;stroke:#333333;stroke-width:0.8;" x="53.3275" xlink:href="#m00a8c08e7e" y="541.218665"/>
      </g>
     </g>
     <g id="text_9">
      <!-- $\mathdefault{0}$ -->
      <g style="fill:#333333;" transform="translate(34.4275 549.576946)scale(0.22 -0.22)">
       <use transform="translate(0 0.78125)" xlink:href="#DejaVuSerif-Bold-48"/>
      </g>
     </g>
    </g>
    <g id="ytick_2">
     <g id="line2d_9">
      <g>
       <use style="fill:#333333;stroke:#333333;stroke-width:0.8;" x="53.3275" xlink:href="#m00a8c08e7e" y="425.295569"/>
      </g>
     </g>
     <g id="text_10">
      <!-- $\mathdefault{2}$ -->
      <g style="fill:#333333;" transform="translate(34.4275 433.65385)scale(0.22 -0.22)">
       <use transform="translate(0 0.78125)" xlink:href="#DejaVuSerif-Bold-50"/>
      </g>
     </g>
    </g>
    <g id="ytick_3">
     <g id="line2d_10">
      <g>
       <use style="fill:#333333;stroke:#333333;stroke-width:0.8;" x="53.3275" xlink:href="#m00a8c08e7e" y="309.372473"/>
      </g>
     </g>
     <g id="text_11">
      <!-- $\mathdefault{4}$ -->
      <defs>
       <path d="M 63.8125 0 
L 23.6875 0 
L 23.6875 5.90625 
L 34.515625 5.90625 
L 34.515625 19.1875 
L 4.109375 19.1875 
L 4.109375 24.8125 
L 34.625 74.21875 
L 52.984375 74.21875 
L 52.984375 25.484375 
L 65.484375 25.484375 
L 65.484375 19.1875 
L 52.984375 19.1875 
L 52.984375 5.90625 
L 63.8125 5.90625 
z
M 34.515625 25.484375 
L 34.515625 60.890625 
L 12.796875 25.484375 
z
" id="DejaVuSerif-Bold-52"/>
      </defs>
      <g style="fill:#333333;" transform="translate(34.4275 317.730755)scale(0.22 -0.22)">
       <use transform="translate(0 0.78125)" xlink:href="#DejaVuSerif-Bold-52"/>
      </g>
     </g>
    </g>
    <g id="ytick_4">
     <g id="line2d_11">
      <g>
       <use style="fill:#333333;stroke:#333333;stroke-width:0.8;" x="53.3275" xlink:href="#m00a8c08e7e" y="193.449378"/>
      </g>
     </g>
     <g id="text_12">
      <!-- $\mathdefault{6}$ -->
      <defs>
       <path d="M 24.609375 43.21875 
Q 27.78125 45.75 31.703125 47.015625 
Q 35.640625 48.296875 40.28125 48.296875 
Q 51.46875 48.296875 57.828125 41.75 
Q 64.203125 35.203125 64.203125 23.78125 
Q 64.203125 11.71875 57.03125 5.140625 
Q 49.859375 -1.421875 36.625 -1.421875 
Q 21.6875 -1.421875 13.984375 7.59375 
Q 6.296875 16.609375 6.296875 34.078125 
Q 6.296875 53.953125 14.84375 64.078125 
Q 23.390625 74.21875 40.1875 74.21875 
Q 44.578125 74.21875 49.609375 73.484375 
Q 54.640625 72.75 60.40625 71.296875 
L 60.40625 58.40625 
L 54.5 58.40625 
Q 53.265625 63.375 49.875 65.9375 
Q 46.484375 68.5 41.109375 68.5 
Q 32.421875 68.5 28.53125 62.546875 
Q 24.65625 56.59375 24.609375 43.21875 
z
M 35.5 4.296875 
Q 40.53125 4.296875 42.671875 8.5625 
Q 44.828125 12.84375 44.828125 23.390625 
Q 44.828125 33.9375 42.671875 38.203125 
Q 40.53125 42.484375 35.5 42.484375 
Q 30.46875 42.484375 28.34375 38.203125 
Q 26.21875 33.9375 26.21875 23.390625 
Q 26.21875 12.84375 28.34375 8.5625 
Q 30.46875 4.296875 35.5 4.296875 
z
" id="DejaVuSerif-Bold-54"/>
      </defs>
      <g style="fill:#333333;" transform="translate(34.4275 201.807659)scale(0.22 -0.22)">
       <use transform="translate(0 0.78125)" xlink:href="#DejaVuSerif-Bold-54"/>
      </g>
     </g>
    </g>
    <g id="ytick_5">
     <g id="line2d_12">
      <g>
       <use style="fill:#333333;stroke:#333333;stroke-width:0.8;" x="53.3275" xlink:href="#m00a8c08e7e" y="77.526282"/>
      </g>
     </g>
     <g id="text_13">
      <!-- $\mathdefault{8}$ -->
      <g style="fill:#333333;" transform="translate(34.4275 85.884563)scale(0.22 -0.22)">
       <use transform="translate(0 0.78125)" xlink:href="#DejaVuSerif-Bold-56"/>
      </g>
     </g>
    </g>
    <g id="text_14">
     <!-- Percent disrupted -->
     <defs>
      <path d="M 4.6875 0 
L 4.6875 5.90625 
L 14.015625 5.90625 
L 14.015625 67 
L 4.6875 67 
L 4.6875 72.90625 
L 46.1875 72.90625 
Q 58.34375 72.90625 65.515625 67.109375 
Q 72.703125 61.328125 72.703125 51.609375 
Q 72.703125 41.84375 65.5 36 
Q 58.296875 30.171875 46.1875 30.171875 
L 32.8125 30.171875 
L 32.8125 5.90625 
L 44.578125 5.90625 
L 44.578125 0 
z
M 32.8125 36.078125 
L 38.28125 36.078125 
Q 44.625 36.078125 48.40625 40.296875 
Q 52.203125 44.53125 52.203125 51.609375 
Q 52.203125 58.640625 48.4375 62.8125 
Q 44.671875 67 38.28125 67 
L 32.8125 67 
z
" id="DejaVuSerif-Bold-80"/>
      <path d="M 40.09375 29.296875 
Q 40.09375 39.546875 38.1875 43.671875 
Q 36.28125 47.796875 31.6875 47.796875 
Q 27.25 47.796875 25.3125 43.75 
Q 23.390625 39.703125 23.390625 30.171875 
L 23.390625 29.296875 
z
M 59.078125 23.484375 
L 23.390625 23.484375 
L 23.390625 23.09375 
Q 23.390625 13.03125 26.40625 8.5625 
Q 29.4375 4.109375 36.1875 4.109375 
Q 41.796875 4.109375 45.265625 7.078125 
Q 48.734375 10.0625 49.703125 15.71875 
L 57.8125 15.71875 
Q 55.71875 6.890625 49.46875 2.734375 
Q 43.21875 -1.421875 31.984375 -1.421875 
Q 18.5 -1.421875 11.296875 5.6875 
Q 4.109375 12.796875 4.109375 25.984375 
Q 4.109375 38.875 11.46875 46.09375 
Q 18.84375 53.328125 31.984375 53.328125 
Q 44.875 53.328125 51.75 45.734375 
Q 58.640625 38.140625 59.078125 23.484375 
z
" id="DejaVuSerif-Bold-101"/>
      <path d="M 53.71875 52.484375 
L 53.71875 37.015625 
L 48.1875 37.015625 
Q 47.90625 41.15625 45.953125 43.1875 
Q 44 45.21875 40.28125 45.21875 
Q 34.625 45.21875 31.34375 40.234375 
Q 28.078125 35.25 28.078125 26.421875 
L 28.078125 5.90625 
L 37.5 5.90625 
L 37.5 0 
L 3.421875 0 
L 3.421875 5.90625 
L 10.796875 5.90625 
L 10.796875 46 
L 2.875 46 
L 2.875 51.90625 
L 28.078125 51.90625 
L 28.078125 42.671875 
Q 30.609375 48.09375 34.78125 50.703125 
Q 38.96875 53.328125 45.015625 53.328125 
Q 46.53125 53.328125 48.703125 53.09375 
Q 50.875 52.875 53.71875 52.484375 
z
" id="DejaVuSerif-Bold-114"/>
      <path d="M 3.421875 0 
L 3.421875 5.90625 
L 10.796875 5.90625 
L 10.796875 46 
L 3.421875 46 
L 3.421875 51.90625 
L 28.078125 51.90625 
L 28.078125 44.578125 
Q 31.203125 49.21875 35.203125 51.265625 
Q 39.203125 53.328125 45.3125 53.328125 
Q 54.046875 53.328125 58.515625 48.171875 
Q 62.984375 43.015625 62.984375 33.015625 
L 62.984375 5.90625 
L 70.40625 5.90625 
L 70.40625 0 
L 39.40625 0 
L 39.40625 5.90625 
L 45.703125 5.90625 
L 45.703125 33.5 
Q 45.703125 40.09375 44.015625 42.65625 
Q 42.328125 45.21875 38.1875 45.21875 
Q 32.953125 45.21875 30.515625 41.375 
Q 28.078125 37.546875 28.078125 29.203125 
L 28.078125 5.90625 
L 34.421875 5.90625 
L 34.421875 0 
z
" id="DejaVuSerif-Bold-110"/>
      <path d="M 9.90625 46 
L 2.390625 46 
L 2.390625 51.90625 
L 9.90625 51.90625 
L 9.90625 68.015625 
L 27.203125 68.015625 
L 27.203125 51.90625 
L 41.609375 51.90625 
L 41.609375 46 
L 27.203125 46 
L 27.203125 14.203125 
Q 27.203125 7.421875 28.265625 5.765625 
Q 29.34375 4.109375 32.171875 4.109375 
Q 35.296875 4.109375 36.8125 6.203125 
Q 38.328125 8.296875 38.421875 12.703125 
L 45.703125 12.703125 
Q 45.265625 4.890625 41.421875 1.734375 
Q 37.59375 -1.421875 28.21875 -1.421875 
Q 17.53125 -1.421875 13.71875 1.921875 
Q 9.90625 5.28125 9.90625 14.203125 
z
" id="DejaVuSerif-Bold-116"/>
      <path id="DejaVuSerif-Bold-32"/>
      <path d="M 42.921875 23.390625 
L 42.921875 28.515625 
Q 42.921875 37.59375 40.578125 41.640625 
Q 38.234375 45.703125 33.109375 45.703125 
Q 27.734375 45.703125 25.5625 41.421875 
Q 23.390625 37.15625 23.390625 25.984375 
Q 23.390625 14.796875 25.578125 10.5 
Q 27.78125 6.203125 33.109375 6.203125 
Q 38.234375 6.203125 40.578125 10.25 
Q 42.921875 14.3125 42.921875 23.390625 
z
M 60.203125 5.90625 
L 67.578125 5.90625 
L 67.578125 0 
L 42.921875 0 
L 42.921875 6.59375 
Q 40.71875 2.546875 36.984375 0.5625 
Q 33.25 -1.421875 27.78125 -1.421875 
Q 16.75 -1.421875 10.421875 5.90625 
Q 4.109375 13.234375 4.109375 25.984375 
Q 4.109375 38.765625 10.421875 46.046875 
Q 16.75 53.328125 27.78125 53.328125 
Q 33.25 53.328125 36.984375 51.34375 
Q 40.71875 49.359375 42.921875 45.3125 
L 42.921875 70.125 
L 35.5 70.125 
L 35.5 75.984375 
L 60.203125 75.984375 
z
" id="DejaVuSerif-Bold-100"/>
      <path d="M 9.1875 66.609375 
Q 9.1875 70.5625 11.921875 73.265625 
Q 14.65625 75.984375 18.609375 75.984375 
Q 22.46875 75.984375 25.171875 73.265625 
Q 27.875 70.5625 27.875 66.609375 
Q 27.875 62.75 25.171875 60.03125 
Q 22.46875 57.328125 18.609375 57.328125 
Q 14.65625 57.328125 11.921875 60.015625 
Q 9.1875 62.703125 9.1875 66.609375 
z
M 28.078125 5.90625 
L 35.5 5.90625 
L 35.5 0 
L 3.421875 0 
L 3.421875 5.90625 
L 10.796875 5.90625 
L 10.796875 46 
L 3.421875 46 
L 3.421875 51.90625 
L 28.078125 51.90625 
z
" id="DejaVuSerif-Bold-105"/>
      <path d="M 4.6875 1.515625 
L 4.6875 16.015625 
L 10.203125 16.015625 
Q 10.890625 10.203125 14.546875 7.15625 
Q 18.21875 4.109375 24.515625 4.109375 
Q 29.78125 4.109375 32.59375 5.9375 
Q 35.40625 7.765625 35.40625 11.1875 
Q 35.40625 14.3125 33.625 16.015625 
Q 31.84375 17.71875 26.703125 19 
L 19.578125 20.796875 
Q 11.53125 22.796875 7.90625 26.53125 
Q 4.296875 30.28125 4.296875 36.625 
Q 4.296875 45.0625 10.15625 49.1875 
Q 16.015625 53.328125 28.21875 53.328125 
Q 32.8125 53.328125 38.015625 52.5625 
Q 43.21875 51.8125 49.515625 50.203125 
L 49.515625 37.109375 
L 44 37.109375 
Q 43.5625 42.4375 40.203125 45.109375 
Q 36.859375 47.796875 30.609375 47.796875 
Q 25.34375 47.796875 22.625 46.109375 
Q 19.921875 44.4375 19.921875 41.21875 
Q 19.921875 38.578125 21.484375 37.0625 
Q 23.046875 35.546875 27.09375 34.515625 
L 34.1875 32.71875 
Q 44.390625 30.125 48.296875 26.3125 
Q 52.203125 22.515625 52.203125 15.71875 
Q 52.203125 6.9375 45.921875 2.75 
Q 39.65625 -1.421875 26.421875 -1.421875 
Q 21.578125 -1.421875 16.15625 -0.6875 
Q 10.75 0.046875 4.6875 1.515625 
z
" id="DejaVuSerif-Bold-115"/>
      <path d="M 61.921875 51.90625 
L 61.921875 5.90625 
L 69.28125 5.90625 
L 69.28125 0 
L 44.578125 0 
L 44.578125 7.328125 
Q 41.5 2.6875 37.5 0.625 
Q 33.5 -1.421875 27.390625 -1.421875 
Q 18.65625 -1.421875 14.1875 3.734375 
Q 9.71875 8.890625 9.71875 18.890625 
L 9.71875 46 
L 2.296875 46 
L 2.296875 51.90625 
L 27 51.90625 
L 27 21.578125 
Q 27 11.921875 28.609375 9.296875 
Q 30.21875 6.6875 34.515625 6.6875 
Q 39.75 6.6875 42.15625 10.546875 
Q 44.578125 14.40625 44.578125 22.796875 
L 44.578125 46 
L 38.28125 46 
L 38.28125 51.90625 
z
" id="DejaVuSerif-Bold-117"/>
      <path d="M 27 28.515625 
L 27 23.390625 
Q 27 14.3125 29.3125 10.25 
Q 31.640625 6.203125 36.8125 6.203125 
Q 42.140625 6.203125 44.3125 10.5 
Q 46.484375 14.796875 46.484375 25.984375 
Q 46.484375 37.15625 44.3125 41.421875 
Q 42.140625 45.703125 36.8125 45.703125 
Q 31.640625 45.703125 29.3125 41.640625 
Q 27 37.59375 27 28.515625 
z
M 9.71875 46 
L 2.296875 46 
L 2.296875 51.90625 
L 27 51.90625 
L 27 45.3125 
Q 29.203125 49.359375 32.90625 51.34375 
Q 36.625 53.328125 42.09375 53.328125 
Q 53.171875 53.328125 59.546875 46.015625 
Q 65.921875 38.71875 65.921875 25.984375 
Q 65.921875 13.234375 59.546875 5.90625 
Q 53.171875 -1.421875 42.09375 -1.421875 
Q 36.625 -1.421875 32.90625 0.5625 
Q 29.203125 2.546875 27 6.59375 
L 27 -14.890625 
L 35.015625 -14.890625 
L 35.015625 -20.796875 
L 2.296875 -20.796875 
L 2.296875 -14.890625 
L 9.71875 -14.890625 
z
" id="DejaVuSerif-Bold-112"/>
     </defs>
     <g transform="translate(25.43625 407.998437)rotate(-90)scale(0.24 -0.24)">
      <use xlink:href="#DejaVuSerif-Bold-80"/>
      <use x="75.164062" xlink:href="#DejaVuSerif-Bold-101"/>
      <use x="138.787109" xlink:href="#DejaVuSerif-Bold-114"/>
      <use x="191.472656" xlink:href="#DejaVuSerif-Bold-99"/>
      <use x="252.361328" xlink:href="#DejaVuSerif-Bold-101"/>
      <use x="315.984375" xlink:href="#DejaVuSerif-Bold-110"/>
      <use x="388.689453" xlink:href="#DejaVuSerif-Bold-116"/>
      <use x="434.880859" xlink:href="#DejaVuSerif-Bold-32"/>
      <use x="469.695312" xlink:href="#DejaVuSerif-Bold-100"/>
      <use x="539.617188" xlink:href="#DejaVuSerif-Bold-105"/>
      <use x="577.605469" xlink:href="#DejaVuSerif-Bold-115"/>
      <use x="633.904297" xlink:href="#DejaVuSerif-Bold-114"/>
      <use x="686.589844" xlink:href="#DejaVuSerif-Bold-117"/>
      <use x="759.294922" xlink:href="#DejaVuSerif-Bold-112"/>
      <use x="829.216797" xlink:href="#DejaVuSerif-Bold-116"/>
      <use x="875.408203" xlink:href="#DejaVuSerif-Bold-101"/>
      <use x="939.03125" xlink:href="#DejaVuSerif-Bold-100"/>
     </g>
    </g>
   </g>
   <g id="LineCollection_1">
    <path clip-path="url(#pe1f3fa7495)" d="M 992.238571 77.526282 
L 1108.933068 77.526282 
" style="fill:none;stroke:#1a1a1a;stroke-width:2;"/>
    <path clip-path="url(#pe1f3fa7495)" d="M 103.594432 541.218665 
L 158.280793 541.218665 
" style="fill:none;stroke:#1a1a1a;stroke-width:2;"/>
    <path clip-path="url(#pe1f3fa7495)" d="M 195.942285 541.218665 
L 202.762185 541.218665 
" style="fill:none;stroke:#1a1a1a;stroke-width:2;"/>
    <path clip-path="url(#pe1f3fa7495)" d="M 312.520272 402.11095 
L 326.444755 402.11095 
" style="fill:none;stroke:#1a1a1a;stroke-width:2;"/>
    <path clip-path="url(#pe1f3fa7495)" d="M 182.800265 541.218665 
L 198.242638 541.218665 
" style="fill:none;stroke:#1a1a1a;stroke-width:2;"/>
    <path clip-path="url(#pe1f3fa7495)" d="M 654.20106 378.926331 
L 710.490171 378.926331 
" style="fill:none;stroke:#1a1a1a;stroke-width:2;"/>
    <path clip-path="url(#pe1f3fa7495)" d="M 684.86349 286.187854 
L 700.717729 286.187854 
" style="fill:none;stroke:#1a1a1a;stroke-width:2;"/>
    <path clip-path="url(#pe1f3fa7495)" d="M 741.168044 367.334021 
L 762.810251 367.334021 
" style="fill:none;stroke:#1a1a1a;stroke-width:2;"/>
    <path clip-path="url(#pe1f3fa7495)" d="M 360.995296 436.887879 
L 388.289368 436.887879 
" style="fill:none;stroke:#1a1a1a;stroke-width:2;"/>
    <path clip-path="url(#pe1f3fa7495)" d="M 355.098152 413.70326 
L 363.934545 413.70326 
" style="fill:none;stroke:#1a1a1a;stroke-width:2;"/>
    <path clip-path="url(#pe1f3fa7495)" d="M 357.507681 402.11095 
L 436.700333 402.11095 
" style="fill:none;stroke:#1a1a1a;stroke-width:2;"/>
   </g>
   <g id="LineCollection_2">
    <path clip-path="url(#pe1f3fa7495)" d="M 1050.585819 122.423104 
L 1050.585819 32.62946 
" style="fill:none;stroke:#1a1a1a;stroke-width:2;"/>
    <path clip-path="url(#pe1f3fa7495)" d="M 130.937612 541.218665 
L 130.937612 541.218665 
" style="fill:none;stroke:#1a1a1a;stroke-width:2;"/>
    <path clip-path="url(#pe1f3fa7495)" d="M 199.352235 541.218665 
L 199.352235 541.218665 
" style="fill:none;stroke:#1a1a1a;stroke-width:2;"/>
    <path clip-path="url(#pe1f3fa7495)" d="M 319.482514 431.665656 
L 319.482514 372.556244 
" style="fill:none;stroke:#1a1a1a;stroke-width:2;"/>
    <path clip-path="url(#pe1f3fa7495)" d="M 190.521452 541.218665 
L 190.521452 541.218665 
" style="fill:none;stroke:#1a1a1a;stroke-width:2;"/>
    <path clip-path="url(#pe1f3fa7495)" d="M 682.345616 412.723431 
L 682.345616 345.129231 
" style="fill:none;stroke:#1a1a1a;stroke-width:2;"/>
    <path clip-path="url(#pe1f3fa7495)" d="M 692.79061 336.71756 
L 692.79061 235.658148 
" style="fill:none;stroke:#1a1a1a;stroke-width:2;"/>
    <path clip-path="url(#pe1f3fa7495)" d="M 751.989148 399.080868 
L 751.989148 335.587174 
" style="fill:none;stroke:#1a1a1a;stroke-width:2;"/>
    <path clip-path="url(#pe1f3fa7495)" d="M 374.642332 465.283122 
L 374.642332 408.492635 
" style="fill:none;stroke:#1a1a1a;stroke-width:2;"/>
    <path clip-path="url(#pe1f3fa7495)" d="M 359.516349 435.390485 
L 359.516349 392.016034 
" style="fill:none;stroke:#1a1a1a;stroke-width:2;"/>
    <path clip-path="url(#pe1f3fa7495)" d="M 397.104007 436.887879 
L 397.104007 367.334021 
" style="fill:none;stroke:#1a1a1a;stroke-width:2;"/>
   </g>
   <g id="line2d_13">
    <defs>
     <path d="M -5 5 
L 5 5 
L 5 -5 
L -5 -5 
z
" id="me36ce0a3de"/>
    </defs>
    <g clip-path="url(#pe1f3fa7495)">
     <use style="fill:#1a1a1a;" x="1050.585819" xlink:href="#me36ce0a3de" y="77.526282"/>
     <use style="fill:#1a1a1a;" x="130.937612" xlink:href="#me36ce0a3de" y="541.218665"/>
     <use style="fill:#1a1a1a;" x="199.352235" xlink:href="#me36ce0a3de" y="541.218665"/>
     <use style="fill:#1a1a1a;" x="319.482514" xlink:href="#me36ce0a3de" y="402.11095"/>
     <use style="fill:#1a1a1a;" x="190.521452" xlink:href="#me36ce0a3de" y="541.218665"/>
     <use style="fill:#1a1a1a;" x="682.345616" xlink:href="#me36ce0a3de" y="378.926331"/>
     <use style="fill:#1a1a1a;" x="692.79061" xlink:href="#me36ce0a3de" y="286.187854"/>
     <use style="fill:#1a1a1a;" x="751.989148" xlink:href="#me36ce0a3de" y="367.334021"/>
     <use style="fill:#1a1a1a;" x="374.642332" xlink:href="#me36ce0a3de" y="436.887879"/>
     <use style="fill:#1a1a1a;" x="359.516349" xlink:href="#me36ce0a3de" y="413.70326"/>
     <use style="fill:#1a1a1a;" x="397.104007" xlink:href="#me36ce0a3de" y="402.11095"/>
    </g>
   </g>
   <g id="patch_3">
    <path d="M 53.3275 566.648125 
L 53.3275 7.2 
" style="fill:none;stroke:#333333;stroke-linecap:square;stroke-linejoin:miter;stroke-width:0.8;"/>
   </g>
   <g id="patch_4">
    <path d="M 1159.2 566.648125 
L 1159.2 7.2 
" style="fill:none;stroke:#333333;stroke-linecap:square;stroke-linejoin:miter;stroke-width:0.8;"/>
   </g>
   <g id="patch_5">
    <path d="M 53.3275 566.648125 
L 1159.2 566.648125 
" style="fill:none;stroke:#333333;stroke-linecap:square;stroke-linejoin:miter;stroke-width:0.8;"/>
   </g>
   <g id="patch_6">
    <path d="M 53.3275 7.2 
L 1159.2 7.2 
" style="fill:none;stroke:#333333;stroke-linecap:square;stroke-linejoin:miter;stroke-width:0.8;"/>
   </g>
  </g>
 </g>
 <defs>
  <clipPath id="pe1f3fa7495">
   <rect height="559.448125" width="1105.8725" x="53.3275" y="7.2"/>
  </clipPath>
 </defs>
</svg>
