<?xml version="1.0" encoding="utf-8" standalone="no"?>
<!DOCTYPE svg PUBLIC "-//W3C//DTD SVG 1.1//EN"
  "http://www.w3.org/Graphics/SVG/1.1/DTD/svg11.dtd">
<!-- Created with matplotlib (https://matplotlib.org/) -->
<svg height="626.4pt" version="1.1" viewBox="0 0 1166.4 626.4" width="1166.4pt" xmlns="http://www.w3.org/2000/svg" xmlns:xlink="http://www.w3.org/1999/xlink">
 <defs>
  <style type="text/css">
*{stroke-linecap:butt;stroke-linejoin:round;}
  </style>
 </defs>
 <g id="figure_1">
  <g id="patch_1">
   <path d="M 0 626.4 
L 1166.4 626.4 
L 1166.4 0 
L 0 0 
z
" style="fill:#ffffff;"/>
  </g>
  <g id="axes_1">
   <g id="patch_2">
    <path d="M 99.3075 566.839375 
L 1159.2 566.839375 
L 1159.2 15.558281 
L 99.3075 15.558281 
z
" style="fill:#ffffff;"/>
   </g>
   <g id="patch_3">
    <path clip-path="url(#p4373bbf627)" d="M 221.602788 566.839375 
L 282.750433 566.805234 
L 282.750433 566.12241 
L 286.826942 566.12241 
L 286.826942 564.381208 
L 290.903452 564.381208 
L 290.903452 562.674148 
L 294.979962 562.674148 
L 294.979962 561.03537 
L 299.056471 561.03537 
L 299.056471 558.474722 
L 303.132981 558.474722 
L 303.132981 557.99667 
L 307.20949 557.99667 
L 307.20949 555.675037 
L 311.286 555.675037 
L 311.286 553.080266 
L 315.36251 553.080266 
L 315.36251 550.826937 
L 319.439019 550.826937 
L 319.439019 550.383976 
L 323.515529 550.383976 
L 323.515529 548.608774 
L 327.592038 548.608774 
L 327.592038 547.140758 
L 331.668548 547.140758 
L 331.668548 544.443555 
L 335.745058 544.443555 
L 335.745058 542.904677 
L 339.821567 542.904677 
L 339.821567 541.914531 
L 343.898077 541.914531 
L 343.898077 539.865902 
L 347.974587 539.865902 
L 347.974587 538.670876 
L 352.051096 538.670876 
L 352.051096 538.226981 
L 356.127606 538.226981 
L 356.127606 536.352208 
L 360.204115 536.352208 
L 360.204115 534.375702 
L 364.280625 534.375702 
L 364.280625 534.068904 
L 368.357135 534.068904 
L 368.357135 533.283739 
L 372.433644 533.283739 
L 372.433644 530.518686 
L 376.510154 530.518686 
L 376.510154 530.245636 
L 380.586663 530.245636 
L 380.586663 529.801691 
L 384.663173 529.801691 
L 384.663173 526.658742 
L 388.739683 526.658742 
L 388.739683 529.177394 
L 392.816192 529.177394 
L 392.816192 524.943358 
L 396.892702 524.943358 
L 396.892702 525.625932 
L 400.969212 525.625932 
L 400.969212 524.495913 
L 405.045721 524.495913 
L 405.045721 522.648125 
L 409.122231 522.648125 
L 409.122231 521.896843 
L 413.19874 521.896843 
L 413.19874 519.57476 
L 417.27525 519.57476 
L 417.27525 521.21427 
L 421.35176 521.21427 
L 421.35176 518.755577 
L 425.428269 518.755577 
L 425.428269 517.935991 
L 429.504779 517.935991 
L 429.504779 517.560686 
L 433.581288 517.560686 
L 433.581288 515.963909 
L 437.657798 515.963909 
L 437.657798 515.84399 
L 441.734308 515.84399 
L 441.734308 514.274131 
L 445.810817 514.274131 
L 445.810817 513.010868 
L 449.887327 513.010868 
L 449.887327 511.167118 
L 453.963837 511.167118 
L 453.963837 511.916112 
L 458.040346 511.916112 
L 458.040346 510.10749 
L 466.193365 510.175054 
L 466.193365 509.185548 
L 470.269875 509.185548 
L 470.269875 508.582584 
L 474.346385 508.582584 
L 474.346385 508.076929 
L 478.422894 508.076929 
L 478.422894 508.246243 
L 482.499404 508.246243 
L 482.499404 506.232775 
L 486.575913 506.232775 
L 486.575913 506.470865 
L 490.652423 506.470865 
L 490.652423 502.750794 
L 494.728933 502.750794 
L 494.728933 505.721737 
L 498.805442 505.721737 
L 498.805442 502.753217 
L 502.881952 502.753217 
L 502.881952 505.176512 
L 506.958462 505.176512 
L 506.958462 503.674486 
L 511.034971 503.674486 
L 511.034971 501.661153 
L 515.111481 501.661153 
L 515.111481 500.705025 
L 519.18799 500.705025 
L 519.18799 501.762365 
L 523.2645 501.762365 
L 523.2645 501.454961 
L 527.34101 501.454961 
L 527.34101 499.271909 
L 531.417519 499.271909 
L 531.417519 501.59628 
L 535.494029 501.59628 
L 535.494029 498.474328 
L 539.570538 498.474328 
L 539.570538 496.118194 
L 543.647048 496.118194 
L 543.647048 497.040944 
L 547.723558 497.040944 
L 547.723558 495.537572 
L 551.800067 495.537572 
L 551.800067 495.129495 
L 555.876577 495.129495 
L 555.876577 494.036892 
L 559.953087 494.036892 
L 559.953087 493.6272 
L 564.029596 493.6272 
L 564.029596 493.148059 
L 568.106106 493.148059 
L 568.106106 490.280213 
L 572.182615 490.280213 
L 572.182615 490.792194 
L 576.259125 490.792194 
L 576.259125 488.08451 
L 580.335635 488.08451 
L 580.335635 487.564723 
L 584.412144 487.564723 
L 584.412144 483.671839 
L 588.488654 483.671839 
L 588.488654 482.201845 
L 592.565163 482.201845 
L 592.565163 478.55903 
L 596.641673 478.55903 
L 596.641673 468.733682 
L 600.718183 468.733682 
L 600.718183 453.464434 
L 604.794692 453.464434 
L 604.794692 419.177334 
L 608.871202 419.177334 
L 608.871202 361.510317 
L 612.947712 361.510317 
L 612.947712 343.172684 
L 617.024221 343.172684 
L 617.024221 307.555295 
L 621.100731 307.555295 
L 621.100731 433.161785 
L 625.17724 433.161785 
L 625.17724 443.201669 
L 629.25375 443.201669 
L 629.25375 450.341944 
L 633.33026 450.341944 
L 633.33026 452.832399 
L 637.406769 452.832399 
L 637.406769 455.802534 
L 641.483279 455.802534 
L 641.483279 452.725265 
L 645.559788 452.725265 
L 645.559788 453.297542 
L 649.636298 453.297542 
L 649.636298 449.810044 
L 653.712808 449.810044 
L 653.712808 452.094845 
L 657.789317 452.094845 
L 657.789317 453.243706 
L 661.865827 453.243706 
L 661.865827 448.044221 
L 665.942337 448.044221 
L 665.942337 447.362119 
L 670.018846 447.362119 
L 670.018846 457.676566 
L 674.095356 457.676566 
L 674.095356 459.76056 
L 678.171865 459.76056 
L 678.171865 463.860713 
L 682.248375 463.860713 
L 682.248375 465.397732 
L 686.324885 465.397732 
L 686.324885 468.303801 
L 690.401394 468.303801 
L 690.401394 473.019839 
L 694.477904 473.019839 
L 694.477904 474.115941 
L 698.554413 474.115941 
L 698.554413 475.108139 
L 702.630923 475.108139 
L 702.630923 474.4971 
L 706.707433 474.4971 
L 706.707433 475.771938 
L 710.783942 475.771938 
L 710.783942 478.804522 
L 714.860452 478.804522 
L 714.860452 476.556867 
L 718.936962 476.556867 
L 718.936962 476.769519 
L 723.013471 476.769519 
L 723.013471 477.714342 
L 727.089981 477.714342 
L 727.089981 479.189988 
L 731.16649 479.189988 
L 731.16649 478.547186 
L 735.243 478.547186 
L 735.243 478.823365 
L 739.31951 478.823365 
L 739.31951 476.335063 
L 743.396019 476.335063 
L 743.396019 482.037376 
L 747.472529 482.037376 
L 747.472529 478.044895 
L 751.549038 478.044895 
L 751.549038 478.657011 
L 755.625548 478.657011 
L 755.625548 480.159575 
L 759.702058 480.159575 
L 759.702058 480.775459 
L 763.778567 480.775459 
L 763.778567 481.833876 
L 767.855077 481.833876 
L 767.855077 479.341806 
L 771.931587 479.341806 
L 771.931587 482.357162 
L 776.008096 482.357162 
L 776.008096 484.005622 
L 780.084606 484.005622 
L 780.084606 482.434148 
L 788.237625 482.436301 
L 788.237625 483.322981 
L 792.314135 483.322981 
L 792.314135 484.039539 
L 796.390644 484.039539 
L 796.390644 485.405359 
L 800.467154 485.405359 
L 800.467154 484.619353 
L 804.543663 484.619353 
L 804.543663 485.473731 
L 808.620173 485.473731 
L 808.620173 485.18517 
L 812.696683 485.18517 
L 812.696683 486.896079 
L 816.773192 486.896079 
L 816.773192 484.6565 
L 820.849702 484.6565 
L 820.849702 487.904967 
L 829.002721 487.939422 
L 829.002721 487.632556 
L 833.079231 487.632556 
L 833.079231 489.03337 
L 837.15574 489.03337 
L 837.15574 488.077242 
L 841.23225 488.077242 
L 841.23225 487.736998 
L 845.30876 487.736998 
L 845.30876 488.077242 
L 849.385269 488.077242 
L 849.385269 491.01669 
L 853.461779 491.01669 
L 853.461779 488.318428 
L 857.538288 488.318428 
L 857.538288 491.631498 
L 861.614798 491.631498 
L 861.614798 490.607536 
L 865.691308 490.607536 
L 865.691308 490.74428 
L 869.767817 490.74428 
L 869.767817 490.09394 
L 873.844327 490.09394 
L 873.844327 494.093958 
L 877.920837 494.093958 
L 877.920837 490.298517 
L 881.997346 490.298517 
L 881.997346 492.897722 
L 886.073856 492.897722 
L 886.073856 494.297459 
L 890.150365 494.297459 
L 890.150365 493.614818 
L 894.226875 493.614818 
L 894.226875 493.410241 
L 898.303385 493.410241 
L 898.303385 493.684805 
L 902.379894 493.684805 
L 902.379894 495.356952 
L 906.456404 495.356952 
L 906.456404 495.767183 
L 910.532913 495.767183 
L 910.532913 496.141882 
L 914.609423 496.141882 
L 914.609423 496.758843 
L 918.685933 496.758843 
L 918.685933 497.783881 
L 922.762442 497.783881 
L 922.762442 497.612682 
L 926.838952 497.612682 
L 926.838952 499.083483 
L 930.915462 499.083483 
L 930.915462 500.1419 
L 934.991971 500.1419 
L 934.991971 501.306912 
L 939.068481 501.306912 
L 939.068481 501.850656 
L 943.14499 501.850656 
L 943.14499 503.561565 
L 947.2215 503.561565 
L 947.2215 504.723347 
L 951.29801 504.723347 
L 951.29801 504.108539 
L 955.374519 504.108539 
L 955.374519 506.535468 
L 959.451029 506.535468 
L 959.451029 508.996852 
L 963.527538 508.996852 
L 963.527538 509.987435 
L 967.604048 509.987435 
L 967.604048 510.125256 
L 971.680558 510.125256 
L 971.680558 512.074121 
L 975.757067 512.074121 
L 975.757067 514.158652 
L 979.833577 514.158652 
L 979.833577 515.287056 
L 983.910087 515.287056 
L 983.910087 516.962433 
L 987.986596 516.962433 
L 987.986596 518.432157 
L 992.063106 518.432157 
L 992.063106 519.183709 
L 996.139615 519.183709 
L 996.139615 521.850746 
L 1004.292635 521.885201 
L 1004.292635 526.329905 
L 1008.369144 526.329905 
L 1008.369144 525.16597 
L 1012.445654 525.16597 
L 1012.445654 528.312148 
L 1016.522163 528.312148 
L 1016.522163 529.371642 
L 1020.598673 529.371642 
L 1020.598673 530.943654 
L 1024.675183 530.943654 
L 1024.675183 533.303826 
L 1028.751692 533.303826 
L 1028.751692 534.636807 
L 1032.828202 534.636807 
L 1032.828202 536.242198 
L 1036.904712 536.242198 
L 1036.904712 537.747453 
L 1040.981221 537.747453 
L 1040.981221 540.584613 
L 1045.057731 540.584613 
L 1045.057731 541.405074 
L 1049.13424 541.405074 
L 1049.13424 542.806965 
L 1053.21075 542.806965 
L 1053.21075 546.771451 
L 1057.28726 546.771451 
L 1057.28726 546.635784 
L 1061.363769 546.635784 
L 1061.363769 549.199457 
L 1065.440279 549.199457 
L 1065.440279 550.977123 
L 1069.516788 550.977123 
L 1069.516788 553.404052 
L 1073.593298 553.404052 
L 1073.593298 554.327878 
L 1077.669808 554.327878 
L 1077.669808 556.685897 
L 1081.746317 556.685897 
L 1081.746317 559.317403 
L 1085.822827 559.317403 
L 1085.822827 561.165056 
L 1089.899337 561.165056 
L 1089.899337 562.63478 
L 1093.975846 562.63478 
L 1093.975846 564.857132 
L 1098.052356 564.857132 
L 1098.052356 566.291324 
L 1102.128865 566.291324 
L 1102.128865 566.839375 
L 1159.2 566.839375 
L 1159.2 566.839375 
" style="fill:none;stroke:#ff0000;stroke-linejoin:miter;stroke-width:2;"/>
   </g>
   <g id="matplotlib.axis_1">
    <g id="xtick_1">
     <g id="line2d_1">
      <defs>
       <path d="M 0 0 
L 0 -6 
" id="m7edd3fb90e" style="stroke:#333333;stroke-width:0.8;"/>
      </defs>
      <g>
       <use style="fill:#333333;stroke:#333333;stroke-width:0.8;" x="221.602788" xlink:href="#m7edd3fb90e" y="566.839375"/>
      </g>
     </g>
     <g id="text_1">
      <!-- $\mathdefault{−10}$ -->
      <defs>
       <path d="M 10.59375 36.921875 
L 73.1875 36.921875 
L 73.1875 25.6875 
L 10.59375 25.6875 
z
" id="DejaVuSerif-Bold-8722"/>
       <path d="M 13.71875 0 
L 13.71875 5.90625 
L 27.390625 5.90625 
L 27.390625 64.890625 
L 12.203125 55.90625 
L 12.203125 63.1875 
L 30.515625 74.21875 
L 45.90625 74.21875 
L 45.90625 5.90625 
L 59.625 5.90625 
L 59.625 0 
z
" id="DejaVuSerif-Bold-49"/>
       <path d="M 34.8125 4.296875 
Q 40.671875 4.296875 42.84375 9.609375 
Q 45.015625 14.9375 45.015625 36.375 
Q 45.015625 57.671875 42.84375 63.078125 
Q 40.671875 68.5 34.8125 68.5 
Q 28.953125 68.5 26.78125 63.171875 
Q 24.609375 57.859375 24.609375 36.375 
Q 24.609375 14.9375 26.78125 9.609375 
Q 28.953125 4.296875 34.8125 4.296875 
z
M 34.8125 -1.421875 
Q 20.21875 -1.421875 12.453125 8.3125 
Q 4.6875 18.0625 4.6875 36.375 
Q 4.6875 54.6875 12.453125 64.453125 
Q 20.21875 74.21875 34.8125 74.21875 
Q 49.359375 74.21875 57.125 64.453125 
Q 64.890625 54.6875 64.890625 36.375 
Q 64.890625 18.0625 57.125 8.3125 
Q 49.359375 -1.421875 34.8125 -1.421875 
z
" id="DejaVuSerif-Bold-48"/>
      </defs>
      <g style="fill:#333333;" transform="translate(197.072788 587.055937)scale(0.22 -0.22)">
       <use transform="translate(0 0.78125)" xlink:href="#DejaVuSerif-Bold-8722"/>
       <use transform="translate(83.789062 0.78125)" xlink:href="#DejaVuSerif-Bold-49"/>
       <use transform="translate(153.369141 0.78125)" xlink:href="#DejaVuSerif-Bold-48"/>
      </g>
     </g>
    </g>
    <g id="xtick_2">
     <g id="line2d_2">
      <g>
       <use style="fill:#333333;stroke:#333333;stroke-width:0.8;" x="425.428269" xlink:href="#m7edd3fb90e" y="566.839375"/>
      </g>
     </g>
     <g id="text_2">
      <!-- $\mathdefault{−5}$ -->
      <defs>
       <path d="M 56.390625 72.90625 
L 56.390625 60.109375 
L 17.390625 60.109375 
L 17.390625 44.09375 
Q 20.609375 46.578125 24.5625 47.84375 
Q 28.515625 49.125 32.90625 49.125 
Q 46.390625 49.125 54.203125 42.3125 
Q 62.015625 35.5 62.015625 23.78125 
Q 62.015625 11.859375 54.203125 5.21875 
Q 46.390625 -1.421875 32.328125 -1.421875 
Q 26.375 -1.421875 20.484375 -0.4375 
Q 14.59375 0.53125 8.203125 2.59375 
L 8.203125 18.5 
L 14.0625 18.5 
Q 14.359375 11.328125 17.796875 7.8125 
Q 21.234375 4.296875 27.984375 4.296875 
Q 35.15625 4.296875 38.625 9.109375 
Q 42.09375 13.921875 42.09375 23.78125 
Q 42.09375 33.5 38.6875 38.296875 
Q 35.296875 43.109375 28.421875 43.109375 
Q 24.703125 43.109375 21.796875 41.578125 
Q 18.890625 40.046875 16.40625 36.8125 
L 11.53125 36.8125 
L 11.53125 72.90625 
z
" id="DejaVuSerif-Bold-53"/>
      </defs>
      <g style="fill:#333333;" transform="translate(408.488269 587.055937)scale(0.22 -0.22)">
       <use transform="translate(0 0.09375)" xlink:href="#DejaVuSerif-Bold-8722"/>
       <use transform="translate(83.789062 0.09375)" xlink:href="#DejaVuSerif-Bold-53"/>
      </g>
     </g>
    </g>
    <g id="xtick_3">
     <g id="line2d_3">
      <g>
       <use style="fill:#333333;stroke:#333333;stroke-width:0.8;" x="629.25375" xlink:href="#m7edd3fb90e" y="566.839375"/>
      </g>
     </g>
     <g id="text_3">
      <!-- $\mathdefault{0}$ -->
      <g style="fill:#333333;" transform="translate(621.55375 587.055937)scale(0.22 -0.22)">
       <use transform="translate(0 0.78125)" xlink:href="#DejaVuSerif-Bold-48"/>
      </g>
     </g>
    </g>
    <g id="xtick_4">
     <g id="line2d_4">
      <g>
       <use style="fill:#333333;stroke:#333333;stroke-width:0.8;" x="833.079231" xlink:href="#m7edd3fb90e" y="566.839375"/>
      </g>
     </g>
     <g id="text_4">
      <!-- $\mathdefault{5}$ -->
      <g style="fill:#333333;" transform="translate(825.379231 587.055937)scale(0.22 -0.22)">
       <use transform="translate(0 0.09375)" xlink:href="#DejaVuSerif-Bold-53"/>
      </g>
     </g>
    </g>
    <g id="xtick_5">
     <g id="line2d_5">
      <g>
       <use style="fill:#333333;stroke:#333333;stroke-width:0.8;" x="1036.904712" xlink:href="#m7edd3fb90e" y="566.839375"/>
      </g>
     </g>
     <g id="text_5">
      <!-- $\mathdefault{10}$ -->
      <g style="fill:#333333;" transform="translate(1021.504712 587.055937)scale(0.22 -0.22)">
       <use transform="translate(0 0.78125)" xlink:href="#DejaVuSerif-Bold-49"/>
       <use transform="translate(69.580078 0.78125)" xlink:href="#DejaVuSerif-Bold-48"/>
      </g>
     </g>
    </g>
    <g id="text_6">
     <!-- Specific angular momentum [Code units] -->
     <defs>
      <path d="M 7.71875 3.515625 
L 7.71875 20.796875 
L 13.921875 20.796875 
Q 15.328125 12.59375 20.59375 8.546875 
Q 25.875 4.5 35.203125 4.5 
Q 42.78125 4.5 46.734375 7.375 
Q 50.6875 10.25 50.6875 15.828125 
Q 50.6875 20.21875 48 22.65625 
Q 45.3125 25.09375 36.921875 27.203125 
L 25.984375 29.890625 
Q 15.28125 32.625 10.9375 37.46875 
Q 6.59375 42.328125 6.59375 51.3125 
Q 6.59375 62.15625 13.796875 68.1875 
Q 21 74.21875 33.984375 74.21875 
Q 40.375 74.21875 47.28125 73.140625 
Q 54.203125 72.078125 61.625 69.921875 
L 61.625 53.8125 
L 55.421875 53.8125 
Q 54 61.328125 49.21875 64.8125 
Q 44.4375 68.3125 35.59375 68.3125 
Q 28.375 68.3125 24.6875 65.796875 
Q 21 63.28125 21 58.296875 
Q 21 53.765625 23.53125 51.390625 
Q 26.078125 49.03125 35.984375 46.484375 
L 46.921875 43.796875 
Q 57.078125 41.265625 61.640625 35.890625 
Q 66.21875 30.515625 66.21875 21.09375 
Q 66.21875 10.0625 58.59375 4.3125 
Q 50.984375 -1.421875 36.1875 -1.421875 
Q 29.046875 -1.421875 22.015625 -0.1875 
Q 14.984375 1.03125 7.71875 3.515625 
z
" id="DejaVuSerif-Bold-83"/>
      <path d="M 27 28.515625 
L 27 23.390625 
Q 27 14.3125 29.3125 10.25 
Q 31.640625 6.203125 36.8125 6.203125 
Q 42.140625 6.203125 44.3125 10.5 
Q 46.484375 14.796875 46.484375 25.984375 
Q 46.484375 37.15625 44.3125 41.421875 
Q 42.140625 45.703125 36.8125 45.703125 
Q 31.640625 45.703125 29.3125 41.640625 
Q 27 37.59375 27 28.515625 
z
M 9.71875 46 
L 2.296875 46 
L 2.296875 51.90625 
L 27 51.90625 
L 27 45.3125 
Q 29.203125 49.359375 32.90625 51.34375 
Q 36.625 53.328125 42.09375 53.328125 
Q 53.171875 53.328125 59.546875 46.015625 
Q 65.921875 38.71875 65.921875 25.984375 
Q 65.921875 13.234375 59.546875 5.90625 
Q 53.171875 -1.421875 42.09375 -1.421875 
Q 36.625 -1.421875 32.90625 0.5625 
Q 29.203125 2.546875 27 6.59375 
L 27 -14.890625 
L 35.015625 -14.890625 
L 35.015625 -20.796875 
L 2.296875 -20.796875 
L 2.296875 -14.890625 
L 9.71875 -14.890625 
z
" id="DejaVuSerif-Bold-112"/>
      <path d="M 40.09375 29.296875 
Q 40.09375 39.546875 38.1875 43.671875 
Q 36.28125 47.796875 31.6875 47.796875 
Q 27.25 47.796875 25.3125 43.75 
Q 23.390625 39.703125 23.390625 30.171875 
L 23.390625 29.296875 
z
M 59.078125 23.484375 
L 23.390625 23.484375 
L 23.390625 23.09375 
Q 23.390625 13.03125 26.40625 8.5625 
Q 29.4375 4.109375 36.1875 4.109375 
Q 41.796875 4.109375 45.265625 7.078125 
Q 48.734375 10.0625 49.703125 15.71875 
L 57.8125 15.71875 
Q 55.71875 6.890625 49.46875 2.734375 
Q 43.21875 -1.421875 31.984375 -1.421875 
Q 18.5 -1.421875 11.296875 5.6875 
Q 4.109375 12.796875 4.109375 25.984375 
Q 4.109375 38.875 11.46875 46.09375 
Q 18.84375 53.328125 31.984375 53.328125 
Q 44.875 53.328125 51.75 45.734375 
Q 58.640625 38.140625 59.078125 23.484375 
z
" id="DejaVuSerif-Bold-101"/>
      <path d="M 56.390625 16.21875 
Q 54.546875 7.328125 48.796875 2.953125 
Q 43.0625 -1.421875 33.203125 -1.421875 
Q 19.34375 -1.421875 11.71875 5.75 
Q 4.109375 12.9375 4.109375 25.984375 
Q 4.109375 38.875 11.625 46.09375 
Q 19.140625 53.328125 32.515625 53.328125 
Q 37.9375 53.328125 43.453125 52.296875 
Q 48.96875 51.265625 54.6875 49.21875 
L 54.6875 34.8125 
L 49.21875 34.8125 
Q 48.4375 41.40625 45.359375 44.59375 
Q 42.28125 47.796875 36.71875 47.796875 
Q 29.5 47.796875 26.4375 42.90625 
Q 23.390625 38.03125 23.390625 25.984375 
Q 23.390625 14.203125 26.359375 9.15625 
Q 29.34375 4.109375 36.078125 4.109375 
Q 41.3125 4.109375 44.453125 7.234375 
Q 47.609375 10.359375 48.296875 16.21875 
z
" id="DejaVuSerif-Bold-99"/>
      <path d="M 9.1875 66.609375 
Q 9.1875 70.5625 11.921875 73.265625 
Q 14.65625 75.984375 18.609375 75.984375 
Q 22.46875 75.984375 25.171875 73.265625 
Q 27.875 70.5625 27.875 66.609375 
Q 27.875 62.75 25.171875 60.03125 
Q 22.46875 57.328125 18.609375 57.328125 
Q 14.65625 57.328125 11.921875 60.015625 
Q 9.1875 62.703125 9.1875 66.609375 
z
M 28.078125 5.90625 
L 35.5 5.90625 
L 35.5 0 
L 3.421875 0 
L 3.421875 5.90625 
L 10.796875 5.90625 
L 10.796875 46 
L 3.421875 46 
L 3.421875 51.90625 
L 28.078125 51.90625 
z
" id="DejaVuSerif-Bold-105"/>
      <path d="M 48.390625 62.984375 
L 42.921875 62.984375 
Q 42.53125 66.796875 40.703125 68.65625 
Q 38.875 70.515625 35.5 70.515625 
Q 31.59375 70.515625 29.828125 67.703125 
Q 28.078125 64.890625 28.078125 58.59375 
L 28.078125 51.90625 
L 41.109375 51.90625 
L 41.109375 46 
L 28.078125 46 
L 28.078125 5.90625 
L 38.09375 5.90625 
L 38.09375 0 
L 3.421875 0 
L 3.421875 5.90625 
L 10.796875 5.90625 
L 10.796875 46 
L 3.078125 46 
L 3.078125 51.90625 
L 10.796875 51.90625 
L 10.796875 58.40625 
Q 10.796875 67.046875 16.3125 71.515625 
Q 21.828125 75.984375 32.515625 75.984375 
Q 36.671875 75.984375 40.625 75.515625 
Q 44.578125 75.046875 48.390625 74.125 
z
" id="DejaVuSerif-Bold-102"/>
      <path id="DejaVuSerif-Bold-32"/>
      <path d="M 55.078125 31.890625 
L 55.078125 5.90625 
L 62.5 5.90625 
L 62.5 0 
L 37.796875 0 
L 37.796875 6.59375 
Q 34.375 2.484375 30.171875 0.53125 
Q 25.984375 -1.421875 20.609375 -1.421875 
Q 12.640625 -1.421875 8.375 2.84375 
Q 4.109375 7.125 4.109375 15.09375 
Q 4.109375 23.828125 10.234375 28.171875 
Q 16.359375 32.515625 28.71875 32.515625 
L 37.796875 32.515625 
L 37.796875 35.59375 
Q 37.796875 41.890625 34.8125 44.890625 
Q 31.84375 47.90625 25.59375 47.90625 
Q 20.40625 47.90625 17.59375 45.78125 
Q 14.796875 43.65625 13.625 38.8125 
L 8.109375 38.8125 
L 8.109375 50 
Q 12.75 51.65625 17.71875 52.484375 
Q 22.703125 53.328125 28.21875 53.328125 
Q 42.140625 53.328125 48.609375 48.140625 
Q 55.078125 42.96875 55.078125 31.890625 
z
M 37.796875 16.3125 
L 37.796875 26.703125 
L 31.296875 26.703125 
Q 26.46875 26.703125 23.875 24.0625 
Q 21.296875 21.4375 21.296875 16.5 
Q 21.296875 11.578125 23.171875 9.125 
Q 25.046875 6.6875 28.90625 6.6875 
Q 32.90625 6.6875 35.34375 9.328125 
Q 37.796875 11.96875 37.796875 16.3125 
z
" id="DejaVuSerif-Bold-97"/>
      <path d="M 3.421875 0 
L 3.421875 5.90625 
L 10.796875 5.90625 
L 10.796875 46 
L 3.421875 46 
L 3.421875 51.90625 
L 28.078125 51.90625 
L 28.078125 44.578125 
Q 31.203125 49.21875 35.203125 51.265625 
Q 39.203125 53.328125 45.3125 53.328125 
Q 54.046875 53.328125 58.515625 48.171875 
Q 62.984375 43.015625 62.984375 33.015625 
L 62.984375 5.90625 
L 70.40625 5.90625 
L 70.40625 0 
L 39.40625 0 
L 39.40625 5.90625 
L 45.703125 5.90625 
L 45.703125 33.5 
Q 45.703125 40.09375 44.015625 42.65625 
Q 42.328125 45.21875 38.1875 45.21875 
Q 32.953125 45.21875 30.515625 41.375 
Q 28.078125 37.546875 28.078125 29.203125 
L 28.078125 5.90625 
L 34.421875 5.90625 
L 34.421875 0 
z
" id="DejaVuSerif-Bold-110"/>
      <path d="M 60.203125 46 
L 60.203125 0.6875 
Q 60.203125 -10.25 52.40625 -16.234375 
Q 44.625 -22.21875 30.421875 -22.21875 
Q 25.25 -22.21875 19.921875 -21.40625 
Q 14.59375 -20.609375 8.984375 -19 
L 8.984375 -6.59375 
L 14.5 -6.59375 
Q 15.234375 -11.71875 18.625 -14.203125 
Q 22.015625 -16.703125 28.328125 -16.703125 
Q 36.328125 -16.703125 39.625 -12.859375 
Q 42.921875 -9.03125 42.921875 0.6875 
L 42.921875 6.59375 
Q 40.71875 2.546875 36.984375 0.5625 
Q 33.25 -1.421875 27.78125 -1.421875 
Q 16.75 -1.421875 10.421875 5.90625 
Q 4.109375 13.234375 4.109375 25.984375 
Q 4.109375 38.765625 10.421875 46.046875 
Q 16.75 53.328125 27.78125 53.328125 
Q 33.25 53.328125 36.984375 51.34375 
Q 40.71875 49.359375 42.921875 45.3125 
L 42.921875 51.90625 
L 67.578125 51.90625 
L 67.578125 46 
z
M 42.921875 28.515625 
Q 42.921875 37.59375 40.578125 41.640625 
Q 38.234375 45.703125 33.109375 45.703125 
Q 27.734375 45.703125 25.5625 41.421875 
Q 23.390625 37.15625 23.390625 25.984375 
Q 23.390625 14.796875 25.578125 10.5 
Q 27.78125 6.203125 33.109375 6.203125 
Q 38.234375 6.203125 40.578125 10.25 
Q 42.921875 14.3125 42.921875 23.390625 
z
" id="DejaVuSerif-Bold-103"/>
      <path d="M 61.921875 51.90625 
L 61.921875 5.90625 
L 69.28125 5.90625 
L 69.28125 0 
L 44.578125 0 
L 44.578125 7.328125 
Q 41.5 2.6875 37.5 0.625 
Q 33.5 -1.421875 27.390625 -1.421875 
Q 18.65625 -1.421875 14.1875 3.734375 
Q 9.71875 8.890625 9.71875 18.890625 
L 9.71875 46 
L 2.296875 46 
L 2.296875 51.90625 
L 27 51.90625 
L 27 21.578125 
Q 27 11.921875 28.609375 9.296875 
Q 30.21875 6.6875 34.515625 6.6875 
Q 39.75 6.6875 42.15625 10.546875 
Q 44.578125 14.40625 44.578125 22.796875 
L 44.578125 46 
L 38.28125 46 
L 38.28125 51.90625 
z
" id="DejaVuSerif-Bold-117"/>
      <path d="M 28.078125 5.90625 
L 35.5 5.90625 
L 35.5 0 
L 3.421875 0 
L 3.421875 5.90625 
L 10.796875 5.90625 
L 10.796875 70.125 
L 3.421875 70.125 
L 3.421875 75.984375 
L 28.078125 75.984375 
z
" id="DejaVuSerif-Bold-108"/>
      <path d="M 53.71875 52.484375 
L 53.71875 37.015625 
L 48.1875 37.015625 
Q 47.90625 41.15625 45.953125 43.1875 
Q 44 45.21875 40.28125 45.21875 
Q 34.625 45.21875 31.34375 40.234375 
Q 28.078125 35.25 28.078125 26.421875 
L 28.078125 5.90625 
L 37.5 5.90625 
L 37.5 0 
L 3.421875 0 
L 3.421875 5.90625 
L 10.796875 5.90625 
L 10.796875 46 
L 2.875 46 
L 2.875 51.90625 
L 28.078125 51.90625 
L 28.078125 42.671875 
Q 30.609375 48.09375 34.78125 50.703125 
Q 38.96875 53.328125 45.015625 53.328125 
Q 46.53125 53.328125 48.703125 53.09375 
Q 50.875 52.875 53.71875 52.484375 
z
" id="DejaVuSerif-Bold-114"/>
      <path d="M 60.6875 43.40625 
Q 64.3125 48.578125 68.5 50.953125 
Q 72.703125 53.328125 78.328125 53.328125 
Q 87.25 53.328125 91.671875 48.265625 
Q 96.09375 43.21875 96.09375 33.015625 
L 96.09375 5.90625 
L 103.515625 5.90625 
L 103.515625 0 
L 72.609375 0 
L 72.609375 5.90625 
L 78.8125 5.90625 
L 78.8125 30.421875 
Q 78.8125 40.140625 77.3125 42.671875 
Q 75.828125 45.21875 71.78125 45.21875 
Q 67.1875 45.21875 64.640625 41.671875 
Q 62.109375 38.140625 62.109375 31.59375 
L 62.109375 5.90625 
L 68.3125 5.90625 
L 68.3125 0 
L 38.625 0 
L 38.625 5.90625 
L 44.828125 5.90625 
L 44.828125 30.421875 
Q 44.828125 40.140625 43.3125 42.671875 
Q 41.796875 45.21875 37.796875 45.21875 
Q 33.15625 45.21875 30.609375 41.671875 
Q 28.078125 38.140625 28.078125 31.59375 
L 28.078125 5.90625 
L 34.28125 5.90625 
L 34.28125 0 
L 3.421875 0 
L 3.421875 5.90625 
L 10.796875 5.90625 
L 10.796875 46 
L 3.421875 46 
L 3.421875 51.90625 
L 28.078125 51.90625 
L 28.078125 44.578125 
Q 31.109375 49.125 35.015625 51.21875 
Q 38.921875 53.328125 44.28125 53.328125 
Q 50.640625 53.328125 54.59375 50.90625 
Q 58.546875 48.484375 60.6875 43.40625 
z
" id="DejaVuSerif-Bold-109"/>
      <path d="M 33.40625 4.109375 
Q 38.875 4.109375 41.09375 8.796875 
Q 43.3125 13.484375 43.3125 25.984375 
Q 43.3125 38.484375 41.109375 43.140625 
Q 38.921875 47.796875 33.40625 47.796875 
Q 27.875 47.796875 25.625 43.078125 
Q 23.390625 38.375 23.390625 25.984375 
Q 23.390625 13.578125 25.625 8.84375 
Q 27.875 4.109375 33.40625 4.109375 
z
M 33.40625 -1.421875 
Q 19.671875 -1.421875 11.890625 5.875 
Q 4.109375 13.1875 4.109375 25.984375 
Q 4.109375 38.8125 11.890625 46.0625 
Q 19.671875 53.328125 33.40625 53.328125 
Q 47.171875 53.328125 54.9375 46.0625 
Q 62.703125 38.8125 62.703125 25.984375 
Q 62.703125 13.1875 54.90625 5.875 
Q 47.125 -1.421875 33.40625 -1.421875 
z
" id="DejaVuSerif-Bold-111"/>
      <path d="M 9.90625 46 
L 2.390625 46 
L 2.390625 51.90625 
L 9.90625 51.90625 
L 9.90625 68.015625 
L 27.203125 68.015625 
L 27.203125 51.90625 
L 41.609375 51.90625 
L 41.609375 46 
L 27.203125 46 
L 27.203125 14.203125 
Q 27.203125 7.421875 28.265625 5.765625 
Q 29.34375 4.109375 32.171875 4.109375 
Q 35.296875 4.109375 36.8125 6.203125 
Q 38.328125 8.296875 38.421875 12.703125 
L 45.703125 12.703125 
Q 45.265625 4.890625 41.421875 1.734375 
Q 37.59375 -1.421875 28.21875 -1.421875 
Q 17.53125 -1.421875 13.71875 1.921875 
Q 9.90625 5.28125 9.90625 14.203125 
z
" id="DejaVuSerif-Bold-116"/>
      <path d="M 12.5 75.984375 
L 40.1875 75.984375 
L 40.1875 70.125 
L 29.78125 70.125 
L 29.78125 -7.328125 
L 40.1875 -7.328125 
L 40.1875 -13.1875 
L 12.5 -13.1875 
z
" id="DejaVuSerif-Bold-91"/>
      <path d="M 74.515625 20.796875 
Q 71.625 9.515625 64.15625 4.046875 
Q 56.6875 -1.421875 44.09375 -1.421875 
Q 25.640625 -1.421875 14.921875 8.765625 
Q 4.203125 18.953125 4.203125 36.375 
Q 4.203125 53.859375 14.921875 64.03125 
Q 25.640625 74.21875 44.09375 74.21875 
Q 50.59375 74.21875 57.625 72.65625 
Q 64.65625 71.09375 72.515625 67.921875 
L 72.515625 50 
L 66.3125 50 
Q 64.40625 59.1875 59.375 63.75 
Q 54.34375 68.3125 46.09375 68.3125 
Q 35.453125 68.3125 30.265625 60.46875 
Q 25.09375 52.640625 25.09375 36.375 
Q 25.09375 20.125 30.265625 12.3125 
Q 35.453125 4.5 46.1875 4.5 
Q 53.46875 4.5 58.078125 8.546875 
Q 62.703125 12.59375 64.796875 20.796875 
z
" id="DejaVuSerif-Bold-67"/>
      <path d="M 42.921875 23.390625 
L 42.921875 28.515625 
Q 42.921875 37.59375 40.578125 41.640625 
Q 38.234375 45.703125 33.109375 45.703125 
Q 27.734375 45.703125 25.5625 41.421875 
Q 23.390625 37.15625 23.390625 25.984375 
Q 23.390625 14.796875 25.578125 10.5 
Q 27.78125 6.203125 33.109375 6.203125 
Q 38.234375 6.203125 40.578125 10.25 
Q 42.921875 14.3125 42.921875 23.390625 
z
M 60.203125 5.90625 
L 67.578125 5.90625 
L 67.578125 0 
L 42.921875 0 
L 42.921875 6.59375 
Q 40.71875 2.546875 36.984375 0.5625 
Q 33.25 -1.421875 27.78125 -1.421875 
Q 16.75 -1.421875 10.421875 5.90625 
Q 4.109375 13.234375 4.109375 25.984375 
Q 4.109375 38.765625 10.421875 46.046875 
Q 16.75 53.328125 27.78125 53.328125 
Q 33.25 53.328125 36.984375 51.34375 
Q 40.71875 49.359375 42.921875 45.3125 
L 42.921875 70.125 
L 35.5 70.125 
L 35.5 75.984375 
L 60.203125 75.984375 
z
" id="DejaVuSerif-Bold-100"/>
      <path d="M 4.6875 1.515625 
L 4.6875 16.015625 
L 10.203125 16.015625 
Q 10.890625 10.203125 14.546875 7.15625 
Q 18.21875 4.109375 24.515625 4.109375 
Q 29.78125 4.109375 32.59375 5.9375 
Q 35.40625 7.765625 35.40625 11.1875 
Q 35.40625 14.3125 33.625 16.015625 
Q 31.84375 17.71875 26.703125 19 
L 19.578125 20.796875 
Q 11.53125 22.796875 7.90625 26.53125 
Q 4.296875 30.28125 4.296875 36.625 
Q 4.296875 45.0625 10.15625 49.1875 
Q 16.015625 53.328125 28.21875 53.328125 
Q 32.8125 53.328125 38.015625 52.5625 
Q 43.21875 51.8125 49.515625 50.203125 
L 49.515625 37.109375 
L 44 37.109375 
Q 43.5625 42.4375 40.203125 45.109375 
Q 36.859375 47.796875 30.609375 47.796875 
Q 25.34375 47.796875 22.625 46.109375 
Q 19.921875 44.4375 19.921875 41.21875 
Q 19.921875 38.578125 21.484375 37.0625 
Q 23.046875 35.546875 27.09375 34.515625 
L 34.1875 32.71875 
Q 44.390625 30.125 48.296875 26.3125 
Q 52.203125 22.515625 52.203125 15.71875 
Q 52.203125 6.9375 45.921875 2.75 
Q 39.65625 -1.421875 26.421875 -1.421875 
Q 21.578125 -1.421875 16.15625 -0.6875 
Q 10.75 0.046875 4.6875 1.515625 
z
" id="DejaVuSerif-Bold-115"/>
      <path d="M 34.8125 75.984375 
L 34.8125 -13.1875 
L 7.078125 -13.1875 
L 7.078125 -7.328125 
L 17.484375 -7.328125 
L 17.484375 70.125 
L 7.078125 70.125 
L 7.078125 75.984375 
z
" id="DejaVuSerif-Bold-93"/>
     </defs>
     <g transform="translate(350.724375 613.8675)scale(0.24 -0.24)">
      <use xlink:href="#DejaVuSerif-Bold-83"/>
      <use x="72.216797" xlink:href="#DejaVuSerif-Bold-112"/>
      <use x="142.138672" xlink:href="#DejaVuSerif-Bold-101"/>
      <use x="205.761719" xlink:href="#DejaVuSerif-Bold-99"/>
      <use x="266.650391" xlink:href="#DejaVuSerif-Bold-105"/>
      <use x="304.638672" xlink:href="#DejaVuSerif-Bold-102"/>
      <use x="347.65625" xlink:href="#DejaVuSerif-Bold-105"/>
      <use x="385.644531" xlink:href="#DejaVuSerif-Bold-99"/>
      <use x="446.533203" xlink:href="#DejaVuSerif-Bold-32"/>
      <use x="481.347656" xlink:href="#DejaVuSerif-Bold-97"/>
      <use x="546.142578" xlink:href="#DejaVuSerif-Bold-110"/>
      <use x="618.847656" xlink:href="#DejaVuSerif-Bold-103"/>
      <use x="688.769531" xlink:href="#DejaVuSerif-Bold-117"/>
      <use x="761.474609" xlink:href="#DejaVuSerif-Bold-108"/>
      <use x="799.462891" xlink:href="#DejaVuSerif-Bold-97"/>
      <use x="864.257812" xlink:href="#DejaVuSerif-Bold-114"/>
      <use x="916.943359" xlink:href="#DejaVuSerif-Bold-32"/>
      <use x="951.757812" xlink:href="#DejaVuSerif-Bold-109"/>
      <use x="1057.568359" xlink:href="#DejaVuSerif-Bold-111"/>
      <use x="1124.267578" xlink:href="#DejaVuSerif-Bold-109"/>
      <use x="1230.078125" xlink:href="#DejaVuSerif-Bold-101"/>
      <use x="1293.701172" xlink:href="#DejaVuSerif-Bold-110"/>
      <use x="1366.40625" xlink:href="#DejaVuSerif-Bold-116"/>
      <use x="1412.597656" xlink:href="#DejaVuSerif-Bold-117"/>
      <use x="1485.302734" xlink:href="#DejaVuSerif-Bold-109"/>
      <use x="1591.113281" xlink:href="#DejaVuSerif-Bold-32"/>
      <use x="1625.927734" xlink:href="#DejaVuSerif-Bold-91"/>
      <use x="1673.242188" xlink:href="#DejaVuSerif-Bold-67"/>
      <use x="1752.832031" xlink:href="#DejaVuSerif-Bold-111"/>
      <use x="1819.53125" xlink:href="#DejaVuSerif-Bold-100"/>
      <use x="1889.453125" xlink:href="#DejaVuSerif-Bold-101"/>
      <use x="1953.076172" xlink:href="#DejaVuSerif-Bold-32"/>
      <use x="1987.890625" xlink:href="#DejaVuSerif-Bold-117"/>
      <use x="2060.595703" xlink:href="#DejaVuSerif-Bold-110"/>
      <use x="2133.300781" xlink:href="#DejaVuSerif-Bold-105"/>
      <use x="2171.289062" xlink:href="#DejaVuSerif-Bold-116"/>
      <use x="2217.480469" xlink:href="#DejaVuSerif-Bold-115"/>
      <use x="2273.779297" xlink:href="#DejaVuSerif-Bold-93"/>
     </g>
    </g>
   </g>
   <g id="matplotlib.axis_2">
    <g id="ytick_1">
     <g id="line2d_6">
      <defs>
       <path d="M 0 0 
L 6 0 
" id="m484cd655e6" style="stroke:#333333;stroke-width:0.8;"/>
      </defs>
      <g>
       <use style="fill:#333333;stroke:#333333;stroke-width:0.8;" x="99.3075" xlink:href="#m484cd655e6" y="566.839375"/>
      </g>
     </g>
     <g id="text_7">
      <!-- $\mathdefault{0}$ -->
      <g style="fill:#333333;" transform="translate(80.4075 575.197656)scale(0.22 -0.22)">
       <use transform="translate(0 0.78125)" xlink:href="#DejaVuSerif-Bold-48"/>
      </g>
     </g>
    </g>
    <g id="ytick_2">
     <g id="line2d_7">
      <g>
       <use style="fill:#333333;stroke:#333333;stroke-width:0.8;" x="99.3075" xlink:href="#m484cd655e6" y="497.929238"/>
      </g>
     </g>
     <g id="text_8">
      <!-- $\mathdefault{500}$ -->
      <g style="fill:#333333;" transform="translate(49.8275 506.28752)scale(0.22 -0.22)">
       <use transform="translate(0 0.78125)" xlink:href="#DejaVuSerif-Bold-53"/>
       <use transform="translate(69.580078 0.78125)" xlink:href="#DejaVuSerif-Bold-48"/>
       <use transform="translate(139.160156 0.78125)" xlink:href="#DejaVuSerif-Bold-48"/>
      </g>
     </g>
    </g>
    <g id="ytick_3">
     <g id="line2d_8">
      <g>
       <use style="fill:#333333;stroke:#333333;stroke-width:0.8;" x="99.3075" xlink:href="#m484cd655e6" y="429.019102"/>
      </g>
     </g>
     <g id="text_9">
      <!-- $\mathdefault{1000}$ -->
      <g style="fill:#333333;" transform="translate(34.4275 437.377383)scale(0.22 -0.22)">
       <use transform="translate(0 0.78125)" xlink:href="#DejaVuSerif-Bold-49"/>
       <use transform="translate(69.580078 0.78125)" xlink:href="#DejaVuSerif-Bold-48"/>
       <use transform="translate(139.160156 0.78125)" xlink:href="#DejaVuSerif-Bold-48"/>
       <use transform="translate(208.740234 0.78125)" xlink:href="#DejaVuSerif-Bold-48"/>
      </g>
     </g>
    </g>
    <g id="ytick_4">
     <g id="line2d_9">
      <g>
       <use style="fill:#333333;stroke:#333333;stroke-width:0.8;" x="99.3075" xlink:href="#m484cd655e6" y="360.108965"/>
      </g>
     </g>
     <g id="text_10">
      <!-- $\mathdefault{1500}$ -->
      <g style="fill:#333333;" transform="translate(34.4275 368.467246)scale(0.22 -0.22)">
       <use transform="translate(0 0.78125)" xlink:href="#DejaVuSerif-Bold-49"/>
       <use transform="translate(69.580078 0.78125)" xlink:href="#DejaVuSerif-Bold-53"/>
       <use transform="translate(139.160156 0.78125)" xlink:href="#DejaVuSerif-Bold-48"/>
       <use transform="translate(208.740234 0.78125)" xlink:href="#DejaVuSerif-Bold-48"/>
      </g>
     </g>
    </g>
    <g id="ytick_5">
     <g id="line2d_10">
      <g>
       <use style="fill:#333333;stroke:#333333;stroke-width:0.8;" x="99.3075" xlink:href="#m484cd655e6" y="291.198828"/>
      </g>
     </g>
     <g id="text_11">
      <!-- $\mathdefault{2000}$ -->
      <defs>
       <path d="M 13.1875 54.890625 
L 7.328125 54.890625 
L 7.328125 70.609375 
Q 13.28125 72.40625 19.109375 73.3125 
Q 24.953125 74.21875 30.90625 74.21875 
Q 44.828125 74.21875 52.609375 68.53125 
Q 60.40625 62.84375 60.40625 52.6875 
Q 60.40625 45.453125 56.109375 39.71875 
Q 51.8125 33.984375 39.703125 26.125 
L 19.390625 12.796875 
L 53.90625 12.796875 
L 53.90625 21.390625 
L 60.59375 21.390625 
L 60.59375 0 
L 6.6875 0 
L 6.6875 11.921875 
L 17.484375 19.390625 
Q 31.296875 28.90625 35.890625 35.59375 
Q 40.484375 42.28125 40.484375 51.21875 
Q 40.484375 59.671875 36.984375 64.078125 
Q 33.5 68.5 26.8125 68.5 
Q 21.046875 68.5 17.578125 65.015625 
Q 14.109375 61.53125 13.1875 54.890625 
z
" id="DejaVuSerif-Bold-50"/>
      </defs>
      <g style="fill:#333333;" transform="translate(34.4275 299.557109)scale(0.22 -0.22)">
       <use transform="translate(0 0.78125)" xlink:href="#DejaVuSerif-Bold-50"/>
       <use transform="translate(69.580078 0.78125)" xlink:href="#DejaVuSerif-Bold-48"/>
       <use transform="translate(139.160156 0.78125)" xlink:href="#DejaVuSerif-Bold-48"/>
       <use transform="translate(208.740234 0.78125)" xlink:href="#DejaVuSerif-Bold-48"/>
      </g>
     </g>
    </g>
    <g id="ytick_6">
     <g id="line2d_11">
      <g>
       <use style="fill:#333333;stroke:#333333;stroke-width:0.8;" x="99.3075" xlink:href="#m484cd655e6" y="222.288691"/>
      </g>
     </g>
     <g id="text_12">
      <!-- $\mathdefault{2500}$ -->
      <g style="fill:#333333;" transform="translate(34.4275 230.646973)scale(0.22 -0.22)">
       <use transform="translate(0 0.78125)" xlink:href="#DejaVuSerif-Bold-50"/>
       <use transform="translate(69.580078 0.78125)" xlink:href="#DejaVuSerif-Bold-53"/>
       <use transform="translate(139.160156 0.78125)" xlink:href="#DejaVuSerif-Bold-48"/>
       <use transform="translate(208.740234 0.78125)" xlink:href="#DejaVuSerif-Bold-48"/>
      </g>
     </g>
    </g>
    <g id="ytick_7">
     <g id="line2d_12">
      <g>
       <use style="fill:#333333;stroke:#333333;stroke-width:0.8;" x="99.3075" xlink:href="#m484cd655e6" y="153.378555"/>
      </g>
     </g>
     <g id="text_13">
      <!-- $\mathdefault{3000}$ -->
      <defs>
       <path d="M 8.59375 70.796875 
Q 15.046875 72.515625 21.09375 73.359375 
Q 27.15625 74.21875 32.90625 74.21875 
Q 46.09375 74.21875 53.140625 69.5 
Q 60.203125 64.796875 60.203125 56 
Q 60.203125 49.421875 56.140625 45.3125 
Q 52.09375 41.21875 44.28125 39.796875 
Q 53.8125 38.28125 58.5 33.296875 
Q 63.1875 28.328125 63.1875 19.671875 
Q 63.1875 9.46875 55.09375 4.015625 
Q 47.015625 -1.421875 31.6875 -1.421875 
Q 25.921875 -1.421875 19.796875 -0.4375 
Q 13.671875 0.53125 6.984375 2.484375 
L 6.984375 18.5 
L 12.890625 18.5 
Q 13.421875 11.578125 17.234375 7.9375 
Q 21.046875 4.296875 27.78125 4.296875 
Q 35.203125 4.296875 39.25 8.421875 
Q 43.3125 12.546875 43.3125 20.125 
Q 43.3125 28.03125 39.078125 32.328125 
Q 34.859375 36.625 27.09375 36.625 
L 23.875 36.625 
L 23.875 42.484375 
L 26.421875 42.484375 
Q 33.59375 42.484375 37.203125 45.796875 
Q 40.828125 49.125 40.828125 55.71875 
Q 40.828125 61.921875 37.421875 65.203125 
Q 34.03125 68.5 27.6875 68.5 
Q 21.921875 68.5 18.546875 65.34375 
Q 15.1875 62.203125 14.5 56.203125 
L 8.59375 56.203125 
z
" id="DejaVuSerif-Bold-51"/>
      </defs>
      <g style="fill:#333333;" transform="translate(34.4275 161.736836)scale(0.22 -0.22)">
       <use transform="translate(0 0.78125)" xlink:href="#DejaVuSerif-Bold-51"/>
       <use transform="translate(69.580078 0.78125)" xlink:href="#DejaVuSerif-Bold-48"/>
       <use transform="translate(139.160156 0.78125)" xlink:href="#DejaVuSerif-Bold-48"/>
       <use transform="translate(208.740234 0.78125)" xlink:href="#DejaVuSerif-Bold-48"/>
      </g>
     </g>
    </g>
    <g id="ytick_8">
     <g id="line2d_13">
      <g>
       <use style="fill:#333333;stroke:#333333;stroke-width:0.8;" x="99.3075" xlink:href="#m484cd655e6" y="84.468418"/>
      </g>
     </g>
     <g id="text_14">
      <!-- $\mathdefault{3500}$ -->
      <g style="fill:#333333;" transform="translate(34.4275 92.826699)scale(0.22 -0.22)">
       <use transform="translate(0 0.78125)" xlink:href="#DejaVuSerif-Bold-51"/>
       <use transform="translate(69.580078 0.78125)" xlink:href="#DejaVuSerif-Bold-53"/>
       <use transform="translate(139.160156 0.78125)" xlink:href="#DejaVuSerif-Bold-48"/>
       <use transform="translate(208.740234 0.78125)" xlink:href="#DejaVuSerif-Bold-48"/>
      </g>
     </g>
    </g>
    <g id="ytick_9">
     <g id="line2d_14">
      <g>
       <use style="fill:#333333;stroke:#333333;stroke-width:0.8;" x="99.3075" xlink:href="#m484cd655e6" y="15.558281"/>
      </g>
     </g>
     <g id="text_15">
      <!-- $\mathdefault{4000}$ -->
      <defs>
       <path d="M 63.8125 0 
L 23.6875 0 
L 23.6875 5.90625 
L 34.515625 5.90625 
L 34.515625 19.1875 
L 4.109375 19.1875 
L 4.109375 24.8125 
L 34.625 74.21875 
L 52.984375 74.21875 
L 52.984375 25.484375 
L 65.484375 25.484375 
L 65.484375 19.1875 
L 52.984375 19.1875 
L 52.984375 5.90625 
L 63.8125 5.90625 
z
M 34.515625 25.484375 
L 34.515625 60.890625 
L 12.796875 25.484375 
z
" id="DejaVuSerif-Bold-52"/>
      </defs>
      <g style="fill:#333333;" transform="translate(34.4275 23.916562)scale(0.22 -0.22)">
       <use transform="translate(0 0.78125)" xlink:href="#DejaVuSerif-Bold-52"/>
       <use transform="translate(69.580078 0.78125)" xlink:href="#DejaVuSerif-Bold-48"/>
       <use transform="translate(139.160156 0.78125)" xlink:href="#DejaVuSerif-Bold-48"/>
       <use transform="translate(208.740234 0.78125)" xlink:href="#DejaVuSerif-Bold-48"/>
      </g>
     </g>
    </g>
    <g id="text_16">
     <!-- Mass $[M_{\odot}]$ -->
     <defs>
      <path d="M 4.203125 0 
L 4.203125 5.90625 
L 13.484375 5.90625 
L 13.484375 67 
L 4.203125 67 
L 4.203125 72.90625 
L 34.28125 72.90625 
L 55.078125 26.125 
L 75.984375 72.90625 
L 106 72.90625 
L 106 67 
L 96.6875 67 
L 96.6875 5.90625 
L 106 5.90625 
L 106 0 
L 68.5 0 
L 68.5 5.90625 
L 77.78125 5.90625 
L 77.78125 61.53125 
L 55.171875 10.6875 
L 42.828125 10.6875 
L 20.3125 61.53125 
L 20.3125 5.90625 
L 29.59375 5.90625 
L 29.59375 0 
z
" id="DejaVuSerif-Bold-77"/>
      <path d="M 38.09375 22.125 
Q 32.625 27.546875 32.625 31.34375 
Q 32.625 35.15625 35.359375 37.890625 
Q 38.09375 40.625 41.890625 40.625 
Q 45.75 40.625 48.484375 37.890625 
Q 51.21875 35.15625 51.21875 31.34375 
Q 51.21875 27.546875 48.484375 24.828125 
Q 45.75 22.125 41.890625 22.125 
Q 38.09375 22.125 32.625 27.546875 
z
M 27.203125 46.046875 
Q 21.78125 36.765625 21.78125 31.34375 
Q 21.78125 25.921875 24.484375 21.28125 
Q 27.203125 16.65625 31.828125 13.9375 
Q 36.46875 11.234375 41.890625 11.234375 
Q 47.3125 11.234375 51.953125 13.9375 
Q 56.59375 16.65625 59.296875 21.28125 
Q 62.015625 25.921875 62.015625 31.34375 
Q 62.015625 36.765625 59.296875 41.40625 
Q 56.59375 46.046875 51.953125 48.75 
Q 47.3125 51.46875 41.890625 51.46875 
Q 36.46875 51.46875 31.828125 48.75 
Q 27.203125 46.046875 21.78125 36.765625 
z
M 18.953125 8.40625 
Q 10.546875 22.859375 10.546875 31.34375 
Q 10.546875 39.84375 14.75 47.0625 
Q 18.953125 54.296875 26.171875 58.5 
Q 33.40625 62.703125 41.890625 62.703125 
Q 50.390625 62.703125 57.609375 58.5 
Q 64.84375 54.296875 69.046875 47.0625 
Q 73.25 39.84375 73.25 31.34375 
Q 73.25 22.859375 69.046875 15.625 
Q 64.84375 8.40625 57.609375 4.203125 
Q 50.390625 0 41.890625 0 
Q 33.40625 0 26.171875 4.203125 
Q 18.953125 8.40625 10.546875 22.859375 
z
" id="DejaVuSerif-Bold-8857"/>
     </defs>
     <g transform="translate(25.43625 362.118828)rotate(-90)scale(0.24 -0.24)">
      <use transform="translate(0 0.015625)" xlink:href="#DejaVuSerif-Bold-77"/>
      <use transform="translate(110.693359 0.015625)" xlink:href="#DejaVuSerif-Bold-97"/>
      <use transform="translate(175.488281 0.015625)" xlink:href="#DejaVuSerif-Bold-115"/>
      <use transform="translate(231.787109 0.015625)" xlink:href="#DejaVuSerif-Bold-115"/>
      <use transform="translate(288.085938 0.015625)" xlink:href="#DejaVuSerif-Bold-32"/>
      <use transform="translate(322.900391 0.015625)" xlink:href="#DejaVuSerif-Bold-91"/>
      <use transform="translate(370.214844 0.015625)" xlink:href="#DejaVuSerif-Bold-77"/>
      <use transform="translate(481.816562 -15.55625)scale(0.7)" xlink:href="#DejaVuSerif-Bold-8857"/>
      <use transform="translate(543.064219 0.015625)" xlink:href="#DejaVuSerif-Bold-93"/>
     </g>
    </g>
   </g>
   <g id="line2d_15">
    <path clip-path="url(#p4373bbf627)" d="M 629.25375 566.825593 
L 629.25375 566.839375 
" style="fill:none;stroke:#000000;stroke-dasharray:6.4,1.6,1,1.6;stroke-dashoffset:0;"/>
   </g>
   <g id="patch_4">
    <path d="M 99.3075 566.839375 
L 99.3075 15.558281 
" style="fill:none;stroke:#333333;stroke-linecap:square;stroke-linejoin:miter;stroke-width:0.8;"/>
   </g>
   <g id="patch_5">
    <path d="M 1159.2 566.839375 
L 1159.2 15.558281 
" style="fill:none;stroke:#333333;stroke-linecap:square;stroke-linejoin:miter;stroke-width:0.8;"/>
   </g>
   <g id="patch_6">
    <path d="M 99.3075 566.839375 
L 1159.2 566.839375 
" style="fill:none;stroke:#333333;stroke-linecap:square;stroke-linejoin:miter;stroke-width:0.8;"/>
   </g>
   <g id="patch_7">
    <path d="M 99.3075 15.558281 
L 1159.2 15.558281 
" style="fill:none;stroke:#333333;stroke-linecap:square;stroke-linejoin:miter;stroke-width:0.8;"/>
   </g>
   <g id="legend_1">
    <g id="text_17">
     <!-- t = 0.06 [Myr] -->
     <defs>
      <path d="M 10.59375 25.78125 
L 73.1875 25.78125 
L 73.1875 14.703125 
L 10.59375 14.703125 
z
M 10.59375 48 
L 73.1875 48 
L 73.1875 36.921875 
L 10.59375 36.921875 
z
" id="DejaVuSerif-Bold-61"/>
      <path d="M 8.109375 7.90625 
Q 8.109375 11.71875 10.84375 14.453125 
Q 13.578125 17.1875 17.390625 17.1875 
Q 21.234375 17.1875 23.96875 14.453125 
Q 26.703125 11.71875 26.703125 7.90625 
Q 26.703125 4.046875 23.96875 1.3125 
Q 21.234375 -1.421875 17.390625 -1.421875 
Q 13.578125 -1.421875 10.84375 1.3125 
Q 8.109375 4.046875 8.109375 7.90625 
z
" id="DejaVuSerif-Bold-46"/>
      <path d="M 24.609375 43.21875 
Q 27.78125 45.75 31.703125 47.015625 
Q 35.640625 48.296875 40.28125 48.296875 
Q 51.46875 48.296875 57.828125 41.75 
Q 64.203125 35.203125 64.203125 23.78125 
Q 64.203125 11.71875 57.03125 5.140625 
Q 49.859375 -1.421875 36.625 -1.421875 
Q 21.6875 -1.421875 13.984375 7.59375 
Q 6.296875 16.609375 6.296875 34.078125 
Q 6.296875 53.953125 14.84375 64.078125 
Q 23.390625 74.21875 40.1875 74.21875 
Q 44.578125 74.21875 49.609375 73.484375 
Q 54.640625 72.75 60.40625 71.296875 
L 60.40625 58.40625 
L 54.5 58.40625 
Q 53.265625 63.375 49.875 65.9375 
Q 46.484375 68.5 41.109375 68.5 
Q 32.421875 68.5 28.53125 62.546875 
Q 24.65625 56.59375 24.609375 43.21875 
z
M 35.5 4.296875 
Q 40.53125 4.296875 42.671875 8.5625 
Q 44.828125 12.84375 44.828125 23.390625 
Q 44.828125 33.9375 42.671875 38.203125 
Q 40.53125 42.484375 35.5 42.484375 
Q 30.46875 42.484375 28.34375 38.203125 
Q 26.21875 33.9375 26.21875 23.390625 
Q 26.21875 12.84375 28.34375 8.5625 
Q 30.46875 4.296875 35.5 4.296875 
z
" id="DejaVuSerif-Bold-54"/>
      <path d="M 31.203125 -11.71875 
Q 28.859375 -17.4375 25.53125 -19.828125 
Q 22.21875 -22.21875 16.609375 -22.21875 
Q 14.203125 -22.21875 11.265625 -21.671875 
Q 8.34375 -21.140625 4.890625 -20.125 
L 4.890625 -9.28125 
L 10.40625 -9.328125 
Q 10.546875 -13.09375 12.171875 -14.890625 
Q 13.8125 -16.703125 17.09375 -16.703125 
Q 20.265625 -16.703125 22.21875 -14.96875 
Q 24.171875 -13.234375 26.125 -8.40625 
L 26.90625 -6.59375 
L 4.296875 46 
L -1.3125 46 
L -1.3125 51.90625 
L 28.609375 51.90625 
L 28.609375 46 
L 22.40625 46 
L 35.59375 15.28125 
L 47.90625 46 
L 41.015625 46 
L 41.015625 51.90625 
L 60.5 51.90625 
L 60.5 46 
L 54.203125 46 
z
" id="DejaVuSerif-Bold-121"/>
     </defs>
     <g transform="translate(869.100625 53.594531)scale(0.24 -0.24)">
      <use xlink:href="#DejaVuSerif-Bold-116"/>
      <use x="46.191406" xlink:href="#DejaVuSerif-Bold-32"/>
      <use x="81.005859" xlink:href="#DejaVuSerif-Bold-61"/>
      <use x="164.794922" xlink:href="#DejaVuSerif-Bold-32"/>
      <use x="199.609375" xlink:href="#DejaVuSerif-Bold-48"/>
      <use x="269.189453" xlink:href="#DejaVuSerif-Bold-46"/>
      <use x="304.003906" xlink:href="#DejaVuSerif-Bold-48"/>
      <use x="373.583984" xlink:href="#DejaVuSerif-Bold-54"/>
      <use x="443.164062" xlink:href="#DejaVuSerif-Bold-32"/>
      <use x="477.978516" xlink:href="#DejaVuSerif-Bold-91"/>
      <use x="525.292969" xlink:href="#DejaVuSerif-Bold-77"/>
      <use x="635.986328" xlink:href="#DejaVuSerif-Bold-121"/>
      <use x="694.091797" xlink:href="#DejaVuSerif-Bold-114"/>
      <use x="746.777344" xlink:href="#DejaVuSerif-Bold-93"/>
     </g>
    </g>
    <g id="patch_8">
     <path d="M 789.38 86.643594 
L 833.38 86.643594 
L 833.38 71.243594 
L 789.38 71.243594 
z
" style="fill:none;stroke:#ff0000;stroke-linejoin:miter;stroke-width:2;"/>
    </g>
    <g id="text_18">
     <!-- Cloud 1, Gas$, F_{cw} = $0.38 -->
     <defs>
      <path d="M 1.3125 -9.625 
Q 6.390625 -5.515625 8.78125 -0.4375 
Q 11.1875 4.640625 11.1875 11.375 
L 11.1875 15.578125 
L 25.09375 15.578125 
L 25.09375 15.1875 
Q 25.09375 4.390625 20.578125 -3.390625 
Q 16.0625 -11.1875 6.6875 -16.5 
z
" id="DejaVuSerif-Bold-44"/>
      <path d="M 68.796875 50 
Q 66.609375 59.671875 61.46875 63.984375 
Q 56.34375 68.3125 47.015625 68.3125 
Q 35.6875 68.3125 30.390625 60.625 
Q 25.09375 52.9375 25.09375 36.375 
Q 25.09375 19.96875 30.171875 12.234375 
Q 35.25 4.5 46 4.5 
Q 50.09375 4.5 53.609375 5.421875 
Q 57.125 6.34375 60.015625 8.203125 
L 60.015625 28.21875 
L 51.21875 28.21875 
L 51.21875 34.078125 
L 77.484375 34.078125 
L 77.484375 6.109375 
Q 69.28125 2.296875 61.109375 0.4375 
Q 52.9375 -1.421875 44.390625 -1.421875 
Q 25.640625 -1.421875 14.921875 8.6875 
Q 4.203125 18.796875 4.203125 36.375 
Q 4.203125 54 14.921875 64.109375 
Q 25.640625 74.21875 44.390625 74.21875 
Q 52.203125 74.21875 59.765625 72.65625 
Q 67.328125 71.09375 75 67.921875 
L 75 50 
z
" id="DejaVuSerif-Bold-71"/>
      <path d="M 4.6875 0 
L 4.6875 5.90625 
L 14.015625 5.90625 
L 14.015625 67 
L 4.6875 67 
L 4.6875 72.90625 
L 69.671875 72.90625 
L 69.671875 55.71875 
L 62.984375 55.71875 
L 62.984375 66.21875 
L 32.90625 66.21875 
L 32.90625 42.828125 
L 51.421875 42.828125 
L 51.421875 52.09375 
L 58.109375 52.09375 
L 58.109375 26.90625 
L 51.421875 26.90625 
L 51.421875 36.1875 
L 32.90625 36.1875 
L 32.90625 5.90625 
L 44.390625 5.90625 
L 44.390625 0 
z
" id="DejaVuSerif-Bold-70"/>
      <path d="M 53.90625 51.90625 
L 65.71875 17.28125 
L 75.484375 46 
L 68.703125 46 
L 68.703125 51.90625 
L 88.09375 51.90625 
L 88.09375 46 
L 81.984375 46 
L 66.3125 0 
L 54.390625 0 
L 43.40625 32.515625 
L 32.328125 0 
L 20.515625 0 
L 4.78125 46 
L -0.875 46 
L -0.875 51.90625 
L 28.515625 51.90625 
L 28.515625 46 
L 22.40625 46 
L 31.984375 17.921875 
L 43.609375 51.90625 
z
" id="DejaVuSerif-Bold-119"/>
      <path d="M 46.484375 38.8125 
Q 55.171875 37.40625 59.6875 32.421875 
Q 64.203125 27.4375 64.203125 19.390625 
Q 64.203125 9.328125 56.609375 3.953125 
Q 49.03125 -1.421875 34.71875 -1.421875 
Q 20.40625 -1.421875 12.78125 3.953125 
Q 5.171875 9.328125 5.171875 19.390625 
Q 5.171875 27.4375 9.71875 32.421875 
Q 14.265625 37.40625 22.90625 38.8125 
Q 15.234375 40.578125 11.421875 44.703125 
Q 7.625 48.828125 7.625 55.171875 
Q 7.625 64.453125 14.546875 69.328125 
Q 21.484375 74.21875 34.71875 74.21875 
Q 47.90625 74.21875 54.859375 69.328125 
Q 61.8125 64.453125 61.8125 55.171875 
Q 61.8125 48.828125 57.984375 44.703125 
Q 54.15625 40.578125 46.484375 38.8125 
z
M 42.921875 54.984375 
Q 42.921875 62.703125 41.0625 65.59375 
Q 39.203125 68.5 34.71875 68.5 
Q 30.171875 68.5 28.34375 65.59375 
Q 26.515625 62.703125 26.515625 54.984375 
Q 26.515625 47.3125 28.34375 44.453125 
Q 30.171875 41.609375 34.71875 41.609375 
Q 39.265625 41.609375 41.09375 44.453125 
Q 42.921875 47.3125 42.921875 54.984375 
z
M 44.828125 20.21875 
Q 44.828125 29.15625 42.546875 32.515625 
Q 40.28125 35.890625 34.71875 35.890625 
Q 29.109375 35.890625 26.859375 32.515625 
Q 24.609375 29.15625 24.609375 20.21875 
Q 24.609375 11.1875 26.875 7.734375 
Q 29.15625 4.296875 34.71875 4.296875 
Q 40.234375 4.296875 42.53125 7.734375 
Q 44.828125 11.1875 44.828125 20.21875 
z
" id="DejaVuSerif-Bold-56"/>
     </defs>
     <g transform="translate(850.98 86.643594)scale(0.22 -0.22)">
      <use transform="translate(0 0.015625)" xlink:href="#DejaVuSerif-Bold-67"/>
      <use transform="translate(79.589844 0.015625)" xlink:href="#DejaVuSerif-Bold-108"/>
      <use transform="translate(117.578125 0.015625)" xlink:href="#DejaVuSerif-Bold-111"/>
      <use transform="translate(184.277344 0.015625)" xlink:href="#DejaVuSerif-Bold-117"/>
      <use transform="translate(256.982422 0.015625)" xlink:href="#DejaVuSerif-Bold-100"/>
      <use transform="translate(326.904297 0.015625)" xlink:href="#DejaVuSerif-Bold-32"/>
      <use transform="translate(361.71875 0.015625)" xlink:href="#DejaVuSerif-Bold-49"/>
      <use transform="translate(431.298828 0.015625)" xlink:href="#DejaVuSerif-Bold-44"/>
      <use transform="translate(466.113281 0.015625)" xlink:href="#DejaVuSerif-Bold-32"/>
      <use transform="translate(500.927734 0.015625)" xlink:href="#DejaVuSerif-Bold-71"/>
      <use transform="translate(586.328125 0.015625)" xlink:href="#DejaVuSerif-Bold-97"/>
      <use transform="translate(651.123047 0.015625)" xlink:href="#DejaVuSerif-Bold-115"/>
      <use transform="translate(707.421875 0.015625)" xlink:href="#DejaVuSerif-Bold-44"/>
      <use transform="translate(763.398438 0.015625)" xlink:href="#DejaVuSerif-Bold-70"/>
      <use transform="translate(835.302891 -15.55625)scale(0.7)" xlink:href="#DejaVuSerif-Bold-99"/>
      <use transform="translate(877.924961 -15.55625)scale(0.7)" xlink:href="#DejaVuSerif-Bold-119"/>
      <use transform="translate(961.941172 0.015625)" xlink:href="#DejaVuSerif-Bold-61"/>
      <use transform="translate(1066.892344 0.015625)" xlink:href="#DejaVuSerif-Bold-48"/>
      <use transform="translate(1136.472422 0.015625)" xlink:href="#DejaVuSerif-Bold-46"/>
      <use transform="translate(1171.286875 0.015625)" xlink:href="#DejaVuSerif-Bold-51"/>
      <use transform="translate(1240.866953 0.015625)" xlink:href="#DejaVuSerif-Bold-56"/>
     </g>
    </g>
   </g>
  </g>
 </g>
 <defs>
  <clipPath id="p4373bbf627">
   <rect height="551.281094" width="1059.8925" x="99.3075" y="15.558281"/>
  </clipPath>
 </defs>
</svg>
