<svg version="1.1" viewBox="0.0 0.0 960.0 540.0" fill="none" stroke="none" stroke-linecap="square" stroke-miterlimit="10" xmlns:xlink="http://www.w3.org/1999/xlink" xmlns="http://www.w3.org/2000/svg"><clipPath id="p.0"><path d="m0 0l960.0 0l0 540.0l-960.0 0l0 -540.0z" clip-rule="nonzero"/></clipPath><g clip-path="url(#p.0)"><path fill="#000000" d="m0 0l960.0 0l0 540.0l-960.0 0z" fill-rule="evenodd"/><path fill="#5b7bff" d="m210.61942 257.01312l0 0c0 -28.014313 22.710098 -50.72441 50.724426 -50.72441l0 0c13.452942 0 26.354889 5.344162 35.867554 14.856842c9.512695 9.512665 14.856842 22.414627 14.856842 35.86757l0 0c0 28.014313 -22.710083 50.724396 -50.724396 50.724396l0 0c-28.014328 0 -50.724426 -22.710083 -50.724426 -50.724396z" fill-rule="evenodd"/><path stroke="#595959" stroke-width="1.0" stroke-linejoin="round" stroke-linecap="butt" d="m210.61942 257.01312l0 0c0 -28.014313 22.710098 -50.72441 50.724426 -50.72441l0 0c13.452942 0 26.354889 5.344162 35.867554 14.856842c9.512695 9.512665 14.856842 22.414627 14.856842 35.86757l0 0c0 28.014313 -22.710083 50.724396 -50.724396 50.724396l0 0c-28.014328 0 -50.724426 -22.710083 -50.724426 -50.724396z" fill-rule="evenodd"/><path fill="#5f80ff" d="m428.84515 257.93964l0 0c0 -6.662216 5.4007874 -12.062988 12.062988 -12.062988l0 0c3.1993103 0 6.267578 1.2709045 8.529816 3.5331573c2.2622375 2.2622528 3.5331726 5.3305206 3.5331726 8.529831l0 0c0 6.662201 -5.4007874 12.062988 -12.062988 12.062988l0 0c-6.662201 0 -12.062988 -5.4007874 -12.062988 -12.062988z" fill-rule="evenodd"/><path stroke="#595959" stroke-width="1.0" stroke-linejoin="round" stroke-linecap="butt" d="m428.84515 257.93964l0 0c0 -6.662216 5.4007874 -12.062988 12.062988 -12.062988l0 0c3.1993103 0 6.267578 1.2709045 8.529816 3.5331573c2.2622375 2.2622528 3.5331726 5.3305206 3.5331726 8.529831l0 0c0 6.662201 -5.4007874 12.062988 -12.062988 12.062988l0 0c-6.662201 0 -12.062988 -5.4007874 -12.062988 -12.062988z" fill-rule="evenodd"/><path fill="#000000" fill-opacity="0.0" d="m312.05774 257.02625l116.787415 0.9133911" fill-rule="evenodd"/><path stroke="#ffffff" stroke-width="1.0" stroke-linejoin="round" stroke-linecap="butt" d="m312.05774 257.02625l116.787415 0.9133911" fill-rule="evenodd"/><path fill="#eeeeee" d="m337.71558 252.09279l3.4589233 -2.6596527l3.0906067 4.0193634l3.0905762 -4.0193634l3.4589233 2.6596527l-3.7975159 4.9387054l3.7975159 4.9387207l-3.4589233 2.6596375l-3.0905762 -4.019348l-3.0906067 4.019348l-3.4589233 -2.6596375l3.7975159 -4.9387207z" fill-rule="evenodd"/><path stroke="#595959" stroke-width="1.0" stroke-linejoin="round" stroke-linecap="butt" d="m337.71558 252.09279l3.4589233 -2.6596527l3.0906067 4.0193634l3.0905762 -4.0193634l3.4589233 2.6596527l-3.7975159 4.9387054l3.7975159 4.9387207l-3.4589233 2.6596375l-3.0905762 -4.019348l-3.0906067 4.019348l-3.4589233 -2.6596375l3.7975159 -4.9387207z" fill-rule="evenodd"/><path fill="#000000" fill-opacity="0.0" d="m321.958 203.89764l82.897644 0l0 53.322815l-82.897644 0z" fill-rule="evenodd"/><path fill="#ffffff" d="m342.28613 234.46513l2.40625 0.3125q-0.390625 2.5 -2.03125 3.921875q-1.625 1.40625 -4.0 1.40625q-2.984375 0 -4.796875 -1.9375q-1.8125 -1.953125 -1.8125 -5.59375q0 -2.359375 0.78125 -4.109375q0.78125 -1.765625 2.375 -2.640625q1.59375 -0.890625 3.46875 -0.890625q2.359375 0 3.859375 1.203125q1.5 1.1875 1.9375 3.390625l-2.40625 0.359375q-0.328125 -1.453125 -1.203125 -2.1875q-0.875 -0.75 -2.09375 -0.75q-1.859375 0 -3.03125 1.34375q-1.15625 1.328125 -1.15625 4.203125q0 2.9375 1.109375 4.265625q1.125 1.3125 2.9375 1.3125q1.453125 0 2.421875 -0.875q0.96875 -0.890625 1.234375 -2.734375zm3.609375 -1.953125q0 -4.03125 2.234375 -5.96875q1.875 -1.609375 4.5625 -1.609375q3.0 0 4.890625 1.96875q1.90625 1.953125 1.90625 5.40625q0 2.8125 -0.84375 4.421875q-0.828125 1.59375 -2.4375 2.484375q-1.609375 0.890625 -3.515625 0.890625q-3.046875 0 -4.921875 -1.953125q-1.875 -1.953125 -1.875 -5.640625zm2.515625 0q0 2.796875 1.21875 4.1875q1.21875 1.375 3.0625 1.375q1.84375 0 3.046875 -1.390625q1.21875 -1.390625 1.21875 -4.25q0 -2.6875 -1.21875 -4.078125q-1.21875 -1.390625 -3.046875 -1.390625q-1.84375 0 -3.0625 1.390625q-1.21875 1.375 -1.21875 4.15625zm13.962891 7.265625l0 -14.515625l2.203125 0l0 2.03125q0.6875 -1.0625 1.8125 -1.703125q1.140625 -0.65625 2.59375 -0.65625q1.609375 0 2.640625 0.671875q1.03125 0.65625 1.453125 1.859375q1.734375 -2.53125 4.484375 -2.53125q2.171875 0 3.328125 1.203125q1.15625 1.1875 1.15625 3.671875l0 9.96875l-2.4375 0l0 -9.140625q0 -1.484375 -0.25 -2.125q-0.234375 -0.65625 -0.859375 -1.046875q-0.625 -0.40625 -1.484375 -0.40625q-1.53125 0 -2.546875 1.03125q-1.0 1.015625 -1.0 3.25l0 8.4375l-2.46875 0l0 -9.4375q0 -1.640625 -0.609375 -2.453125q-0.59375 -0.828125 -1.953125 -0.828125q-1.046875 0 -1.9375 0.546875q-0.875 0.546875 -1.265625 1.609375q-0.390625 1.046875 -0.390625 3.03125l0 7.53125l-2.46875 0z" fill-rule="nonzero"/><path fill="#000000" fill-opacity="0.0" d="m342.9895 287.937l604.9449 4.9448853" fill-rule="evenodd"/><path stroke="#ffffff" stroke-width="1.0" stroke-linejoin="round" stroke-linecap="butt" d="m342.9895 287.937l598.94507 4.8958435" fill-rule="evenodd"/><path fill="#ffffff" stroke="#ffffff" stroke-width="1.0" stroke-linecap="butt" d="m941.9211 294.48453l4.5514526 -1.6145935l-4.524475 -1.6887512z" fill-rule="evenodd"/><path fill="#000000" fill-opacity="0.0" d="m652.2677 301.6299l295.65356 0l0 53.322845l-295.65356 0z" fill-rule="evenodd"/><path fill="#ffffff" d="m663.0802 337.50992l0 -14.515625l2.21875 0l0 2.203125q0.84375 -1.546875 1.5625 -2.03125q0.71875 -0.5 1.578125 -0.5q1.25 0 2.53125 0.78125l-0.84375 2.296875q-0.90625 -0.546875 -1.796875 -0.546875q-0.8125 0 -1.453125 0.5q-0.640625 0.484375 -0.921875 1.34375q-0.40625 1.3125 -0.40625 2.859375l0 7.609375l-2.46875 0z" fill-rule="nonzero"/><path fill="#ffffff" d="m675.4044 346.54117l0.234375 1.453125q-0.6875 0.140625 -1.234375 0.140625q-0.890625 0 -1.390625 -0.28125q-0.484375 -0.28125 -0.6875 -0.734375q-0.203125 -0.46875 -0.203125 -1.9375l0 -5.578125l-1.203125 0l0 -1.265625l1.203125 0l0 -2.390625l1.625 -0.984375l0 3.375l1.65625 0l0 1.265625l-1.65625 0l0 5.671875q0 0.6875 0.078125 0.890625q0.09375 0.203125 0.28125 0.328125q0.203125 0.109375 0.578125 0.109375q0.265625 0 0.71875 -0.0625z" fill-rule="nonzero"/><path fill="#ffffff" d="m690.7732 335.3068l0.359375 2.171875q-1.046875 0.21875 -1.859375 0.21875q-1.34375 0 -2.078125 -0.421875q-0.734375 -0.421875 -1.046875 -1.109375q-0.296875 -0.6875 -0.296875 -2.90625l0 -8.359375l-1.796875 0l0 -1.90625l1.796875 0l0 -3.59375l2.453125 -1.484375l0 5.078125l2.46875 0l0 1.90625l-2.46875 0l0 8.5q0 1.046875 0.125 1.34375q0.125 0.296875 0.421875 0.484375q0.296875 0.171875 0.84375 0.171875q0.40625 0 1.078125 -0.09375zm1.4980469 -5.0625q0 -4.03125 2.234375 -5.96875q1.875 -1.609375 4.5625 -1.609375q3.0 0 4.890625 1.96875q1.90625 1.953125 1.90625 5.40625q0 2.8125 -0.84375 4.421875q-0.828125 1.59375 -2.4375 2.484375q-1.609375 0.890625 -3.515625 0.890625q-3.046875 0 -4.921875 -1.953125q-1.875 -1.953125 -1.875 -5.640625zm2.515625 0q0 2.796875 1.21875 4.1875q1.21875 1.375 3.0625 1.375q1.84375 0 3.046875 -1.390625q1.21875 -1.390625 1.21875 -4.25q0 -2.6875 -1.21875 -4.078125q-1.21875 -1.390625 -3.046875 -1.390625q-1.84375 0 -3.0625 1.390625q-1.21875 1.375 -1.21875 4.15625zm21.164062 0.828125l2.5 -0.21875q0.171875 1.5 0.8125 2.46875q0.65625 0.953125 2.015625 1.5625q1.375 0.59375 3.09375 0.59375q1.515625 0 2.671875 -0.453125q1.15625 -0.453125 1.71875 -1.234375q0.578125 -0.796875 0.578125 -1.71875q0 -0.953125 -0.546875 -1.65625q-0.546875 -0.703125 -1.796875 -1.171875q-0.8125 -0.328125 -3.578125 -0.984375q-2.765625 -0.65625 -3.859375 -1.25q-1.4375 -0.75 -2.140625 -1.859375q-0.703125 -1.125 -0.703125 -2.5q0 -1.515625 0.859375 -2.828125q0.859375 -1.328125 2.515625 -2.015625q1.65625 -0.6875 3.671875 -0.6875q2.234375 0 3.9375 0.71875q1.703125 0.71875 2.609375 2.125q0.921875 1.390625 0.984375 3.15625l-2.546875 0.1875q-0.203125 -1.90625 -1.390625 -2.875q-1.171875 -0.96875 -3.484375 -0.96875q-2.40625 0 -3.515625 0.890625q-1.09375 0.875 -1.09375 2.109375q0 1.09375 0.78125 1.78125q0.765625 0.703125 4.0 1.4375q3.234375 0.71875 4.4375 1.265625q1.75 0.8125 2.578125 2.046875q0.84375 1.234375 0.84375 2.859375q0 1.59375 -0.921875 3.015625q-0.921875 1.40625 -2.640625 2.203125q-1.703125 0.78125 -3.859375 0.78125q-2.71875 0 -4.5625 -0.796875q-1.828125 -0.796875 -2.875 -2.390625q-1.046875 -1.59375 -1.09375 -3.59375zm19.488281 6.4375l0 -20.046875l4.0 0l4.734375 14.1875q0.65625 1.984375 0.953125 2.96875q0.34375 -1.09375 1.078125 -3.203125l4.796875 -13.953125l3.5625 0l0 20.046875l-2.546875 0l0 -16.78125l-5.828125 16.78125l-2.390625 0l-5.796875 -17.0625l0 17.0625l-2.5625 0zm23.292969 0l0 -20.046875l7.53125 0q2.296875 0 3.671875 0.609375q1.390625 0.609375 2.171875 1.875q0.796875 1.265625 0.796875 2.640625q0 1.296875 -0.703125 2.4375q-0.6875 1.125 -2.109375 1.8125q1.828125 0.546875 2.796875 1.828125q0.984375 1.28125 0.984375 3.03125q0 1.40625 -0.59375 2.625q-0.59375 1.203125 -1.46875 1.859375q-0.875 0.65625 -2.203125 1.0q-1.3125 0.328125 -3.234375 0.328125l-7.640625 0zm2.65625 -11.625l4.328125 0q1.765625 0 2.53125 -0.234375q1.015625 -0.296875 1.53125 -0.984375q0.515625 -0.703125 0.515625 -1.765625q0 -0.984375 -0.484375 -1.75q-0.484375 -0.765625 -1.375 -1.03125q-0.875 -0.28125 -3.046875 -0.28125l-4.0 0l0 6.046875zm0 9.265625l4.984375 0q1.296875 0 1.8125 -0.109375q0.921875 -0.15625 1.53125 -0.53125q0.609375 -0.390625 1.0 -1.125q0.40625 -0.734375 0.40625 -1.6875q0 -1.125 -0.578125 -1.953125q-0.5625 -0.828125 -1.59375 -1.15625q-1.015625 -0.328125 -2.921875 -0.328125l-4.640625 0l0 6.890625zm16.222656 2.359375l0 -20.046875l2.640625 0l0 8.234375l10.421875 0l0 -8.234375l2.65625 0l0 20.046875l-2.65625 0l0 -9.453125l-10.421875 0l0 9.453125l-2.640625 0zm32.296875 5.890625q-2.03125 -2.5625 -3.4375 -6.0q-1.40625 -3.453125 -1.40625 -7.15625q0 -3.25 1.046875 -6.234375q1.234375 -3.453125 3.796875 -6.890625l1.765625 0q-1.65625 2.84375 -2.1875 4.0625q-0.828125 1.890625 -1.3125 3.9375q-0.59375 2.5625 -0.59375 5.140625q0 6.578125 4.09375 13.140625l-1.765625 0zm4.8554688 -5.890625l0 -20.046875l4.0 0l4.734375 14.1875q0.65625 1.984375 0.953125 2.96875q0.34375 -1.09375 1.078125 -3.203125l4.796875 -13.953125l3.5625 0l0 20.046875l-2.546875 0l0 -16.78125l-5.828125 16.78125l-2.390625 0l-5.796875 -17.0625l0 17.0625l-2.5625 0zm32.57422 -1.796875q-1.375 1.171875 -2.640625 1.65625q-1.265625 0.46875 -2.71875 0.46875q-2.390625 0 -3.671875 -1.171875q-1.28125 -1.171875 -1.28125 -2.984375q0 -1.0625 0.484375 -1.9375q0.484375 -0.890625 1.265625 -1.421875q0.796875 -0.53125 1.78125 -0.8125q0.71875 -0.1875 2.1875 -0.375q2.96875 -0.34375 4.375 -0.84375q0.015625 -0.5 0.015625 -0.640625q0 -1.5 -0.6875 -2.125q-0.953125 -0.828125 -2.8125 -0.828125q-1.734375 0 -2.5625 0.609375q-0.828125 0.609375 -1.21875 2.15625l-2.40625 -0.328125q0.328125 -1.546875 1.078125 -2.5q0.75 -0.953125 2.171875 -1.453125q1.421875 -0.515625 3.296875 -0.515625q1.859375 0 3.015625 0.4375q1.171875 0.4375 1.71875 1.109375q0.546875 0.65625 0.765625 1.65625q0.125 0.640625 0.125 2.28125l0 3.28125q0 3.421875 0.15625 4.34375q0.15625 0.90625 0.625 1.734375l-2.578125 0q-0.375 -0.765625 -0.484375 -1.796875zm-0.21875 -5.484375q-1.328125 0.546875 -4.015625 0.921875q-1.515625 0.21875 -2.140625 0.5q-0.625 0.265625 -0.96875 0.796875q-0.34375 0.515625 -0.34375 1.171875q0 0.984375 0.734375 1.640625q0.75 0.65625 2.1875 0.65625q1.421875 0 2.53125 -0.625q1.109375 -0.625 1.625 -1.703125q0.390625 -0.84375 0.390625 -2.46875l0 -0.890625zm5.3222656 2.953125l2.4375 -0.390625q0.203125 1.46875 1.140625 2.25q0.9375 0.765625 2.625 0.765625q1.6875 0 2.5 -0.6875q0.828125 -0.6875 0.828125 -1.609375q0 -0.84375 -0.71875 -1.3125q-0.515625 -0.328125 -2.515625 -0.84375q-2.71875 -0.6875 -3.765625 -1.171875q-1.03125 -0.5 -1.578125 -1.375q-0.546875 -0.890625 -0.546875 -1.96875q0 -0.96875 0.4375 -1.796875q0.453125 -0.828125 1.21875 -1.375q0.578125 -0.421875 1.5625 -0.703125q1.0 -0.296875 2.140625 -0.296875q1.703125 0 2.984375 0.5q1.296875 0.484375 1.90625 1.328125q0.625 0.828125 0.859375 2.234375l-2.40625 0.328125q-0.171875 -1.109375 -0.953125 -1.734375q-0.78125 -0.640625 -2.21875 -0.640625q-1.703125 0 -2.421875 0.5625q-0.71875 0.5625 -0.71875 1.3125q0 0.484375 0.296875 0.859375q0.296875 0.40625 0.9375 0.65625q0.375 0.140625 2.171875 0.625q2.625 0.703125 3.65625 1.15625q1.03125 0.4375 1.609375 1.28125q0.59375 0.84375 0.59375 2.109375q0 1.234375 -0.71875 2.328125q-0.71875 1.078125 -2.078125 1.671875q-1.34375 0.59375 -3.0625 0.59375q-2.828125 0 -4.3125 -1.171875q-1.484375 -1.1875 -1.890625 -3.484375zm14.0 0l2.4375 -0.390625q0.203125 1.46875 1.140625 2.25q0.9375 0.765625 2.625 0.765625q1.6875 0 2.5 -0.6875q0.828125 -0.6875 0.828125 -1.609375q0 -0.84375 -0.71875 -1.3125q-0.515625 -0.328125 -2.515625 -0.84375q-2.71875 -0.6875 -3.765625 -1.171875q-1.03125 -0.5 -1.578125 -1.375q-0.546875 -0.890625 -0.546875 -1.96875q0 -0.96875 0.4375 -1.796875q0.453125 -0.828125 1.21875 -1.375q0.578125 -0.421875 1.5625 -0.703125q1.0 -0.296875 2.140625 -0.296875q1.703125 0 2.984375 0.5q1.296875 0.484375 1.90625 1.328125q0.625 0.828125 0.859375 2.234375l-2.40625 0.328125q-0.171875 -1.109375 -0.953125 -1.734375q-0.78125 -0.640625 -2.21875 -0.640625q-1.703125 0 -2.421875 0.5625q-0.71875 0.5625 -0.71875 1.3125q0 0.484375 0.296875 0.859375q0.296875 0.40625 0.9375 0.65625q0.375 0.140625 2.171875 0.625q2.625 0.703125 3.65625 1.15625q1.03125 0.4375 1.609375 1.28125q0.59375 0.84375 0.59375 2.109375q0 1.234375 -0.71875 2.328125q-0.71875 1.078125 -2.078125 1.671875q-1.34375 0.59375 -3.0625 0.59375q-2.828125 0 -4.3125 -1.171875q-1.484375 -1.1875 -1.890625 -3.484375zm22.998047 4.328125l0 -20.046875l4.0 0l4.734375 14.1875q0.65625 1.984375 0.953125 2.96875q0.34375 -1.09375 1.078125 -3.203125l4.796875 -13.953125l3.5625 0l0 20.046875l-2.546875 0l0 -16.78125l-5.828125 16.78125l-2.390625 0l-5.796875 -17.0625l0 17.0625l-2.5625 0zm24.699219 5.890625l-1.75 0q4.078125 -6.5625 4.078125 -13.140625q0 -2.5625 -0.578125 -5.09375q-0.46875 -2.046875 -1.3125 -3.9375q-0.53125 -1.234375 -2.1875 -4.109375l1.75 0q2.578125 3.4375 3.8125 6.890625q1.046875 2.984375 1.046875 6.234375q0 3.703125 -1.421875 7.15625q-1.40625 3.4375 -3.4375 6.0z" fill-rule="nonzero"/></g></svg>