<?xml version="1.0" encoding="utf-8" standalone="no"?>
<!DOCTYPE svg PUBLIC "-//W3C//DTD SVG 1.1//EN"
  "http://www.w3.org/Graphics/SVG/1.1/DTD/svg11.dtd">
<svg xmlns:xlink="http://www.w3.org/1999/xlink" width="1152pt" height="648pt" viewBox="0 0 1152 648" xmlns="http://www.w3.org/2000/svg" version="1.1">
 <metadata>
  <rdf:RDF xmlns:dc="http://purl.org/dc/elements/1.1/" xmlns:cc="http://creativecommons.org/ns#" xmlns:rdf="http://www.w3.org/1999/02/22-rdf-syntax-ns#">
   <cc:Work>
    <dc:type rdf:resource="http://purl.org/dc/dcmitype/StillImage"/>
    <dc:date>2023-09-23T17:10:10.722747</dc:date>
    <dc:format>image/svg+xml</dc:format>
    <dc:creator>
     <cc:Agent>
      <dc:title>Matplotlib v3.7.0, https://matplotlib.org/</dc:title>
     </cc:Agent>
    </dc:creator>
   </cc:Work>
  </rdf:RDF>
 </metadata>
 <defs>
  <style type="text/css">*{stroke-linejoin: round; stroke-linecap: butt}</style>
 </defs>
 <g id="figure_1">
  <g id="patch_1">
   <path d="M 0 648 
L 1152 648 
L 1152 0 
L 0 0 
z
" style="fill: #ffffff"/>
  </g>
  <g id="axes_1">
   <g id="patch_2">
    <path d="M 144 576.72 
L 1036.8 576.72 
L 1036.8 77.76 
L 144 77.76 
z
" style="fill: #ffffff"/>
   </g>
   <g id="PathCollection_1">
    <path d="M 1020.857143 638.30814 
L 1024.047759 634.932 
L 1027.234286 634.45017 
L 1033.611429 627.594511 
L 1037.184858 618.3 
L 1039.821064 601.668 
L 1039.988571 594.433168 
L 1039.988571 585.036 
L 1039.988571 570.887697 
L 1039.955088 568.404 
L 1039.988571 568.203208 
L 1039.988571 551.772 
L 1039.988571 535.14 
L 1039.988571 518.508 
L 1039.988571 501.876 
L 1039.988571 485.244 
L 1039.988571 468.612 
L 1039.988571 451.98 
L 1039.988571 435.348 
L 1039.988571 418.716 
L 1039.988571 402.084 
L 1039.988571 385.452 
L 1039.988571 368.82 
L 1039.988571 352.188 
L 1039.988571 335.556 
L 1039.988571 318.924 
L 1039.988571 302.292 
L 1039.988571 285.66 
L 1039.988571 269.028 
L 1039.988571 252.396 
L 1039.988571 235.764 
L 1039.988571 219.132 
L 1039.988571 202.5 
L 1039.988571 185.868 
L 1039.988571 169.236 
L 1039.988571 152.604 
L 1039.988571 135.972 
L 1039.988571 119.34 
L 1039.988571 102.708 
L 1039.988571 86.076 
L 1039.988571 69.444 
L 1039.988571 52.812 
L 1039.988571 36.18 
L 1039.988571 19.548 
L 1039.988571 2.916 
L 1033.611429 2.916 
L 1027.234286 2.916 
L 1020.857143 2.916 
L 1014.48 2.916 
L 1008.102857 2.916 
L 1002.540688 2.916 
L 1002.36861 19.548 
L 1002.04001 36.18 
L 1001.725714 48.759369 
L 1000.30141 52.812 
L 996.238556 69.444 
L 995.514798 86.076 
L 995.348571 88.466942 
L 990.141526 102.708 
L 988.971429 112.056005 
L 986.254273 119.34 
L 982.594286 128.671243 
L 979.71331 135.972 
L 976.217143 138.783121 
L 970.656427 152.604 
L 969.84 152.931338 
L 963.462857 155.877127 
L 957.90252 169.236 
L 957.085714 169.422164 
L 950.708571 170.52278 
L 944.331429 177.724494 
L 940.9709 185.868 
L 937.954286 186.26562 
L 931.577143 187.331015 
L 925.2 193.39468 
L 921.31494 202.5 
L 918.822857 202.723088 
L 912.445714 203.066241 
L 906.068571 204.108433 
L 899.691429 210.194352 
L 895.823472 219.132 
L 893.314286 219.379686 
L 886.937143 219.651731 
L 880.56 220.123206 
L 874.182857 221.988027 
L 867.805714 232.88 
L 866.540788 235.764 
L 861.428571 236.256885 
L 855.051429 236.71801 
L 848.674286 237.400183 
L 842.297143 239.288126 
L 835.92 246.527884 
L 833.142322 252.396 
L 829.542857 253.156977 
L 823.165714 255.345223 
L 816.788571 257.590075 
L 810.411429 261.69641 
L 804.82877 269.028 
L 804.034286 269.093427 
L 797.657143 269.654219 
L 791.28 271.191484 
L 784.902857 278.598325 
L 781.844099 285.66 
L 778.525714 290.354624 
L 774.02661 302.292 
L 772.216558 318.924 
L 772.148571 322.78125 
L 770.169364 335.556 
L 772.148571 348.33075 
L 772.216558 352.188 
L 774.02661 368.82 
L 778.525714 380.757376 
L 781.844099 385.452 
L 784.902857 392.513675 
L 791.28 399.923258 
L 797.657143 401.480015 
L 803.421251 402.084 
L 804.034286 402.981391 
L 810.411429 412.30302 
L 816.788571 415.197537 
L 823.165714 416.084266 
L 829.542857 416.559879 
L 835.92 416.453275 
L 842.297143 415.347989 
L 848.674286 413.6448 
L 855.051429 412.637759 
L 861.428571 409.966635 
L 867.805714 407.175605 
L 874.182857 410.127853 
L 880.56 414.764447 
L 886.937143 417.174434 
L 893.314286 417.931852 
L 899.691429 418.205643 
L 906.068571 418.613327 
L 908.563919 418.716 
L 912.445714 422.305682 
L 918.822857 420.339444 
L 924.074388 418.716 
L 925.2 418.703288 
L 925.299516 418.716 
L 931.577143 428.786392 
L 937.954286 433.593812 
L 942.926593 435.348 
L 944.331429 438.442746 
L 950.708571 451.508322 
L 950.821692 451.98 
L 952.997563 468.612 
L 957.085714 481.077945 
L 957.520101 485.244 
L 962.630232 501.876 
L 963.462857 504.317183 
L 964.649157 518.508 
L 967.079839 535.14 
L 969.84 544.06538 
L 970.595832 551.772 
L 976.217143 566.986739 
L 976.844353 568.404 
L 982.594286 582.416159 
L 987.25727 585.036 
L 988.971429 588.672497 
L 995.348571 596.943266 
L 1001.725714 601.521694 
L 1001.763555 601.668 
L 1004.496451 618.3 
L 1008.102857 627.680644 
L 1014.48 634.452017 
L 1017.666526 634.932 
z
M 974.916064 335.556 
L 969.84 330.969342 
L 963.462857 322.670791 
L 960.076418 318.924 
L 957.085714 317.345651 
L 950.708571 316.973776 
L 944.331429 318.375345 
L 937.954286 318.667344 
L 934.458478 318.924 
L 931.577143 319.247618 
L 925.2 320.175912 
L 918.822857 320.494885 
L 912.445714 322.87473 
L 906.068571 325.206943 
L 899.691429 325.250139 
L 893.314286 325.251103 
L 886.937143 327.624565 
L 880.56 329.757797 
L 874.182857 327.364276 
L 868.166957 318.924 
L 874.182857 308.11064 
L 877.079922 302.292 
L 880.56 298.428812 
L 886.937143 293.058345 
L 893.314286 289.175564 
L 899.388649 285.66 
L 899.691429 285.492277 
L 906.068571 281.224568 
L 912.445714 275.110262 
L 918.385965 269.028 
L 918.822857 268.530807 
L 925.2 263.81576 
L 931.577143 260.062221 
L 937.954286 255.180108 
L 940.858592 252.396 
L 944.331429 248.263327 
L 950.708571 241.892396 
L 956.656751 235.764 
L 957.085714 235.091053 
L 963.462857 226.165938 
L 969.84 220.369132 
L 971.130001 219.132 
L 976.217143 211.733209 
L 982.594286 206.358948 
L 987.07738 202.5 
L 988.971429 199.590144 
L 995.348571 189.457979 
L 996.992778 185.868 
L 1001.725714 174.345756 
L 1003.521088 169.236 
L 1008.102857 156.053355 
L 1009.321061 152.604 
L 1014.48 136.678995 
L 1014.781308 135.972 
L 1020.129607 119.34 
L 1020.857143 116.316586 
L 1025.014914 102.708 
L 1027.234286 92.709254 
L 1032.912383 102.708 
L 1033.611429 108.920549 
L 1034.005944 119.34 
L 1034.468018 135.972 
L 1034.096562 152.604 
L 1033.611429 155.790819 
L 1031.793361 169.236 
L 1028.173929 185.868 
L 1027.234286 190.622492 
L 1024.332272 202.5 
L 1020.857143 214.235829 
L 1018.928741 219.132 
L 1016.385921 235.764 
L 1015.972838 252.396 
L 1014.48 257.771148 
L 1010.762262 269.028 
L 1008.102857 274.335732 
L 1002.553043 285.66 
L 1001.725714 288.009264 
L 995.348571 300.653878 
L 994.445298 302.292 
L 988.971429 318.904856 
L 988.962484 318.924 
L 982.594286 333.552228 
L 978.946347 335.556 
L 976.217143 336.66562 
z
" clip-path="url(#p25c9390d82)" style="fill: #fee9df"/>
   </g>
   <g id="PathCollection_2">
    <path d="M 976.217143 336.66562 
L 978.946347 335.556 
L 982.594286 333.552228 
L 988.962484 318.924 
L 988.971429 318.904856 
L 994.445298 302.292 
L 995.348571 300.653878 
L 1001.725714 288.009264 
L 1002.553043 285.66 
L 1008.102857 274.335732 
L 1010.762262 269.028 
L 1014.48 257.771148 
L 1015.972838 252.396 
L 1016.385921 235.764 
L 1018.928741 219.132 
L 1020.857143 214.235829 
L 1024.332272 202.5 
L 1027.234286 190.622492 
L 1028.173929 185.868 
L 1031.793361 169.236 
L 1033.611429 155.790819 
L 1034.096562 152.604 
L 1034.468018 135.972 
L 1034.005944 119.34 
L 1033.611429 108.920549 
L 1032.912383 102.708 
L 1027.234286 92.709254 
L 1025.014914 102.708 
L 1020.857143 116.316586 
L 1020.129607 119.34 
L 1014.781308 135.972 
L 1014.48 136.678995 
L 1009.321061 152.604 
L 1008.102857 156.053355 
L 1003.521088 169.236 
L 1001.725714 174.345756 
L 996.992778 185.868 
L 995.348571 189.457979 
L 988.971429 199.590144 
L 987.07738 202.5 
L 982.594286 206.358948 
L 976.217143 211.733209 
L 971.130001 219.132 
L 969.84 220.369132 
L 963.462857 226.165938 
L 957.085714 235.091053 
L 956.656751 235.764 
L 950.708571 241.892396 
L 944.331429 248.263327 
L 940.858592 252.396 
L 937.954286 255.180108 
L 931.577143 260.062221 
L 925.2 263.81576 
L 918.822857 268.530807 
L 918.385965 269.028 
L 912.445714 275.110262 
L 906.068571 281.224568 
L 899.691429 285.492277 
L 899.388649 285.66 
L 893.314286 289.175564 
L 886.937143 293.058345 
L 880.56 298.428812 
L 877.079922 302.292 
L 874.182857 308.11064 
L 868.166957 318.924 
L 874.182857 327.364276 
L 880.56 329.757797 
L 886.937143 327.624565 
L 893.314286 325.251103 
L 899.691429 325.250139 
L 906.068571 325.206943 
L 912.445714 322.87473 
L 918.822857 320.494885 
L 925.2 320.175912 
L 931.577143 319.247618 
L 934.458478 318.924 
L 937.954286 318.667344 
L 944.331429 318.375345 
L 950.708571 316.973776 
L 957.085714 317.345651 
L 960.076418 318.924 
L 963.462857 322.670791 
L 969.84 330.969342 
L 974.916064 335.556 
z
M 918.812558 285.66 
L 918.822857 285.648135 
L 925.2 280.16455 
L 931.577143 276.203086 
L 937.954286 269.197547 
L 938.026906 269.028 
L 944.331429 262.729314 
L 950.708571 255.164197 
L 952.241886 252.396 
L 957.085714 245.999295 
L 963.462857 237.801633 
L 964.952342 235.764 
L 969.84 229.476489 
L 976.217143 223.06325 
L 981.14313 219.132 
L 982.594286 217.595075 
L 988.971429 213.39556 
L 995.348571 208.145108 
L 998.528555 202.5 
L 1001.725714 196.191054 
L 1005.200695 185.868 
L 1008.102857 177.388169 
L 1010.938133 169.236 
L 1014.48 158.95662 
L 1018.311191 152.604 
L 1020.857143 147.026805 
L 1023.186554 152.604 
L 1022.300918 169.236 
L 1020.857143 175.340976 
L 1018.031434 185.868 
L 1014.48 195.419558 
L 1010.941242 202.5 
L 1008.102857 209.041673 
L 1004.059533 219.132 
L 1001.725714 228.91502 
L 1000.282055 235.764 
L 996.181218 252.396 
L 995.348571 254.546873 
L 989.276944 269.028 
L 988.971429 269.612175 
L 982.594286 281.071355 
L 976.217143 285.03885 
L 974.84446 285.66 
L 969.84 289.470436 
L 963.462857 292.656726 
L 957.085714 293.68218 
L 950.708571 293.878003 
L 944.331429 295.016251 
L 937.954286 297.724714 
L 931.577143 300.442132 
L 925.2 299.901711 
L 918.822857 285.746629 
z
" clip-path="url(#p25c9390d82)" style="fill: #fdc6b0"/>
   </g>
   <g id="PathCollection_3">
    <path d="M 918.822857 285.746629 
L 925.2 299.901711 
L 931.577143 300.442132 
L 937.954286 297.724714 
L 944.331429 295.016251 
L 950.708571 293.878003 
L 957.085714 293.68218 
L 963.462857 292.656726 
L 969.84 289.470436 
L 974.84446 285.66 
L 976.217143 285.03885 
L 982.594286 281.071355 
L 988.971429 269.612175 
L 989.276944 269.028 
L 995.348571 254.546873 
L 996.181218 252.396 
L 1000.282055 235.764 
L 1001.725714 228.91502 
L 1004.059533 219.132 
L 1008.102857 209.041673 
L 1010.941242 202.5 
L 1014.48 195.419558 
L 1018.031434 185.868 
L 1020.857143 175.340976 
L 1022.300918 169.236 
L 1023.186554 152.604 
L 1020.857143 147.026805 
L 1018.311191 152.604 
L 1014.48 158.95662 
L 1010.938133 169.236 
L 1008.102857 177.388169 
L 1005.200695 185.868 
L 1001.725714 196.191054 
L 998.528555 202.5 
L 995.348571 208.145108 
L 988.971429 213.39556 
L 982.594286 217.595075 
L 981.14313 219.132 
L 976.217143 223.06325 
L 969.84 229.476489 
L 964.952342 235.764 
L 963.462857 237.801633 
L 957.085714 245.999295 
L 952.241886 252.396 
L 950.708571 255.164197 
L 944.331429 262.729314 
L 938.026906 269.028 
L 937.954286 269.197547 
L 931.577143 276.203086 
L 925.2 280.16455 
L 918.822857 285.648135 
L 918.812558 285.66 
z
M 951.367589 269.028 
L 957.085714 260.969792 
L 959.883897 252.396 
L 963.462857 247.486741 
L 969.84 239.238991 
L 972.278563 235.764 
L 976.217143 231.52997 
L 982.594286 228.305131 
L 988.971429 231.839438 
L 990.48264 235.764 
L 988.971429 242.304414 
L 987.118655 252.396 
L 982.594286 262.30598 
L 977.596106 269.028 
L 976.217143 270.740255 
L 969.84 275.131669 
L 963.462857 276.960008 
L 957.085714 276.202846 
z
" clip-path="url(#p25c9390d82)" style="fill: #fc9879"/>
   </g>
   <g id="PathCollection_4">
    <path d="M 957.085714 276.202846 
L 963.462857 276.960008 
L 969.84 275.131669 
L 976.217143 270.740255 
L 977.596106 269.028 
L 982.594286 262.30598 
L 987.118655 252.396 
L 988.971429 242.304414 
L 990.48264 235.764 
L 988.971429 231.839438 
L 982.594286 228.305131 
L 976.217143 231.52997 
L 972.278563 235.764 
L 969.84 239.238991 
L 963.462857 247.486741 
L 959.883897 252.396 
L 957.085714 260.969792 
L 951.367589 269.028 
z
M 968.188762 252.396 
L 969.84 250.46229 
L 976.217143 247.143272 
L 978.707741 252.396 
L 976.217143 255.850585 
L 969.84 256.583185 
z
" clip-path="url(#p25c9390d82)" style="fill: #fb694a"/>
   </g>
   <g id="PathCollection_5">
    <path d="M 969.84 256.583185 
L 976.217143 255.850585 
L 978.707741 252.396 
L 976.217143 247.143272 
L 969.84 250.46229 
L 968.188762 252.396 
z
" clip-path="url(#p25c9390d82)" style="fill: #ea362a"/>
   </g>
   <g id="PathCollection_6"/>
   <g id="PathCollection_7"/>
   <g id="matplotlib.axis_1">
    <g id="xtick_1">
     <g id="line2d_1">
      <defs>
       <path id="md9b93a797e" d="M 0 0 
L 0 -6 
" style="stroke: #000000; stroke-width: 0.8"/>
      </defs>
      <g>
       <use xlink:href="#md9b93a797e" x="144" y="576.72" style="stroke: #000000; stroke-width: 0.8"/>
      </g>
     </g>
     <g id="text_1">
      <!-- 0.3 -->
      <g transform="translate(124.863438 596.936563) scale(0.22 -0.22)">
       <defs>
        <path id="DejaVuSerif-Bold-30" d="M 2228 275 
Q 2603 275 2742 615 
Q 2881 956 2881 2328 
Q 2881 3691 2742 4037 
Q 2603 4384 2228 4384 
Q 1853 4384 1714 4043 
Q 1575 3703 1575 2328 
Q 1575 956 1714 615 
Q 1853 275 2228 275 
z
M 2228 -91 
Q 1294 -91 797 532 
Q 300 1156 300 2328 
Q 300 3500 797 4125 
Q 1294 4750 2228 4750 
Q 3159 4750 3656 4125 
Q 4153 3500 4153 2328 
Q 4153 1156 3656 532 
Q 3159 -91 2228 -91 
z
" transform="scale(0.015625)"/>
        <path id="DejaVuSerif-Bold-2e" d="M 519 506 
Q 519 750 694 925 
Q 869 1100 1113 1100 
Q 1359 1100 1534 925 
Q 1709 750 1709 506 
Q 1709 259 1534 84 
Q 1359 -91 1113 -91 
Q 869 -91 694 84 
Q 519 259 519 506 
z
" transform="scale(0.015625)"/>
        <path id="DejaVuSerif-Bold-33" d="M 550 4531 
Q 963 4641 1350 4695 
Q 1738 4750 2106 4750 
Q 2950 4750 3401 4448 
Q 3853 4147 3853 3584 
Q 3853 3163 3593 2900 
Q 3334 2638 2834 2547 
Q 3444 2450 3744 2131 
Q 4044 1813 4044 1259 
Q 4044 606 3526 257 
Q 3009 -91 2028 -91 
Q 1659 -91 1267 -28 
Q 875 34 447 159 
L 447 1184 
L 825 1184 
Q 859 741 1103 508 
Q 1347 275 1778 275 
Q 2253 275 2512 539 
Q 2772 803 2772 1288 
Q 2772 1794 2501 2069 
Q 2231 2344 1734 2344 
L 1528 2344 
L 1528 2719 
L 1691 2719 
Q 2150 2719 2381 2931 
Q 2613 3144 2613 3566 
Q 2613 3963 2395 4173 
Q 2178 4384 1772 4384 
Q 1403 4384 1187 4182 
Q 972 3981 928 3597 
L 550 3597 
L 550 4531 
z
" transform="scale(0.015625)"/>
       </defs>
       <use xlink:href="#DejaVuSerif-Bold-30"/>
       <use xlink:href="#DejaVuSerif-Bold-2e" x="69.580078"/>
       <use xlink:href="#DejaVuSerif-Bold-33" x="104.394531"/>
      </g>
     </g>
    </g>
    <g id="xtick_2">
     <g id="line2d_2">
      <g>
       <use xlink:href="#md9b93a797e" x="271.542857" y="576.72" style="stroke: #000000; stroke-width: 0.8"/>
      </g>
     </g>
     <g id="text_2">
      <!-- 0.4 -->
      <g transform="translate(252.406295 596.936563) scale(0.22 -0.22)">
       <defs>
        <path id="DejaVuSerif-Bold-34" d="M 4084 0 
L 1516 0 
L 1516 378 
L 2209 378 
L 2209 1228 
L 263 1228 
L 263 1588 
L 2216 4750 
L 3391 4750 
L 3391 1631 
L 4191 1631 
L 4191 1228 
L 3391 1228 
L 3391 378 
L 4084 378 
L 4084 0 
z
M 2209 1631 
L 2209 3897 
L 819 1631 
L 2209 1631 
z
" transform="scale(0.015625)"/>
       </defs>
       <use xlink:href="#DejaVuSerif-Bold-30"/>
       <use xlink:href="#DejaVuSerif-Bold-2e" x="69.580078"/>
       <use xlink:href="#DejaVuSerif-Bold-34" x="104.394531"/>
      </g>
     </g>
    </g>
    <g id="xtick_3">
     <g id="line2d_3">
      <g>
       <use xlink:href="#md9b93a797e" x="399.085714" y="576.72" style="stroke: #000000; stroke-width: 0.8"/>
      </g>
     </g>
     <g id="text_3">
      <!-- 0.5 -->
      <g transform="translate(379.949152 596.936563) scale(0.22 -0.22)">
       <defs>
        <path id="DejaVuSerif-Bold-35" d="M 3609 4666 
L 3609 3847 
L 1113 3847 
L 1113 2822 
Q 1319 2981 1572 3062 
Q 1825 3144 2106 3144 
Q 2969 3144 3469 2708 
Q 3969 2272 3969 1522 
Q 3969 759 3469 334 
Q 2969 -91 2069 -91 
Q 1688 -91 1311 -28 
Q 934 34 525 166 
L 525 1184 
L 900 1184 
Q 919 725 1139 500 
Q 1359 275 1791 275 
Q 2250 275 2472 583 
Q 2694 891 2694 1522 
Q 2694 2144 2476 2451 
Q 2259 2759 1819 2759 
Q 1581 2759 1395 2661 
Q 1209 2563 1050 2356 
L 738 2356 
L 738 4666 
L 3609 4666 
z
" transform="scale(0.015625)"/>
       </defs>
       <use xlink:href="#DejaVuSerif-Bold-30"/>
       <use xlink:href="#DejaVuSerif-Bold-2e" x="69.580078"/>
       <use xlink:href="#DejaVuSerif-Bold-35" x="104.394531"/>
      </g>
     </g>
    </g>
    <g id="xtick_4">
     <g id="line2d_4">
      <g>
       <use xlink:href="#md9b93a797e" x="526.628571" y="576.72" style="stroke: #000000; stroke-width: 0.8"/>
      </g>
     </g>
     <g id="text_4">
      <!-- 0.6 -->
      <g transform="translate(507.492009 596.936563) scale(0.22 -0.22)">
       <defs>
        <path id="DejaVuSerif-Bold-36" d="M 1575 2766 
Q 1778 2928 2029 3009 
Q 2281 3091 2578 3091 
Q 3294 3091 3701 2672 
Q 4109 2253 4109 1522 
Q 4109 750 3650 329 
Q 3191 -91 2344 -91 
Q 1388 -91 895 486 
Q 403 1063 403 2181 
Q 403 3453 950 4101 
Q 1497 4750 2572 4750 
Q 2853 4750 3175 4703 
Q 3497 4656 3866 4563 
L 3866 3738 
L 3488 3738 
Q 3409 4056 3192 4220 
Q 2975 4384 2631 4384 
Q 2075 4384 1826 4003 
Q 1578 3622 1575 2766 
z
M 2272 275 
Q 2594 275 2731 548 
Q 2869 822 2869 1497 
Q 2869 2172 2731 2445 
Q 2594 2719 2272 2719 
Q 1950 2719 1814 2445 
Q 1678 2172 1678 1497 
Q 1678 822 1814 548 
Q 1950 275 2272 275 
z
" transform="scale(0.015625)"/>
       </defs>
       <use xlink:href="#DejaVuSerif-Bold-30"/>
       <use xlink:href="#DejaVuSerif-Bold-2e" x="69.580078"/>
       <use xlink:href="#DejaVuSerif-Bold-36" x="104.394531"/>
      </g>
     </g>
    </g>
    <g id="xtick_5">
     <g id="line2d_5">
      <g>
       <use xlink:href="#md9b93a797e" x="654.171429" y="576.72" style="stroke: #000000; stroke-width: 0.8"/>
      </g>
     </g>
     <g id="text_5">
      <!-- 0.7 -->
      <g transform="translate(635.034866 596.936563) scale(0.22 -0.22)">
       <defs>
        <path id="DejaVuSerif-Bold-37" d="M 3922 3872 
L 1997 0 
L 1363 0 
L 3238 3781 
L 934 3781 
L 934 3150 
L 506 3150 
L 506 4666 
L 3922 4666 
L 3922 3872 
z
" transform="scale(0.015625)"/>
       </defs>
       <use xlink:href="#DejaVuSerif-Bold-30"/>
       <use xlink:href="#DejaVuSerif-Bold-2e" x="69.580078"/>
       <use xlink:href="#DejaVuSerif-Bold-37" x="104.394531"/>
      </g>
     </g>
    </g>
    <g id="xtick_6">
     <g id="line2d_6">
      <g>
       <use xlink:href="#md9b93a797e" x="781.714286" y="576.72" style="stroke: #000000; stroke-width: 0.8"/>
      </g>
     </g>
     <g id="text_6">
      <!-- 0.8 -->
      <g transform="translate(762.577723 596.936563) scale(0.22 -0.22)">
       <defs>
        <path id="DejaVuSerif-Bold-38" d="M 2975 2484 
Q 3531 2394 3820 2075 
Q 4109 1756 4109 1241 
Q 4109 597 3623 253 
Q 3138 -91 2222 -91 
Q 1306 -91 818 253 
Q 331 597 331 1241 
Q 331 1756 622 2075 
Q 913 2394 1466 2484 
Q 975 2597 731 2861 
Q 488 3125 488 3531 
Q 488 4125 931 4437 
Q 1375 4750 2222 4750 
Q 3066 4750 3511 4437 
Q 3956 4125 3956 3531 
Q 3956 3125 3711 2861 
Q 3466 2597 2975 2484 
z
M 2747 3519 
Q 2747 4013 2628 4198 
Q 2509 4384 2222 4384 
Q 1931 4384 1814 4198 
Q 1697 4013 1697 3519 
Q 1697 3028 1814 2845 
Q 1931 2663 2222 2663 
Q 2513 2663 2630 2845 
Q 2747 3028 2747 3519 
z
M 2869 1294 
Q 2869 1866 2723 2081 
Q 2578 2297 2222 2297 
Q 1863 2297 1719 2081 
Q 1575 1866 1575 1294 
Q 1575 716 1720 495 
Q 1866 275 2222 275 
Q 2575 275 2722 495 
Q 2869 716 2869 1294 
z
" transform="scale(0.015625)"/>
       </defs>
       <use xlink:href="#DejaVuSerif-Bold-30"/>
       <use xlink:href="#DejaVuSerif-Bold-2e" x="69.580078"/>
       <use xlink:href="#DejaVuSerif-Bold-38" x="104.394531"/>
      </g>
     </g>
    </g>
    <g id="xtick_7">
     <g id="line2d_7">
      <g>
       <use xlink:href="#md9b93a797e" x="909.257143" y="576.72" style="stroke: #000000; stroke-width: 0.8"/>
      </g>
     </g>
     <g id="text_7">
      <!-- 0.9 -->
      <g transform="translate(890.12058 596.936563) scale(0.22 -0.22)">
       <defs>
        <path id="DejaVuSerif-Bold-39" d="M 2181 4384 
Q 1859 4384 1723 4111 
Q 1588 3838 1588 3163 
Q 1588 2488 1723 2214 
Q 1859 1941 2181 1941 
Q 2503 1941 2640 2214 
Q 2778 2488 2778 3163 
Q 2778 3838 2640 4111 
Q 2503 4384 2181 4384 
z
M 2878 1900 
Q 2672 1734 2420 1651 
Q 2169 1569 1875 1569 
Q 1163 1569 755 1986 
Q 347 2403 347 3138 
Q 347 3913 803 4331 
Q 1259 4750 2106 4750 
Q 3063 4750 3556 4172 
Q 4050 3594 4050 2478 
Q 4050 1206 3503 557 
Q 2956 -91 1881 -91 
Q 1600 -91 1278 -44 
Q 956 3 588 97 
L 588 922 
L 966 922 
Q 1044 603 1261 439 
Q 1478 275 1825 275 
Q 2375 275 2625 658 
Q 2875 1041 2878 1900 
z
" transform="scale(0.015625)"/>
       </defs>
       <use xlink:href="#DejaVuSerif-Bold-30"/>
       <use xlink:href="#DejaVuSerif-Bold-2e" x="69.580078"/>
       <use xlink:href="#DejaVuSerif-Bold-39" x="104.394531"/>
      </g>
     </g>
    </g>
    <g id="xtick_8">
     <g id="line2d_8">
      <g>
       <use xlink:href="#md9b93a797e" x="1036.8" y="576.72" style="stroke: #000000; stroke-width: 0.8"/>
      </g>
     </g>
     <g id="text_8">
      <!-- 1.0 -->
      <g transform="translate(1017.663437 596.936563) scale(0.22 -0.22)">
       <defs>
        <path id="DejaVuSerif-Bold-31" d="M 878 0 
L 878 378 
L 1753 378 
L 1753 4153 
L 781 3578 
L 781 4044 
L 1953 4750 
L 2938 4750 
L 2938 378 
L 3816 378 
L 3816 0 
L 878 0 
z
" transform="scale(0.015625)"/>
       </defs>
       <use xlink:href="#DejaVuSerif-Bold-31"/>
       <use xlink:href="#DejaVuSerif-Bold-2e" x="69.580078"/>
       <use xlink:href="#DejaVuSerif-Bold-30" x="104.394531"/>
      </g>
     </g>
    </g>
    <g id="text_9">
     <!-- e -->
     <g transform="translate(583.40125 622.228438) scale(0.22 -0.22)">
      <defs>
       <path id="DejaVuSerif-Bold-65" d="M 2566 1875 
Q 2566 2531 2444 2795 
Q 2322 3059 2028 3059 
Q 1744 3059 1620 2800 
Q 1497 2541 1497 1931 
L 1497 1875 
L 2566 1875 
z
M 3781 1503 
L 1497 1503 
L 1497 1478 
Q 1497 834 1690 548 
Q 1884 263 2316 263 
Q 2675 263 2897 453 
Q 3119 644 3181 1006 
L 3700 1006 
Q 3566 441 3166 175 
Q 2766 -91 2047 -91 
Q 1184 -91 723 364 
Q 263 819 263 1663 
Q 263 2488 734 2950 
Q 1206 3413 2047 3413 
Q 2872 3413 3312 2927 
Q 3753 2441 3781 1503 
z
" transform="scale(0.015625)"/>
      </defs>
      <use xlink:href="#DejaVuSerif-Bold-65"/>
     </g>
    </g>
   </g>
   <g id="matplotlib.axis_2">
    <g id="ytick_1">
     <g id="line2d_9">
      <defs>
       <path id="mc2b1b6d9d4" d="M 0 0 
L 6 0 
" style="stroke: #000000; stroke-width: 0.8"/>
      </defs>
      <g>
       <use xlink:href="#mc2b1b6d9d4" x="144" y="576.72" style="stroke: #000000; stroke-width: 0.8"/>
      </g>
     </g>
     <g id="text_10">
      <!-- −3.0 -->
      <g transform="translate(83.791562 585.078281) scale(0.22 -0.22)">
       <defs>
        <path id="DejaVuSerif-Bold-2212" d="M 678 2363 
L 4684 2363 
L 4684 1644 
L 678 1644 
L 678 2363 
z
" transform="scale(0.015625)"/>
       </defs>
       <use xlink:href="#DejaVuSerif-Bold-2212"/>
       <use xlink:href="#DejaVuSerif-Bold-33" x="83.789062"/>
       <use xlink:href="#DejaVuSerif-Bold-2e" x="153.369141"/>
       <use xlink:href="#DejaVuSerif-Bold-30" x="188.183594"/>
      </g>
     </g>
    </g>
    <g id="ytick_2">
     <g id="line2d_10">
      <g>
       <use xlink:href="#mc2b1b6d9d4" x="144" y="493.56" style="stroke: #000000; stroke-width: 0.8"/>
      </g>
     </g>
     <g id="text_11">
      <!-- −2.5 -->
      <g transform="translate(83.791562 501.918281) scale(0.22 -0.22)">
       <defs>
        <path id="DejaVuSerif-Bold-32" d="M 844 3513 
L 469 3513 
L 469 4519 
Q 850 4634 1223 4692 
Q 1597 4750 1978 4750 
Q 2869 4750 3367 4386 
Q 3866 4022 3866 3372 
Q 3866 2909 3591 2542 
Q 3316 2175 2541 1672 
L 1241 819 
L 3450 819 
L 3450 1369 
L 3878 1369 
L 3878 0 
L 428 0 
L 428 763 
L 1119 1241 
Q 2003 1850 2297 2278 
Q 2591 2706 2591 3278 
Q 2591 3819 2367 4101 
Q 2144 4384 1716 4384 
Q 1347 4384 1125 4161 
Q 903 3938 844 3513 
z
" transform="scale(0.015625)"/>
       </defs>
       <use xlink:href="#DejaVuSerif-Bold-2212"/>
       <use xlink:href="#DejaVuSerif-Bold-32" x="83.789062"/>
       <use xlink:href="#DejaVuSerif-Bold-2e" x="153.369141"/>
       <use xlink:href="#DejaVuSerif-Bold-35" x="188.183594"/>
      </g>
     </g>
    </g>
    <g id="ytick_3">
     <g id="line2d_11">
      <g>
       <use xlink:href="#mc2b1b6d9d4" x="144" y="410.4" style="stroke: #000000; stroke-width: 0.8"/>
      </g>
     </g>
     <g id="text_12">
      <!-- −2.0 -->
      <g transform="translate(83.791562 418.758281) scale(0.22 -0.22)">
       <use xlink:href="#DejaVuSerif-Bold-2212"/>
       <use xlink:href="#DejaVuSerif-Bold-32" x="83.789062"/>
       <use xlink:href="#DejaVuSerif-Bold-2e" x="153.369141"/>
       <use xlink:href="#DejaVuSerif-Bold-30" x="188.183594"/>
      </g>
     </g>
    </g>
    <g id="ytick_4">
     <g id="line2d_12">
      <g>
       <use xlink:href="#mc2b1b6d9d4" x="144" y="327.24" style="stroke: #000000; stroke-width: 0.8"/>
      </g>
     </g>
     <g id="text_13">
      <!-- −1.5 -->
      <g transform="translate(83.791562 335.598281) scale(0.22 -0.22)">
       <use xlink:href="#DejaVuSerif-Bold-2212"/>
       <use xlink:href="#DejaVuSerif-Bold-31" x="83.789062"/>
       <use xlink:href="#DejaVuSerif-Bold-2e" x="153.369141"/>
       <use xlink:href="#DejaVuSerif-Bold-35" x="188.183594"/>
      </g>
     </g>
    </g>
    <g id="ytick_5">
     <g id="line2d_13">
      <g>
       <use xlink:href="#mc2b1b6d9d4" x="144" y="244.08" style="stroke: #000000; stroke-width: 0.8"/>
      </g>
     </g>
     <g id="text_14">
      <!-- −1.0 -->
      <g transform="translate(83.791562 252.438281) scale(0.22 -0.22)">
       <use xlink:href="#DejaVuSerif-Bold-2212"/>
       <use xlink:href="#DejaVuSerif-Bold-31" x="83.789062"/>
       <use xlink:href="#DejaVuSerif-Bold-2e" x="153.369141"/>
       <use xlink:href="#DejaVuSerif-Bold-30" x="188.183594"/>
      </g>
     </g>
    </g>
    <g id="ytick_6">
     <g id="line2d_14">
      <g>
       <use xlink:href="#mc2b1b6d9d4" x="144" y="160.92" style="stroke: #000000; stroke-width: 0.8"/>
      </g>
     </g>
     <g id="text_15">
      <!-- −0.5 -->
      <g transform="translate(83.791562 169.278281) scale(0.22 -0.22)">
       <use xlink:href="#DejaVuSerif-Bold-2212"/>
       <use xlink:href="#DejaVuSerif-Bold-30" x="83.789062"/>
       <use xlink:href="#DejaVuSerif-Bold-2e" x="153.369141"/>
       <use xlink:href="#DejaVuSerif-Bold-35" x="188.183594"/>
      </g>
     </g>
    </g>
    <g id="ytick_7">
     <g id="line2d_15">
      <g>
       <use xlink:href="#mc2b1b6d9d4" x="144" y="77.76" style="stroke: #000000; stroke-width: 0.8"/>
      </g>
     </g>
     <g id="text_16">
      <!-- 0.0 -->
      <g transform="translate(102.226875 86.118281) scale(0.22 -0.22)">
       <use xlink:href="#DejaVuSerif-Bold-30"/>
       <use xlink:href="#DejaVuSerif-Bold-2e" x="69.580078"/>
       <use xlink:href="#DejaVuSerif-Bold-30" x="104.394531"/>
      </g>
     </g>
    </g>
    <g id="text_17">
     <!-- log(a [pc]) -->
     <g transform="translate(74.903437 392.610937) rotate(-90) scale(0.22 -0.22)">
      <defs>
       <path id="DejaVuSerif-Bold-6c" d="M 1797 378 
L 2272 378 
L 2272 0 
L 219 0 
L 219 378 
L 691 378 
L 691 4488 
L 219 4488 
L 219 4863 
L 1797 4863 
L 1797 378 
z
" transform="scale(0.015625)"/>
       <path id="DejaVuSerif-Bold-6f" d="M 2138 263 
Q 2488 263 2630 563 
Q 2772 863 2772 1663 
Q 2772 2463 2631 2761 
Q 2491 3059 2138 3059 
Q 1784 3059 1640 2757 
Q 1497 2456 1497 1663 
Q 1497 869 1640 566 
Q 1784 263 2138 263 
z
M 2138 -91 
Q 1259 -91 761 376 
Q 263 844 263 1663 
Q 263 2484 761 2948 
Q 1259 3413 2138 3413 
Q 3019 3413 3516 2948 
Q 4013 2484 4013 1663 
Q 4013 844 3514 376 
Q 3016 -91 2138 -91 
z
" transform="scale(0.015625)"/>
       <path id="DejaVuSerif-Bold-67" d="M 3853 2944 
L 3853 44 
Q 3853 -656 3354 -1039 
Q 2856 -1422 1947 -1422 
Q 1616 -1422 1275 -1370 
Q 934 -1319 575 -1216 
L 575 -422 
L 928 -422 
Q 975 -750 1192 -909 
Q 1409 -1069 1813 -1069 
Q 2325 -1069 2536 -823 
Q 2747 -578 2747 44 
L 2747 422 
Q 2606 163 2367 36 
Q 2128 -91 1778 -91 
Q 1072 -91 667 378 
Q 263 847 263 1663 
Q 263 2481 667 2947 
Q 1072 3413 1778 3413 
Q 2128 3413 2367 3286 
Q 2606 3159 2747 2900 
L 2747 3322 
L 4325 3322 
L 4325 2944 
L 3853 2944 
z
M 2747 1825 
Q 2747 2406 2597 2665 
Q 2447 2925 2119 2925 
Q 1775 2925 1636 2651 
Q 1497 2378 1497 1663 
Q 1497 947 1637 672 
Q 1778 397 2119 397 
Q 2447 397 2597 656 
Q 2747 916 2747 1497 
L 2747 1825 
z
" transform="scale(0.015625)"/>
       <path id="DejaVuSerif-Bold-28" d="M 2694 -997 
Q 1641 -606 1122 122 
Q 603 850 603 1931 
Q 603 3013 1115 3731 
Q 1628 4450 2694 4863 
L 2694 4488 
Q 2200 4188 1983 3598 
Q 1766 3009 1766 1931 
Q 1766 856 1983 267 
Q 2200 -322 2694 -622 
L 2694 -997 
z
" transform="scale(0.015625)"/>
       <path id="DejaVuSerif-Bold-61" d="M 3525 2041 
L 3525 378 
L 4000 378 
L 4000 0 
L 2419 0 
L 2419 422 
Q 2200 159 1931 34 
Q 1663 -91 1319 -91 
Q 809 -91 536 182 
Q 263 456 263 966 
Q 263 1525 655 1803 
Q 1047 2081 1838 2081 
L 2419 2081 
L 2419 2278 
Q 2419 2681 2228 2873 
Q 2038 3066 1638 3066 
Q 1306 3066 1126 2930 
Q 947 2794 872 2484 
L 519 2484 
L 519 3200 
Q 816 3306 1134 3359 
Q 1453 3413 1806 3413 
Q 2697 3413 3111 3081 
Q 3525 2750 3525 2041 
z
M 2419 1044 
L 2419 1709 
L 2003 1709 
Q 1694 1709 1528 1540 
Q 1363 1372 1363 1056 
Q 1363 741 1483 584 
Q 1603 428 1850 428 
Q 2106 428 2262 597 
Q 2419 766 2419 1044 
z
" transform="scale(0.015625)"/>
       <path id="DejaVuSerif-Bold-20" transform="scale(0.015625)"/>
       <path id="DejaVuSerif-Bold-5b" d="M 800 4863 
L 2572 4863 
L 2572 4488 
L 1906 4488 
L 1906 -469 
L 2572 -469 
L 2572 -844 
L 800 -844 
L 800 4863 
z
" transform="scale(0.015625)"/>
       <path id="DejaVuSerif-Bold-70" d="M 1728 1825 
L 1728 1497 
Q 1728 916 1876 656 
Q 2025 397 2356 397 
Q 2697 397 2836 672 
Q 2975 947 2975 1663 
Q 2975 2378 2836 2651 
Q 2697 2925 2356 2925 
Q 2025 2925 1876 2665 
Q 1728 2406 1728 1825 
z
M 622 2944 
L 147 2944 
L 147 3322 
L 1728 3322 
L 1728 2900 
Q 1869 3159 2106 3286 
Q 2344 3413 2694 3413 
Q 3403 3413 3811 2945 
Q 4219 2478 4219 1663 
Q 4219 847 3811 378 
Q 3403 -91 2694 -91 
Q 2344 -91 2106 36 
Q 1869 163 1728 422 
L 1728 -953 
L 2241 -953 
L 2241 -1331 
L 147 -1331 
L 147 -953 
L 622 -953 
L 622 2944 
z
" transform="scale(0.015625)"/>
       <path id="DejaVuSerif-Bold-63" d="M 3609 1038 
Q 3491 469 3123 189 
Q 2756 -91 2125 -91 
Q 1238 -91 750 368 
Q 263 828 263 1663 
Q 263 2488 744 2950 
Q 1225 3413 2081 3413 
Q 2428 3413 2781 3347 
Q 3134 3281 3500 3150 
L 3500 2228 
L 3150 2228 
Q 3100 2650 2903 2854 
Q 2706 3059 2350 3059 
Q 1888 3059 1692 2746 
Q 1497 2434 1497 1663 
Q 1497 909 1687 586 
Q 1878 263 2309 263 
Q 2644 263 2845 463 
Q 3047 663 3091 1038 
L 3609 1038 
z
" transform="scale(0.015625)"/>
       <path id="DejaVuSerif-Bold-5d" d="M 2228 4863 
L 2228 -844 
L 453 -844 
L 453 -469 
L 1119 -469 
L 1119 4488 
L 453 4488 
L 453 4863 
L 2228 4863 
z
" transform="scale(0.015625)"/>
       <path id="DejaVuSerif-Bold-29" d="M 325 -997 
L 325 -622 
Q 819 -322 1036 267 
Q 1253 856 1253 1931 
Q 1253 3009 1036 3598 
Q 819 4188 325 4488 
L 325 4863 
Q 1391 4450 1905 3731 
Q 2419 3013 2419 1931 
Q 2419 850 1898 122 
Q 1378 -606 325 -997 
z
" transform="scale(0.015625)"/>
      </defs>
      <use xlink:href="#DejaVuSerif-Bold-6c"/>
      <use xlink:href="#DejaVuSerif-Bold-6f" x="37.988281"/>
      <use xlink:href="#DejaVuSerif-Bold-67" x="104.6875"/>
      <use xlink:href="#DejaVuSerif-Bold-28" x="174.609375"/>
      <use xlink:href="#DejaVuSerif-Bold-61" x="221.923828"/>
      <use xlink:href="#DejaVuSerif-Bold-20" x="286.71875"/>
      <use xlink:href="#DejaVuSerif-Bold-5b" x="321.533203"/>
      <use xlink:href="#DejaVuSerif-Bold-70" x="368.847656"/>
      <use xlink:href="#DejaVuSerif-Bold-63" x="438.769531"/>
      <use xlink:href="#DejaVuSerif-Bold-5d" x="499.658203"/>
      <use xlink:href="#DejaVuSerif-Bold-29" x="546.972656"/>
     </g>
    </g>
   </g>
   <g id="patch_3">
    <path d="M 144 576.72 
L 144 77.76 
" style="fill: none; stroke: #000000; stroke-width: 0.8; stroke-linejoin: miter; stroke-linecap: square"/>
   </g>
   <g id="patch_4">
    <path d="M 1036.8 576.72 
L 1036.8 77.76 
" style="fill: none; stroke: #000000; stroke-width: 0.8; stroke-linejoin: miter; stroke-linecap: square"/>
   </g>
   <g id="patch_5">
    <path d="M 144 576.72 
L 1036.8 576.72 
" style="fill: none; stroke: #000000; stroke-width: 0.8; stroke-linejoin: miter; stroke-linecap: square"/>
   </g>
   <g id="patch_6">
    <path d="M 144 77.76 
L 1036.8 77.76 
" style="fill: none; stroke: #000000; stroke-width: 0.8; stroke-linejoin: miter; stroke-linecap: square"/>
   </g>
  </g>
  <g id="axes_2">
   <g id="patch_7">
    <path d="M 155 565.72 
L 199.64 565.72 
L 199.64 216.448 
L 155 216.448 
z
" style="fill: #ffffff"/>
   </g>
   <g id="QuadMesh_1">
    <path d="M 155 565.72 
L 199.64 565.72 
L 199.64 515.824 
L 155 515.824 
L 155 565.72 
" clip-path="url(#p4bec6af179)" style="fill: #fee9df"/>
    <path d="M 155 515.824 
L 199.64 515.824 
L 199.64 465.928 
L 155 465.928 
L 155 515.824 
" clip-path="url(#p4bec6af179)" style="fill: #fdc6b0"/>
    <path d="M 155 465.928 
L 199.64 465.928 
L 199.64 416.032 
L 155 416.032 
L 155 465.928 
" clip-path="url(#p4bec6af179)" style="fill: #fc9879"/>
    <path d="M 155 416.032 
L 199.64 416.032 
L 199.64 366.136 
L 155 366.136 
L 155 416.032 
" clip-path="url(#p4bec6af179)" style="fill: #fb694a"/>
    <path d="M 155 366.136 
L 199.64 366.136 
L 199.64 316.24 
L 155 316.24 
L 155 366.136 
" clip-path="url(#p4bec6af179)" style="fill: #ea362a"/>
    <path d="M 155 316.24 
L 199.64 316.24 
L 199.64 266.344 
L 155 266.344 
L 155 316.24 
" clip-path="url(#p4bec6af179)" style="fill: #bf151b"/>
    <path d="M 155 266.344 
L 199.64 266.344 
L 199.64 216.448 
L 155 216.448 
L 155 266.344 
" clip-path="url(#p4bec6af179)" style="fill: #8a0812"/>
   </g>
   <g id="matplotlib.axis_3"/>
   <g id="matplotlib.axis_4">
    <g id="ytick_8">
     <g id="line2d_16">
      <defs>
       <path id="m78deae9390" d="M 0 0 
L -6 0 
" style="stroke: #000000; stroke-width: 0.8"/>
      </defs>
      <g>
       <use xlink:href="#m78deae9390" x="199.64" y="565.72" style="stroke: #000000; stroke-width: 0.8"/>
      </g>
     </g>
     <g id="text_18">
      <!-- 0.0 -->
      <g transform="translate(203.14 574.078281) scale(0.22 -0.22)">
       <use xlink:href="#DejaVuSerif-Bold-30"/>
       <use xlink:href="#DejaVuSerif-Bold-2e" x="69.580078"/>
       <use xlink:href="#DejaVuSerif-Bold-30" x="104.394531"/>
      </g>
     </g>
    </g>
    <g id="ytick_9">
     <g id="line2d_17">
      <g>
       <use xlink:href="#m78deae9390" x="199.64" y="515.824" style="stroke: #000000; stroke-width: 0.8"/>
      </g>
     </g>
     <g id="text_19">
      <!-- 0.1 -->
      <g transform="translate(203.14 524.182281) scale(0.22 -0.22)">
       <use xlink:href="#DejaVuSerif-Bold-30"/>
       <use xlink:href="#DejaVuSerif-Bold-2e" x="69.580078"/>
       <use xlink:href="#DejaVuSerif-Bold-31" x="104.394531"/>
      </g>
     </g>
    </g>
    <g id="ytick_10">
     <g id="line2d_18">
      <g>
       <use xlink:href="#m78deae9390" x="199.64" y="465.928" style="stroke: #000000; stroke-width: 0.8"/>
      </g>
     </g>
     <g id="text_20">
      <!-- 0.2 -->
      <g transform="translate(203.14 474.286281) scale(0.22 -0.22)">
       <use xlink:href="#DejaVuSerif-Bold-30"/>
       <use xlink:href="#DejaVuSerif-Bold-2e" x="69.580078"/>
       <use xlink:href="#DejaVuSerif-Bold-32" x="104.394531"/>
      </g>
     </g>
    </g>
    <g id="ytick_11">
     <g id="line2d_19">
      <g>
       <use xlink:href="#m78deae9390" x="199.64" y="416.032" style="stroke: #000000; stroke-width: 0.8"/>
      </g>
     </g>
     <g id="text_21">
      <!-- 0.3 -->
      <g transform="translate(203.14 424.390281) scale(0.22 -0.22)">
       <use xlink:href="#DejaVuSerif-Bold-30"/>
       <use xlink:href="#DejaVuSerif-Bold-2e" x="69.580078"/>
       <use xlink:href="#DejaVuSerif-Bold-33" x="104.394531"/>
      </g>
     </g>
    </g>
    <g id="ytick_12">
     <g id="line2d_20">
      <g>
       <use xlink:href="#m78deae9390" x="199.64" y="366.136" style="stroke: #000000; stroke-width: 0.8"/>
      </g>
     </g>
     <g id="text_22">
      <!-- 0.4 -->
      <g transform="translate(203.14 374.494281) scale(0.22 -0.22)">
       <use xlink:href="#DejaVuSerif-Bold-30"/>
       <use xlink:href="#DejaVuSerif-Bold-2e" x="69.580078"/>
       <use xlink:href="#DejaVuSerif-Bold-34" x="104.394531"/>
      </g>
     </g>
    </g>
    <g id="ytick_13">
     <g id="line2d_21">
      <g>
       <use xlink:href="#m78deae9390" x="199.64" y="316.24" style="stroke: #000000; stroke-width: 0.8"/>
      </g>
     </g>
     <g id="text_23">
      <!-- 0.5 -->
      <g transform="translate(203.14 324.598281) scale(0.22 -0.22)">
       <use xlink:href="#DejaVuSerif-Bold-30"/>
       <use xlink:href="#DejaVuSerif-Bold-2e" x="69.580078"/>
       <use xlink:href="#DejaVuSerif-Bold-35" x="104.394531"/>
      </g>
     </g>
    </g>
    <g id="ytick_14">
     <g id="line2d_22">
      <g>
       <use xlink:href="#m78deae9390" x="199.64" y="266.344" style="stroke: #000000; stroke-width: 0.8"/>
      </g>
     </g>
     <g id="text_24">
      <!-- 0.6 -->
      <g transform="translate(203.14 274.702281) scale(0.22 -0.22)">
       <use xlink:href="#DejaVuSerif-Bold-30"/>
       <use xlink:href="#DejaVuSerif-Bold-2e" x="69.580078"/>
       <use xlink:href="#DejaVuSerif-Bold-36" x="104.394531"/>
      </g>
     </g>
    </g>
    <g id="ytick_15">
     <g id="line2d_23">
      <g>
       <use xlink:href="#m78deae9390" x="199.64" y="216.448" style="stroke: #000000; stroke-width: 0.8"/>
      </g>
     </g>
     <g id="text_25">
      <!-- 0.7 -->
      <g transform="translate(203.14 224.806281) scale(0.22 -0.22)">
       <use xlink:href="#DejaVuSerif-Bold-30"/>
       <use xlink:href="#DejaVuSerif-Bold-2e" x="69.580078"/>
       <use xlink:href="#DejaVuSerif-Bold-37" x="104.394531"/>
      </g>
     </g>
    </g>
   </g>
   <g id="LineCollection_1"/>
   <g id="patch_8">
    <path d="M 155 565.72 
L 177.32 565.72 
L 199.64 565.72 
L 199.64 216.448 
L 177.32 216.448 
L 155 216.448 
L 155 565.72 
z
" style="fill: none; stroke: #000000; stroke-width: 0.8; stroke-linejoin: miter; stroke-linecap: square"/>
   </g>
  </g>
 </g>
 <defs>
  <clipPath id="p25c9390d82">
   <rect x="144" y="77.76" width="892.8" height="498.96"/>
  </clipPath>
  <clipPath id="p4bec6af179">
   <rect x="155" y="216.448" width="44.64" height="349.272"/>
  </clipPath>
 </defs>
</svg>
