<?xml version="1.0" encoding="utf-8" standalone="no"?>
<!DOCTYPE svg PUBLIC "-//W3C//DTD SVG 1.1//EN"
  "http://www.w3.org/Graphics/SVG/1.1/DTD/svg11.dtd">
<svg xmlns:xlink="http://www.w3.org/1999/xlink" width="1152pt" height="612pt" viewBox="0 0 1152 612" xmlns="http://www.w3.org/2000/svg" version="1.1">
 <metadata>
  <rdf:RDF xmlns:dc="http://purl.org/dc/elements/1.1/" xmlns:cc="http://creativecommons.org/ns#" xmlns:rdf="http://www.w3.org/1999/02/22-rdf-syntax-ns#">
   <cc:Work>
    <dc:type rdf:resource="http://purl.org/dc/dcmitype/StillImage"/>
    <dc:date>2023-09-24T19:59:58.586232</dc:date>
    <dc:format>image/svg+xml</dc:format>
    <dc:creator>
     <cc:Agent>
      <dc:title>Matplotlib v3.7.0, https://matplotlib.org/</dc:title>
     </cc:Agent>
    </dc:creator>
   </cc:Work>
  </rdf:RDF>
 </metadata>
 <defs>
  <style type="text/css">*{stroke-linejoin: round; stroke-linecap: butt}</style>
 </defs>
 <g id="figure_1">
  <g id="patch_1">
   <path d="M 0 612 
L 1152 612 
L 1152 0 
L 0 0 
z
" style="fill: #ffffff"/>
  </g>
  <g id="axes_1">
   <g id="patch_2">
    <path d="M 144 544.68 
L 1036.8 544.68 
L 1036.8 73.44 
L 144 73.44 
z
" style="fill: #ffffff"/>
   </g>
   <g id="patch_3">
    <path d="M -1 544.68 
L 50.567442 544.68 
L 50.567442 544.68 
L -1 544.68 
" clip-path="url(#p07f2dce18b)" style="fill: none; opacity: 0.5; stroke: #000000; stroke-width: 2; stroke-linejoin: miter"/>
   </g>
   <g id="patch_4">
    <path d="M 50.567442 544.68 
L 102.474419 544.68 
L 102.474419 544.68 
L 50.567442 544.68 
L 50.567442 544.68 
z
" clip-path="url(#p07f2dce18b)" style="fill: none; opacity: 0.5; stroke: #000000; stroke-width: 2; stroke-linejoin: miter"/>
   </g>
   <g id="patch_5">
    <path d="M 102.474419 544.68 
L 154.381395 544.68 
L 154.381395 544.68 
L 102.474419 544.68 
L 102.474419 544.68 
z
" clip-path="url(#p07f2dce18b)" style="fill: none; opacity: 0.5; stroke: #000000; stroke-width: 2; stroke-linejoin: miter"/>
   </g>
   <g id="patch_6">
    <path d="M 154.381395 544.68 
L 206.288372 544.68 
L 206.288372 544.68 
L 154.381395 544.68 
L 154.381395 544.68 
z
" clip-path="url(#p07f2dce18b)" style="fill: none; opacity: 0.5; stroke: #000000; stroke-width: 2; stroke-linejoin: miter"/>
   </g>
   <g id="patch_7">
    <path d="M 206.288372 544.68 
L 258.195349 544.68 
L 258.195349 544.68 
L 206.288372 544.68 
L 206.288372 544.68 
z
" clip-path="url(#p07f2dce18b)" style="fill: none; opacity: 0.5; stroke: #000000; stroke-width: 2; stroke-linejoin: miter"/>
   </g>
   <g id="patch_8">
    <path d="M 258.195349 544.68 
L 310.102326 544.68 
L 310.102326 544.68 
L 258.195349 544.68 
L 258.195349 544.68 
z
" clip-path="url(#p07f2dce18b)" style="fill: none; opacity: 0.5; stroke: #000000; stroke-width: 2; stroke-linejoin: miter"/>
   </g>
   <g id="patch_9">
    <path d="M 310.102326 544.68 
L 362.009302 544.68 
L 362.009302 544.68 
L 310.102326 544.68 
L 310.102326 544.68 
z
" clip-path="url(#p07f2dce18b)" style="fill: none; opacity: 0.5; stroke: #000000; stroke-width: 2; stroke-linejoin: miter"/>
   </g>
   <g id="patch_10">
    <path d="M 362.009302 544.68 
L 413.916279 544.68 
L 413.916279 439.96 
L 362.009302 439.96 
L 362.009302 544.68 
z
" clip-path="url(#p07f2dce18b)" style="fill: none; opacity: 0.5; stroke: #000000; stroke-width: 2; stroke-linejoin: miter"/>
   </g>
   <g id="patch_11">
    <path d="M 413.916279 544.68 
L 465.823256 544.68 
L 465.823256 439.96 
L 413.916279 439.96 
L 413.916279 544.68 
z
" clip-path="url(#p07f2dce18b)" style="fill: none; opacity: 0.5; stroke: #000000; stroke-width: 2; stroke-linejoin: miter"/>
   </g>
   <g id="patch_12">
    <path d="M 465.823256 544.68 
L 517.730233 544.68 
L 517.730233 439.96 
L 465.823256 439.96 
L 465.823256 544.68 
z
" clip-path="url(#p07f2dce18b)" style="fill: none; opacity: 0.5; stroke: #000000; stroke-width: 2; stroke-linejoin: miter"/>
   </g>
   <g id="patch_13">
    <path d="M 517.730233 544.68 
L 569.637209 544.68 
L 569.637209 439.96 
L 517.730233 439.96 
L 517.730233 544.68 
z
" clip-path="url(#p07f2dce18b)" style="fill: none; opacity: 0.5; stroke: #000000; stroke-width: 2; stroke-linejoin: miter"/>
   </g>
   <g id="patch_14">
    <path d="M 569.637209 544.68 
L 621.544186 544.68 
L 621.544186 335.24 
L 569.637209 335.24 
L 569.637209 544.68 
z
" clip-path="url(#p07f2dce18b)" style="fill: none; opacity: 0.5; stroke: #000000; stroke-width: 2; stroke-linejoin: miter"/>
   </g>
   <g id="patch_15">
    <path d="M 621.544186 544.68 
L 673.451163 544.68 
L 673.451163 335.24 
L 621.544186 335.24 
L 621.544186 544.68 
z
" clip-path="url(#p07f2dce18b)" style="fill: none; opacity: 0.5; stroke: #000000; stroke-width: 2; stroke-linejoin: miter"/>
   </g>
   <g id="patch_16">
    <path d="M 673.451163 544.68 
L 725.35814 544.68 
L 725.35814 544.68 
L 673.451163 544.68 
L 673.451163 544.68 
z
" clip-path="url(#p07f2dce18b)" style="fill: none; opacity: 0.5; stroke: #000000; stroke-width: 2; stroke-linejoin: miter"/>
   </g>
   <g id="patch_17">
    <path d="M 725.35814 544.68 
L 777.265116 544.68 
L 777.265116 230.52 
L 725.35814 230.52 
L 725.35814 544.68 
z
" clip-path="url(#p07f2dce18b)" style="fill: none; opacity: 0.5; stroke: #000000; stroke-width: 2; stroke-linejoin: miter"/>
   </g>
   <g id="patch_18">
    <path d="M 777.265116 544.68 
L 829.172093 544.68 
L 829.172093 439.96 
L 777.265116 439.96 
L 777.265116 544.68 
z
" clip-path="url(#p07f2dce18b)" style="fill: none; opacity: 0.5; stroke: #000000; stroke-width: 2; stroke-linejoin: miter"/>
   </g>
   <g id="patch_19">
    <path d="M 829.172093 544.68 
L 881.07907 544.68 
L 881.07907 335.24 
L 829.172093 335.24 
L 829.172093 544.68 
z
" clip-path="url(#p07f2dce18b)" style="fill: none; opacity: 0.5; stroke: #000000; stroke-width: 2; stroke-linejoin: miter"/>
   </g>
   <g id="patch_20">
    <path d="M 881.07907 544.68 
L 932.986047 544.68 
L 932.986047 335.24 
L 881.07907 335.24 
L 881.07907 544.68 
z
" clip-path="url(#p07f2dce18b)" style="fill: none; opacity: 0.5; stroke: #000000; stroke-width: 2; stroke-linejoin: miter"/>
   </g>
   <g id="patch_21">
    <path d="M 932.986047 544.68 
L 984.893023 544.68 
L 984.893023 439.96 
L 932.986047 439.96 
L 932.986047 544.68 
z
" clip-path="url(#p07f2dce18b)" style="fill: none; opacity: 0.5; stroke: #000000; stroke-width: 2; stroke-linejoin: miter"/>
   </g>
   <g id="patch_22">
    <path d="M 984.893023 544.68 
L 1036.8 544.68 
L 1036.8 335.24 
L 984.893023 335.24 
L 984.893023 544.68 
z
" clip-path="url(#p07f2dce18b)" style="fill: none; opacity: 0.5; stroke: #000000; stroke-width: 2; stroke-linejoin: miter"/>
   </g>
   <g id="matplotlib.axis_1">
    <g id="xtick_1">
     <g id="line2d_1">
      <defs>
       <path id="m2b2ad30cc1" d="M 0 0 
L 0 -6 
" style="stroke: #000000; stroke-width: 0.8"/>
      </defs>
      <g>
       <use xlink:href="#m2b2ad30cc1" x="206.288372" y="544.68" style="stroke: #000000; stroke-width: 0.8"/>
      </g>
     </g>
     <g id="text_1">
      <!-- 0.2 -->
      <g transform="translate(187.15181 564.896562) scale(0.22 -0.22)">
       <defs>
        <path id="DejaVuSerif-Bold-30" d="M 2228 275 
Q 2603 275 2742 615 
Q 2881 956 2881 2328 
Q 2881 3691 2742 4037 
Q 2603 4384 2228 4384 
Q 1853 4384 1714 4043 
Q 1575 3703 1575 2328 
Q 1575 956 1714 615 
Q 1853 275 2228 275 
z
M 2228 -91 
Q 1294 -91 797 532 
Q 300 1156 300 2328 
Q 300 3500 797 4125 
Q 1294 4750 2228 4750 
Q 3159 4750 3656 4125 
Q 4153 3500 4153 2328 
Q 4153 1156 3656 532 
Q 3159 -91 2228 -91 
z
" transform="scale(0.015625)"/>
        <path id="DejaVuSerif-Bold-2e" d="M 519 506 
Q 519 750 694 925 
Q 869 1100 1113 1100 
Q 1359 1100 1534 925 
Q 1709 750 1709 506 
Q 1709 259 1534 84 
Q 1359 -91 1113 -91 
Q 869 -91 694 84 
Q 519 259 519 506 
z
" transform="scale(0.015625)"/>
        <path id="DejaVuSerif-Bold-32" d="M 844 3513 
L 469 3513 
L 469 4519 
Q 850 4634 1223 4692 
Q 1597 4750 1978 4750 
Q 2869 4750 3367 4386 
Q 3866 4022 3866 3372 
Q 3866 2909 3591 2542 
Q 3316 2175 2541 1672 
L 1241 819 
L 3450 819 
L 3450 1369 
L 3878 1369 
L 3878 0 
L 428 0 
L 428 763 
L 1119 1241 
Q 2003 1850 2297 2278 
Q 2591 2706 2591 3278 
Q 2591 3819 2367 4101 
Q 2144 4384 1716 4384 
Q 1347 4384 1125 4161 
Q 903 3938 844 3513 
z
" transform="scale(0.015625)"/>
       </defs>
       <use xlink:href="#DejaVuSerif-Bold-30"/>
       <use xlink:href="#DejaVuSerif-Bold-2e" x="69.580078"/>
       <use xlink:href="#DejaVuSerif-Bold-32" x="104.394531"/>
      </g>
     </g>
    </g>
    <g id="xtick_2">
     <g id="line2d_2">
      <g>
       <use xlink:href="#m2b2ad30cc1" x="310.102326" y="544.68" style="stroke: #000000; stroke-width: 0.8"/>
      </g>
     </g>
     <g id="text_2">
      <!-- 0.3 -->
      <g transform="translate(290.965763 564.896562) scale(0.22 -0.22)">
       <defs>
        <path id="DejaVuSerif-Bold-33" d="M 550 4531 
Q 963 4641 1350 4695 
Q 1738 4750 2106 4750 
Q 2950 4750 3401 4448 
Q 3853 4147 3853 3584 
Q 3853 3163 3593 2900 
Q 3334 2638 2834 2547 
Q 3444 2450 3744 2131 
Q 4044 1813 4044 1259 
Q 4044 606 3526 257 
Q 3009 -91 2028 -91 
Q 1659 -91 1267 -28 
Q 875 34 447 159 
L 447 1184 
L 825 1184 
Q 859 741 1103 508 
Q 1347 275 1778 275 
Q 2253 275 2512 539 
Q 2772 803 2772 1288 
Q 2772 1794 2501 2069 
Q 2231 2344 1734 2344 
L 1528 2344 
L 1528 2719 
L 1691 2719 
Q 2150 2719 2381 2931 
Q 2613 3144 2613 3566 
Q 2613 3963 2395 4173 
Q 2178 4384 1772 4384 
Q 1403 4384 1187 4182 
Q 972 3981 928 3597 
L 550 3597 
L 550 4531 
z
" transform="scale(0.015625)"/>
       </defs>
       <use xlink:href="#DejaVuSerif-Bold-30"/>
       <use xlink:href="#DejaVuSerif-Bold-2e" x="69.580078"/>
       <use xlink:href="#DejaVuSerif-Bold-33" x="104.394531"/>
      </g>
     </g>
    </g>
    <g id="xtick_3">
     <g id="line2d_3">
      <g>
       <use xlink:href="#m2b2ad30cc1" x="413.916279" y="544.68" style="stroke: #000000; stroke-width: 0.8"/>
      </g>
     </g>
     <g id="text_3">
      <!-- 0.4 -->
      <g transform="translate(394.779717 564.896562) scale(0.22 -0.22)">
       <defs>
        <path id="DejaVuSerif-Bold-34" d="M 4084 0 
L 1516 0 
L 1516 378 
L 2209 378 
L 2209 1228 
L 263 1228 
L 263 1588 
L 2216 4750 
L 3391 4750 
L 3391 1631 
L 4191 1631 
L 4191 1228 
L 3391 1228 
L 3391 378 
L 4084 378 
L 4084 0 
z
M 2209 1631 
L 2209 3897 
L 819 1631 
L 2209 1631 
z
" transform="scale(0.015625)"/>
       </defs>
       <use xlink:href="#DejaVuSerif-Bold-30"/>
       <use xlink:href="#DejaVuSerif-Bold-2e" x="69.580078"/>
       <use xlink:href="#DejaVuSerif-Bold-34" x="104.394531"/>
      </g>
     </g>
    </g>
    <g id="xtick_4">
     <g id="line2d_4">
      <g>
       <use xlink:href="#m2b2ad30cc1" x="517.730233" y="544.68" style="stroke: #000000; stroke-width: 0.8"/>
      </g>
     </g>
     <g id="text_4">
      <!-- 0.5 -->
      <g transform="translate(498.59367 564.896562) scale(0.22 -0.22)">
       <defs>
        <path id="DejaVuSerif-Bold-35" d="M 3609 4666 
L 3609 3847 
L 1113 3847 
L 1113 2822 
Q 1319 2981 1572 3062 
Q 1825 3144 2106 3144 
Q 2969 3144 3469 2708 
Q 3969 2272 3969 1522 
Q 3969 759 3469 334 
Q 2969 -91 2069 -91 
Q 1688 -91 1311 -28 
Q 934 34 525 166 
L 525 1184 
L 900 1184 
Q 919 725 1139 500 
Q 1359 275 1791 275 
Q 2250 275 2472 583 
Q 2694 891 2694 1522 
Q 2694 2144 2476 2451 
Q 2259 2759 1819 2759 
Q 1581 2759 1395 2661 
Q 1209 2563 1050 2356 
L 738 2356 
L 738 4666 
L 3609 4666 
z
" transform="scale(0.015625)"/>
       </defs>
       <use xlink:href="#DejaVuSerif-Bold-30"/>
       <use xlink:href="#DejaVuSerif-Bold-2e" x="69.580078"/>
       <use xlink:href="#DejaVuSerif-Bold-35" x="104.394531"/>
      </g>
     </g>
    </g>
    <g id="xtick_5">
     <g id="line2d_5">
      <g>
       <use xlink:href="#m2b2ad30cc1" x="621.544186" y="544.68" style="stroke: #000000; stroke-width: 0.8"/>
      </g>
     </g>
     <g id="text_5">
      <!-- 0.6 -->
      <g transform="translate(602.407624 564.896562) scale(0.22 -0.22)">
       <defs>
        <path id="DejaVuSerif-Bold-36" d="M 1575 2766 
Q 1778 2928 2029 3009 
Q 2281 3091 2578 3091 
Q 3294 3091 3701 2672 
Q 4109 2253 4109 1522 
Q 4109 750 3650 329 
Q 3191 -91 2344 -91 
Q 1388 -91 895 486 
Q 403 1063 403 2181 
Q 403 3453 950 4101 
Q 1497 4750 2572 4750 
Q 2853 4750 3175 4703 
Q 3497 4656 3866 4563 
L 3866 3738 
L 3488 3738 
Q 3409 4056 3192 4220 
Q 2975 4384 2631 4384 
Q 2075 4384 1826 4003 
Q 1578 3622 1575 2766 
z
M 2272 275 
Q 2594 275 2731 548 
Q 2869 822 2869 1497 
Q 2869 2172 2731 2445 
Q 2594 2719 2272 2719 
Q 1950 2719 1814 2445 
Q 1678 2172 1678 1497 
Q 1678 822 1814 548 
Q 1950 275 2272 275 
z
" transform="scale(0.015625)"/>
       </defs>
       <use xlink:href="#DejaVuSerif-Bold-30"/>
       <use xlink:href="#DejaVuSerif-Bold-2e" x="69.580078"/>
       <use xlink:href="#DejaVuSerif-Bold-36" x="104.394531"/>
      </g>
     </g>
    </g>
    <g id="xtick_6">
     <g id="line2d_6">
      <g>
       <use xlink:href="#m2b2ad30cc1" x="725.35814" y="544.68" style="stroke: #000000; stroke-width: 0.8"/>
      </g>
     </g>
     <g id="text_6">
      <!-- 0.7 -->
      <g transform="translate(706.221577 564.896562) scale(0.22 -0.22)">
       <defs>
        <path id="DejaVuSerif-Bold-37" d="M 3922 3872 
L 1997 0 
L 1363 0 
L 3238 3781 
L 934 3781 
L 934 3150 
L 506 3150 
L 506 4666 
L 3922 4666 
L 3922 3872 
z
" transform="scale(0.015625)"/>
       </defs>
       <use xlink:href="#DejaVuSerif-Bold-30"/>
       <use xlink:href="#DejaVuSerif-Bold-2e" x="69.580078"/>
       <use xlink:href="#DejaVuSerif-Bold-37" x="104.394531"/>
      </g>
     </g>
    </g>
    <g id="xtick_7">
     <g id="line2d_7">
      <g>
       <use xlink:href="#m2b2ad30cc1" x="829.172093" y="544.68" style="stroke: #000000; stroke-width: 0.8"/>
      </g>
     </g>
     <g id="text_7">
      <!-- 0.8 -->
      <g transform="translate(810.035531 564.896562) scale(0.22 -0.22)">
       <defs>
        <path id="DejaVuSerif-Bold-38" d="M 2975 2484 
Q 3531 2394 3820 2075 
Q 4109 1756 4109 1241 
Q 4109 597 3623 253 
Q 3138 -91 2222 -91 
Q 1306 -91 818 253 
Q 331 597 331 1241 
Q 331 1756 622 2075 
Q 913 2394 1466 2484 
Q 975 2597 731 2861 
Q 488 3125 488 3531 
Q 488 4125 931 4437 
Q 1375 4750 2222 4750 
Q 3066 4750 3511 4437 
Q 3956 4125 3956 3531 
Q 3956 3125 3711 2861 
Q 3466 2597 2975 2484 
z
M 2747 3519 
Q 2747 4013 2628 4198 
Q 2509 4384 2222 4384 
Q 1931 4384 1814 4198 
Q 1697 4013 1697 3519 
Q 1697 3028 1814 2845 
Q 1931 2663 2222 2663 
Q 2513 2663 2630 2845 
Q 2747 3028 2747 3519 
z
M 2869 1294 
Q 2869 1866 2723 2081 
Q 2578 2297 2222 2297 
Q 1863 2297 1719 2081 
Q 1575 1866 1575 1294 
Q 1575 716 1720 495 
Q 1866 275 2222 275 
Q 2575 275 2722 495 
Q 2869 716 2869 1294 
z
" transform="scale(0.015625)"/>
       </defs>
       <use xlink:href="#DejaVuSerif-Bold-30"/>
       <use xlink:href="#DejaVuSerif-Bold-2e" x="69.580078"/>
       <use xlink:href="#DejaVuSerif-Bold-38" x="104.394531"/>
      </g>
     </g>
    </g>
    <g id="xtick_8">
     <g id="line2d_8">
      <g>
       <use xlink:href="#m2b2ad30cc1" x="932.986047" y="544.68" style="stroke: #000000; stroke-width: 0.8"/>
      </g>
     </g>
     <g id="text_8">
      <!-- 0.9 -->
      <g transform="translate(913.849484 564.896562) scale(0.22 -0.22)">
       <defs>
        <path id="DejaVuSerif-Bold-39" d="M 2181 4384 
Q 1859 4384 1723 4111 
Q 1588 3838 1588 3163 
Q 1588 2488 1723 2214 
Q 1859 1941 2181 1941 
Q 2503 1941 2640 2214 
Q 2778 2488 2778 3163 
Q 2778 3838 2640 4111 
Q 2503 4384 2181 4384 
z
M 2878 1900 
Q 2672 1734 2420 1651 
Q 2169 1569 1875 1569 
Q 1163 1569 755 1986 
Q 347 2403 347 3138 
Q 347 3913 803 4331 
Q 1259 4750 2106 4750 
Q 3063 4750 3556 4172 
Q 4050 3594 4050 2478 
Q 4050 1206 3503 557 
Q 2956 -91 1881 -91 
Q 1600 -91 1278 -44 
Q 956 3 588 97 
L 588 922 
L 966 922 
Q 1044 603 1261 439 
Q 1478 275 1825 275 
Q 2375 275 2625 658 
Q 2875 1041 2878 1900 
z
" transform="scale(0.015625)"/>
       </defs>
       <use xlink:href="#DejaVuSerif-Bold-30"/>
       <use xlink:href="#DejaVuSerif-Bold-2e" x="69.580078"/>
       <use xlink:href="#DejaVuSerif-Bold-39" x="104.394531"/>
      </g>
     </g>
    </g>
    <g id="xtick_9">
     <g id="line2d_9">
      <g>
       <use xlink:href="#m2b2ad30cc1" x="1036.8" y="544.68" style="stroke: #000000; stroke-width: 0.8"/>
      </g>
     </g>
     <g id="text_9">
      <!-- 1.0 -->
      <g transform="translate(1017.663437 564.896562) scale(0.22 -0.22)">
       <defs>
        <path id="DejaVuSerif-Bold-31" d="M 878 0 
L 878 378 
L 1753 378 
L 1753 4153 
L 781 3578 
L 781 4044 
L 1953 4750 
L 2938 4750 
L 2938 378 
L 3816 378 
L 3816 0 
L 878 0 
z
" transform="scale(0.015625)"/>
       </defs>
       <use xlink:href="#DejaVuSerif-Bold-31"/>
       <use xlink:href="#DejaVuSerif-Bold-2e" x="69.580078"/>
       <use xlink:href="#DejaVuSerif-Bold-30" x="104.394531"/>
      </g>
     </g>
    </g>
    <g id="text_10">
     <!-- e -->
     <g transform="translate(583.40125 590.188437) scale(0.22 -0.22)">
      <defs>
       <path id="DejaVuSerif-Bold-65" d="M 2566 1875 
Q 2566 2531 2444 2795 
Q 2322 3059 2028 3059 
Q 1744 3059 1620 2800 
Q 1497 2541 1497 1931 
L 1497 1875 
L 2566 1875 
z
M 3781 1503 
L 1497 1503 
L 1497 1478 
Q 1497 834 1690 548 
Q 1884 263 2316 263 
Q 2675 263 2897 453 
Q 3119 644 3181 1006 
L 3700 1006 
Q 3566 441 3166 175 
Q 2766 -91 2047 -91 
Q 1184 -91 723 364 
Q 263 819 263 1663 
Q 263 2488 734 2950 
Q 1206 3413 2047 3413 
Q 2872 3413 3312 2927 
Q 3753 2441 3781 1503 
z
" transform="scale(0.015625)"/>
      </defs>
      <use xlink:href="#DejaVuSerif-Bold-65"/>
     </g>
    </g>
   </g>
   <g id="matplotlib.axis_2">
    <g id="ytick_1">
     <g id="line2d_10">
      <defs>
       <path id="ma4c04ca79c" d="M 0 0 
L 6 0 
" style="stroke: #000000; stroke-width: 0.8"/>
      </defs>
      <g>
       <use xlink:href="#ma4c04ca79c" x="144" y="544.68" style="stroke: #000000; stroke-width: 0.8"/>
      </g>
     </g>
     <g id="text_11">
      <!-- 0.0 -->
      <g transform="translate(102.226875 553.038281) scale(0.22 -0.22)">
       <use xlink:href="#DejaVuSerif-Bold-30"/>
       <use xlink:href="#DejaVuSerif-Bold-2e" x="69.580078"/>
       <use xlink:href="#DejaVuSerif-Bold-30" x="104.394531"/>
      </g>
     </g>
    </g>
    <g id="ytick_2">
     <g id="line2d_11">
      <g>
       <use xlink:href="#ma4c04ca79c" x="144" y="492.32" style="stroke: #000000; stroke-width: 0.8"/>
      </g>
     </g>
     <g id="text_12">
      <!-- 0.5 -->
      <g transform="translate(102.226875 500.678281) scale(0.22 -0.22)">
       <use xlink:href="#DejaVuSerif-Bold-30"/>
       <use xlink:href="#DejaVuSerif-Bold-2e" x="69.580078"/>
       <use xlink:href="#DejaVuSerif-Bold-35" x="104.394531"/>
      </g>
     </g>
    </g>
    <g id="ytick_3">
     <g id="line2d_12">
      <g>
       <use xlink:href="#ma4c04ca79c" x="144" y="439.96" style="stroke: #000000; stroke-width: 0.8"/>
      </g>
     </g>
     <g id="text_13">
      <!-- 1.0 -->
      <g transform="translate(102.226875 448.318281) scale(0.22 -0.22)">
       <use xlink:href="#DejaVuSerif-Bold-31"/>
       <use xlink:href="#DejaVuSerif-Bold-2e" x="69.580078"/>
       <use xlink:href="#DejaVuSerif-Bold-30" x="104.394531"/>
      </g>
     </g>
    </g>
    <g id="ytick_4">
     <g id="line2d_13">
      <g>
       <use xlink:href="#ma4c04ca79c" x="144" y="387.6" style="stroke: #000000; stroke-width: 0.8"/>
      </g>
     </g>
     <g id="text_14">
      <!-- 1.5 -->
      <g transform="translate(102.226875 395.958281) scale(0.22 -0.22)">
       <use xlink:href="#DejaVuSerif-Bold-31"/>
       <use xlink:href="#DejaVuSerif-Bold-2e" x="69.580078"/>
       <use xlink:href="#DejaVuSerif-Bold-35" x="104.394531"/>
      </g>
     </g>
    </g>
    <g id="ytick_5">
     <g id="line2d_14">
      <g>
       <use xlink:href="#ma4c04ca79c" x="144" y="335.24" style="stroke: #000000; stroke-width: 0.8"/>
      </g>
     </g>
     <g id="text_15">
      <!-- 2.0 -->
      <g transform="translate(102.226875 343.598281) scale(0.22 -0.22)">
       <use xlink:href="#DejaVuSerif-Bold-32"/>
       <use xlink:href="#DejaVuSerif-Bold-2e" x="69.580078"/>
       <use xlink:href="#DejaVuSerif-Bold-30" x="104.394531"/>
      </g>
     </g>
    </g>
    <g id="ytick_6">
     <g id="line2d_15">
      <g>
       <use xlink:href="#ma4c04ca79c" x="144" y="282.88" style="stroke: #000000; stroke-width: 0.8"/>
      </g>
     </g>
     <g id="text_16">
      <!-- 2.5 -->
      <g transform="translate(102.226875 291.238281) scale(0.22 -0.22)">
       <use xlink:href="#DejaVuSerif-Bold-32"/>
       <use xlink:href="#DejaVuSerif-Bold-2e" x="69.580078"/>
       <use xlink:href="#DejaVuSerif-Bold-35" x="104.394531"/>
      </g>
     </g>
    </g>
    <g id="ytick_7">
     <g id="line2d_16">
      <g>
       <use xlink:href="#ma4c04ca79c" x="144" y="230.52" style="stroke: #000000; stroke-width: 0.8"/>
      </g>
     </g>
     <g id="text_17">
      <!-- 3.0 -->
      <g transform="translate(102.226875 238.878281) scale(0.22 -0.22)">
       <use xlink:href="#DejaVuSerif-Bold-33"/>
       <use xlink:href="#DejaVuSerif-Bold-2e" x="69.580078"/>
       <use xlink:href="#DejaVuSerif-Bold-30" x="104.394531"/>
      </g>
     </g>
    </g>
    <g id="ytick_8">
     <g id="line2d_17">
      <g>
       <use xlink:href="#ma4c04ca79c" x="144" y="178.16" style="stroke: #000000; stroke-width: 0.8"/>
      </g>
     </g>
     <g id="text_18">
      <!-- 3.5 -->
      <g transform="translate(102.226875 186.518281) scale(0.22 -0.22)">
       <use xlink:href="#DejaVuSerif-Bold-33"/>
       <use xlink:href="#DejaVuSerif-Bold-2e" x="69.580078"/>
       <use xlink:href="#DejaVuSerif-Bold-35" x="104.394531"/>
      </g>
     </g>
    </g>
    <g id="ytick_9">
     <g id="line2d_18">
      <g>
       <use xlink:href="#ma4c04ca79c" x="144" y="125.8" style="stroke: #000000; stroke-width: 0.8"/>
      </g>
     </g>
     <g id="text_19">
      <!-- 4.0 -->
      <g transform="translate(102.226875 134.158281) scale(0.22 -0.22)">
       <use xlink:href="#DejaVuSerif-Bold-34"/>
       <use xlink:href="#DejaVuSerif-Bold-2e" x="69.580078"/>
       <use xlink:href="#DejaVuSerif-Bold-30" x="104.394531"/>
      </g>
     </g>
    </g>
    <g id="ytick_10">
     <g id="line2d_19">
      <g>
       <use xlink:href="#ma4c04ca79c" x="144" y="73.44" style="stroke: #000000; stroke-width: 0.8"/>
      </g>
     </g>
     <g id="text_20">
      <!-- 4.5 -->
      <g transform="translate(102.226875 81.798281) scale(0.22 -0.22)">
       <use xlink:href="#DejaVuSerif-Bold-34"/>
       <use xlink:href="#DejaVuSerif-Bold-2e" x="69.580078"/>
       <use xlink:href="#DejaVuSerif-Bold-35" x="104.394531"/>
      </g>
     </g>
    </g>
    <g id="text_21">
     <!-- p(e) -->
     <g transform="translate(93.651563 334.158906) rotate(-90) scale(0.22 -0.22)">
      <defs>
       <path id="DejaVuSerif-Bold-70" d="M 1728 1825 
L 1728 1497 
Q 1728 916 1876 656 
Q 2025 397 2356 397 
Q 2697 397 2836 672 
Q 2975 947 2975 1663 
Q 2975 2378 2836 2651 
Q 2697 2925 2356 2925 
Q 2025 2925 1876 2665 
Q 1728 2406 1728 1825 
z
M 622 2944 
L 147 2944 
L 147 3322 
L 1728 3322 
L 1728 2900 
Q 1869 3159 2106 3286 
Q 2344 3413 2694 3413 
Q 3403 3413 3811 2945 
Q 4219 2478 4219 1663 
Q 4219 847 3811 378 
Q 3403 -91 2694 -91 
Q 2344 -91 2106 36 
Q 1869 163 1728 422 
L 1728 -953 
L 2241 -953 
L 2241 -1331 
L 147 -1331 
L 147 -953 
L 622 -953 
L 622 2944 
z
" transform="scale(0.015625)"/>
       <path id="DejaVuSerif-Bold-28" d="M 2694 -997 
Q 1641 -606 1122 122 
Q 603 850 603 1931 
Q 603 3013 1115 3731 
Q 1628 4450 2694 4863 
L 2694 4488 
Q 2200 4188 1983 3598 
Q 1766 3009 1766 1931 
Q 1766 856 1983 267 
Q 2200 -322 2694 -622 
L 2694 -997 
z
" transform="scale(0.015625)"/>
       <path id="DejaVuSerif-Bold-29" d="M 325 -997 
L 325 -622 
Q 819 -322 1036 267 
Q 1253 856 1253 1931 
Q 1253 3009 1036 3598 
Q 819 4188 325 4488 
L 325 4863 
Q 1391 4450 1905 3731 
Q 2419 3013 2419 1931 
Q 2419 850 1898 122 
Q 1378 -606 325 -997 
z
" transform="scale(0.015625)"/>
      </defs>
      <use xlink:href="#DejaVuSerif-Bold-70"/>
      <use xlink:href="#DejaVuSerif-Bold-28" x="69.921875"/>
      <use xlink:href="#DejaVuSerif-Bold-65" x="117.236328"/>
      <use xlink:href="#DejaVuSerif-Bold-29" x="180.859375"/>
     </g>
    </g>
   </g>
   <g id="line2d_20">
    <path d="M 1036.626241 544.68 
L 1036.357565 346.15072 
L 1035.965459 215.033122 
L 1035.449786 120.944766 
L 1034.810359 51.313237 
L 1034.04695 -0.432858 
L 1034.035524 -1 
M 1016.694086 -1 
L 1011.815563 46.353026 
L 1008.327027 78.132196 
L 1005.554432 101.797961 
L 1002.646728 125.041205 
L 999.602738 147.644835 
L 996.421216 169.404431 
L 993.100841 190.241392 
L 989.640218 210.111289 
L 986.037871 228.975887 
L 983.556806 240.973906 
L 981.01158 252.505597 
L 978.401693 263.575468 
L 975.726627 274.186127 
L 972.985845 284.343144 
L 970.178791 294.057887 
L 967.304889 303.340955 
L 964.363542 312.190964 
L 962.867384 316.250061 
L 961.354132 318.841275 
L 959.823704 320.715257 
L 958.276018 322.21669 
L 955.128537 324.751578 
L 951.911002 327.001258 
L 946.951784 330.163685 
L 940.087443 334.267794 
L 929.237772 340.47818 
L 921.625771 344.683838 
L 913.701879 348.626174 
L 892.472386 359.251289 
L 878.713947 366.115742 
L 869.094247 370.701989 
L 859.102682 375.196366 
L 848.726139 379.58045 
L 835.192209 384.961015 
L 823.89525 389.170362 
L 793.70107 399.961075 
L 780.788435 404.286545 
L 767.363112 408.585517 
L 749.818514 413.95208 
L 731.36923 419.314922 
L 711.945064 424.682199 
L 691.464021 430.073526 
L 669.829355 435.506375 
L 646.925578 441.001424 
L 622.612945 446.580467 
L 596.719662 452.269157 
L 569.030496 458.096542 
L 539.269571 464.097723 
L 507.073195 470.316707 
L 479.234984 475.486957 
L 449.177096 480.872685 
L 416.420685 486.52758 
L 380.271484 492.528694 
L 339.652164 498.995059 
L 305.19435 504.26727 
L 265.858462 510.063142 
L 219.047806 516.673222 
L 180.902793 521.847251 
L 131.852818 528.246119 
L 98.467854 532.458724 
L 45.075868 539.028938 
L 45.075868 539.028938 
" clip-path="url(#p07f2dce18b)" style="fill: none; stroke: #2166ac; stroke-width: 1.5; stroke-linecap: square"/>
   </g>
   <g id="line2d_21">
    <path d="M 1036.744152 544.68 
L 1036.561386 252.466367 
L 1036.251386 90.126651 
L 1035.891634 -1 
M 988.265186 -1 
L 984.683584 11.993076 
L 978.168797 35.144094 
L 965.37637 83.9145 
L 960.800108 99.990406 
L 956.06412 115.818563 
L 951.166024 131.398636 
L 946.103306 146.75089 
L 940.873311 161.910546 
L 935.473239 176.875505 
L 929.90013 191.584088 
L 924.150859 205.994809 
L 918.222121 220.092586 
L 912.110422 233.875637 
L 905.812063 247.347216 
L 899.32313 260.506779 
L 892.639472 273.346518 
L 885.756688 285.862726 
L 881.055244 294.027502 
L 876.261773 302.048999 
L 871.374759 309.927576 
L 866.392622 317.66316 
L 861.313713 325.25568 
L 856.136313 332.705293 
L 850.858626 340.012306 
L 845.478778 347.17715 
L 839.994809 354.200293 
L 834.404669 361.082323 
L 828.706213 367.823536 
L 822.897194 374.424335 
L 816.975258 380.885357 
L 810.937936 387.207383 
L 804.782634 393.391019 
L 798.50663 399.436678 
L 792.107058 405.345302 
L 785.580904 411.117475 
L 778.924992 416.75381 
L 772.135972 422.254981 
L 765.210308 427.621806 
L 758.144261 432.855301 
L 750.933875 437.956541 
L 743.57496 442.926273 
L 736.063068 447.765231 
L 728.393475 452.474223 
L 720.561155 457.054064 
L 712.560752 461.505615 
L 704.38655 465.829768 
L 696.032437 470.027417 
L 687.491867 474.099415 
L 678.757816 478.046667 
L 669.82273 481.870044 
L 660.67847 485.570389 
L 651.316243 489.148639 
L 641.72653 492.605759 
L 631.898996 495.942721 
L 621.822388 499.160476 
L 611.484422 502.259949 
L 600.871636 505.242055 
L 589.969233 508.107754 
L 578.760885 510.858173 
L 567.228499 513.494504 
L 555.351937 516.017581 
L 543.108674 518.428305 
L 530.473387 520.727695 
L 517.41743 522.916738 
L 503.908193 524.996413 
L 489.908282 526.967704 
L 475.374469 528.831575 
L 460.256326 530.588987 
L 444.494414 532.240904 
L 428.017838 533.788267 
L 410.740883 535.23199 
L 392.558245 536.57295 
L 373.338092 537.811999 
L 352.911592 538.949968 
L 331.05642 539.987628 
L 307.469393 540.92574 
L 281.717898 541.76491 
L 253.14571 542.505535 
L 220.666416 543.147218 
L 182.21759 543.689211 
L 132.759187 544.133514 
L 45.075868 544.527376 
L 45.075868 544.527376 
" clip-path="url(#p07f2dce18b)" style="fill: none; stroke: #ff0000; stroke-width: 1.5; stroke-linecap: square"/>
   </g>
   <g id="text_22">
    <g id="patch_23">
     <path d="M 437.64 485.561264 
L 571.231562 485.561264 
L 571.231562 431.714201 
L 437.64 431.714201 
z
" style="fill: #ffffff; opacity: 0.1; stroke: #ffffff; stroke-linejoin: miter"/>
    </g>
    <!-- Simulated -->
    <g style="fill: #2166ac" transform="translate(441.6 452.390764) scale(0.22 -0.22)">
     <defs>
      <path id="DejaVuSerif-Bold-53" d="M 494 225 
L 494 1331 
L 891 1331 
Q 981 806 1318 547 
Q 1656 288 2253 288 
Q 2738 288 2991 472 
Q 3244 656 3244 1013 
Q 3244 1294 3072 1450 
Q 2900 1606 2363 1741 
L 1663 1913 
Q 978 2088 700 2398 
Q 422 2709 422 3284 
Q 422 3978 883 4364 
Q 1344 4750 2175 4750 
Q 2584 4750 3026 4681 
Q 3469 4613 3944 4475 
L 3944 3444 
L 3547 3444 
Q 3456 3925 3150 4148 
Q 2844 4372 2278 4372 
Q 1816 4372 1580 4211 
Q 1344 4050 1344 3731 
Q 1344 3441 1506 3289 
Q 1669 3138 2303 2975 
L 3003 2803 
Q 3653 2641 3945 2297 
Q 4238 1953 4238 1350 
Q 4238 644 3750 276 
Q 3263 -91 2316 -91 
Q 1859 -91 1409 -12 
Q 959 66 494 225 
z
" transform="scale(0.015625)"/>
      <path id="DejaVuSerif-Bold-69" d="M 588 4263 
Q 588 4516 763 4689 
Q 938 4863 1191 4863 
Q 1438 4863 1611 4689 
Q 1784 4516 1784 4263 
Q 1784 4016 1611 3842 
Q 1438 3669 1191 3669 
Q 938 3669 763 3841 
Q 588 4013 588 4263 
z
M 1797 378 
L 2272 378 
L 2272 0 
L 219 0 
L 219 378 
L 691 378 
L 691 2944 
L 219 2944 
L 219 3322 
L 1797 3322 
L 1797 378 
z
" transform="scale(0.015625)"/>
      <path id="DejaVuSerif-Bold-6d" d="M 3884 2778 
Q 4116 3109 4384 3261 
Q 4653 3413 5013 3413 
Q 5584 3413 5867 3089 
Q 6150 2766 6150 2113 
L 6150 378 
L 6625 378 
L 6625 0 
L 4647 0 
L 4647 378 
L 5044 378 
L 5044 1947 
Q 5044 2569 4948 2731 
Q 4853 2894 4594 2894 
Q 4300 2894 4137 2667 
Q 3975 2441 3975 2022 
L 3975 378 
L 4372 378 
L 4372 0 
L 2472 0 
L 2472 378 
L 2869 378 
L 2869 1947 
Q 2869 2569 2772 2731 
Q 2675 2894 2419 2894 
Q 2122 2894 1959 2667 
Q 1797 2441 1797 2022 
L 1797 378 
L 2194 378 
L 2194 0 
L 219 0 
L 219 378 
L 691 378 
L 691 2944 
L 219 2944 
L 219 3322 
L 1797 3322 
L 1797 2853 
Q 1991 3144 2241 3278 
Q 2491 3413 2834 3413 
Q 3241 3413 3494 3258 
Q 3747 3103 3884 2778 
z
" transform="scale(0.015625)"/>
      <path id="DejaVuSerif-Bold-75" d="M 3963 3322 
L 3963 378 
L 4434 378 
L 4434 0 
L 2853 0 
L 2853 469 
Q 2656 172 2400 40 
Q 2144 -91 1753 -91 
Q 1194 -91 908 239 
Q 622 569 622 1209 
L 622 2944 
L 147 2944 
L 147 3322 
L 1728 3322 
L 1728 1381 
Q 1728 763 1831 595 
Q 1934 428 2209 428 
Q 2544 428 2698 675 
Q 2853 922 2853 1459 
L 2853 2944 
L 2450 2944 
L 2450 3322 
L 3963 3322 
z
" transform="scale(0.015625)"/>
      <path id="DejaVuSerif-Bold-6c" d="M 1797 378 
L 2272 378 
L 2272 0 
L 219 0 
L 219 378 
L 691 378 
L 691 4488 
L 219 4488 
L 219 4863 
L 1797 4863 
L 1797 378 
z
" transform="scale(0.015625)"/>
      <path id="DejaVuSerif-Bold-61" d="M 3525 2041 
L 3525 378 
L 4000 378 
L 4000 0 
L 2419 0 
L 2419 422 
Q 2200 159 1931 34 
Q 1663 -91 1319 -91 
Q 809 -91 536 182 
Q 263 456 263 966 
Q 263 1525 655 1803 
Q 1047 2081 1838 2081 
L 2419 2081 
L 2419 2278 
Q 2419 2681 2228 2873 
Q 2038 3066 1638 3066 
Q 1306 3066 1126 2930 
Q 947 2794 872 2484 
L 519 2484 
L 519 3200 
Q 816 3306 1134 3359 
Q 1453 3413 1806 3413 
Q 2697 3413 3111 3081 
Q 3525 2750 3525 2041 
z
M 2419 1044 
L 2419 1709 
L 2003 1709 
Q 1694 1709 1528 1540 
Q 1363 1372 1363 1056 
Q 1363 741 1483 584 
Q 1603 428 1850 428 
Q 2106 428 2262 597 
Q 2419 766 2419 1044 
z
" transform="scale(0.015625)"/>
      <path id="DejaVuSerif-Bold-74" d="M 634 2944 
L 153 2944 
L 153 3322 
L 634 3322 
L 634 4353 
L 1741 4353 
L 1741 3322 
L 2663 3322 
L 2663 2944 
L 1741 2944 
L 1741 909 
Q 1741 475 1809 369 
Q 1878 263 2059 263 
Q 2259 263 2356 397 
Q 2453 531 2459 813 
L 2925 813 
Q 2897 313 2651 111 
Q 2406 -91 1806 -91 
Q 1122 -91 878 123 
Q 634 338 634 909 
L 634 2944 
z
" transform="scale(0.015625)"/>
      <path id="DejaVuSerif-Bold-64" d="M 2747 1497 
L 2747 1825 
Q 2747 2406 2597 2665 
Q 2447 2925 2119 2925 
Q 1775 2925 1636 2651 
Q 1497 2378 1497 1663 
Q 1497 947 1637 672 
Q 1778 397 2119 397 
Q 2447 397 2597 656 
Q 2747 916 2747 1497 
z
M 3853 378 
L 4325 378 
L 4325 0 
L 2747 0 
L 2747 422 
Q 2606 163 2367 36 
Q 2128 -91 1778 -91 
Q 1072 -91 667 378 
Q 263 847 263 1663 
Q 263 2481 667 2947 
Q 1072 3413 1778 3413 
Q 2128 3413 2367 3286 
Q 2606 3159 2747 2900 
L 2747 4488 
L 2272 4488 
L 2272 4863 
L 3853 4863 
L 3853 378 
z
" transform="scale(0.015625)"/>
     </defs>
     <use xlink:href="#DejaVuSerif-Bold-53"/>
     <use xlink:href="#DejaVuSerif-Bold-69" x="72.216797"/>
     <use xlink:href="#DejaVuSerif-Bold-6d" x="110.205078"/>
     <use xlink:href="#DejaVuSerif-Bold-75" x="216.015625"/>
     <use xlink:href="#DejaVuSerif-Bold-6c" x="288.720703"/>
     <use xlink:href="#DejaVuSerif-Bold-61" x="326.708984"/>
     <use xlink:href="#DejaVuSerif-Bold-74" x="391.503906"/>
     <use xlink:href="#DejaVuSerif-Bold-65" x="437.695312"/>
     <use xlink:href="#DejaVuSerif-Bold-64" x="501.318359"/>
    </g>
    <!-- 0.01 pc -->
    <g style="fill: #2166ac" transform="translate(441.6 477.025951) scale(0.22 -0.22)">
     <defs>
      <path id="DejaVuSerif-Bold-20" transform="scale(0.015625)"/>
      <path id="DejaVuSerif-Bold-63" d="M 3609 1038 
Q 3491 469 3123 189 
Q 2756 -91 2125 -91 
Q 1238 -91 750 368 
Q 263 828 263 1663 
Q 263 2488 744 2950 
Q 1225 3413 2081 3413 
Q 2428 3413 2781 3347 
Q 3134 3281 3500 3150 
L 3500 2228 
L 3150 2228 
Q 3100 2650 2903 2854 
Q 2706 3059 2350 3059 
Q 1888 3059 1692 2746 
Q 1497 2434 1497 1663 
Q 1497 909 1687 586 
Q 1878 263 2309 263 
Q 2644 263 2845 463 
Q 3047 663 3091 1038 
L 3609 1038 
z
" transform="scale(0.015625)"/>
     </defs>
     <use xlink:href="#DejaVuSerif-Bold-30"/>
     <use xlink:href="#DejaVuSerif-Bold-2e" x="69.580078"/>
     <use xlink:href="#DejaVuSerif-Bold-30" x="104.394531"/>
     <use xlink:href="#DejaVuSerif-Bold-31" x="173.974609"/>
     <use xlink:href="#DejaVuSerif-Bold-20" x="243.554688"/>
     <use xlink:href="#DejaVuSerif-Bold-70" x="278.369141"/>
     <use xlink:href="#DejaVuSerif-Bold-63" x="348.291016"/>
    </g>
   </g>
   <g id="text_23">
    <g id="patch_24">
     <path d="M 735.24 449.129965 
L 868.831562 449.129965 
L 868.831562 395.282902 
L 735.24 395.282902 
z
" style="fill: #ffffff; opacity: 0.1; stroke: #ffffff; stroke-linejoin: miter"/>
    </g>
    <!-- Simulated -->
    <g style="fill: #ff0000" transform="translate(739.2 415.959465) scale(0.22 -0.22)">
     <use xlink:href="#DejaVuSerif-Bold-53"/>
     <use xlink:href="#DejaVuSerif-Bold-69" x="72.216797"/>
     <use xlink:href="#DejaVuSerif-Bold-6d" x="110.205078"/>
     <use xlink:href="#DejaVuSerif-Bold-75" x="216.015625"/>
     <use xlink:href="#DejaVuSerif-Bold-6c" x="288.720703"/>
     <use xlink:href="#DejaVuSerif-Bold-61" x="326.708984"/>
     <use xlink:href="#DejaVuSerif-Bold-74" x="391.503906"/>
     <use xlink:href="#DejaVuSerif-Bold-65" x="437.695312"/>
     <use xlink:href="#DejaVuSerif-Bold-64" x="501.318359"/>
    </g>
    <!-- 0.03 pc -->
    <g style="fill: #ff0000" transform="translate(739.2 440.594652) scale(0.22 -0.22)">
     <use xlink:href="#DejaVuSerif-Bold-30"/>
     <use xlink:href="#DejaVuSerif-Bold-2e" x="69.580078"/>
     <use xlink:href="#DejaVuSerif-Bold-30" x="104.394531"/>
     <use xlink:href="#DejaVuSerif-Bold-33" x="173.974609"/>
     <use xlink:href="#DejaVuSerif-Bold-20" x="243.554688"/>
     <use xlink:href="#DejaVuSerif-Bold-70" x="278.369141"/>
     <use xlink:href="#DejaVuSerif-Bold-63" x="348.291016"/>
    </g>
   </g>
   <g id="patch_25">
    <path d="M 144 544.68 
L 144 73.44 
" style="fill: none; stroke: #000000; stroke-width: 0.8; stroke-linejoin: miter; stroke-linecap: square"/>
   </g>
   <g id="patch_26">
    <path d="M 1036.8 544.68 
L 1036.8 73.44 
" style="fill: none; stroke: #000000; stroke-width: 0.8; stroke-linejoin: miter; stroke-linecap: square"/>
   </g>
   <g id="patch_27">
    <path d="M 144 544.68 
L 1036.8 544.68 
" style="fill: none; stroke: #000000; stroke-width: 0.8; stroke-linejoin: miter; stroke-linecap: square"/>
   </g>
   <g id="patch_28">
    <path d="M 144 73.44 
L 1036.8 73.44 
" style="fill: none; stroke: #000000; stroke-width: 0.8; stroke-linejoin: miter; stroke-linecap: square"/>
   </g>
   <g id="text_24">
    <!-- Observed (a&lt;0.03 pc, 0.75'') -->
    <g transform="translate(413.916279 314.296) scale(0.22 -0.22)">
     <defs>
      <path id="DejaVuSerif-Bold-4f" d="M 2784 288 
Q 3381 288 3672 791 
Q 3963 1294 3963 2328 
Q 3963 3366 3672 3869 
Q 3381 4372 2784 4372 
Q 2191 4372 1898 3864 
Q 1606 3356 1606 2328 
Q 1606 1303 1898 795 
Q 2191 288 2784 288 
z
M 2784 -91 
Q 1606 -91 937 553 
Q 269 1197 269 2328 
Q 269 3459 939 4104 
Q 1609 4750 2784 4750 
Q 3963 4750 4631 4106 
Q 5300 3463 5300 2328 
Q 5300 1197 4629 553 
Q 3959 -91 2784 -91 
z
" transform="scale(0.015625)"/>
      <path id="DejaVuSerif-Bold-62" d="M 622 378 
L 622 4488 
L 147 4488 
L 147 4863 
L 1728 4863 
L 1728 2900 
Q 1869 3159 2106 3286 
Q 2344 3413 2694 3413 
Q 3403 3413 3811 2945 
Q 4219 2478 4219 1663 
Q 4219 847 3811 378 
Q 3403 -91 2694 -91 
Q 2344 -91 2106 36 
Q 1869 163 1728 422 
L 1728 0 
L 147 0 
L 147 378 
L 622 378 
z
M 1728 1497 
Q 1728 916 1876 656 
Q 2025 397 2356 397 
Q 2697 397 2836 672 
Q 2975 947 2975 1663 
Q 2975 2378 2836 2651 
Q 2697 2925 2356 2925 
Q 2025 2925 1876 2665 
Q 1728 2406 1728 1825 
L 1728 1497 
z
" transform="scale(0.015625)"/>
      <path id="DejaVuSerif-Bold-73" d="M 300 97 
L 300 1025 
L 653 1025 
Q 697 653 931 458 
Q 1166 263 1569 263 
Q 1906 263 2086 380 
Q 2266 497 2266 716 
Q 2266 916 2152 1025 
Q 2038 1134 1709 1216 
L 1253 1331 
Q 738 1459 506 1698 
Q 275 1938 275 2344 
Q 275 2884 650 3148 
Q 1025 3413 1806 3413 
Q 2100 3413 2433 3364 
Q 2766 3316 3169 3213 
L 3169 2375 
L 2816 2375 
Q 2788 2716 2573 2887 
Q 2359 3059 1959 3059 
Q 1622 3059 1448 2951 
Q 1275 2844 1275 2638 
Q 1275 2469 1375 2372 
Q 1475 2275 1734 2209 
L 2188 2094 
Q 2841 1928 3091 1684 
Q 3341 1441 3341 1006 
Q 3341 444 2939 176 
Q 2538 -91 1691 -91 
Q 1381 -91 1034 -44 
Q 688 3 300 97 
z
" transform="scale(0.015625)"/>
      <path id="DejaVuSerif-Bold-72" d="M 3438 3359 
L 3438 2369 
L 3084 2369 
Q 3066 2634 2941 2764 
Q 2816 2894 2578 2894 
Q 2216 2894 2006 2575 
Q 1797 2256 1797 1691 
L 1797 378 
L 2400 378 
L 2400 0 
L 219 0 
L 219 378 
L 691 378 
L 691 2944 
L 184 2944 
L 184 3322 
L 1797 3322 
L 1797 2731 
Q 1959 3078 2226 3245 
Q 2494 3413 2881 3413 
Q 2978 3413 3117 3398 
Q 3256 3384 3438 3359 
z
" transform="scale(0.015625)"/>
      <path id="DejaVuSerif-Bold-76" d="M 1428 0 
L 250 2944 
L -116 2944 
L -116 3322 
L 1791 3322 
L 1791 2944 
L 1388 2944 
L 2228 844 
L 3066 2944 
L 2631 2944 
L 2631 3322 
L 3878 3322 
L 3878 2944 
L 3494 2944 
L 2316 0 
L 1428 0 
z
" transform="scale(0.015625)"/>
      <path id="DejaVuSerif-Bold-3c" d="M 4684 3059 
L 1625 2003 
L 4684 953 
L 4684 206 
L 678 1656 
L 678 2363 
L 4684 3809 
L 4684 3059 
z
" transform="scale(0.015625)"/>
      <path id="DejaVuSerif-Bold-2c" d="M 84 -616 
Q 409 -353 562 -28 
Q 716 297 716 728 
L 716 997 
L 1606 997 
L 1606 972 
Q 1606 281 1317 -217 
Q 1028 -716 428 -1056 
L 84 -616 
z
" transform="scale(0.015625)"/>
      <path id="DejaVuSerif-Bold-27" d="M 1350 4666 
L 1350 2931 
L 609 2931 
L 609 4666 
L 1350 4666 
z
" transform="scale(0.015625)"/>
     </defs>
     <use xlink:href="#DejaVuSerif-Bold-4f"/>
     <use xlink:href="#DejaVuSerif-Bold-62" x="87.109375"/>
     <use xlink:href="#DejaVuSerif-Bold-73" x="157.03125"/>
     <use xlink:href="#DejaVuSerif-Bold-65" x="213.330078"/>
     <use xlink:href="#DejaVuSerif-Bold-72" x="276.953125"/>
     <use xlink:href="#DejaVuSerif-Bold-76" x="329.638672"/>
     <use xlink:href="#DejaVuSerif-Bold-65" x="387.744141"/>
     <use xlink:href="#DejaVuSerif-Bold-64" x="451.367188"/>
     <use xlink:href="#DejaVuSerif-Bold-20" x="521.289062"/>
     <use xlink:href="#DejaVuSerif-Bold-28" x="556.103516"/>
     <use xlink:href="#DejaVuSerif-Bold-61" x="603.417969"/>
     <use xlink:href="#DejaVuSerif-Bold-3c" x="668.212891"/>
     <use xlink:href="#DejaVuSerif-Bold-30" x="752.001953"/>
     <use xlink:href="#DejaVuSerif-Bold-2e" x="821.582031"/>
     <use xlink:href="#DejaVuSerif-Bold-30" x="856.396484"/>
     <use xlink:href="#DejaVuSerif-Bold-33" x="925.976562"/>
     <use xlink:href="#DejaVuSerif-Bold-20" x="995.556641"/>
     <use xlink:href="#DejaVuSerif-Bold-70" x="1030.371094"/>
     <use xlink:href="#DejaVuSerif-Bold-63" x="1100.292969"/>
     <use xlink:href="#DejaVuSerif-Bold-2c" x="1161.181641"/>
     <use xlink:href="#DejaVuSerif-Bold-20" x="1195.996094"/>
     <use xlink:href="#DejaVuSerif-Bold-30" x="1230.810547"/>
     <use xlink:href="#DejaVuSerif-Bold-2e" x="1300.390625"/>
     <use xlink:href="#DejaVuSerif-Bold-37" x="1335.205078"/>
     <use xlink:href="#DejaVuSerif-Bold-35" x="1404.785156"/>
     <use xlink:href="#DejaVuSerif-Bold-27" x="1474.365234"/>
     <use xlink:href="#DejaVuSerif-Bold-27" x="1504.980469"/>
     <use xlink:href="#DejaVuSerif-Bold-29" x="1535.595703"/>
    </g>
   </g>
   <g id="legend_1">
    <g id="patch_29">
     <path d="M 940.9075 134.644687 
L 1021.4 134.644687 
Q 1025.8 134.644687 1025.8 130.244687 
L 1025.8 88.84 
Q 1025.8 84.44 1021.4 84.44 
L 940.9075 84.44 
Q 936.5075 84.44 936.5075 88.84 
L 936.5075 130.244687 
Q 936.5075 134.644687 940.9075 134.644687 
z
" style="fill: #ffffff; opacity: 0.8; stroke: #cccccc; stroke-linejoin: miter"/>
    </g>
    <g id="text_25">
     <!-- 6 Myr -->
     <g transform="translate(945.3075 109.956562) scale(0.22 -0.22)">
      <defs>
       <path id="DejaVuSerif-Bold-4d" d="M 269 0 
L 269 378 
L 863 378 
L 863 4288 
L 269 4288 
L 269 4666 
L 2194 4666 
L 3525 1672 
L 4863 4666 
L 6784 4666 
L 6784 4288 
L 6188 4288 
L 6188 378 
L 6784 378 
L 6784 0 
L 4384 0 
L 4384 378 
L 4978 378 
L 4978 3938 
L 3531 684 
L 2741 684 
L 1300 3938 
L 1300 378 
L 1894 378 
L 1894 0 
L 269 0 
z
" transform="scale(0.015625)"/>
       <path id="DejaVuSerif-Bold-79" d="M 1997 -750 
Q 1847 -1116 1634 -1269 
Q 1422 -1422 1063 -1422 
Q 909 -1422 721 -1387 
Q 534 -1353 313 -1288 
L 313 -594 
L 666 -597 
Q 675 -838 779 -953 
Q 884 -1069 1094 -1069 
Q 1297 -1069 1422 -958 
Q 1547 -847 1672 -538 
L 1722 -422 
L 275 2944 
L -84 2944 
L -84 3322 
L 1831 3322 
L 1831 2944 
L 1434 2944 
L 2278 978 
L 3066 2944 
L 2625 2944 
L 2625 3322 
L 3872 3322 
L 3872 2944 
L 3469 2944 
L 1997 -750 
z
" transform="scale(0.015625)"/>
      </defs>
      <use xlink:href="#DejaVuSerif-Bold-36"/>
      <use xlink:href="#DejaVuSerif-Bold-20" x="69.580078"/>
      <use xlink:href="#DejaVuSerif-Bold-4d" x="104.394531"/>
      <use xlink:href="#DejaVuSerif-Bold-79" x="215.087891"/>
      <use xlink:href="#DejaVuSerif-Bold-72" x="273.193359"/>
     </g>
    </g>
   </g>
  </g>
 </g>
 <defs>
  <clipPath id="p07f2dce18b">
   <rect x="144" y="73.44" width="892.8" height="471.24"/>
  </clipPath>
 </defs>
</svg>
