<?xml version="1.0" encoding="utf-8" standalone="no"?>
<!DOCTYPE svg PUBLIC "-//W3C//DTD SVG 1.1//EN"
  "http://www.w3.org/Graphics/SVG/1.1/DTD/svg11.dtd">
<!-- Created with matplotlib (https://matplotlib.org/) -->
<svg height="661.244531pt" version="1.1" viewBox="0 0 1146.620312 661.244531" width="1146.620312pt" xmlns="http://www.w3.org/2000/svg" xmlns:xlink="http://www.w3.org/1999/xlink">
 <defs>
  <style type="text/css">
*{stroke-linecap:butt;stroke-linejoin:round;}
  </style>
 </defs>
 <g id="figure_1">
  <g id="patch_1">
   <path d="M 0 661.244531 
L 1146.620312 661.244531 
L 1146.620312 0 
L 0 0 
z
" style="fill:#ffffff;"/>
  </g>
  <g id="axes_1">
   <g id="patch_2">
    <path d="M 98.905313 596.218281 
L 909.217312 596.218281 
L 909.217312 15.558281 
L 98.905313 15.558281 
z
" style="fill:#ffffff;"/>
   </g>
   <g id="PathCollection_1">
    <path clip-path="url(#paa1b5416f5)" d="M 48.260813 779.018652 
L 149.549812 779.018652 
L 250.838812 779.018652 
L 352.127812 779.018652 
L 453.416812 779.018652 
L 554.705812 779.018652 
L 655.994812 779.018652 
L 757.283812 779.018652 
L 858.572812 779.018652 
L 959.861812 779.018652 
L 1061.150812 779.018652 
L 1061.150812 757.512726 
L 1061.150812 736.0068 
L 1061.150812 714.500874 
L 1061.150812 692.994948 
L 1061.150812 671.489022 
L 1061.150812 649.983096 
L 1061.150812 628.47717 
L 1061.150812 606.971244 
L 1061.150812 585.465318 
L 1061.150812 563.959392 
L 1061.150812 542.453466 
L 1061.150812 520.947541 
L 1061.150812 499.441615 
L 1061.150812 477.935689 
L 1061.150812 456.429763 
L 1061.150812 434.923837 
L 1061.150812 413.417911 
L 1061.150812 391.911985 
L 1061.150812 370.406059 
L 1061.150812 348.900133 
L 1061.150812 327.394207 
L 1061.150812 305.888281 
L 1061.150812 284.382355 
L 1061.150812 262.876429 
L 1061.150812 241.370503 
L 1061.150812 219.864578 
L 1061.150812 198.358652 
L 1061.150812 176.852726 
L 1061.150812 155.3468 
L 1061.150812 133.840874 
L 1061.150812 112.334948 
L 1061.150812 90.829022 
L 1061.150812 69.323096 
L 1061.150812 47.81717 
L 1061.150812 26.311244 
L 1061.150812 4.805318 
L 1061.150812 -16.700608 
L 1061.150812 -38.206534 
L 1061.150812 -59.712459 
L 1061.150812 -81.218385 
L 1061.150812 -102.724311 
L 1061.150812 -124.230237 
L 1061.150812 -145.736163 
L 1061.150812 -167.242089 
L 1061.150812 -188.748015 
L 959.861812 -188.748015 
L 858.572812 -188.748015 
L 757.283812 -188.748015 
L 655.994812 -188.748015 
L 554.705812 -188.748015 
L 453.416812 -188.748015 
L 352.127812 -188.748015 
L 250.838812 -188.748015 
L 149.549812 -188.748015 
L 48.260813 -188.748015 
L -53.028188 -188.748015 
L -53.028188 -167.242089 
L -53.028188 -145.736163 
L -53.028188 -124.230237 
L -53.028188 -102.724311 
L -53.028188 -81.218385 
L -53.028188 -59.712459 
L -53.028188 -38.206534 
L -53.028188 -16.700608 
L -53.028188 4.805318 
L -53.028188 26.311244 
L -53.028188 47.81717 
L -53.028188 69.323096 
L -53.028188 90.829022 
L -53.028188 112.334948 
L -53.028188 133.840874 
L -53.028188 155.3468 
L -53.028188 176.852726 
L -53.028188 198.358652 
L -53.028188 219.864578 
L -53.028188 241.370503 
L -53.028188 262.876429 
L -53.028188 284.382355 
L -53.028188 305.888281 
L -53.028188 327.394207 
L -53.028188 348.900133 
L -53.028188 370.406059 
L -53.028188 391.911985 
L -53.028188 413.417911 
L -53.028188 434.923837 
L -53.028188 456.429763 
L -53.028188 477.935689 
L -53.028188 499.441615 
L -53.028188 520.947541 
L -53.028188 542.453466 
L -53.028188 563.959392 
L -53.028188 585.465318 
L -53.028188 606.971244 
L -53.028188 628.47717 
L -53.028188 649.983096 
L -53.028188 671.489022 
L -53.028188 692.994948 
L -53.028188 714.500874 
L -53.028188 736.0068 
L -53.028188 757.512726 
L -53.028188 779.018652 
z
M 544.806636 606.971244 
L 453.416812 600.806163 
L 352.127812 587.686806 
L 341.461204 585.465318 
L 290.483421 563.959392 
L 270.647866 542.453466 
L 253.242592 520.947541 
L 250.838812 510.639515 
L 244.616033 499.441615 
L 250.838812 485.577039 
L 252.338383 477.935689 
L 250.838812 470.27334 
L 242.473308 456.429763 
L 216.97735 434.923837 
L 215.54923 413.417911 
L 213.79482 391.911985 
L 213.268656 370.406059 
L 217.89514 348.900133 
L 219.584504 327.394207 
L 230.802645 305.888281 
L 244.070134 284.382355 
L 236.459351 262.876429 
L 230.293312 241.370503 
L 250.838812 220.092015 
L 250.941306 219.864578 
L 262.162035 198.358652 
L 271.014415 176.852726 
L 288.46081 155.3468 
L 339.884124 133.840874 
L 352.127812 130.756168 
L 431.182838 112.334948 
L 453.416812 108.272547 
L 554.705812 91.130875 
L 556.7055 90.829022 
L 655.994812 71.776082 
L 676.693411 69.323096 
L 757.283812 58.519733 
L 848.214547 69.323096 
L 858.572812 71.153466 
L 893.955428 90.829022 
L 920.674504 112.334948 
L 952.770184 133.840874 
L 959.861812 137.530324 
L 1000.893883 155.3468 
L 1027.487601 176.852726 
L 1034.714126 198.358652 
L 1032.08374 219.864578 
L 1029.267206 241.370503 
L 1029.260095 262.876429 
L 1027.582954 284.382355 
L 1024.031984 305.888281 
L 1020.016629 327.394207 
L 1017.871174 348.900133 
L 1015.193863 370.406059 
L 1013.213171 391.911985 
L 1014.877666 413.417911 
L 1014.270872 434.923837 
L 1005.980794 456.429763 
L 985.323884 477.935689 
L 966.213127 499.441615 
L 959.861812 508.465396 
L 955.826781 520.947541 
L 943.116802 542.453466 
L 913.323625 563.959392 
L 858.572812 582.755617 
L 849.813999 585.465318 
L 757.283812 603.816708 
L 698.386257 606.971244 
L 655.994812 610.27499 
L 554.705812 607.744391 
z
" style="fill:#48186a;"/>
   </g>
   <g id="PathCollection_2">
    <path clip-path="url(#paa1b5416f5)" d="M 554.705812 607.744391 
L 655.994813 610.27499 
L 698.386257 606.971244 
L 757.283812 603.816708 
L 849.813999 585.465318 
L 858.572812 582.755617 
L 913.323625 563.959392 
L 943.116802 542.453466 
L 955.826781 520.947541 
L 959.861812 508.465396 
L 966.213127 499.441615 
L 985.323884 477.935689 
L 1005.980794 456.429763 
L 1014.270872 434.923837 
L 1014.877666 413.417911 
L 1013.213171 391.911985 
L 1015.193863 370.406059 
L 1017.871174 348.900133 
L 1020.016629 327.394207 
L 1024.031984 305.888281 
L 1027.582954 284.382355 
L 1029.260095 262.876429 
L 1029.267206 241.370503 
L 1032.08374 219.864578 
L 1034.714126 198.358652 
L 1027.487601 176.852726 
L 1000.893883 155.3468 
L 959.861812 137.530324 
L 952.770184 133.840874 
L 920.674504 112.334948 
L 893.955428 90.829022 
L 858.572812 71.153466 
L 848.214547 69.323096 
L 757.283812 58.519733 
L 676.693411 69.323096 
L 655.994812 71.776082 
L 556.7055 90.829022 
L 554.705812 91.130875 
L 453.416812 108.272547 
L 431.182838 112.334948 
L 352.127812 130.756168 
L 339.884124 133.840874 
L 288.46081 155.3468 
L 271.014415 176.852726 
L 262.162035 198.358652 
L 250.941306 219.864578 
L 250.838812 220.092015 
L 230.293312 241.370503 
L 236.459351 262.876429 
L 244.070134 284.382355 
L 230.802645 305.888281 
L 219.584504 327.394207 
L 217.89514 348.900133 
L 213.268656 370.406059 
L 213.79482 391.911985 
L 215.54923 413.417911 
L 216.97735 434.923837 
L 242.473308 456.429763 
L 250.838812 470.27334 
L 252.338383 477.935689 
L 250.838812 485.577039 
L 244.616033 499.441615 
L 250.838812 510.639515 
L 253.242592 520.947541 
L 270.647866 542.453466 
L 290.483421 563.959392 
L 341.461204 585.465318 
L 352.127812 587.686806 
L 453.416812 600.806163 
L 544.806636 606.971244 
z
M 534.664441 585.465318 
L 453.416812 572.936685 
L 415.822726 563.959392 
L 376.499027 542.453466 
L 358.120554 520.947541 
L 352.73004 499.441615 
L 359.22952 477.935689 
L 363.234188 456.429763 
L 356.818618 434.923837 
L 352.127812 425.751931 
L 341.508459 413.417911 
L 332.616146 391.911985 
L 330.708979 370.406059 
L 330.930263 348.900133 
L 341.683834 327.394207 
L 352.127812 312.826974 
L 355.041186 305.888281 
L 355.249006 284.382355 
L 352.127812 265.42219 
L 351.36234 262.876429 
L 345.069832 241.370503 
L 352.127812 221.299161 
L 352.440182 219.864578 
L 366.855702 198.358652 
L 386.730216 176.852726 
L 420.325523 155.3468 
L 453.416812 144.870617 
L 491.929183 133.840874 
L 554.705812 121.446066 
L 623.37101 112.334948 
L 655.994812 106.984679 
L 757.283812 102.444704 
L 799.572414 112.334948 
L 858.572812 124.584728 
L 880.730815 133.840874 
L 934.575505 155.3468 
L 959.861812 172.942738 
L 966.922318 176.852726 
L 981.055168 198.358652 
L 975.991415 219.864578 
L 970.489268 241.370503 
L 970.433207 262.876429 
L 967.250618 284.382355 
L 960.473514 305.888281 
L 959.861812 307.739731 
L 956.182869 327.394207 
L 954.530354 348.900133 
L 952.366822 370.406059 
L 950.33979 391.911985 
L 951.283956 413.417911 
L 950.057258 434.923837 
L 941.636262 456.429763 
L 923.974498 477.935689 
L 911.05157 499.441615 
L 901.560855 520.947541 
L 879.816351 542.453466 
L 858.572812 552.630078 
L 834.916385 563.959392 
L 757.283812 584.687066 
L 748.070096 585.465318 
L 655.994812 592.837488 
L 554.705812 587.794289 
z
" style="fill:#424086;"/>
   </g>
   <g id="PathCollection_3">
    <path clip-path="url(#paa1b5416f5)" d="M 554.705812 587.794289 
L 655.994812 592.837488 
L 748.070096 585.465318 
L 757.283812 584.687066 
L 834.916385 563.959392 
L 858.572812 552.630078 
L 879.816351 542.453466 
L 901.560855 520.947541 
L 911.05157 499.441615 
L 923.974498 477.935689 
L 941.636262 456.429763 
L 950.057258 434.923837 
L 951.283956 413.417911 
L 950.33979 391.911985 
L 952.366822 370.406059 
L 954.530354 348.900133 
L 956.182869 327.394207 
L 959.861812 307.739731 
L 960.473514 305.888281 
L 967.250618 284.382355 
L 970.433207 262.876429 
L 970.489268 241.370503 
L 975.991415 219.864578 
L 981.055168 198.358652 
L 966.922318 176.852726 
L 959.861812 172.942738 
L 934.575505 155.3468 
L 880.730815 133.840874 
L 858.572812 124.584728 
L 799.572414 112.334948 
L 757.283812 102.444704 
L 655.994813 106.984679 
L 623.37101 112.334948 
L 554.705812 121.446066 
L 491.929183 133.840874 
L 453.416812 144.870617 
L 420.325523 155.3468 
L 386.730216 176.852726 
L 366.855702 198.358652 
L 352.440182 219.864578 
L 352.127812 221.299161 
L 345.069832 241.370503 
L 351.36234 262.876429 
L 352.127812 265.42219 
L 355.249006 284.382355 
L 355.041186 305.888281 
L 352.127812 312.826974 
L 341.683834 327.394207 
L 330.930263 348.900133 
L 330.708979 370.406059 
L 332.616146 391.911985 
L 341.508459 413.417911 
L 352.127812 425.751931 
L 356.818618 434.923837 
L 363.234188 456.429763 
L 359.22952 477.935689 
L 352.73004 499.441615 
L 358.120554 520.947541 
L 376.499027 542.453466 
L 415.822726 563.959392 
L 453.416812 572.936685 
L 534.664441 585.465318 
z
M 515.029926 563.959392 
L 453.416812 543.050456 
L 452.004357 542.453466 
L 421.446951 520.947541 
L 411.215913 499.441615 
L 416.901408 477.935689 
L 423.538779 456.429763 
L 419.986238 434.923837 
L 407.079111 413.417911 
L 399.624531 391.911985 
L 398.977166 370.406059 
L 400.897674 348.900133 
L 411.263253 327.394207 
L 418.049526 305.888281 
L 413.820866 284.382355 
L 412.236188 262.876429 
L 411.69818 241.370503 
L 416.864809 219.864578 
L 436.501639 198.358652 
L 453.416812 186.005953 
L 464.983358 176.852726 
L 507.332524 155.3468 
L 554.705812 143.098099 
L 610.39002 133.840874 
L 655.994812 127.087038 
L 757.283812 126.226604 
L 793.670678 133.840874 
L 858.572812 145.572828 
L 886.376698 155.3468 
L 927.575073 176.852726 
L 939.742225 198.358652 
L 935.681596 219.864578 
L 931.228184 241.370503 
L 931.184613 262.876429 
L 929.098051 284.382355 
L 924.523801 305.888281 
L 920.174182 327.394207 
L 919.441746 348.900133 
L 917.541412 370.406059 
L 914.369566 391.911985 
L 914.140836 413.417911 
L 911.02586 434.923837 
L 899.16769 456.429763 
L 875.883191 477.935689 
L 859.468478 499.441615 
L 858.572812 501.099856 
L 848.974901 520.947541 
L 825.12174 542.453466 
L 771.598173 563.959392 
L 757.283812 567.781285 
L 655.994812 577.844063 
L 554.705812 570.921841 
z
" style="fill:#33638d;"/>
   </g>
   <g id="PathCollection_4">
    <path clip-path="url(#paa1b5416f5)" d="M 554.705812 570.921841 
L 655.994812 577.844063 
L 757.283812 567.781285 
L 771.598173 563.959392 
L 825.12174 542.453466 
L 848.974901 520.947541 
L 858.572812 501.099856 
L 859.468478 499.441615 
L 875.883191 477.935689 
L 899.16769 456.429763 
L 911.02586 434.923837 
L 914.140836 413.417911 
L 914.369566 391.911985 
L 917.541412 370.406059 
L 919.441746 348.900133 
L 920.174182 327.394207 
L 924.523801 305.888281 
L 929.098051 284.382355 
L 931.184613 262.876429 
L 931.228184 241.370503 
L 935.681596 219.864578 
L 939.742225 198.358652 
L 927.575073 176.852726 
L 886.376698 155.3468 
L 858.572812 145.572828 
L 793.670678 133.840874 
L 757.283812 126.226604 
L 655.994812 127.087038 
L 610.39002 133.840874 
L 554.705812 143.098099 
L 507.332524 155.3468 
L 464.983358 176.852726 
L 453.416812 186.005953 
L 436.501639 198.358652 
L 416.864809 219.864578 
L 411.69818 241.370503 
L 412.236188 262.876429 
L 413.820866 284.382355 
L 418.049526 305.888281 
L 411.263253 327.394207 
L 400.897674 348.900133 
L 398.977166 370.406059 
L 399.624531 391.911985 
L 407.079111 413.417911 
L 419.986238 434.923837 
L 423.538779 456.429763 
L 416.901408 477.935689 
L 411.215913 499.441615 
L 421.446951 520.947541 
L 452.004357 542.453466 
L 453.416812 543.050456 
L 515.029926 563.959392 
z
M 520.014095 542.453466 
L 482.793384 520.947541 
L 469.155357 499.441615 
L 472.657325 477.935689 
L 478.508722 456.429763 
L 477.431186 434.923837 
L 466.249364 413.417911 
L 458.276604 391.911985 
L 458.082135 370.406059 
L 461.737848 348.900133 
L 471.484732 327.394207 
L 473.803128 305.888281 
L 468.721359 284.382355 
L 470.194787 262.876429 
L 472.600095 241.370503 
L 477.711517 219.864578 
L 497.645083 198.358652 
L 529.253695 176.852726 
L 554.705812 166.179045 
L 591.324006 155.3468 
L 655.994812 143.951714 
L 757.283812 142.491492 
L 826.4035 155.3468 
L 858.572812 162.28722 
L 891.027765 176.852726 
L 906.488688 198.358652 
L 901.741851 219.864578 
L 896.274732 241.370503 
L 896.225061 262.876429 
L 894.040895 284.382355 
L 888.842382 305.888281 
L 884.165494 327.394207 
L 884.353137 348.900133 
L 882.716002 370.406059 
L 878.399341 391.911985 
L 876.997716 413.417911 
L 871.994461 434.923837 
L 858.572812 453.984242 
L 856.326793 456.429763 
L 827.333437 477.935689 
L 812.564701 499.441615 
L 802.792522 520.947541 
L 774.774058 542.453466 
L 757.283812 549.116091 
L 655.994812 563.682817 
L 554.705812 552.545805 
z
" style="fill:#26828e;"/>
   </g>
   <g id="PathCollection_5">
    <path clip-path="url(#paa1b5416f5)" d="M 554.705812 552.545805 
L 655.994812 563.682817 
L 757.283812 549.116091 
L 774.774058 542.453466 
L 802.792522 520.947541 
L 812.564701 499.441615 
L 827.333437 477.935689 
L 856.326793 456.429763 
L 858.572812 453.984242 
L 871.994461 434.923837 
L 876.997716 413.417911 
L 878.399341 391.911985 
L 882.716002 370.406059 
L 884.353137 348.900133 
L 884.165494 327.394207 
L 888.842382 305.888281 
L 894.040895 284.382355 
L 896.225061 262.876429 
L 896.274732 241.370503 
L 901.741851 219.864578 
L 906.488688 198.358652 
L 891.027765 176.852726 
L 858.572812 162.28722 
L 826.4035 155.3468 
L 757.283812 142.491492 
L 655.994812 143.951714 
L 591.324006 155.3468 
L 554.705812 166.179045 
L 529.253695 176.852726 
L 497.645083 198.358652 
L 477.711517 219.864578 
L 472.600095 241.370503 
L 470.194787 262.876429 
L 468.721359 284.382355 
L 473.803128 305.888281 
L 471.484732 327.394207 
L 461.737848 348.900133 
L 458.082135 370.406059 
L 458.276604 391.911985 
L 466.249364 413.417911 
L 477.431186 434.923837 
L 478.508722 456.429763 
L 472.657325 477.935689 
L 469.155357 499.441615 
L 482.793384 520.947541 
L 520.014095 542.453466 
z
M 621.774834 542.453466 
L 554.705812 527.455679 
L 542.121127 520.947541 
L 525.678785 499.441615 
L 525.106339 477.935689 
L 528.240191 456.429763 
L 528.442672 434.923837 
L 519.505771 413.417911 
L 511.182258 391.911985 
L 509.870095 370.406059 
L 514.702601 348.900133 
L 522.185224 327.394207 
L 520.274145 305.888281 
L 515.96102 284.382355 
L 522.659466 262.876429 
L 527.854213 241.370503 
L 533.866163 219.864578 
L 554.705812 199.623991 
L 556.376588 198.358652 
L 598.982368 176.852726 
L 655.994812 161.191081 
L 757.283812 156.766356 
L 850.455192 176.852726 
L 858.572812 181.20814 
L 873.235152 198.358652 
L 867.802107 219.864578 
L 861.321279 241.370503 
L 861.265509 262.876429 
L 858.983739 284.382355 
L 858.572812 285.925163 
L 851.22115 305.888281 
L 845.127769 327.394207 
L 846.798474 348.900133 
L 845.541797 370.406059 
L 838.983237 391.911985 
L 834.532029 413.417911 
L 825.112857 434.923837 
L 805.419211 456.429763 
L 778.525864 477.935689 
L 765.74361 499.441615 
L 757.283812 519.340998 
L 755.770238 520.947541 
L 684.001311 542.453466 
L 655.994812 546.691308 
z
" style="fill:#1fa088;"/>
   </g>
   <g id="PathCollection_6">
    <path clip-path="url(#paa1b5416f5)" d="M 655.994812 546.691308 
L 684.001311 542.453466 
L 755.770238 520.947541 
L 757.283812 519.340998 
L 765.74361 499.441615 
L 778.525864 477.935689 
L 805.419211 456.429763 
L 825.112857 434.923837 
L 834.532029 413.417911 
L 838.983237 391.911985 
L 845.541797 370.406059 
L 846.798474 348.900133 
L 845.127769 327.394207 
L 851.22115 305.888281 
L 858.572812 285.925163 
L 858.983739 284.382355 
L 861.265509 262.876429 
L 861.321279 241.370503 
L 867.802107 219.864578 
L 873.235152 198.358652 
L 858.572812 181.20814 
L 850.455192 176.852726 
L 757.283812 156.766356 
L 655.994812 161.191081 
L 598.982368 176.852726 
L 556.376588 198.358652 
L 554.705812 199.623991 
L 533.866163 219.864578 
L 527.854213 241.370503 
L 522.659466 262.876429 
L 515.96102 284.382355 
L 520.274145 305.888281 
L 522.185224 327.394207 
L 514.702601 348.900133 
L 509.870095 370.406059 
L 511.182258 391.911985 
L 519.505771 413.417911 
L 528.442672 434.923837 
L 528.240191 456.429763 
L 525.106339 477.935689 
L 525.678785 499.441615 
L 542.121127 520.947541 
L 554.705812 527.455679 
L 621.774834 542.453466 
z
M 628.306571 499.441615 
L 612.569818 477.935689 
L 601.285051 456.429763 
L 596.509508 434.923837 
L 582.685321 413.417911 
L 568.286775 391.911985 
L 564.234987 370.406059 
L 571.763225 348.900133 
L 578.617618 327.394207 
L 572.019161 305.888281 
L 568.152507 284.382355 
L 585.91938 262.876429 
L 596.381581 241.370503 
L 604.137652 219.864578 
L 628.392681 198.358652 
L 655.994812 184.746935 
L 700.360394 176.852726 
L 757.283812 172.395307 
L 777.959715 176.852726 
L 819.560359 198.358652 
L 812.910966 219.864578 
L 803.955411 241.370503 
L 805.47246 262.876429 
L 806.791086 284.382355 
L 802.750143 305.888281 
L 798.647538 327.394207 
L 802.413799 348.900133 
L 803.059016 370.406059 
L 795.335149 391.911985 
L 786.82718 413.417911 
L 774.117089 434.923837 
L 757.283812 453.384334 
L 748.151008 456.429763 
L 693.131585 477.935689 
L 674.488185 499.441615 
L 655.994812 517.216908 
z
" style="fill:#3fbc73;"/>
   </g>
   <g id="PathCollection_7">
    <path clip-path="url(#paa1b5416f5)" d="M 655.994812 517.216908 
L 674.488185 499.441615 
L 693.131585 477.935689 
L 748.151008 456.429763 
L 757.283812 453.384334 
L 774.117089 434.923837 
L 786.82718 413.417911 
L 795.335149 391.911985 
L 803.059016 370.406059 
L 802.413799 348.900133 
L 798.647538 327.394207 
L 802.750143 305.888281 
L 806.791086 284.382355 
L 805.47246 262.876429 
L 803.955411 241.370503 
L 812.910966 219.864578 
L 819.560359 198.358652 
L 777.959715 176.852726 
L 757.283812 172.395307 
L 700.360394 176.852726 
L 655.994812 184.746935 
L 628.392681 198.358652 
L 604.137652 219.864578 
L 596.381581 241.370503 
L 585.91938 262.876429 
L 568.152507 284.382355 
L 572.019161 305.888281 
L 578.617618 327.394207 
L 571.763225 348.900133 
L 564.234987 370.406059 
L 568.286775 391.911985 
L 582.685321 413.417911 
L 596.509508 434.923837 
L 601.285051 456.429763 
L 612.569818 477.935689 
L 628.306571 499.441615 
z
M 644.869811 391.911985 
L 635.218783 370.406059 
L 641.464942 348.900133 
L 645.303356 327.394207 
L 638.847435 305.888281 
L 642.929089 284.382355 
L 655.994812 271.898334 
L 732.990306 284.382355 
L 737.574913 305.888281 
L 716.050099 327.394207 
L 757.283812 346.053704 
L 758.029125 348.900133 
L 760.576235 370.406059 
L 757.283812 378.50773 
L 709.795248 391.911985 
L 655.994812 404.071424 
z
" style="fill:#84d44b;"/>
   </g>
   <g id="PathCollection_8">
    <path clip-path="url(#paa1b5416f5)" d="M 655.994812 404.071424 
L 709.795248 391.911985 
L 757.283812 378.50773 
L 760.576235 370.406059 
L 758.029125 348.900133 
L 757.283812 346.053704 
L 716.050099 327.394207 
L 737.574913 305.888281 
L 732.990306 284.382355 
L 655.994812 271.898334 
L 642.929089 284.382355 
L 638.847435 305.888281 
L 645.303356 327.394207 
L 641.464942 348.900133 
L 635.218783 370.406059 
L 644.869811 391.911985 
z
" style="fill:#d8e219;"/>
   </g>
   <g id="matplotlib.axis_1">
    <g id="xtick_1">
     <g id="line2d_1">
      <defs>
       <path d="M 0 0 
L 0 -6 
" id="m0d2c68cb5a" style="stroke:#333333;stroke-width:0.8;"/>
      </defs>
      <g>
       <use style="fill:#333333;stroke:#333333;stroke-width:0.8;" x="98.905312" xlink:href="#m0d2c68cb5a" y="596.218281"/>
      </g>
     </g>
     <g id="text_1">
      <!-- 0.96 -->
      <defs>
       <path d="M 34.8125 4.296875 
Q 40.671875 4.296875 42.84375 9.609375 
Q 45.015625 14.9375 45.015625 36.375 
Q 45.015625 57.671875 42.84375 63.078125 
Q 40.671875 68.5 34.8125 68.5 
Q 28.953125 68.5 26.78125 63.171875 
Q 24.609375 57.859375 24.609375 36.375 
Q 24.609375 14.9375 26.78125 9.609375 
Q 28.953125 4.296875 34.8125 4.296875 
z
M 34.8125 -1.421875 
Q 20.21875 -1.421875 12.453125 8.3125 
Q 4.6875 18.0625 4.6875 36.375 
Q 4.6875 54.6875 12.453125 64.453125 
Q 20.21875 74.21875 34.8125 74.21875 
Q 49.359375 74.21875 57.125 64.453125 
Q 64.890625 54.6875 64.890625 36.375 
Q 64.890625 18.0625 57.125 8.3125 
Q 49.359375 -1.421875 34.8125 -1.421875 
z
" id="DejaVuSerif-Bold-48"/>
       <path d="M 8.109375 7.90625 
Q 8.109375 11.71875 10.84375 14.453125 
Q 13.578125 17.1875 17.390625 17.1875 
Q 21.234375 17.1875 23.96875 14.453125 
Q 26.703125 11.71875 26.703125 7.90625 
Q 26.703125 4.046875 23.96875 1.3125 
Q 21.234375 -1.421875 17.390625 -1.421875 
Q 13.578125 -1.421875 10.84375 1.3125 
Q 8.109375 4.046875 8.109375 7.90625 
z
" id="DejaVuSerif-Bold-46"/>
       <path d="M 34.078125 68.5 
Q 29.046875 68.5 26.921875 64.234375 
Q 24.8125 59.96875 24.8125 49.421875 
Q 24.8125 38.875 26.921875 34.59375 
Q 29.046875 30.328125 34.078125 30.328125 
Q 39.109375 30.328125 41.25 34.59375 
Q 43.40625 38.875 43.40625 49.421875 
Q 43.40625 59.96875 41.25 64.234375 
Q 39.109375 68.5 34.078125 68.5 
z
M 44.96875 29.6875 
Q 41.75 27.09375 37.8125 25.796875 
Q 33.890625 24.515625 29.296875 24.515625 
Q 18.171875 24.515625 11.796875 31.03125 
Q 5.421875 37.546875 5.421875 49.03125 
Q 5.421875 61.140625 12.546875 67.671875 
Q 19.671875 74.21875 32.90625 74.21875 
Q 47.859375 74.21875 55.5625 65.1875 
Q 63.28125 56.15625 63.28125 38.71875 
Q 63.28125 18.84375 54.734375 8.703125 
Q 46.1875 -1.421875 29.390625 -1.421875 
Q 25 -1.421875 19.96875 -0.6875 
Q 14.9375 0.046875 9.1875 1.515625 
L 9.1875 14.40625 
L 15.09375 14.40625 
Q 16.3125 9.421875 19.703125 6.859375 
Q 23.09375 4.296875 28.515625 4.296875 
Q 37.109375 4.296875 41.015625 10.28125 
Q 44.921875 16.265625 44.96875 29.6875 
z
" id="DejaVuSerif-Bold-57"/>
       <path d="M 24.609375 43.21875 
Q 27.78125 45.75 31.703125 47.015625 
Q 35.640625 48.296875 40.28125 48.296875 
Q 51.46875 48.296875 57.828125 41.75 
Q 64.203125 35.203125 64.203125 23.78125 
Q 64.203125 11.71875 57.03125 5.140625 
Q 49.859375 -1.421875 36.625 -1.421875 
Q 21.6875 -1.421875 13.984375 7.59375 
Q 6.296875 16.609375 6.296875 34.078125 
Q 6.296875 53.953125 14.84375 64.078125 
Q 23.390625 74.21875 40.1875 74.21875 
Q 44.578125 74.21875 49.609375 73.484375 
Q 54.640625 72.75 60.40625 71.296875 
L 60.40625 58.40625 
L 54.5 58.40625 
Q 53.265625 63.375 49.875 65.9375 
Q 46.484375 68.5 41.109375 68.5 
Q 32.421875 68.5 28.53125 62.546875 
Q 24.65625 56.59375 24.609375 43.21875 
z
M 35.5 4.296875 
Q 40.53125 4.296875 42.671875 8.5625 
Q 44.828125 12.84375 44.828125 23.390625 
Q 44.828125 33.9375 42.671875 38.203125 
Q 40.53125 42.484375 35.5 42.484375 
Q 30.46875 42.484375 28.34375 38.203125 
Q 26.21875 33.9375 26.21875 23.390625 
Q 26.21875 12.84375 28.34375 8.5625 
Q 30.46875 4.296875 35.5 4.296875 
z
" id="DejaVuSerif-Bold-54"/>
      </defs>
      <g style="fill:#333333;" transform="translate(69.679687 617.954531)scale(0.24 -0.24)">
       <use xlink:href="#DejaVuSerif-Bold-48"/>
       <use x="69.580078" xlink:href="#DejaVuSerif-Bold-46"/>
       <use x="104.394531" xlink:href="#DejaVuSerif-Bold-57"/>
       <use x="173.974609" xlink:href="#DejaVuSerif-Bold-54"/>
      </g>
     </g>
    </g>
    <g id="xtick_2">
     <g id="line2d_2">
      <g>
       <use style="fill:#333333;stroke:#333333;stroke-width:0.8;" x="301.483312" xlink:href="#m0d2c68cb5a" y="596.218281"/>
      </g>
     </g>
     <g id="text_2">
      <!-- 0.97 -->
      <defs>
       <path d="M 61.28125 60.5 
L 31.203125 0 
L 21.296875 0 
L 50.59375 59.078125 
L 14.59375 59.078125 
L 14.59375 49.21875 
L 7.90625 49.21875 
L 7.90625 72.90625 
L 61.28125 72.90625 
z
" id="DejaVuSerif-Bold-55"/>
      </defs>
      <g style="fill:#333333;" transform="translate(272.257687 617.954531)scale(0.24 -0.24)">
       <use xlink:href="#DejaVuSerif-Bold-48"/>
       <use x="69.580078" xlink:href="#DejaVuSerif-Bold-46"/>
       <use x="104.394531" xlink:href="#DejaVuSerif-Bold-57"/>
       <use x="173.974609" xlink:href="#DejaVuSerif-Bold-55"/>
      </g>
     </g>
    </g>
    <g id="xtick_3">
     <g id="line2d_3">
      <g>
       <use style="fill:#333333;stroke:#333333;stroke-width:0.8;" x="504.061312" xlink:href="#m0d2c68cb5a" y="596.218281"/>
      </g>
     </g>
     <g id="text_3">
      <!-- 0.98 -->
      <defs>
       <path d="M 46.484375 38.8125 
Q 55.171875 37.40625 59.6875 32.421875 
Q 64.203125 27.4375 64.203125 19.390625 
Q 64.203125 9.328125 56.609375 3.953125 
Q 49.03125 -1.421875 34.71875 -1.421875 
Q 20.40625 -1.421875 12.78125 3.953125 
Q 5.171875 9.328125 5.171875 19.390625 
Q 5.171875 27.4375 9.71875 32.421875 
Q 14.265625 37.40625 22.90625 38.8125 
Q 15.234375 40.578125 11.421875 44.703125 
Q 7.625 48.828125 7.625 55.171875 
Q 7.625 64.453125 14.546875 69.328125 
Q 21.484375 74.21875 34.71875 74.21875 
Q 47.90625 74.21875 54.859375 69.328125 
Q 61.8125 64.453125 61.8125 55.171875 
Q 61.8125 48.828125 57.984375 44.703125 
Q 54.15625 40.578125 46.484375 38.8125 
z
M 42.921875 54.984375 
Q 42.921875 62.703125 41.0625 65.59375 
Q 39.203125 68.5 34.71875 68.5 
Q 30.171875 68.5 28.34375 65.59375 
Q 26.515625 62.703125 26.515625 54.984375 
Q 26.515625 47.3125 28.34375 44.453125 
Q 30.171875 41.609375 34.71875 41.609375 
Q 39.265625 41.609375 41.09375 44.453125 
Q 42.921875 47.3125 42.921875 54.984375 
z
M 44.828125 20.21875 
Q 44.828125 29.15625 42.546875 32.515625 
Q 40.28125 35.890625 34.71875 35.890625 
Q 29.109375 35.890625 26.859375 32.515625 
Q 24.609375 29.15625 24.609375 20.21875 
Q 24.609375 11.1875 26.875 7.734375 
Q 29.15625 4.296875 34.71875 4.296875 
Q 40.234375 4.296875 42.53125 7.734375 
Q 44.828125 11.1875 44.828125 20.21875 
z
" id="DejaVuSerif-Bold-56"/>
      </defs>
      <g style="fill:#333333;" transform="translate(474.835687 617.954531)scale(0.24 -0.24)">
       <use xlink:href="#DejaVuSerif-Bold-48"/>
       <use x="69.580078" xlink:href="#DejaVuSerif-Bold-46"/>
       <use x="104.394531" xlink:href="#DejaVuSerif-Bold-57"/>
       <use x="173.974609" xlink:href="#DejaVuSerif-Bold-56"/>
      </g>
     </g>
    </g>
    <g id="xtick_4">
     <g id="line2d_4">
      <g>
       <use style="fill:#333333;stroke:#333333;stroke-width:0.8;" x="706.639312" xlink:href="#m0d2c68cb5a" y="596.218281"/>
      </g>
     </g>
     <g id="text_4">
      <!-- 0.99 -->
      <g style="fill:#333333;" transform="translate(677.413687 617.954531)scale(0.24 -0.24)">
       <use xlink:href="#DejaVuSerif-Bold-48"/>
       <use x="69.580078" xlink:href="#DejaVuSerif-Bold-46"/>
       <use x="104.394531" xlink:href="#DejaVuSerif-Bold-57"/>
       <use x="173.974609" xlink:href="#DejaVuSerif-Bold-57"/>
      </g>
     </g>
    </g>
    <g id="xtick_5">
     <g id="line2d_5">
      <g>
       <use style="fill:#333333;stroke:#333333;stroke-width:0.8;" x="909.217312" xlink:href="#m0d2c68cb5a" y="596.218281"/>
      </g>
     </g>
     <g id="text_5">
      <!-- 1 -->
      <defs>
       <path d="M 13.71875 0 
L 13.71875 5.90625 
L 27.390625 5.90625 
L 27.390625 64.890625 
L 12.203125 55.90625 
L 12.203125 63.1875 
L 30.515625 74.21875 
L 45.90625 74.21875 
L 45.90625 5.90625 
L 59.625 5.90625 
L 59.625 0 
z
" id="DejaVuSerif-Bold-49"/>
      </defs>
      <g style="fill:#333333;" transform="translate(900.867937 617.954531)scale(0.24 -0.24)">
       <use xlink:href="#DejaVuSerif-Bold-49"/>
      </g>
     </g>
    </g>
    <g id="text_6">
     <!-- e -->
     <defs>
      <path d="M 40.09375 29.296875 
Q 40.09375 39.546875 38.1875 43.671875 
Q 36.28125 47.796875 31.6875 47.796875 
Q 27.25 47.796875 25.3125 43.75 
Q 23.390625 39.703125 23.390625 30.171875 
L 23.390625 29.296875 
z
M 59.078125 23.484375 
L 23.390625 23.484375 
L 23.390625 23.09375 
Q 23.390625 13.03125 26.40625 8.5625 
Q 29.4375 4.109375 36.1875 4.109375 
Q 41.796875 4.109375 45.265625 7.078125 
Q 48.734375 10.0625 49.703125 15.71875 
L 57.8125 15.71875 
Q 55.71875 6.890625 49.46875 2.734375 
Q 43.21875 -1.421875 31.984375 -1.421875 
Q 18.5 -1.421875 11.296875 5.6875 
Q 4.109375 12.796875 4.109375 25.984375 
Q 4.109375 38.875 11.46875 46.09375 
Q 18.84375 53.328125 31.984375 53.328125 
Q 44.875 53.328125 51.75 45.734375 
Q 58.640625 38.140625 59.078125 23.484375 
z
" id="DejaVuSerif-Bold-101"/>
     </defs>
     <g transform="translate(495.153812 648.221406)scale(0.28 -0.28)">
      <use xlink:href="#DejaVuSerif-Bold-101"/>
     </g>
    </g>
   </g>
   <g id="matplotlib.axis_2">
    <g id="ytick_1">
     <g id="line2d_6">
      <defs>
       <path d="M 0 0 
L 6 0 
" id="mbd6a2f6b74" style="stroke:#333333;stroke-width:0.8;"/>
      </defs>
      <g>
       <use style="fill:#333333;stroke:#333333;stroke-width:0.8;" x="98.905313" xlink:href="#mbd6a2f6b74" y="553.206429"/>
      </g>
     </g>
     <g id="text_7">
      <!-- −3.0 -->
      <defs>
       <path d="M 10.59375 36.921875 
L 73.1875 36.921875 
L 73.1875 25.6875 
L 10.59375 25.6875 
z
" id="DejaVuSerif-Bold-8722"/>
       <path d="M 8.59375 70.796875 
Q 15.046875 72.515625 21.09375 73.359375 
Q 27.15625 74.21875 32.90625 74.21875 
Q 46.09375 74.21875 53.140625 69.5 
Q 60.203125 64.796875 60.203125 56 
Q 60.203125 49.421875 56.140625 45.3125 
Q 52.09375 41.21875 44.28125 39.796875 
Q 53.8125 38.28125 58.5 33.296875 
Q 63.1875 28.328125 63.1875 19.671875 
Q 63.1875 9.46875 55.09375 4.015625 
Q 47.015625 -1.421875 31.6875 -1.421875 
Q 25.921875 -1.421875 19.796875 -0.4375 
Q 13.671875 0.53125 6.984375 2.484375 
L 6.984375 18.5 
L 12.890625 18.5 
Q 13.421875 11.578125 17.234375 7.9375 
Q 21.046875 4.296875 27.78125 4.296875 
Q 35.203125 4.296875 39.25 8.421875 
Q 43.3125 12.546875 43.3125 20.125 
Q 43.3125 28.03125 39.078125 32.328125 
Q 34.859375 36.625 27.09375 36.625 
L 23.875 36.625 
L 23.875 42.484375 
L 26.421875 42.484375 
Q 33.59375 42.484375 37.203125 45.796875 
Q 40.828125 49.125 40.828125 55.71875 
Q 40.828125 61.921875 37.421875 65.203125 
Q 34.03125 68.5 27.6875 68.5 
Q 21.921875 68.5 18.546875 65.34375 
Q 15.1875 62.203125 14.5 56.203125 
L 8.59375 56.203125 
z
" id="DejaVuSerif-Bold-51"/>
      </defs>
      <g style="fill:#333333;" transform="translate(38.696875 561.564711)scale(0.22 -0.22)">
       <use xlink:href="#DejaVuSerif-Bold-8722"/>
       <use x="83.789062" xlink:href="#DejaVuSerif-Bold-51"/>
       <use x="153.369141" xlink:href="#DejaVuSerif-Bold-46"/>
       <use x="188.183594" xlink:href="#DejaVuSerif-Bold-48"/>
      </g>
     </g>
    </g>
    <g id="ytick_2">
     <g id="line2d_7">
      <g>
       <use style="fill:#333333;stroke:#333333;stroke-width:0.8;" x="98.905313" xlink:href="#mbd6a2f6b74" y="445.6768"/>
      </g>
     </g>
     <g id="text_8">
      <!-- −2.5 -->
      <defs>
       <path d="M 13.1875 54.890625 
L 7.328125 54.890625 
L 7.328125 70.609375 
Q 13.28125 72.40625 19.109375 73.3125 
Q 24.953125 74.21875 30.90625 74.21875 
Q 44.828125 74.21875 52.609375 68.53125 
Q 60.40625 62.84375 60.40625 52.6875 
Q 60.40625 45.453125 56.109375 39.71875 
Q 51.8125 33.984375 39.703125 26.125 
L 19.390625 12.796875 
L 53.90625 12.796875 
L 53.90625 21.390625 
L 60.59375 21.390625 
L 60.59375 0 
L 6.6875 0 
L 6.6875 11.921875 
L 17.484375 19.390625 
Q 31.296875 28.90625 35.890625 35.59375 
Q 40.484375 42.28125 40.484375 51.21875 
Q 40.484375 59.671875 36.984375 64.078125 
Q 33.5 68.5 26.8125 68.5 
Q 21.046875 68.5 17.578125 65.015625 
Q 14.109375 61.53125 13.1875 54.890625 
z
" id="DejaVuSerif-Bold-50"/>
       <path d="M 56.390625 72.90625 
L 56.390625 60.109375 
L 17.390625 60.109375 
L 17.390625 44.09375 
Q 20.609375 46.578125 24.5625 47.84375 
Q 28.515625 49.125 32.90625 49.125 
Q 46.390625 49.125 54.203125 42.3125 
Q 62.015625 35.5 62.015625 23.78125 
Q 62.015625 11.859375 54.203125 5.21875 
Q 46.390625 -1.421875 32.328125 -1.421875 
Q 26.375 -1.421875 20.484375 -0.4375 
Q 14.59375 0.53125 8.203125 2.59375 
L 8.203125 18.5 
L 14.0625 18.5 
Q 14.359375 11.328125 17.796875 7.8125 
Q 21.234375 4.296875 27.984375 4.296875 
Q 35.15625 4.296875 38.625 9.109375 
Q 42.09375 13.921875 42.09375 23.78125 
Q 42.09375 33.5 38.6875 38.296875 
Q 35.296875 43.109375 28.421875 43.109375 
Q 24.703125 43.109375 21.796875 41.578125 
Q 18.890625 40.046875 16.40625 36.8125 
L 11.53125 36.8125 
L 11.53125 72.90625 
z
" id="DejaVuSerif-Bold-53"/>
      </defs>
      <g style="fill:#333333;" transform="translate(38.696875 454.035081)scale(0.22 -0.22)">
       <use xlink:href="#DejaVuSerif-Bold-8722"/>
       <use x="83.789062" xlink:href="#DejaVuSerif-Bold-50"/>
       <use x="153.369141" xlink:href="#DejaVuSerif-Bold-46"/>
       <use x="188.183594" xlink:href="#DejaVuSerif-Bold-53"/>
      </g>
     </g>
    </g>
    <g id="ytick_3">
     <g id="line2d_8">
      <g>
       <use style="fill:#333333;stroke:#333333;stroke-width:0.8;" x="98.905313" xlink:href="#mbd6a2f6b74" y="338.14717"/>
      </g>
     </g>
     <g id="text_9">
      <!-- −2.0 -->
      <g style="fill:#333333;" transform="translate(38.696875 346.505451)scale(0.22 -0.22)">
       <use xlink:href="#DejaVuSerif-Bold-8722"/>
       <use x="83.789062" xlink:href="#DejaVuSerif-Bold-50"/>
       <use x="153.369141" xlink:href="#DejaVuSerif-Bold-46"/>
       <use x="188.183594" xlink:href="#DejaVuSerif-Bold-48"/>
      </g>
     </g>
    </g>
    <g id="ytick_4">
     <g id="line2d_9">
      <g>
       <use style="fill:#333333;stroke:#333333;stroke-width:0.8;" x="98.905313" xlink:href="#mbd6a2f6b74" y="230.617541"/>
      </g>
     </g>
     <g id="text_10">
      <!-- −1.5 -->
      <g style="fill:#333333;" transform="translate(38.696875 238.975822)scale(0.22 -0.22)">
       <use xlink:href="#DejaVuSerif-Bold-8722"/>
       <use x="83.789062" xlink:href="#DejaVuSerif-Bold-49"/>
       <use x="153.369141" xlink:href="#DejaVuSerif-Bold-46"/>
       <use x="188.183594" xlink:href="#DejaVuSerif-Bold-53"/>
      </g>
     </g>
    </g>
    <g id="ytick_5">
     <g id="line2d_10">
      <g>
       <use style="fill:#333333;stroke:#333333;stroke-width:0.8;" x="98.905313" xlink:href="#mbd6a2f6b74" y="123.087911"/>
      </g>
     </g>
     <g id="text_11">
      <!-- −1.0 -->
      <g style="fill:#333333;" transform="translate(38.696875 131.446192)scale(0.22 -0.22)">
       <use xlink:href="#DejaVuSerif-Bold-8722"/>
       <use x="83.789062" xlink:href="#DejaVuSerif-Bold-49"/>
       <use x="153.369141" xlink:href="#DejaVuSerif-Bold-46"/>
       <use x="188.183594" xlink:href="#DejaVuSerif-Bold-48"/>
      </g>
     </g>
    </g>
    <g id="ytick_6">
     <g id="line2d_11">
      <g>
       <use style="fill:#333333;stroke:#333333;stroke-width:0.8;" x="98.905313" xlink:href="#mbd6a2f6b74" y="15.558281"/>
      </g>
     </g>
     <g id="text_12">
      <!-- −0.5 -->
      <g style="fill:#333333;" transform="translate(38.696875 23.916563)scale(0.22 -0.22)">
       <use xlink:href="#DejaVuSerif-Bold-8722"/>
       <use x="83.789062" xlink:href="#DejaVuSerif-Bold-48"/>
       <use x="153.369141" xlink:href="#DejaVuSerif-Bold-46"/>
       <use x="188.183594" xlink:href="#DejaVuSerif-Bold-53"/>
      </g>
     </g>
    </g>
    <g id="text_13">
     <!-- Log[a/pc] -->
     <defs>
      <path d="M 4.6875 0 
L 4.6875 5.90625 
L 14.015625 5.90625 
L 14.015625 67 
L 4.6875 67 
L 4.6875 72.90625 
L 42.1875 72.90625 
L 42.1875 67 
L 32.8125 67 
L 32.8125 6.6875 
L 61.53125 6.6875 
L 61.53125 18.21875 
L 68.109375 18.21875 
L 68.109375 0 
z
" id="DejaVuSerif-Bold-76"/>
      <path d="M 33.40625 4.109375 
Q 38.875 4.109375 41.09375 8.796875 
Q 43.3125 13.484375 43.3125 25.984375 
Q 43.3125 38.484375 41.109375 43.140625 
Q 38.921875 47.796875 33.40625 47.796875 
Q 27.875 47.796875 25.625 43.078125 
Q 23.390625 38.375 23.390625 25.984375 
Q 23.390625 13.578125 25.625 8.84375 
Q 27.875 4.109375 33.40625 4.109375 
z
M 33.40625 -1.421875 
Q 19.671875 -1.421875 11.890625 5.875 
Q 4.109375 13.1875 4.109375 25.984375 
Q 4.109375 38.8125 11.890625 46.0625 
Q 19.671875 53.328125 33.40625 53.328125 
Q 47.171875 53.328125 54.9375 46.0625 
Q 62.703125 38.8125 62.703125 25.984375 
Q 62.703125 13.1875 54.90625 5.875 
Q 47.125 -1.421875 33.40625 -1.421875 
z
" id="DejaVuSerif-Bold-111"/>
      <path d="M 60.203125 46 
L 60.203125 0.6875 
Q 60.203125 -10.25 52.40625 -16.234375 
Q 44.625 -22.21875 30.421875 -22.21875 
Q 25.25 -22.21875 19.921875 -21.40625 
Q 14.59375 -20.609375 8.984375 -19 
L 8.984375 -6.59375 
L 14.5 -6.59375 
Q 15.234375 -11.71875 18.625 -14.203125 
Q 22.015625 -16.703125 28.328125 -16.703125 
Q 36.328125 -16.703125 39.625 -12.859375 
Q 42.921875 -9.03125 42.921875 0.6875 
L 42.921875 6.59375 
Q 40.71875 2.546875 36.984375 0.5625 
Q 33.25 -1.421875 27.78125 -1.421875 
Q 16.75 -1.421875 10.421875 5.90625 
Q 4.109375 13.234375 4.109375 25.984375 
Q 4.109375 38.765625 10.421875 46.046875 
Q 16.75 53.328125 27.78125 53.328125 
Q 33.25 53.328125 36.984375 51.34375 
Q 40.71875 49.359375 42.921875 45.3125 
L 42.921875 51.90625 
L 67.578125 51.90625 
L 67.578125 46 
z
M 42.921875 28.515625 
Q 42.921875 37.59375 40.578125 41.640625 
Q 38.234375 45.703125 33.109375 45.703125 
Q 27.734375 45.703125 25.5625 41.421875 
Q 23.390625 37.15625 23.390625 25.984375 
Q 23.390625 14.796875 25.578125 10.5 
Q 27.78125 6.203125 33.109375 6.203125 
Q 38.234375 6.203125 40.578125 10.25 
Q 42.921875 14.3125 42.921875 23.390625 
z
" id="DejaVuSerif-Bold-103"/>
      <path d="M 12.5 75.984375 
L 40.1875 75.984375 
L 40.1875 70.125 
L 29.78125 70.125 
L 29.78125 -7.328125 
L 40.1875 -7.328125 
L 40.1875 -13.1875 
L 12.5 -13.1875 
z
" id="DejaVuSerif-Bold-91"/>
      <path d="M 55.078125 31.890625 
L 55.078125 5.90625 
L 62.5 5.90625 
L 62.5 0 
L 37.796875 0 
L 37.796875 6.59375 
Q 34.375 2.484375 30.171875 0.53125 
Q 25.984375 -1.421875 20.609375 -1.421875 
Q 12.640625 -1.421875 8.375 2.84375 
Q 4.109375 7.125 4.109375 15.09375 
Q 4.109375 23.828125 10.234375 28.171875 
Q 16.359375 32.515625 28.71875 32.515625 
L 37.796875 32.515625 
L 37.796875 35.59375 
Q 37.796875 41.890625 34.8125 44.890625 
Q 31.84375 47.90625 25.59375 47.90625 
Q 20.40625 47.90625 17.59375 45.78125 
Q 14.796875 43.65625 13.625 38.8125 
L 8.109375 38.8125 
L 8.109375 50 
Q 12.75 51.65625 17.71875 52.484375 
Q 22.703125 53.328125 28.21875 53.328125 
Q 42.140625 53.328125 48.609375 48.140625 
Q 55.078125 42.96875 55.078125 31.890625 
z
M 37.796875 16.3125 
L 37.796875 26.703125 
L 31.296875 26.703125 
Q 26.46875 26.703125 23.875 24.0625 
Q 21.296875 21.4375 21.296875 16.5 
Q 21.296875 11.578125 23.171875 9.125 
Q 25.046875 6.6875 28.90625 6.6875 
Q 32.90625 6.6875 35.34375 9.328125 
Q 37.796875 11.96875 37.796875 16.3125 
z
" id="DejaVuSerif-Bold-97"/>
      <path d="M 25.6875 72.90625 
L 36.53125 72.90625 
L 10.796875 -9.28125 
L 0 -9.28125 
z
" id="DejaVuSerif-Bold-47"/>
      <path d="M 27 28.515625 
L 27 23.390625 
Q 27 14.3125 29.3125 10.25 
Q 31.640625 6.203125 36.8125 6.203125 
Q 42.140625 6.203125 44.3125 10.5 
Q 46.484375 14.796875 46.484375 25.984375 
Q 46.484375 37.15625 44.3125 41.421875 
Q 42.140625 45.703125 36.8125 45.703125 
Q 31.640625 45.703125 29.3125 41.640625 
Q 27 37.59375 27 28.515625 
z
M 9.71875 46 
L 2.296875 46 
L 2.296875 51.90625 
L 27 51.90625 
L 27 45.3125 
Q 29.203125 49.359375 32.90625 51.34375 
Q 36.625 53.328125 42.09375 53.328125 
Q 53.171875 53.328125 59.546875 46.015625 
Q 65.921875 38.71875 65.921875 25.984375 
Q 65.921875 13.234375 59.546875 5.90625 
Q 53.171875 -1.421875 42.09375 -1.421875 
Q 36.625 -1.421875 32.90625 0.5625 
Q 29.203125 2.546875 27 6.59375 
L 27 -14.890625 
L 35.015625 -14.890625 
L 35.015625 -20.796875 
L 2.296875 -20.796875 
L 2.296875 -14.890625 
L 9.71875 -14.890625 
z
" id="DejaVuSerif-Bold-112"/>
      <path d="M 56.390625 16.21875 
Q 54.546875 7.328125 48.796875 2.953125 
Q 43.0625 -1.421875 33.203125 -1.421875 
Q 19.34375 -1.421875 11.71875 5.75 
Q 4.109375 12.9375 4.109375 25.984375 
Q 4.109375 38.875 11.625 46.09375 
Q 19.140625 53.328125 32.515625 53.328125 
Q 37.9375 53.328125 43.453125 52.296875 
Q 48.96875 51.265625 54.6875 49.21875 
L 54.6875 34.8125 
L 49.21875 34.8125 
Q 48.4375 41.40625 45.359375 44.59375 
Q 42.28125 47.796875 36.71875 47.796875 
Q 29.5 47.796875 26.4375 42.90625 
Q 23.390625 38.03125 23.390625 25.984375 
Q 23.390625 14.203125 26.359375 9.15625 
Q 29.34375 4.109375 36.078125 4.109375 
Q 41.3125 4.109375 44.453125 7.234375 
Q 47.609375 10.359375 48.296875 16.21875 
z
" id="DejaVuSerif-Bold-99"/>
      <path d="M 34.8125 75.984375 
L 34.8125 -13.1875 
L 7.078125 -13.1875 
L 7.078125 -7.328125 
L 17.484375 -7.328125 
L 17.484375 70.125 
L 7.078125 70.125 
L 7.078125 75.984375 
z
" id="DejaVuSerif-Bold-93"/>
     </defs>
     <g transform="translate(28.475625 380.606719)rotate(-90)scale(0.28 -0.28)">
      <use xlink:href="#DejaVuSerif-Bold-76"/>
      <use x="70.3125" xlink:href="#DejaVuSerif-Bold-111"/>
      <use x="137.011719" xlink:href="#DejaVuSerif-Bold-103"/>
      <use x="206.933594" xlink:href="#DejaVuSerif-Bold-91"/>
      <use x="254.248047" xlink:href="#DejaVuSerif-Bold-97"/>
      <use x="319.042969" xlink:href="#DejaVuSerif-Bold-47"/>
      <use x="355.566406" xlink:href="#DejaVuSerif-Bold-112"/>
      <use x="425.488281" xlink:href="#DejaVuSerif-Bold-99"/>
      <use x="486.376953" xlink:href="#DejaVuSerif-Bold-93"/>
     </g>
    </g>
   </g>
   <g id="line2d_12">
    <path clip-path="url(#paa1b5416f5)" d="M 677.323391 662.244531 
L 677.323391 660.736059 
L 677.323391 639.230133 
L 677.323391 617.724207 
L 677.323391 596.218281 
L 677.323391 574.712355 
L 677.323391 553.206429 
L 677.323391 531.700503 
L 677.323391 510.194578 
L 677.323391 488.688652 
L 677.323391 467.182726 
L 677.323391 445.6768 
L 677.323391 424.170874 
L 677.323391 402.664948 
L 677.323391 381.159022 
L 677.323391 359.653096 
L 677.323391 338.14717 
L 677.323391 316.641244 
L 677.323391 295.135318 
L 677.323391 273.629392 
L 677.323391 252.123466 
L 677.323391 230.617541 
L 677.323391 209.111615 
L 677.323391 187.605689 
L 677.323391 166.099763 
L 677.323391 144.593837 
L 677.323391 123.087911 
L 677.323391 101.581985 
L 677.323391 80.076059 
L 677.323391 58.570133 
L 677.323391 37.064207 
L 677.323391 15.558281 
L 677.323391 -1 
" style="fill:none;stroke:#ffffff;stroke-dasharray:7.4,3.2;stroke-dashoffset:0;stroke-width:2;"/>
   </g>
   <g id="patch_3">
    <path d="M 98.905313 596.218281 
L 98.905313 15.558281 
" style="fill:none;stroke:#333333;stroke-linecap:square;stroke-linejoin:miter;stroke-width:0.8;"/>
   </g>
   <g id="patch_4">
    <path d="M 909.217312 596.218281 
L 909.217312 15.558281 
" style="fill:none;stroke:#333333;stroke-linecap:square;stroke-linejoin:miter;stroke-width:0.8;"/>
   </g>
   <g id="patch_5">
    <path d="M 98.905312 596.218281 
L 909.217312 596.218281 
" style="fill:none;stroke:#333333;stroke-linecap:square;stroke-linejoin:miter;stroke-width:0.8;"/>
   </g>
   <g id="patch_6">
    <path d="M 98.905312 15.558281 
L 909.217312 15.558281 
" style="fill:none;stroke:#333333;stroke-linecap:square;stroke-linejoin:miter;stroke-width:0.8;"/>
   </g>
   <g id="text_14">
    <!-- $1-e=\left(\frac{M}{&lt;m_*&gt;}\right)^{-1/3}$ -->
    <defs>
     <path d="M 10.59375 25.78125 
L 73.1875 25.78125 
L 73.1875 14.703125 
L 10.59375 14.703125 
z
M 10.59375 48 
L 73.1875 48 
L 73.1875 36.921875 
L 10.59375 36.921875 
z
" id="DejaVuSerif-Bold-61"/>
     <path d="M 51.203125 -18 
L 51.203125 -24.09375 
Q 31.5 -5.59375 21.25 16.953125 
Q 11 39.5 11 68.203125 
Q 11 97.5 21.5 121.25 
Q 32 145 51.203125 160.40625 
L 51.203125 154.296875 
Q 39.703125 142.59375 32.046875 121.046875 
Q 24.40625 99.5 24.40625 68.203125 
Q 24.40625 51.90625 26.59375 38.09375 
Q 28.796875 24.296875 32.890625 13.9375 
Q 37 3.59375 41.296875 -3.75 
Q 45.59375 -11.09375 51.203125 -18 
z
" id="STIXSizeTwoSym-Bold-40"/>
     <path d="M 4.203125 0 
L 4.203125 5.90625 
L 13.484375 5.90625 
L 13.484375 67 
L 4.203125 67 
L 4.203125 72.90625 
L 34.28125 72.90625 
L 55.078125 26.125 
L 75.984375 72.90625 
L 106 72.90625 
L 106 67 
L 96.6875 67 
L 96.6875 5.90625 
L 106 5.90625 
L 106 0 
L 68.5 0 
L 68.5 5.90625 
L 77.78125 5.90625 
L 77.78125 61.53125 
L 55.171875 10.6875 
L 42.828125 10.6875 
L 20.3125 61.53125 
L 20.3125 5.90625 
L 29.59375 5.90625 
L 29.59375 0 
z
" id="DejaVuSerif-Bold-77"/>
     <path d="M 73.1875 47.796875 
L 25.390625 31.296875 
L 73.1875 14.890625 
L 73.1875 3.21875 
L 10.59375 25.875 
L 10.59375 36.921875 
L 73.1875 59.515625 
z
" id="DejaVuSerif-Bold-60"/>
     <path d="M 60.6875 43.40625 
Q 64.3125 48.578125 68.5 50.953125 
Q 72.703125 53.328125 78.328125 53.328125 
Q 87.25 53.328125 91.671875 48.265625 
Q 96.09375 43.21875 96.09375 33.015625 
L 96.09375 5.90625 
L 103.515625 5.90625 
L 103.515625 0 
L 72.609375 0 
L 72.609375 5.90625 
L 78.8125 5.90625 
L 78.8125 30.421875 
Q 78.8125 40.140625 77.3125 42.671875 
Q 75.828125 45.21875 71.78125 45.21875 
Q 67.1875 45.21875 64.640625 41.671875 
Q 62.109375 38.140625 62.109375 31.59375 
L 62.109375 5.90625 
L 68.3125 5.90625 
L 68.3125 0 
L 38.625 0 
L 38.625 5.90625 
L 44.828125 5.90625 
L 44.828125 30.421875 
Q 44.828125 40.140625 43.3125 42.671875 
Q 41.796875 45.21875 37.796875 45.21875 
Q 33.15625 45.21875 30.609375 41.671875 
Q 28.078125 38.140625 28.078125 31.59375 
L 28.078125 5.90625 
L 34.28125 5.90625 
L 34.28125 0 
L 3.421875 0 
L 3.421875 5.90625 
L 10.796875 5.90625 
L 10.796875 46 
L 3.421875 46 
L 3.421875 51.90625 
L 28.078125 51.90625 
L 28.078125 44.578125 
Q 31.109375 49.125 35.015625 51.21875 
Q 38.921875 53.328125 44.28125 53.328125 
Q 50.640625 53.328125 54.59375 50.90625 
Q 58.546875 48.484375 60.6875 43.40625 
z
" id="DejaVuSerif-Bold-109"/>
     <path d="M 50.09375 59.1875 
L 32.515625 50.984375 
L 50.09375 42.671875 
L 45.3125 35.109375 
L 29.296875 46.78125 
L 30.609375 27.78125 
L 21.6875 27.78125 
L 23 46.78125 
L 6.984375 35.109375 
L 2.203125 42.671875 
L 19.828125 50.984375 
L 2.203125 59.1875 
L 6.984375 66.890625 
L 23 55.078125 
L 21.6875 74.21875 
L 30.609375 74.21875 
L 29.296875 55.078125 
L 45.3125 66.890625 
z
" id="DejaVuSerif-Bold-42"/>
     <path d="M 10.59375 47.796875 
L 10.59375 59.515625 
L 73.1875 36.921875 
L 73.1875 25.875 
L 10.59375 3.21875 
L 10.59375 14.890625 
L 58.40625 31.296875 
z
" id="DejaVuSerif-Bold-62"/>
     <path d="M 9.59375 154.296875 
L 9.59375 160.40625 
Q 28.796875 145 39.296875 121.25 
Q 49.796875 97.5 49.796875 68.203125 
Q 49.796875 39.5 39.546875 16.953125 
Q 29.296875 -5.59375 9.59375 -24.09375 
L 9.59375 -18 
Q 15.203125 -11.09375 19.5 -3.75 
Q 23.796875 3.59375 27.890625 13.9375 
Q 32 24.296875 34.203125 38.09375 
Q 36.40625 51.90625 36.40625 68.203125 
Q 36.40625 99.5 28.75 121.046875 
Q 21.09375 142.59375 9.59375 154.296875 
z
" id="STIXSizeTwoSym-Bold-41"/>
    </defs>
    <g style="fill:#ffffff;" transform="translate(631.950312 476.177541)rotate(-90)scale(0.28 -0.28)">
     <use transform="translate(0 0.114062)" xlink:href="#DejaVuSerif-Bold-49"/>
     <use transform="translate(90.742188 0.114062)" xlink:href="#DejaVuSerif-Bold-8722"/>
     <use transform="translate(195.693359 0.114062)" xlink:href="#DejaVuSerif-Bold-101"/>
     <use transform="translate(280.478516 0.114062)" xlink:href="#DejaVuSerif-Bold-61"/>
     <use transform="translate(385.429688 -22.23625)scale(0.730871)" xlink:href="#STIXSizeTwoSym-Bold-40"/>
     <use transform="translate(540.861176 43.965625)scale(0.7)" xlink:href="#DejaVuSerif-Bold-77"/>
     <use transform="translate(444.674652 -28.945312)scale(0.7)" xlink:href="#DejaVuSerif-Bold-60"/>
     <use transform="translate(518.140472 -28.945312)scale(0.7)" xlink:href="#DejaVuSerif-Bold-109"/>
     <use transform="translate(603.21314 -39.845625)scale(0.49)" xlink:href="#DejaVuSerif-Bold-42"/>
     <use transform="translate(655.837281 -28.945312)scale(0.7)" xlink:href="#DejaVuSerif-Bold-62"/>
     <use transform="translate(741.803101 -22.23625)scale(0.730871)" xlink:href="#STIXSizeTwoSym-Bold-41"/>
     <use transform="translate(787.142949 36.448437)scale(0.7)" xlink:href="#DejaVuSerif-Bold-8722"/>
     <use transform="translate(845.795292 36.448437)scale(0.7)" xlink:href="#DejaVuSerif-Bold-49"/>
     <use transform="translate(894.501347 36.448437)scale(0.7)" xlink:href="#DejaVuSerif-Bold-47"/>
     <use transform="translate(920.067753 36.448437)scale(0.7)" xlink:href="#DejaVuSerif-Bold-51"/>
     <path d="M 429.861176 18.965625 
L 429.861176 25.215625 
L 729.303101 25.215625 
L 729.303101 18.965625 
L 429.861176 18.965625 
z
"/>
    </g>
   </g>
   <g id="text_15">
    <!-- $M_{bh}=4\times 10^6 M_{\odot}$ -->
    <defs>
     <path d="M 9.71875 5.90625 
L 9.71875 70.125 
L 2.296875 70.125 
L 2.296875 75.984375 
L 27 75.984375 
L 27 45.3125 
Q 29.203125 49.359375 32.90625 51.34375 
Q 36.625 53.328125 42.09375 53.328125 
Q 53.171875 53.328125 59.546875 46.015625 
Q 65.921875 38.71875 65.921875 25.984375 
Q 65.921875 13.234375 59.546875 5.90625 
Q 53.171875 -1.421875 42.09375 -1.421875 
Q 36.625 -1.421875 32.90625 0.5625 
Q 29.203125 2.546875 27 6.59375 
L 27 0 
L 2.296875 0 
L 2.296875 5.90625 
z
M 27 23.390625 
Q 27 14.3125 29.3125 10.25 
Q 31.640625 6.203125 36.8125 6.203125 
Q 42.140625 6.203125 44.3125 10.5 
Q 46.484375 14.796875 46.484375 25.984375 
Q 46.484375 37.15625 44.3125 41.421875 
Q 42.140625 45.703125 36.8125 45.703125 
Q 31.640625 45.703125 29.3125 41.640625 
Q 27 37.59375 27 28.515625 
z
" id="DejaVuSerif-Bold-98"/>
     <path d="M 3.421875 0 
L 3.421875 5.90625 
L 10.796875 5.90625 
L 10.796875 70.125 
L 3.078125 70.125 
L 3.078125 75.984375 
L 28.078125 75.984375 
L 28.078125 44.578125 
Q 31.203125 49.21875 35.203125 51.265625 
Q 39.203125 53.328125 45.3125 53.328125 
Q 54.046875 53.328125 58.515625 48.171875 
Q 62.984375 43.015625 62.984375 33.015625 
L 62.984375 5.90625 
L 70.40625 5.90625 
L 70.40625 0 
L 39.40625 0 
L 39.40625 5.90625 
L 45.703125 5.90625 
L 45.703125 33.5 
Q 45.703125 40.09375 44.015625 42.65625 
Q 42.328125 45.21875 38.1875 45.21875 
Q 32.953125 45.21875 30.515625 41.375 
Q 28.078125 37.546875 28.078125 29.203125 
L 28.078125 5.90625 
L 34.421875 5.90625 
L 34.421875 0 
z
" id="DejaVuSerif-Bold-104"/>
     <path d="M 63.8125 0 
L 23.6875 0 
L 23.6875 5.90625 
L 34.515625 5.90625 
L 34.515625 19.1875 
L 4.109375 19.1875 
L 4.109375 24.8125 
L 34.625 74.21875 
L 52.984375 74.21875 
L 52.984375 25.484375 
L 65.484375 25.484375 
L 65.484375 19.1875 
L 52.984375 19.1875 
L 52.984375 5.90625 
L 63.8125 5.90625 
z
M 34.515625 25.484375 
L 34.515625 60.890625 
L 12.796875 25.484375 
z
" id="DejaVuSerif-Bold-52"/>
     <path d="M 70.90625 52.78125 
L 49.421875 31.296875 
L 70.90625 9.8125 
L 63.375 2.296875 
L 41.890625 23.78125 
L 20.40625 2.296875 
L 12.890625 9.8125 
L 34.421875 31.296875 
L 12.890625 52.78125 
L 20.40625 60.40625 
L 41.890625 38.921875 
L 63.375 60.40625 
z
" id="DejaVuSerif-Bold-215"/>
     <path d="M 38.09375 22.125 
Q 32.625 27.546875 32.625 31.34375 
Q 32.625 35.15625 35.359375 37.890625 
Q 38.09375 40.625 41.890625 40.625 
Q 45.75 40.625 48.484375 37.890625 
Q 51.21875 35.15625 51.21875 31.34375 
Q 51.21875 27.546875 48.484375 24.828125 
Q 45.75 22.125 41.890625 22.125 
Q 38.09375 22.125 32.625 27.546875 
z
M 27.203125 46.046875 
Q 21.78125 36.765625 21.78125 31.34375 
Q 21.78125 25.921875 24.484375 21.28125 
Q 27.203125 16.65625 31.828125 13.9375 
Q 36.46875 11.234375 41.890625 11.234375 
Q 47.3125 11.234375 51.953125 13.9375 
Q 56.59375 16.65625 59.296875 21.28125 
Q 62.015625 25.921875 62.015625 31.34375 
Q 62.015625 36.765625 59.296875 41.40625 
Q 56.59375 46.046875 51.953125 48.75 
Q 47.3125 51.46875 41.890625 51.46875 
Q 36.46875 51.46875 31.828125 48.75 
Q 27.203125 46.046875 21.78125 36.765625 
z
M 18.953125 8.40625 
Q 10.546875 22.859375 10.546875 31.34375 
Q 10.546875 39.84375 14.75 47.0625 
Q 18.953125 54.296875 26.171875 58.5 
Q 33.40625 62.703125 41.890625 62.703125 
Q 50.390625 62.703125 57.609375 58.5 
Q 64.84375 54.296875 69.046875 47.0625 
Q 73.25 39.84375 73.25 31.34375 
Q 73.25 22.859375 69.046875 15.625 
Q 64.84375 8.40625 57.609375 4.203125 
Q 50.390625 0 41.890625 0 
Q 33.40625 0 26.171875 4.203125 
Q 18.953125 8.40625 10.546875 22.859375 
z
" id="DejaVuSerif-Bold-8857"/>
    </defs>
    <g style="fill:#ffffff;" transform="translate(119.163112 41.565749)scale(0.28 -0.28)">
     <use transform="translate(0 0.7125)" xlink:href="#DejaVuSerif-Bold-77"/>
     <use transform="translate(111.601719 -14.859375)scale(0.7)" xlink:href="#DejaVuSerif-Bold-98"/>
     <use transform="translate(160.547031 -14.859375)scale(0.7)" xlink:href="#DejaVuSerif-Bold-104"/>
     <use transform="translate(235.198008 0.7125)" xlink:href="#DejaVuSerif-Bold-61"/>
     <use transform="translate(340.14918 0.7125)" xlink:href="#DejaVuSerif-Bold-52"/>
     <use transform="translate(430.891367 0.7125)" xlink:href="#DejaVuSerif-Bold-215"/>
     <use transform="translate(535.842539 0.7125)" xlink:href="#DejaVuSerif-Bold-49"/>
     <use transform="translate(605.422617 0.7125)" xlink:href="#DejaVuSerif-Bold-48"/>
     <use transform="translate(675.911055 37.046875)scale(0.7)" xlink:href="#DejaVuSerif-Bold-54"/>
     <use transform="translate(727.212422 0.7125)" xlink:href="#DejaVuSerif-Bold-77"/>
     <use transform="translate(838.814141 -14.859375)scale(0.7)" xlink:href="#DejaVuSerif-Bold-8857"/>
    </g>
    <!-- $e_{bin}:$ 0 -->
    <defs>
     <path d="M 9.1875 66.609375 
Q 9.1875 70.5625 11.921875 73.265625 
Q 14.65625 75.984375 18.609375 75.984375 
Q 22.46875 75.984375 25.171875 73.265625 
Q 27.875 70.5625 27.875 66.609375 
Q 27.875 62.75 25.171875 60.03125 
Q 22.46875 57.328125 18.609375 57.328125 
Q 14.65625 57.328125 11.921875 60.015625 
Q 9.1875 62.703125 9.1875 66.609375 
z
M 28.078125 5.90625 
L 35.5 5.90625 
L 35.5 0 
L 3.421875 0 
L 3.421875 5.90625 
L 10.796875 5.90625 
L 10.796875 46 
L 3.421875 46 
L 3.421875 51.90625 
L 28.078125 51.90625 
z
" id="DejaVuSerif-Bold-105"/>
     <path d="M 3.421875 0 
L 3.421875 5.90625 
L 10.796875 5.90625 
L 10.796875 46 
L 3.421875 46 
L 3.421875 51.90625 
L 28.078125 51.90625 
L 28.078125 44.578125 
Q 31.203125 49.21875 35.203125 51.265625 
Q 39.203125 53.328125 45.3125 53.328125 
Q 54.046875 53.328125 58.515625 48.171875 
Q 62.984375 43.015625 62.984375 33.015625 
L 62.984375 5.90625 
L 70.40625 5.90625 
L 70.40625 0 
L 39.40625 0 
L 39.40625 5.90625 
L 45.703125 5.90625 
L 45.703125 33.5 
Q 45.703125 40.09375 44.015625 42.65625 
Q 42.328125 45.21875 38.1875 45.21875 
Q 32.953125 45.21875 30.515625 41.375 
Q 28.078125 37.546875 28.078125 29.203125 
L 28.078125 5.90625 
L 34.421875 5.90625 
L 34.421875 0 
z
" id="DejaVuSerif-Bold-110"/>
     <path d="M 9.1875 39.703125 
Q 9.1875 43.5625 11.890625 46.296875 
Q 14.59375 49.03125 18.40625 49.03125 
Q 22.21875 49.03125 24.953125 46.265625 
Q 27.6875 43.5 27.6875 39.703125 
Q 27.6875 35.890625 24.96875 33.203125 
Q 22.265625 30.515625 18.40625 30.515625 
Q 14.546875 30.515625 11.859375 33.203125 
Q 9.1875 35.890625 9.1875 39.703125 
z
M 9.1875 7.90625 
Q 9.1875 11.71875 11.890625 14.453125 
Q 14.59375 17.1875 18.40625 17.1875 
Q 22.21875 17.1875 24.953125 14.453125 
Q 27.6875 11.71875 27.6875 7.90625 
Q 27.6875 4.046875 24.953125 1.3125 
Q 22.21875 -1.421875 18.40625 -1.421875 
Q 14.59375 -1.421875 11.890625 1.3125 
Q 9.1875 4.046875 9.1875 7.90625 
z
" id="DejaVuSerif-Bold-58"/>
     <path id="DejaVuSerif-Bold-32"/>
    </defs>
    <g style="fill:#ffffff;" transform="translate(119.163112 72.919624)scale(0.28 -0.28)">
     <use transform="translate(0 0.78125)" xlink:href="#DejaVuSerif-Bold-101"/>
     <use transform="translate(64.531406 -14.790625)scale(0.7)" xlink:href="#DejaVuSerif-Bold-98"/>
     <use transform="translate(113.476719 -14.790625)scale(0.7)" xlink:href="#DejaVuSerif-Bold-105"/>
     <use transform="translate(140.068516 -14.790625)scale(0.7)" xlink:href="#DejaVuSerif-Bold-110"/>
     <use transform="translate(214.719492 0.78125)" xlink:href="#DejaVuSerif-Bold-58"/>
     <use transform="translate(272.795664 0.78125)" xlink:href="#DejaVuSerif-Bold-32"/>
     <use transform="translate(307.610117 0.78125)" xlink:href="#DejaVuSerif-Bold-48"/>
    </g>
   </g>
  </g>
  <g id="axes_2">
   <g id="patch_7">
    <path d="M 936.842313 596.218281 
L 1139.420313 596.218281 
L 1139.420313 15.558281 
L 936.842313 15.558281 
z
" style="fill:#ffffff;"/>
   </g>
   <g id="patch_8">
    <path clip-path="url(#p994e583e18)" d="M 936.842313 416.155245 
L 1009.191598 416.155245 
L 1009.191598 381.097595 
L 936.842313 381.097595 
z
" style="fill:#1a1a1a;stroke:#000000;stroke-linejoin:miter;"/>
   </g>
   <g id="patch_9">
    <path clip-path="url(#p994e583e18)" d="M 936.842313 381.097595 
L 960.958741 381.097595 
L 960.958741 346.039945 
L 936.842313 346.039945 
z
" style="fill:#1a1a1a;stroke:#000000;stroke-linejoin:miter;"/>
   </g>
   <g id="patch_10">
    <path clip-path="url(#p994e583e18)" d="M 936.842313 346.039945 
L 1081.540884 346.039945 
L 1081.540884 310.982295 
L 936.842313 310.982295 
z
" style="fill:#1a1a1a;stroke:#000000;stroke-linejoin:miter;"/>
   </g>
   <g id="patch_11">
    <path clip-path="url(#p994e583e18)" d="M 936.842313 310.982295 
L 1129.773741 310.982295 
L 1129.773741 275.924645 
L 936.842313 275.924645 
z
" style="fill:#1a1a1a;stroke:#000000;stroke-linejoin:miter;"/>
   </g>
   <g id="patch_12">
    <path clip-path="url(#p994e583e18)" d="M 936.842313 275.924645 
L 1033.308027 275.924645 
L 1033.308027 240.866995 
L 936.842313 240.866995 
z
" style="fill:#1a1a1a;stroke:#000000;stroke-linejoin:miter;"/>
   </g>
   <g id="patch_13">
    <path clip-path="url(#p994e583e18)" d="M 936.842313 240.866995 
L 1009.191598 240.866995 
L 1009.191598 205.809345 
L 936.842313 205.809345 
z
" style="fill:#1a1a1a;stroke:#000000;stroke-linejoin:miter;"/>
   </g>
   <g id="patch_14">
    <path clip-path="url(#p994e583e18)" d="M 936.842313 205.809345 
L 1081.540884 205.809345 
L 1081.540884 170.751695 
L 936.842313 170.751695 
z
" style="fill:#1a1a1a;stroke:#000000;stroke-linejoin:miter;"/>
   </g>
   <g id="patch_15">
    <path clip-path="url(#p994e583e18)" d="M 936.842313 170.751695 
L 1033.308027 170.751695 
L 1033.308027 135.694044 
L 936.842313 135.694044 
z
" style="fill:#1a1a1a;stroke:#000000;stroke-linejoin:miter;"/>
   </g>
   <g id="patch_16">
    <path clip-path="url(#p994e583e18)" d="M 936.842313 135.694044 
L 985.07517 135.694044 
L 985.07517 100.636394 
L 936.842313 100.636394 
z
" style="fill:#1a1a1a;stroke:#000000;stroke-linejoin:miter;"/>
   </g>
   <g id="patch_17">
    <path clip-path="url(#p994e583e18)" d="M 936.842313 100.636394 
L 985.07517 100.636394 
L 985.07517 65.578744 
L 936.842313 65.578744 
z
" style="fill:#1a1a1a;stroke:#000000;stroke-linejoin:miter;"/>
   </g>
   <g id="matplotlib.axis_3"/>
   <g id="matplotlib.axis_4">
    <g id="ytick_7">
     <g id="line2d_13">
      <g>
       <use style="fill:#333333;stroke:#333333;stroke-width:0.8;" x="936.842313" xlink:href="#mbd6a2f6b74" y="553.206429"/>
      </g>
     </g>
    </g>
    <g id="ytick_8">
     <g id="line2d_14">
      <g>
       <use style="fill:#333333;stroke:#333333;stroke-width:0.8;" x="936.842313" xlink:href="#mbd6a2f6b74" y="445.6768"/>
      </g>
     </g>
    </g>
    <g id="ytick_9">
     <g id="line2d_15">
      <g>
       <use style="fill:#333333;stroke:#333333;stroke-width:0.8;" x="936.842313" xlink:href="#mbd6a2f6b74" y="338.14717"/>
      </g>
     </g>
    </g>
    <g id="ytick_10">
     <g id="line2d_16">
      <g>
       <use style="fill:#333333;stroke:#333333;stroke-width:0.8;" x="936.842313" xlink:href="#mbd6a2f6b74" y="230.617541"/>
      </g>
     </g>
    </g>
    <g id="ytick_11">
     <g id="line2d_17">
      <g>
       <use style="fill:#333333;stroke:#333333;stroke-width:0.8;" x="936.842313" xlink:href="#mbd6a2f6b74" y="123.087911"/>
      </g>
     </g>
    </g>
    <g id="ytick_12">
     <g id="line2d_18">
      <g>
       <use style="fill:#333333;stroke:#333333;stroke-width:0.8;" x="936.842313" xlink:href="#mbd6a2f6b74" y="15.558281"/>
      </g>
     </g>
    </g>
   </g>
   <g id="patch_18">
    <path d="M 936.842313 596.218281 
L 936.842313 15.558281 
" style="fill:none;stroke:#333333;stroke-linecap:square;stroke-linejoin:miter;stroke-width:0.8;"/>
   </g>
   <g id="patch_19">
    <path d="M 1139.420313 596.218281 
L 1139.420313 15.558281 
" style="fill:none;stroke:#333333;stroke-linecap:square;stroke-linejoin:miter;stroke-width:0.8;"/>
   </g>
   <g id="patch_20">
    <path d="M 936.842313 596.218281 
L 1139.420313 596.218281 
" style="fill:none;stroke:#333333;stroke-linecap:square;stroke-linejoin:miter;stroke-width:0.8;"/>
   </g>
   <g id="patch_21">
    <path d="M 936.842313 15.558281 
L 1139.420313 15.558281 
" style="fill:none;stroke:#333333;stroke-linecap:square;stroke-linejoin:miter;stroke-width:0.8;"/>
   </g>
   <g id="text_16">
    <!-- S-star smas -->
    <defs>
     <path d="M 7.71875 3.515625 
L 7.71875 20.796875 
L 13.921875 20.796875 
Q 15.328125 12.59375 20.59375 8.546875 
Q 25.875 4.5 35.203125 4.5 
Q 42.78125 4.5 46.734375 7.375 
Q 50.6875 10.25 50.6875 15.828125 
Q 50.6875 20.21875 48 22.65625 
Q 45.3125 25.09375 36.921875 27.203125 
L 25.984375 29.890625 
Q 15.28125 32.625 10.9375 37.46875 
Q 6.59375 42.328125 6.59375 51.3125 
Q 6.59375 62.15625 13.796875 68.1875 
Q 21 74.21875 33.984375 74.21875 
Q 40.375 74.21875 47.28125 73.140625 
Q 54.203125 72.078125 61.625 69.921875 
L 61.625 53.8125 
L 55.421875 53.8125 
Q 54 61.328125 49.21875 64.8125 
Q 44.4375 68.3125 35.59375 68.3125 
Q 28.375 68.3125 24.6875 65.796875 
Q 21 63.28125 21 58.296875 
Q 21 53.765625 23.53125 51.390625 
Q 26.078125 49.03125 35.984375 46.484375 
L 46.921875 43.796875 
Q 57.078125 41.265625 61.640625 35.890625 
Q 66.21875 30.515625 66.21875 21.09375 
Q 66.21875 10.0625 58.59375 4.3125 
Q 50.984375 -1.421875 36.1875 -1.421875 
Q 29.046875 -1.421875 22.015625 -0.1875 
Q 14.984375 1.03125 7.71875 3.515625 
z
" id="DejaVuSerif-Bold-83"/>
     <path d="M 5.421875 33.40625 
L 36.078125 33.40625 
L 36.078125 20.21875 
L 5.421875 20.21875 
z
" id="DejaVuSerif-Bold-45"/>
     <path d="M 4.6875 1.515625 
L 4.6875 16.015625 
L 10.203125 16.015625 
Q 10.890625 10.203125 14.546875 7.15625 
Q 18.21875 4.109375 24.515625 4.109375 
Q 29.78125 4.109375 32.59375 5.9375 
Q 35.40625 7.765625 35.40625 11.1875 
Q 35.40625 14.3125 33.625 16.015625 
Q 31.84375 17.71875 26.703125 19 
L 19.578125 20.796875 
Q 11.53125 22.796875 7.90625 26.53125 
Q 4.296875 30.28125 4.296875 36.625 
Q 4.296875 45.0625 10.15625 49.1875 
Q 16.015625 53.328125 28.21875 53.328125 
Q 32.8125 53.328125 38.015625 52.5625 
Q 43.21875 51.8125 49.515625 50.203125 
L 49.515625 37.109375 
L 44 37.109375 
Q 43.5625 42.4375 40.203125 45.109375 
Q 36.859375 47.796875 30.609375 47.796875 
Q 25.34375 47.796875 22.625 46.109375 
Q 19.921875 44.4375 19.921875 41.21875 
Q 19.921875 38.578125 21.484375 37.0625 
Q 23.046875 35.546875 27.09375 34.515625 
L 34.1875 32.71875 
Q 44.390625 30.125 48.296875 26.3125 
Q 52.203125 22.515625 52.203125 15.71875 
Q 52.203125 6.9375 45.921875 2.75 
Q 39.65625 -1.421875 26.421875 -1.421875 
Q 21.578125 -1.421875 16.15625 -0.6875 
Q 10.75 0.046875 4.6875 1.515625 
z
" id="DejaVuSerif-Bold-115"/>
     <path d="M 9.90625 46 
L 2.390625 46 
L 2.390625 51.90625 
L 9.90625 51.90625 
L 9.90625 68.015625 
L 27.203125 68.015625 
L 27.203125 51.90625 
L 41.609375 51.90625 
L 41.609375 46 
L 27.203125 46 
L 27.203125 14.203125 
Q 27.203125 7.421875 28.265625 5.765625 
Q 29.34375 4.109375 32.171875 4.109375 
Q 35.296875 4.109375 36.8125 6.203125 
Q 38.328125 8.296875 38.421875 12.703125 
L 45.703125 12.703125 
Q 45.265625 4.890625 41.421875 1.734375 
Q 37.59375 -1.421875 28.21875 -1.421875 
Q 17.53125 -1.421875 13.71875 1.921875 
Q 9.90625 5.28125 9.90625 14.203125 
z
" id="DejaVuSerif-Bold-116"/>
     <path d="M 53.71875 52.484375 
L 53.71875 37.015625 
L 48.1875 37.015625 
Q 47.90625 41.15625 45.953125 43.1875 
Q 44 45.21875 40.28125 45.21875 
Q 34.625 45.21875 31.34375 40.234375 
Q 28.078125 35.25 28.078125 26.421875 
L 28.078125 5.90625 
L 37.5 5.90625 
L 37.5 0 
L 3.421875 0 
L 3.421875 5.90625 
L 10.796875 5.90625 
L 10.796875 46 
L 2.875 46 
L 2.875 51.90625 
L 28.078125 51.90625 
L 28.078125 42.671875 
Q 30.609375 48.09375 34.78125 50.703125 
Q 38.96875 53.328125 45.015625 53.328125 
Q 46.53125 53.328125 48.703125 53.09375 
Q 50.875 52.875 53.71875 52.484375 
z
" id="DejaVuSerif-Bold-114"/>
    </defs>
    <g transform="translate(938.375525 528.571242)scale(0.22 -0.22)">
     <use xlink:href="#DejaVuSerif-Bold-83"/>
     <use x="72.263672" xlink:href="#DejaVuSerif-Bold-45"/>
     <use x="113.767578" xlink:href="#DejaVuSerif-Bold-115"/>
     <use x="170.066406" xlink:href="#DejaVuSerif-Bold-116"/>
     <use x="216.257812" xlink:href="#DejaVuSerif-Bold-97"/>
     <use x="281.052734" xlink:href="#DejaVuSerif-Bold-114"/>
     <use x="333.738281" xlink:href="#DejaVuSerif-Bold-32"/>
     <use x="368.552734" xlink:href="#DejaVuSerif-Bold-115"/>
     <use x="424.851562" xlink:href="#DejaVuSerif-Bold-109"/>
     <use x="530.662109" xlink:href="#DejaVuSerif-Bold-97"/>
     <use x="595.457031" xlink:href="#DejaVuSerif-Bold-115"/>
    </g>
    <!-- Gillessen+2017 -->
    <defs>
     <path d="M 68.796875 50 
Q 66.609375 59.671875 61.46875 63.984375 
Q 56.34375 68.3125 47.015625 68.3125 
Q 35.6875 68.3125 30.390625 60.625 
Q 25.09375 52.9375 25.09375 36.375 
Q 25.09375 19.96875 30.171875 12.234375 
Q 35.25 4.5 46 4.5 
Q 50.09375 4.5 53.609375 5.421875 
Q 57.125 6.34375 60.015625 8.203125 
L 60.015625 28.21875 
L 51.21875 28.21875 
L 51.21875 34.078125 
L 77.484375 34.078125 
L 77.484375 6.109375 
Q 69.28125 2.296875 61.109375 0.4375 
Q 52.9375 -1.421875 44.390625 -1.421875 
Q 25.640625 -1.421875 14.921875 8.6875 
Q 4.203125 18.796875 4.203125 36.375 
Q 4.203125 54 14.921875 64.109375 
Q 25.640625 74.21875 44.390625 74.21875 
Q 52.203125 74.21875 59.765625 72.65625 
Q 67.328125 71.09375 75 67.921875 
L 75 50 
z
" id="DejaVuSerif-Bold-71"/>
     <path d="M 28.078125 5.90625 
L 35.5 5.90625 
L 35.5 0 
L 3.421875 0 
L 3.421875 5.90625 
L 10.796875 5.90625 
L 10.796875 70.125 
L 3.421875 70.125 
L 3.421875 75.984375 
L 28.078125 75.984375 
z
" id="DejaVuSerif-Bold-108"/>
     <path d="M 47.515625 62.703125 
L 47.515625 37.015625 
L 73.1875 37.015625 
L 73.1875 25.78125 
L 47.515625 25.78125 
L 47.515625 0.09375 
L 36.28125 0.09375 
L 36.28125 25.78125 
L 10.59375 25.78125 
L 10.59375 37.015625 
L 36.28125 37.015625 
L 36.28125 62.703125 
z
" id="DejaVuSerif-Bold-43"/>
    </defs>
    <g transform="translate(938.375525 553.206429)scale(0.22 -0.22)">
     <use xlink:href="#DejaVuSerif-Bold-71"/>
     <use x="85.400391" xlink:href="#DejaVuSerif-Bold-105"/>
     <use x="123.388672" xlink:href="#DejaVuSerif-Bold-108"/>
     <use x="161.376953" xlink:href="#DejaVuSerif-Bold-108"/>
     <use x="199.365234" xlink:href="#DejaVuSerif-Bold-101"/>
     <use x="262.988281" xlink:href="#DejaVuSerif-Bold-115"/>
     <use x="319.287109" xlink:href="#DejaVuSerif-Bold-115"/>
     <use x="375.585938" xlink:href="#DejaVuSerif-Bold-101"/>
     <use x="439.208984" xlink:href="#DejaVuSerif-Bold-110"/>
     <use x="511.914062" xlink:href="#DejaVuSerif-Bold-43"/>
     <use x="595.703125" xlink:href="#DejaVuSerif-Bold-50"/>
     <use x="665.283203" xlink:href="#DejaVuSerif-Bold-48"/>
     <use x="734.863281" xlink:href="#DejaVuSerif-Bold-49"/>
     <use x="804.443359" xlink:href="#DejaVuSerif-Bold-55"/>
    </g>
   </g>
  </g>
  <g id="axes_3">
   <g id="patch_22">
    <path clip-path="url(#pa5d0279586)" d="M 109.905312 585.218281 
L 109.905312 534.410531 
L 109.905312 229.564031 
L 109.905312 178.756281 
L 150.420912 178.756281 
L 150.420912 229.564031 
L 150.420912 534.410531 
L 150.420912 585.218281 
z
" style="fill:#ffffff;stroke:#ffffff;stroke-linejoin:miter;stroke-width:0.01;"/>
   </g>
   <g id="QuadMesh_1">
    <path clip-path="url(#pa5d0279586)" d="M 109.905312 585.218281 
L 150.420912 585.218281 
L 150.420912 534.410531 
L 109.905312 534.410531 
L 109.905312 585.218281 
" style="fill:#48186a;"/>
    <path clip-path="url(#pa5d0279586)" d="M 109.905312 534.410531 
L 150.420912 534.410531 
L 150.420912 483.602781 
L 109.905312 483.602781 
L 109.905312 534.410531 
" style="fill:#424086;"/>
    <path clip-path="url(#pa5d0279586)" d="M 109.905312 483.602781 
L 150.420912 483.602781 
L 150.420912 432.795031 
L 109.905312 432.795031 
L 109.905312 483.602781 
" style="fill:#33638d;"/>
    <path clip-path="url(#pa5d0279586)" d="M 109.905312 432.795031 
L 150.420912 432.795031 
L 150.420912 381.987281 
L 109.905312 381.987281 
L 109.905312 432.795031 
" style="fill:#26828e;"/>
    <path clip-path="url(#pa5d0279586)" d="M 109.905312 381.987281 
L 150.420912 381.987281 
L 150.420912 331.179531 
L 109.905312 331.179531 
L 109.905312 381.987281 
" style="fill:#1fa088;"/>
    <path clip-path="url(#pa5d0279586)" d="M 109.905312 331.179531 
L 150.420912 331.179531 
L 150.420912 280.371781 
L 109.905312 280.371781 
L 109.905312 331.179531 
" style="fill:#3fbc73;"/>
    <path clip-path="url(#pa5d0279586)" d="M 109.905312 280.371781 
L 150.420912 280.371781 
L 150.420912 229.564031 
L 109.905312 229.564031 
L 109.905312 280.371781 
" style="fill:#84d44b;"/>
    <path clip-path="url(#pa5d0279586)" d="M 109.905312 229.564031 
L 150.420912 229.564031 
L 150.420912 178.756281 
L 109.905312 178.756281 
L 109.905312 229.564031 
" style="fill:#d8e219;"/>
   </g>
   <g id="matplotlib.axis_5"/>
   <g id="matplotlib.axis_6">
    <g id="ytick_13">
     <g id="line2d_19">
      <defs>
       <path d="M 0 0 
L -6 0 
" id="me8e214de98" style="stroke:#ffffff;stroke-width:0.8;"/>
      </defs>
      <g>
       <use style="fill:#ffffff;stroke:#ffffff;stroke-width:0.8;" x="150.420912" xlink:href="#me8e214de98" y="585.218281"/>
      </g>
     </g>
     <g id="text_17">
      <!-- 0.0 -->
      <g style="fill:#ffffff;" transform="translate(153.920912 593.576562)scale(0.22 -0.22)">
       <use xlink:href="#DejaVuSerif-Bold-48"/>
       <use x="69.580078" xlink:href="#DejaVuSerif-Bold-46"/>
       <use x="104.394531" xlink:href="#DejaVuSerif-Bold-48"/>
      </g>
     </g>
    </g>
    <g id="ytick_14">
     <g id="line2d_20">
      <g>
       <use style="fill:#ffffff;stroke:#ffffff;stroke-width:0.8;" x="150.420912" xlink:href="#me8e214de98" y="534.410531"/>
      </g>
     </g>
     <g id="text_18">
      <!-- 0.1 -->
      <g style="fill:#ffffff;" transform="translate(153.920912 542.768812)scale(0.22 -0.22)">
       <use xlink:href="#DejaVuSerif-Bold-48"/>
       <use x="69.580078" xlink:href="#DejaVuSerif-Bold-46"/>
       <use x="104.394531" xlink:href="#DejaVuSerif-Bold-49"/>
      </g>
     </g>
    </g>
    <g id="ytick_15">
     <g id="line2d_21">
      <g>
       <use style="fill:#ffffff;stroke:#ffffff;stroke-width:0.8;" x="150.420912" xlink:href="#me8e214de98" y="483.602781"/>
      </g>
     </g>
     <g id="text_19">
      <!-- 0.2 -->
      <g style="fill:#ffffff;" transform="translate(153.920912 491.961062)scale(0.22 -0.22)">
       <use xlink:href="#DejaVuSerif-Bold-48"/>
       <use x="69.580078" xlink:href="#DejaVuSerif-Bold-46"/>
       <use x="104.394531" xlink:href="#DejaVuSerif-Bold-50"/>
      </g>
     </g>
    </g>
    <g id="ytick_16">
     <g id="line2d_22">
      <g>
       <use style="fill:#ffffff;stroke:#ffffff;stroke-width:0.8;" x="150.420912" xlink:href="#me8e214de98" y="432.795031"/>
      </g>
     </g>
     <g id="text_20">
      <!-- 0.3 -->
      <g style="fill:#ffffff;" transform="translate(153.920912 441.153312)scale(0.22 -0.22)">
       <use xlink:href="#DejaVuSerif-Bold-48"/>
       <use x="69.580078" xlink:href="#DejaVuSerif-Bold-46"/>
       <use x="104.394531" xlink:href="#DejaVuSerif-Bold-51"/>
      </g>
     </g>
    </g>
    <g id="ytick_17">
     <g id="line2d_23">
      <g>
       <use style="fill:#ffffff;stroke:#ffffff;stroke-width:0.8;" x="150.420912" xlink:href="#me8e214de98" y="381.987281"/>
      </g>
     </g>
     <g id="text_21">
      <!-- 0.4 -->
      <g style="fill:#ffffff;" transform="translate(153.920912 390.345563)scale(0.22 -0.22)">
       <use xlink:href="#DejaVuSerif-Bold-48"/>
       <use x="69.580078" xlink:href="#DejaVuSerif-Bold-46"/>
       <use x="104.394531" xlink:href="#DejaVuSerif-Bold-52"/>
      </g>
     </g>
    </g>
    <g id="ytick_18">
     <g id="line2d_24">
      <g>
       <use style="fill:#ffffff;stroke:#ffffff;stroke-width:0.8;" x="150.420912" xlink:href="#me8e214de98" y="331.179531"/>
      </g>
     </g>
     <g id="text_22">
      <!-- 0.5 -->
      <g style="fill:#ffffff;" transform="translate(153.920912 339.537813)scale(0.22 -0.22)">
       <use xlink:href="#DejaVuSerif-Bold-48"/>
       <use x="69.580078" xlink:href="#DejaVuSerif-Bold-46"/>
       <use x="104.394531" xlink:href="#DejaVuSerif-Bold-53"/>
      </g>
     </g>
    </g>
    <g id="ytick_19">
     <g id="line2d_25">
      <g>
       <use style="fill:#ffffff;stroke:#ffffff;stroke-width:0.8;" x="150.420912" xlink:href="#me8e214de98" y="280.371781"/>
      </g>
     </g>
     <g id="text_23">
      <!-- 0.6 -->
      <g style="fill:#ffffff;" transform="translate(153.920912 288.730063)scale(0.22 -0.22)">
       <use xlink:href="#DejaVuSerif-Bold-48"/>
       <use x="69.580078" xlink:href="#DejaVuSerif-Bold-46"/>
       <use x="104.394531" xlink:href="#DejaVuSerif-Bold-54"/>
      </g>
     </g>
    </g>
    <g id="ytick_20">
     <g id="line2d_26">
      <g>
       <use style="fill:#ffffff;stroke:#ffffff;stroke-width:0.8;" x="150.420912" xlink:href="#me8e214de98" y="229.564031"/>
      </g>
     </g>
     <g id="text_24">
      <!-- 0.7 -->
      <g style="fill:#ffffff;" transform="translate(153.920912 237.922313)scale(0.22 -0.22)">
       <use xlink:href="#DejaVuSerif-Bold-48"/>
       <use x="69.580078" xlink:href="#DejaVuSerif-Bold-46"/>
       <use x="104.394531" xlink:href="#DejaVuSerif-Bold-55"/>
      </g>
     </g>
    </g>
    <g id="ytick_21">
     <g id="line2d_27">
      <g>
       <use style="fill:#ffffff;stroke:#ffffff;stroke-width:0.8;" x="150.420912" xlink:href="#me8e214de98" y="178.756281"/>
      </g>
     </g>
     <g id="text_25">
      <!-- 0.8 -->
      <g style="fill:#ffffff;" transform="translate(153.920912 187.114563)scale(0.22 -0.22)">
       <use xlink:href="#DejaVuSerif-Bold-48"/>
       <use x="69.580078" xlink:href="#DejaVuSerif-Bold-46"/>
       <use x="104.394531" xlink:href="#DejaVuSerif-Bold-56"/>
      </g>
     </g>
    </g>
   </g>
   <g id="patch_23">
    <path d="M 109.905312 585.218281 
L 109.905312 534.410531 
L 109.905312 229.564031 
L 109.905312 178.756281 
L 150.420912 178.756281 
L 150.420912 229.564031 
L 150.420912 534.410531 
L 150.420912 585.218281 
z
" style="fill:none;stroke:#333333;stroke-linejoin:miter;stroke-width:0.8;"/>
   </g>
  </g>
 </g>
 <defs>
  <clipPath id="paa1b5416f5">
   <rect height="580.66" width="810.312" x="98.905313" y="15.558281"/>
  </clipPath>
  <clipPath id="p994e583e18">
   <rect height="580.66" width="202.578" x="936.842313" y="15.558281"/>
  </clipPath>
  <clipPath id="pa5d0279586">
   <rect height="406.462" width="40.5156" x="109.905312" y="178.756281"/>
  </clipPath>
 </defs>
</svg>
