<?xml version="1.0" encoding="utf-8" standalone="no"?>
<!DOCTYPE svg PUBLIC "-//W3C//DTD SVG 1.1//EN"
  "http://www.w3.org/Graphics/SVG/1.1/DTD/svg11.dtd">
<!-- Created with matplotlib (https://matplotlib.org/) -->
<svg height="518.638906pt" version="1.1" viewBox="0 0 667.571312 518.638906" width="667.571312pt" xmlns="http://www.w3.org/2000/svg" xmlns:xlink="http://www.w3.org/1999/xlink">
 <defs>
  <style type="text/css">
*{stroke-linecap:butt;stroke-linejoin:round;}
  </style>
 </defs>
 <g id="figure_1">
  <g id="patch_1">
   <path d="M 0 518.638906 
L 667.571312 518.638906 
L 667.571312 0 
L 0 0 
z
" style="fill:#ffffff;"/>
  </g>
  <g id="axes_1">
   <g id="patch_2">
    <path d="M 106.815 459.078281 
L 553.215 459.078281 
L 553.215 15.558281 
L 106.815 15.558281 
z
" style="fill:#ffffff;"/>
   </g>
   <g id="PathCollection_1">
    <path clip-path="url(#pfbb2586322)" d="M 112.395 726.719661 
L 123.555 726.719661 
L 134.715 726.719661 
L 145.875 726.719661 
L 157.035 726.719661 
L 168.195 726.719661 
L 179.355 726.719661 
L 190.515 726.719661 
L 201.675 726.719661 
L 212.835 726.719661 
L 223.995 726.719661 
L 235.155 726.719661 
L 246.315 726.719661 
L 257.475 726.719661 
L 268.635 726.719661 
L 279.795 726.719661 
L 290.955 726.719661 
L 302.115 726.719661 
L 313.275 726.719661 
L 324.435 726.719661 
L 335.595 726.719661 
L 346.755 726.719661 
L 357.915 726.719661 
L 369.075 726.719661 
L 380.235 726.719661 
L 391.395 726.719661 
L 402.555 726.719661 
L 413.715 726.719661 
L 424.875 726.719661 
L 436.035 726.719661 
L 447.195 726.719661 
L 458.355 726.719661 
L 469.515 726.719661 
L 480.675 726.719661 
L 491.835 726.719661 
L 502.995 726.719661 
L 514.155 726.719661 
L 525.315 726.719661 
L 536.475 726.719661 
L 547.635 726.719661 
L 558.795 726.719661 
L 569.955 726.719661 
L 581.115 726.719661 
L 592.275 726.719661 
L 603.435 726.719661 
L 603.435 650.250695 
L 603.435 573.78173 
L 603.435 497.312764 
L 603.435 420.843798 
L 603.435 344.374833 
L 603.435 267.905867 
L 603.435 191.436902 
L 603.435 114.967936 
L 603.435 38.498971 
L 603.435 -37.969995 
L 603.435 -114.43896 
L 592.275 -114.43896 
L 581.115 -114.43896 
L 569.955 -114.43896 
L 558.795 -114.43896 
L 547.635 -114.43896 
L 536.475 -114.43896 
L 525.315 -114.43896 
L 514.155 -114.43896 
L 502.995 -114.43896 
L 491.835 -114.43896 
L 480.675 -114.43896 
L 469.515 -114.43896 
L 458.355 -114.43896 
L 447.195 -114.43896 
L 436.035 -114.43896 
L 424.875 -114.43896 
L 413.715 -114.43896 
L 402.555 -114.43896 
L 391.395 -114.43896 
L 380.235 -114.43896 
L 369.075 -114.43896 
L 357.915 -114.43896 
L 346.755 -114.43896 
L 335.595 -114.43896 
L 324.435 -114.43896 
L 313.275 -114.43896 
L 302.115 -114.43896 
L 290.955 -114.43896 
L 279.795 -114.43896 
L 268.635 -114.43896 
L 257.475 -114.43896 
L 246.315 -114.43896 
L 235.155 -114.43896 
L 223.995 -114.43896 
L 212.835 -114.43896 
L 201.675 -114.43896 
L 190.515 -114.43896 
L 179.355 -114.43896 
L 168.195 -114.43896 
L 157.035 -114.43896 
L 145.875 -114.43896 
L 134.715 -114.43896 
L 123.555 -114.43896 
L 112.395 -114.43896 
L 101.235 -114.43896 
L 101.235 -37.969995 
L 101.235 38.498971 
L 101.235 114.967936 
L 101.235 191.436902 
L 101.235 267.905867 
L 101.235 344.374833 
L 101.235 420.843798 
L 101.235 497.312764 
L 101.235 573.78173 
L 101.235 650.250695 
L 101.235 726.719661 
z
M 206.354265 420.843798 
L 201.675 395.739471 
L 196.78329 344.374833 
L 192.321351 267.905867 
L 191.196681 191.436902 
L 194.148487 114.967936 
L 201.675 59.756995 
L 206.195455 38.498971 
L 212.835 10.362143 
L 223.995 -15.770371 
L 235.155 -26.730227 
L 246.315 -32.282567 
L 254.348313 -37.969995 
L 257.475 -42.266151 
L 268.635 -61.702246 
L 279.795 -71.647355 
L 290.955 -76.411763 
L 302.115 -79.212283 
L 313.275 -83.406781 
L 324.435 -87.267892 
L 335.595 -89.607158 
L 346.755 -91.883796 
L 357.915 -93.815754 
L 369.075 -95.136002 
L 380.235 -96.812602 
L 391.395 -100.552691 
L 402.555 -103.032082 
L 413.715 -99.808305 
L 424.875 -89.113655 
L 436.035 -72.212828 
L 447.195 -55.622244 
L 458.355 -41.88759 
L 460.506688 -37.969995 
L 469.515 -21.061154 
L 480.675 11.187023 
L 489.783975 38.498971 
L 482.409283 114.967936 
L 480.675 122.508498 
L 469.515 178.086926 
L 466.781402 191.436902 
L 458.355 242.206158 
L 454.771615 267.905867 
L 447.195 326.468821 
L 444.811192 344.374833 
L 436.035 401.587145 
L 430.186794 420.843798 
L 424.875 440.797401 
L 413.715 460.762604 
L 402.555 471.537152 
L 391.395 481.882629 
L 380.235 489.010713 
L 369.075 486.036963 
L 357.915 483.052016 
L 346.755 487.504885 
L 335.595 493.708806 
L 324.435 495.769681 
L 313.275 496.641768 
L 302.115 495.048825 
L 290.955 493.087284 
L 279.795 489.580015 
L 268.635 480.301469 
L 257.475 478.997328 
L 246.315 483.37031 
L 235.155 479.006537 
L 223.995 464.191286 
L 212.835 444.996532 
z
" style="fill:#481b6d;"/>
   </g>
   <g id="PathCollection_2">
    <path clip-path="url(#pfbb2586322)" d="M 212.835 444.996532 
L 223.995 464.191286 
L 235.155 479.006537 
L 246.315 483.37031 
L 257.475 478.997328 
L 268.635 480.301469 
L 279.795 489.580015 
L 290.955 493.087284 
L 302.115 495.048825 
L 313.275 496.641768 
L 324.435 495.769681 
L 335.595 493.708806 
L 346.755 487.504885 
L 357.915 483.052016 
L 369.075 486.036963 
L 380.235 489.010713 
L 391.395 481.882629 
L 402.555 471.537152 
L 413.715 460.762604 
L 424.875 440.797401 
L 430.186794 420.843798 
L 436.035 401.587145 
L 444.811192 344.374833 
L 447.195 326.468821 
L 454.771615 267.905867 
L 458.355 242.206158 
L 466.781402 191.436902 
L 469.515 178.086926 
L 480.675 122.508498 
L 482.409283 114.967936 
L 489.783975 38.498971 
L 480.675 11.187023 
L 469.515 -21.061154 
L 460.506688 -37.969995 
L 458.355 -41.88759 
L 447.195 -55.622244 
L 436.035 -72.212828 
L 424.875 -89.113655 
L 413.715 -99.808305 
L 402.555 -103.032082 
L 391.395 -100.552691 
L 380.235 -96.812602 
L 369.075 -95.136002 
L 357.915 -93.815754 
L 346.755 -91.883796 
L 335.595 -89.607158 
L 324.435 -87.267892 
L 313.275 -83.406781 
L 302.115 -79.212283 
L 290.955 -76.411763 
L 279.795 -71.647355 
L 268.635 -61.702246 
L 257.475 -42.266151 
L 254.348313 -37.969995 
L 246.315 -32.282567 
L 235.155 -26.730227 
L 223.995 -15.770371 
L 212.835 10.362143 
L 206.195455 38.498971 
L 201.675 59.756995 
L 194.148487 114.967936 
L 191.196681 191.436902 
L 192.321351 267.905867 
L 196.78329 344.374833 
L 201.675 395.739471 
L 206.354265 420.843798 
z
M 213.748852 344.374833 
L 212.835 340.457109 
L 204.083886 267.905867 
L 201.675 204.887097 
L 201.175736 191.436902 
L 201.675 182.365064 
L 205.588 114.967936 
L 212.835 75.479628 
L 223.995 40.946896 
L 225.569128 38.498971 
L 235.155 22.431903 
L 246.315 14.446183 
L 257.475 3.495132 
L 268.635 -12.317254 
L 279.795 -22.051372 
L 290.955 -27.330736 
L 302.115 -30.549421 
L 313.275 -34.989219 
L 321.345995 -37.969995 
L 324.435 -39.870695 
L 335.595 -44.051552 
L 346.755 -48.307102 
L 357.915 -52.018026 
L 369.075 -54.547 
L 380.235 -57.807304 
L 391.395 -65.080076 
L 402.555 -69.874805 
L 413.715 -63.509773 
L 424.875 -42.252363 
L 426.712255 -37.969995 
L 436.035 -16.865978 
L 447.195 9.554096 
L 458.355 34.369238 
L 459.726857 38.498971 
L 458.355 104.134684 
L 458.1912 114.967936 
L 447.195 189.182712 
L 446.989851 191.436902 
L 437.970341 267.905867 
L 436.035 281.93003 
L 424.875 339.651182 
L 423.089335 344.374833 
L 413.715 370.187941 
L 402.555 388.707113 
L 391.395 401.159936 
L 380.235 404.822902 
L 369.075 402.892503 
L 357.915 400.804065 
L 346.755 399.621783 
L 335.595 405.869258 
L 324.435 412.250331 
L 313.275 412.577024 
L 302.115 411.818044 
L 290.955 407.01196 
L 279.795 398.227633 
L 268.635 394.248178 
L 257.475 398.066381 
L 246.315 402.727386 
L 235.155 397.196014 
L 223.995 379.643201 
z
" style="fill:#3f4788;"/>
   </g>
   <g id="PathCollection_3">
    <path clip-path="url(#pfbb2586322)" d="M 223.995 379.643201 
L 235.155 397.196014 
L 246.315 402.727386 
L 257.475 398.066381 
L 268.635 394.248178 
L 279.795 398.227633 
L 290.955 407.01196 
L 302.115 411.818044 
L 313.275 412.577024 
L 324.435 412.250331 
L 335.595 405.869258 
L 346.755 399.621783 
L 357.915 400.804065 
L 369.075 402.892503 
L 380.235 404.822902 
L 391.395 401.159936 
L 402.555 388.707113 
L 413.715 370.187941 
L 423.089335 344.374833 
L 424.875 339.651182 
L 436.035 281.93003 
L 437.970341 267.905867 
L 446.989851 191.436902 
L 447.195 189.182712 
L 458.1912 114.967936 
L 458.355 104.134684 
L 459.726857 38.498971 
L 458.355 34.369238 
L 447.195 9.554096 
L 436.035 -16.865978 
L 426.712255 -37.969995 
L 424.875 -42.252363 
L 413.715 -63.509773 
L 402.555 -69.874805 
L 391.395 -65.080076 
L 380.235 -57.807304 
L 369.075 -54.547 
L 357.915 -52.018026 
L 346.755 -48.307102 
L 335.595 -44.051552 
L 324.435 -39.870695 
L 321.345995 -37.969995 
L 313.275 -34.989219 
L 302.115 -30.549421 
L 290.955 -27.330736 
L 279.795 -22.051372 
L 268.635 -12.317254 
L 257.475 3.495132 
L 246.315 14.446183 
L 235.155 22.431903 
L 225.569128 38.498971 
L 223.995 40.946896 
L 212.835 75.479628 
L 205.588 114.967936 
L 201.675 182.365064 
L 201.175736 191.436902 
L 201.675 204.887097 
L 204.083886 267.905867 
L 212.835 340.457109 
L 213.748852 344.374833 
z
M 240.055253 344.374833 
L 235.155 340.112735 
L 223.995 314.59132 
L 214.659648 267.905867 
L 212.835 243.66546 
L 210.024481 191.436902 
L 212.835 152.708226 
L 216.55656 114.967936 
L 223.995 86.559372 
L 235.155 66.66422 
L 246.315 59.084032 
L 257.475 47.165696 
L 261.636213 38.498971 
L 268.635 25.909318 
L 279.795 12.466474 
L 290.955 4.570506 
L 302.115 -0.507661 
L 313.275 -6.540692 
L 324.435 -11.077654 
L 335.595 -13.444121 
L 346.755 -16.603956 
L 357.915 -19.676904 
L 369.075 -21.801556 
L 380.235 -24.842848 
L 391.395 -32.045381 
L 402.555 -37.057171 
L 413.715 -30.203565 
L 424.875 -7.886288 
L 436.035 28.645514 
L 439.297726 38.498971 
L 442.809749 114.967936 
L 436.035 189.4243 
L 435.873171 191.436902 
L 425.055729 267.905867 
L 424.875 268.910009 
L 413.715 307.034327 
L 402.555 328.83774 
L 391.395 343.028876 
L 387.201439 344.374833 
L 380.235 346.944428 
L 369.075 348.057765 
L 357.915 347.752441 
L 350.48251 344.374833 
L 346.755 343.037929 
L 341.560353 344.374833 
L 335.595 346.549895 
L 324.435 355.813871 
L 313.275 358.383265 
L 302.115 358.162013 
L 290.955 351.710143 
L 283.227768 344.374833 
L 279.795 341.654061 
L 268.635 340.450874 
L 260.162548 344.374833 
L 257.475 345.818591 
L 246.315 349.742119 
z
" style="fill:#2e6e8e;"/>
   </g>
   <g id="PathCollection_4">
    <path clip-path="url(#pfbb2586322)" d="M 246.315 349.742119 
L 257.475 345.818591 
L 260.162548 344.374833 
L 268.635 340.450874 
L 279.795 341.654061 
L 283.227768 344.374833 
L 290.955 351.710143 
L 302.115 358.162013 
L 313.275 358.383265 
L 324.435 355.813871 
L 335.595 346.549895 
L 341.560353 344.374833 
L 346.755 343.037929 
L 350.48251 344.374833 
L 357.915 347.752441 
L 369.075 348.057765 
L 380.235 346.944428 
L 387.201439 344.374833 
L 391.395 343.028876 
L 402.555 328.83774 
L 413.715 307.034327 
L 424.875 268.910009 
L 425.055729 267.905867 
L 435.873171 191.436902 
L 436.035 189.4243 
L 442.809749 114.967936 
L 439.297726 38.498971 
L 436.035 28.645514 
L 424.875 -7.886288 
L 413.715 -30.203565 
L 402.555 -37.057171 
L 391.395 -32.045381 
L 380.235 -24.842848 
L 369.075 -21.801556 
L 357.915 -19.676904 
L 346.755 -16.603956 
L 335.595 -13.444121 
L 324.435 -11.077654 
L 313.275 -6.540692 
L 302.115 -0.507661 
L 290.955 4.570506 
L 279.795 12.466474 
L 268.635 25.909318 
L 261.636213 38.498971 
L 257.475 47.165696 
L 246.315 59.084032 
L 235.155 66.66422 
L 223.995 86.559372 
L 216.55656 114.967936 
L 212.835 152.708226 
L 210.024481 191.436902 
L 212.835 243.66546 
L 214.659648 267.905867 
L 223.995 314.59132 
L 235.155 340.112735 
L 240.055253 344.374833 
z
M 228.593494 267.905867 
L 223.995 237.988226 
L 220.032401 191.436902 
L 223.995 153.338117 
L 231.911789 114.967936 
L 235.155 108.5032 
L 246.315 101.504025 
L 257.475 91.425491 
L 268.635 69.671948 
L 279.795 50.230484 
L 288.662668 38.498971 
L 290.955 36.471747 
L 302.115 29.534099 
L 313.275 21.907835 
L 324.435 16.938163 
L 335.595 14.860323 
L 346.755 11.406662 
L 357.915 7.876897 
L 369.075 5.528982 
L 380.235 1.869829 
L 391.395 -6.914056 
L 402.555 -12.891473 
L 413.715 -4.00072 
L 424.875 25.223083 
L 428.652933 38.498971 
L 432.781323 114.967936 
L 426.027305 191.436902 
L 424.875 199.551864 
L 413.715 249.727478 
L 406.356382 267.905867 
L 402.555 276.536789 
L 391.395 292.665907 
L 380.235 296.920939 
L 369.075 300.324553 
L 357.915 304.52741 
L 346.755 301.167722 
L 335.595 300.385834 
L 324.435 306.329052 
L 313.275 309.738975 
L 302.115 308.881993 
L 290.955 302.616764 
L 279.795 295.480582 
L 268.635 295.406026 
L 257.475 298.172972 
L 246.315 298.354719 
L 235.155 286.364776 
z
" style="fill:#21918c;"/>
   </g>
   <g id="PathCollection_5">
    <path clip-path="url(#pfbb2586322)" d="M 235.155 286.364776 
L 246.315 298.354719 
L 257.475 298.172972 
L 268.635 295.406026 
L 279.795 295.480582 
L 290.955 302.616764 
L 302.115 308.881993 
L 313.275 309.738975 
L 324.435 306.329052 
L 335.595 300.385834 
L 346.755 301.167722 
L 357.915 304.52741 
L 369.075 300.324553 
L 380.235 296.920939 
L 391.395 292.665907 
L 402.555 276.536789 
L 406.356382 267.905867 
L 413.715 249.727478 
L 424.875 199.551864 
L 426.027305 191.436902 
L 432.781323 114.967936 
L 428.652933 38.498971 
L 424.875 25.223083 
L 413.715 -4.00072 
L 402.555 -12.891473 
L 391.395 -6.914056 
L 380.235 1.869829 
L 369.075 5.528982 
L 357.915 7.876897 
L 346.755 11.406662 
L 335.595 14.860323 
L 324.435 16.938163 
L 313.275 21.907835 
L 302.115 29.534099 
L 290.955 36.471747 
L 288.662668 38.498971 
L 279.795 50.230484 
L 268.635 69.671948 
L 257.475 91.425491 
L 246.315 101.504025 
L 235.155 108.5032 
L 231.911789 114.967936 
L 223.995 153.338117 
L 220.032401 191.436902 
L 223.995 237.988226 
L 228.593494 267.905867 
z
M 237.090508 191.436902 
L 246.315 177.469858 
L 257.475 163.265772 
L 268.635 118.964993 
L 269.37992 114.967936 
L 279.795 97.953514 
L 290.955 82.038488 
L 302.115 69.424116 
L 313.275 57.00366 
L 324.435 49.667775 
L 335.595 47.143993 
L 346.755 40.320008 
L 349.293317 38.498971 
L 357.915 35.430699 
L 369.075 32.85952 
L 380.235 28.582506 
L 391.395 18.217269 
L 402.555 11.274224 
L 413.715 22.202125 
L 419.399748 38.498971 
L 424.441231 114.967936 
L 414.014417 191.436902 
L 413.715 192.822125 
L 402.555 221.296562 
L 391.395 236.793548 
L 380.235 241.025234 
L 369.075 247.480232 
L 357.915 259.33919 
L 346.755 256.498446 
L 335.595 251.893271 
L 324.435 256.564887 
L 313.275 261.63243 
L 302.115 258.574536 
L 290.955 247.818637 
L 279.795 236.98877 
L 268.635 232.941257 
L 257.475 224.262685 
L 246.315 212.344015 
z
" style="fill:#2db27d;"/>
   </g>
   <g id="PathCollection_6">
    <path clip-path="url(#pfbb2586322)" d="M 246.315 212.344015 
L 257.475 224.262685 
L 268.635 232.941257 
L 279.795 236.98877 
L 290.955 247.818637 
L 302.115 258.574536 
L 313.275 261.63243 
L 324.435 256.564887 
L 335.595 251.893271 
L 346.755 256.498446 
L 357.915 259.33919 
L 369.075 247.480232 
L 380.235 241.025234 
L 391.395 236.793548 
L 402.555 221.296562 
L 413.715 192.822125 
L 414.014417 191.436902 
L 424.441231 114.967936 
L 419.399748 38.498971 
L 413.715 22.202125 
L 402.555 11.274224 
L 391.395 18.217269 
L 380.235 28.582506 
L 369.075 32.85952 
L 357.915 35.430699 
L 349.293317 38.498971 
L 346.755 40.320008 
L 335.595 47.143993 
L 324.435 49.667775 
L 313.275 57.00366 
L 302.115 69.424116 
L 290.955 82.038488 
L 279.795 97.953514 
L 269.37992 114.967936 
L 268.635 118.964993 
L 257.475 163.265772 
L 246.315 177.469858 
L 237.090508 191.436902 
z
M 301.051703 191.436902 
L 300.973727 114.967936 
L 302.115 113.503003 
L 313.275 101.400535 
L 324.435 98.142247 
L 335.595 99.587895 
L 346.755 95.865989 
L 357.915 93.163965 
L 369.075 94.521132 
L 380.235 87.776215 
L 391.395 57.18752 
L 398.134188 38.498971 
L 402.555 35.439922 
L 405.354447 38.498971 
L 413.715 90.588481 
L 415.327563 114.967936 
L 413.715 126.706947 
L 402.555 161.161367 
L 391.395 168.296706 
L 380.235 160.7063 
L 369.075 166.535576 
L 362.712476 191.436902 
L 357.915 197.915259 
L 346.755 201.013832 
L 335.595 196.43032 
L 324.435 198.340228 
L 313.275 201.544019 
L 302.115 192.935798 
z
" style="fill:#73d056;"/>
   </g>
   <g id="PathCollection_7">
    <path clip-path="url(#pfbb2586322)" d="M 302.115 192.935798 
L 313.275 201.544019 
L 324.435 198.340228 
L 335.595 196.43032 
L 346.755 201.013832 
L 357.915 197.915259 
L 362.712476 191.436902 
L 369.075 166.535576 
L 380.235 160.7063 
L 391.395 168.296706 
L 402.555 161.161367 
L 413.715 126.706947 
L 415.327563 114.967936 
L 413.715 90.588481 
L 405.354447 38.498971 
L 402.555 35.439922 
L 398.134188 38.498971 
L 391.395 57.18752 
L 380.235 87.776215 
L 369.075 94.521132 
L 357.915 93.163965 
L 346.755 95.865989 
L 335.595 99.587895 
L 324.435 98.142247 
L 313.275 101.400535 
L 302.115 113.503003 
L 300.973727 114.967936 
L 301.051703 191.436902 
z
" style="fill:#d0e11c;"/>
   </g>
   <g id="matplotlib.axis_1">
    <g id="xtick_1">
     <g id="line2d_1">
      <defs>
       <path d="M 0 0 
L 0 -6 
" id="m11e3a2142d" style="stroke:#333333;stroke-width:0.8;"/>
      </defs>
      <g>
       <use style="fill:#333333;stroke:#333333;stroke-width:0.8;" x="106.815" xlink:href="#m11e3a2142d" y="459.078281"/>
      </g>
     </g>
     <g id="text_1">
      <!-- −4 -->
      <defs>
       <path d="M 10.59375 36.921875 
L 73.1875 36.921875 
L 73.1875 25.6875 
L 10.59375 25.6875 
z
" id="DejaVuSerif-Bold-8722"/>
       <path d="M 63.8125 0 
L 23.6875 0 
L 23.6875 5.90625 
L 34.515625 5.90625 
L 34.515625 19.1875 
L 4.109375 19.1875 
L 4.109375 24.8125 
L 34.625 74.21875 
L 52.984375 74.21875 
L 52.984375 25.484375 
L 65.484375 25.484375 
L 65.484375 19.1875 
L 52.984375 19.1875 
L 52.984375 5.90625 
L 63.8125 5.90625 
z
M 34.515625 25.484375 
L 34.515625 60.890625 
L 12.796875 25.484375 
z
" id="DejaVuSerif-Bold-52"/>
      </defs>
      <g style="fill:#333333;" transform="translate(89.94375 479.294844)scale(0.22 -0.22)">
       <use xlink:href="#DejaVuSerif-Bold-8722"/>
       <use x="83.789062" xlink:href="#DejaVuSerif-Bold-52"/>
      </g>
     </g>
    </g>
    <g id="xtick_2">
     <g id="line2d_2">
      <g>
       <use style="fill:#333333;stroke:#333333;stroke-width:0.8;" x="218.415" xlink:href="#m11e3a2142d" y="459.078281"/>
      </g>
     </g>
     <g id="text_2">
      <!-- −3 -->
      <defs>
       <path d="M 8.59375 70.796875 
Q 15.046875 72.515625 21.09375 73.359375 
Q 27.15625 74.21875 32.90625 74.21875 
Q 46.09375 74.21875 53.140625 69.5 
Q 60.203125 64.796875 60.203125 56 
Q 60.203125 49.421875 56.140625 45.3125 
Q 52.09375 41.21875 44.28125 39.796875 
Q 53.8125 38.28125 58.5 33.296875 
Q 63.1875 28.328125 63.1875 19.671875 
Q 63.1875 9.46875 55.09375 4.015625 
Q 47.015625 -1.421875 31.6875 -1.421875 
Q 25.921875 -1.421875 19.796875 -0.4375 
Q 13.671875 0.53125 6.984375 2.484375 
L 6.984375 18.5 
L 12.890625 18.5 
Q 13.421875 11.578125 17.234375 7.9375 
Q 21.046875 4.296875 27.78125 4.296875 
Q 35.203125 4.296875 39.25 8.421875 
Q 43.3125 12.546875 43.3125 20.125 
Q 43.3125 28.03125 39.078125 32.328125 
Q 34.859375 36.625 27.09375 36.625 
L 23.875 36.625 
L 23.875 42.484375 
L 26.421875 42.484375 
Q 33.59375 42.484375 37.203125 45.796875 
Q 40.828125 49.125 40.828125 55.71875 
Q 40.828125 61.921875 37.421875 65.203125 
Q 34.03125 68.5 27.6875 68.5 
Q 21.921875 68.5 18.546875 65.34375 
Q 15.1875 62.203125 14.5 56.203125 
L 8.59375 56.203125 
z
" id="DejaVuSerif-Bold-51"/>
      </defs>
      <g style="fill:#333333;" transform="translate(201.54375 479.294844)scale(0.22 -0.22)">
       <use xlink:href="#DejaVuSerif-Bold-8722"/>
       <use x="83.789062" xlink:href="#DejaVuSerif-Bold-51"/>
      </g>
     </g>
    </g>
    <g id="xtick_3">
     <g id="line2d_3">
      <g>
       <use style="fill:#333333;stroke:#333333;stroke-width:0.8;" x="330.015" xlink:href="#m11e3a2142d" y="459.078281"/>
      </g>
     </g>
     <g id="text_3">
      <!-- −2 -->
      <defs>
       <path d="M 13.1875 54.890625 
L 7.328125 54.890625 
L 7.328125 70.609375 
Q 13.28125 72.40625 19.109375 73.3125 
Q 24.953125 74.21875 30.90625 74.21875 
Q 44.828125 74.21875 52.609375 68.53125 
Q 60.40625 62.84375 60.40625 52.6875 
Q 60.40625 45.453125 56.109375 39.71875 
Q 51.8125 33.984375 39.703125 26.125 
L 19.390625 12.796875 
L 53.90625 12.796875 
L 53.90625 21.390625 
L 60.59375 21.390625 
L 60.59375 0 
L 6.6875 0 
L 6.6875 11.921875 
L 17.484375 19.390625 
Q 31.296875 28.90625 35.890625 35.59375 
Q 40.484375 42.28125 40.484375 51.21875 
Q 40.484375 59.671875 36.984375 64.078125 
Q 33.5 68.5 26.8125 68.5 
Q 21.046875 68.5 17.578125 65.015625 
Q 14.109375 61.53125 13.1875 54.890625 
z
" id="DejaVuSerif-Bold-50"/>
      </defs>
      <g style="fill:#333333;" transform="translate(313.14375 479.294844)scale(0.22 -0.22)">
       <use xlink:href="#DejaVuSerif-Bold-8722"/>
       <use x="83.789062" xlink:href="#DejaVuSerif-Bold-50"/>
      </g>
     </g>
    </g>
    <g id="xtick_4">
     <g id="line2d_4">
      <g>
       <use style="fill:#333333;stroke:#333333;stroke-width:0.8;" x="441.615" xlink:href="#m11e3a2142d" y="459.078281"/>
      </g>
     </g>
     <g id="text_4">
      <!-- −1 -->
      <defs>
       <path d="M 13.71875 0 
L 13.71875 5.90625 
L 27.390625 5.90625 
L 27.390625 64.890625 
L 12.203125 55.90625 
L 12.203125 63.1875 
L 30.515625 74.21875 
L 45.90625 74.21875 
L 45.90625 5.90625 
L 59.625 5.90625 
L 59.625 0 
z
" id="DejaVuSerif-Bold-49"/>
      </defs>
      <g style="fill:#333333;" transform="translate(424.74375 479.294844)scale(0.22 -0.22)">
       <use xlink:href="#DejaVuSerif-Bold-8722"/>
       <use x="83.789062" xlink:href="#DejaVuSerif-Bold-49"/>
      </g>
     </g>
    </g>
    <g id="xtick_5">
     <g id="line2d_5">
      <g>
       <use style="fill:#333333;stroke:#333333;stroke-width:0.8;" x="553.215" xlink:href="#m11e3a2142d" y="459.078281"/>
      </g>
     </g>
     <g id="text_5">
      <!-- 0 -->
      <defs>
       <path d="M 34.8125 4.296875 
Q 40.671875 4.296875 42.84375 9.609375 
Q 45.015625 14.9375 45.015625 36.375 
Q 45.015625 57.671875 42.84375 63.078125 
Q 40.671875 68.5 34.8125 68.5 
Q 28.953125 68.5 26.78125 63.171875 
Q 24.609375 57.859375 24.609375 36.375 
Q 24.609375 14.9375 26.78125 9.609375 
Q 28.953125 4.296875 34.8125 4.296875 
z
M 34.8125 -1.421875 
Q 20.21875 -1.421875 12.453125 8.3125 
Q 4.6875 18.0625 4.6875 36.375 
Q 4.6875 54.6875 12.453125 64.453125 
Q 20.21875 74.21875 34.8125 74.21875 
Q 49.359375 74.21875 57.125 64.453125 
Q 64.890625 54.6875 64.890625 36.375 
Q 64.890625 18.0625 57.125 8.3125 
Q 49.359375 -1.421875 34.8125 -1.421875 
z
" id="DejaVuSerif-Bold-48"/>
      </defs>
      <g style="fill:#333333;" transform="translate(545.561406 479.294844)scale(0.22 -0.22)">
       <use xlink:href="#DejaVuSerif-Bold-48"/>
      </g>
     </g>
    </g>
    <g id="text_6">
     <!-- Log[a/pc] -->
     <defs>
      <path d="M 4.6875 0 
L 4.6875 5.90625 
L 14.015625 5.90625 
L 14.015625 67 
L 4.6875 67 
L 4.6875 72.90625 
L 42.1875 72.90625 
L 42.1875 67 
L 32.8125 67 
L 32.8125 6.6875 
L 61.53125 6.6875 
L 61.53125 18.21875 
L 68.109375 18.21875 
L 68.109375 0 
z
" id="DejaVuSerif-Bold-76"/>
      <path d="M 33.40625 4.109375 
Q 38.875 4.109375 41.09375 8.796875 
Q 43.3125 13.484375 43.3125 25.984375 
Q 43.3125 38.484375 41.109375 43.140625 
Q 38.921875 47.796875 33.40625 47.796875 
Q 27.875 47.796875 25.625 43.078125 
Q 23.390625 38.375 23.390625 25.984375 
Q 23.390625 13.578125 25.625 8.84375 
Q 27.875 4.109375 33.40625 4.109375 
z
M 33.40625 -1.421875 
Q 19.671875 -1.421875 11.890625 5.875 
Q 4.109375 13.1875 4.109375 25.984375 
Q 4.109375 38.8125 11.890625 46.0625 
Q 19.671875 53.328125 33.40625 53.328125 
Q 47.171875 53.328125 54.9375 46.0625 
Q 62.703125 38.8125 62.703125 25.984375 
Q 62.703125 13.1875 54.90625 5.875 
Q 47.125 -1.421875 33.40625 -1.421875 
z
" id="DejaVuSerif-Bold-111"/>
      <path d="M 60.203125 46 
L 60.203125 0.6875 
Q 60.203125 -10.25 52.40625 -16.234375 
Q 44.625 -22.21875 30.421875 -22.21875 
Q 25.25 -22.21875 19.921875 -21.40625 
Q 14.59375 -20.609375 8.984375 -19 
L 8.984375 -6.59375 
L 14.5 -6.59375 
Q 15.234375 -11.71875 18.625 -14.203125 
Q 22.015625 -16.703125 28.328125 -16.703125 
Q 36.328125 -16.703125 39.625 -12.859375 
Q 42.921875 -9.03125 42.921875 0.6875 
L 42.921875 6.59375 
Q 40.71875 2.546875 36.984375 0.5625 
Q 33.25 -1.421875 27.78125 -1.421875 
Q 16.75 -1.421875 10.421875 5.90625 
Q 4.109375 13.234375 4.109375 25.984375 
Q 4.109375 38.765625 10.421875 46.046875 
Q 16.75 53.328125 27.78125 53.328125 
Q 33.25 53.328125 36.984375 51.34375 
Q 40.71875 49.359375 42.921875 45.3125 
L 42.921875 51.90625 
L 67.578125 51.90625 
L 67.578125 46 
z
M 42.921875 28.515625 
Q 42.921875 37.59375 40.578125 41.640625 
Q 38.234375 45.703125 33.109375 45.703125 
Q 27.734375 45.703125 25.5625 41.421875 
Q 23.390625 37.15625 23.390625 25.984375 
Q 23.390625 14.796875 25.578125 10.5 
Q 27.78125 6.203125 33.109375 6.203125 
Q 38.234375 6.203125 40.578125 10.25 
Q 42.921875 14.3125 42.921875 23.390625 
z
" id="DejaVuSerif-Bold-103"/>
      <path d="M 12.5 75.984375 
L 40.1875 75.984375 
L 40.1875 70.125 
L 29.78125 70.125 
L 29.78125 -7.328125 
L 40.1875 -7.328125 
L 40.1875 -13.1875 
L 12.5 -13.1875 
z
" id="DejaVuSerif-Bold-91"/>
      <path d="M 55.078125 31.890625 
L 55.078125 5.90625 
L 62.5 5.90625 
L 62.5 0 
L 37.796875 0 
L 37.796875 6.59375 
Q 34.375 2.484375 30.171875 0.53125 
Q 25.984375 -1.421875 20.609375 -1.421875 
Q 12.640625 -1.421875 8.375 2.84375 
Q 4.109375 7.125 4.109375 15.09375 
Q 4.109375 23.828125 10.234375 28.171875 
Q 16.359375 32.515625 28.71875 32.515625 
L 37.796875 32.515625 
L 37.796875 35.59375 
Q 37.796875 41.890625 34.8125 44.890625 
Q 31.84375 47.90625 25.59375 47.90625 
Q 20.40625 47.90625 17.59375 45.78125 
Q 14.796875 43.65625 13.625 38.8125 
L 8.109375 38.8125 
L 8.109375 50 
Q 12.75 51.65625 17.71875 52.484375 
Q 22.703125 53.328125 28.21875 53.328125 
Q 42.140625 53.328125 48.609375 48.140625 
Q 55.078125 42.96875 55.078125 31.890625 
z
M 37.796875 16.3125 
L 37.796875 26.703125 
L 31.296875 26.703125 
Q 26.46875 26.703125 23.875 24.0625 
Q 21.296875 21.4375 21.296875 16.5 
Q 21.296875 11.578125 23.171875 9.125 
Q 25.046875 6.6875 28.90625 6.6875 
Q 32.90625 6.6875 35.34375 9.328125 
Q 37.796875 11.96875 37.796875 16.3125 
z
" id="DejaVuSerif-Bold-97"/>
      <path d="M 25.6875 72.90625 
L 36.53125 72.90625 
L 10.796875 -9.28125 
L 0 -9.28125 
z
" id="DejaVuSerif-Bold-47"/>
      <path d="M 27 28.515625 
L 27 23.390625 
Q 27 14.3125 29.3125 10.25 
Q 31.640625 6.203125 36.8125 6.203125 
Q 42.140625 6.203125 44.3125 10.5 
Q 46.484375 14.796875 46.484375 25.984375 
Q 46.484375 37.15625 44.3125 41.421875 
Q 42.140625 45.703125 36.8125 45.703125 
Q 31.640625 45.703125 29.3125 41.640625 
Q 27 37.59375 27 28.515625 
z
M 9.71875 46 
L 2.296875 46 
L 2.296875 51.90625 
L 27 51.90625 
L 27 45.3125 
Q 29.203125 49.359375 32.90625 51.34375 
Q 36.625 53.328125 42.09375 53.328125 
Q 53.171875 53.328125 59.546875 46.015625 
Q 65.921875 38.71875 65.921875 25.984375 
Q 65.921875 13.234375 59.546875 5.90625 
Q 53.171875 -1.421875 42.09375 -1.421875 
Q 36.625 -1.421875 32.90625 0.5625 
Q 29.203125 2.546875 27 6.59375 
L 27 -14.890625 
L 35.015625 -14.890625 
L 35.015625 -20.796875 
L 2.296875 -20.796875 
L 2.296875 -14.890625 
L 9.71875 -14.890625 
z
" id="DejaVuSerif-Bold-112"/>
      <path d="M 56.390625 16.21875 
Q 54.546875 7.328125 48.796875 2.953125 
Q 43.0625 -1.421875 33.203125 -1.421875 
Q 19.34375 -1.421875 11.71875 5.75 
Q 4.109375 12.9375 4.109375 25.984375 
Q 4.109375 38.875 11.625 46.09375 
Q 19.140625 53.328125 32.515625 53.328125 
Q 37.9375 53.328125 43.453125 52.296875 
Q 48.96875 51.265625 54.6875 49.21875 
L 54.6875 34.8125 
L 49.21875 34.8125 
Q 48.4375 41.40625 45.359375 44.59375 
Q 42.28125 47.796875 36.71875 47.796875 
Q 29.5 47.796875 26.4375 42.90625 
Q 23.390625 38.03125 23.390625 25.984375 
Q 23.390625 14.203125 26.359375 9.15625 
Q 29.34375 4.109375 36.078125 4.109375 
Q 41.3125 4.109375 44.453125 7.234375 
Q 47.609375 10.359375 48.296875 16.21875 
z
" id="DejaVuSerif-Bold-99"/>
      <path d="M 34.8125 75.984375 
L 34.8125 -13.1875 
L 7.078125 -13.1875 
L 7.078125 -7.328125 
L 17.484375 -7.328125 
L 17.484375 70.125 
L 7.078125 70.125 
L 7.078125 75.984375 
z
" id="DejaVuSerif-Bold-93"/>
     </defs>
     <g transform="translate(265.970625 506.106406)scale(0.24 -0.24)">
      <use xlink:href="#DejaVuSerif-Bold-76"/>
      <use x="70.3125" xlink:href="#DejaVuSerif-Bold-111"/>
      <use x="137.011719" xlink:href="#DejaVuSerif-Bold-103"/>
      <use x="206.933594" xlink:href="#DejaVuSerif-Bold-91"/>
      <use x="254.248047" xlink:href="#DejaVuSerif-Bold-97"/>
      <use x="319.042969" xlink:href="#DejaVuSerif-Bold-47"/>
      <use x="355.566406" xlink:href="#DejaVuSerif-Bold-112"/>
      <use x="425.488281" xlink:href="#DejaVuSerif-Bold-99"/>
      <use x="486.376953" xlink:href="#DejaVuSerif-Bold-93"/>
     </g>
    </g>
   </g>
   <g id="matplotlib.axis_2">
    <g id="ytick_1">
     <g id="line2d_6">
      <defs>
       <path d="M 0 0 
L 6 0 
" id="me560b4dc1f" style="stroke:#333333;stroke-width:0.8;"/>
      </defs>
      <g>
       <use style="fill:#333333;stroke:#333333;stroke-width:0.8;" x="106.815" xlink:href="#me560b4dc1f" y="459.078281"/>
      </g>
     </g>
     <g id="text_7">
      <!-- 0.970 -->
      <defs>
       <path d="M 8.109375 7.90625 
Q 8.109375 11.71875 10.84375 14.453125 
Q 13.578125 17.1875 17.390625 17.1875 
Q 21.234375 17.1875 23.96875 14.453125 
Q 26.703125 11.71875 26.703125 7.90625 
Q 26.703125 4.046875 23.96875 1.3125 
Q 21.234375 -1.421875 17.390625 -1.421875 
Q 13.578125 -1.421875 10.84375 1.3125 
Q 8.109375 4.046875 8.109375 7.90625 
z
" id="DejaVuSerif-Bold-46"/>
       <path d="M 34.078125 68.5 
Q 29.046875 68.5 26.921875 64.234375 
Q 24.8125 59.96875 24.8125 49.421875 
Q 24.8125 38.875 26.921875 34.59375 
Q 29.046875 30.328125 34.078125 30.328125 
Q 39.109375 30.328125 41.25 34.59375 
Q 43.40625 38.875 43.40625 49.421875 
Q 43.40625 59.96875 41.25 64.234375 
Q 39.109375 68.5 34.078125 68.5 
z
M 44.96875 29.6875 
Q 41.75 27.09375 37.8125 25.796875 
Q 33.890625 24.515625 29.296875 24.515625 
Q 18.171875 24.515625 11.796875 31.03125 
Q 5.421875 37.546875 5.421875 49.03125 
Q 5.421875 61.140625 12.546875 67.671875 
Q 19.671875 74.21875 32.90625 74.21875 
Q 47.859375 74.21875 55.5625 65.1875 
Q 63.28125 56.15625 63.28125 38.71875 
Q 63.28125 18.84375 54.734375 8.703125 
Q 46.1875 -1.421875 29.390625 -1.421875 
Q 25 -1.421875 19.96875 -0.6875 
Q 14.9375 0.046875 9.1875 1.515625 
L 9.1875 14.40625 
L 15.09375 14.40625 
Q 16.3125 9.421875 19.703125 6.859375 
Q 23.09375 4.296875 28.515625 4.296875 
Q 37.109375 4.296875 41.015625 10.28125 
Q 44.921875 16.265625 44.96875 29.6875 
z
" id="DejaVuSerif-Bold-57"/>
       <path d="M 61.28125 60.5 
L 31.203125 0 
L 21.296875 0 
L 50.59375 59.078125 
L 14.59375 59.078125 
L 14.59375 49.21875 
L 7.90625 49.21875 
L 7.90625 72.90625 
L 61.28125 72.90625 
z
" id="DejaVuSerif-Bold-55"/>
      </defs>
      <g style="fill:#333333;" transform="translate(34.4275 467.436562)scale(0.22 -0.22)">
       <use xlink:href="#DejaVuSerif-Bold-48"/>
       <use x="69.580078" xlink:href="#DejaVuSerif-Bold-46"/>
       <use x="104.394531" xlink:href="#DejaVuSerif-Bold-57"/>
       <use x="173.974609" xlink:href="#DejaVuSerif-Bold-55"/>
       <use x="243.554688" xlink:href="#DejaVuSerif-Bold-48"/>
      </g>
     </g>
    </g>
    <g id="ytick_2">
     <g id="line2d_7">
      <g>
       <use style="fill:#333333;stroke:#333333;stroke-width:0.8;" x="106.815" xlink:href="#me560b4dc1f" y="382.609316"/>
      </g>
     </g>
     <g id="text_8">
      <!-- 0.975 -->
      <defs>
       <path d="M 56.390625 72.90625 
L 56.390625 60.109375 
L 17.390625 60.109375 
L 17.390625 44.09375 
Q 20.609375 46.578125 24.5625 47.84375 
Q 28.515625 49.125 32.90625 49.125 
Q 46.390625 49.125 54.203125 42.3125 
Q 62.015625 35.5 62.015625 23.78125 
Q 62.015625 11.859375 54.203125 5.21875 
Q 46.390625 -1.421875 32.328125 -1.421875 
Q 26.375 -1.421875 20.484375 -0.4375 
Q 14.59375 0.53125 8.203125 2.59375 
L 8.203125 18.5 
L 14.0625 18.5 
Q 14.359375 11.328125 17.796875 7.8125 
Q 21.234375 4.296875 27.984375 4.296875 
Q 35.15625 4.296875 38.625 9.109375 
Q 42.09375 13.921875 42.09375 23.78125 
Q 42.09375 33.5 38.6875 38.296875 
Q 35.296875 43.109375 28.421875 43.109375 
Q 24.703125 43.109375 21.796875 41.578125 
Q 18.890625 40.046875 16.40625 36.8125 
L 11.53125 36.8125 
L 11.53125 72.90625 
z
" id="DejaVuSerif-Bold-53"/>
      </defs>
      <g style="fill:#333333;" transform="translate(34.4275 390.967597)scale(0.22 -0.22)">
       <use xlink:href="#DejaVuSerif-Bold-48"/>
       <use x="69.580078" xlink:href="#DejaVuSerif-Bold-46"/>
       <use x="104.394531" xlink:href="#DejaVuSerif-Bold-57"/>
       <use x="173.974609" xlink:href="#DejaVuSerif-Bold-55"/>
       <use x="243.554688" xlink:href="#DejaVuSerif-Bold-53"/>
      </g>
     </g>
    </g>
    <g id="ytick_3">
     <g id="line2d_8">
      <g>
       <use style="fill:#333333;stroke:#333333;stroke-width:0.8;" x="106.815" xlink:href="#me560b4dc1f" y="306.14035"/>
      </g>
     </g>
     <g id="text_9">
      <!-- 0.980 -->
      <defs>
       <path d="M 46.484375 38.8125 
Q 55.171875 37.40625 59.6875 32.421875 
Q 64.203125 27.4375 64.203125 19.390625 
Q 64.203125 9.328125 56.609375 3.953125 
Q 49.03125 -1.421875 34.71875 -1.421875 
Q 20.40625 -1.421875 12.78125 3.953125 
Q 5.171875 9.328125 5.171875 19.390625 
Q 5.171875 27.4375 9.71875 32.421875 
Q 14.265625 37.40625 22.90625 38.8125 
Q 15.234375 40.578125 11.421875 44.703125 
Q 7.625 48.828125 7.625 55.171875 
Q 7.625 64.453125 14.546875 69.328125 
Q 21.484375 74.21875 34.71875 74.21875 
Q 47.90625 74.21875 54.859375 69.328125 
Q 61.8125 64.453125 61.8125 55.171875 
Q 61.8125 48.828125 57.984375 44.703125 
Q 54.15625 40.578125 46.484375 38.8125 
z
M 42.921875 54.984375 
Q 42.921875 62.703125 41.0625 65.59375 
Q 39.203125 68.5 34.71875 68.5 
Q 30.171875 68.5 28.34375 65.59375 
Q 26.515625 62.703125 26.515625 54.984375 
Q 26.515625 47.3125 28.34375 44.453125 
Q 30.171875 41.609375 34.71875 41.609375 
Q 39.265625 41.609375 41.09375 44.453125 
Q 42.921875 47.3125 42.921875 54.984375 
z
M 44.828125 20.21875 
Q 44.828125 29.15625 42.546875 32.515625 
Q 40.28125 35.890625 34.71875 35.890625 
Q 29.109375 35.890625 26.859375 32.515625 
Q 24.609375 29.15625 24.609375 20.21875 
Q 24.609375 11.1875 26.875 7.734375 
Q 29.15625 4.296875 34.71875 4.296875 
Q 40.234375 4.296875 42.53125 7.734375 
Q 44.828125 11.1875 44.828125 20.21875 
z
" id="DejaVuSerif-Bold-56"/>
      </defs>
      <g style="fill:#333333;" transform="translate(34.4275 314.498631)scale(0.22 -0.22)">
       <use xlink:href="#DejaVuSerif-Bold-48"/>
       <use x="69.580078" xlink:href="#DejaVuSerif-Bold-46"/>
       <use x="104.394531" xlink:href="#DejaVuSerif-Bold-57"/>
       <use x="173.974609" xlink:href="#DejaVuSerif-Bold-56"/>
       <use x="243.554688" xlink:href="#DejaVuSerif-Bold-48"/>
      </g>
     </g>
    </g>
    <g id="ytick_4">
     <g id="line2d_9">
      <g>
       <use style="fill:#333333;stroke:#333333;stroke-width:0.8;" x="106.815" xlink:href="#me560b4dc1f" y="229.671385"/>
      </g>
     </g>
     <g id="text_10">
      <!-- 0.985 -->
      <g style="fill:#333333;" transform="translate(34.4275 238.029666)scale(0.22 -0.22)">
       <use xlink:href="#DejaVuSerif-Bold-48"/>
       <use x="69.580078" xlink:href="#DejaVuSerif-Bold-46"/>
       <use x="104.394531" xlink:href="#DejaVuSerif-Bold-57"/>
       <use x="173.974609" xlink:href="#DejaVuSerif-Bold-56"/>
       <use x="243.554688" xlink:href="#DejaVuSerif-Bold-53"/>
      </g>
     </g>
    </g>
    <g id="ytick_5">
     <g id="line2d_10">
      <g>
       <use style="fill:#333333;stroke:#333333;stroke-width:0.8;" x="106.815" xlink:href="#me560b4dc1f" y="153.202419"/>
      </g>
     </g>
     <g id="text_11">
      <!-- 0.990 -->
      <g style="fill:#333333;" transform="translate(34.4275 161.5607)scale(0.22 -0.22)">
       <use xlink:href="#DejaVuSerif-Bold-48"/>
       <use x="69.580078" xlink:href="#DejaVuSerif-Bold-46"/>
       <use x="104.394531" xlink:href="#DejaVuSerif-Bold-57"/>
       <use x="173.974609" xlink:href="#DejaVuSerif-Bold-57"/>
       <use x="243.554688" xlink:href="#DejaVuSerif-Bold-48"/>
      </g>
     </g>
    </g>
    <g id="ytick_6">
     <g id="line2d_11">
      <g>
       <use style="fill:#333333;stroke:#333333;stroke-width:0.8;" x="106.815" xlink:href="#me560b4dc1f" y="76.733454"/>
      </g>
     </g>
     <g id="text_12">
      <!-- 0.995 -->
      <g style="fill:#333333;" transform="translate(34.4275 85.091735)scale(0.22 -0.22)">
       <use xlink:href="#DejaVuSerif-Bold-48"/>
       <use x="69.580078" xlink:href="#DejaVuSerif-Bold-46"/>
       <use x="104.394531" xlink:href="#DejaVuSerif-Bold-57"/>
       <use x="173.974609" xlink:href="#DejaVuSerif-Bold-57"/>
       <use x="243.554688" xlink:href="#DejaVuSerif-Bold-53"/>
      </g>
     </g>
    </g>
    <g id="text_13">
     <!-- e -->
     <defs>
      <path d="M 40.09375 29.296875 
Q 40.09375 39.546875 38.1875 43.671875 
Q 36.28125 47.796875 31.6875 47.796875 
Q 27.25 47.796875 25.3125 43.75 
Q 23.390625 39.703125 23.390625 30.171875 
L 23.390625 29.296875 
z
M 59.078125 23.484375 
L 23.390625 23.484375 
L 23.390625 23.09375 
Q 23.390625 13.03125 26.40625 8.5625 
Q 29.4375 4.109375 36.1875 4.109375 
Q 41.796875 4.109375 45.265625 7.078125 
Q 48.734375 10.0625 49.703125 15.71875 
L 57.8125 15.71875 
Q 55.71875 6.890625 49.46875 2.734375 
Q 43.21875 -1.421875 31.984375 -1.421875 
Q 18.5 -1.421875 11.296875 5.6875 
Q 4.109375 12.796875 4.109375 25.984375 
Q 4.109375 38.875 11.46875 46.09375 
Q 18.84375 53.328125 31.984375 53.328125 
Q 44.875 53.328125 51.75 45.734375 
Q 58.640625 38.140625 59.078125 23.484375 
z
" id="DejaVuSerif-Bold-101"/>
     </defs>
     <g transform="translate(25.43625 244.953281)rotate(-90)scale(0.24 -0.24)">
      <use xlink:href="#DejaVuSerif-Bold-101"/>
     </g>
    </g>
   </g>
   <g id="line2d_12">
    <path clip-path="url(#pfbb2586322)" d="M 95.655 175.334716 
L 106.815 175.334716 
L 117.975 175.334716 
L 129.135 175.334716 
L 140.295 175.334716 
L 151.455 175.334716 
L 162.615 175.334716 
L 173.775 175.334716 
L 184.935 175.334716 
L 196.095 175.334716 
L 207.255 175.334716 
L 218.415 175.334716 
L 229.575 175.334716 
L 240.735 175.334716 
L 251.895 175.334716 
L 263.055 175.334716 
L 274.215 175.334716 
L 285.375 175.334716 
L 296.535 175.334716 
L 307.695 175.334716 
L 318.855 175.334716 
L 330.015 175.334716 
L 341.175 175.334716 
L 352.335 175.334716 
L 363.495 175.334716 
L 374.655 175.334716 
L 385.815 175.334716 
L 396.975 175.334716 
L 408.135 175.334716 
L 419.295 175.334716 
L 430.455 175.334716 
L 441.615 175.334716 
L 452.775 175.334716 
L 463.935 175.334716 
L 475.095 175.334716 
L 486.255 175.334716 
L 497.415 175.334716 
L 508.575 175.334716 
L 519.735 175.334716 
L 530.895 175.334716 
L 542.055 175.334716 
L 553.215 175.334716 
L 564.375 175.334716 
L 575.535 175.334716 
L 586.695 175.334716 
L 597.855 175.334716 
L 609.015 175.334716 
" style="fill:none;stroke:#ff0000;stroke-dasharray:7.4,3.2;stroke-dashoffset:0;stroke-width:2;"/>
   </g>
   <g id="text_14">
    <g id="patch_3">
     <path d="M 326.055 170.318716 
L 499.415 170.318716 
L 499.415 135.998716 
L 326.055 135.998716 
z
" style="fill:#ffffff;opacity:0.1;stroke:#ffffff;stroke-linejoin:miter;"/>
    </g>
    <!-- $1-e=\left(\frac{M}{m}\right)^{-1/3}$ -->
    <defs>
     <path d="M 10.59375 25.78125 
L 73.1875 25.78125 
L 73.1875 14.703125 
L 10.59375 14.703125 
z
M 10.59375 48 
L 73.1875 48 
L 73.1875 36.921875 
L 10.59375 36.921875 
z
" id="DejaVuSerif-Bold-61"/>
     <path d="M 43.90625 -6.296875 
L 43.90625 -12.59375 
Q 29.59375 0.90625 22.6875 15.25 
Q 15.796875 29.59375 15.796875 48.90625 
Q 15.796875 67.90625 22.75 82.453125 
Q 29.703125 97 43.90625 110.40625 
L 43.90625 104.09375 
Q 36.203125 94.703125 32 82.203125 
Q 27.796875 69.703125 27.796875 48.90625 
Q 27.796875 34.40625 30.140625 23.34375 
Q 32.5 12.296875 35.703125 6.046875 
Q 38.90625 -0.203125 43.90625 -6.296875 
z
" id="STIXSizeOneSym-Bold-40"/>
     <path d="M 4.203125 0 
L 4.203125 5.90625 
L 13.484375 5.90625 
L 13.484375 67 
L 4.203125 67 
L 4.203125 72.90625 
L 34.28125 72.90625 
L 55.078125 26.125 
L 75.984375 72.90625 
L 106 72.90625 
L 106 67 
L 96.6875 67 
L 96.6875 5.90625 
L 106 5.90625 
L 106 0 
L 68.5 0 
L 68.5 5.90625 
L 77.78125 5.90625 
L 77.78125 61.53125 
L 55.171875 10.6875 
L 42.828125 10.6875 
L 20.3125 61.53125 
L 20.3125 5.90625 
L 29.59375 5.90625 
L 29.59375 0 
z
" id="DejaVuSerif-Bold-77"/>
     <path d="M 60.6875 43.40625 
Q 64.3125 48.578125 68.5 50.953125 
Q 72.703125 53.328125 78.328125 53.328125 
Q 87.25 53.328125 91.671875 48.265625 
Q 96.09375 43.21875 96.09375 33.015625 
L 96.09375 5.90625 
L 103.515625 5.90625 
L 103.515625 0 
L 72.609375 0 
L 72.609375 5.90625 
L 78.8125 5.90625 
L 78.8125 30.421875 
Q 78.8125 40.140625 77.3125 42.671875 
Q 75.828125 45.21875 71.78125 45.21875 
Q 67.1875 45.21875 64.640625 41.671875 
Q 62.109375 38.140625 62.109375 31.59375 
L 62.109375 5.90625 
L 68.3125 5.90625 
L 68.3125 0 
L 38.625 0 
L 38.625 5.90625 
L 44.828125 5.90625 
L 44.828125 30.421875 
Q 44.828125 40.140625 43.3125 42.671875 
Q 41.796875 45.21875 37.796875 45.21875 
Q 33.15625 45.21875 30.609375 41.671875 
Q 28.078125 38.140625 28.078125 31.59375 
L 28.078125 5.90625 
L 34.28125 5.90625 
L 34.28125 0 
L 3.421875 0 
L 3.421875 5.90625 
L 10.796875 5.90625 
L 10.796875 46 
L 3.421875 46 
L 3.421875 51.90625 
L 28.078125 51.90625 
L 28.078125 44.578125 
Q 31.109375 49.125 35.015625 51.21875 
Q 38.921875 53.328125 44.28125 53.328125 
Q 50.640625 53.328125 54.59375 50.90625 
Q 58.546875 48.484375 60.6875 43.40625 
z
" id="DejaVuSerif-Bold-109"/>
     <path d="M 2.90625 104.09375 
L 2.90625 110.40625 
Q 17.203125 96.90625 24.09375 82.546875 
Q 31 68.203125 31 48.90625 
Q 31 29.90625 24.046875 15.34375 
Q 17.09375 0.796875 2.90625 -12.59375 
L 2.90625 -6.296875 
Q 10.59375 3.09375 14.796875 15.59375 
Q 19 28.09375 19 48.90625 
Q 19 63.40625 16.640625 74.453125 
Q 14.296875 85.5 11.09375 91.75 
Q 7.90625 98 2.90625 104.09375 
z
" id="STIXSizeOneSym-Bold-41"/>
    </defs>
    <g style="fill:#ff0000;" transform="translate(330.015 160.858716)scale(0.22 -0.22)">
     <use transform="translate(0 0.114063)" xlink:href="#DejaVuSerif-Bold-49"/>
     <use transform="translate(90.742188 0.114063)" xlink:href="#DejaVuSerif-Bold-8722"/>
     <use transform="translate(195.693359 0.114063)" xlink:href="#DejaVuSerif-Bold-101"/>
     <use transform="translate(280.478516 0.114063)" xlink:href="#DejaVuSerif-Bold-61"/>
     <use transform="translate(385.429688 -12.364062)scale(0.972472)" xlink:href="#STIXSizeOneSym-Bold-40"/>
     <use transform="translate(430.935364 43.965625)scale(0.7)" xlink:href="#DejaVuSerif-Bold-77"/>
     <use transform="translate(432.935364 -24.614062)scale(0.7)" xlink:href="#DejaVuSerif-Bold-109"/>
     <use transform="translate(520.920715 -12.364062)scale(0.972472)" xlink:href="#STIXSizeOneSym-Bold-41"/>
     <use transform="translate(567.334751 36.448438)scale(0.7)" xlink:href="#DejaVuSerif-Bold-8722"/>
     <use transform="translate(625.987095 36.448438)scale(0.7)" xlink:href="#DejaVuSerif-Bold-49"/>
     <use transform="translate(674.693149 36.448438)scale(0.7)" xlink:href="#DejaVuSerif-Bold-47"/>
     <use transform="translate(700.259556 36.448438)scale(0.7)" xlink:href="#DejaVuSerif-Bold-51"/>
     <path d="M 430.935364 18.965625 
L 430.935364 25.215625 
L 508.420715 25.215625 
L 508.420715 18.965625 
L 430.935364 18.965625 
z
"/>
    </g>
   </g>
   <g id="patch_4">
    <path d="M 106.815 459.078281 
L 106.815 15.558281 
" style="fill:none;stroke:#333333;stroke-linecap:square;stroke-linejoin:miter;stroke-width:0.8;"/>
   </g>
   <g id="patch_5">
    <path d="M 553.215 459.078281 
L 553.215 15.558281 
" style="fill:none;stroke:#333333;stroke-linecap:square;stroke-linejoin:miter;stroke-width:0.8;"/>
   </g>
   <g id="patch_6">
    <path d="M 106.815 459.078281 
L 553.215 459.078281 
" style="fill:none;stroke:#333333;stroke-linecap:square;stroke-linejoin:miter;stroke-width:0.8;"/>
   </g>
   <g id="patch_7">
    <path d="M 106.815 15.558281 
L 553.215 15.558281 
" style="fill:none;stroke:#333333;stroke-linecap:square;stroke-linejoin:miter;stroke-width:0.8;"/>
   </g>
   <g id="text_15">
    <!-- $M_{bh}=4\times 10^6 M_{\odot}$ -->
    <defs>
     <path d="M 9.71875 5.90625 
L 9.71875 70.125 
L 2.296875 70.125 
L 2.296875 75.984375 
L 27 75.984375 
L 27 45.3125 
Q 29.203125 49.359375 32.90625 51.34375 
Q 36.625 53.328125 42.09375 53.328125 
Q 53.171875 53.328125 59.546875 46.015625 
Q 65.921875 38.71875 65.921875 25.984375 
Q 65.921875 13.234375 59.546875 5.90625 
Q 53.171875 -1.421875 42.09375 -1.421875 
Q 36.625 -1.421875 32.90625 0.5625 
Q 29.203125 2.546875 27 6.59375 
L 27 0 
L 2.296875 0 
L 2.296875 5.90625 
z
M 27 23.390625 
Q 27 14.3125 29.3125 10.25 
Q 31.640625 6.203125 36.8125 6.203125 
Q 42.140625 6.203125 44.3125 10.5 
Q 46.484375 14.796875 46.484375 25.984375 
Q 46.484375 37.15625 44.3125 41.421875 
Q 42.140625 45.703125 36.8125 45.703125 
Q 31.640625 45.703125 29.3125 41.640625 
Q 27 37.59375 27 28.515625 
z
" id="DejaVuSerif-Bold-98"/>
     <path d="M 3.421875 0 
L 3.421875 5.90625 
L 10.796875 5.90625 
L 10.796875 70.125 
L 3.078125 70.125 
L 3.078125 75.984375 
L 28.078125 75.984375 
L 28.078125 44.578125 
Q 31.203125 49.21875 35.203125 51.265625 
Q 39.203125 53.328125 45.3125 53.328125 
Q 54.046875 53.328125 58.515625 48.171875 
Q 62.984375 43.015625 62.984375 33.015625 
L 62.984375 5.90625 
L 70.40625 5.90625 
L 70.40625 0 
L 39.40625 0 
L 39.40625 5.90625 
L 45.703125 5.90625 
L 45.703125 33.5 
Q 45.703125 40.09375 44.015625 42.65625 
Q 42.328125 45.21875 38.1875 45.21875 
Q 32.953125 45.21875 30.515625 41.375 
Q 28.078125 37.546875 28.078125 29.203125 
L 28.078125 5.90625 
L 34.421875 5.90625 
L 34.421875 0 
z
" id="DejaVuSerif-Bold-104"/>
     <path d="M 70.90625 52.78125 
L 49.421875 31.296875 
L 70.90625 9.8125 
L 63.375 2.296875 
L 41.890625 23.78125 
L 20.40625 2.296875 
L 12.890625 9.8125 
L 34.421875 31.296875 
L 12.890625 52.78125 
L 20.40625 60.40625 
L 41.890625 38.921875 
L 63.375 60.40625 
z
" id="DejaVuSerif-Bold-215"/>
     <path d="M 24.609375 43.21875 
Q 27.78125 45.75 31.703125 47.015625 
Q 35.640625 48.296875 40.28125 48.296875 
Q 51.46875 48.296875 57.828125 41.75 
Q 64.203125 35.203125 64.203125 23.78125 
Q 64.203125 11.71875 57.03125 5.140625 
Q 49.859375 -1.421875 36.625 -1.421875 
Q 21.6875 -1.421875 13.984375 7.59375 
Q 6.296875 16.609375 6.296875 34.078125 
Q 6.296875 53.953125 14.84375 64.078125 
Q 23.390625 74.21875 40.1875 74.21875 
Q 44.578125 74.21875 49.609375 73.484375 
Q 54.640625 72.75 60.40625 71.296875 
L 60.40625 58.40625 
L 54.5 58.40625 
Q 53.265625 63.375 49.875 65.9375 
Q 46.484375 68.5 41.109375 68.5 
Q 32.421875 68.5 28.53125 62.546875 
Q 24.65625 56.59375 24.609375 43.21875 
z
M 35.5 4.296875 
Q 40.53125 4.296875 42.671875 8.5625 
Q 44.828125 12.84375 44.828125 23.390625 
Q 44.828125 33.9375 42.671875 38.203125 
Q 40.53125 42.484375 35.5 42.484375 
Q 30.46875 42.484375 28.34375 38.203125 
Q 26.21875 33.9375 26.21875 23.390625 
Q 26.21875 12.84375 28.34375 8.5625 
Q 30.46875 4.296875 35.5 4.296875 
z
" id="DejaVuSerif-Bold-54"/>
     <path d="M 38.09375 22.125 
Q 32.625 27.546875 32.625 31.34375 
Q 32.625 35.15625 35.359375 37.890625 
Q 38.09375 40.625 41.890625 40.625 
Q 45.75 40.625 48.484375 37.890625 
Q 51.21875 35.15625 51.21875 31.34375 
Q 51.21875 27.546875 48.484375 24.828125 
Q 45.75 22.125 41.890625 22.125 
Q 38.09375 22.125 32.625 27.546875 
z
M 27.203125 46.046875 
Q 21.78125 36.765625 21.78125 31.34375 
Q 21.78125 25.921875 24.484375 21.28125 
Q 27.203125 16.65625 31.828125 13.9375 
Q 36.46875 11.234375 41.890625 11.234375 
Q 47.3125 11.234375 51.953125 13.9375 
Q 56.59375 16.65625 59.296875 21.28125 
Q 62.015625 25.921875 62.015625 31.34375 
Q 62.015625 36.765625 59.296875 41.40625 
Q 56.59375 46.046875 51.953125 48.75 
Q 47.3125 51.46875 41.890625 51.46875 
Q 36.46875 51.46875 31.828125 48.75 
Q 27.203125 46.046875 21.78125 36.765625 
z
M 18.953125 8.40625 
Q 10.546875 22.859375 10.546875 31.34375 
Q 10.546875 39.84375 14.75 47.0625 
Q 18.953125 54.296875 26.171875 58.5 
Q 33.40625 62.703125 41.890625 62.703125 
Q 50.390625 62.703125 57.609375 58.5 
Q 64.84375 54.296875 69.046875 47.0625 
Q 73.25 39.84375 73.25 31.34375 
Q 73.25 22.859375 69.046875 15.625 
Q 64.84375 8.40625 57.609375 4.203125 
Q 50.390625 0 41.890625 0 
Q 33.40625 0 26.171875 4.203125 
Q 18.953125 8.40625 10.546875 22.859375 
z
" id="DejaVuSerif-Bold-8857"/>
    </defs>
    <g style="fill:#ffffff;" transform="translate(117.975 34.302969)scale(0.22 -0.22)">
     <use transform="translate(0 0.7125)" xlink:href="#DejaVuSerif-Bold-77"/>
     <use transform="translate(111.601719 -14.859375)scale(0.7)" xlink:href="#DejaVuSerif-Bold-98"/>
     <use transform="translate(160.547031 -14.859375)scale(0.7)" xlink:href="#DejaVuSerif-Bold-104"/>
     <use transform="translate(235.198008 0.7125)" xlink:href="#DejaVuSerif-Bold-61"/>
     <use transform="translate(340.14918 0.7125)" xlink:href="#DejaVuSerif-Bold-52"/>
     <use transform="translate(430.891367 0.7125)" xlink:href="#DejaVuSerif-Bold-215"/>
     <use transform="translate(535.842539 0.7125)" xlink:href="#DejaVuSerif-Bold-49"/>
     <use transform="translate(605.422617 0.7125)" xlink:href="#DejaVuSerif-Bold-48"/>
     <use transform="translate(675.911055 37.046875)scale(0.7)" xlink:href="#DejaVuSerif-Bold-54"/>
     <use transform="translate(727.212422 0.7125)" xlink:href="#DejaVuSerif-Bold-77"/>
     <use transform="translate(838.814141 -14.859375)scale(0.7)" xlink:href="#DejaVuSerif-Bold-8857"/>
    </g>
    <!-- $e_{bin}: 0$ -->
    <defs>
     <path d="M 9.1875 66.609375 
Q 9.1875 70.5625 11.921875 73.265625 
Q 14.65625 75.984375 18.609375 75.984375 
Q 22.46875 75.984375 25.171875 73.265625 
Q 27.875 70.5625 27.875 66.609375 
Q 27.875 62.75 25.171875 60.03125 
Q 22.46875 57.328125 18.609375 57.328125 
Q 14.65625 57.328125 11.921875 60.015625 
Q 9.1875 62.703125 9.1875 66.609375 
z
M 28.078125 5.90625 
L 35.5 5.90625 
L 35.5 0 
L 3.421875 0 
L 3.421875 5.90625 
L 10.796875 5.90625 
L 10.796875 46 
L 3.421875 46 
L 3.421875 51.90625 
L 28.078125 51.90625 
z
" id="DejaVuSerif-Bold-105"/>
     <path d="M 3.421875 0 
L 3.421875 5.90625 
L 10.796875 5.90625 
L 10.796875 46 
L 3.421875 46 
L 3.421875 51.90625 
L 28.078125 51.90625 
L 28.078125 44.578125 
Q 31.203125 49.21875 35.203125 51.265625 
Q 39.203125 53.328125 45.3125 53.328125 
Q 54.046875 53.328125 58.515625 48.171875 
Q 62.984375 43.015625 62.984375 33.015625 
L 62.984375 5.90625 
L 70.40625 5.90625 
L 70.40625 0 
L 39.40625 0 
L 39.40625 5.90625 
L 45.703125 5.90625 
L 45.703125 33.5 
Q 45.703125 40.09375 44.015625 42.65625 
Q 42.328125 45.21875 38.1875 45.21875 
Q 32.953125 45.21875 30.515625 41.375 
Q 28.078125 37.546875 28.078125 29.203125 
L 28.078125 5.90625 
L 34.421875 5.90625 
L 34.421875 0 
z
" id="DejaVuSerif-Bold-110"/>
     <path d="M 9.1875 39.703125 
Q 9.1875 43.5625 11.890625 46.296875 
Q 14.59375 49.03125 18.40625 49.03125 
Q 22.21875 49.03125 24.953125 46.265625 
Q 27.6875 43.5 27.6875 39.703125 
Q 27.6875 35.890625 24.96875 33.203125 
Q 22.265625 30.515625 18.40625 30.515625 
Q 14.546875 30.515625 11.859375 33.203125 
Q 9.1875 35.890625 9.1875 39.703125 
z
M 9.1875 7.90625 
Q 9.1875 11.71875 11.890625 14.453125 
Q 14.59375 17.1875 18.40625 17.1875 
Q 22.21875 17.1875 24.953125 14.453125 
Q 27.6875 11.71875 27.6875 7.90625 
Q 27.6875 4.046875 24.953125 1.3125 
Q 22.21875 -1.421875 18.40625 -1.421875 
Q 14.59375 -1.421875 11.890625 1.3125 
Q 9.1875 4.046875 9.1875 7.90625 
z
" id="DejaVuSerif-Bold-58"/>
    </defs>
    <g style="fill:#ffffff;" transform="translate(117.975 58.938156)scale(0.22 -0.22)">
     <use transform="translate(0 0.78125)" xlink:href="#DejaVuSerif-Bold-101"/>
     <use transform="translate(64.531406 -14.790625)scale(0.7)" xlink:href="#DejaVuSerif-Bold-98"/>
     <use transform="translate(113.476719 -14.790625)scale(0.7)" xlink:href="#DejaVuSerif-Bold-105"/>
     <use transform="translate(140.068516 -14.790625)scale(0.7)" xlink:href="#DejaVuSerif-Bold-110"/>
     <use transform="translate(214.719492 0.78125)" xlink:href="#DejaVuSerif-Bold-58"/>
     <use transform="translate(272.795664 0.78125)" xlink:href="#DejaVuSerif-Bold-48"/>
    </g>
   </g>
  </g>
  <g id="axes_2">
   <g id="patch_8">
    <path clip-path="url(#p1b8d7b532b)" d="M 581.115 459.078281 
L 581.115 395.718281 
L 581.115 78.918281 
L 581.115 15.558281 
L 603.291 15.558281 
L 603.291 78.918281 
L 603.291 395.718281 
L 603.291 459.078281 
z
" style="fill:#ffffff;stroke:#ffffff;stroke-linejoin:miter;stroke-width:0.01;"/>
   </g>
   <g id="QuadMesh_1">
    <path clip-path="url(#p1b8d7b532b)" d="M 581.115 459.078281 
L 603.291 459.078281 
L 603.291 395.718281 
L 581.115 395.718281 
L 581.115 459.078281 
" style="fill:#481b6d;"/>
    <path clip-path="url(#p1b8d7b532b)" d="M 581.115 395.718281 
L 603.291 395.718281 
L 603.291 332.358281 
L 581.115 332.358281 
L 581.115 395.718281 
" style="fill:#3f4788;"/>
    <path clip-path="url(#p1b8d7b532b)" d="M 581.115 332.358281 
L 603.291 332.358281 
L 603.291 268.998281 
L 581.115 268.998281 
L 581.115 332.358281 
" style="fill:#2e6e8e;"/>
    <path clip-path="url(#p1b8d7b532b)" d="M 581.115 268.998281 
L 603.291 268.998281 
L 603.291 205.638281 
L 581.115 205.638281 
L 581.115 268.998281 
" style="fill:#21918c;"/>
    <path clip-path="url(#p1b8d7b532b)" d="M 581.115 205.638281 
L 603.291 205.638281 
L 603.291 142.278281 
L 581.115 142.278281 
L 581.115 205.638281 
" style="fill:#2db27d;"/>
    <path clip-path="url(#p1b8d7b532b)" d="M 581.115 142.278281 
L 603.291 142.278281 
L 603.291 78.918281 
L 581.115 78.918281 
L 581.115 142.278281 
" style="fill:#73d056;"/>
    <path clip-path="url(#p1b8d7b532b)" d="M 581.115 78.918281 
L 603.291 78.918281 
L 603.291 15.558281 
L 581.115 15.558281 
L 581.115 78.918281 
" style="fill:#d0e11c;"/>
   </g>
   <g id="matplotlib.axis_3"/>
   <g id="matplotlib.axis_4">
    <g id="ytick_7">
     <g id="line2d_13">
      <defs>
       <path d="M 0 0 
L -6 0 
" id="mdbfdd91b19" style="stroke:#333333;stroke-width:0.8;"/>
      </defs>
      <g>
       <use style="fill:#333333;stroke:#333333;stroke-width:0.8;" x="603.291" xlink:href="#mdbfdd91b19" y="459.078281"/>
      </g>
     </g>
     <g id="text_16">
      <!-- 0.00 -->
      <g style="fill:#333333;" transform="translate(606.791 467.436562)scale(0.22 -0.22)">
       <use xlink:href="#DejaVuSerif-Bold-48"/>
       <use x="69.580078" xlink:href="#DejaVuSerif-Bold-46"/>
       <use x="104.394531" xlink:href="#DejaVuSerif-Bold-48"/>
       <use x="173.974609" xlink:href="#DejaVuSerif-Bold-48"/>
      </g>
     </g>
    </g>
    <g id="ytick_8">
     <g id="line2d_14">
      <g>
       <use style="fill:#333333;stroke:#333333;stroke-width:0.8;" x="603.291" xlink:href="#mdbfdd91b19" y="395.718281"/>
      </g>
     </g>
     <g id="text_17">
      <!-- 0.08 -->
      <g style="fill:#333333;" transform="translate(606.791 404.076563)scale(0.22 -0.22)">
       <use xlink:href="#DejaVuSerif-Bold-48"/>
       <use x="69.580078" xlink:href="#DejaVuSerif-Bold-46"/>
       <use x="104.394531" xlink:href="#DejaVuSerif-Bold-48"/>
       <use x="173.974609" xlink:href="#DejaVuSerif-Bold-56"/>
      </g>
     </g>
    </g>
    <g id="ytick_9">
     <g id="line2d_15">
      <g>
       <use style="fill:#333333;stroke:#333333;stroke-width:0.8;" x="603.291" xlink:href="#mdbfdd91b19" y="332.358281"/>
      </g>
     </g>
     <g id="text_18">
      <!-- 0.16 -->
      <g style="fill:#333333;" transform="translate(606.791 340.716563)scale(0.22 -0.22)">
       <use xlink:href="#DejaVuSerif-Bold-48"/>
       <use x="69.580078" xlink:href="#DejaVuSerif-Bold-46"/>
       <use x="104.394531" xlink:href="#DejaVuSerif-Bold-49"/>
       <use x="173.974609" xlink:href="#DejaVuSerif-Bold-54"/>
      </g>
     </g>
    </g>
    <g id="ytick_10">
     <g id="line2d_16">
      <g>
       <use style="fill:#333333;stroke:#333333;stroke-width:0.8;" x="603.291" xlink:href="#mdbfdd91b19" y="268.998281"/>
      </g>
     </g>
     <g id="text_19">
      <!-- 0.24 -->
      <g style="fill:#333333;" transform="translate(606.791 277.356562)scale(0.22 -0.22)">
       <use xlink:href="#DejaVuSerif-Bold-48"/>
       <use x="69.580078" xlink:href="#DejaVuSerif-Bold-46"/>
       <use x="104.394531" xlink:href="#DejaVuSerif-Bold-50"/>
       <use x="173.974609" xlink:href="#DejaVuSerif-Bold-52"/>
      </g>
     </g>
    </g>
    <g id="ytick_11">
     <g id="line2d_17">
      <g>
       <use style="fill:#333333;stroke:#333333;stroke-width:0.8;" x="603.291" xlink:href="#mdbfdd91b19" y="205.638281"/>
      </g>
     </g>
     <g id="text_20">
      <!-- 0.32 -->
      <g style="fill:#333333;" transform="translate(606.791 213.996563)scale(0.22 -0.22)">
       <use xlink:href="#DejaVuSerif-Bold-48"/>
       <use x="69.580078" xlink:href="#DejaVuSerif-Bold-46"/>
       <use x="104.394531" xlink:href="#DejaVuSerif-Bold-51"/>
       <use x="173.974609" xlink:href="#DejaVuSerif-Bold-50"/>
      </g>
     </g>
    </g>
    <g id="ytick_12">
     <g id="line2d_18">
      <g>
       <use style="fill:#333333;stroke:#333333;stroke-width:0.8;" x="603.291" xlink:href="#mdbfdd91b19" y="142.278281"/>
      </g>
     </g>
     <g id="text_21">
      <!-- 0.40 -->
      <g style="fill:#333333;" transform="translate(606.791 150.636563)scale(0.22 -0.22)">
       <use xlink:href="#DejaVuSerif-Bold-48"/>
       <use x="69.580078" xlink:href="#DejaVuSerif-Bold-46"/>
       <use x="104.394531" xlink:href="#DejaVuSerif-Bold-52"/>
       <use x="173.974609" xlink:href="#DejaVuSerif-Bold-48"/>
      </g>
     </g>
    </g>
    <g id="ytick_13">
     <g id="line2d_19">
      <g>
       <use style="fill:#333333;stroke:#333333;stroke-width:0.8;" x="603.291" xlink:href="#mdbfdd91b19" y="78.918281"/>
      </g>
     </g>
     <g id="text_22">
      <!-- 0.48 -->
      <g style="fill:#333333;" transform="translate(606.791 87.276563)scale(0.22 -0.22)">
       <use xlink:href="#DejaVuSerif-Bold-48"/>
       <use x="69.580078" xlink:href="#DejaVuSerif-Bold-46"/>
       <use x="104.394531" xlink:href="#DejaVuSerif-Bold-52"/>
       <use x="173.974609" xlink:href="#DejaVuSerif-Bold-56"/>
      </g>
     </g>
    </g>
    <g id="ytick_14">
     <g id="line2d_20">
      <g>
       <use style="fill:#333333;stroke:#333333;stroke-width:0.8;" x="603.291" xlink:href="#mdbfdd91b19" y="15.558281"/>
      </g>
     </g>
     <g id="text_23">
      <!-- 0.56 -->
      <g style="fill:#333333;" transform="translate(606.791 23.916562)scale(0.22 -0.22)">
       <use xlink:href="#DejaVuSerif-Bold-48"/>
       <use x="69.580078" xlink:href="#DejaVuSerif-Bold-46"/>
       <use x="104.394531" xlink:href="#DejaVuSerif-Bold-53"/>
       <use x="173.974609" xlink:href="#DejaVuSerif-Bold-54"/>
      </g>
     </g>
    </g>
   </g>
   <g id="patch_9">
    <path d="M 581.115 459.078281 
L 581.115 395.718281 
L 581.115 78.918281 
L 581.115 15.558281 
L 603.291 15.558281 
L 603.291 78.918281 
L 603.291 395.718281 
L 603.291 459.078281 
z
" style="fill:none;stroke:#333333;stroke-linejoin:miter;stroke-width:0.8;"/>
   </g>
  </g>
 </g>
 <defs>
  <clipPath id="pfbb2586322">
   <rect height="443.52" width="446.4" x="106.815" y="15.558281"/>
  </clipPath>
  <clipPath id="p1b8d7b532b">
   <rect height="443.52" width="22.176" x="581.115" y="15.558281"/>
  </clipPath>
 </defs>
</svg>
