<?xml version="1.0" encoding="utf-8" standalone="no"?>
<!DOCTYPE svg PUBLIC "-//W3C//DTD SVG 1.1//EN"
  "http://www.w3.org/Graphics/SVG/1.1/DTD/svg11.dtd">
<!-- Created with matplotlib (http://matplotlib.org/) -->
<svg height="518.638906pt" version="1.1" viewBox="0 0 655.7335 518.638906" width="655.7335pt" xmlns="http://www.w3.org/2000/svg" xmlns:xlink="http://www.w3.org/1999/xlink">
 <defs>
  <style type="text/css">
*{stroke-linecap:butt;stroke-linejoin:round;}
  </style>
 </defs>
 <g id="figure_1">
  <g id="patch_1">
   <path d="M 0 518.638906 
L 655.7335 518.638906 
L 655.7335 0 
L 0 0 
z
" style="fill:#ffffff;"/>
  </g>
  <g id="axes_1">
   <g id="patch_2">
    <path d="M 94.977187 459.078281 
L 541.377188 459.078281 
L 541.377188 15.558281 
L 94.977187 15.558281 
z
" style="fill:#ffffff;"/>
   </g>
   <g id="PathCollection_1">
    <path clip-path="url(#p89f1562edf)" d="M 100.557188 474.918281 
L 111.717188 474.918281 
L 122.877188 474.918281 
L 134.037188 474.918281 
L 145.197188 474.918281 
L 156.357188 474.918281 
L 167.517188 474.918281 
L 178.677188 474.918281 
L 189.837188 474.918281 
L 200.997188 474.918281 
L 212.157188 474.918281 
L 223.317188 474.918281 
L 234.477188 474.918281 
L 245.637188 474.918281 
L 256.797188 474.918281 
L 267.957188 474.918281 
L 279.117188 474.918281 
L 290.277188 474.918281 
L 301.437188 474.918281 
L 312.597188 474.918281 
L 323.757188 474.918281 
L 334.917188 474.918281 
L 346.077188 474.918281 
L 357.237188 474.918281 
L 368.397188 474.918281 
L 379.557188 474.918281 
L 390.717188 474.918281 
L 401.877188 474.918281 
L 413.037188 474.918281 
L 424.197188 474.918281 
L 435.357188 474.918281 
L 446.517188 474.918281 
L 457.677188 474.918281 
L 468.837188 474.918281 
L 479.997188 474.918281 
L 491.157188 474.918281 
L 502.317188 474.918281 
L 513.477188 474.918281 
L 524.637188 474.918281 
L 535.797188 474.918281 
L 546.957188 474.918281 
L 558.117188 474.918281 
L 569.277188 474.918281 
L 580.437188 474.918281 
L 591.597188 474.918281 
L 591.597188 443.238281 
L 591.597188 411.558281 
L 591.597188 379.878281 
L 591.597188 348.198281 
L 591.597188 316.518281 
L 591.597188 284.838281 
L 591.597188 253.158281 
L 591.597188 221.478281 
L 591.597188 189.798281 
L 591.597188 158.118281 
L 591.597188 126.438281 
L 591.597188 94.758281 
L 591.597188 63.078281 
L 591.597188 31.398281 
L 591.597188 -0.281719 
L 591.597188 -31.961719 
L 591.597188 -63.641719 
L 591.597188 -95.321719 
L 591.597188 -127.001719 
L 591.597188 -158.681719 
L 591.597188 -190.361719 
L 591.597188 -222.041719 
L 591.597188 -253.721719 
L 591.597188 -285.401719 
L 591.597188 -317.081719 
L 591.597188 -348.761719 
L 591.597188 -380.441719 
L 591.597188 -412.121719 
L 591.597188 -443.801719 
L 591.597188 -475.481719 
L 580.437188 -475.481719 
L 569.277188 -475.481719 
L 558.117188 -475.481719 
L 546.957188 -475.481719 
L 535.797188 -475.481719 
L 524.637188 -475.481719 
L 513.477188 -475.481719 
L 502.317188 -475.481719 
L 491.157188 -475.481719 
L 479.997188 -475.481719 
L 468.837188 -475.481719 
L 457.677188 -475.481719 
L 446.517188 -475.481719 
L 435.357188 -475.481719 
L 424.197188 -475.481719 
L 413.037188 -475.481719 
L 401.877188 -475.481719 
L 390.717188 -475.481719 
L 379.557188 -475.481719 
L 368.397188 -475.481719 
L 357.237188 -475.481719 
L 346.077188 -475.481719 
L 334.917188 -475.481719 
L 323.757188 -475.481719 
L 312.597188 -475.481719 
L 301.437188 -475.481719 
L 290.277188 -475.481719 
L 279.117188 -475.481719 
L 267.957188 -475.481719 
L 256.797188 -475.481719 
L 245.637188 -475.481719 
L 234.477188 -475.481719 
L 223.317188 -475.481719 
L 212.157188 -475.481719 
L 200.997188 -475.481719 
L 189.837188 -475.481719 
L 178.677188 -475.481719 
L 167.517188 -475.481719 
L 156.357188 -475.481719 
L 145.197188 -475.481719 
L 134.037188 -475.481719 
L 122.877188 -475.481719 
L 111.717188 -475.481719 
L 100.557188 -475.481719 
L 89.397188 -475.481719 
L 89.397188 -443.801719 
L 89.397188 -412.121719 
L 89.397188 -380.441719 
L 89.397188 -348.761719 
L 89.397188 -317.081719 
L 89.397188 -285.401719 
L 89.397188 -253.721719 
L 89.397188 -222.041719 
L 89.397188 -190.361719 
L 89.397188 -158.681719 
L 89.397188 -127.001719 
L 89.397188 -95.321719 
L 89.397188 -63.641719 
L 89.397188 -31.961719 
L 89.397188 -0.281719 
L 89.397188 31.398281 
L 89.397188 63.078281 
L 89.397188 94.758281 
L 89.397188 126.438281 
L 89.397188 158.118281 
L 89.397188 189.798281 
L 89.397188 221.478281 
L 89.397188 253.158281 
L 89.397188 284.838281 
L 89.397188 316.518281 
L 89.397188 348.198281 
L 89.397188 379.878281 
L 89.397188 411.558281 
L 89.397188 443.238281 
L 89.397188 474.918281 
z
M 400.116465 348.198281 
L 390.717188 332.788229 
L 381.394116 316.518281 
L 379.557188 313.057377 
L 368.397188 304.535478 
L 358.218425 284.838281 
L 357.237188 282.774296 
L 346.901011 253.158281 
L 346.077188 251.903944 
L 334.917188 237.174978 
L 323.757188 226.586594 
L 313.357002 221.478281 
L 312.597188 221.281429 
L 301.437188 214.41017 
L 290.277188 199.998646 
L 282.79193 189.798281 
L 279.117188 186.706292 
L 267.957188 177.512229 
L 256.797188 165.769685 
L 252.936248 158.118281 
L 245.637188 141.028156 
L 241.356446 126.438281 
L 234.477188 100.386237 
L 232.965734 94.758281 
L 228.266933 63.078281 
L 230.67579 31.398281 
L 234.477188 19.057188 
L 245.637188 6.044383 
L 253.831611 -0.281719 
L 256.797188 -2.878747 
L 267.957188 -18.24758 
L 279.117188 -27.230226 
L 290.277188 -29.988944 
L 295.841897 -31.961719 
L 301.437188 -35.243172 
L 312.597188 -44.812733 
L 323.757188 -46.966904 
L 334.917188 -43.134522 
L 346.077188 -41.080511 
L 357.237188 -43.835924 
L 368.397188 -47.018087 
L 379.557188 -44.990781 
L 390.717188 -41.902617 
L 401.877188 -40.885926 
L 413.037188 -40.031021 
L 424.197188 -37.02584 
L 435.274774 -31.961719 
L 435.357188 -31.92952 
L 446.517188 -24.919773 
L 457.677188 -2.892676 
L 458.497294 -0.281719 
L 465.499412 31.398281 
L 468.683014 63.078281 
L 468.837188 66.746188 
L 470.351904 94.758281 
L 471.768692 126.438281 
L 471.660373 158.118281 
L 468.837188 186.827995 
L 468.45751 189.798281 
L 465.759221 221.478281 
L 466.70617 253.158281 
L 466.056006 284.838281 
L 457.677188 313.416029 
L 455.913742 316.518281 
L 446.517188 328.719599 
L 435.832036 348.198281 
L 435.357188 350.028318 
L 424.197188 377.144687 
L 413.037188 367.23791 
L 401.877188 351.46973 
z
" style="fill:#481f70;"/>
   </g>
   <g id="PathCollection_2">
    <path clip-path="url(#p89f1562edf)" d="M 401.877188 351.46973 
L 413.037188 367.23791 
L 424.197188 377.144687 
L 435.357188 350.028318 
L 435.832036 348.198281 
L 446.517188 328.719599 
L 455.913742 316.518281 
L 457.677188 313.416029 
L 466.056006 284.838281 
L 466.70617 253.158281 
L 465.759221 221.478281 
L 468.45751 189.798281 
L 468.837188 186.827995 
L 471.660373 158.118281 
L 471.768692 126.438281 
L 470.351904 94.758281 
L 468.837188 66.746188 
L 468.683014 63.078281 
L 465.499412 31.398281 
L 458.497294 -0.281719 
L 457.677188 -2.892676 
L 446.517188 -24.919773 
L 435.357188 -31.92952 
L 435.274774 -31.961719 
L 424.197188 -37.02584 
L 413.037188 -40.031021 
L 401.877188 -40.885926 
L 390.717188 -41.902617 
L 379.557188 -44.990781 
L 368.397188 -47.018087 
L 357.237188 -43.835924 
L 346.077188 -41.080511 
L 334.917188 -43.134522 
L 323.757188 -46.966904 
L 312.597188 -44.812733 
L 301.437188 -35.243172 
L 295.841897 -31.961719 
L 290.277188 -29.988944 
L 279.117188 -27.230226 
L 267.957188 -18.24758 
L 256.797188 -2.878747 
L 253.831611 -0.281719 
L 245.637188 6.044383 
L 234.477188 19.057188 
L 230.67579 31.398281 
L 228.266933 63.078281 
L 232.965734 94.758281 
L 234.477188 100.386237 
L 241.356446 126.438281 
L 245.637188 141.028156 
L 252.936248 158.118281 
L 256.797188 165.769685 
L 267.957188 177.512229 
L 279.117188 186.706292 
L 282.79193 189.798281 
L 290.277188 199.998646 
L 301.437188 214.41017 
L 312.597188 221.281429 
L 313.357002 221.478281 
L 323.757188 226.586594 
L 334.917188 237.174978 
L 346.077188 251.903944 
L 346.901011 253.158281 
L 357.237188 282.774296 
L 358.218425 284.838281 
L 368.397188 304.535478 
L 379.557188 313.057377 
L 381.394116 316.518281 
L 390.717188 332.788229 
L 400.116465 348.198281 
z
M 350.725584 189.798281 
L 346.077188 187.063082 
L 334.917188 180.247919 
L 323.757188 175.558468 
L 312.597188 169.465316 
L 302.447514 158.118281 
L 301.437188 157.075856 
L 290.277188 146.108294 
L 279.117188 135.322337 
L 272.93458 126.438281 
L 267.957188 115.251795 
L 261.094084 94.758281 
L 260.788763 63.078281 
L 267.957188 41.019277 
L 271.206877 31.398281 
L 279.117188 18.675758 
L 290.277188 11.00535 
L 301.437188 5.98571 
L 312.597188 0.946001 
L 317.988634 -0.281719 
L 323.757188 -1.96228 
L 334.917188 -3.752832 
L 346.077188 -6.032111 
L 357.237188 -8.261675 
L 368.397188 -7.71159 
L 379.557188 -4.295809 
L 390.717188 -4.361819 
L 401.877188 -4.060271 
L 412.166721 -0.281719 
L 413.037188 -0.01712 
L 424.197188 5.839347 
L 435.357188 16.524665 
L 443.642994 31.398281 
L 446.517188 37.805887 
L 453.211475 63.078281 
L 456.460429 94.758281 
L 457.314131 126.438281 
L 453.971203 158.118281 
L 446.517188 179.797248 
L 440.378652 189.798281 
L 435.357188 200.879383 
L 424.197188 212.020686 
L 413.037188 216.87627 
L 401.877188 216.74614 
L 390.717188 212.971736 
L 379.557188 207.898479 
L 368.397188 202.878361 
L 357.237188 195.856155 
z
" style="fill:#3b528b;"/>
   </g>
   <g id="PathCollection_3">
    <path clip-path="url(#p89f1562edf)" d="M 357.237188 195.856155 
L 368.397188 202.878361 
L 379.557188 207.898479 
L 390.717188 212.971736 
L 401.877188 216.74614 
L 413.037188 216.87627 
L 424.197188 212.020686 
L 435.357188 200.879383 
L 440.378652 189.798281 
L 446.517188 179.797248 
L 453.971203 158.118281 
L 457.314131 126.438281 
L 456.460429 94.758281 
L 453.211475 63.078281 
L 446.517188 37.805887 
L 443.642994 31.398281 
L 435.357188 16.524665 
L 424.197188 5.839347 
L 413.037188 -0.01712 
L 412.166721 -0.281719 
L 401.877188 -4.060271 
L 390.717188 -4.361819 
L 379.557188 -4.295809 
L 368.397188 -7.71159 
L 357.237188 -8.261675 
L 346.077188 -6.032111 
L 334.917188 -3.752832 
L 323.757188 -1.96228 
L 317.988634 -0.281719 
L 312.597188 0.946001 
L 301.437188 5.98571 
L 290.277188 11.00535 
L 279.117188 18.675758 
L 271.206877 31.398281 
L 267.957188 41.019277 
L 260.788763 63.078281 
L 261.094084 94.758281 
L 267.957188 115.251795 
L 272.93458 126.438281 
L 279.117188 135.322337 
L 290.277188 146.108294 
L 301.437188 157.075856 
L 302.447514 158.118281 
L 312.597188 169.465316 
L 323.757188 175.558468 
L 334.917188 180.247919 
L 346.077188 187.063082 
L 350.725584 189.798281 
z
M 347.108844 158.118281 
L 346.077188 157.334818 
L 334.917188 148.408183 
L 323.757188 141.894896 
L 312.597188 133.935629 
L 306.390081 126.438281 
L 301.437188 118.121872 
L 290.277188 100.532965 
L 286.857892 94.758281 
L 284.79383 63.078281 
L 290.277188 53.309802 
L 301.437188 40.89824 
L 312.597188 32.110546 
L 313.715976 31.398281 
L 323.757188 26.755522 
L 334.917188 21.756941 
L 346.077188 17.731726 
L 357.237188 16.235413 
L 368.397188 18.210437 
L 379.557188 20.486731 
L 390.717188 19.345293 
L 401.877188 20.288243 
L 413.037188 27.550226 
L 416.972804 31.398281 
L 424.197188 38.773341 
L 435.357188 55.081693 
L 438.650714 63.078281 
L 445.840015 94.758281 
L 446.517188 117.472842 
L 446.78926 126.438281 
L 446.517188 127.973472 
L 439.189918 158.118281 
L 435.357188 165.908861 
L 424.197188 178.871845 
L 413.037188 185.096046 
L 401.877188 186.6435 
L 390.717188 184.10945 
L 379.557188 178.260386 
L 368.397188 171.93881 
L 357.237188 166.321397 
z
" style="fill:#287c8e;"/>
   </g>
   <g id="PathCollection_4">
    <path clip-path="url(#p89f1562edf)" d="M 357.237188 166.321397 
L 368.397188 171.93881 
L 379.557188 178.260386 
L 390.717188 184.10945 
L 401.877188 186.6435 
L 413.037188 185.096046 
L 424.197188 178.871845 
L 435.357188 165.908861 
L 439.189918 158.118281 
L 446.517188 127.973472 
L 446.78926 126.438281 
L 446.517188 117.472842 
L 445.840015 94.758281 
L 438.650714 63.078281 
L 435.357188 55.081693 
L 424.197188 38.773341 
L 416.972804 31.398281 
L 413.037188 27.550226 
L 401.877188 20.288243 
L 390.717188 19.345293 
L 379.557188 20.486731 
L 368.397188 18.210437 
L 357.237188 16.235413 
L 346.077188 17.731726 
L 334.917188 21.756941 
L 323.757188 26.755522 
L 313.715976 31.398281 
L 312.597188 32.110546 
L 301.437188 40.89824 
L 290.277188 53.309802 
L 284.79383 63.078281 
L 286.857892 94.758281 
L 290.277188 100.532965 
L 301.437188 118.121872 
L 306.390081 126.438281 
L 312.597188 133.935629 
L 323.757188 141.894896 
L 334.917188 148.408183 
L 346.077188 157.334818 
L 347.108844 158.118281 
z
M 383.487969 158.118281 
L 379.557188 154.573419 
L 368.397188 145.992969 
L 357.237188 140.857445 
L 346.077188 132.082539 
L 340.499354 126.438281 
L 334.917188 117.850242 
L 323.757188 104.176161 
L 316.275993 94.758281 
L 319.910998 63.078281 
L 323.757188 59.483344 
L 334.917188 48.766663 
L 346.077188 41.247732 
L 357.237188 39.566676 
L 368.397188 42.426194 
L 379.557188 43.287276 
L 390.717188 41.129979 
L 401.877188 42.88626 
L 413.037188 52.614528 
L 421.203393 63.078281 
L 424.197188 68.306253 
L 435.357188 94.204105 
L 435.500537 94.758281 
L 436.831978 126.438281 
L 435.357188 131.761301 
L 424.197188 154.716192 
L 420.984202 158.118281 
L 413.037188 163.932537 
L 401.877188 166.387187 
L 390.717188 163.26783 
z
" style="fill:#20a486;"/>
   </g>
   <g id="PathCollection_5">
    <path clip-path="url(#p89f1562edf)" d="M 390.717188 163.26783 
L 401.877188 166.387187 
L 413.037188 163.932537 
L 420.984202 158.118281 
L 424.197188 154.716192 
L 435.357188 131.761301 
L 436.831978 126.438281 
L 435.500537 94.758281 
L 435.357188 94.204105 
L 424.197188 68.306253 
L 421.203393 63.078281 
L 413.037188 52.614528 
L 401.877188 42.88626 
L 390.717188 41.129979 
L 379.557188 43.287276 
L 368.397188 42.426194 
L 357.237188 39.566676 
L 346.077188 41.247732 
L 334.917188 48.766663 
L 323.757188 59.483344 
L 319.910998 63.078281 
L 316.275993 94.758281 
L 323.757188 104.176161 
L 334.917188 117.850242 
L 340.499354 126.438281 
L 346.077188 132.082539 
L 357.237188 140.857445 
L 368.397188 145.992969 
L 379.557188 154.573419 
L 383.487969 158.118281 
z
M 377.215989 126.438281 
L 368.397188 112.136062 
L 357.237188 107.090217 
L 346.077188 96.516088 
L 344.931028 94.758281 
L 346.077188 87.547733 
L 357.237188 70.061952 
L 368.397188 74.412646 
L 379.557188 68.775325 
L 387.87512 63.078281 
L 390.717188 62.265347 
L 394.22354 63.078281 
L 401.877188 66.448809 
L 413.037188 83.502838 
L 419.715822 94.758281 
L 422.19548 126.438281 
L 413.037188 136.774179 
L 401.877188 141.670875 
L 390.717188 137.969503 
L 379.557188 128.187385 
z
" style="fill:#5cc863;"/>
   </g>
   <g id="PathCollection_6">
    <path clip-path="url(#p89f1562edf)" d="M 379.557188 128.187385 
L 390.717188 137.969503 
L 401.877188 141.670875 
L 413.037188 136.774179 
L 422.19548 126.438281 
L 419.715822 94.758281 
L 413.037188 83.502838 
L 401.877188 66.448809 
L 394.22354 63.078281 
L 390.717188 62.265347 
L 387.87512 63.078281 
L 379.557188 68.775325 
L 368.397188 74.412646 
L 357.237188 70.061952 
L 346.077188 87.547733 
L 344.931028 94.758281 
L 346.077188 96.516088 
L 357.237188 107.090217 
L 368.397188 112.136062 
L 377.215989 126.438281 
z
" style="fill:#c8e020;"/>
   </g>
   <g id="matplotlib.axis_1">
    <g id="xtick_1">
     <g id="line2d_1">
      <defs>
       <path d="M 0 0 
L 0 -6 
" id="mb5c9ff1023" style="stroke:#333333;stroke-width:0.8;"/>
      </defs>
      <g>
       <use style="fill:#333333;stroke:#333333;stroke-width:0.8;" x="94.977188" xlink:href="#mb5c9ff1023" y="459.078281"/>
      </g>
     </g>
     <g id="text_1">
      <!-- −4 -->
      <defs>
       <path d="M 10.59375 36.921875 
L 73.1875 36.921875 
L 73.1875 25.6875 
L 10.59375 25.6875 
z
" id="DejaVuSerif-Bold-2212"/>
       <path d="M 63.8125 0 
L 23.6875 0 
L 23.6875 5.90625 
L 34.515625 5.90625 
L 34.515625 19.1875 
L 4.109375 19.1875 
L 4.109375 24.8125 
L 34.625 74.21875 
L 52.984375 74.21875 
L 52.984375 25.484375 
L 65.484375 25.484375 
L 65.484375 19.1875 
L 52.984375 19.1875 
L 52.984375 5.90625 
L 63.8125 5.90625 
z
M 34.515625 25.484375 
L 34.515625 60.890625 
L 12.796875 25.484375 
z
" id="DejaVuSerif-Bold-34"/>
      </defs>
      <g style="fill:#333333;" transform="translate(78.105938 479.294844)scale(0.22 -0.22)">
       <use xlink:href="#DejaVuSerif-Bold-2212"/>
       <use x="83.789062" xlink:href="#DejaVuSerif-Bold-34"/>
      </g>
     </g>
    </g>
    <g id="xtick_2">
     <g id="line2d_2">
      <g>
       <use style="fill:#333333;stroke:#333333;stroke-width:0.8;" x="206.577188" xlink:href="#mb5c9ff1023" y="459.078281"/>
      </g>
     </g>
     <g id="text_2">
      <!-- −3 -->
      <defs>
       <path d="M 8.59375 70.796875 
Q 15.046875 72.515625 21.09375 73.359375 
Q 27.15625 74.21875 32.90625 74.21875 
Q 46.09375 74.21875 53.140625 69.5 
Q 60.203125 64.796875 60.203125 56 
Q 60.203125 49.421875 56.140625 45.3125 
Q 52.09375 41.21875 44.28125 39.796875 
Q 53.8125 38.28125 58.5 33.296875 
Q 63.1875 28.328125 63.1875 19.671875 
Q 63.1875 9.46875 55.09375 4.015625 
Q 47.015625 -1.421875 31.6875 -1.421875 
Q 25.921875 -1.421875 19.796875 -0.4375 
Q 13.671875 0.53125 6.984375 2.484375 
L 6.984375 18.5 
L 12.890625 18.5 
Q 13.421875 11.578125 17.234375 7.9375 
Q 21.046875 4.296875 27.78125 4.296875 
Q 35.203125 4.296875 39.25 8.421875 
Q 43.3125 12.546875 43.3125 20.125 
Q 43.3125 28.03125 39.078125 32.328125 
Q 34.859375 36.625 27.09375 36.625 
L 23.875 36.625 
L 23.875 42.484375 
L 26.421875 42.484375 
Q 33.59375 42.484375 37.203125 45.796875 
Q 40.828125 49.125 40.828125 55.71875 
Q 40.828125 61.921875 37.421875 65.203125 
Q 34.03125 68.5 27.6875 68.5 
Q 21.921875 68.5 18.546875 65.34375 
Q 15.1875 62.203125 14.5 56.203125 
L 8.59375 56.203125 
z
" id="DejaVuSerif-Bold-33"/>
      </defs>
      <g style="fill:#333333;" transform="translate(189.705938 479.294844)scale(0.22 -0.22)">
       <use xlink:href="#DejaVuSerif-Bold-2212"/>
       <use x="83.789062" xlink:href="#DejaVuSerif-Bold-33"/>
      </g>
     </g>
    </g>
    <g id="xtick_3">
     <g id="line2d_3">
      <g>
       <use style="fill:#333333;stroke:#333333;stroke-width:0.8;" x="318.177188" xlink:href="#mb5c9ff1023" y="459.078281"/>
      </g>
     </g>
     <g id="text_3">
      <!-- −2 -->
      <defs>
       <path d="M 13.1875 54.890625 
L 7.328125 54.890625 
L 7.328125 70.609375 
Q 13.28125 72.40625 19.109375 73.3125 
Q 24.953125 74.21875 30.90625 74.21875 
Q 44.828125 74.21875 52.609375 68.53125 
Q 60.40625 62.84375 60.40625 52.6875 
Q 60.40625 45.453125 56.109375 39.71875 
Q 51.8125 33.984375 39.703125 26.125 
L 19.390625 12.796875 
L 53.90625 12.796875 
L 53.90625 21.390625 
L 60.59375 21.390625 
L 60.59375 0 
L 6.6875 0 
L 6.6875 11.921875 
L 17.484375 19.390625 
Q 31.296875 28.90625 35.890625 35.59375 
Q 40.484375 42.28125 40.484375 51.21875 
Q 40.484375 59.671875 36.984375 64.078125 
Q 33.5 68.5 26.8125 68.5 
Q 21.046875 68.5 17.578125 65.015625 
Q 14.109375 61.53125 13.1875 54.890625 
z
" id="DejaVuSerif-Bold-32"/>
      </defs>
      <g style="fill:#333333;" transform="translate(301.305938 479.294844)scale(0.22 -0.22)">
       <use xlink:href="#DejaVuSerif-Bold-2212"/>
       <use x="83.789062" xlink:href="#DejaVuSerif-Bold-32"/>
      </g>
     </g>
    </g>
    <g id="xtick_4">
     <g id="line2d_4">
      <g>
       <use style="fill:#333333;stroke:#333333;stroke-width:0.8;" x="429.777188" xlink:href="#mb5c9ff1023" y="459.078281"/>
      </g>
     </g>
     <g id="text_4">
      <!-- −1 -->
      <defs>
       <path d="M 13.71875 0 
L 13.71875 5.90625 
L 27.390625 5.90625 
L 27.390625 64.890625 
L 12.203125 55.90625 
L 12.203125 63.1875 
L 30.515625 74.21875 
L 45.90625 74.21875 
L 45.90625 5.90625 
L 59.625 5.90625 
L 59.625 0 
z
" id="DejaVuSerif-Bold-31"/>
      </defs>
      <g style="fill:#333333;" transform="translate(412.905938 479.294844)scale(0.22 -0.22)">
       <use xlink:href="#DejaVuSerif-Bold-2212"/>
       <use x="83.789062" xlink:href="#DejaVuSerif-Bold-31"/>
      </g>
     </g>
    </g>
    <g id="xtick_5">
     <g id="line2d_5">
      <g>
       <use style="fill:#333333;stroke:#333333;stroke-width:0.8;" x="541.377188" xlink:href="#mb5c9ff1023" y="459.078281"/>
      </g>
     </g>
     <g id="text_5">
      <!-- 0 -->
      <defs>
       <path d="M 34.8125 4.296875 
Q 40.671875 4.296875 42.84375 9.609375 
Q 45.015625 14.9375 45.015625 36.375 
Q 45.015625 57.671875 42.84375 63.078125 
Q 40.671875 68.5 34.8125 68.5 
Q 28.953125 68.5 26.78125 63.171875 
Q 24.609375 57.859375 24.609375 36.375 
Q 24.609375 14.9375 26.78125 9.609375 
Q 28.953125 4.296875 34.8125 4.296875 
z
M 34.8125 -1.421875 
Q 20.21875 -1.421875 12.453125 8.3125 
Q 4.6875 18.0625 4.6875 36.375 
Q 4.6875 54.6875 12.453125 64.453125 
Q 20.21875 74.21875 34.8125 74.21875 
Q 49.359375 74.21875 57.125 64.453125 
Q 64.890625 54.6875 64.890625 36.375 
Q 64.890625 18.0625 57.125 8.3125 
Q 49.359375 -1.421875 34.8125 -1.421875 
z
" id="DejaVuSerif-Bold-30"/>
      </defs>
      <g style="fill:#333333;" transform="translate(533.723594 479.294844)scale(0.22 -0.22)">
       <use xlink:href="#DejaVuSerif-Bold-30"/>
      </g>
     </g>
    </g>
    <g id="text_6">
     <!-- Log[a/pc] -->
     <defs>
      <path d="M 4.6875 0 
L 4.6875 5.90625 
L 14.015625 5.90625 
L 14.015625 67 
L 4.6875 67 
L 4.6875 72.90625 
L 42.1875 72.90625 
L 42.1875 67 
L 32.8125 67 
L 32.8125 6.6875 
L 61.53125 6.6875 
L 61.53125 18.21875 
L 68.109375 18.21875 
L 68.109375 0 
z
" id="DejaVuSerif-Bold-4c"/>
      <path d="M 33.40625 4.109375 
Q 38.875 4.109375 41.09375 8.796875 
Q 43.3125 13.484375 43.3125 25.984375 
Q 43.3125 38.484375 41.109375 43.140625 
Q 38.921875 47.796875 33.40625 47.796875 
Q 27.875 47.796875 25.625 43.078125 
Q 23.390625 38.375 23.390625 25.984375 
Q 23.390625 13.578125 25.625 8.84375 
Q 27.875 4.109375 33.40625 4.109375 
z
M 33.40625 -1.421875 
Q 19.671875 -1.421875 11.890625 5.875 
Q 4.109375 13.1875 4.109375 25.984375 
Q 4.109375 38.8125 11.890625 46.0625 
Q 19.671875 53.328125 33.40625 53.328125 
Q 47.171875 53.328125 54.9375 46.0625 
Q 62.703125 38.8125 62.703125 25.984375 
Q 62.703125 13.1875 54.90625 5.875 
Q 47.125 -1.421875 33.40625 -1.421875 
z
" id="DejaVuSerif-Bold-6f"/>
      <path d="M 60.203125 46 
L 60.203125 0.6875 
Q 60.203125 -10.25 52.40625 -16.234375 
Q 44.625 -22.21875 30.421875 -22.21875 
Q 25.25 -22.21875 19.921875 -21.40625 
Q 14.59375 -20.609375 8.984375 -19 
L 8.984375 -6.59375 
L 14.5 -6.59375 
Q 15.234375 -11.71875 18.625 -14.203125 
Q 22.015625 -16.703125 28.328125 -16.703125 
Q 36.328125 -16.703125 39.625 -12.859375 
Q 42.921875 -9.03125 42.921875 0.6875 
L 42.921875 6.59375 
Q 40.71875 2.546875 36.984375 0.5625 
Q 33.25 -1.421875 27.78125 -1.421875 
Q 16.75 -1.421875 10.421875 5.90625 
Q 4.109375 13.234375 4.109375 25.984375 
Q 4.109375 38.765625 10.421875 46.046875 
Q 16.75 53.328125 27.78125 53.328125 
Q 33.25 53.328125 36.984375 51.34375 
Q 40.71875 49.359375 42.921875 45.3125 
L 42.921875 51.90625 
L 67.578125 51.90625 
L 67.578125 46 
z
M 42.921875 28.515625 
Q 42.921875 37.59375 40.578125 41.640625 
Q 38.234375 45.703125 33.109375 45.703125 
Q 27.734375 45.703125 25.5625 41.421875 
Q 23.390625 37.15625 23.390625 25.984375 
Q 23.390625 14.796875 25.578125 10.5 
Q 27.78125 6.203125 33.109375 6.203125 
Q 38.234375 6.203125 40.578125 10.25 
Q 42.921875 14.3125 42.921875 23.390625 
z
" id="DejaVuSerif-Bold-67"/>
      <path d="M 12.5 75.984375 
L 40.1875 75.984375 
L 40.1875 70.125 
L 29.78125 70.125 
L 29.78125 -7.328125 
L 40.1875 -7.328125 
L 40.1875 -13.1875 
L 12.5 -13.1875 
z
" id="DejaVuSerif-Bold-5b"/>
      <path d="M 55.078125 31.890625 
L 55.078125 5.90625 
L 62.5 5.90625 
L 62.5 0 
L 37.796875 0 
L 37.796875 6.59375 
Q 34.375 2.484375 30.171875 0.53125 
Q 25.984375 -1.421875 20.609375 -1.421875 
Q 12.640625 -1.421875 8.375 2.84375 
Q 4.109375 7.125 4.109375 15.09375 
Q 4.109375 23.828125 10.234375 28.171875 
Q 16.359375 32.515625 28.71875 32.515625 
L 37.796875 32.515625 
L 37.796875 35.59375 
Q 37.796875 41.890625 34.8125 44.890625 
Q 31.84375 47.90625 25.59375 47.90625 
Q 20.40625 47.90625 17.59375 45.78125 
Q 14.796875 43.65625 13.625 38.8125 
L 8.109375 38.8125 
L 8.109375 50 
Q 12.75 51.65625 17.71875 52.484375 
Q 22.703125 53.328125 28.21875 53.328125 
Q 42.140625 53.328125 48.609375 48.140625 
Q 55.078125 42.96875 55.078125 31.890625 
z
M 37.796875 16.3125 
L 37.796875 26.703125 
L 31.296875 26.703125 
Q 26.46875 26.703125 23.875 24.0625 
Q 21.296875 21.4375 21.296875 16.5 
Q 21.296875 11.578125 23.171875 9.125 
Q 25.046875 6.6875 28.90625 6.6875 
Q 32.90625 6.6875 35.34375 9.328125 
Q 37.796875 11.96875 37.796875 16.3125 
z
" id="DejaVuSerif-Bold-61"/>
      <path d="M 25.6875 72.90625 
L 36.53125 72.90625 
L 10.796875 -9.28125 
L 0 -9.28125 
z
" id="DejaVuSerif-Bold-2f"/>
      <path d="M 27 28.515625 
L 27 23.390625 
Q 27 14.3125 29.3125 10.25 
Q 31.640625 6.203125 36.8125 6.203125 
Q 42.140625 6.203125 44.3125 10.5 
Q 46.484375 14.796875 46.484375 25.984375 
Q 46.484375 37.15625 44.3125 41.421875 
Q 42.140625 45.703125 36.8125 45.703125 
Q 31.640625 45.703125 29.3125 41.640625 
Q 27 37.59375 27 28.515625 
z
M 9.71875 46 
L 2.296875 46 
L 2.296875 51.90625 
L 27 51.90625 
L 27 45.3125 
Q 29.203125 49.359375 32.90625 51.34375 
Q 36.625 53.328125 42.09375 53.328125 
Q 53.171875 53.328125 59.546875 46.015625 
Q 65.921875 38.71875 65.921875 25.984375 
Q 65.921875 13.234375 59.546875 5.90625 
Q 53.171875 -1.421875 42.09375 -1.421875 
Q 36.625 -1.421875 32.90625 0.5625 
Q 29.203125 2.546875 27 6.59375 
L 27 -14.890625 
L 35.015625 -14.890625 
L 35.015625 -20.796875 
L 2.296875 -20.796875 
L 2.296875 -14.890625 
L 9.71875 -14.890625 
z
" id="DejaVuSerif-Bold-70"/>
      <path d="M 56.390625 16.21875 
Q 54.546875 7.328125 48.796875 2.953125 
Q 43.0625 -1.421875 33.203125 -1.421875 
Q 19.34375 -1.421875 11.71875 5.75 
Q 4.109375 12.9375 4.109375 25.984375 
Q 4.109375 38.875 11.625 46.09375 
Q 19.140625 53.328125 32.515625 53.328125 
Q 37.9375 53.328125 43.453125 52.296875 
Q 48.96875 51.265625 54.6875 49.21875 
L 54.6875 34.8125 
L 49.21875 34.8125 
Q 48.4375 41.40625 45.359375 44.59375 
Q 42.28125 47.796875 36.71875 47.796875 
Q 29.5 47.796875 26.4375 42.90625 
Q 23.390625 38.03125 23.390625 25.984375 
Q 23.390625 14.203125 26.359375 9.15625 
Q 29.34375 4.109375 36.078125 4.109375 
Q 41.3125 4.109375 44.453125 7.234375 
Q 47.609375 10.359375 48.296875 16.21875 
z
" id="DejaVuSerif-Bold-63"/>
      <path d="M 34.8125 75.984375 
L 34.8125 -13.1875 
L 7.078125 -13.1875 
L 7.078125 -7.328125 
L 17.484375 -7.328125 
L 17.484375 70.125 
L 7.078125 70.125 
L 7.078125 75.984375 
z
" id="DejaVuSerif-Bold-5d"/>
     </defs>
     <g transform="translate(254.132813 506.106406)scale(0.24 -0.24)">
      <use xlink:href="#DejaVuSerif-Bold-4c"/>
      <use x="70.3125" xlink:href="#DejaVuSerif-Bold-6f"/>
      <use x="137.011719" xlink:href="#DejaVuSerif-Bold-67"/>
      <use x="206.933594" xlink:href="#DejaVuSerif-Bold-5b"/>
      <use x="254.248047" xlink:href="#DejaVuSerif-Bold-61"/>
      <use x="319.042969" xlink:href="#DejaVuSerif-Bold-2f"/>
      <use x="355.566406" xlink:href="#DejaVuSerif-Bold-70"/>
      <use x="425.488281" xlink:href="#DejaVuSerif-Bold-63"/>
      <use x="486.376953" xlink:href="#DejaVuSerif-Bold-5d"/>
     </g>
    </g>
   </g>
   <g id="matplotlib.axis_2">
    <g id="ytick_1">
     <g id="line2d_6">
      <defs>
       <path d="M 0 0 
L 6 0 
" id="m920ca352b0" style="stroke:#333333;stroke-width:0.8;"/>
      </defs>
      <g>
       <use style="fill:#333333;stroke:#333333;stroke-width:0.8;" x="94.977187" xlink:href="#m920ca352b0" y="459.078281"/>
      </g>
     </g>
     <g id="text_7">
      <!-- −3.0 -->
      <defs>
       <path d="M 8.109375 7.90625 
Q 8.109375 11.71875 10.84375 14.453125 
Q 13.578125 17.1875 17.390625 17.1875 
Q 21.234375 17.1875 23.96875 14.453125 
Q 26.703125 11.71875 26.703125 7.90625 
Q 26.703125 4.046875 23.96875 1.3125 
Q 21.234375 -1.421875 17.390625 -1.421875 
Q 13.578125 -1.421875 10.84375 1.3125 
Q 8.109375 4.046875 8.109375 7.90625 
z
" id="DejaVuSerif-Bold-2e"/>
      </defs>
      <g style="fill:#333333;" transform="translate(34.76875 467.436563)scale(0.22 -0.22)">
       <use xlink:href="#DejaVuSerif-Bold-2212"/>
       <use x="83.789062" xlink:href="#DejaVuSerif-Bold-33"/>
       <use x="153.369141" xlink:href="#DejaVuSerif-Bold-2e"/>
       <use x="188.183594" xlink:href="#DejaVuSerif-Bold-30"/>
      </g>
     </g>
    </g>
    <g id="ytick_2">
     <g id="line2d_7">
      <g>
       <use style="fill:#333333;stroke:#333333;stroke-width:0.8;" x="94.977187" xlink:href="#m920ca352b0" y="395.718281"/>
      </g>
     </g>
     <g id="text_8">
      <!-- −2.8 -->
      <defs>
       <path d="M 46.484375 38.8125 
Q 55.171875 37.40625 59.6875 32.421875 
Q 64.203125 27.4375 64.203125 19.390625 
Q 64.203125 9.328125 56.609375 3.953125 
Q 49.03125 -1.421875 34.71875 -1.421875 
Q 20.40625 -1.421875 12.78125 3.953125 
Q 5.171875 9.328125 5.171875 19.390625 
Q 5.171875 27.4375 9.71875 32.421875 
Q 14.265625 37.40625 22.90625 38.8125 
Q 15.234375 40.578125 11.421875 44.703125 
Q 7.625 48.828125 7.625 55.171875 
Q 7.625 64.453125 14.546875 69.328125 
Q 21.484375 74.21875 34.71875 74.21875 
Q 47.90625 74.21875 54.859375 69.328125 
Q 61.8125 64.453125 61.8125 55.171875 
Q 61.8125 48.828125 57.984375 44.703125 
Q 54.15625 40.578125 46.484375 38.8125 
z
M 42.921875 54.984375 
Q 42.921875 62.703125 41.0625 65.59375 
Q 39.203125 68.5 34.71875 68.5 
Q 30.171875 68.5 28.34375 65.59375 
Q 26.515625 62.703125 26.515625 54.984375 
Q 26.515625 47.3125 28.34375 44.453125 
Q 30.171875 41.609375 34.71875 41.609375 
Q 39.265625 41.609375 41.09375 44.453125 
Q 42.921875 47.3125 42.921875 54.984375 
z
M 44.828125 20.21875 
Q 44.828125 29.15625 42.546875 32.515625 
Q 40.28125 35.890625 34.71875 35.890625 
Q 29.109375 35.890625 26.859375 32.515625 
Q 24.609375 29.15625 24.609375 20.21875 
Q 24.609375 11.1875 26.875 7.734375 
Q 29.15625 4.296875 34.71875 4.296875 
Q 40.234375 4.296875 42.53125 7.734375 
Q 44.828125 11.1875 44.828125 20.21875 
z
" id="DejaVuSerif-Bold-38"/>
      </defs>
      <g style="fill:#333333;" transform="translate(34.76875 404.076563)scale(0.22 -0.22)">
       <use xlink:href="#DejaVuSerif-Bold-2212"/>
       <use x="83.789062" xlink:href="#DejaVuSerif-Bold-32"/>
       <use x="153.369141" xlink:href="#DejaVuSerif-Bold-2e"/>
       <use x="188.183594" xlink:href="#DejaVuSerif-Bold-38"/>
      </g>
     </g>
    </g>
    <g id="ytick_3">
     <g id="line2d_8">
      <g>
       <use style="fill:#333333;stroke:#333333;stroke-width:0.8;" x="94.977187" xlink:href="#m920ca352b0" y="332.358281"/>
      </g>
     </g>
     <g id="text_9">
      <!-- −2.6 -->
      <defs>
       <path d="M 24.609375 43.21875 
Q 27.78125 45.75 31.703125 47.015625 
Q 35.640625 48.296875 40.28125 48.296875 
Q 51.46875 48.296875 57.828125 41.75 
Q 64.203125 35.203125 64.203125 23.78125 
Q 64.203125 11.71875 57.03125 5.140625 
Q 49.859375 -1.421875 36.625 -1.421875 
Q 21.6875 -1.421875 13.984375 7.59375 
Q 6.296875 16.609375 6.296875 34.078125 
Q 6.296875 53.953125 14.84375 64.078125 
Q 23.390625 74.21875 40.1875 74.21875 
Q 44.578125 74.21875 49.609375 73.484375 
Q 54.640625 72.75 60.40625 71.296875 
L 60.40625 58.40625 
L 54.5 58.40625 
Q 53.265625 63.375 49.875 65.9375 
Q 46.484375 68.5 41.109375 68.5 
Q 32.421875 68.5 28.53125 62.546875 
Q 24.65625 56.59375 24.609375 43.21875 
z
M 35.5 4.296875 
Q 40.53125 4.296875 42.671875 8.5625 
Q 44.828125 12.84375 44.828125 23.390625 
Q 44.828125 33.9375 42.671875 38.203125 
Q 40.53125 42.484375 35.5 42.484375 
Q 30.46875 42.484375 28.34375 38.203125 
Q 26.21875 33.9375 26.21875 23.390625 
Q 26.21875 12.84375 28.34375 8.5625 
Q 30.46875 4.296875 35.5 4.296875 
z
" id="DejaVuSerif-Bold-36"/>
      </defs>
      <g style="fill:#333333;" transform="translate(34.76875 340.716563)scale(0.22 -0.22)">
       <use xlink:href="#DejaVuSerif-Bold-2212"/>
       <use x="83.789062" xlink:href="#DejaVuSerif-Bold-32"/>
       <use x="153.369141" xlink:href="#DejaVuSerif-Bold-2e"/>
       <use x="188.183594" xlink:href="#DejaVuSerif-Bold-36"/>
      </g>
     </g>
    </g>
    <g id="ytick_4">
     <g id="line2d_9">
      <g>
       <use style="fill:#333333;stroke:#333333;stroke-width:0.8;" x="94.977187" xlink:href="#m920ca352b0" y="268.998281"/>
      </g>
     </g>
     <g id="text_10">
      <!-- −2.4 -->
      <g style="fill:#333333;" transform="translate(34.76875 277.356563)scale(0.22 -0.22)">
       <use xlink:href="#DejaVuSerif-Bold-2212"/>
       <use x="83.789062" xlink:href="#DejaVuSerif-Bold-32"/>
       <use x="153.369141" xlink:href="#DejaVuSerif-Bold-2e"/>
       <use x="188.183594" xlink:href="#DejaVuSerif-Bold-34"/>
      </g>
     </g>
    </g>
    <g id="ytick_5">
     <g id="line2d_10">
      <g>
       <use style="fill:#333333;stroke:#333333;stroke-width:0.8;" x="94.977187" xlink:href="#m920ca352b0" y="205.638281"/>
      </g>
     </g>
     <g id="text_11">
      <!-- −2.2 -->
      <g style="fill:#333333;" transform="translate(34.76875 213.996563)scale(0.22 -0.22)">
       <use xlink:href="#DejaVuSerif-Bold-2212"/>
       <use x="83.789062" xlink:href="#DejaVuSerif-Bold-32"/>
       <use x="153.369141" xlink:href="#DejaVuSerif-Bold-2e"/>
       <use x="188.183594" xlink:href="#DejaVuSerif-Bold-32"/>
      </g>
     </g>
    </g>
    <g id="ytick_6">
     <g id="line2d_11">
      <g>
       <use style="fill:#333333;stroke:#333333;stroke-width:0.8;" x="94.977187" xlink:href="#m920ca352b0" y="142.278281"/>
      </g>
     </g>
     <g id="text_12">
      <!-- −2.0 -->
      <g style="fill:#333333;" transform="translate(34.76875 150.636563)scale(0.22 -0.22)">
       <use xlink:href="#DejaVuSerif-Bold-2212"/>
       <use x="83.789062" xlink:href="#DejaVuSerif-Bold-32"/>
       <use x="153.369141" xlink:href="#DejaVuSerif-Bold-2e"/>
       <use x="188.183594" xlink:href="#DejaVuSerif-Bold-30"/>
      </g>
     </g>
    </g>
    <g id="ytick_7">
     <g id="line2d_12">
      <g>
       <use style="fill:#333333;stroke:#333333;stroke-width:0.8;" x="94.977187" xlink:href="#m920ca352b0" y="78.918281"/>
      </g>
     </g>
     <g id="text_13">
      <!-- −1.8 -->
      <g style="fill:#333333;" transform="translate(34.76875 87.276563)scale(0.22 -0.22)">
       <use xlink:href="#DejaVuSerif-Bold-2212"/>
       <use x="83.789062" xlink:href="#DejaVuSerif-Bold-31"/>
       <use x="153.369141" xlink:href="#DejaVuSerif-Bold-2e"/>
       <use x="188.183594" xlink:href="#DejaVuSerif-Bold-38"/>
      </g>
     </g>
    </g>
    <g id="ytick_8">
     <g id="line2d_13">
      <g>
       <use style="fill:#333333;stroke:#333333;stroke-width:0.8;" x="94.977187" xlink:href="#m920ca352b0" y="15.558281"/>
      </g>
     </g>
     <g id="text_14">
      <!-- −1.6 -->
      <g style="fill:#333333;" transform="translate(34.76875 23.916563)scale(0.22 -0.22)">
       <use xlink:href="#DejaVuSerif-Bold-2212"/>
       <use x="83.789062" xlink:href="#DejaVuSerif-Bold-31"/>
       <use x="153.369141" xlink:href="#DejaVuSerif-Bold-2e"/>
       <use x="188.183594" xlink:href="#DejaVuSerif-Bold-36"/>
      </g>
     </g>
    </g>
    <g id="text_15">
     <!-- Log[1-e] -->
     <defs>
      <path d="M 5.421875 33.40625 
L 36.078125 33.40625 
L 36.078125 20.21875 
L 5.421875 20.21875 
z
" id="DejaVuSerif-Bold-2d"/>
      <path d="M 40.09375 29.296875 
Q 40.09375 39.546875 38.1875 43.671875 
Q 36.28125 47.796875 31.6875 47.796875 
Q 27.25 47.796875 25.3125 43.75 
Q 23.390625 39.703125 23.390625 30.171875 
L 23.390625 29.296875 
z
M 59.078125 23.484375 
L 23.390625 23.484375 
L 23.390625 23.09375 
Q 23.390625 13.03125 26.40625 8.5625 
Q 29.4375 4.109375 36.1875 4.109375 
Q 41.796875 4.109375 45.265625 7.078125 
Q 48.734375 10.0625 49.703125 15.71875 
L 57.8125 15.71875 
Q 55.71875 6.890625 49.46875 2.734375 
Q 43.21875 -1.421875 31.984375 -1.421875 
Q 18.5 -1.421875 11.296875 5.6875 
Q 4.109375 12.796875 4.109375 25.984375 
Q 4.109375 38.875 11.46875 46.09375 
Q 18.84375 53.328125 31.984375 53.328125 
Q 44.875 53.328125 51.75 45.734375 
Q 58.640625 38.140625 59.078125 23.484375 
z
" id="DejaVuSerif-Bold-65"/>
     </defs>
     <g transform="translate(25.43625 294.470156)rotate(-90)scale(0.24 -0.24)">
      <use xlink:href="#DejaVuSerif-Bold-4c"/>
      <use x="70.3125" xlink:href="#DejaVuSerif-Bold-6f"/>
      <use x="137.011719" xlink:href="#DejaVuSerif-Bold-67"/>
      <use x="206.933594" xlink:href="#DejaVuSerif-Bold-5b"/>
      <use x="254.248047" xlink:href="#DejaVuSerif-Bold-31"/>
      <use x="323.828125" xlink:href="#DejaVuSerif-Bold-2d"/>
      <use x="365.332031" xlink:href="#DejaVuSerif-Bold-65"/>
      <use x="428.955078" xlink:href="#DejaVuSerif-Bold-5d"/>
     </g>
    </g>
   </g>
   <g id="patch_3">
    <path d="M 94.977187 459.078281 
L 94.977187 15.558281 
" style="fill:none;stroke:#333333;stroke-linecap:square;stroke-linejoin:miter;stroke-width:0.8;"/>
   </g>
   <g id="patch_4">
    <path d="M 541.377188 459.078281 
L 541.377188 15.558281 
" style="fill:none;stroke:#333333;stroke-linecap:square;stroke-linejoin:miter;stroke-width:0.8;"/>
   </g>
   <g id="patch_5">
    <path d="M 94.977188 459.078281 
L 541.377188 459.078281 
" style="fill:none;stroke:#333333;stroke-linecap:square;stroke-linejoin:miter;stroke-width:0.8;"/>
   </g>
   <g id="patch_6">
    <path d="M 94.977188 15.558281 
L 541.377188 15.558281 
" style="fill:none;stroke:#333333;stroke-linecap:square;stroke-linejoin:miter;stroke-width:0.8;"/>
   </g>
   <g id="text_16">
    <!-- $M_{bh}=4\times 10^6 M_{\odot}$ -->
    <defs>
     <path d="M 4.203125 0 
L 4.203125 5.90625 
L 13.484375 5.90625 
L 13.484375 67 
L 4.203125 67 
L 4.203125 72.90625 
L 34.28125 72.90625 
L 55.078125 26.125 
L 75.984375 72.90625 
L 106 72.90625 
L 106 67 
L 96.6875 67 
L 96.6875 5.90625 
L 106 5.90625 
L 106 0 
L 68.5 0 
L 68.5 5.90625 
L 77.78125 5.90625 
L 77.78125 61.53125 
L 55.171875 10.6875 
L 42.828125 10.6875 
L 20.3125 61.53125 
L 20.3125 5.90625 
L 29.59375 5.90625 
L 29.59375 0 
z
" id="DejaVuSerif-Bold-4d"/>
     <path d="M 9.71875 5.90625 
L 9.71875 70.125 
L 2.296875 70.125 
L 2.296875 75.984375 
L 27 75.984375 
L 27 45.3125 
Q 29.203125 49.359375 32.90625 51.34375 
Q 36.625 53.328125 42.09375 53.328125 
Q 53.171875 53.328125 59.546875 46.015625 
Q 65.921875 38.71875 65.921875 25.984375 
Q 65.921875 13.234375 59.546875 5.90625 
Q 53.171875 -1.421875 42.09375 -1.421875 
Q 36.625 -1.421875 32.90625 0.5625 
Q 29.203125 2.546875 27 6.59375 
L 27 0 
L 2.296875 0 
L 2.296875 5.90625 
z
M 27 23.390625 
Q 27 14.3125 29.3125 10.25 
Q 31.640625 6.203125 36.8125 6.203125 
Q 42.140625 6.203125 44.3125 10.5 
Q 46.484375 14.796875 46.484375 25.984375 
Q 46.484375 37.15625 44.3125 41.421875 
Q 42.140625 45.703125 36.8125 45.703125 
Q 31.640625 45.703125 29.3125 41.640625 
Q 27 37.59375 27 28.515625 
z
" id="DejaVuSerif-Bold-62"/>
     <path d="M 3.421875 0 
L 3.421875 5.90625 
L 10.796875 5.90625 
L 10.796875 70.125 
L 3.078125 70.125 
L 3.078125 75.984375 
L 28.078125 75.984375 
L 28.078125 44.578125 
Q 31.203125 49.21875 35.203125 51.265625 
Q 39.203125 53.328125 45.3125 53.328125 
Q 54.046875 53.328125 58.515625 48.171875 
Q 62.984375 43.015625 62.984375 33.015625 
L 62.984375 5.90625 
L 70.40625 5.90625 
L 70.40625 0 
L 39.40625 0 
L 39.40625 5.90625 
L 45.703125 5.90625 
L 45.703125 33.5 
Q 45.703125 40.09375 44.015625 42.65625 
Q 42.328125 45.21875 38.1875 45.21875 
Q 32.953125 45.21875 30.515625 41.375 
Q 28.078125 37.546875 28.078125 29.203125 
L 28.078125 5.90625 
L 34.421875 5.90625 
L 34.421875 0 
z
" id="DejaVuSerif-Bold-68"/>
     <path d="M 10.59375 25.78125 
L 73.1875 25.78125 
L 73.1875 14.703125 
L 10.59375 14.703125 
z
M 10.59375 48 
L 73.1875 48 
L 73.1875 36.921875 
L 10.59375 36.921875 
z
" id="DejaVuSerif-Bold-3d"/>
     <path d="M 70.90625 52.78125 
L 49.421875 31.296875 
L 70.90625 9.8125 
L 63.375 2.296875 
L 41.890625 23.78125 
L 20.40625 2.296875 
L 12.890625 9.8125 
L 34.421875 31.296875 
L 12.890625 52.78125 
L 20.40625 60.40625 
L 41.890625 38.921875 
L 63.375 60.40625 
z
" id="DejaVuSerif-Bold-d7"/>
     <path d="M 38.09375 22.125 
Q 32.625 27.546875 32.625 31.34375 
Q 32.625 35.15625 35.359375 37.890625 
Q 38.09375 40.625 41.890625 40.625 
Q 45.75 40.625 48.484375 37.890625 
Q 51.21875 35.15625 51.21875 31.34375 
Q 51.21875 27.546875 48.484375 24.828125 
Q 45.75 22.125 41.890625 22.125 
Q 38.09375 22.125 32.625 27.546875 
z
M 27.203125 46.046875 
Q 21.78125 36.765625 21.78125 31.34375 
Q 21.78125 25.921875 24.484375 21.28125 
Q 27.203125 16.65625 31.828125 13.9375 
Q 36.46875 11.234375 41.890625 11.234375 
Q 47.3125 11.234375 51.953125 13.9375 
Q 56.59375 16.65625 59.296875 21.28125 
Q 62.015625 25.921875 62.015625 31.34375 
Q 62.015625 36.765625 59.296875 41.40625 
Q 56.59375 46.046875 51.953125 48.75 
Q 47.3125 51.46875 41.890625 51.46875 
Q 36.46875 51.46875 31.828125 48.75 
Q 27.203125 46.046875 21.78125 36.765625 
z
M 18.953125 8.40625 
Q 10.546875 22.859375 10.546875 31.34375 
Q 10.546875 39.84375 14.75 47.0625 
Q 18.953125 54.296875 26.171875 58.5 
Q 33.40625 62.703125 41.890625 62.703125 
Q 50.390625 62.703125 57.609375 58.5 
Q 64.84375 54.296875 69.046875 47.0625 
Q 73.25 39.84375 73.25 31.34375 
Q 73.25 22.859375 69.046875 15.625 
Q 64.84375 8.40625 57.609375 4.203125 
Q 50.390625 0 41.890625 0 
Q 33.40625 0 26.171875 4.203125 
Q 18.953125 8.40625 10.546875 22.859375 
z
" id="DejaVuSerif-Bold-2299"/>
    </defs>
    <g style="fill:#ffffff;" transform="translate(106.137188 37.470969)scale(0.22 -0.22)">
     <use transform="translate(0 0.7125)" xlink:href="#DejaVuSerif-Bold-4d"/>
     <use transform="translate(111.601719 -14.859375)scale(0.7)" xlink:href="#DejaVuSerif-Bold-62"/>
     <use transform="translate(160.547031 -14.859375)scale(0.7)" xlink:href="#DejaVuSerif-Bold-68"/>
     <use transform="translate(235.198008 0.7125)" xlink:href="#DejaVuSerif-Bold-3d"/>
     <use transform="translate(340.14918 0.7125)" xlink:href="#DejaVuSerif-Bold-34"/>
     <use transform="translate(430.891367 0.7125)" xlink:href="#DejaVuSerif-Bold-d7"/>
     <use transform="translate(535.842539 0.7125)" xlink:href="#DejaVuSerif-Bold-31"/>
     <use transform="translate(605.422617 0.7125)" xlink:href="#DejaVuSerif-Bold-30"/>
     <use transform="translate(675.911055 37.046875)scale(0.7)" xlink:href="#DejaVuSerif-Bold-36"/>
     <use transform="translate(727.212422 0.7125)" xlink:href="#DejaVuSerif-Bold-4d"/>
     <use transform="translate(838.814141 -14.859375)scale(0.7)" xlink:href="#DejaVuSerif-Bold-2299"/>
    </g>
    <!-- $e_{bin}: Thermal$ -->
    <defs>
     <path d="M 9.1875 66.609375 
Q 9.1875 70.5625 11.921875 73.265625 
Q 14.65625 75.984375 18.609375 75.984375 
Q 22.46875 75.984375 25.171875 73.265625 
Q 27.875 70.5625 27.875 66.609375 
Q 27.875 62.75 25.171875 60.03125 
Q 22.46875 57.328125 18.609375 57.328125 
Q 14.65625 57.328125 11.921875 60.015625 
Q 9.1875 62.703125 9.1875 66.609375 
z
M 28.078125 5.90625 
L 35.5 5.90625 
L 35.5 0 
L 3.421875 0 
L 3.421875 5.90625 
L 10.796875 5.90625 
L 10.796875 46 
L 3.421875 46 
L 3.421875 51.90625 
L 28.078125 51.90625 
z
" id="DejaVuSerif-Bold-69"/>
     <path d="M 3.421875 0 
L 3.421875 5.90625 
L 10.796875 5.90625 
L 10.796875 46 
L 3.421875 46 
L 3.421875 51.90625 
L 28.078125 51.90625 
L 28.078125 44.578125 
Q 31.203125 49.21875 35.203125 51.265625 
Q 39.203125 53.328125 45.3125 53.328125 
Q 54.046875 53.328125 58.515625 48.171875 
Q 62.984375 43.015625 62.984375 33.015625 
L 62.984375 5.90625 
L 70.40625 5.90625 
L 70.40625 0 
L 39.40625 0 
L 39.40625 5.90625 
L 45.703125 5.90625 
L 45.703125 33.5 
Q 45.703125 40.09375 44.015625 42.65625 
Q 42.328125 45.21875 38.1875 45.21875 
Q 32.953125 45.21875 30.515625 41.375 
Q 28.078125 37.546875 28.078125 29.203125 
L 28.078125 5.90625 
L 34.421875 5.90625 
L 34.421875 0 
z
" id="DejaVuSerif-Bold-6e"/>
     <path d="M 9.1875 39.703125 
Q 9.1875 43.5625 11.890625 46.296875 
Q 14.59375 49.03125 18.40625 49.03125 
Q 22.21875 49.03125 24.953125 46.265625 
Q 27.6875 43.5 27.6875 39.703125 
Q 27.6875 35.890625 24.96875 33.203125 
Q 22.265625 30.515625 18.40625 30.515625 
Q 14.546875 30.515625 11.859375 33.203125 
Q 9.1875 35.890625 9.1875 39.703125 
z
M 9.1875 7.90625 
Q 9.1875 11.71875 11.890625 14.453125 
Q 14.59375 17.1875 18.40625 17.1875 
Q 22.21875 17.1875 24.953125 14.453125 
Q 27.6875 11.71875 27.6875 7.90625 
Q 27.6875 4.046875 24.953125 1.3125 
Q 22.21875 -1.421875 18.40625 -1.421875 
Q 14.59375 -1.421875 11.890625 1.3125 
Q 9.1875 4.046875 9.1875 7.90625 
z
" id="DejaVuSerif-Bold-3a"/>
     <path d="M 18.109375 0 
L 18.109375 5.90625 
L 27.78125 5.90625 
L 27.78125 66.21875 
L 7.8125 66.21875 
L 7.8125 54.6875 
L 1.125 54.6875 
L 1.125 72.90625 
L 73.390625 72.90625 
L 73.390625 54.6875 
L 66.796875 54.6875 
L 66.796875 66.21875 
L 46.6875 66.21875 
L 46.6875 5.90625 
L 56.390625 5.90625 
L 56.390625 0 
z
" id="DejaVuSerif-Bold-54"/>
     <path d="M 53.71875 52.484375 
L 53.71875 37.015625 
L 48.1875 37.015625 
Q 47.90625 41.15625 45.953125 43.1875 
Q 44 45.21875 40.28125 45.21875 
Q 34.625 45.21875 31.34375 40.234375 
Q 28.078125 35.25 28.078125 26.421875 
L 28.078125 5.90625 
L 37.5 5.90625 
L 37.5 0 
L 3.421875 0 
L 3.421875 5.90625 
L 10.796875 5.90625 
L 10.796875 46 
L 2.875 46 
L 2.875 51.90625 
L 28.078125 51.90625 
L 28.078125 42.671875 
Q 30.609375 48.09375 34.78125 50.703125 
Q 38.96875 53.328125 45.015625 53.328125 
Q 46.53125 53.328125 48.703125 53.09375 
Q 50.875 52.875 53.71875 52.484375 
z
" id="DejaVuSerif-Bold-72"/>
     <path d="M 60.6875 43.40625 
Q 64.3125 48.578125 68.5 50.953125 
Q 72.703125 53.328125 78.328125 53.328125 
Q 87.25 53.328125 91.671875 48.265625 
Q 96.09375 43.21875 96.09375 33.015625 
L 96.09375 5.90625 
L 103.515625 5.90625 
L 103.515625 0 
L 72.609375 0 
L 72.609375 5.90625 
L 78.8125 5.90625 
L 78.8125 30.421875 
Q 78.8125 40.140625 77.3125 42.671875 
Q 75.828125 45.21875 71.78125 45.21875 
Q 67.1875 45.21875 64.640625 41.671875 
Q 62.109375 38.140625 62.109375 31.59375 
L 62.109375 5.90625 
L 68.3125 5.90625 
L 68.3125 0 
L 38.625 0 
L 38.625 5.90625 
L 44.828125 5.90625 
L 44.828125 30.421875 
Q 44.828125 40.140625 43.3125 42.671875 
Q 41.796875 45.21875 37.796875 45.21875 
Q 33.15625 45.21875 30.609375 41.671875 
Q 28.078125 38.140625 28.078125 31.59375 
L 28.078125 5.90625 
L 34.28125 5.90625 
L 34.28125 0 
L 3.421875 0 
L 3.421875 5.90625 
L 10.796875 5.90625 
L 10.796875 46 
L 3.421875 46 
L 3.421875 51.90625 
L 28.078125 51.90625 
L 28.078125 44.578125 
Q 31.109375 49.125 35.015625 51.21875 
Q 38.921875 53.328125 44.28125 53.328125 
Q 50.640625 53.328125 54.59375 50.90625 
Q 58.546875 48.484375 60.6875 43.40625 
z
" id="DejaVuSerif-Bold-6d"/>
     <path d="M 28.078125 5.90625 
L 35.5 5.90625 
L 35.5 0 
L 3.421875 0 
L 3.421875 5.90625 
L 10.796875 5.90625 
L 10.796875 70.125 
L 3.421875 70.125 
L 3.421875 75.984375 
L 28.078125 75.984375 
z
" id="DejaVuSerif-Bold-6c"/>
    </defs>
    <g style="fill:#ffffff;" transform="translate(106.137188 62.106156)scale(0.22 -0.22)">
     <use transform="translate(0 0.015625)" xlink:href="#DejaVuSerif-Bold-65"/>
     <use transform="translate(64.531406 -15.55625)scale(0.7)" xlink:href="#DejaVuSerif-Bold-62"/>
     <use transform="translate(113.476719 -15.55625)scale(0.7)" xlink:href="#DejaVuSerif-Bold-69"/>
     <use transform="translate(140.068516 -15.55625)scale(0.7)" xlink:href="#DejaVuSerif-Bold-6e"/>
     <use transform="translate(214.719492 0.015625)" xlink:href="#DejaVuSerif-Bold-3a"/>
     <use transform="translate(272.795664 0.015625)" xlink:href="#DejaVuSerif-Bold-54"/>
     <use transform="translate(347.209727 0.015625)" xlink:href="#DejaVuSerif-Bold-68"/>
     <use transform="translate(419.914805 0.015625)" xlink:href="#DejaVuSerif-Bold-65"/>
     <use transform="translate(483.537852 0.015625)" xlink:href="#DejaVuSerif-Bold-72"/>
     <use transform="translate(536.223398 0.015625)" xlink:href="#DejaVuSerif-Bold-6d"/>
     <use transform="translate(642.033945 0.015625)" xlink:href="#DejaVuSerif-Bold-61"/>
     <use transform="translate(706.828867 0.015625)" xlink:href="#DejaVuSerif-Bold-6c"/>
    </g>
   </g>
  </g>
  <g id="axes_2">
   <g id="patch_7">
    <path clip-path="url(#p27b19cf0ee)" d="M 569.277188 459.078281 
L 569.277188 385.158281 
L 569.277188 89.478281 
L 569.277188 15.558281 
L 591.453188 15.558281 
L 591.453188 89.478281 
L 591.453188 385.158281 
L 591.453188 459.078281 
z
" style="fill:#ffffff;stroke:#ffffff;stroke-linejoin:miter;stroke-width:0.01;"/>
   </g>
   <g id="QuadMesh_1">
    <path clip-path="url(#p27b19cf0ee)" d="M 569.277188 459.078281 
L 591.453188 459.078281 
L 591.453188 385.158281 
L 569.277188 385.158281 
L 569.277188 459.078281 
" style="fill:#481f70;"/>
    <path clip-path="url(#p27b19cf0ee)" d="M 569.277188 385.158281 
L 591.453188 385.158281 
L 591.453188 311.238281 
L 569.277188 311.238281 
L 569.277188 385.158281 
" style="fill:#3b528b;"/>
    <path clip-path="url(#p27b19cf0ee)" d="M 569.277188 311.238281 
L 591.453188 311.238281 
L 591.453188 237.318281 
L 569.277188 237.318281 
L 569.277188 311.238281 
" style="fill:#287c8e;"/>
    <path clip-path="url(#p27b19cf0ee)" d="M 569.277188 237.318281 
L 591.453188 237.318281 
L 591.453188 163.398281 
L 569.277188 163.398281 
L 569.277188 237.318281 
" style="fill:#20a486;"/>
    <path clip-path="url(#p27b19cf0ee)" d="M 569.277188 163.398281 
L 591.453188 163.398281 
L 591.453188 89.478281 
L 569.277188 89.478281 
L 569.277188 163.398281 
" style="fill:#5cc863;"/>
    <path clip-path="url(#p27b19cf0ee)" d="M 569.277188 89.478281 
L 591.453188 89.478281 
L 591.453188 15.558281 
L 569.277188 15.558281 
L 569.277188 89.478281 
" style="fill:#c8e020;"/>
   </g>
   <g id="matplotlib.axis_3"/>
   <g id="matplotlib.axis_4">
    <g id="ytick_9">
     <g id="line2d_14">
      <defs>
       <path d="M 0 0 
L -6 0 
" id="mbb44d4134f" style="stroke:#333333;stroke-width:0.8;"/>
      </defs>
      <g>
       <use style="fill:#333333;stroke:#333333;stroke-width:0.8;" x="591.453188" xlink:href="#mbb44d4134f" y="459.078281"/>
      </g>
     </g>
     <g id="text_17">
      <!-- 0.00 -->
      <g style="fill:#333333;" transform="translate(594.953188 467.436562)scale(0.22 -0.22)">
       <use xlink:href="#DejaVuSerif-Bold-30"/>
       <use x="69.580078" xlink:href="#DejaVuSerif-Bold-2e"/>
       <use x="104.394531" xlink:href="#DejaVuSerif-Bold-30"/>
       <use x="173.974609" xlink:href="#DejaVuSerif-Bold-30"/>
      </g>
     </g>
    </g>
    <g id="ytick_10">
     <g id="line2d_15">
      <g>
       <use style="fill:#333333;stroke:#333333;stroke-width:0.8;" x="591.453188" xlink:href="#mbb44d4134f" y="385.158281"/>
      </g>
     </g>
     <g id="text_18">
      <!-- 0.15 -->
      <defs>
       <path d="M 56.390625 72.90625 
L 56.390625 60.109375 
L 17.390625 60.109375 
L 17.390625 44.09375 
Q 20.609375 46.578125 24.5625 47.84375 
Q 28.515625 49.125 32.90625 49.125 
Q 46.390625 49.125 54.203125 42.3125 
Q 62.015625 35.5 62.015625 23.78125 
Q 62.015625 11.859375 54.203125 5.21875 
Q 46.390625 -1.421875 32.328125 -1.421875 
Q 26.375 -1.421875 20.484375 -0.4375 
Q 14.59375 0.53125 8.203125 2.59375 
L 8.203125 18.5 
L 14.0625 18.5 
Q 14.359375 11.328125 17.796875 7.8125 
Q 21.234375 4.296875 27.984375 4.296875 
Q 35.15625 4.296875 38.625 9.109375 
Q 42.09375 13.921875 42.09375 23.78125 
Q 42.09375 33.5 38.6875 38.296875 
Q 35.296875 43.109375 28.421875 43.109375 
Q 24.703125 43.109375 21.796875 41.578125 
Q 18.890625 40.046875 16.40625 36.8125 
L 11.53125 36.8125 
L 11.53125 72.90625 
z
" id="DejaVuSerif-Bold-35"/>
      </defs>
      <g style="fill:#333333;" transform="translate(594.953188 393.516563)scale(0.22 -0.22)">
       <use xlink:href="#DejaVuSerif-Bold-30"/>
       <use x="69.580078" xlink:href="#DejaVuSerif-Bold-2e"/>
       <use x="104.394531" xlink:href="#DejaVuSerif-Bold-31"/>
       <use x="173.974609" xlink:href="#DejaVuSerif-Bold-35"/>
      </g>
     </g>
    </g>
    <g id="ytick_11">
     <g id="line2d_16">
      <g>
       <use style="fill:#333333;stroke:#333333;stroke-width:0.8;" x="591.453188" xlink:href="#mbb44d4134f" y="311.238281"/>
      </g>
     </g>
     <g id="text_19">
      <!-- 0.30 -->
      <g style="fill:#333333;" transform="translate(594.953188 319.596563)scale(0.22 -0.22)">
       <use xlink:href="#DejaVuSerif-Bold-30"/>
       <use x="69.580078" xlink:href="#DejaVuSerif-Bold-2e"/>
       <use x="104.394531" xlink:href="#DejaVuSerif-Bold-33"/>
       <use x="173.974609" xlink:href="#DejaVuSerif-Bold-30"/>
      </g>
     </g>
    </g>
    <g id="ytick_12">
     <g id="line2d_17">
      <g>
       <use style="fill:#333333;stroke:#333333;stroke-width:0.8;" x="591.453188" xlink:href="#mbb44d4134f" y="237.318281"/>
      </g>
     </g>
     <g id="text_20">
      <!-- 0.45 -->
      <g style="fill:#333333;" transform="translate(594.953188 245.676562)scale(0.22 -0.22)">
       <use xlink:href="#DejaVuSerif-Bold-30"/>
       <use x="69.580078" xlink:href="#DejaVuSerif-Bold-2e"/>
       <use x="104.394531" xlink:href="#DejaVuSerif-Bold-34"/>
       <use x="173.974609" xlink:href="#DejaVuSerif-Bold-35"/>
      </g>
     </g>
    </g>
    <g id="ytick_13">
     <g id="line2d_18">
      <g>
       <use style="fill:#333333;stroke:#333333;stroke-width:0.8;" x="591.453188" xlink:href="#mbb44d4134f" y="163.398281"/>
      </g>
     </g>
     <g id="text_21">
      <!-- 0.60 -->
      <g style="fill:#333333;" transform="translate(594.953188 171.756563)scale(0.22 -0.22)">
       <use xlink:href="#DejaVuSerif-Bold-30"/>
       <use x="69.580078" xlink:href="#DejaVuSerif-Bold-2e"/>
       <use x="104.394531" xlink:href="#DejaVuSerif-Bold-36"/>
       <use x="173.974609" xlink:href="#DejaVuSerif-Bold-30"/>
      </g>
     </g>
    </g>
    <g id="ytick_14">
     <g id="line2d_19">
      <g>
       <use style="fill:#333333;stroke:#333333;stroke-width:0.8;" x="591.453188" xlink:href="#mbb44d4134f" y="89.478281"/>
      </g>
     </g>
     <g id="text_22">
      <!-- 0.75 -->
      <defs>
       <path d="M 61.28125 60.5 
L 31.203125 0 
L 21.296875 0 
L 50.59375 59.078125 
L 14.59375 59.078125 
L 14.59375 49.21875 
L 7.90625 49.21875 
L 7.90625 72.90625 
L 61.28125 72.90625 
z
" id="DejaVuSerif-Bold-37"/>
      </defs>
      <g style="fill:#333333;" transform="translate(594.953188 97.836563)scale(0.22 -0.22)">
       <use xlink:href="#DejaVuSerif-Bold-30"/>
       <use x="69.580078" xlink:href="#DejaVuSerif-Bold-2e"/>
       <use x="104.394531" xlink:href="#DejaVuSerif-Bold-37"/>
       <use x="173.974609" xlink:href="#DejaVuSerif-Bold-35"/>
      </g>
     </g>
    </g>
    <g id="ytick_15">
     <g id="line2d_20">
      <g>
       <use style="fill:#333333;stroke:#333333;stroke-width:0.8;" x="591.453188" xlink:href="#mbb44d4134f" y="15.558281"/>
      </g>
     </g>
     <g id="text_23">
      <!-- 0.90 -->
      <defs>
       <path d="M 34.078125 68.5 
Q 29.046875 68.5 26.921875 64.234375 
Q 24.8125 59.96875 24.8125 49.421875 
Q 24.8125 38.875 26.921875 34.59375 
Q 29.046875 30.328125 34.078125 30.328125 
Q 39.109375 30.328125 41.25 34.59375 
Q 43.40625 38.875 43.40625 49.421875 
Q 43.40625 59.96875 41.25 64.234375 
Q 39.109375 68.5 34.078125 68.5 
z
M 44.96875 29.6875 
Q 41.75 27.09375 37.8125 25.796875 
Q 33.890625 24.515625 29.296875 24.515625 
Q 18.171875 24.515625 11.796875 31.03125 
Q 5.421875 37.546875 5.421875 49.03125 
Q 5.421875 61.140625 12.546875 67.671875 
Q 19.671875 74.21875 32.90625 74.21875 
Q 47.859375 74.21875 55.5625 65.1875 
Q 63.28125 56.15625 63.28125 38.71875 
Q 63.28125 18.84375 54.734375 8.703125 
Q 46.1875 -1.421875 29.390625 -1.421875 
Q 25 -1.421875 19.96875 -0.6875 
Q 14.9375 0.046875 9.1875 1.515625 
L 9.1875 14.40625 
L 15.09375 14.40625 
Q 16.3125 9.421875 19.703125 6.859375 
Q 23.09375 4.296875 28.515625 4.296875 
Q 37.109375 4.296875 41.015625 10.28125 
Q 44.921875 16.265625 44.96875 29.6875 
z
" id="DejaVuSerif-Bold-39"/>
      </defs>
      <g style="fill:#333333;" transform="translate(594.953188 23.916562)scale(0.22 -0.22)">
       <use xlink:href="#DejaVuSerif-Bold-30"/>
       <use x="69.580078" xlink:href="#DejaVuSerif-Bold-2e"/>
       <use x="104.394531" xlink:href="#DejaVuSerif-Bold-39"/>
       <use x="173.974609" xlink:href="#DejaVuSerif-Bold-30"/>
      </g>
     </g>
    </g>
   </g>
   <g id="patch_8">
    <path d="M 569.277188 459.078281 
L 569.277188 385.158281 
L 569.277188 89.478281 
L 569.277188 15.558281 
L 591.453188 15.558281 
L 591.453188 89.478281 
L 591.453188 385.158281 
L 591.453188 459.078281 
z
" style="fill:none;stroke:#333333;stroke-linejoin:miter;stroke-width:0.8;"/>
   </g>
  </g>
 </g>
 <defs>
  <clipPath id="p89f1562edf">
   <rect height="443.52" width="446.4" x="94.977187" y="15.558281"/>
  </clipPath>
  <clipPath id="p27b19cf0ee">
   <rect height="443.52" width="22.176" x="569.277188" y="15.558281"/>
  </clipPath>
 </defs>
</svg>
