<?xml version="1.0" encoding="utf-8" standalone="no"?>
<!DOCTYPE svg PUBLIC "-//W3C//DTD SVG 1.1//EN"
  "http://www.w3.org/Graphics/SVG/1.1/DTD/svg11.dtd">
<!-- Created with matplotlib (http://matplotlib.org/) -->
<svg height="518.638906pt" version="1.1" viewBox="0 0 640.426313 518.638906" width="640.426313pt" xmlns="http://www.w3.org/2000/svg" xmlns:xlink="http://www.w3.org/1999/xlink">
 <defs>
  <style type="text/css">
*{stroke-linecap:butt;stroke-linejoin:round;}
  </style>
 </defs>
 <g id="figure_1">
  <g id="patch_1">
   <path d="M 0 518.638906 
L 640.426313 518.638906 
L 640.426313 0 
L 0 0 
z
" style="fill:#ffffff;"/>
  </g>
  <g id="axes_1">
   <g id="patch_2">
    <path d="M 94.977187 459.078281 
L 541.377188 459.078281 
L 541.377188 15.558281 
L 94.977187 15.558281 
z
" style="fill:#ffffff;"/>
   </g>
   <g id="PathCollection_1">
    <path clip-path="url(#p272e8b2c6d)" d="M 100.557188 474.918281 
L 111.717188 474.918281 
L 122.877188 474.918281 
L 134.037188 474.918281 
L 145.197188 474.918281 
L 156.357188 474.918281 
L 167.517188 474.918281 
L 178.677188 474.918281 
L 189.837188 474.918281 
L 200.997188 474.918281 
L 212.157188 474.918281 
L 223.317188 474.918281 
L 234.477188 474.918281 
L 245.637188 474.918281 
L 256.797188 474.918281 
L 267.957188 474.918281 
L 279.117188 474.918281 
L 290.277188 474.918281 
L 295.156703 474.918281 
L 292.902597 443.238281 
L 295.356165 411.558281 
L 301.437188 401.442739 
L 312.597188 396.26154 
L 323.757188 381.632403 
L 324.033596 379.878281 
L 323.757188 379.155914 
L 312.597188 365.243448 
L 301.437188 368.144422 
L 290.277188 377.559075 
L 279.117188 379.312408 
L 267.957188 368.371599 
L 258.19165 348.198281 
L 256.797188 346.307067 
L 245.637188 321.020727 
L 242.554776 316.518281 
L 234.477188 306.200583 
L 223.317188 292.92565 
L 218.097702 284.838281 
L 212.157188 275.944227 
L 203.265698 253.158281 
L 200.997188 245.902267 
L 194.606008 221.478281 
L 189.837188 203.587156 
L 186.666454 189.798281 
L 180.837374 158.118281 
L 178.677188 135.063817 
L 177.614511 126.438281 
L 175.732705 94.758281 
L 175.600915 63.078281 
L 176.450524 31.398281 
L 178.677188 -0.144378 
L 178.686377 -0.281719 
L 187.591109 -31.961719 
L 189.837188 -37.152781 
L 200.997188 -48.576387 
L 212.157188 -55.901499 
L 223.317188 -63.360816 
L 223.735155 -63.641719 
L 234.477188 -73.542157 
L 245.637188 -79.182176 
L 256.797188 -80.239167 
L 267.957188 -79.507092 
L 279.117188 -76.34578 
L 290.277188 -70.437942 
L 301.437188 -66.670764 
L 312.597188 -69.004676 
L 323.757188 -71.469172 
L 334.917188 -66.066118 
L 343.470522 -63.641719 
L 346.077188 -63.1194 
L 346.953251 -63.641719 
L 357.237188 -73.629328 
L 368.397188 -80.407666 
L 379.557188 -72.678466 
L 385.354107 -63.641719 
L 390.717188 -58.006614 
L 401.877188 -49.867329 
L 413.037188 -47.06882 
L 424.197188 -40.938866 
L 429.539511 -31.961719 
L 435.357188 -19.666302 
L 440.883715 -0.281719 
L 445.305447 31.398281 
L 446.517188 53.958321 
L 447.141098 63.078281 
L 448.70346 94.758281 
L 451.529357 126.438281 
L 453.22507 158.118281 
L 449.17425 189.798281 
L 446.517188 196.466472 
L 436.844039 221.478281 
L 435.357188 224.479223 
L 424.197188 251.731501 
L 423.61432 253.158281 
L 417.312941 284.838281 
L 417.053949 316.518281 
L 416.114347 348.198281 
L 414.58278 379.878281 
L 414.358845 411.558281 
L 414.487212 443.238281 
L 413.539427 474.918281 
L 424.197188 474.918281 
L 435.357188 474.918281 
L 446.517188 474.918281 
L 457.677188 474.918281 
L 468.837188 474.918281 
L 479.997188 474.918281 
L 491.157188 474.918281 
L 502.317188 474.918281 
L 513.477188 474.918281 
L 524.637188 474.918281 
L 535.797188 474.918281 
L 546.957188 474.918281 
L 558.117188 474.918281 
L 569.277188 474.918281 
L 580.437188 474.918281 
L 591.597188 474.918281 
L 591.597188 443.238281 
L 591.597188 411.558281 
L 591.597188 379.878281 
L 591.597188 348.198281 
L 591.597188 316.518281 
L 591.597188 284.838281 
L 591.597188 253.158281 
L 591.597188 221.478281 
L 591.597188 189.798281 
L 591.597188 158.118281 
L 591.597188 126.438281 
L 591.597188 94.758281 
L 591.597188 63.078281 
L 591.597188 31.398281 
L 591.597188 -0.281719 
L 591.597188 -31.961719 
L 591.597188 -63.641719 
L 591.597188 -95.321719 
L 591.597188 -127.001719 
L 591.597188 -158.681719 
L 591.597188 -190.361719 
L 591.597188 -222.041719 
L 591.597188 -253.721719 
L 591.597188 -285.401719 
L 591.597188 -317.081719 
L 591.597188 -348.761719 
L 591.597188 -380.441719 
L 591.597188 -412.121719 
L 591.597188 -443.801719 
L 591.597188 -475.481719 
L 580.437188 -475.481719 
L 569.277188 -475.481719 
L 558.117188 -475.481719 
L 546.957188 -475.481719 
L 535.797188 -475.481719 
L 524.637188 -475.481719 
L 513.477188 -475.481719 
L 502.317188 -475.481719 
L 491.157188 -475.481719 
L 479.997188 -475.481719 
L 468.837188 -475.481719 
L 457.677188 -475.481719 
L 446.517188 -475.481719 
L 435.357188 -475.481719 
L 424.197188 -475.481719 
L 413.037188 -475.481719 
L 401.877188 -475.481719 
L 390.717188 -475.481719 
L 379.557188 -475.481719 
L 368.397188 -475.481719 
L 357.237188 -475.481719 
L 346.077188 -475.481719 
L 334.917188 -475.481719 
L 323.757188 -475.481719 
L 312.597188 -475.481719 
L 301.437188 -475.481719 
L 290.277188 -475.481719 
L 279.117188 -475.481719 
L 267.957188 -475.481719 
L 256.797188 -475.481719 
L 245.637188 -475.481719 
L 234.477188 -475.481719 
L 223.317188 -475.481719 
L 212.157188 -475.481719 
L 200.997188 -475.481719 
L 189.837188 -475.481719 
L 178.677188 -475.481719 
L 167.517188 -475.481719 
L 156.357188 -475.481719 
L 145.197188 -475.481719 
L 134.037188 -475.481719 
L 122.877188 -475.481719 
L 111.717188 -475.481719 
L 100.557188 -475.481719 
L 89.397188 -475.481719 
L 89.397188 -443.801719 
L 89.397188 -412.121719 
L 89.397188 -380.441719 
L 89.397188 -348.761719 
L 89.397188 -317.081719 
L 89.397188 -285.401719 
L 89.397188 -253.721719 
L 89.397188 -222.041719 
L 89.397188 -190.361719 
L 89.397188 -158.681719 
L 89.397188 -127.001719 
L 89.397188 -95.321719 
L 89.397188 -63.641719 
L 89.397188 -31.961719 
L 89.397188 -0.281719 
L 89.397188 31.398281 
L 89.397188 63.078281 
L 89.397188 94.758281 
L 89.397188 126.438281 
L 89.397188 158.118281 
L 89.397188 189.798281 
L 89.397188 221.478281 
L 89.397188 253.158281 
L 89.397188 284.838281 
L 89.397188 316.518281 
L 89.397188 348.198281 
L 89.397188 379.878281 
L 89.397188 411.558281 
L 89.397188 443.238281 
L 89.397188 474.918281 
z
" style="fill:#48186a;"/>
    <path clip-path="url(#p272e8b2c6d)" d="M 357.237188 474.918281 
L 360.23256 474.918281 
L 368.397188 467.756521 
L 374.40138 443.238281 
L 379.557188 427.853118 
L 383.420459 411.558281 
L 379.557188 398.320475 
L 368.397188 388.358486 
L 359.017732 411.558281 
L 360.93045 443.238281 
L 357.237188 469.27692 
L 356.431081 474.918281 
z
" style="fill:#48186a;"/>
   </g>
   <g id="PathCollection_2">
    <path clip-path="url(#p272e8b2c6d)" d="M 301.437188 474.918281 
L 312.597188 474.918281 
L 323.757188 474.918281 
L 334.917188 474.918281 
L 346.077188 474.918281 
L 356.431081 474.918281 
L 357.237188 469.27692 
L 360.93045 443.238281 
L 359.017732 411.558281 
L 368.397188 388.358486 
L 379.557188 398.320475 
L 383.420459 411.558281 
L 379.557188 427.853118 
L 374.40138 443.238281 
L 368.397188 467.756521 
L 360.23256 474.918281 
L 368.397188 474.918281 
L 379.557188 474.918281 
L 390.717188 474.918281 
L 401.877188 474.918281 
L 413.037188 474.918281 
L 413.539427 474.918281 
L 414.487212 443.238281 
L 414.358845 411.558281 
L 414.58278 379.878281 
L 416.114347 348.198281 
L 417.053949 316.518281 
L 417.312941 284.838281 
L 423.61432 253.158281 
L 424.197188 251.731501 
L 435.357188 224.479223 
L 436.844039 221.478281 
L 446.517188 196.466472 
L 449.17425 189.798281 
L 453.22507 158.118281 
L 451.529357 126.438281 
L 448.70346 94.758281 
L 447.141098 63.078281 
L 446.517188 53.958321 
L 445.305447 31.398281 
L 440.883715 -0.281719 
L 435.357188 -19.666302 
L 429.539511 -31.961719 
L 424.197188 -40.938866 
L 413.037188 -47.06882 
L 401.877188 -49.867329 
L 390.717188 -58.006614 
L 385.354107 -63.641719 
L 379.557188 -72.678466 
L 368.397188 -80.407666 
L 357.237188 -73.629328 
L 346.953251 -63.641719 
L 346.077188 -63.1194 
L 343.470522 -63.641719 
L 334.917188 -66.066118 
L 323.757188 -71.469172 
L 312.597188 -69.004676 
L 301.437188 -66.670764 
L 290.277188 -70.437942 
L 279.117188 -76.34578 
L 267.957188 -79.507092 
L 256.797188 -80.239167 
L 245.637188 -79.182176 
L 234.477188 -73.542157 
L 223.735155 -63.641719 
L 223.317188 -63.360816 
L 212.157188 -55.901499 
L 200.997188 -48.576387 
L 189.837188 -37.152781 
L 187.591109 -31.961719 
L 178.686377 -0.281719 
L 178.677188 -0.144378 
L 176.450524 31.398281 
L 175.600915 63.078281 
L 175.732705 94.758281 
L 177.614511 126.438281 
L 178.677188 135.063817 
L 180.837374 158.118281 
L 186.666454 189.798281 
L 189.837188 203.587156 
L 194.606008 221.478281 
L 200.997188 245.902267 
L 203.265698 253.158281 
L 212.157188 275.944227 
L 218.097702 284.838281 
L 223.317188 292.92565 
L 234.477188 306.200583 
L 242.554776 316.518281 
L 245.637188 321.020727 
L 256.797188 346.307067 
L 258.19165 348.198281 
L 267.957188 368.371599 
L 279.117188 379.312408 
L 290.277188 377.559075 
L 301.437188 368.144422 
L 312.597188 365.243448 
L 323.757188 379.155914 
L 324.033596 379.878281 
L 323.757188 381.632403 
L 312.597188 396.26154 
L 301.437188 401.442739 
L 295.356165 411.558281 
L 292.902597 443.238281 
L 295.156703 474.918281 
z
M 387.144278 284.838281 
L 379.557188 258.046398 
L 370.04774 253.158281 
L 368.397188 252.989178 
L 368.242553 253.158281 
L 357.237188 270.323312 
L 346.077188 274.03223 
L 334.917188 275.394059 
L 323.757188 273.121427 
L 312.597188 271.239765 
L 301.437188 271.110841 
L 290.277188 269.280521 
L 279.117188 268.514898 
L 267.957188 264.563801 
L 256.797188 257.691209 
L 250.312918 253.158281 
L 245.637188 251.05321 
L 234.477188 245.28065 
L 223.317188 235.952689 
L 215.381819 221.478281 
L 212.157188 216.791347 
L 202.31119 189.798281 
L 200.997188 187.01761 
L 192.071902 158.118281 
L 189.837188 146.224534 
L 186.936314 126.438281 
L 185.266291 94.758281 
L 186.06599 63.078281 
L 188.985482 31.398281 
L 189.837188 26.508265 
L 198.364501 -0.281719 
L 200.997188 -4.675711 
L 212.157188 -15.400108 
L 223.317188 -23.746945 
L 234.477188 -27.877735 
L 245.637188 -28.159941 
L 256.797188 -29.207067 
L 267.957188 -31.422364 
L 279.117188 -31.877559 
L 281.589085 -31.961719 
L 290.277188 -32.389468 
L 301.437188 -32.341047 
L 312.597188 -32.385204 
L 323.757188 -32.808142 
L 325.709749 -31.961719 
L 334.917188 -28.823428 
L 346.077188 -26.118052 
L 357.237188 -28.963777 
L 368.397188 -30.895402 
L 379.557188 -26.339493 
L 390.717188 -19.887252 
L 401.877188 -13.653917 
L 413.037188 -5.209672 
L 416.539378 -0.281719 
L 424.197188 15.495223 
L 428.280376 31.398281 
L 432.309184 63.078281 
L 434.25857 94.758281 
L 434.262541 126.438281 
L 430.603535 158.118281 
L 424.197188 185.150589 
L 423.190487 189.798281 
L 413.197768 221.478281 
L 413.037188 221.882566 
L 401.877188 247.861157 
L 397.345405 253.158281 
L 392.326958 284.838281 
L 390.717188 299.568378 
z
" style="fill:#424086;"/>
   </g>
   <g id="PathCollection_3">
    <path clip-path="url(#p272e8b2c6d)" d="M 390.717188 299.568378 
L 392.326958 284.838281 
L 397.345405 253.158281 
L 401.877188 247.861157 
L 413.037188 221.882566 
L 413.197768 221.478281 
L 423.190487 189.798281 
L 424.197188 185.150589 
L 430.603535 158.118281 
L 434.262541 126.438281 
L 434.25857 94.758281 
L 432.309184 63.078281 
L 428.280376 31.398281 
L 424.197188 15.495223 
L 416.539378 -0.281719 
L 413.037188 -5.209672 
L 401.877188 -13.653917 
L 390.717188 -19.887252 
L 379.557188 -26.339493 
L 368.397188 -30.895402 
L 357.237188 -28.963777 
L 346.077188 -26.118052 
L 334.917188 -28.823428 
L 325.709749 -31.961719 
L 323.757188 -32.808142 
L 312.597188 -32.385204 
L 301.437188 -32.341047 
L 290.277188 -32.389468 
L 281.589085 -31.961719 
L 279.117188 -31.877559 
L 267.957188 -31.422364 
L 256.797188 -29.207067 
L 245.637188 -28.159941 
L 234.477188 -27.877735 
L 223.317188 -23.746945 
L 212.157188 -15.400108 
L 200.997188 -4.675711 
L 198.364501 -0.281719 
L 189.837188 26.508265 
L 188.985482 31.398281 
L 186.06599 63.078281 
L 185.266291 94.758281 
L 186.936314 126.438281 
L 189.837188 146.224534 
L 192.071902 158.118281 
L 200.997188 187.01761 
L 202.31119 189.798281 
L 212.157188 216.791347 
L 215.381819 221.478281 
L 223.317188 235.952689 
L 234.477188 245.28065 
L 245.637188 251.05321 
L 250.312918 253.158281 
L 256.797188 257.691209 
L 267.957188 264.563801 
L 279.117188 268.514898 
L 290.277188 269.280521 
L 301.437188 271.110841 
L 312.597188 271.239765 
L 323.757188 273.121427 
L 334.917188 275.394059 
L 346.077188 274.03223 
L 357.237188 270.323312 
L 368.242553 253.158281 
L 368.397188 252.989178 
L 370.04774 253.158281 
L 379.557188 258.046398 
L 387.144278 284.838281 
z
M 276.180589 221.478281 
L 267.957188 211.186385 
L 256.797188 200.815912 
L 245.637188 192.939871 
L 234.477188 190.131199 
L 233.462354 189.798281 
L 223.317188 187.914344 
L 212.157188 176.457058 
L 203.97066 158.118281 
L 200.997188 150.208577 
L 195.501358 126.438281 
L 193.002664 94.758281 
L 194.128486 63.078281 
L 199.2326 31.398281 
L 200.997188 26.147508 
L 212.157188 9.248795 
L 223.317188 0.62146 
L 226.669364 -0.281719 
L 234.477188 -3.206112 
L 243.299981 -0.281719 
L 245.637188 0.256826 
L 256.797188 1.565497 
L 263.875348 -0.281719 
L 267.957188 -1.981802 
L 279.117188 -7.1862 
L 290.277188 -9.395509 
L 301.437188 -9.590605 
L 312.597188 -9.267467 
L 323.757188 -6.308914 
L 334.917188 -0.63928 
L 346.077188 -0.535419 
L 357.237188 -3.876918 
L 368.397188 -5.462527 
L 379.557188 -1.269377 
L 381.002804 -0.281719 
L 390.717188 5.041556 
L 401.877188 13.073328 
L 413.037188 27.524192 
L 414.657628 31.398281 
L 422.106018 63.078281 
L 424.197188 87.600732 
L 424.811876 94.758281 
L 424.197188 109.523638 
L 423.43907 126.438281 
L 418.1245 158.118281 
L 413.037188 179.121633 
L 409.225326 189.798281 
L 401.877188 204.941993 
L 390.717188 210.562166 
L 379.557188 207.432687 
L 368.397188 206.079475 
L 357.237188 208.304681 
L 346.077188 211.02069 
L 334.917188 214.971935 
L 326.295109 221.478281 
L 323.757188 223.480471 
L 312.597188 231.805686 
L 301.437188 236.060528 
L 290.277188 233.090727 
L 279.117188 225.126688 
z
" style="fill:#33638d;"/>
   </g>
   <g id="PathCollection_4">
    <path clip-path="url(#p272e8b2c6d)" d="M 279.117188 225.126688 
L 290.277188 233.090727 
L 301.437188 236.060528 
L 312.597188 231.805686 
L 323.757188 223.480471 
L 326.295109 221.478281 
L 334.917188 214.971935 
L 346.077188 211.02069 
L 357.237188 208.304681 
L 368.397188 206.079475 
L 379.557188 207.432687 
L 390.717188 210.562166 
L 401.877188 204.941993 
L 409.225326 189.798281 
L 413.037188 179.121633 
L 418.1245 158.118281 
L 423.43907 126.438281 
L 424.197188 109.523638 
L 424.811876 94.758281 
L 424.197188 87.600732 
L 422.106018 63.078281 
L 414.657628 31.398281 
L 413.037188 27.524192 
L 401.877188 13.073328 
L 390.717188 5.041556 
L 381.002804 -0.281719 
L 379.557188 -1.269377 
L 368.397188 -5.462527 
L 357.237188 -3.876918 
L 346.077188 -0.535419 
L 334.917188 -0.63928 
L 323.757188 -6.308914 
L 312.597188 -9.267467 
L 301.437188 -9.590605 
L 290.277188 -9.395509 
L 279.117188 -7.1862 
L 267.957188 -1.981802 
L 263.875348 -0.281719 
L 256.797188 1.565497 
L 245.637188 0.256826 
L 243.299981 -0.281719 
L 234.477188 -3.206112 
L 226.669364 -0.281719 
L 223.317188 0.62146 
L 212.157188 9.248795 
L 200.997188 26.147508 
L 199.2326 31.398281 
L 194.128486 63.078281 
L 193.002664 94.758281 
L 195.501358 126.438281 
L 200.997188 150.208577 
L 203.97066 158.118281 
L 212.157188 176.457058 
L 223.317188 187.914344 
L 233.462354 189.798281 
L 234.477188 190.131199 
L 245.637188 192.939871 
L 256.797188 200.815912 
L 267.957188 211.186385 
L 276.180589 221.478281 
z
M 284.404919 189.798281 
L 279.117188 185.414685 
L 267.957188 175.641505 
L 256.797188 169.780719 
L 245.637188 161.744733 
L 234.477188 159.192487 
L 223.317188 159.057513 
L 222.478898 158.118281 
L 212.157188 146.751322 
L 204.631883 126.438281 
L 200.997188 103.725212 
L 200.036627 94.758281 
L 200.997188 72.945079 
L 201.531877 63.078281 
L 211.254323 31.398281 
L 212.157188 29.897103 
L 223.317188 18.369019 
L 234.477188 14.523449 
L 245.637188 17.407957 
L 256.797188 20.012643 
L 267.957188 17.667008 
L 279.117188 12.67505 
L 290.277188 10.35408 
L 301.437188 10.288377 
L 312.597188 10.886331 
L 323.757188 15.076705 
L 334.917188 18.792484 
L 346.077188 16.473925 
L 357.237188 14.617508 
L 368.397188 14.71313 
L 379.557188 17.670546 
L 390.717188 25.149446 
L 397.053543 31.398281 
L 401.877188 38.345823 
L 412.613935 63.078281 
L 413.037188 66.317347 
L 415.68979 94.758281 
L 413.268567 126.438281 
L 413.037188 127.74232 
L 406.211302 158.118281 
L 401.877188 170.288923 
L 390.717188 179.509845 
L 379.557188 179.973208 
L 368.397188 178.57448 
L 357.237188 176.984804 
L 346.077188 177.471554 
L 334.917188 177.636642 
L 323.757188 180.02666 
L 313.277676 189.798281 
L 312.597188 190.663479 
L 301.437188 199.218239 
L 290.277188 194.825377 
z
" style="fill:#26828e;"/>
   </g>
   <g id="PathCollection_5">
    <path clip-path="url(#p272e8b2c6d)" d="M 290.277188 194.825377 
L 301.437188 199.218239 
L 312.597188 190.663479 
L 313.277676 189.798281 
L 323.757188 180.02666 
L 334.917188 177.636642 
L 346.077188 177.471554 
L 357.237188 176.984804 
L 368.397188 178.57448 
L 379.557188 179.973208 
L 390.717188 179.509845 
L 401.877188 170.288923 
L 406.211302 158.118281 
L 413.037188 127.74232 
L 413.268567 126.438281 
L 415.68979 94.758281 
L 413.037188 66.317347 
L 412.613935 63.078281 
L 401.877188 38.345823 
L 397.053543 31.398281 
L 390.717188 25.149446 
L 379.557188 17.670546 
L 368.397188 14.71313 
L 357.237188 14.617508 
L 346.077188 16.473925 
L 334.917188 18.792484 
L 323.757188 15.076705 
L 312.597188 10.886331 
L 301.437188 10.288377 
L 290.277188 10.35408 
L 279.117188 12.67505 
L 267.957188 17.667008 
L 256.797188 20.012643 
L 245.637188 17.407957 
L 234.477188 14.523449 
L 223.317188 18.369019 
L 212.157188 29.897103 
L 211.254323 31.398281 
L 201.531877 63.078281 
L 200.997188 72.945079 
L 200.036627 94.758281 
L 200.997188 103.725212 
L 204.631883 126.438281 
L 212.157188 146.751322 
L 222.478898 158.118281 
L 223.317188 159.057513 
L 234.477188 159.192487 
L 245.637188 161.744733 
L 256.797188 169.780719 
L 267.957188 175.641505 
L 279.117188 185.414685 
L 284.404919 189.798281 
z
M 295.436218 158.118281 
L 290.277188 155.771803 
L 279.117188 148.164336 
L 267.957188 145.752455 
L 256.797188 144.323206 
L 245.637188 137.875718 
L 234.477188 135.049377 
L 223.317188 133.307168 
L 217.899019 126.438281 
L 212.157188 114.004032 
L 208.393773 94.758281 
L 210.187948 63.078281 
L 212.157188 56.837231 
L 223.317188 37.907087 
L 234.283703 31.398281 
L 234.477188 31.319498 
L 234.754181 31.398281 
L 245.637188 35.231548 
L 256.797188 38.917713 
L 267.957188 37.267739 
L 277.688848 31.398281 
L 279.117188 30.661355 
L 290.277188 28.051817 
L 301.437188 28.244499 
L 312.597188 29.22619 
L 317.010125 31.398281 
L 323.757188 35.22362 
L 334.917188 37.596742 
L 346.077188 33.508622 
L 357.237188 32.161102 
L 368.397188 34.121076 
L 379.557188 37.769689 
L 390.717188 49.244301 
L 399.332373 63.078281 
L 401.877188 78.348612 
L 404.032665 94.758281 
L 401.877188 113.351645 
L 399.295138 126.438281 
L 390.717188 144.746011 
L 379.557188 152.477402 
L 368.397188 152.637013 
L 357.237188 150.503252 
L 346.077188 152.206045 
L 334.917188 152.307108 
L 323.757188 151.350918 
L 312.597188 156.700879 
L 308.597047 158.118281 
L 301.437188 161.40689 
z
" style="fill:#1fa088;"/>
   </g>
   <g id="PathCollection_6">
    <path clip-path="url(#p272e8b2c6d)" d="M 301.437188 161.40689 
L 308.597047 158.118281 
L 312.597188 156.700879 
L 323.757188 151.350918 
L 334.917188 152.307108 
L 346.077188 152.206045 
L 357.237188 150.503252 
L 368.397188 152.637013 
L 379.557188 152.477402 
L 390.717188 144.746011 
L 399.295138 126.438281 
L 401.877188 113.351645 
L 404.032665 94.758281 
L 401.877188 78.348612 
L 399.332373 63.078281 
L 390.717188 49.244301 
L 379.557188 37.769689 
L 368.397188 34.121076 
L 357.237188 32.161102 
L 346.077188 33.508622 
L 334.917188 37.596742 
L 323.757188 35.22362 
L 317.010125 31.398281 
L 312.597188 29.22619 
L 301.437188 28.244499 
L 290.277188 28.051817 
L 279.117188 30.661355 
L 277.688848 31.398281 
L 267.957188 37.267739 
L 256.797188 38.917713 
L 245.637188 35.231548 
L 234.754181 31.398281 
L 234.477188 31.319498 
L 234.283703 31.398281 
L 223.317188 37.907087 
L 212.157188 56.837231 
L 210.187948 63.078281 
L 208.393773 94.758281 
L 212.157188 114.004032 
L 217.899019 126.438281 
L 223.317188 133.307168 
L 234.477188 135.049377 
L 245.637188 137.875718 
L 256.797188 144.323206 
L 267.957188 145.752455 
L 279.117188 148.164336 
L 290.277188 155.771803 
L 295.436218 158.118281 
z
M 292.8986 126.438281 
L 290.277188 124.757061 
L 279.117188 115.559036 
L 267.957188 115.480807 
L 256.797188 116.931763 
L 245.637188 110.306788 
L 234.477188 105.89241 
L 223.317188 99.68618 
L 221.153225 94.758281 
L 222.925049 63.078281 
L 223.317188 62.389528 
L 234.477188 54.923749 
L 245.637188 56.031573 
L 256.797188 58.561118 
L 267.957188 58.293928 
L 279.117188 53.877742 
L 290.277188 51.465984 
L 301.437188 51.043318 
L 312.597188 52.164774 
L 323.757188 56.348827 
L 334.917188 55.433918 
L 346.077188 51.373664 
L 357.237188 53.87959 
L 368.397188 58.017331 
L 379.557188 61.772403 
L 380.724541 63.078281 
L 386.304614 94.758281 
L 379.557188 110.905496 
L 368.397188 117.387323 
L 357.237188 120.65783 
L 351.482583 126.438281 
L 346.077188 129.425444 
L 334.917188 132.058469 
L 323.757188 128.951017 
L 312.597188 128.383846 
L 301.437188 130.152979 
z
" style="fill:#3fbc73;"/>
   </g>
   <g id="PathCollection_7">
    <path clip-path="url(#p272e8b2c6d)" d="M 301.437188 130.152979 
L 312.597188 128.383846 
L 323.757188 128.951017 
L 334.917188 132.058469 
L 346.077188 129.425444 
L 351.482583 126.438281 
L 357.237188 120.65783 
L 368.397188 117.387323 
L 379.557188 110.905496 
L 386.304614 94.758281 
L 380.724541 63.078281 
L 379.557188 61.772403 
L 368.397188 58.017331 
L 357.237188 53.87959 
L 346.077188 51.373664 
L 334.917188 55.433918 
L 323.757188 56.348827 
L 312.597188 52.164774 
L 301.437188 51.043318 
L 290.277188 51.465984 
L 279.117188 53.877742 
L 267.957188 58.293928 
L 256.797188 58.561118 
L 245.637188 56.031573 
L 234.477188 54.923749 
L 223.317188 62.389528 
L 222.925049 63.078281 
L 221.153225 94.758281 
L 223.317188 99.68618 
L 234.477188 105.89241 
L 245.637188 110.306788 
L 256.797188 116.931763 
L 267.957188 115.480807 
L 279.117188 115.559036 
L 290.277188 124.757061 
L 292.8986 126.438281 
z
M 326.891983 94.758281 
L 334.917188 87.072628 
L 346.077188 87.914791 
L 348.33552 94.758281 
L 346.077188 97.88114 
L 334.917188 101.162214 
z
" style="fill:#84d44b;"/>
   </g>
   <g id="PathCollection_8">
    <path clip-path="url(#p272e8b2c6d)" d="M 334.917188 101.162214 
L 346.077188 97.88114 
L 348.33552 94.758281 
L 346.077188 87.914791 
L 334.917188 87.072628 
L 326.891983 94.758281 
z
" style="fill:#d8e219;"/>
   </g>
   <g id="matplotlib.axis_1">
    <g id="xtick_1">
     <g id="line2d_1">
      <defs>
       <path d="M 0 0 
L 0 -6 
" id="mabe42ffa68" style="stroke:#333333;stroke-width:0.8;"/>
      </defs>
      <g>
       <use style="fill:#333333;stroke:#333333;stroke-width:0.8;" x="94.977188" xlink:href="#mabe42ffa68" y="459.078281"/>
      </g>
     </g>
     <g id="text_1">
      <!-- −4 -->
      <defs>
       <path d="M 10.59375 36.921875 
L 73.1875 36.921875 
L 73.1875 25.6875 
L 10.59375 25.6875 
z
" id="DejaVuSerif-Bold-2212"/>
       <path d="M 63.8125 0 
L 23.6875 0 
L 23.6875 5.90625 
L 34.515625 5.90625 
L 34.515625 19.1875 
L 4.109375 19.1875 
L 4.109375 24.8125 
L 34.625 74.21875 
L 52.984375 74.21875 
L 52.984375 25.484375 
L 65.484375 25.484375 
L 65.484375 19.1875 
L 52.984375 19.1875 
L 52.984375 5.90625 
L 63.8125 5.90625 
z
M 34.515625 25.484375 
L 34.515625 60.890625 
L 12.796875 25.484375 
z
" id="DejaVuSerif-Bold-34"/>
      </defs>
      <g style="fill:#333333;" transform="translate(78.105938 479.294844)scale(0.22 -0.22)">
       <use xlink:href="#DejaVuSerif-Bold-2212"/>
       <use x="83.789062" xlink:href="#DejaVuSerif-Bold-34"/>
      </g>
     </g>
    </g>
    <g id="xtick_2">
     <g id="line2d_2">
      <g>
       <use style="fill:#333333;stroke:#333333;stroke-width:0.8;" x="206.577188" xlink:href="#mabe42ffa68" y="459.078281"/>
      </g>
     </g>
     <g id="text_2">
      <!-- −3 -->
      <defs>
       <path d="M 8.59375 70.796875 
Q 15.046875 72.515625 21.09375 73.359375 
Q 27.15625 74.21875 32.90625 74.21875 
Q 46.09375 74.21875 53.140625 69.5 
Q 60.203125 64.796875 60.203125 56 
Q 60.203125 49.421875 56.140625 45.3125 
Q 52.09375 41.21875 44.28125 39.796875 
Q 53.8125 38.28125 58.5 33.296875 
Q 63.1875 28.328125 63.1875 19.671875 
Q 63.1875 9.46875 55.09375 4.015625 
Q 47.015625 -1.421875 31.6875 -1.421875 
Q 25.921875 -1.421875 19.796875 -0.4375 
Q 13.671875 0.53125 6.984375 2.484375 
L 6.984375 18.5 
L 12.890625 18.5 
Q 13.421875 11.578125 17.234375 7.9375 
Q 21.046875 4.296875 27.78125 4.296875 
Q 35.203125 4.296875 39.25 8.421875 
Q 43.3125 12.546875 43.3125 20.125 
Q 43.3125 28.03125 39.078125 32.328125 
Q 34.859375 36.625 27.09375 36.625 
L 23.875 36.625 
L 23.875 42.484375 
L 26.421875 42.484375 
Q 33.59375 42.484375 37.203125 45.796875 
Q 40.828125 49.125 40.828125 55.71875 
Q 40.828125 61.921875 37.421875 65.203125 
Q 34.03125 68.5 27.6875 68.5 
Q 21.921875 68.5 18.546875 65.34375 
Q 15.1875 62.203125 14.5 56.203125 
L 8.59375 56.203125 
z
" id="DejaVuSerif-Bold-33"/>
      </defs>
      <g style="fill:#333333;" transform="translate(189.705938 479.294844)scale(0.22 -0.22)">
       <use xlink:href="#DejaVuSerif-Bold-2212"/>
       <use x="83.789062" xlink:href="#DejaVuSerif-Bold-33"/>
      </g>
     </g>
    </g>
    <g id="xtick_3">
     <g id="line2d_3">
      <g>
       <use style="fill:#333333;stroke:#333333;stroke-width:0.8;" x="318.177188" xlink:href="#mabe42ffa68" y="459.078281"/>
      </g>
     </g>
     <g id="text_3">
      <!-- −2 -->
      <defs>
       <path d="M 13.1875 54.890625 
L 7.328125 54.890625 
L 7.328125 70.609375 
Q 13.28125 72.40625 19.109375 73.3125 
Q 24.953125 74.21875 30.90625 74.21875 
Q 44.828125 74.21875 52.609375 68.53125 
Q 60.40625 62.84375 60.40625 52.6875 
Q 60.40625 45.453125 56.109375 39.71875 
Q 51.8125 33.984375 39.703125 26.125 
L 19.390625 12.796875 
L 53.90625 12.796875 
L 53.90625 21.390625 
L 60.59375 21.390625 
L 60.59375 0 
L 6.6875 0 
L 6.6875 11.921875 
L 17.484375 19.390625 
Q 31.296875 28.90625 35.890625 35.59375 
Q 40.484375 42.28125 40.484375 51.21875 
Q 40.484375 59.671875 36.984375 64.078125 
Q 33.5 68.5 26.8125 68.5 
Q 21.046875 68.5 17.578125 65.015625 
Q 14.109375 61.53125 13.1875 54.890625 
z
" id="DejaVuSerif-Bold-32"/>
      </defs>
      <g style="fill:#333333;" transform="translate(301.305938 479.294844)scale(0.22 -0.22)">
       <use xlink:href="#DejaVuSerif-Bold-2212"/>
       <use x="83.789062" xlink:href="#DejaVuSerif-Bold-32"/>
      </g>
     </g>
    </g>
    <g id="xtick_4">
     <g id="line2d_4">
      <g>
       <use style="fill:#333333;stroke:#333333;stroke-width:0.8;" x="429.777188" xlink:href="#mabe42ffa68" y="459.078281"/>
      </g>
     </g>
     <g id="text_4">
      <!-- −1 -->
      <defs>
       <path d="M 13.71875 0 
L 13.71875 5.90625 
L 27.390625 5.90625 
L 27.390625 64.890625 
L 12.203125 55.90625 
L 12.203125 63.1875 
L 30.515625 74.21875 
L 45.90625 74.21875 
L 45.90625 5.90625 
L 59.625 5.90625 
L 59.625 0 
z
" id="DejaVuSerif-Bold-31"/>
      </defs>
      <g style="fill:#333333;" transform="translate(412.905938 479.294844)scale(0.22 -0.22)">
       <use xlink:href="#DejaVuSerif-Bold-2212"/>
       <use x="83.789062" xlink:href="#DejaVuSerif-Bold-31"/>
      </g>
     </g>
    </g>
    <g id="xtick_5">
     <g id="line2d_5">
      <g>
       <use style="fill:#333333;stroke:#333333;stroke-width:0.8;" x="541.377188" xlink:href="#mabe42ffa68" y="459.078281"/>
      </g>
     </g>
     <g id="text_5">
      <!-- 0 -->
      <defs>
       <path d="M 34.8125 4.296875 
Q 40.671875 4.296875 42.84375 9.609375 
Q 45.015625 14.9375 45.015625 36.375 
Q 45.015625 57.671875 42.84375 63.078125 
Q 40.671875 68.5 34.8125 68.5 
Q 28.953125 68.5 26.78125 63.171875 
Q 24.609375 57.859375 24.609375 36.375 
Q 24.609375 14.9375 26.78125 9.609375 
Q 28.953125 4.296875 34.8125 4.296875 
z
M 34.8125 -1.421875 
Q 20.21875 -1.421875 12.453125 8.3125 
Q 4.6875 18.0625 4.6875 36.375 
Q 4.6875 54.6875 12.453125 64.453125 
Q 20.21875 74.21875 34.8125 74.21875 
Q 49.359375 74.21875 57.125 64.453125 
Q 64.890625 54.6875 64.890625 36.375 
Q 64.890625 18.0625 57.125 8.3125 
Q 49.359375 -1.421875 34.8125 -1.421875 
z
" id="DejaVuSerif-Bold-30"/>
      </defs>
      <g style="fill:#333333;" transform="translate(533.723594 479.294844)scale(0.22 -0.22)">
       <use xlink:href="#DejaVuSerif-Bold-30"/>
      </g>
     </g>
    </g>
    <g id="text_6">
     <!-- Log[a/pc] -->
     <defs>
      <path d="M 4.6875 0 
L 4.6875 5.90625 
L 14.015625 5.90625 
L 14.015625 67 
L 4.6875 67 
L 4.6875 72.90625 
L 42.1875 72.90625 
L 42.1875 67 
L 32.8125 67 
L 32.8125 6.6875 
L 61.53125 6.6875 
L 61.53125 18.21875 
L 68.109375 18.21875 
L 68.109375 0 
z
" id="DejaVuSerif-Bold-4c"/>
      <path d="M 33.40625 4.109375 
Q 38.875 4.109375 41.09375 8.796875 
Q 43.3125 13.484375 43.3125 25.984375 
Q 43.3125 38.484375 41.109375 43.140625 
Q 38.921875 47.796875 33.40625 47.796875 
Q 27.875 47.796875 25.625 43.078125 
Q 23.390625 38.375 23.390625 25.984375 
Q 23.390625 13.578125 25.625 8.84375 
Q 27.875 4.109375 33.40625 4.109375 
z
M 33.40625 -1.421875 
Q 19.671875 -1.421875 11.890625 5.875 
Q 4.109375 13.1875 4.109375 25.984375 
Q 4.109375 38.8125 11.890625 46.0625 
Q 19.671875 53.328125 33.40625 53.328125 
Q 47.171875 53.328125 54.9375 46.0625 
Q 62.703125 38.8125 62.703125 25.984375 
Q 62.703125 13.1875 54.90625 5.875 
Q 47.125 -1.421875 33.40625 -1.421875 
z
" id="DejaVuSerif-Bold-6f"/>
      <path d="M 60.203125 46 
L 60.203125 0.6875 
Q 60.203125 -10.25 52.40625 -16.234375 
Q 44.625 -22.21875 30.421875 -22.21875 
Q 25.25 -22.21875 19.921875 -21.40625 
Q 14.59375 -20.609375 8.984375 -19 
L 8.984375 -6.59375 
L 14.5 -6.59375 
Q 15.234375 -11.71875 18.625 -14.203125 
Q 22.015625 -16.703125 28.328125 -16.703125 
Q 36.328125 -16.703125 39.625 -12.859375 
Q 42.921875 -9.03125 42.921875 0.6875 
L 42.921875 6.59375 
Q 40.71875 2.546875 36.984375 0.5625 
Q 33.25 -1.421875 27.78125 -1.421875 
Q 16.75 -1.421875 10.421875 5.90625 
Q 4.109375 13.234375 4.109375 25.984375 
Q 4.109375 38.765625 10.421875 46.046875 
Q 16.75 53.328125 27.78125 53.328125 
Q 33.25 53.328125 36.984375 51.34375 
Q 40.71875 49.359375 42.921875 45.3125 
L 42.921875 51.90625 
L 67.578125 51.90625 
L 67.578125 46 
z
M 42.921875 28.515625 
Q 42.921875 37.59375 40.578125 41.640625 
Q 38.234375 45.703125 33.109375 45.703125 
Q 27.734375 45.703125 25.5625 41.421875 
Q 23.390625 37.15625 23.390625 25.984375 
Q 23.390625 14.796875 25.578125 10.5 
Q 27.78125 6.203125 33.109375 6.203125 
Q 38.234375 6.203125 40.578125 10.25 
Q 42.921875 14.3125 42.921875 23.390625 
z
" id="DejaVuSerif-Bold-67"/>
      <path d="M 12.5 75.984375 
L 40.1875 75.984375 
L 40.1875 70.125 
L 29.78125 70.125 
L 29.78125 -7.328125 
L 40.1875 -7.328125 
L 40.1875 -13.1875 
L 12.5 -13.1875 
z
" id="DejaVuSerif-Bold-5b"/>
      <path d="M 55.078125 31.890625 
L 55.078125 5.90625 
L 62.5 5.90625 
L 62.5 0 
L 37.796875 0 
L 37.796875 6.59375 
Q 34.375 2.484375 30.171875 0.53125 
Q 25.984375 -1.421875 20.609375 -1.421875 
Q 12.640625 -1.421875 8.375 2.84375 
Q 4.109375 7.125 4.109375 15.09375 
Q 4.109375 23.828125 10.234375 28.171875 
Q 16.359375 32.515625 28.71875 32.515625 
L 37.796875 32.515625 
L 37.796875 35.59375 
Q 37.796875 41.890625 34.8125 44.890625 
Q 31.84375 47.90625 25.59375 47.90625 
Q 20.40625 47.90625 17.59375 45.78125 
Q 14.796875 43.65625 13.625 38.8125 
L 8.109375 38.8125 
L 8.109375 50 
Q 12.75 51.65625 17.71875 52.484375 
Q 22.703125 53.328125 28.21875 53.328125 
Q 42.140625 53.328125 48.609375 48.140625 
Q 55.078125 42.96875 55.078125 31.890625 
z
M 37.796875 16.3125 
L 37.796875 26.703125 
L 31.296875 26.703125 
Q 26.46875 26.703125 23.875 24.0625 
Q 21.296875 21.4375 21.296875 16.5 
Q 21.296875 11.578125 23.171875 9.125 
Q 25.046875 6.6875 28.90625 6.6875 
Q 32.90625 6.6875 35.34375 9.328125 
Q 37.796875 11.96875 37.796875 16.3125 
z
" id="DejaVuSerif-Bold-61"/>
      <path d="M 25.6875 72.90625 
L 36.53125 72.90625 
L 10.796875 -9.28125 
L 0 -9.28125 
z
" id="DejaVuSerif-Bold-2f"/>
      <path d="M 27 28.515625 
L 27 23.390625 
Q 27 14.3125 29.3125 10.25 
Q 31.640625 6.203125 36.8125 6.203125 
Q 42.140625 6.203125 44.3125 10.5 
Q 46.484375 14.796875 46.484375 25.984375 
Q 46.484375 37.15625 44.3125 41.421875 
Q 42.140625 45.703125 36.8125 45.703125 
Q 31.640625 45.703125 29.3125 41.640625 
Q 27 37.59375 27 28.515625 
z
M 9.71875 46 
L 2.296875 46 
L 2.296875 51.90625 
L 27 51.90625 
L 27 45.3125 
Q 29.203125 49.359375 32.90625 51.34375 
Q 36.625 53.328125 42.09375 53.328125 
Q 53.171875 53.328125 59.546875 46.015625 
Q 65.921875 38.71875 65.921875 25.984375 
Q 65.921875 13.234375 59.546875 5.90625 
Q 53.171875 -1.421875 42.09375 -1.421875 
Q 36.625 -1.421875 32.90625 0.5625 
Q 29.203125 2.546875 27 6.59375 
L 27 -14.890625 
L 35.015625 -14.890625 
L 35.015625 -20.796875 
L 2.296875 -20.796875 
L 2.296875 -14.890625 
L 9.71875 -14.890625 
z
" id="DejaVuSerif-Bold-70"/>
      <path d="M 56.390625 16.21875 
Q 54.546875 7.328125 48.796875 2.953125 
Q 43.0625 -1.421875 33.203125 -1.421875 
Q 19.34375 -1.421875 11.71875 5.75 
Q 4.109375 12.9375 4.109375 25.984375 
Q 4.109375 38.875 11.625 46.09375 
Q 19.140625 53.328125 32.515625 53.328125 
Q 37.9375 53.328125 43.453125 52.296875 
Q 48.96875 51.265625 54.6875 49.21875 
L 54.6875 34.8125 
L 49.21875 34.8125 
Q 48.4375 41.40625 45.359375 44.59375 
Q 42.28125 47.796875 36.71875 47.796875 
Q 29.5 47.796875 26.4375 42.90625 
Q 23.390625 38.03125 23.390625 25.984375 
Q 23.390625 14.203125 26.359375 9.15625 
Q 29.34375 4.109375 36.078125 4.109375 
Q 41.3125 4.109375 44.453125 7.234375 
Q 47.609375 10.359375 48.296875 16.21875 
z
" id="DejaVuSerif-Bold-63"/>
      <path d="M 34.8125 75.984375 
L 34.8125 -13.1875 
L 7.078125 -13.1875 
L 7.078125 -7.328125 
L 17.484375 -7.328125 
L 17.484375 70.125 
L 7.078125 70.125 
L 7.078125 75.984375 
z
" id="DejaVuSerif-Bold-5d"/>
     </defs>
     <g transform="translate(254.132813 506.106406)scale(0.24 -0.24)">
      <use xlink:href="#DejaVuSerif-Bold-4c"/>
      <use x="70.3125" xlink:href="#DejaVuSerif-Bold-6f"/>
      <use x="137.011719" xlink:href="#DejaVuSerif-Bold-67"/>
      <use x="206.933594" xlink:href="#DejaVuSerif-Bold-5b"/>
      <use x="254.248047" xlink:href="#DejaVuSerif-Bold-61"/>
      <use x="319.042969" xlink:href="#DejaVuSerif-Bold-2f"/>
      <use x="355.566406" xlink:href="#DejaVuSerif-Bold-70"/>
      <use x="425.488281" xlink:href="#DejaVuSerif-Bold-63"/>
      <use x="486.376953" xlink:href="#DejaVuSerif-Bold-5d"/>
     </g>
    </g>
   </g>
   <g id="matplotlib.axis_2">
    <g id="ytick_1">
     <g id="line2d_6">
      <defs>
       <path d="M 0 0 
L 6 0 
" id="ma7b242982f" style="stroke:#333333;stroke-width:0.8;"/>
      </defs>
      <g>
       <use style="fill:#333333;stroke:#333333;stroke-width:0.8;" x="94.977187" xlink:href="#ma7b242982f" y="459.078281"/>
      </g>
     </g>
     <g id="text_7">
      <!-- −3.0 -->
      <defs>
       <path d="M 8.109375 7.90625 
Q 8.109375 11.71875 10.84375 14.453125 
Q 13.578125 17.1875 17.390625 17.1875 
Q 21.234375 17.1875 23.96875 14.453125 
Q 26.703125 11.71875 26.703125 7.90625 
Q 26.703125 4.046875 23.96875 1.3125 
Q 21.234375 -1.421875 17.390625 -1.421875 
Q 13.578125 -1.421875 10.84375 1.3125 
Q 8.109375 4.046875 8.109375 7.90625 
z
" id="DejaVuSerif-Bold-2e"/>
      </defs>
      <g style="fill:#333333;" transform="translate(34.76875 467.436563)scale(0.22 -0.22)">
       <use xlink:href="#DejaVuSerif-Bold-2212"/>
       <use x="83.789062" xlink:href="#DejaVuSerif-Bold-33"/>
       <use x="153.369141" xlink:href="#DejaVuSerif-Bold-2e"/>
       <use x="188.183594" xlink:href="#DejaVuSerif-Bold-30"/>
      </g>
     </g>
    </g>
    <g id="ytick_2">
     <g id="line2d_7">
      <g>
       <use style="fill:#333333;stroke:#333333;stroke-width:0.8;" x="94.977187" xlink:href="#ma7b242982f" y="395.718281"/>
      </g>
     </g>
     <g id="text_8">
      <!-- −2.8 -->
      <defs>
       <path d="M 46.484375 38.8125 
Q 55.171875 37.40625 59.6875 32.421875 
Q 64.203125 27.4375 64.203125 19.390625 
Q 64.203125 9.328125 56.609375 3.953125 
Q 49.03125 -1.421875 34.71875 -1.421875 
Q 20.40625 -1.421875 12.78125 3.953125 
Q 5.171875 9.328125 5.171875 19.390625 
Q 5.171875 27.4375 9.71875 32.421875 
Q 14.265625 37.40625 22.90625 38.8125 
Q 15.234375 40.578125 11.421875 44.703125 
Q 7.625 48.828125 7.625 55.171875 
Q 7.625 64.453125 14.546875 69.328125 
Q 21.484375 74.21875 34.71875 74.21875 
Q 47.90625 74.21875 54.859375 69.328125 
Q 61.8125 64.453125 61.8125 55.171875 
Q 61.8125 48.828125 57.984375 44.703125 
Q 54.15625 40.578125 46.484375 38.8125 
z
M 42.921875 54.984375 
Q 42.921875 62.703125 41.0625 65.59375 
Q 39.203125 68.5 34.71875 68.5 
Q 30.171875 68.5 28.34375 65.59375 
Q 26.515625 62.703125 26.515625 54.984375 
Q 26.515625 47.3125 28.34375 44.453125 
Q 30.171875 41.609375 34.71875 41.609375 
Q 39.265625 41.609375 41.09375 44.453125 
Q 42.921875 47.3125 42.921875 54.984375 
z
M 44.828125 20.21875 
Q 44.828125 29.15625 42.546875 32.515625 
Q 40.28125 35.890625 34.71875 35.890625 
Q 29.109375 35.890625 26.859375 32.515625 
Q 24.609375 29.15625 24.609375 20.21875 
Q 24.609375 11.1875 26.875 7.734375 
Q 29.15625 4.296875 34.71875 4.296875 
Q 40.234375 4.296875 42.53125 7.734375 
Q 44.828125 11.1875 44.828125 20.21875 
z
" id="DejaVuSerif-Bold-38"/>
      </defs>
      <g style="fill:#333333;" transform="translate(34.76875 404.076563)scale(0.22 -0.22)">
       <use xlink:href="#DejaVuSerif-Bold-2212"/>
       <use x="83.789062" xlink:href="#DejaVuSerif-Bold-32"/>
       <use x="153.369141" xlink:href="#DejaVuSerif-Bold-2e"/>
       <use x="188.183594" xlink:href="#DejaVuSerif-Bold-38"/>
      </g>
     </g>
    </g>
    <g id="ytick_3">
     <g id="line2d_8">
      <g>
       <use style="fill:#333333;stroke:#333333;stroke-width:0.8;" x="94.977187" xlink:href="#ma7b242982f" y="332.358281"/>
      </g>
     </g>
     <g id="text_9">
      <!-- −2.6 -->
      <defs>
       <path d="M 24.609375 43.21875 
Q 27.78125 45.75 31.703125 47.015625 
Q 35.640625 48.296875 40.28125 48.296875 
Q 51.46875 48.296875 57.828125 41.75 
Q 64.203125 35.203125 64.203125 23.78125 
Q 64.203125 11.71875 57.03125 5.140625 
Q 49.859375 -1.421875 36.625 -1.421875 
Q 21.6875 -1.421875 13.984375 7.59375 
Q 6.296875 16.609375 6.296875 34.078125 
Q 6.296875 53.953125 14.84375 64.078125 
Q 23.390625 74.21875 40.1875 74.21875 
Q 44.578125 74.21875 49.609375 73.484375 
Q 54.640625 72.75 60.40625 71.296875 
L 60.40625 58.40625 
L 54.5 58.40625 
Q 53.265625 63.375 49.875 65.9375 
Q 46.484375 68.5 41.109375 68.5 
Q 32.421875 68.5 28.53125 62.546875 
Q 24.65625 56.59375 24.609375 43.21875 
z
M 35.5 4.296875 
Q 40.53125 4.296875 42.671875 8.5625 
Q 44.828125 12.84375 44.828125 23.390625 
Q 44.828125 33.9375 42.671875 38.203125 
Q 40.53125 42.484375 35.5 42.484375 
Q 30.46875 42.484375 28.34375 38.203125 
Q 26.21875 33.9375 26.21875 23.390625 
Q 26.21875 12.84375 28.34375 8.5625 
Q 30.46875 4.296875 35.5 4.296875 
z
" id="DejaVuSerif-Bold-36"/>
      </defs>
      <g style="fill:#333333;" transform="translate(34.76875 340.716563)scale(0.22 -0.22)">
       <use xlink:href="#DejaVuSerif-Bold-2212"/>
       <use x="83.789062" xlink:href="#DejaVuSerif-Bold-32"/>
       <use x="153.369141" xlink:href="#DejaVuSerif-Bold-2e"/>
       <use x="188.183594" xlink:href="#DejaVuSerif-Bold-36"/>
      </g>
     </g>
    </g>
    <g id="ytick_4">
     <g id="line2d_9">
      <g>
       <use style="fill:#333333;stroke:#333333;stroke-width:0.8;" x="94.977187" xlink:href="#ma7b242982f" y="268.998281"/>
      </g>
     </g>
     <g id="text_10">
      <!-- −2.4 -->
      <g style="fill:#333333;" transform="translate(34.76875 277.356563)scale(0.22 -0.22)">
       <use xlink:href="#DejaVuSerif-Bold-2212"/>
       <use x="83.789062" xlink:href="#DejaVuSerif-Bold-32"/>
       <use x="153.369141" xlink:href="#DejaVuSerif-Bold-2e"/>
       <use x="188.183594" xlink:href="#DejaVuSerif-Bold-34"/>
      </g>
     </g>
    </g>
    <g id="ytick_5">
     <g id="line2d_10">
      <g>
       <use style="fill:#333333;stroke:#333333;stroke-width:0.8;" x="94.977187" xlink:href="#ma7b242982f" y="205.638281"/>
      </g>
     </g>
     <g id="text_11">
      <!-- −2.2 -->
      <g style="fill:#333333;" transform="translate(34.76875 213.996563)scale(0.22 -0.22)">
       <use xlink:href="#DejaVuSerif-Bold-2212"/>
       <use x="83.789062" xlink:href="#DejaVuSerif-Bold-32"/>
       <use x="153.369141" xlink:href="#DejaVuSerif-Bold-2e"/>
       <use x="188.183594" xlink:href="#DejaVuSerif-Bold-32"/>
      </g>
     </g>
    </g>
    <g id="ytick_6">
     <g id="line2d_11">
      <g>
       <use style="fill:#333333;stroke:#333333;stroke-width:0.8;" x="94.977187" xlink:href="#ma7b242982f" y="142.278281"/>
      </g>
     </g>
     <g id="text_12">
      <!-- −2.0 -->
      <g style="fill:#333333;" transform="translate(34.76875 150.636563)scale(0.22 -0.22)">
       <use xlink:href="#DejaVuSerif-Bold-2212"/>
       <use x="83.789062" xlink:href="#DejaVuSerif-Bold-32"/>
       <use x="153.369141" xlink:href="#DejaVuSerif-Bold-2e"/>
       <use x="188.183594" xlink:href="#DejaVuSerif-Bold-30"/>
      </g>
     </g>
    </g>
    <g id="ytick_7">
     <g id="line2d_12">
      <g>
       <use style="fill:#333333;stroke:#333333;stroke-width:0.8;" x="94.977187" xlink:href="#ma7b242982f" y="78.918281"/>
      </g>
     </g>
     <g id="text_13">
      <!-- −1.8 -->
      <g style="fill:#333333;" transform="translate(34.76875 87.276563)scale(0.22 -0.22)">
       <use xlink:href="#DejaVuSerif-Bold-2212"/>
       <use x="83.789062" xlink:href="#DejaVuSerif-Bold-31"/>
       <use x="153.369141" xlink:href="#DejaVuSerif-Bold-2e"/>
       <use x="188.183594" xlink:href="#DejaVuSerif-Bold-38"/>
      </g>
     </g>
    </g>
    <g id="ytick_8">
     <g id="line2d_13">
      <g>
       <use style="fill:#333333;stroke:#333333;stroke-width:0.8;" x="94.977187" xlink:href="#ma7b242982f" y="15.558281"/>
      </g>
     </g>
     <g id="text_14">
      <!-- −1.6 -->
      <g style="fill:#333333;" transform="translate(34.76875 23.916563)scale(0.22 -0.22)">
       <use xlink:href="#DejaVuSerif-Bold-2212"/>
       <use x="83.789062" xlink:href="#DejaVuSerif-Bold-31"/>
       <use x="153.369141" xlink:href="#DejaVuSerif-Bold-2e"/>
       <use x="188.183594" xlink:href="#DejaVuSerif-Bold-36"/>
      </g>
     </g>
    </g>
    <g id="text_15">
     <!-- Log[1-e] -->
     <defs>
      <path d="M 5.421875 33.40625 
L 36.078125 33.40625 
L 36.078125 20.21875 
L 5.421875 20.21875 
z
" id="DejaVuSerif-Bold-2d"/>
      <path d="M 40.09375 29.296875 
Q 40.09375 39.546875 38.1875 43.671875 
Q 36.28125 47.796875 31.6875 47.796875 
Q 27.25 47.796875 25.3125 43.75 
Q 23.390625 39.703125 23.390625 30.171875 
L 23.390625 29.296875 
z
M 59.078125 23.484375 
L 23.390625 23.484375 
L 23.390625 23.09375 
Q 23.390625 13.03125 26.40625 8.5625 
Q 29.4375 4.109375 36.1875 4.109375 
Q 41.796875 4.109375 45.265625 7.078125 
Q 48.734375 10.0625 49.703125 15.71875 
L 57.8125 15.71875 
Q 55.71875 6.890625 49.46875 2.734375 
Q 43.21875 -1.421875 31.984375 -1.421875 
Q 18.5 -1.421875 11.296875 5.6875 
Q 4.109375 12.796875 4.109375 25.984375 
Q 4.109375 38.875 11.46875 46.09375 
Q 18.84375 53.328125 31.984375 53.328125 
Q 44.875 53.328125 51.75 45.734375 
Q 58.640625 38.140625 59.078125 23.484375 
z
" id="DejaVuSerif-Bold-65"/>
     </defs>
     <g transform="translate(25.43625 294.470156)rotate(-90)scale(0.24 -0.24)">
      <use xlink:href="#DejaVuSerif-Bold-4c"/>
      <use x="70.3125" xlink:href="#DejaVuSerif-Bold-6f"/>
      <use x="137.011719" xlink:href="#DejaVuSerif-Bold-67"/>
      <use x="206.933594" xlink:href="#DejaVuSerif-Bold-5b"/>
      <use x="254.248047" xlink:href="#DejaVuSerif-Bold-31"/>
      <use x="323.828125" xlink:href="#DejaVuSerif-Bold-2d"/>
      <use x="365.332031" xlink:href="#DejaVuSerif-Bold-65"/>
      <use x="428.955078" xlink:href="#DejaVuSerif-Bold-5d"/>
     </g>
    </g>
   </g>
   <g id="patch_3">
    <path d="M 94.977187 459.078281 
L 94.977187 15.558281 
" style="fill:none;stroke:#333333;stroke-linecap:square;stroke-linejoin:miter;stroke-width:0.8;"/>
   </g>
   <g id="patch_4">
    <path d="M 541.377188 459.078281 
L 541.377188 15.558281 
" style="fill:none;stroke:#333333;stroke-linecap:square;stroke-linejoin:miter;stroke-width:0.8;"/>
   </g>
   <g id="patch_5">
    <path d="M 94.977188 459.078281 
L 541.377188 459.078281 
" style="fill:none;stroke:#333333;stroke-linecap:square;stroke-linejoin:miter;stroke-width:0.8;"/>
   </g>
   <g id="patch_6">
    <path d="M 94.977188 15.558281 
L 541.377188 15.558281 
" style="fill:none;stroke:#333333;stroke-linecap:square;stroke-linejoin:miter;stroke-width:0.8;"/>
   </g>
   <g id="text_16">
    <!-- $M_{bh}=4\times 10^6 M_{\odot}$ -->
    <defs>
     <path d="M 4.203125 0 
L 4.203125 5.90625 
L 13.484375 5.90625 
L 13.484375 67 
L 4.203125 67 
L 4.203125 72.90625 
L 34.28125 72.90625 
L 55.078125 26.125 
L 75.984375 72.90625 
L 106 72.90625 
L 106 67 
L 96.6875 67 
L 96.6875 5.90625 
L 106 5.90625 
L 106 0 
L 68.5 0 
L 68.5 5.90625 
L 77.78125 5.90625 
L 77.78125 61.53125 
L 55.171875 10.6875 
L 42.828125 10.6875 
L 20.3125 61.53125 
L 20.3125 5.90625 
L 29.59375 5.90625 
L 29.59375 0 
z
" id="DejaVuSerif-Bold-4d"/>
     <path d="M 9.71875 5.90625 
L 9.71875 70.125 
L 2.296875 70.125 
L 2.296875 75.984375 
L 27 75.984375 
L 27 45.3125 
Q 29.203125 49.359375 32.90625 51.34375 
Q 36.625 53.328125 42.09375 53.328125 
Q 53.171875 53.328125 59.546875 46.015625 
Q 65.921875 38.71875 65.921875 25.984375 
Q 65.921875 13.234375 59.546875 5.90625 
Q 53.171875 -1.421875 42.09375 -1.421875 
Q 36.625 -1.421875 32.90625 0.5625 
Q 29.203125 2.546875 27 6.59375 
L 27 0 
L 2.296875 0 
L 2.296875 5.90625 
z
M 27 23.390625 
Q 27 14.3125 29.3125 10.25 
Q 31.640625 6.203125 36.8125 6.203125 
Q 42.140625 6.203125 44.3125 10.5 
Q 46.484375 14.796875 46.484375 25.984375 
Q 46.484375 37.15625 44.3125 41.421875 
Q 42.140625 45.703125 36.8125 45.703125 
Q 31.640625 45.703125 29.3125 41.640625 
Q 27 37.59375 27 28.515625 
z
" id="DejaVuSerif-Bold-62"/>
     <path d="M 3.421875 0 
L 3.421875 5.90625 
L 10.796875 5.90625 
L 10.796875 70.125 
L 3.078125 70.125 
L 3.078125 75.984375 
L 28.078125 75.984375 
L 28.078125 44.578125 
Q 31.203125 49.21875 35.203125 51.265625 
Q 39.203125 53.328125 45.3125 53.328125 
Q 54.046875 53.328125 58.515625 48.171875 
Q 62.984375 43.015625 62.984375 33.015625 
L 62.984375 5.90625 
L 70.40625 5.90625 
L 70.40625 0 
L 39.40625 0 
L 39.40625 5.90625 
L 45.703125 5.90625 
L 45.703125 33.5 
Q 45.703125 40.09375 44.015625 42.65625 
Q 42.328125 45.21875 38.1875 45.21875 
Q 32.953125 45.21875 30.515625 41.375 
Q 28.078125 37.546875 28.078125 29.203125 
L 28.078125 5.90625 
L 34.421875 5.90625 
L 34.421875 0 
z
" id="DejaVuSerif-Bold-68"/>
     <path d="M 10.59375 25.78125 
L 73.1875 25.78125 
L 73.1875 14.703125 
L 10.59375 14.703125 
z
M 10.59375 48 
L 73.1875 48 
L 73.1875 36.921875 
L 10.59375 36.921875 
z
" id="DejaVuSerif-Bold-3d"/>
     <path d="M 70.90625 52.78125 
L 49.421875 31.296875 
L 70.90625 9.8125 
L 63.375 2.296875 
L 41.890625 23.78125 
L 20.40625 2.296875 
L 12.890625 9.8125 
L 34.421875 31.296875 
L 12.890625 52.78125 
L 20.40625 60.40625 
L 41.890625 38.921875 
L 63.375 60.40625 
z
" id="DejaVuSerif-Bold-d7"/>
     <path d="M 38.09375 22.125 
Q 32.625 27.546875 32.625 31.34375 
Q 32.625 35.15625 35.359375 37.890625 
Q 38.09375 40.625 41.890625 40.625 
Q 45.75 40.625 48.484375 37.890625 
Q 51.21875 35.15625 51.21875 31.34375 
Q 51.21875 27.546875 48.484375 24.828125 
Q 45.75 22.125 41.890625 22.125 
Q 38.09375 22.125 32.625 27.546875 
z
M 27.203125 46.046875 
Q 21.78125 36.765625 21.78125 31.34375 
Q 21.78125 25.921875 24.484375 21.28125 
Q 27.203125 16.65625 31.828125 13.9375 
Q 36.46875 11.234375 41.890625 11.234375 
Q 47.3125 11.234375 51.953125 13.9375 
Q 56.59375 16.65625 59.296875 21.28125 
Q 62.015625 25.921875 62.015625 31.34375 
Q 62.015625 36.765625 59.296875 41.40625 
Q 56.59375 46.046875 51.953125 48.75 
Q 47.3125 51.46875 41.890625 51.46875 
Q 36.46875 51.46875 31.828125 48.75 
Q 27.203125 46.046875 21.78125 36.765625 
z
M 18.953125 8.40625 
Q 10.546875 22.859375 10.546875 31.34375 
Q 10.546875 39.84375 14.75 47.0625 
Q 18.953125 54.296875 26.171875 58.5 
Q 33.40625 62.703125 41.890625 62.703125 
Q 50.390625 62.703125 57.609375 58.5 
Q 64.84375 54.296875 69.046875 47.0625 
Q 73.25 39.84375 73.25 31.34375 
Q 73.25 22.859375 69.046875 15.625 
Q 64.84375 8.40625 57.609375 4.203125 
Q 50.390625 0 41.890625 0 
Q 33.40625 0 26.171875 4.203125 
Q 18.953125 8.40625 10.546875 22.859375 
z
" id="DejaVuSerif-Bold-2299"/>
    </defs>
    <g style="fill:#ffffff;" transform="translate(106.137188 37.470969)scale(0.22 -0.22)">
     <use transform="translate(0 0.7125)" xlink:href="#DejaVuSerif-Bold-4d"/>
     <use transform="translate(111.601719 -14.859375)scale(0.7)" xlink:href="#DejaVuSerif-Bold-62"/>
     <use transform="translate(160.547031 -14.859375)scale(0.7)" xlink:href="#DejaVuSerif-Bold-68"/>
     <use transform="translate(235.198008 0.7125)" xlink:href="#DejaVuSerif-Bold-3d"/>
     <use transform="translate(340.14918 0.7125)" xlink:href="#DejaVuSerif-Bold-34"/>
     <use transform="translate(430.891367 0.7125)" xlink:href="#DejaVuSerif-Bold-d7"/>
     <use transform="translate(535.842539 0.7125)" xlink:href="#DejaVuSerif-Bold-31"/>
     <use transform="translate(605.422617 0.7125)" xlink:href="#DejaVuSerif-Bold-30"/>
     <use transform="translate(675.911055 37.046875)scale(0.7)" xlink:href="#DejaVuSerif-Bold-36"/>
     <use transform="translate(727.212422 0.7125)" xlink:href="#DejaVuSerif-Bold-4d"/>
     <use transform="translate(838.814141 -14.859375)scale(0.7)" xlink:href="#DejaVuSerif-Bold-2299"/>
    </g>
    <!-- $e_{bin}: 0$ -->
    <defs>
     <path d="M 9.1875 66.609375 
Q 9.1875 70.5625 11.921875 73.265625 
Q 14.65625 75.984375 18.609375 75.984375 
Q 22.46875 75.984375 25.171875 73.265625 
Q 27.875 70.5625 27.875 66.609375 
Q 27.875 62.75 25.171875 60.03125 
Q 22.46875 57.328125 18.609375 57.328125 
Q 14.65625 57.328125 11.921875 60.015625 
Q 9.1875 62.703125 9.1875 66.609375 
z
M 28.078125 5.90625 
L 35.5 5.90625 
L 35.5 0 
L 3.421875 0 
L 3.421875 5.90625 
L 10.796875 5.90625 
L 10.796875 46 
L 3.421875 46 
L 3.421875 51.90625 
L 28.078125 51.90625 
z
" id="DejaVuSerif-Bold-69"/>
     <path d="M 3.421875 0 
L 3.421875 5.90625 
L 10.796875 5.90625 
L 10.796875 46 
L 3.421875 46 
L 3.421875 51.90625 
L 28.078125 51.90625 
L 28.078125 44.578125 
Q 31.203125 49.21875 35.203125 51.265625 
Q 39.203125 53.328125 45.3125 53.328125 
Q 54.046875 53.328125 58.515625 48.171875 
Q 62.984375 43.015625 62.984375 33.015625 
L 62.984375 5.90625 
L 70.40625 5.90625 
L 70.40625 0 
L 39.40625 0 
L 39.40625 5.90625 
L 45.703125 5.90625 
L 45.703125 33.5 
Q 45.703125 40.09375 44.015625 42.65625 
Q 42.328125 45.21875 38.1875 45.21875 
Q 32.953125 45.21875 30.515625 41.375 
Q 28.078125 37.546875 28.078125 29.203125 
L 28.078125 5.90625 
L 34.421875 5.90625 
L 34.421875 0 
z
" id="DejaVuSerif-Bold-6e"/>
     <path d="M 9.1875 39.703125 
Q 9.1875 43.5625 11.890625 46.296875 
Q 14.59375 49.03125 18.40625 49.03125 
Q 22.21875 49.03125 24.953125 46.265625 
Q 27.6875 43.5 27.6875 39.703125 
Q 27.6875 35.890625 24.96875 33.203125 
Q 22.265625 30.515625 18.40625 30.515625 
Q 14.546875 30.515625 11.859375 33.203125 
Q 9.1875 35.890625 9.1875 39.703125 
z
M 9.1875 7.90625 
Q 9.1875 11.71875 11.890625 14.453125 
Q 14.59375 17.1875 18.40625 17.1875 
Q 22.21875 17.1875 24.953125 14.453125 
Q 27.6875 11.71875 27.6875 7.90625 
Q 27.6875 4.046875 24.953125 1.3125 
Q 22.21875 -1.421875 18.40625 -1.421875 
Q 14.59375 -1.421875 11.890625 1.3125 
Q 9.1875 4.046875 9.1875 7.90625 
z
" id="DejaVuSerif-Bold-3a"/>
    </defs>
    <g style="fill:#ffffff;" transform="translate(106.137188 62.106156)scale(0.22 -0.22)">
     <use transform="translate(0 0.78125)" xlink:href="#DejaVuSerif-Bold-65"/>
     <use transform="translate(64.531406 -14.790625)scale(0.7)" xlink:href="#DejaVuSerif-Bold-62"/>
     <use transform="translate(113.476719 -14.790625)scale(0.7)" xlink:href="#DejaVuSerif-Bold-69"/>
     <use transform="translate(140.068516 -14.790625)scale(0.7)" xlink:href="#DejaVuSerif-Bold-6e"/>
     <use transform="translate(214.719492 0.78125)" xlink:href="#DejaVuSerif-Bold-3a"/>
     <use transform="translate(272.795664 0.78125)" xlink:href="#DejaVuSerif-Bold-30"/>
    </g>
   </g>
  </g>
  <g id="axes_2">
   <g id="patch_7">
    <path clip-path="url(#p73db0f5d4e)" d="M 569.277188 459.078281 
L 569.277188 403.638281 
L 569.277188 70.998281 
L 569.277188 15.558281 
L 591.453188 15.558281 
L 591.453188 70.998281 
L 591.453188 403.638281 
L 591.453188 459.078281 
z
" style="fill:#ffffff;stroke:#ffffff;stroke-linejoin:miter;stroke-width:0.01;"/>
   </g>
   <g id="QuadMesh_1">
    <path clip-path="url(#p73db0f5d4e)" d="M 569.277188 459.078281 
L 591.453188 459.078281 
L 591.453188 403.638281 
L 569.277188 403.638281 
L 569.277188 459.078281 
" style="fill:#48186a;"/>
    <path clip-path="url(#p73db0f5d4e)" d="M 569.277188 403.638281 
L 591.453188 403.638281 
L 591.453188 348.198281 
L 569.277188 348.198281 
L 569.277188 403.638281 
" style="fill:#424086;"/>
    <path clip-path="url(#p73db0f5d4e)" d="M 569.277188 348.198281 
L 591.453188 348.198281 
L 591.453188 292.758281 
L 569.277188 292.758281 
L 569.277188 348.198281 
" style="fill:#33638d;"/>
    <path clip-path="url(#p73db0f5d4e)" d="M 569.277188 292.758281 
L 591.453188 292.758281 
L 591.453188 237.318281 
L 569.277188 237.318281 
L 569.277188 292.758281 
" style="fill:#26828e;"/>
    <path clip-path="url(#p73db0f5d4e)" d="M 569.277188 237.318281 
L 591.453188 237.318281 
L 591.453188 181.878281 
L 569.277188 181.878281 
L 569.277188 237.318281 
" style="fill:#1fa088;"/>
    <path clip-path="url(#p73db0f5d4e)" d="M 569.277188 181.878281 
L 591.453188 181.878281 
L 591.453188 126.438281 
L 569.277188 126.438281 
L 569.277188 181.878281 
" style="fill:#3fbc73;"/>
    <path clip-path="url(#p73db0f5d4e)" d="M 569.277188 126.438281 
L 591.453188 126.438281 
L 591.453188 70.998281 
L 569.277188 70.998281 
L 569.277188 126.438281 
" style="fill:#84d44b;"/>
    <path clip-path="url(#p73db0f5d4e)" d="M 569.277188 70.998281 
L 591.453188 70.998281 
L 591.453188 15.558281 
L 569.277188 15.558281 
L 569.277188 70.998281 
" style="fill:#d8e219;"/>
   </g>
   <g id="matplotlib.axis_3"/>
   <g id="matplotlib.axis_4">
    <g id="ytick_9">
     <g id="line2d_14">
      <defs>
       <path d="M 0 0 
L -6 0 
" id="m0ea573d100" style="stroke:#333333;stroke-width:0.8;"/>
      </defs>
      <g>
       <use style="fill:#333333;stroke:#333333;stroke-width:0.8;" x="591.453188" xlink:href="#m0ea573d100" y="459.078281"/>
      </g>
     </g>
     <g id="text_17">
      <!-- 0.0 -->
      <g style="fill:#333333;" transform="translate(594.953188 467.436562)scale(0.22 -0.22)">
       <use xlink:href="#DejaVuSerif-Bold-30"/>
       <use x="69.580078" xlink:href="#DejaVuSerif-Bold-2e"/>
       <use x="104.394531" xlink:href="#DejaVuSerif-Bold-30"/>
      </g>
     </g>
    </g>
    <g id="ytick_10">
     <g id="line2d_15">
      <g>
       <use style="fill:#333333;stroke:#333333;stroke-width:0.8;" x="591.453188" xlink:href="#m0ea573d100" y="403.638281"/>
      </g>
     </g>
     <g id="text_18">
      <!-- 0.1 -->
      <g style="fill:#333333;" transform="translate(594.953188 411.996562)scale(0.22 -0.22)">
       <use xlink:href="#DejaVuSerif-Bold-30"/>
       <use x="69.580078" xlink:href="#DejaVuSerif-Bold-2e"/>
       <use x="104.394531" xlink:href="#DejaVuSerif-Bold-31"/>
      </g>
     </g>
    </g>
    <g id="ytick_11">
     <g id="line2d_16">
      <g>
       <use style="fill:#333333;stroke:#333333;stroke-width:0.8;" x="591.453188" xlink:href="#m0ea573d100" y="348.198281"/>
      </g>
     </g>
     <g id="text_19">
      <!-- 0.2 -->
      <g style="fill:#333333;" transform="translate(594.953188 356.556563)scale(0.22 -0.22)">
       <use xlink:href="#DejaVuSerif-Bold-30"/>
       <use x="69.580078" xlink:href="#DejaVuSerif-Bold-2e"/>
       <use x="104.394531" xlink:href="#DejaVuSerif-Bold-32"/>
      </g>
     </g>
    </g>
    <g id="ytick_12">
     <g id="line2d_17">
      <g>
       <use style="fill:#333333;stroke:#333333;stroke-width:0.8;" x="591.453188" xlink:href="#m0ea573d100" y="292.758281"/>
      </g>
     </g>
     <g id="text_20">
      <!-- 0.3 -->
      <g style="fill:#333333;" transform="translate(594.953188 301.116562)scale(0.22 -0.22)">
       <use xlink:href="#DejaVuSerif-Bold-30"/>
       <use x="69.580078" xlink:href="#DejaVuSerif-Bold-2e"/>
       <use x="104.394531" xlink:href="#DejaVuSerif-Bold-33"/>
      </g>
     </g>
    </g>
    <g id="ytick_13">
     <g id="line2d_18">
      <g>
       <use style="fill:#333333;stroke:#333333;stroke-width:0.8;" x="591.453188" xlink:href="#m0ea573d100" y="237.318281"/>
      </g>
     </g>
     <g id="text_21">
      <!-- 0.4 -->
      <g style="fill:#333333;" transform="translate(594.953188 245.676562)scale(0.22 -0.22)">
       <use xlink:href="#DejaVuSerif-Bold-30"/>
       <use x="69.580078" xlink:href="#DejaVuSerif-Bold-2e"/>
       <use x="104.394531" xlink:href="#DejaVuSerif-Bold-34"/>
      </g>
     </g>
    </g>
    <g id="ytick_14">
     <g id="line2d_19">
      <g>
       <use style="fill:#333333;stroke:#333333;stroke-width:0.8;" x="591.453188" xlink:href="#m0ea573d100" y="181.878281"/>
      </g>
     </g>
     <g id="text_22">
      <!-- 0.5 -->
      <defs>
       <path d="M 56.390625 72.90625 
L 56.390625 60.109375 
L 17.390625 60.109375 
L 17.390625 44.09375 
Q 20.609375 46.578125 24.5625 47.84375 
Q 28.515625 49.125 32.90625 49.125 
Q 46.390625 49.125 54.203125 42.3125 
Q 62.015625 35.5 62.015625 23.78125 
Q 62.015625 11.859375 54.203125 5.21875 
Q 46.390625 -1.421875 32.328125 -1.421875 
Q 26.375 -1.421875 20.484375 -0.4375 
Q 14.59375 0.53125 8.203125 2.59375 
L 8.203125 18.5 
L 14.0625 18.5 
Q 14.359375 11.328125 17.796875 7.8125 
Q 21.234375 4.296875 27.984375 4.296875 
Q 35.15625 4.296875 38.625 9.109375 
Q 42.09375 13.921875 42.09375 23.78125 
Q 42.09375 33.5 38.6875 38.296875 
Q 35.296875 43.109375 28.421875 43.109375 
Q 24.703125 43.109375 21.796875 41.578125 
Q 18.890625 40.046875 16.40625 36.8125 
L 11.53125 36.8125 
L 11.53125 72.90625 
z
" id="DejaVuSerif-Bold-35"/>
      </defs>
      <g style="fill:#333333;" transform="translate(594.953188 190.236562)scale(0.22 -0.22)">
       <use xlink:href="#DejaVuSerif-Bold-30"/>
       <use x="69.580078" xlink:href="#DejaVuSerif-Bold-2e"/>
       <use x="104.394531" xlink:href="#DejaVuSerif-Bold-35"/>
      </g>
     </g>
    </g>
    <g id="ytick_15">
     <g id="line2d_20">
      <g>
       <use style="fill:#333333;stroke:#333333;stroke-width:0.8;" x="591.453188" xlink:href="#m0ea573d100" y="126.438281"/>
      </g>
     </g>
     <g id="text_23">
      <!-- 0.6 -->
      <g style="fill:#333333;" transform="translate(594.953188 134.796562)scale(0.22 -0.22)">
       <use xlink:href="#DejaVuSerif-Bold-30"/>
       <use x="69.580078" xlink:href="#DejaVuSerif-Bold-2e"/>
       <use x="104.394531" xlink:href="#DejaVuSerif-Bold-36"/>
      </g>
     </g>
    </g>
    <g id="ytick_16">
     <g id="line2d_21">
      <g>
       <use style="fill:#333333;stroke:#333333;stroke-width:0.8;" x="591.453188" xlink:href="#m0ea573d100" y="70.998281"/>
      </g>
     </g>
     <g id="text_24">
      <!-- 0.7 -->
      <defs>
       <path d="M 61.28125 60.5 
L 31.203125 0 
L 21.296875 0 
L 50.59375 59.078125 
L 14.59375 59.078125 
L 14.59375 49.21875 
L 7.90625 49.21875 
L 7.90625 72.90625 
L 61.28125 72.90625 
z
" id="DejaVuSerif-Bold-37"/>
      </defs>
      <g style="fill:#333333;" transform="translate(594.953188 79.356562)scale(0.22 -0.22)">
       <use xlink:href="#DejaVuSerif-Bold-30"/>
       <use x="69.580078" xlink:href="#DejaVuSerif-Bold-2e"/>
       <use x="104.394531" xlink:href="#DejaVuSerif-Bold-37"/>
      </g>
     </g>
    </g>
    <g id="ytick_17">
     <g id="line2d_22">
      <g>
       <use style="fill:#333333;stroke:#333333;stroke-width:0.8;" x="591.453188" xlink:href="#m0ea573d100" y="15.558281"/>
      </g>
     </g>
     <g id="text_25">
      <!-- 0.8 -->
      <g style="fill:#333333;" transform="translate(594.953188 23.916562)scale(0.22 -0.22)">
       <use xlink:href="#DejaVuSerif-Bold-30"/>
       <use x="69.580078" xlink:href="#DejaVuSerif-Bold-2e"/>
       <use x="104.394531" xlink:href="#DejaVuSerif-Bold-38"/>
      </g>
     </g>
    </g>
   </g>
   <g id="patch_8">
    <path d="M 569.277188 459.078281 
L 569.277188 403.638281 
L 569.277188 70.998281 
L 569.277188 15.558281 
L 591.453188 15.558281 
L 591.453188 70.998281 
L 591.453188 403.638281 
L 591.453188 459.078281 
z
" style="fill:none;stroke:#333333;stroke-linejoin:miter;stroke-width:0.8;"/>
   </g>
  </g>
 </g>
 <defs>
  <clipPath id="p272e8b2c6d">
   <rect height="443.52" width="446.4" x="94.977187" y="15.558281"/>
  </clipPath>
  <clipPath id="p73db0f5d4e">
   <rect height="443.52" width="22.176" x="569.277188" y="15.558281"/>
  </clipPath>
 </defs>
</svg>
