<?xml version="1.0" encoding="utf-8" standalone="no"?>
<!DOCTYPE svg PUBLIC "-//W3C//DTD SVG 1.1//EN"
  "http://www.w3.org/Graphics/SVG/1.1/DTD/svg11.dtd">
<!-- Created with matplotlib (https://matplotlib.org/) -->
<svg height="518.638906pt" version="1.1" viewBox="0 0 652.264125 518.638906" width="652.264125pt" xmlns="http://www.w3.org/2000/svg" xmlns:xlink="http://www.w3.org/1999/xlink">
 <defs>
  <style type="text/css">
*{stroke-linecap:butt;stroke-linejoin:round;}
  </style>
 </defs>
 <g id="figure_1">
  <g id="patch_1">
   <path d="M 0 518.638906 
L 652.264125 518.638906 
L 652.264125 0 
L 0 0 
z
" style="fill:#ffffff;"/>
  </g>
  <g id="axes_1">
   <g id="patch_2">
    <path d="M 106.815 459.078281 
L 553.215 459.078281 
L 553.215 15.558281 
L 106.815 15.558281 
z
" style="fill:#ffffff;"/>
   </g>
   <g id="PathCollection_1">
    <path clip-path="url(#pb31138863c)" d="M 112.395 726.719661 
L 123.555 726.719661 
L 134.715 726.719661 
L 145.875 726.719661 
L 157.035 726.719661 
L 168.195 726.719661 
L 179.355 726.719661 
L 190.515 726.719661 
L 201.675 726.719661 
L 212.835 726.719661 
L 223.995 726.719661 
L 235.155 726.719661 
L 246.315 726.719661 
L 257.475 726.719661 
L 268.635 726.719661 
L 279.795 726.719661 
L 290.955 726.719661 
L 302.115 726.719661 
L 313.275 726.719661 
L 324.435 726.719661 
L 335.595 726.719661 
L 346.755 726.719661 
L 357.915 726.719661 
L 369.075 726.719661 
L 380.235 726.719661 
L 391.395 726.719661 
L 402.555 726.719661 
L 413.715 726.719661 
L 424.875 726.719661 
L 436.035 726.719661 
L 447.195 726.719661 
L 458.355 726.719661 
L 469.515 726.719661 
L 480.675 726.719661 
L 491.835 726.719661 
L 502.995 726.719661 
L 514.155 726.719661 
L 525.315 726.719661 
L 536.475 726.719661 
L 547.635 726.719661 
L 558.795 726.719661 
L 569.955 726.719661 
L 581.115 726.719661 
L 592.275 726.719661 
L 603.435 726.719661 
L 603.435 650.250695 
L 603.435 573.78173 
L 603.435 497.312764 
L 603.435 420.843798 
L 603.435 344.374833 
L 603.435 267.905867 
L 603.435 191.436902 
L 603.435 114.967936 
L 603.435 38.498971 
L 603.435 -37.969995 
L 603.435 -114.43896 
L 592.275 -114.43896 
L 581.115 -114.43896 
L 569.955 -114.43896 
L 558.795 -114.43896 
L 547.635 -114.43896 
L 536.475 -114.43896 
L 525.315 -114.43896 
L 514.155 -114.43896 
L 502.995 -114.43896 
L 491.835 -114.43896 
L 480.675 -114.43896 
L 469.515 -114.43896 
L 458.355 -114.43896 
L 447.195 -114.43896 
L 436.035 -114.43896 
L 424.875 -114.43896 
L 413.715 -114.43896 
L 402.555 -114.43896 
L 391.395 -114.43896 
L 380.235 -114.43896 
L 369.075 -114.43896 
L 357.915 -114.43896 
L 346.755 -114.43896 
L 335.595 -114.43896 
L 324.435 -114.43896 
L 313.275 -114.43896 
L 302.115 -114.43896 
L 290.955 -114.43896 
L 279.795 -114.43896 
L 268.635 -114.43896 
L 257.475 -114.43896 
L 246.315 -114.43896 
L 235.155 -114.43896 
L 223.995 -114.43896 
L 212.835 -114.43896 
L 201.675 -114.43896 
L 190.515 -114.43896 
L 179.355 -114.43896 
L 168.195 -114.43896 
L 157.035 -114.43896 
L 145.875 -114.43896 
L 134.715 -114.43896 
L 123.555 -114.43896 
L 112.395 -114.43896 
L 101.235 -114.43896 
L 101.235 -37.969995 
L 101.235 38.498971 
L 101.235 114.967936 
L 101.235 191.436902 
L 101.235 267.905867 
L 101.235 344.374833 
L 101.235 420.843798 
L 101.235 497.312764 
L 101.235 573.78173 
L 101.235 650.250695 
L 101.235 726.719661 
z
M 281.834663 420.843798 
L 279.795 416.496759 
L 268.635 389.558951 
L 257.475 365.174329 
L 250.683714 344.374833 
L 246.315 322.691203 
L 240.643684 267.905867 
L 240.770448 191.436902 
L 246.315 144.053842 
L 249.727629 114.967936 
L 257.475 81.479584 
L 268.635 44.301631 
L 271.294475 38.498971 
L 279.795 20.704854 
L 290.955 0.1939 
L 302.115 -18.776354 
L 313.275 -31.450684 
L 323.773519 -37.969995 
L 324.435 -38.64023 
L 335.595 -50.835138 
L 346.755 -61.717648 
L 357.915 -69.477885 
L 369.075 -75.700677 
L 380.235 -79.879523 
L 391.395 -84.250277 
L 402.555 -89.835611 
L 413.715 -94.931489 
L 424.875 -97.988341 
L 436.035 -98.13467 
L 447.195 -95.83525 
L 458.355 -90.622932 
L 469.515 -83.110648 
L 480.675 -73.760768 
L 491.835 -60.219468 
L 502.036305 -37.969995 
L 502.995 -35.452281 
L 514.155 6.38145 
L 521.274818 38.498971 
L 514.155 103.675505 
L 513.278999 114.967936 
L 502.995 161.565222 
L 495.73041 191.436902 
L 491.835 214.835784 
L 484.476785 267.905867 
L 480.675 301.448133 
L 474.827573 344.374833 
L 469.515 381.432292 
L 459.647972 420.843798 
L 458.355 426.835791 
L 447.195 458.143891 
L 436.035 474.074975 
L 424.875 483.010776 
L 413.715 486.183794 
L 402.555 485.926054 
L 391.395 485.817321 
L 380.235 489.951192 
L 369.075 489.898087 
L 357.915 487.157514 
L 346.755 486.206798 
L 335.595 484.793573 
L 324.435 479.67089 
L 313.275 469.562611 
L 302.115 460.590071 
L 290.955 447.267566 
z
" style="fill:#48186a;"/>
   </g>
   <g id="PathCollection_2">
    <path clip-path="url(#pb31138863c)" d="M 290.955 447.267566 
L 302.115 460.590071 
L 313.275 469.562611 
L 324.435 479.67089 
L 335.595 484.793573 
L 346.755 486.206798 
L 357.915 487.157514 
L 369.075 489.898087 
L 380.235 489.951192 
L 391.395 485.817321 
L 402.555 485.926054 
L 413.715 486.183794 
L 424.875 483.010776 
L 436.035 474.074975 
L 447.195 458.143891 
L 458.355 426.835791 
L 459.647972 420.843798 
L 469.515 381.432292 
L 474.827573 344.374833 
L 480.675 301.448133 
L 484.476785 267.905867 
L 491.835 214.835784 
L 495.73041 191.436902 
L 502.995 161.565222 
L 513.278999 114.967936 
L 514.155 103.675505 
L 521.274818 38.498971 
L 514.155 6.38145 
L 502.995 -35.452281 
L 502.036305 -37.969995 
L 491.835 -60.219468 
L 480.675 -73.760768 
L 469.515 -83.110648 
L 458.355 -90.622932 
L 447.195 -95.83525 
L 436.035 -98.13467 
L 424.875 -97.988341 
L 413.715 -94.931489 
L 402.555 -89.835611 
L 391.395 -84.250277 
L 380.235 -79.879523 
L 369.075 -75.700677 
L 357.915 -69.477885 
L 346.755 -61.717648 
L 335.595 -50.835138 
L 324.435 -38.64023 
L 323.773519 -37.969995 
L 313.275 -31.450684 
L 302.115 -18.776354 
L 290.955 0.1939 
L 279.795 20.704854 
L 271.294475 38.498971 
L 268.635 44.301631 
L 257.475 81.479584 
L 249.727629 114.967936 
L 246.315 144.053842 
L 240.770448 191.436902 
L 240.643684 267.905867 
L 246.315 322.691203 
L 250.683714 344.374833 
L 257.475 365.174329 
L 268.635 389.558951 
L 279.795 416.496759 
L 281.834663 420.843798 
z
M 288.699401 344.374833 
L 279.795 309.253286 
L 270.900841 267.905867 
L 268.635 222.113912 
L 267.051848 191.436902 
L 268.635 179.581154 
L 279.701672 114.967936 
L 279.795 114.699491 
L 290.955 82.49874 
L 302.115 51.977501 
L 307.505094 38.498971 
L 313.275 27.108223 
L 324.435 13.011077 
L 335.595 1.47749 
L 346.755 -9.412753 
L 357.915 -18.405502 
L 369.075 -25.639102 
L 380.235 -30.430626 
L 391.395 -35.505268 
L 395.359367 -37.969995 
L 402.555 -44.813748 
L 413.715 -54.711478 
L 424.875 -60.470817 
L 436.035 -60.494018 
L 447.195 -55.653534 
L 458.355 -44.986596 
L 463.909047 -37.969995 
L 469.515 -31.593719 
L 480.675 -15.665288 
L 491.835 9.259231 
L 499.490322 38.498971 
L 493.967903 114.967936 
L 491.835 124.898831 
L 480.675 182.987804 
L 479.463739 191.436902 
L 469.515 266.062676 
L 469.250937 267.905867 
L 458.355 327.191543 
L 452.234435 344.374833 
L 447.195 362.02664 
L 436.035 384.628856 
L 424.875 399.095881 
L 413.715 407.840085 
L 402.555 407.750379 
L 391.395 405.376602 
L 380.235 409.164732 
L 369.075 411.333141 
L 357.915 407.875851 
L 346.755 402.525482 
L 335.595 396.850209 
L 324.435 390.157629 
L 313.275 380.753124 
L 302.115 369.662004 
L 290.955 351.208934 
z
" style="fill:#424086;"/>
   </g>
   <g id="PathCollection_3">
    <path clip-path="url(#pb31138863c)" d="M 290.955 351.208934 
L 302.115 369.662004 
L 313.275 380.753124 
L 324.435 390.157629 
L 335.595 396.850209 
L 346.755 402.525482 
L 357.915 407.875851 
L 369.075 411.333141 
L 380.235 409.164732 
L 391.395 405.376602 
L 402.555 407.750379 
L 413.715 407.840085 
L 424.875 399.095881 
L 436.035 384.628856 
L 447.195 362.02664 
L 452.234435 344.374833 
L 458.355 327.191543 
L 469.250937 267.905867 
L 469.515 266.062676 
L 479.463739 191.436902 
L 480.675 182.987804 
L 491.835 124.898831 
L 493.967903 114.967936 
L 499.490322 38.498971 
L 491.835 9.259231 
L 480.675 -15.665288 
L 469.515 -31.593719 
L 463.909047 -37.969995 
L 458.355 -44.986596 
L 447.195 -55.653534 
L 436.035 -60.494018 
L 424.875 -60.470817 
L 413.715 -54.711478 
L 402.555 -44.813748 
L 395.359367 -37.969995 
L 391.395 -35.505268 
L 380.235 -30.430626 
L 369.075 -25.639102 
L 357.915 -18.405502 
L 346.755 -9.412753 
L 335.595 1.47749 
L 324.435 13.011077 
L 313.275 27.108223 
L 307.505094 38.498971 
L 302.115 51.977501 
L 290.955 82.49874 
L 279.795 114.699491 
L 279.701672 114.967936 
L 268.635 179.581154 
L 267.051848 191.436902 
L 268.635 222.113912 
L 270.900841 267.905867 
L 279.795 309.253286 
L 288.699401 344.374833 
z
M 342.316065 344.374833 
L 335.595 337.462222 
L 324.435 326.413521 
L 313.275 311.793611 
L 302.115 290.925705 
L 294.220287 267.905867 
L 290.955 203.556392 
L 290.4537 191.436902 
L 290.955 188.672293 
L 302.115 133.567978 
L 305.450636 114.967936 
L 313.275 91.635542 
L 324.435 67.37853 
L 335.595 49.834727 
L 342.378528 38.498971 
L 346.755 32.883193 
L 357.915 19.377192 
L 369.075 8.494516 
L 380.235 1.460188 
L 391.395 -6.075081 
L 402.555 -15.362334 
L 413.715 -23.502702 
L 424.875 -28.274823 
L 436.035 -27.85808 
L 447.195 -22.365277 
L 458.355 -9.925989 
L 469.515 9.493924 
L 480.675 35.884619 
L 481.601744 38.498971 
L 480.675 62.47756 
L 479.36282 114.967936 
L 469.515 183.75701 
L 468.71728 191.436902 
L 458.355 263.400332 
L 457.459164 267.905867 
L 447.195 308.169574 
L 436.035 329.259349 
L 424.875 343.972799 
L 424.482738 344.374833 
L 413.715 359.463016 
L 402.555 360.971665 
L 391.395 357.385003 
L 380.235 360.324645 
L 369.075 363.445531 
L 357.915 359.163259 
L 346.755 348.925559 
z
" style="fill:#33638d;"/>
   </g>
   <g id="PathCollection_4">
    <path clip-path="url(#pb31138863c)" d="M 346.755 348.925559 
L 357.915 359.163259 
L 369.075 363.445531 
L 380.235 360.324645 
L 391.395 357.385003 
L 402.555 360.971665 
L 413.715 359.463016 
L 424.482738 344.374833 
L 424.875 343.972799 
L 436.035 329.259349 
L 447.195 308.169574 
L 457.459164 267.905867 
L 458.355 263.400332 
L 468.71728 191.436902 
L 469.515 183.75701 
L 479.36282 114.967936 
L 480.675 62.47756 
L 481.601744 38.498971 
L 480.675 35.884619 
L 469.515 9.493924 
L 458.355 -9.925989 
L 447.195 -22.365277 
L 436.035 -27.85808 
L 424.875 -28.274823 
L 413.715 -23.502702 
L 402.555 -15.362334 
L 391.395 -6.075081 
L 380.235 1.460188 
L 369.075 8.494516 
L 357.915 19.377192 
L 346.755 32.883193 
L 342.378528 38.498971 
L 335.595 49.834727 
L 324.435 67.37853 
L 313.275 91.635542 
L 305.450636 114.967936 
L 302.115 133.567978 
L 290.955 188.672293 
L 290.4537 191.436902 
L 290.955 203.556392 
L 294.220287 267.905867 
L 302.115 290.925705 
L 313.275 311.793611 
L 324.435 326.413521 
L 335.595 337.462222 
L 342.316065 344.374833 
z
M 325.406537 267.905867 
L 324.435 263.573524 
L 314.131273 191.436902 
L 324.435 135.425167 
L 329.820782 114.967936 
L 335.595 104.916475 
L 346.755 84.625029 
L 357.915 62.070336 
L 369.075 43.898974 
L 373.855643 38.498971 
L 380.235 33.351001 
L 391.395 23.355107 
L 402.555 11.297943 
L 413.715 1.280565 
L 424.875 -4.052539 
L 436.035 -2.67925 
L 447.195 5.504729 
L 458.355 23.213174 
L 465.170131 38.498971 
L 467.921521 114.967936 
L 460.141451 191.436902 
L 458.355 203.843355 
L 447.195 261.769495 
L 445.0948 267.905867 
L 436.035 290.296887 
L 424.875 308.588179 
L 413.715 321.178707 
L 402.555 322.586184 
L 391.395 318.227937 
L 380.235 318.139011 
L 369.075 320.245469 
L 357.915 315.016933 
L 346.755 300.997855 
L 335.595 283.688961 
z
" style="fill:#26828e;"/>
   </g>
   <g id="PathCollection_5">
    <path clip-path="url(#pb31138863c)" d="M 335.595 283.688961 
L 346.755 300.997855 
L 357.915 315.016933 
L 369.075 320.245469 
L 380.235 318.139011 
L 391.395 318.227937 
L 402.555 322.586184 
L 413.715 321.178707 
L 424.875 308.588179 
L 436.035 290.296887 
L 445.0948 267.905867 
L 447.195 261.769495 
L 458.355 203.843355 
L 460.141451 191.436902 
L 467.921521 114.967936 
L 465.170131 38.498971 
L 458.355 23.213174 
L 447.195 5.504729 
L 436.035 -2.67925 
L 424.875 -4.052539 
L 413.715 1.280565 
L 402.555 11.297943 
L 391.395 23.355107 
L 380.235 33.351001 
L 373.855643 38.498971 
L 369.075 43.898974 
L 357.915 62.070336 
L 346.755 84.625029 
L 335.595 104.916475 
L 329.820782 114.967936 
L 324.435 135.425167 
L 314.131273 191.436902 
L 324.435 263.573524 
L 325.406537 267.905867 
z
M 354.787322 267.905867 
L 346.755 227.711667 
L 339.699725 191.436902 
L 346.755 161.758036 
L 355.666276 114.967936 
L 357.915 109.795199 
L 369.075 88.537948 
L 380.235 75.266499 
L 391.395 58.723343 
L 402.107399 38.498971 
L 402.555 37.95822 
L 413.715 26.063833 
L 424.875 20.169745 
L 436.035 22.499581 
L 447.195 33.374734 
L 450.034603 38.498971 
L 458.355 114.75399 
L 458.369438 114.967936 
L 458.355 115.113656 
L 451.654538 191.436902 
L 447.195 215.707546 
L 436.035 250.448693 
L 427.78064 267.905867 
L 424.875 273.20356 
L 413.715 287.468941 
L 402.555 288.81609 
L 391.395 282.35658 
L 380.235 279.180389 
L 369.075 280.147572 
L 357.915 272.861162 
z
" style="fill:#1fa088;"/>
   </g>
   <g id="PathCollection_6">
    <path clip-path="url(#pb31138863c)" d="M 357.915 272.861162 
L 369.075 280.147572 
L 380.235 279.180389 
L 391.395 282.35658 
L 402.555 288.81609 
L 413.715 287.468941 
L 424.875 273.20356 
L 427.78064 267.905867 
L 436.035 250.448693 
L 447.195 215.707546 
L 451.654538 191.436902 
L 458.355 115.113656 
L 458.369438 114.967936 
L 458.355 114.75399 
L 450.034603 38.498971 
L 447.195 33.374734 
L 436.035 22.499581 
L 424.875 20.169745 
L 413.715 26.063833 
L 402.555 37.95822 
L 402.107399 38.498971 
L 391.395 58.723343 
L 380.235 75.266499 
L 369.075 88.537948 
L 357.915 109.795199 
L 355.666276 114.967936 
L 346.755 161.758036 
L 339.699725 191.436902 
L 346.755 227.711667 
L 354.787322 267.905867 
z
M 362.574264 191.436902 
L 369.075 164.45804 
L 380.235 130.129942 
L 382.6078 114.967936 
L 391.395 100.386061 
L 402.555 77.971516 
L 413.715 59.700279 
L 424.875 50.380819 
L 436.035 59.69083 
L 447.195 102.011201 
L 448.789947 114.967936 
L 447.195 134.874242 
L 441.39842 191.436902 
L 436.035 209.403711 
L 424.875 232.66175 
L 413.715 248.910675 
L 402.555 248.772592 
L 391.395 233.287539 
L 380.235 218.178936 
L 369.075 209.97893 
z
" style="fill:#3fbc73;"/>
   </g>
   <g id="PathCollection_7">
    <path clip-path="url(#pb31138863c)" d="M 369.075 209.97893 
L 380.235 218.178936 
L 391.395 233.287539 
L 402.555 248.772592 
L 413.715 248.910675 
L 424.875 232.66175 
L 436.035 209.403711 
L 441.39842 191.436902 
L 447.195 134.874242 
L 448.789947 114.967936 
L 447.195 102.011201 
L 436.035 59.69083 
L 424.875 50.380819 
L 413.715 59.700279 
L 402.555 77.971516 
L 391.395 100.386061 
L 382.6078 114.967936 
L 380.235 130.129942 
L 369.075 164.45804 
L 362.574264 191.436902 
z
M 398.797802 191.436902 
L 402.555 143.012323 
L 404.952025 114.967936 
L 413.715 102.252285 
L 424.875 99.218875 
L 434.561575 114.967936 
L 424.875 190.170794 
L 424.654835 191.436902 
L 413.715 203.647555 
L 402.555 198.528505 
z
" style="fill:#84d44b;"/>
   </g>
   <g id="PathCollection_8">
    <path clip-path="url(#pb31138863c)" d="M 402.555 198.528505 
L 413.715 203.647555 
L 424.654835 191.436902 
L 424.875 190.170794 
L 434.561575 114.967936 
L 424.875 99.218875 
L 413.715 102.252285 
L 404.952025 114.967936 
L 402.555 143.012323 
L 398.797802 191.436902 
z
" style="fill:#d8e219;"/>
   </g>
   <g id="matplotlib.axis_1">
    <g id="xtick_1">
     <g id="line2d_1">
      <defs>
       <path d="M 0 0 
L 0 -6 
" id="ma8702748fd" style="stroke:#333333;stroke-width:0.8;"/>
      </defs>
      <g>
       <use style="fill:#333333;stroke:#333333;stroke-width:0.8;" x="106.815" xlink:href="#ma8702748fd" y="459.078281"/>
      </g>
     </g>
     <g id="text_1">
      <!-- −4 -->
      <defs>
       <path d="M 10.59375 36.921875 
L 73.1875 36.921875 
L 73.1875 25.6875 
L 10.59375 25.6875 
z
" id="DejaVuSerif-Bold-8722"/>
       <path d="M 63.8125 0 
L 23.6875 0 
L 23.6875 5.90625 
L 34.515625 5.90625 
L 34.515625 19.1875 
L 4.109375 19.1875 
L 4.109375 24.8125 
L 34.625 74.21875 
L 52.984375 74.21875 
L 52.984375 25.484375 
L 65.484375 25.484375 
L 65.484375 19.1875 
L 52.984375 19.1875 
L 52.984375 5.90625 
L 63.8125 5.90625 
z
M 34.515625 25.484375 
L 34.515625 60.890625 
L 12.796875 25.484375 
z
" id="DejaVuSerif-Bold-52"/>
      </defs>
      <g style="fill:#333333;" transform="translate(89.94375 479.294844)scale(0.22 -0.22)">
       <use xlink:href="#DejaVuSerif-Bold-8722"/>
       <use x="83.789062" xlink:href="#DejaVuSerif-Bold-52"/>
      </g>
     </g>
    </g>
    <g id="xtick_2">
     <g id="line2d_2">
      <g>
       <use style="fill:#333333;stroke:#333333;stroke-width:0.8;" x="218.415" xlink:href="#ma8702748fd" y="459.078281"/>
      </g>
     </g>
     <g id="text_2">
      <!-- −3 -->
      <defs>
       <path d="M 8.59375 70.796875 
Q 15.046875 72.515625 21.09375 73.359375 
Q 27.15625 74.21875 32.90625 74.21875 
Q 46.09375 74.21875 53.140625 69.5 
Q 60.203125 64.796875 60.203125 56 
Q 60.203125 49.421875 56.140625 45.3125 
Q 52.09375 41.21875 44.28125 39.796875 
Q 53.8125 38.28125 58.5 33.296875 
Q 63.1875 28.328125 63.1875 19.671875 
Q 63.1875 9.46875 55.09375 4.015625 
Q 47.015625 -1.421875 31.6875 -1.421875 
Q 25.921875 -1.421875 19.796875 -0.4375 
Q 13.671875 0.53125 6.984375 2.484375 
L 6.984375 18.5 
L 12.890625 18.5 
Q 13.421875 11.578125 17.234375 7.9375 
Q 21.046875 4.296875 27.78125 4.296875 
Q 35.203125 4.296875 39.25 8.421875 
Q 43.3125 12.546875 43.3125 20.125 
Q 43.3125 28.03125 39.078125 32.328125 
Q 34.859375 36.625 27.09375 36.625 
L 23.875 36.625 
L 23.875 42.484375 
L 26.421875 42.484375 
Q 33.59375 42.484375 37.203125 45.796875 
Q 40.828125 49.125 40.828125 55.71875 
Q 40.828125 61.921875 37.421875 65.203125 
Q 34.03125 68.5 27.6875 68.5 
Q 21.921875 68.5 18.546875 65.34375 
Q 15.1875 62.203125 14.5 56.203125 
L 8.59375 56.203125 
z
" id="DejaVuSerif-Bold-51"/>
      </defs>
      <g style="fill:#333333;" transform="translate(201.54375 479.294844)scale(0.22 -0.22)">
       <use xlink:href="#DejaVuSerif-Bold-8722"/>
       <use x="83.789062" xlink:href="#DejaVuSerif-Bold-51"/>
      </g>
     </g>
    </g>
    <g id="xtick_3">
     <g id="line2d_3">
      <g>
       <use style="fill:#333333;stroke:#333333;stroke-width:0.8;" x="330.015" xlink:href="#ma8702748fd" y="459.078281"/>
      </g>
     </g>
     <g id="text_3">
      <!-- −2 -->
      <defs>
       <path d="M 13.1875 54.890625 
L 7.328125 54.890625 
L 7.328125 70.609375 
Q 13.28125 72.40625 19.109375 73.3125 
Q 24.953125 74.21875 30.90625 74.21875 
Q 44.828125 74.21875 52.609375 68.53125 
Q 60.40625 62.84375 60.40625 52.6875 
Q 60.40625 45.453125 56.109375 39.71875 
Q 51.8125 33.984375 39.703125 26.125 
L 19.390625 12.796875 
L 53.90625 12.796875 
L 53.90625 21.390625 
L 60.59375 21.390625 
L 60.59375 0 
L 6.6875 0 
L 6.6875 11.921875 
L 17.484375 19.390625 
Q 31.296875 28.90625 35.890625 35.59375 
Q 40.484375 42.28125 40.484375 51.21875 
Q 40.484375 59.671875 36.984375 64.078125 
Q 33.5 68.5 26.8125 68.5 
Q 21.046875 68.5 17.578125 65.015625 
Q 14.109375 61.53125 13.1875 54.890625 
z
" id="DejaVuSerif-Bold-50"/>
      </defs>
      <g style="fill:#333333;" transform="translate(313.14375 479.294844)scale(0.22 -0.22)">
       <use xlink:href="#DejaVuSerif-Bold-8722"/>
       <use x="83.789062" xlink:href="#DejaVuSerif-Bold-50"/>
      </g>
     </g>
    </g>
    <g id="xtick_4">
     <g id="line2d_4">
      <g>
       <use style="fill:#333333;stroke:#333333;stroke-width:0.8;" x="441.615" xlink:href="#ma8702748fd" y="459.078281"/>
      </g>
     </g>
     <g id="text_4">
      <!-- −1 -->
      <defs>
       <path d="M 13.71875 0 
L 13.71875 5.90625 
L 27.390625 5.90625 
L 27.390625 64.890625 
L 12.203125 55.90625 
L 12.203125 63.1875 
L 30.515625 74.21875 
L 45.90625 74.21875 
L 45.90625 5.90625 
L 59.625 5.90625 
L 59.625 0 
z
" id="DejaVuSerif-Bold-49"/>
      </defs>
      <g style="fill:#333333;" transform="translate(424.74375 479.294844)scale(0.22 -0.22)">
       <use xlink:href="#DejaVuSerif-Bold-8722"/>
       <use x="83.789062" xlink:href="#DejaVuSerif-Bold-49"/>
      </g>
     </g>
    </g>
    <g id="xtick_5">
     <g id="line2d_5">
      <g>
       <use style="fill:#333333;stroke:#333333;stroke-width:0.8;" x="553.215" xlink:href="#ma8702748fd" y="459.078281"/>
      </g>
     </g>
     <g id="text_5">
      <!-- 0 -->
      <defs>
       <path d="M 34.8125 4.296875 
Q 40.671875 4.296875 42.84375 9.609375 
Q 45.015625 14.9375 45.015625 36.375 
Q 45.015625 57.671875 42.84375 63.078125 
Q 40.671875 68.5 34.8125 68.5 
Q 28.953125 68.5 26.78125 63.171875 
Q 24.609375 57.859375 24.609375 36.375 
Q 24.609375 14.9375 26.78125 9.609375 
Q 28.953125 4.296875 34.8125 4.296875 
z
M 34.8125 -1.421875 
Q 20.21875 -1.421875 12.453125 8.3125 
Q 4.6875 18.0625 4.6875 36.375 
Q 4.6875 54.6875 12.453125 64.453125 
Q 20.21875 74.21875 34.8125 74.21875 
Q 49.359375 74.21875 57.125 64.453125 
Q 64.890625 54.6875 64.890625 36.375 
Q 64.890625 18.0625 57.125 8.3125 
Q 49.359375 -1.421875 34.8125 -1.421875 
z
" id="DejaVuSerif-Bold-48"/>
      </defs>
      <g style="fill:#333333;" transform="translate(545.561406 479.294844)scale(0.22 -0.22)">
       <use xlink:href="#DejaVuSerif-Bold-48"/>
      </g>
     </g>
    </g>
    <g id="text_6">
     <!-- Log[a/pc] -->
     <defs>
      <path d="M 4.6875 0 
L 4.6875 5.90625 
L 14.015625 5.90625 
L 14.015625 67 
L 4.6875 67 
L 4.6875 72.90625 
L 42.1875 72.90625 
L 42.1875 67 
L 32.8125 67 
L 32.8125 6.6875 
L 61.53125 6.6875 
L 61.53125 18.21875 
L 68.109375 18.21875 
L 68.109375 0 
z
" id="DejaVuSerif-Bold-76"/>
      <path d="M 33.40625 4.109375 
Q 38.875 4.109375 41.09375 8.796875 
Q 43.3125 13.484375 43.3125 25.984375 
Q 43.3125 38.484375 41.109375 43.140625 
Q 38.921875 47.796875 33.40625 47.796875 
Q 27.875 47.796875 25.625 43.078125 
Q 23.390625 38.375 23.390625 25.984375 
Q 23.390625 13.578125 25.625 8.84375 
Q 27.875 4.109375 33.40625 4.109375 
z
M 33.40625 -1.421875 
Q 19.671875 -1.421875 11.890625 5.875 
Q 4.109375 13.1875 4.109375 25.984375 
Q 4.109375 38.8125 11.890625 46.0625 
Q 19.671875 53.328125 33.40625 53.328125 
Q 47.171875 53.328125 54.9375 46.0625 
Q 62.703125 38.8125 62.703125 25.984375 
Q 62.703125 13.1875 54.90625 5.875 
Q 47.125 -1.421875 33.40625 -1.421875 
z
" id="DejaVuSerif-Bold-111"/>
      <path d="M 60.203125 46 
L 60.203125 0.6875 
Q 60.203125 -10.25 52.40625 -16.234375 
Q 44.625 -22.21875 30.421875 -22.21875 
Q 25.25 -22.21875 19.921875 -21.40625 
Q 14.59375 -20.609375 8.984375 -19 
L 8.984375 -6.59375 
L 14.5 -6.59375 
Q 15.234375 -11.71875 18.625 -14.203125 
Q 22.015625 -16.703125 28.328125 -16.703125 
Q 36.328125 -16.703125 39.625 -12.859375 
Q 42.921875 -9.03125 42.921875 0.6875 
L 42.921875 6.59375 
Q 40.71875 2.546875 36.984375 0.5625 
Q 33.25 -1.421875 27.78125 -1.421875 
Q 16.75 -1.421875 10.421875 5.90625 
Q 4.109375 13.234375 4.109375 25.984375 
Q 4.109375 38.765625 10.421875 46.046875 
Q 16.75 53.328125 27.78125 53.328125 
Q 33.25 53.328125 36.984375 51.34375 
Q 40.71875 49.359375 42.921875 45.3125 
L 42.921875 51.90625 
L 67.578125 51.90625 
L 67.578125 46 
z
M 42.921875 28.515625 
Q 42.921875 37.59375 40.578125 41.640625 
Q 38.234375 45.703125 33.109375 45.703125 
Q 27.734375 45.703125 25.5625 41.421875 
Q 23.390625 37.15625 23.390625 25.984375 
Q 23.390625 14.796875 25.578125 10.5 
Q 27.78125 6.203125 33.109375 6.203125 
Q 38.234375 6.203125 40.578125 10.25 
Q 42.921875 14.3125 42.921875 23.390625 
z
" id="DejaVuSerif-Bold-103"/>
      <path d="M 12.5 75.984375 
L 40.1875 75.984375 
L 40.1875 70.125 
L 29.78125 70.125 
L 29.78125 -7.328125 
L 40.1875 -7.328125 
L 40.1875 -13.1875 
L 12.5 -13.1875 
z
" id="DejaVuSerif-Bold-91"/>
      <path d="M 55.078125 31.890625 
L 55.078125 5.90625 
L 62.5 5.90625 
L 62.5 0 
L 37.796875 0 
L 37.796875 6.59375 
Q 34.375 2.484375 30.171875 0.53125 
Q 25.984375 -1.421875 20.609375 -1.421875 
Q 12.640625 -1.421875 8.375 2.84375 
Q 4.109375 7.125 4.109375 15.09375 
Q 4.109375 23.828125 10.234375 28.171875 
Q 16.359375 32.515625 28.71875 32.515625 
L 37.796875 32.515625 
L 37.796875 35.59375 
Q 37.796875 41.890625 34.8125 44.890625 
Q 31.84375 47.90625 25.59375 47.90625 
Q 20.40625 47.90625 17.59375 45.78125 
Q 14.796875 43.65625 13.625 38.8125 
L 8.109375 38.8125 
L 8.109375 50 
Q 12.75 51.65625 17.71875 52.484375 
Q 22.703125 53.328125 28.21875 53.328125 
Q 42.140625 53.328125 48.609375 48.140625 
Q 55.078125 42.96875 55.078125 31.890625 
z
M 37.796875 16.3125 
L 37.796875 26.703125 
L 31.296875 26.703125 
Q 26.46875 26.703125 23.875 24.0625 
Q 21.296875 21.4375 21.296875 16.5 
Q 21.296875 11.578125 23.171875 9.125 
Q 25.046875 6.6875 28.90625 6.6875 
Q 32.90625 6.6875 35.34375 9.328125 
Q 37.796875 11.96875 37.796875 16.3125 
z
" id="DejaVuSerif-Bold-97"/>
      <path d="M 25.6875 72.90625 
L 36.53125 72.90625 
L 10.796875 -9.28125 
L 0 -9.28125 
z
" id="DejaVuSerif-Bold-47"/>
      <path d="M 27 28.515625 
L 27 23.390625 
Q 27 14.3125 29.3125 10.25 
Q 31.640625 6.203125 36.8125 6.203125 
Q 42.140625 6.203125 44.3125 10.5 
Q 46.484375 14.796875 46.484375 25.984375 
Q 46.484375 37.15625 44.3125 41.421875 
Q 42.140625 45.703125 36.8125 45.703125 
Q 31.640625 45.703125 29.3125 41.640625 
Q 27 37.59375 27 28.515625 
z
M 9.71875 46 
L 2.296875 46 
L 2.296875 51.90625 
L 27 51.90625 
L 27 45.3125 
Q 29.203125 49.359375 32.90625 51.34375 
Q 36.625 53.328125 42.09375 53.328125 
Q 53.171875 53.328125 59.546875 46.015625 
Q 65.921875 38.71875 65.921875 25.984375 
Q 65.921875 13.234375 59.546875 5.90625 
Q 53.171875 -1.421875 42.09375 -1.421875 
Q 36.625 -1.421875 32.90625 0.5625 
Q 29.203125 2.546875 27 6.59375 
L 27 -14.890625 
L 35.015625 -14.890625 
L 35.015625 -20.796875 
L 2.296875 -20.796875 
L 2.296875 -14.890625 
L 9.71875 -14.890625 
z
" id="DejaVuSerif-Bold-112"/>
      <path d="M 56.390625 16.21875 
Q 54.546875 7.328125 48.796875 2.953125 
Q 43.0625 -1.421875 33.203125 -1.421875 
Q 19.34375 -1.421875 11.71875 5.75 
Q 4.109375 12.9375 4.109375 25.984375 
Q 4.109375 38.875 11.625 46.09375 
Q 19.140625 53.328125 32.515625 53.328125 
Q 37.9375 53.328125 43.453125 52.296875 
Q 48.96875 51.265625 54.6875 49.21875 
L 54.6875 34.8125 
L 49.21875 34.8125 
Q 48.4375 41.40625 45.359375 44.59375 
Q 42.28125 47.796875 36.71875 47.796875 
Q 29.5 47.796875 26.4375 42.90625 
Q 23.390625 38.03125 23.390625 25.984375 
Q 23.390625 14.203125 26.359375 9.15625 
Q 29.34375 4.109375 36.078125 4.109375 
Q 41.3125 4.109375 44.453125 7.234375 
Q 47.609375 10.359375 48.296875 16.21875 
z
" id="DejaVuSerif-Bold-99"/>
      <path d="M 34.8125 75.984375 
L 34.8125 -13.1875 
L 7.078125 -13.1875 
L 7.078125 -7.328125 
L 17.484375 -7.328125 
L 17.484375 70.125 
L 7.078125 70.125 
L 7.078125 75.984375 
z
" id="DejaVuSerif-Bold-93"/>
     </defs>
     <g transform="translate(265.970625 506.106406)scale(0.24 -0.24)">
      <use xlink:href="#DejaVuSerif-Bold-76"/>
      <use x="70.3125" xlink:href="#DejaVuSerif-Bold-111"/>
      <use x="137.011719" xlink:href="#DejaVuSerif-Bold-103"/>
      <use x="206.933594" xlink:href="#DejaVuSerif-Bold-91"/>
      <use x="254.248047" xlink:href="#DejaVuSerif-Bold-97"/>
      <use x="319.042969" xlink:href="#DejaVuSerif-Bold-47"/>
      <use x="355.566406" xlink:href="#DejaVuSerif-Bold-112"/>
      <use x="425.488281" xlink:href="#DejaVuSerif-Bold-99"/>
      <use x="486.376953" xlink:href="#DejaVuSerif-Bold-93"/>
     </g>
    </g>
   </g>
   <g id="matplotlib.axis_2">
    <g id="ytick_1">
     <g id="line2d_6">
      <defs>
       <path d="M 0 0 
L 6 0 
" id="m8445a65572" style="stroke:#333333;stroke-width:0.8;"/>
      </defs>
      <g>
       <use style="fill:#333333;stroke:#333333;stroke-width:0.8;" x="106.815" xlink:href="#m8445a65572" y="459.078281"/>
      </g>
     </g>
     <g id="text_7">
      <!-- 0.970 -->
      <defs>
       <path d="M 8.109375 7.90625 
Q 8.109375 11.71875 10.84375 14.453125 
Q 13.578125 17.1875 17.390625 17.1875 
Q 21.234375 17.1875 23.96875 14.453125 
Q 26.703125 11.71875 26.703125 7.90625 
Q 26.703125 4.046875 23.96875 1.3125 
Q 21.234375 -1.421875 17.390625 -1.421875 
Q 13.578125 -1.421875 10.84375 1.3125 
Q 8.109375 4.046875 8.109375 7.90625 
z
" id="DejaVuSerif-Bold-46"/>
       <path d="M 34.078125 68.5 
Q 29.046875 68.5 26.921875 64.234375 
Q 24.8125 59.96875 24.8125 49.421875 
Q 24.8125 38.875 26.921875 34.59375 
Q 29.046875 30.328125 34.078125 30.328125 
Q 39.109375 30.328125 41.25 34.59375 
Q 43.40625 38.875 43.40625 49.421875 
Q 43.40625 59.96875 41.25 64.234375 
Q 39.109375 68.5 34.078125 68.5 
z
M 44.96875 29.6875 
Q 41.75 27.09375 37.8125 25.796875 
Q 33.890625 24.515625 29.296875 24.515625 
Q 18.171875 24.515625 11.796875 31.03125 
Q 5.421875 37.546875 5.421875 49.03125 
Q 5.421875 61.140625 12.546875 67.671875 
Q 19.671875 74.21875 32.90625 74.21875 
Q 47.859375 74.21875 55.5625 65.1875 
Q 63.28125 56.15625 63.28125 38.71875 
Q 63.28125 18.84375 54.734375 8.703125 
Q 46.1875 -1.421875 29.390625 -1.421875 
Q 25 -1.421875 19.96875 -0.6875 
Q 14.9375 0.046875 9.1875 1.515625 
L 9.1875 14.40625 
L 15.09375 14.40625 
Q 16.3125 9.421875 19.703125 6.859375 
Q 23.09375 4.296875 28.515625 4.296875 
Q 37.109375 4.296875 41.015625 10.28125 
Q 44.921875 16.265625 44.96875 29.6875 
z
" id="DejaVuSerif-Bold-57"/>
       <path d="M 61.28125 60.5 
L 31.203125 0 
L 21.296875 0 
L 50.59375 59.078125 
L 14.59375 59.078125 
L 14.59375 49.21875 
L 7.90625 49.21875 
L 7.90625 72.90625 
L 61.28125 72.90625 
z
" id="DejaVuSerif-Bold-55"/>
      </defs>
      <g style="fill:#333333;" transform="translate(34.4275 467.436562)scale(0.22 -0.22)">
       <use xlink:href="#DejaVuSerif-Bold-48"/>
       <use x="69.580078" xlink:href="#DejaVuSerif-Bold-46"/>
       <use x="104.394531" xlink:href="#DejaVuSerif-Bold-57"/>
       <use x="173.974609" xlink:href="#DejaVuSerif-Bold-55"/>
       <use x="243.554688" xlink:href="#DejaVuSerif-Bold-48"/>
      </g>
     </g>
    </g>
    <g id="ytick_2">
     <g id="line2d_7">
      <g>
       <use style="fill:#333333;stroke:#333333;stroke-width:0.8;" x="106.815" xlink:href="#m8445a65572" y="382.609316"/>
      </g>
     </g>
     <g id="text_8">
      <!-- 0.975 -->
      <defs>
       <path d="M 56.390625 72.90625 
L 56.390625 60.109375 
L 17.390625 60.109375 
L 17.390625 44.09375 
Q 20.609375 46.578125 24.5625 47.84375 
Q 28.515625 49.125 32.90625 49.125 
Q 46.390625 49.125 54.203125 42.3125 
Q 62.015625 35.5 62.015625 23.78125 
Q 62.015625 11.859375 54.203125 5.21875 
Q 46.390625 -1.421875 32.328125 -1.421875 
Q 26.375 -1.421875 20.484375 -0.4375 
Q 14.59375 0.53125 8.203125 2.59375 
L 8.203125 18.5 
L 14.0625 18.5 
Q 14.359375 11.328125 17.796875 7.8125 
Q 21.234375 4.296875 27.984375 4.296875 
Q 35.15625 4.296875 38.625 9.109375 
Q 42.09375 13.921875 42.09375 23.78125 
Q 42.09375 33.5 38.6875 38.296875 
Q 35.296875 43.109375 28.421875 43.109375 
Q 24.703125 43.109375 21.796875 41.578125 
Q 18.890625 40.046875 16.40625 36.8125 
L 11.53125 36.8125 
L 11.53125 72.90625 
z
" id="DejaVuSerif-Bold-53"/>
      </defs>
      <g style="fill:#333333;" transform="translate(34.4275 390.967597)scale(0.22 -0.22)">
       <use xlink:href="#DejaVuSerif-Bold-48"/>
       <use x="69.580078" xlink:href="#DejaVuSerif-Bold-46"/>
       <use x="104.394531" xlink:href="#DejaVuSerif-Bold-57"/>
       <use x="173.974609" xlink:href="#DejaVuSerif-Bold-55"/>
       <use x="243.554688" xlink:href="#DejaVuSerif-Bold-53"/>
      </g>
     </g>
    </g>
    <g id="ytick_3">
     <g id="line2d_8">
      <g>
       <use style="fill:#333333;stroke:#333333;stroke-width:0.8;" x="106.815" xlink:href="#m8445a65572" y="306.14035"/>
      </g>
     </g>
     <g id="text_9">
      <!-- 0.980 -->
      <defs>
       <path d="M 46.484375 38.8125 
Q 55.171875 37.40625 59.6875 32.421875 
Q 64.203125 27.4375 64.203125 19.390625 
Q 64.203125 9.328125 56.609375 3.953125 
Q 49.03125 -1.421875 34.71875 -1.421875 
Q 20.40625 -1.421875 12.78125 3.953125 
Q 5.171875 9.328125 5.171875 19.390625 
Q 5.171875 27.4375 9.71875 32.421875 
Q 14.265625 37.40625 22.90625 38.8125 
Q 15.234375 40.578125 11.421875 44.703125 
Q 7.625 48.828125 7.625 55.171875 
Q 7.625 64.453125 14.546875 69.328125 
Q 21.484375 74.21875 34.71875 74.21875 
Q 47.90625 74.21875 54.859375 69.328125 
Q 61.8125 64.453125 61.8125 55.171875 
Q 61.8125 48.828125 57.984375 44.703125 
Q 54.15625 40.578125 46.484375 38.8125 
z
M 42.921875 54.984375 
Q 42.921875 62.703125 41.0625 65.59375 
Q 39.203125 68.5 34.71875 68.5 
Q 30.171875 68.5 28.34375 65.59375 
Q 26.515625 62.703125 26.515625 54.984375 
Q 26.515625 47.3125 28.34375 44.453125 
Q 30.171875 41.609375 34.71875 41.609375 
Q 39.265625 41.609375 41.09375 44.453125 
Q 42.921875 47.3125 42.921875 54.984375 
z
M 44.828125 20.21875 
Q 44.828125 29.15625 42.546875 32.515625 
Q 40.28125 35.890625 34.71875 35.890625 
Q 29.109375 35.890625 26.859375 32.515625 
Q 24.609375 29.15625 24.609375 20.21875 
Q 24.609375 11.1875 26.875 7.734375 
Q 29.15625 4.296875 34.71875 4.296875 
Q 40.234375 4.296875 42.53125 7.734375 
Q 44.828125 11.1875 44.828125 20.21875 
z
" id="DejaVuSerif-Bold-56"/>
      </defs>
      <g style="fill:#333333;" transform="translate(34.4275 314.498631)scale(0.22 -0.22)">
       <use xlink:href="#DejaVuSerif-Bold-48"/>
       <use x="69.580078" xlink:href="#DejaVuSerif-Bold-46"/>
       <use x="104.394531" xlink:href="#DejaVuSerif-Bold-57"/>
       <use x="173.974609" xlink:href="#DejaVuSerif-Bold-56"/>
       <use x="243.554688" xlink:href="#DejaVuSerif-Bold-48"/>
      </g>
     </g>
    </g>
    <g id="ytick_4">
     <g id="line2d_9">
      <g>
       <use style="fill:#333333;stroke:#333333;stroke-width:0.8;" x="106.815" xlink:href="#m8445a65572" y="229.671385"/>
      </g>
     </g>
     <g id="text_10">
      <!-- 0.985 -->
      <g style="fill:#333333;" transform="translate(34.4275 238.029666)scale(0.22 -0.22)">
       <use xlink:href="#DejaVuSerif-Bold-48"/>
       <use x="69.580078" xlink:href="#DejaVuSerif-Bold-46"/>
       <use x="104.394531" xlink:href="#DejaVuSerif-Bold-57"/>
       <use x="173.974609" xlink:href="#DejaVuSerif-Bold-56"/>
       <use x="243.554688" xlink:href="#DejaVuSerif-Bold-53"/>
      </g>
     </g>
    </g>
    <g id="ytick_5">
     <g id="line2d_10">
      <g>
       <use style="fill:#333333;stroke:#333333;stroke-width:0.8;" x="106.815" xlink:href="#m8445a65572" y="153.202419"/>
      </g>
     </g>
     <g id="text_11">
      <!-- 0.990 -->
      <g style="fill:#333333;" transform="translate(34.4275 161.5607)scale(0.22 -0.22)">
       <use xlink:href="#DejaVuSerif-Bold-48"/>
       <use x="69.580078" xlink:href="#DejaVuSerif-Bold-46"/>
       <use x="104.394531" xlink:href="#DejaVuSerif-Bold-57"/>
       <use x="173.974609" xlink:href="#DejaVuSerif-Bold-57"/>
       <use x="243.554688" xlink:href="#DejaVuSerif-Bold-48"/>
      </g>
     </g>
    </g>
    <g id="ytick_6">
     <g id="line2d_11">
      <g>
       <use style="fill:#333333;stroke:#333333;stroke-width:0.8;" x="106.815" xlink:href="#m8445a65572" y="76.733454"/>
      </g>
     </g>
     <g id="text_12">
      <!-- 0.995 -->
      <g style="fill:#333333;" transform="translate(34.4275 85.091735)scale(0.22 -0.22)">
       <use xlink:href="#DejaVuSerif-Bold-48"/>
       <use x="69.580078" xlink:href="#DejaVuSerif-Bold-46"/>
       <use x="104.394531" xlink:href="#DejaVuSerif-Bold-57"/>
       <use x="173.974609" xlink:href="#DejaVuSerif-Bold-57"/>
       <use x="243.554688" xlink:href="#DejaVuSerif-Bold-53"/>
      </g>
     </g>
    </g>
    <g id="text_13">
     <!-- e -->
     <defs>
      <path d="M 40.09375 29.296875 
Q 40.09375 39.546875 38.1875 43.671875 
Q 36.28125 47.796875 31.6875 47.796875 
Q 27.25 47.796875 25.3125 43.75 
Q 23.390625 39.703125 23.390625 30.171875 
L 23.390625 29.296875 
z
M 59.078125 23.484375 
L 23.390625 23.484375 
L 23.390625 23.09375 
Q 23.390625 13.03125 26.40625 8.5625 
Q 29.4375 4.109375 36.1875 4.109375 
Q 41.796875 4.109375 45.265625 7.078125 
Q 48.734375 10.0625 49.703125 15.71875 
L 57.8125 15.71875 
Q 55.71875 6.890625 49.46875 2.734375 
Q 43.21875 -1.421875 31.984375 -1.421875 
Q 18.5 -1.421875 11.296875 5.6875 
Q 4.109375 12.796875 4.109375 25.984375 
Q 4.109375 38.875 11.46875 46.09375 
Q 18.84375 53.328125 31.984375 53.328125 
Q 44.875 53.328125 51.75 45.734375 
Q 58.640625 38.140625 59.078125 23.484375 
z
" id="DejaVuSerif-Bold-101"/>
     </defs>
     <g transform="translate(25.43625 244.953281)rotate(-90)scale(0.24 -0.24)">
      <use xlink:href="#DejaVuSerif-Bold-101"/>
     </g>
    </g>
   </g>
   <g id="line2d_12">
    <path clip-path="url(#pb31138863c)" d="M 95.655 175.334716 
L 106.815 175.334716 
L 117.975 175.334716 
L 129.135 175.334716 
L 140.295 175.334716 
L 151.455 175.334716 
L 162.615 175.334716 
L 173.775 175.334716 
L 184.935 175.334716 
L 196.095 175.334716 
L 207.255 175.334716 
L 218.415 175.334716 
L 229.575 175.334716 
L 240.735 175.334716 
L 251.895 175.334716 
L 263.055 175.334716 
L 274.215 175.334716 
L 285.375 175.334716 
L 296.535 175.334716 
L 307.695 175.334716 
L 318.855 175.334716 
L 330.015 175.334716 
L 341.175 175.334716 
L 352.335 175.334716 
L 363.495 175.334716 
L 374.655 175.334716 
L 385.815 175.334716 
L 396.975 175.334716 
L 408.135 175.334716 
L 419.295 175.334716 
L 430.455 175.334716 
L 441.615 175.334716 
L 452.775 175.334716 
L 463.935 175.334716 
L 475.095 175.334716 
L 486.255 175.334716 
L 497.415 175.334716 
L 508.575 175.334716 
L 519.735 175.334716 
L 530.895 175.334716 
L 542.055 175.334716 
L 553.215 175.334716 
L 564.375 175.334716 
L 575.535 175.334716 
L 586.695 175.334716 
L 597.855 175.334716 
L 609.015 175.334716 
" style="fill:none;stroke:#ff0000;stroke-dasharray:7.4,3.2;stroke-dashoffset:0;stroke-width:2;"/>
   </g>
   <g id="text_14">
    <g id="patch_3">
     <path d="M 326.055 170.318716 
L 499.415 170.318716 
L 499.415 135.998716 
L 326.055 135.998716 
z
" style="fill:#ffffff;opacity:0.1;stroke:#ffffff;stroke-linejoin:miter;"/>
    </g>
    <!-- $1-e=\left(\frac{M}{m}\right)^{-1/3}$ -->
    <defs>
     <path d="M 10.59375 25.78125 
L 73.1875 25.78125 
L 73.1875 14.703125 
L 10.59375 14.703125 
z
M 10.59375 48 
L 73.1875 48 
L 73.1875 36.921875 
L 10.59375 36.921875 
z
" id="DejaVuSerif-Bold-61"/>
     <path d="M 43.90625 -6.296875 
L 43.90625 -12.59375 
Q 29.59375 0.90625 22.6875 15.25 
Q 15.796875 29.59375 15.796875 48.90625 
Q 15.796875 67.90625 22.75 82.453125 
Q 29.703125 97 43.90625 110.40625 
L 43.90625 104.09375 
Q 36.203125 94.703125 32 82.203125 
Q 27.796875 69.703125 27.796875 48.90625 
Q 27.796875 34.40625 30.140625 23.34375 
Q 32.5 12.296875 35.703125 6.046875 
Q 38.90625 -0.203125 43.90625 -6.296875 
z
" id="STIXSizeOneSym-Bold-40"/>
     <path d="M 4.203125 0 
L 4.203125 5.90625 
L 13.484375 5.90625 
L 13.484375 67 
L 4.203125 67 
L 4.203125 72.90625 
L 34.28125 72.90625 
L 55.078125 26.125 
L 75.984375 72.90625 
L 106 72.90625 
L 106 67 
L 96.6875 67 
L 96.6875 5.90625 
L 106 5.90625 
L 106 0 
L 68.5 0 
L 68.5 5.90625 
L 77.78125 5.90625 
L 77.78125 61.53125 
L 55.171875 10.6875 
L 42.828125 10.6875 
L 20.3125 61.53125 
L 20.3125 5.90625 
L 29.59375 5.90625 
L 29.59375 0 
z
" id="DejaVuSerif-Bold-77"/>
     <path d="M 60.6875 43.40625 
Q 64.3125 48.578125 68.5 50.953125 
Q 72.703125 53.328125 78.328125 53.328125 
Q 87.25 53.328125 91.671875 48.265625 
Q 96.09375 43.21875 96.09375 33.015625 
L 96.09375 5.90625 
L 103.515625 5.90625 
L 103.515625 0 
L 72.609375 0 
L 72.609375 5.90625 
L 78.8125 5.90625 
L 78.8125 30.421875 
Q 78.8125 40.140625 77.3125 42.671875 
Q 75.828125 45.21875 71.78125 45.21875 
Q 67.1875 45.21875 64.640625 41.671875 
Q 62.109375 38.140625 62.109375 31.59375 
L 62.109375 5.90625 
L 68.3125 5.90625 
L 68.3125 0 
L 38.625 0 
L 38.625 5.90625 
L 44.828125 5.90625 
L 44.828125 30.421875 
Q 44.828125 40.140625 43.3125 42.671875 
Q 41.796875 45.21875 37.796875 45.21875 
Q 33.15625 45.21875 30.609375 41.671875 
Q 28.078125 38.140625 28.078125 31.59375 
L 28.078125 5.90625 
L 34.28125 5.90625 
L 34.28125 0 
L 3.421875 0 
L 3.421875 5.90625 
L 10.796875 5.90625 
L 10.796875 46 
L 3.421875 46 
L 3.421875 51.90625 
L 28.078125 51.90625 
L 28.078125 44.578125 
Q 31.109375 49.125 35.015625 51.21875 
Q 38.921875 53.328125 44.28125 53.328125 
Q 50.640625 53.328125 54.59375 50.90625 
Q 58.546875 48.484375 60.6875 43.40625 
z
" id="DejaVuSerif-Bold-109"/>
     <path d="M 2.90625 104.09375 
L 2.90625 110.40625 
Q 17.203125 96.90625 24.09375 82.546875 
Q 31 68.203125 31 48.90625 
Q 31 29.90625 24.046875 15.34375 
Q 17.09375 0.796875 2.90625 -12.59375 
L 2.90625 -6.296875 
Q 10.59375 3.09375 14.796875 15.59375 
Q 19 28.09375 19 48.90625 
Q 19 63.40625 16.640625 74.453125 
Q 14.296875 85.5 11.09375 91.75 
Q 7.90625 98 2.90625 104.09375 
z
" id="STIXSizeOneSym-Bold-41"/>
    </defs>
    <g style="fill:#ff0000;" transform="translate(330.015 160.858716)scale(0.22 -0.22)">
     <use transform="translate(0 0.114063)" xlink:href="#DejaVuSerif-Bold-49"/>
     <use transform="translate(90.742188 0.114063)" xlink:href="#DejaVuSerif-Bold-8722"/>
     <use transform="translate(195.693359 0.114063)" xlink:href="#DejaVuSerif-Bold-101"/>
     <use transform="translate(280.478516 0.114063)" xlink:href="#DejaVuSerif-Bold-61"/>
     <use transform="translate(385.429688 -12.364062)scale(0.972472)" xlink:href="#STIXSizeOneSym-Bold-40"/>
     <use transform="translate(430.935364 43.965625)scale(0.7)" xlink:href="#DejaVuSerif-Bold-77"/>
     <use transform="translate(432.935364 -24.614062)scale(0.7)" xlink:href="#DejaVuSerif-Bold-109"/>
     <use transform="translate(520.920715 -12.364062)scale(0.972472)" xlink:href="#STIXSizeOneSym-Bold-41"/>
     <use transform="translate(567.334751 36.448438)scale(0.7)" xlink:href="#DejaVuSerif-Bold-8722"/>
     <use transform="translate(625.987095 36.448438)scale(0.7)" xlink:href="#DejaVuSerif-Bold-49"/>
     <use transform="translate(674.693149 36.448438)scale(0.7)" xlink:href="#DejaVuSerif-Bold-47"/>
     <use transform="translate(700.259556 36.448438)scale(0.7)" xlink:href="#DejaVuSerif-Bold-51"/>
     <path d="M 430.935364 18.965625 
L 430.935364 25.215625 
L 508.420715 25.215625 
L 508.420715 18.965625 
L 430.935364 18.965625 
z
"/>
    </g>
   </g>
   <g id="patch_4">
    <path d="M 106.815 459.078281 
L 106.815 15.558281 
" style="fill:none;stroke:#333333;stroke-linecap:square;stroke-linejoin:miter;stroke-width:0.8;"/>
   </g>
   <g id="patch_5">
    <path d="M 553.215 459.078281 
L 553.215 15.558281 
" style="fill:none;stroke:#333333;stroke-linecap:square;stroke-linejoin:miter;stroke-width:0.8;"/>
   </g>
   <g id="patch_6">
    <path d="M 106.815 459.078281 
L 553.215 459.078281 
" style="fill:none;stroke:#333333;stroke-linecap:square;stroke-linejoin:miter;stroke-width:0.8;"/>
   </g>
   <g id="patch_7">
    <path d="M 106.815 15.558281 
L 553.215 15.558281 
" style="fill:none;stroke:#333333;stroke-linecap:square;stroke-linejoin:miter;stroke-width:0.8;"/>
   </g>
   <g id="text_15">
    <!-- $M_{bh}=4\times 10^6 M_{\odot}$ -->
    <defs>
     <path d="M 9.71875 5.90625 
L 9.71875 70.125 
L 2.296875 70.125 
L 2.296875 75.984375 
L 27 75.984375 
L 27 45.3125 
Q 29.203125 49.359375 32.90625 51.34375 
Q 36.625 53.328125 42.09375 53.328125 
Q 53.171875 53.328125 59.546875 46.015625 
Q 65.921875 38.71875 65.921875 25.984375 
Q 65.921875 13.234375 59.546875 5.90625 
Q 53.171875 -1.421875 42.09375 -1.421875 
Q 36.625 -1.421875 32.90625 0.5625 
Q 29.203125 2.546875 27 6.59375 
L 27 0 
L 2.296875 0 
L 2.296875 5.90625 
z
M 27 23.390625 
Q 27 14.3125 29.3125 10.25 
Q 31.640625 6.203125 36.8125 6.203125 
Q 42.140625 6.203125 44.3125 10.5 
Q 46.484375 14.796875 46.484375 25.984375 
Q 46.484375 37.15625 44.3125 41.421875 
Q 42.140625 45.703125 36.8125 45.703125 
Q 31.640625 45.703125 29.3125 41.640625 
Q 27 37.59375 27 28.515625 
z
" id="DejaVuSerif-Bold-98"/>
     <path d="M 3.421875 0 
L 3.421875 5.90625 
L 10.796875 5.90625 
L 10.796875 70.125 
L 3.078125 70.125 
L 3.078125 75.984375 
L 28.078125 75.984375 
L 28.078125 44.578125 
Q 31.203125 49.21875 35.203125 51.265625 
Q 39.203125 53.328125 45.3125 53.328125 
Q 54.046875 53.328125 58.515625 48.171875 
Q 62.984375 43.015625 62.984375 33.015625 
L 62.984375 5.90625 
L 70.40625 5.90625 
L 70.40625 0 
L 39.40625 0 
L 39.40625 5.90625 
L 45.703125 5.90625 
L 45.703125 33.5 
Q 45.703125 40.09375 44.015625 42.65625 
Q 42.328125 45.21875 38.1875 45.21875 
Q 32.953125 45.21875 30.515625 41.375 
Q 28.078125 37.546875 28.078125 29.203125 
L 28.078125 5.90625 
L 34.421875 5.90625 
L 34.421875 0 
z
" id="DejaVuSerif-Bold-104"/>
     <path d="M 70.90625 52.78125 
L 49.421875 31.296875 
L 70.90625 9.8125 
L 63.375 2.296875 
L 41.890625 23.78125 
L 20.40625 2.296875 
L 12.890625 9.8125 
L 34.421875 31.296875 
L 12.890625 52.78125 
L 20.40625 60.40625 
L 41.890625 38.921875 
L 63.375 60.40625 
z
" id="DejaVuSerif-Bold-215"/>
     <path d="M 24.609375 43.21875 
Q 27.78125 45.75 31.703125 47.015625 
Q 35.640625 48.296875 40.28125 48.296875 
Q 51.46875 48.296875 57.828125 41.75 
Q 64.203125 35.203125 64.203125 23.78125 
Q 64.203125 11.71875 57.03125 5.140625 
Q 49.859375 -1.421875 36.625 -1.421875 
Q 21.6875 -1.421875 13.984375 7.59375 
Q 6.296875 16.609375 6.296875 34.078125 
Q 6.296875 53.953125 14.84375 64.078125 
Q 23.390625 74.21875 40.1875 74.21875 
Q 44.578125 74.21875 49.609375 73.484375 
Q 54.640625 72.75 60.40625 71.296875 
L 60.40625 58.40625 
L 54.5 58.40625 
Q 53.265625 63.375 49.875 65.9375 
Q 46.484375 68.5 41.109375 68.5 
Q 32.421875 68.5 28.53125 62.546875 
Q 24.65625 56.59375 24.609375 43.21875 
z
M 35.5 4.296875 
Q 40.53125 4.296875 42.671875 8.5625 
Q 44.828125 12.84375 44.828125 23.390625 
Q 44.828125 33.9375 42.671875 38.203125 
Q 40.53125 42.484375 35.5 42.484375 
Q 30.46875 42.484375 28.34375 38.203125 
Q 26.21875 33.9375 26.21875 23.390625 
Q 26.21875 12.84375 28.34375 8.5625 
Q 30.46875 4.296875 35.5 4.296875 
z
" id="DejaVuSerif-Bold-54"/>
     <path d="M 38.09375 22.125 
Q 32.625 27.546875 32.625 31.34375 
Q 32.625 35.15625 35.359375 37.890625 
Q 38.09375 40.625 41.890625 40.625 
Q 45.75 40.625 48.484375 37.890625 
Q 51.21875 35.15625 51.21875 31.34375 
Q 51.21875 27.546875 48.484375 24.828125 
Q 45.75 22.125 41.890625 22.125 
Q 38.09375 22.125 32.625 27.546875 
z
M 27.203125 46.046875 
Q 21.78125 36.765625 21.78125 31.34375 
Q 21.78125 25.921875 24.484375 21.28125 
Q 27.203125 16.65625 31.828125 13.9375 
Q 36.46875 11.234375 41.890625 11.234375 
Q 47.3125 11.234375 51.953125 13.9375 
Q 56.59375 16.65625 59.296875 21.28125 
Q 62.015625 25.921875 62.015625 31.34375 
Q 62.015625 36.765625 59.296875 41.40625 
Q 56.59375 46.046875 51.953125 48.75 
Q 47.3125 51.46875 41.890625 51.46875 
Q 36.46875 51.46875 31.828125 48.75 
Q 27.203125 46.046875 21.78125 36.765625 
z
M 18.953125 8.40625 
Q 10.546875 22.859375 10.546875 31.34375 
Q 10.546875 39.84375 14.75 47.0625 
Q 18.953125 54.296875 26.171875 58.5 
Q 33.40625 62.703125 41.890625 62.703125 
Q 50.390625 62.703125 57.609375 58.5 
Q 64.84375 54.296875 69.046875 47.0625 
Q 73.25 39.84375 73.25 31.34375 
Q 73.25 22.859375 69.046875 15.625 
Q 64.84375 8.40625 57.609375 4.203125 
Q 50.390625 0 41.890625 0 
Q 33.40625 0 26.171875 4.203125 
Q 18.953125 8.40625 10.546875 22.859375 
z
" id="DejaVuSerif-Bold-8857"/>
    </defs>
    <g style="fill:#ffffff;" transform="translate(117.975 34.302969)scale(0.22 -0.22)">
     <use transform="translate(0 0.7125)" xlink:href="#DejaVuSerif-Bold-77"/>
     <use transform="translate(111.601719 -14.859375)scale(0.7)" xlink:href="#DejaVuSerif-Bold-98"/>
     <use transform="translate(160.547031 -14.859375)scale(0.7)" xlink:href="#DejaVuSerif-Bold-104"/>
     <use transform="translate(235.198008 0.7125)" xlink:href="#DejaVuSerif-Bold-61"/>
     <use transform="translate(340.14918 0.7125)" xlink:href="#DejaVuSerif-Bold-52"/>
     <use transform="translate(430.891367 0.7125)" xlink:href="#DejaVuSerif-Bold-215"/>
     <use transform="translate(535.842539 0.7125)" xlink:href="#DejaVuSerif-Bold-49"/>
     <use transform="translate(605.422617 0.7125)" xlink:href="#DejaVuSerif-Bold-48"/>
     <use transform="translate(675.911055 37.046875)scale(0.7)" xlink:href="#DejaVuSerif-Bold-54"/>
     <use transform="translate(727.212422 0.7125)" xlink:href="#DejaVuSerif-Bold-77"/>
     <use transform="translate(838.814141 -14.859375)scale(0.7)" xlink:href="#DejaVuSerif-Bold-8857"/>
    </g>
    <!-- $e_{bin}: 0$ -->
    <defs>
     <path d="M 9.1875 66.609375 
Q 9.1875 70.5625 11.921875 73.265625 
Q 14.65625 75.984375 18.609375 75.984375 
Q 22.46875 75.984375 25.171875 73.265625 
Q 27.875 70.5625 27.875 66.609375 
Q 27.875 62.75 25.171875 60.03125 
Q 22.46875 57.328125 18.609375 57.328125 
Q 14.65625 57.328125 11.921875 60.015625 
Q 9.1875 62.703125 9.1875 66.609375 
z
M 28.078125 5.90625 
L 35.5 5.90625 
L 35.5 0 
L 3.421875 0 
L 3.421875 5.90625 
L 10.796875 5.90625 
L 10.796875 46 
L 3.421875 46 
L 3.421875 51.90625 
L 28.078125 51.90625 
z
" id="DejaVuSerif-Bold-105"/>
     <path d="M 3.421875 0 
L 3.421875 5.90625 
L 10.796875 5.90625 
L 10.796875 46 
L 3.421875 46 
L 3.421875 51.90625 
L 28.078125 51.90625 
L 28.078125 44.578125 
Q 31.203125 49.21875 35.203125 51.265625 
Q 39.203125 53.328125 45.3125 53.328125 
Q 54.046875 53.328125 58.515625 48.171875 
Q 62.984375 43.015625 62.984375 33.015625 
L 62.984375 5.90625 
L 70.40625 5.90625 
L 70.40625 0 
L 39.40625 0 
L 39.40625 5.90625 
L 45.703125 5.90625 
L 45.703125 33.5 
Q 45.703125 40.09375 44.015625 42.65625 
Q 42.328125 45.21875 38.1875 45.21875 
Q 32.953125 45.21875 30.515625 41.375 
Q 28.078125 37.546875 28.078125 29.203125 
L 28.078125 5.90625 
L 34.421875 5.90625 
L 34.421875 0 
z
" id="DejaVuSerif-Bold-110"/>
     <path d="M 9.1875 39.703125 
Q 9.1875 43.5625 11.890625 46.296875 
Q 14.59375 49.03125 18.40625 49.03125 
Q 22.21875 49.03125 24.953125 46.265625 
Q 27.6875 43.5 27.6875 39.703125 
Q 27.6875 35.890625 24.96875 33.203125 
Q 22.265625 30.515625 18.40625 30.515625 
Q 14.546875 30.515625 11.859375 33.203125 
Q 9.1875 35.890625 9.1875 39.703125 
z
M 9.1875 7.90625 
Q 9.1875 11.71875 11.890625 14.453125 
Q 14.59375 17.1875 18.40625 17.1875 
Q 22.21875 17.1875 24.953125 14.453125 
Q 27.6875 11.71875 27.6875 7.90625 
Q 27.6875 4.046875 24.953125 1.3125 
Q 22.21875 -1.421875 18.40625 -1.421875 
Q 14.59375 -1.421875 11.890625 1.3125 
Q 9.1875 4.046875 9.1875 7.90625 
z
" id="DejaVuSerif-Bold-58"/>
    </defs>
    <g style="fill:#ffffff;" transform="translate(117.975 58.938156)scale(0.22 -0.22)">
     <use transform="translate(0 0.78125)" xlink:href="#DejaVuSerif-Bold-101"/>
     <use transform="translate(64.531406 -14.790625)scale(0.7)" xlink:href="#DejaVuSerif-Bold-98"/>
     <use transform="translate(113.476719 -14.790625)scale(0.7)" xlink:href="#DejaVuSerif-Bold-105"/>
     <use transform="translate(140.068516 -14.790625)scale(0.7)" xlink:href="#DejaVuSerif-Bold-110"/>
     <use transform="translate(214.719492 0.78125)" xlink:href="#DejaVuSerif-Bold-58"/>
     <use transform="translate(272.795664 0.78125)" xlink:href="#DejaVuSerif-Bold-48"/>
    </g>
   </g>
  </g>
  <g id="axes_2">
   <g id="patch_8">
    <path clip-path="url(#pc2a69442a7)" d="M 581.115 459.078281 
L 581.115 403.638281 
L 581.115 70.998281 
L 581.115 15.558281 
L 603.291 15.558281 
L 603.291 70.998281 
L 603.291 403.638281 
L 603.291 459.078281 
z
" style="fill:#ffffff;stroke:#ffffff;stroke-linejoin:miter;stroke-width:0.01;"/>
   </g>
   <g id="QuadMesh_1">
    <path clip-path="url(#pc2a69442a7)" d="M 581.115 459.078281 
L 603.291 459.078281 
L 603.291 403.638281 
L 581.115 403.638281 
L 581.115 459.078281 
" style="fill:#48186a;"/>
    <path clip-path="url(#pc2a69442a7)" d="M 581.115 403.638281 
L 603.291 403.638281 
L 603.291 348.198281 
L 581.115 348.198281 
L 581.115 403.638281 
" style="fill:#424086;"/>
    <path clip-path="url(#pc2a69442a7)" d="M 581.115 348.198281 
L 603.291 348.198281 
L 603.291 292.758281 
L 581.115 292.758281 
L 581.115 348.198281 
" style="fill:#33638d;"/>
    <path clip-path="url(#pc2a69442a7)" d="M 581.115 292.758281 
L 603.291 292.758281 
L 603.291 237.318281 
L 581.115 237.318281 
L 581.115 292.758281 
" style="fill:#26828e;"/>
    <path clip-path="url(#pc2a69442a7)" d="M 581.115 237.318281 
L 603.291 237.318281 
L 603.291 181.878281 
L 581.115 181.878281 
L 581.115 237.318281 
" style="fill:#1fa088;"/>
    <path clip-path="url(#pc2a69442a7)" d="M 581.115 181.878281 
L 603.291 181.878281 
L 603.291 126.438281 
L 581.115 126.438281 
L 581.115 181.878281 
" style="fill:#3fbc73;"/>
    <path clip-path="url(#pc2a69442a7)" d="M 581.115 126.438281 
L 603.291 126.438281 
L 603.291 70.998281 
L 581.115 70.998281 
L 581.115 126.438281 
" style="fill:#84d44b;"/>
    <path clip-path="url(#pc2a69442a7)" d="M 581.115 70.998281 
L 603.291 70.998281 
L 603.291 15.558281 
L 581.115 15.558281 
L 581.115 70.998281 
" style="fill:#d8e219;"/>
   </g>
   <g id="matplotlib.axis_3"/>
   <g id="matplotlib.axis_4">
    <g id="ytick_7">
     <g id="line2d_13">
      <defs>
       <path d="M 0 0 
L -6 0 
" id="mdefe6bb634" style="stroke:#333333;stroke-width:0.8;"/>
      </defs>
      <g>
       <use style="fill:#333333;stroke:#333333;stroke-width:0.8;" x="603.291" xlink:href="#mdefe6bb634" y="459.078281"/>
      </g>
     </g>
     <g id="text_16">
      <!-- 0.0 -->
      <g style="fill:#333333;" transform="translate(606.791 467.436562)scale(0.22 -0.22)">
       <use xlink:href="#DejaVuSerif-Bold-48"/>
       <use x="69.580078" xlink:href="#DejaVuSerif-Bold-46"/>
       <use x="104.394531" xlink:href="#DejaVuSerif-Bold-48"/>
      </g>
     </g>
    </g>
    <g id="ytick_8">
     <g id="line2d_14">
      <g>
       <use style="fill:#333333;stroke:#333333;stroke-width:0.8;" x="603.291" xlink:href="#mdefe6bb634" y="403.638281"/>
      </g>
     </g>
     <g id="text_17">
      <!-- 0.1 -->
      <g style="fill:#333333;" transform="translate(606.791 411.996562)scale(0.22 -0.22)">
       <use xlink:href="#DejaVuSerif-Bold-48"/>
       <use x="69.580078" xlink:href="#DejaVuSerif-Bold-46"/>
       <use x="104.394531" xlink:href="#DejaVuSerif-Bold-49"/>
      </g>
     </g>
    </g>
    <g id="ytick_9">
     <g id="line2d_15">
      <g>
       <use style="fill:#333333;stroke:#333333;stroke-width:0.8;" x="603.291" xlink:href="#mdefe6bb634" y="348.198281"/>
      </g>
     </g>
     <g id="text_18">
      <!-- 0.2 -->
      <g style="fill:#333333;" transform="translate(606.791 356.556563)scale(0.22 -0.22)">
       <use xlink:href="#DejaVuSerif-Bold-48"/>
       <use x="69.580078" xlink:href="#DejaVuSerif-Bold-46"/>
       <use x="104.394531" xlink:href="#DejaVuSerif-Bold-50"/>
      </g>
     </g>
    </g>
    <g id="ytick_10">
     <g id="line2d_16">
      <g>
       <use style="fill:#333333;stroke:#333333;stroke-width:0.8;" x="603.291" xlink:href="#mdefe6bb634" y="292.758281"/>
      </g>
     </g>
     <g id="text_19">
      <!-- 0.3 -->
      <g style="fill:#333333;" transform="translate(606.791 301.116562)scale(0.22 -0.22)">
       <use xlink:href="#DejaVuSerif-Bold-48"/>
       <use x="69.580078" xlink:href="#DejaVuSerif-Bold-46"/>
       <use x="104.394531" xlink:href="#DejaVuSerif-Bold-51"/>
      </g>
     </g>
    </g>
    <g id="ytick_11">
     <g id="line2d_17">
      <g>
       <use style="fill:#333333;stroke:#333333;stroke-width:0.8;" x="603.291" xlink:href="#mdefe6bb634" y="237.318281"/>
      </g>
     </g>
     <g id="text_20">
      <!-- 0.4 -->
      <g style="fill:#333333;" transform="translate(606.791 245.676562)scale(0.22 -0.22)">
       <use xlink:href="#DejaVuSerif-Bold-48"/>
       <use x="69.580078" xlink:href="#DejaVuSerif-Bold-46"/>
       <use x="104.394531" xlink:href="#DejaVuSerif-Bold-52"/>
      </g>
     </g>
    </g>
    <g id="ytick_12">
     <g id="line2d_18">
      <g>
       <use style="fill:#333333;stroke:#333333;stroke-width:0.8;" x="603.291" xlink:href="#mdefe6bb634" y="181.878281"/>
      </g>
     </g>
     <g id="text_21">
      <!-- 0.5 -->
      <g style="fill:#333333;" transform="translate(606.791 190.236562)scale(0.22 -0.22)">
       <use xlink:href="#DejaVuSerif-Bold-48"/>
       <use x="69.580078" xlink:href="#DejaVuSerif-Bold-46"/>
       <use x="104.394531" xlink:href="#DejaVuSerif-Bold-53"/>
      </g>
     </g>
    </g>
    <g id="ytick_13">
     <g id="line2d_19">
      <g>
       <use style="fill:#333333;stroke:#333333;stroke-width:0.8;" x="603.291" xlink:href="#mdefe6bb634" y="126.438281"/>
      </g>
     </g>
     <g id="text_22">
      <!-- 0.6 -->
      <g style="fill:#333333;" transform="translate(606.791 134.796562)scale(0.22 -0.22)">
       <use xlink:href="#DejaVuSerif-Bold-48"/>
       <use x="69.580078" xlink:href="#DejaVuSerif-Bold-46"/>
       <use x="104.394531" xlink:href="#DejaVuSerif-Bold-54"/>
      </g>
     </g>
    </g>
    <g id="ytick_14">
     <g id="line2d_20">
      <g>
       <use style="fill:#333333;stroke:#333333;stroke-width:0.8;" x="603.291" xlink:href="#mdefe6bb634" y="70.998281"/>
      </g>
     </g>
     <g id="text_23">
      <!-- 0.7 -->
      <g style="fill:#333333;" transform="translate(606.791 79.356562)scale(0.22 -0.22)">
       <use xlink:href="#DejaVuSerif-Bold-48"/>
       <use x="69.580078" xlink:href="#DejaVuSerif-Bold-46"/>
       <use x="104.394531" xlink:href="#DejaVuSerif-Bold-55"/>
      </g>
     </g>
    </g>
    <g id="ytick_15">
     <g id="line2d_21">
      <g>
       <use style="fill:#333333;stroke:#333333;stroke-width:0.8;" x="603.291" xlink:href="#mdefe6bb634" y="15.558281"/>
      </g>
     </g>
     <g id="text_24">
      <!-- 0.8 -->
      <g style="fill:#333333;" transform="translate(606.791 23.916562)scale(0.22 -0.22)">
       <use xlink:href="#DejaVuSerif-Bold-48"/>
       <use x="69.580078" xlink:href="#DejaVuSerif-Bold-46"/>
       <use x="104.394531" xlink:href="#DejaVuSerif-Bold-56"/>
      </g>
     </g>
    </g>
   </g>
   <g id="patch_9">
    <path d="M 581.115 459.078281 
L 581.115 403.638281 
L 581.115 70.998281 
L 581.115 15.558281 
L 603.291 15.558281 
L 603.291 70.998281 
L 603.291 403.638281 
L 603.291 459.078281 
z
" style="fill:none;stroke:#333333;stroke-linejoin:miter;stroke-width:0.8;"/>
   </g>
  </g>
 </g>
 <defs>
  <clipPath id="pb31138863c">
   <rect height="443.52" width="446.4" x="106.815" y="15.558281"/>
  </clipPath>
  <clipPath id="pc2a69442a7">
   <rect height="443.52" width="22.176" x="581.115" y="15.558281"/>
  </clipPath>
 </defs>
</svg>
