<?xml version="1.0" encoding="utf-8" standalone="no"?>
<!DOCTYPE svg PUBLIC "-//W3C//DTD SVG 1.1//EN"
  "http://www.w3.org/Graphics/SVG/1.1/DTD/svg11.dtd">
<!-- Created with matplotlib (https://matplotlib.org/) -->
<svg height="626.4pt" version="1.1" viewBox="0 0 1166.4 626.4" width="1166.4pt" xmlns="http://www.w3.org/2000/svg" xmlns:xlink="http://www.w3.org/1999/xlink">
 <defs>
  <style type="text/css">
*{stroke-linecap:butt;stroke-linejoin:round;}
  </style>
 </defs>
 <g id="figure_1">
  <g id="patch_1">
   <path d="M 0 626.4 
L 1166.4 626.4 
L 1166.4 0 
L 0 0 
z
" style="fill:#ffffff;"/>
  </g>
  <g id="axes_1">
   <g id="patch_2">
    <path d="M 7.2 567.180625 
L 1159.2 567.180625 
L 1159.2 7.2 
L 7.2 7.2 
z
" style="fill:#ffffff;"/>
   </g>
   <g id="Quiver_1">
    <path clip-path="url(#pa05f873241)" d="M 942.896983 289.4743 
L 824.521667 273.769448 
L 826.199621 278.640439 
L 804.2688 268.758313 
L 828.01772 264.936517 
L 825.1277 269.201474 
L 943.503017 284.906325 
L 942.896983 289.4743 
"/>
   </g>
   <g id="matplotlib.axis_1">
    <g id="xtick_1">
     <g id="line2d_1">
      <defs>
       <path d="M 0 0 
L 0 -6 
" id="me0681aa760" style="stroke:#333333;stroke-width:0.8;"/>
      </defs>
      <g>
       <use style="fill:#333333;stroke:#333333;stroke-width:0.8;" x="43.2" xlink:href="#me0681aa760" y="567.180625"/>
      </g>
     </g>
     <g id="text_1">
      <!-- $\mathdefault{−15}$ -->
      <defs>
       <path d="M 10.59375 36.921875 
L 73.1875 36.921875 
L 73.1875 25.6875 
L 10.59375 25.6875 
z
" id="DejaVuSerif-Bold-8722"/>
       <path d="M 13.71875 0 
L 13.71875 5.90625 
L 27.390625 5.90625 
L 27.390625 64.890625 
L 12.203125 55.90625 
L 12.203125 63.1875 
L 30.515625 74.21875 
L 45.90625 74.21875 
L 45.90625 5.90625 
L 59.625 5.90625 
L 59.625 0 
z
" id="DejaVuSerif-Bold-49"/>
       <path d="M 56.390625 72.90625 
L 56.390625 60.109375 
L 17.390625 60.109375 
L 17.390625 44.09375 
Q 20.609375 46.578125 24.5625 47.84375 
Q 28.515625 49.125 32.90625 49.125 
Q 46.390625 49.125 54.203125 42.3125 
Q 62.015625 35.5 62.015625 23.78125 
Q 62.015625 11.859375 54.203125 5.21875 
Q 46.390625 -1.421875 32.328125 -1.421875 
Q 26.375 -1.421875 20.484375 -0.4375 
Q 14.59375 0.53125 8.203125 2.59375 
L 8.203125 18.5 
L 14.0625 18.5 
Q 14.359375 11.328125 17.796875 7.8125 
Q 21.234375 4.296875 27.984375 4.296875 
Q 35.15625 4.296875 38.625 9.109375 
Q 42.09375 13.921875 42.09375 23.78125 
Q 42.09375 33.5 38.6875 38.296875 
Q 35.296875 43.109375 28.421875 43.109375 
Q 24.703125 43.109375 21.796875 41.578125 
Q 18.890625 40.046875 16.40625 36.8125 
L 11.53125 36.8125 
L 11.53125 72.90625 
z
" id="DejaVuSerif-Bold-53"/>
      </defs>
      <g style="fill:#333333;" transform="translate(18.67 587.397187)scale(0.22 -0.22)">
       <use transform="translate(0 0.78125)" xlink:href="#DejaVuSerif-Bold-8722"/>
       <use transform="translate(83.789062 0.78125)" xlink:href="#DejaVuSerif-Bold-49"/>
       <use transform="translate(153.369141 0.78125)" xlink:href="#DejaVuSerif-Bold-53"/>
      </g>
     </g>
    </g>
    <g id="xtick_2">
     <g id="line2d_2">
      <g>
       <use style="fill:#333333;stroke:#333333;stroke-width:0.8;" x="223.2" xlink:href="#me0681aa760" y="567.180625"/>
      </g>
     </g>
     <g id="text_2">
      <!-- $\mathdefault{−10}$ -->
      <defs>
       <path d="M 34.8125 4.296875 
Q 40.671875 4.296875 42.84375 9.609375 
Q 45.015625 14.9375 45.015625 36.375 
Q 45.015625 57.671875 42.84375 63.078125 
Q 40.671875 68.5 34.8125 68.5 
Q 28.953125 68.5 26.78125 63.171875 
Q 24.609375 57.859375 24.609375 36.375 
Q 24.609375 14.9375 26.78125 9.609375 
Q 28.953125 4.296875 34.8125 4.296875 
z
M 34.8125 -1.421875 
Q 20.21875 -1.421875 12.453125 8.3125 
Q 4.6875 18.0625 4.6875 36.375 
Q 4.6875 54.6875 12.453125 64.453125 
Q 20.21875 74.21875 34.8125 74.21875 
Q 49.359375 74.21875 57.125 64.453125 
Q 64.890625 54.6875 64.890625 36.375 
Q 64.890625 18.0625 57.125 8.3125 
Q 49.359375 -1.421875 34.8125 -1.421875 
z
" id="DejaVuSerif-Bold-48"/>
      </defs>
      <g style="fill:#333333;" transform="translate(198.67 587.397187)scale(0.22 -0.22)">
       <use transform="translate(0 0.78125)" xlink:href="#DejaVuSerif-Bold-8722"/>
       <use transform="translate(83.789062 0.78125)" xlink:href="#DejaVuSerif-Bold-49"/>
       <use transform="translate(153.369141 0.78125)" xlink:href="#DejaVuSerif-Bold-48"/>
      </g>
     </g>
    </g>
    <g id="xtick_3">
     <g id="line2d_3">
      <g>
       <use style="fill:#333333;stroke:#333333;stroke-width:0.8;" x="403.2" xlink:href="#me0681aa760" y="567.180625"/>
      </g>
     </g>
     <g id="text_3">
      <!-- $\mathdefault{−5}$ -->
      <g style="fill:#333333;" transform="translate(386.26 587.397187)scale(0.22 -0.22)">
       <use transform="translate(0 0.09375)" xlink:href="#DejaVuSerif-Bold-8722"/>
       <use transform="translate(83.789062 0.09375)" xlink:href="#DejaVuSerif-Bold-53"/>
      </g>
     </g>
    </g>
    <g id="xtick_4">
     <g id="line2d_4">
      <g>
       <use style="fill:#333333;stroke:#333333;stroke-width:0.8;" x="583.2" xlink:href="#me0681aa760" y="567.180625"/>
      </g>
     </g>
     <g id="text_4">
      <!-- $\mathdefault{0}$ -->
      <g style="fill:#333333;" transform="translate(575.5 587.397187)scale(0.22 -0.22)">
       <use transform="translate(0 0.78125)" xlink:href="#DejaVuSerif-Bold-48"/>
      </g>
     </g>
    </g>
    <g id="xtick_5">
     <g id="line2d_5">
      <g>
       <use style="fill:#333333;stroke:#333333;stroke-width:0.8;" x="763.2" xlink:href="#me0681aa760" y="567.180625"/>
      </g>
     </g>
     <g id="text_5">
      <!-- $\mathdefault{5}$ -->
      <g style="fill:#333333;" transform="translate(755.5 587.397187)scale(0.22 -0.22)">
       <use transform="translate(0 0.09375)" xlink:href="#DejaVuSerif-Bold-53"/>
      </g>
     </g>
    </g>
    <g id="xtick_6">
     <g id="line2d_6">
      <g>
       <use style="fill:#333333;stroke:#333333;stroke-width:0.8;" x="943.2" xlink:href="#me0681aa760" y="567.180625"/>
      </g>
     </g>
     <g id="text_6">
      <!-- $\mathdefault{10}$ -->
      <g style="fill:#333333;" transform="translate(927.8 587.397187)scale(0.22 -0.22)">
       <use transform="translate(0 0.78125)" xlink:href="#DejaVuSerif-Bold-49"/>
       <use transform="translate(69.580078 0.78125)" xlink:href="#DejaVuSerif-Bold-48"/>
      </g>
     </g>
    </g>
    <g id="xtick_7">
     <g id="line2d_7">
      <g>
       <use style="fill:#333333;stroke:#333333;stroke-width:0.8;" x="1123.2" xlink:href="#me0681aa760" y="567.180625"/>
      </g>
     </g>
     <g id="text_7">
      <!-- $\mathdefault{15}$ -->
      <g style="fill:#333333;" transform="translate(1107.8 587.397187)scale(0.22 -0.22)">
       <use transform="translate(0 0.78125)" xlink:href="#DejaVuSerif-Bold-49"/>
       <use transform="translate(69.580078 0.78125)" xlink:href="#DejaVuSerif-Bold-53"/>
      </g>
     </g>
    </g>
    <g id="text_8">
     <!-- x [pc] -->
     <defs>
      <path d="M 35.109375 33.109375 
L 44.28125 46 
L 37.890625 46 
L 37.890625 51.90625 
L 58.109375 51.90625 
L 58.109375 46 
L 51.21875 46 
L 37.984375 27.484375 
L 53.421875 5.90625 
L 60.296875 5.90625 
L 60.296875 0 
L 27.296875 0 
L 27.296875 5.90625 
L 33.984375 5.90625 
L 24.21875 19.578125 
L 14.40625 5.90625 
L 21.390625 5.90625 
L 21.390625 0 
L 0 0 
L 0 5.90625 
L 7.421875 5.90625 
L 21.1875 25.296875 
L 6.296875 46 
L 0.484375 46 
L 0.484375 51.90625 
L 32.171875 51.90625 
L 32.171875 46 
L 25.875 46 
z
" id="DejaVuSerif-Bold-120"/>
      <path id="DejaVuSerif-Bold-32"/>
      <path d="M 12.5 75.984375 
L 40.1875 75.984375 
L 40.1875 70.125 
L 29.78125 70.125 
L 29.78125 -7.328125 
L 40.1875 -7.328125 
L 40.1875 -13.1875 
L 12.5 -13.1875 
z
" id="DejaVuSerif-Bold-91"/>
      <path d="M 27 28.515625 
L 27 23.390625 
Q 27 14.3125 29.3125 10.25 
Q 31.640625 6.203125 36.8125 6.203125 
Q 42.140625 6.203125 44.3125 10.5 
Q 46.484375 14.796875 46.484375 25.984375 
Q 46.484375 37.15625 44.3125 41.421875 
Q 42.140625 45.703125 36.8125 45.703125 
Q 31.640625 45.703125 29.3125 41.640625 
Q 27 37.59375 27 28.515625 
z
M 9.71875 46 
L 2.296875 46 
L 2.296875 51.90625 
L 27 51.90625 
L 27 45.3125 
Q 29.203125 49.359375 32.90625 51.34375 
Q 36.625 53.328125 42.09375 53.328125 
Q 53.171875 53.328125 59.546875 46.015625 
Q 65.921875 38.71875 65.921875 25.984375 
Q 65.921875 13.234375 59.546875 5.90625 
Q 53.171875 -1.421875 42.09375 -1.421875 
Q 36.625 -1.421875 32.90625 0.5625 
Q 29.203125 2.546875 27 6.59375 
L 27 -14.890625 
L 35.015625 -14.890625 
L 35.015625 -20.796875 
L 2.296875 -20.796875 
L 2.296875 -14.890625 
L 9.71875 -14.890625 
z
" id="DejaVuSerif-Bold-112"/>
      <path d="M 56.390625 16.21875 
Q 54.546875 7.328125 48.796875 2.953125 
Q 43.0625 -1.421875 33.203125 -1.421875 
Q 19.34375 -1.421875 11.71875 5.75 
Q 4.109375 12.9375 4.109375 25.984375 
Q 4.109375 38.875 11.625 46.09375 
Q 19.140625 53.328125 32.515625 53.328125 
Q 37.9375 53.328125 43.453125 52.296875 
Q 48.96875 51.265625 54.6875 49.21875 
L 54.6875 34.8125 
L 49.21875 34.8125 
Q 48.4375 41.40625 45.359375 44.59375 
Q 42.28125 47.796875 36.71875 47.796875 
Q 29.5 47.796875 26.4375 42.90625 
Q 23.390625 38.03125 23.390625 25.984375 
Q 23.390625 14.203125 26.359375 9.15625 
Q 29.34375 4.109375 36.078125 4.109375 
Q 41.3125 4.109375 44.453125 7.234375 
Q 47.609375 10.359375 48.296875 16.21875 
z
" id="DejaVuSerif-Bold-99"/>
      <path d="M 34.8125 75.984375 
L 34.8125 -13.1875 
L 7.078125 -13.1875 
L 7.078125 -7.328125 
L 17.484375 -7.328125 
L 17.484375 70.125 
L 7.078125 70.125 
L 7.078125 75.984375 
z
" id="DejaVuSerif-Bold-93"/>
     </defs>
     <g transform="translate(544.815 614.20875)scale(0.24 -0.24)">
      <use xlink:href="#DejaVuSerif-Bold-120"/>
      <use x="59.619141" xlink:href="#DejaVuSerif-Bold-32"/>
      <use x="94.433594" xlink:href="#DejaVuSerif-Bold-91"/>
      <use x="141.748047" xlink:href="#DejaVuSerif-Bold-112"/>
      <use x="211.669922" xlink:href="#DejaVuSerif-Bold-99"/>
      <use x="272.558594" xlink:href="#DejaVuSerif-Bold-93"/>
     </g>
    </g>
   </g>
   <g id="matplotlib.axis_2"/>
   <g id="line2d_8">
    <path clip-path="url(#pa05f873241)" d="M 1167.4 130.974148 
L 1162.652118 126.017216 
L 1156.679434 120.1341 
L 1150.49565 114.416179 
L 1144.10688 108.869106 
L 1137.519442 103.498367 
L 1130.73985 98.309273 
L 1123.774808 93.306955 
L 1116.631204 88.49636 
L 1109.316102 83.882244 
L 1101.836734 79.469171 
L 1094.200498 75.261504 
L 1086.414944 71.263404 
L 1078.487771 67.478825 
L 1070.426817 63.911509 
L 1062.240055 60.564983 
L 1053.93558 57.442557 
L 1045.521603 54.547318 
L 1037.006444 51.88213 
L 1028.398525 49.449628 
L 1019.706356 47.252217 
L 1010.938534 45.29207 
L 1002.103728 43.571126 
L 993.210675 42.091085 
L 984.268169 40.853413 
L 975.285052 39.859332 
L 966.270207 39.109826 
L 957.232549 38.605636 
L 948.181016 38.347261 
L 939.124556 38.334955 
L 930.072127 38.568731 
L 921.032679 39.048358 
L 912.015152 39.773362 
L 903.028462 40.743025 
L 894.081496 41.95639 
L 885.183101 43.412255 
L 876.342076 45.109181 
L 867.567164 47.045491 
L 858.867042 49.21927 
L 850.250313 51.628368 
L 841.725498 54.270402 
L 833.301027 57.142761 
L 824.98523 60.242603 
L 816.78633 63.566864 
L 808.712435 67.112257 
L 800.771529 70.875275 
L 792.971464 74.852197 
L 785.319954 79.039091 
L 777.824564 83.431816 
L 770.492707 88.02603 
L 763.331632 92.817188 
L 756.348421 97.800553 
L 749.54998 102.971197 
L 742.94303 108.324008 
L 736.534106 113.853691 
L 730.329544 119.55478 
L 724.335481 125.421635 
L 718.557843 131.448457 
L 713.002343 137.629285 
L 707.674476 143.958007 
L 702.57951 150.428365 
L 697.722483 157.033962 
L 693.108198 163.768264 
L 688.741217 170.624612 
L 684.62586 177.596227 
L 680.766195 184.676215 
L 677.166039 191.857575 
L 674.475162 197.670882 
L 671.954357 203.540844 
L 669.605221 209.463746 
L 667.429238 215.435841 
L 665.427787 221.453348 
L 663.602135 227.51246 
L 661.953436 233.60934 
L 660.482734 239.740131 
L 659.19096 245.900953 
L 658.078932 252.087907 
L 657.147353 258.297076 
L 656.396813 264.524531 
L 655.827787 270.766331 
L 655.440634 277.018526 
L 655.235601 283.277158 
L 655.212817 289.538267 
L 655.372295 295.79789 
L 655.713936 302.052065 
L 656.237523 308.296835 
L 656.942725 314.528246 
L 657.829095 320.742356 
L 658.896073 326.93523 
L 660.142982 333.102951 
L 661.569035 339.241615 
L 663.173328 345.347336 
L 664.954846 351.41625 
L 666.912462 357.444516 
L 669.044936 363.42832 
L 671.350919 369.363873 
L 673.828952 375.24742 
L 676.477467 381.075237 
L 679.294786 386.843635 
L 683.051091 393.965017 
L 687.064646 400.980815 
L 691.331482 407.884091 
L 695.847379 414.668017 
L 700.607872 421.325887 
L 705.608255 427.851116 
L 710.843581 434.237251 
L 716.308674 440.477979 
L 721.99813 446.567127 
L 727.906322 452.498674 
L 734.027409 458.266755 
L 740.355338 463.865666 
L 746.88385 469.289871 
L 753.606492 474.534005 
L 760.516613 479.592884 
L 767.607383 484.461504 
L 774.871788 489.135052 
L 782.302645 493.608905 
L 789.892607 497.87864 
L 797.634167 501.940035 
L 805.519671 505.789073 
L 813.541321 509.421948 
L 821.691185 512.835069 
L 829.961204 516.025059 
L 838.343199 518.988764 
L 846.828883 521.723255 
L 855.409864 524.225826 
L 864.077657 526.494003 
L 872.82369 528.525544 
L 881.639315 530.318438 
L 890.515815 531.870914 
L 899.444412 533.181436 
L 908.416277 534.248709 
L 917.422538 535.071676 
L 926.454289 535.649524 
L 935.5026 535.981682 
L 944.558522 536.067821 
L 953.6131 535.907857 
L 962.657382 535.501946 
L 971.682423 534.850491 
L 980.679298 533.954136 
L 989.639113 532.813767 
L 998.553005 531.430511 
L 1007.412162 529.805738 
L 1016.207822 527.941052 
L 1024.931288 525.838299 
L 1033.573933 523.499558 
L 1042.127212 520.927141 
L 1050.582666 518.123591 
L 1058.931933 515.091682 
L 1067.166759 511.834412 
L 1075.278999 508.355 
L 1083.260633 504.656889 
L 1091.103766 500.743735 
L 1098.800644 496.619407 
L 1106.343656 492.287984 
L 1113.725342 487.753749 
L 1120.938402 483.021185 
L 1127.975706 478.094974 
L 1134.830292 472.979984 
L 1141.495384 467.681276 
L 1147.964391 462.204088 
L 1154.230915 456.553837 
L 1160.288759 450.73611 
L 1166.131935 444.756659 
L 1167.4 443.406477 
L 1167.4 443.406477 
" style="fill:none;stroke:#ff0000;stroke-linecap:square;stroke-width:2;"/>
   </g>
   <g id="line2d_9">
    <defs>
     <path d="M -5 5 
L 5 5 
L 5 -5 
L -5 -5 
z
" id="m44241aad40"/>
    </defs>
    <g clip-path="url(#pa05f873241)">
     <use x="583.2" xlink:href="#m44241aad40" y="287.190313"/>
    </g>
   </g>
   <g id="patch_3">
    <path d="M 7.2 567.180625 
L 7.2 7.2 
" style="fill:none;stroke:#333333;stroke-linecap:square;stroke-linejoin:miter;stroke-width:0.8;"/>
   </g>
   <g id="patch_4">
    <path d="M 1159.2 567.180625 
L 1159.2 7.2 
" style="fill:none;stroke:#333333;stroke-linecap:square;stroke-linejoin:miter;stroke-width:0.8;"/>
   </g>
   <g id="patch_5">
    <path d="M 7.2 567.180625 
L 1159.2 567.180625 
" style="fill:none;stroke:#333333;stroke-linecap:square;stroke-linejoin:miter;stroke-width:0.8;"/>
   </g>
   <g id="patch_6">
    <path d="M 7.2 7.2 
L 1159.2 7.2 
" style="fill:none;stroke:#333333;stroke-linecap:square;stroke-linejoin:miter;stroke-width:0.8;"/>
   </g>
   <g id="text_9">
    <!-- Cloud 1 -->
    <defs>
     <path d="M 74.515625 20.796875 
Q 71.625 9.515625 64.15625 4.046875 
Q 56.6875 -1.421875 44.09375 -1.421875 
Q 25.640625 -1.421875 14.921875 8.765625 
Q 4.203125 18.953125 4.203125 36.375 
Q 4.203125 53.859375 14.921875 64.03125 
Q 25.640625 74.21875 44.09375 74.21875 
Q 50.59375 74.21875 57.625 72.65625 
Q 64.65625 71.09375 72.515625 67.921875 
L 72.515625 50 
L 66.3125 50 
Q 64.40625 59.1875 59.375 63.75 
Q 54.34375 68.3125 46.09375 68.3125 
Q 35.453125 68.3125 30.265625 60.46875 
Q 25.09375 52.640625 25.09375 36.375 
Q 25.09375 20.125 30.265625 12.3125 
Q 35.453125 4.5 46.1875 4.5 
Q 53.46875 4.5 58.078125 8.546875 
Q 62.703125 12.59375 64.796875 20.796875 
z
" id="DejaVuSerif-Bold-67"/>
     <path d="M 28.078125 5.90625 
L 35.5 5.90625 
L 35.5 0 
L 3.421875 0 
L 3.421875 5.90625 
L 10.796875 5.90625 
L 10.796875 70.125 
L 3.421875 70.125 
L 3.421875 75.984375 
L 28.078125 75.984375 
z
" id="DejaVuSerif-Bold-108"/>
     <path d="M 33.40625 4.109375 
Q 38.875 4.109375 41.09375 8.796875 
Q 43.3125 13.484375 43.3125 25.984375 
Q 43.3125 38.484375 41.109375 43.140625 
Q 38.921875 47.796875 33.40625 47.796875 
Q 27.875 47.796875 25.625 43.078125 
Q 23.390625 38.375 23.390625 25.984375 
Q 23.390625 13.578125 25.625 8.84375 
Q 27.875 4.109375 33.40625 4.109375 
z
M 33.40625 -1.421875 
Q 19.671875 -1.421875 11.890625 5.875 
Q 4.109375 13.1875 4.109375 25.984375 
Q 4.109375 38.8125 11.890625 46.0625 
Q 19.671875 53.328125 33.40625 53.328125 
Q 47.171875 53.328125 54.9375 46.0625 
Q 62.703125 38.8125 62.703125 25.984375 
Q 62.703125 13.1875 54.90625 5.875 
Q 47.125 -1.421875 33.40625 -1.421875 
z
" id="DejaVuSerif-Bold-111"/>
     <path d="M 61.921875 51.90625 
L 61.921875 5.90625 
L 69.28125 5.90625 
L 69.28125 0 
L 44.578125 0 
L 44.578125 7.328125 
Q 41.5 2.6875 37.5 0.625 
Q 33.5 -1.421875 27.390625 -1.421875 
Q 18.65625 -1.421875 14.1875 3.734375 
Q 9.71875 8.890625 9.71875 18.890625 
L 9.71875 46 
L 2.296875 46 
L 2.296875 51.90625 
L 27 51.90625 
L 27 21.578125 
Q 27 11.921875 28.609375 9.296875 
Q 30.21875 6.6875 34.515625 6.6875 
Q 39.75 6.6875 42.15625 10.546875 
Q 44.578125 14.40625 44.578125 22.796875 
L 44.578125 46 
L 38.28125 46 
L 38.28125 51.90625 
z
" id="DejaVuSerif-Bold-117"/>
     <path d="M 42.921875 23.390625 
L 42.921875 28.515625 
Q 42.921875 37.59375 40.578125 41.640625 
Q 38.234375 45.703125 33.109375 45.703125 
Q 27.734375 45.703125 25.5625 41.421875 
Q 23.390625 37.15625 23.390625 25.984375 
Q 23.390625 14.796875 25.578125 10.5 
Q 27.78125 6.203125 33.109375 6.203125 
Q 38.234375 6.203125 40.578125 10.25 
Q 42.921875 14.3125 42.921875 23.390625 
z
M 60.203125 5.90625 
L 67.578125 5.90625 
L 67.578125 0 
L 42.921875 0 
L 42.921875 6.59375 
Q 40.71875 2.546875 36.984375 0.5625 
Q 33.25 -1.421875 27.78125 -1.421875 
Q 16.75 -1.421875 10.421875 5.90625 
Q 4.109375 13.234375 4.109375 25.984375 
Q 4.109375 38.765625 10.421875 46.046875 
Q 16.75 53.328125 27.78125 53.328125 
Q 33.25 53.328125 36.984375 51.34375 
Q 40.71875 49.359375 42.921875 45.3125 
L 42.921875 70.125 
L 35.5 70.125 
L 35.5 75.984375 
L 60.203125 75.984375 
z
" id="DejaVuSerif-Bold-100"/>
    </defs>
    <g transform="translate(799.2 180.986424)scale(0.24 -0.24)">
     <use xlink:href="#DejaVuSerif-Bold-67"/>
     <use x="79.589844" xlink:href="#DejaVuSerif-Bold-108"/>
     <use x="117.578125" xlink:href="#DejaVuSerif-Bold-111"/>
     <use x="184.277344" xlink:href="#DejaVuSerif-Bold-117"/>
     <use x="256.982422" xlink:href="#DejaVuSerif-Bold-100"/>
     <use x="326.904297" xlink:href="#DejaVuSerif-Bold-32"/>
     <use x="361.71875" xlink:href="#DejaVuSerif-Bold-49"/>
    </g>
    <!-- v=82 km/s, $10^5 M_{\odot}$ -->
    <defs>
     <path d="M 22.3125 0 
L 3.90625 46 
L -1.8125 46 
L -1.8125 51.90625 
L 27.984375 51.90625 
L 27.984375 46 
L 21.6875 46 
L 34.8125 13.1875 
L 47.90625 46 
L 41.109375 46 
L 41.109375 51.90625 
L 60.59375 51.90625 
L 60.59375 46 
L 54.59375 46 
L 36.1875 0 
z
" id="DejaVuSerif-Bold-118"/>
     <path d="M 10.59375 25.78125 
L 73.1875 25.78125 
L 73.1875 14.703125 
L 10.59375 14.703125 
z
M 10.59375 48 
L 73.1875 48 
L 73.1875 36.921875 
L 10.59375 36.921875 
z
" id="DejaVuSerif-Bold-61"/>
     <path d="M 46.484375 38.8125 
Q 55.171875 37.40625 59.6875 32.421875 
Q 64.203125 27.4375 64.203125 19.390625 
Q 64.203125 9.328125 56.609375 3.953125 
Q 49.03125 -1.421875 34.71875 -1.421875 
Q 20.40625 -1.421875 12.78125 3.953125 
Q 5.171875 9.328125 5.171875 19.390625 
Q 5.171875 27.4375 9.71875 32.421875 
Q 14.265625 37.40625 22.90625 38.8125 
Q 15.234375 40.578125 11.421875 44.703125 
Q 7.625 48.828125 7.625 55.171875 
Q 7.625 64.453125 14.546875 69.328125 
Q 21.484375 74.21875 34.71875 74.21875 
Q 47.90625 74.21875 54.859375 69.328125 
Q 61.8125 64.453125 61.8125 55.171875 
Q 61.8125 48.828125 57.984375 44.703125 
Q 54.15625 40.578125 46.484375 38.8125 
z
M 42.921875 54.984375 
Q 42.921875 62.703125 41.0625 65.59375 
Q 39.203125 68.5 34.71875 68.5 
Q 30.171875 68.5 28.34375 65.59375 
Q 26.515625 62.703125 26.515625 54.984375 
Q 26.515625 47.3125 28.34375 44.453125 
Q 30.171875 41.609375 34.71875 41.609375 
Q 39.265625 41.609375 41.09375 44.453125 
Q 42.921875 47.3125 42.921875 54.984375 
z
M 44.828125 20.21875 
Q 44.828125 29.15625 42.546875 32.515625 
Q 40.28125 35.890625 34.71875 35.890625 
Q 29.109375 35.890625 26.859375 32.515625 
Q 24.609375 29.15625 24.609375 20.21875 
Q 24.609375 11.1875 26.875 7.734375 
Q 29.15625 4.296875 34.71875 4.296875 
Q 40.234375 4.296875 42.53125 7.734375 
Q 44.828125 11.1875 44.828125 20.21875 
z
" id="DejaVuSerif-Bold-56"/>
     <path d="M 13.1875 54.890625 
L 7.328125 54.890625 
L 7.328125 70.609375 
Q 13.28125 72.40625 19.109375 73.3125 
Q 24.953125 74.21875 30.90625 74.21875 
Q 44.828125 74.21875 52.609375 68.53125 
Q 60.40625 62.84375 60.40625 52.6875 
Q 60.40625 45.453125 56.109375 39.71875 
Q 51.8125 33.984375 39.703125 26.125 
L 19.390625 12.796875 
L 53.90625 12.796875 
L 53.90625 21.390625 
L 60.59375 21.390625 
L 60.59375 0 
L 6.6875 0 
L 6.6875 11.921875 
L 17.484375 19.390625 
Q 31.296875 28.90625 35.890625 35.59375 
Q 40.484375 42.28125 40.484375 51.21875 
Q 40.484375 59.671875 36.984375 64.078125 
Q 33.5 68.5 26.8125 68.5 
Q 21.046875 68.5 17.578125 65.015625 
Q 14.109375 61.53125 13.1875 54.890625 
z
" id="DejaVuSerif-Bold-50"/>
     <path d="M 34.625 0 
L 3.421875 0 
L 3.421875 5.90625 
L 10.796875 5.90625 
L 10.796875 70.125 
L 3.421875 70.125 
L 3.421875 75.984375 
L 28.078125 75.984375 
L 28.078125 27.203125 
L 49.03125 46 
L 42.828125 46 
L 42.828125 51.90625 
L 66.5 51.90625 
L 66.5 46 
L 56.890625 46 
L 43.5 33.984375 
L 65.375 5.90625 
L 71 5.90625 
L 71 0 
L 41.21875 0 
L 41.21875 5.90625 
L 47.3125 5.90625 
L 32.90625 24.421875 
L 28.078125 20.125 
L 28.078125 5.90625 
L 34.625 5.90625 
z
" id="DejaVuSerif-Bold-107"/>
     <path d="M 60.6875 43.40625 
Q 64.3125 48.578125 68.5 50.953125 
Q 72.703125 53.328125 78.328125 53.328125 
Q 87.25 53.328125 91.671875 48.265625 
Q 96.09375 43.21875 96.09375 33.015625 
L 96.09375 5.90625 
L 103.515625 5.90625 
L 103.515625 0 
L 72.609375 0 
L 72.609375 5.90625 
L 78.8125 5.90625 
L 78.8125 30.421875 
Q 78.8125 40.140625 77.3125 42.671875 
Q 75.828125 45.21875 71.78125 45.21875 
Q 67.1875 45.21875 64.640625 41.671875 
Q 62.109375 38.140625 62.109375 31.59375 
L 62.109375 5.90625 
L 68.3125 5.90625 
L 68.3125 0 
L 38.625 0 
L 38.625 5.90625 
L 44.828125 5.90625 
L 44.828125 30.421875 
Q 44.828125 40.140625 43.3125 42.671875 
Q 41.796875 45.21875 37.796875 45.21875 
Q 33.15625 45.21875 30.609375 41.671875 
Q 28.078125 38.140625 28.078125 31.59375 
L 28.078125 5.90625 
L 34.28125 5.90625 
L 34.28125 0 
L 3.421875 0 
L 3.421875 5.90625 
L 10.796875 5.90625 
L 10.796875 46 
L 3.421875 46 
L 3.421875 51.90625 
L 28.078125 51.90625 
L 28.078125 44.578125 
Q 31.109375 49.125 35.015625 51.21875 
Q 38.921875 53.328125 44.28125 53.328125 
Q 50.640625 53.328125 54.59375 50.90625 
Q 58.546875 48.484375 60.6875 43.40625 
z
" id="DejaVuSerif-Bold-109"/>
     <path d="M 25.6875 72.90625 
L 36.53125 72.90625 
L 10.796875 -9.28125 
L 0 -9.28125 
z
" id="DejaVuSerif-Bold-47"/>
     <path d="M 4.6875 1.515625 
L 4.6875 16.015625 
L 10.203125 16.015625 
Q 10.890625 10.203125 14.546875 7.15625 
Q 18.21875 4.109375 24.515625 4.109375 
Q 29.78125 4.109375 32.59375 5.9375 
Q 35.40625 7.765625 35.40625 11.1875 
Q 35.40625 14.3125 33.625 16.015625 
Q 31.84375 17.71875 26.703125 19 
L 19.578125 20.796875 
Q 11.53125 22.796875 7.90625 26.53125 
Q 4.296875 30.28125 4.296875 36.625 
Q 4.296875 45.0625 10.15625 49.1875 
Q 16.015625 53.328125 28.21875 53.328125 
Q 32.8125 53.328125 38.015625 52.5625 
Q 43.21875 51.8125 49.515625 50.203125 
L 49.515625 37.109375 
L 44 37.109375 
Q 43.5625 42.4375 40.203125 45.109375 
Q 36.859375 47.796875 30.609375 47.796875 
Q 25.34375 47.796875 22.625 46.109375 
Q 19.921875 44.4375 19.921875 41.21875 
Q 19.921875 38.578125 21.484375 37.0625 
Q 23.046875 35.546875 27.09375 34.515625 
L 34.1875 32.71875 
Q 44.390625 30.125 48.296875 26.3125 
Q 52.203125 22.515625 52.203125 15.71875 
Q 52.203125 6.9375 45.921875 2.75 
Q 39.65625 -1.421875 26.421875 -1.421875 
Q 21.578125 -1.421875 16.15625 -0.6875 
Q 10.75 0.046875 4.6875 1.515625 
z
" id="DejaVuSerif-Bold-115"/>
     <path d="M 1.3125 -9.625 
Q 6.390625 -5.515625 8.78125 -0.4375 
Q 11.1875 4.640625 11.1875 11.375 
L 11.1875 15.578125 
L 25.09375 15.578125 
L 25.09375 15.1875 
Q 25.09375 4.390625 20.578125 -3.390625 
Q 16.0625 -11.1875 6.6875 -16.5 
z
" id="DejaVuSerif-Bold-44"/>
     <path d="M 4.203125 0 
L 4.203125 5.90625 
L 13.484375 5.90625 
L 13.484375 67 
L 4.203125 67 
L 4.203125 72.90625 
L 34.28125 72.90625 
L 55.078125 26.125 
L 75.984375 72.90625 
L 106 72.90625 
L 106 67 
L 96.6875 67 
L 96.6875 5.90625 
L 106 5.90625 
L 106 0 
L 68.5 0 
L 68.5 5.90625 
L 77.78125 5.90625 
L 77.78125 61.53125 
L 55.171875 10.6875 
L 42.828125 10.6875 
L 20.3125 61.53125 
L 20.3125 5.90625 
L 29.59375 5.90625 
L 29.59375 0 
z
" id="DejaVuSerif-Bold-77"/>
     <path d="M 38.09375 22.125 
Q 32.625 27.546875 32.625 31.34375 
Q 32.625 35.15625 35.359375 37.890625 
Q 38.09375 40.625 41.890625 40.625 
Q 45.75 40.625 48.484375 37.890625 
Q 51.21875 35.15625 51.21875 31.34375 
Q 51.21875 27.546875 48.484375 24.828125 
Q 45.75 22.125 41.890625 22.125 
Q 38.09375 22.125 32.625 27.546875 
z
M 27.203125 46.046875 
Q 21.78125 36.765625 21.78125 31.34375 
Q 21.78125 25.921875 24.484375 21.28125 
Q 27.203125 16.65625 31.828125 13.9375 
Q 36.46875 11.234375 41.890625 11.234375 
Q 47.3125 11.234375 51.953125 13.9375 
Q 56.59375 16.65625 59.296875 21.28125 
Q 62.015625 25.921875 62.015625 31.34375 
Q 62.015625 36.765625 59.296875 41.40625 
Q 56.59375 46.046875 51.953125 48.75 
Q 47.3125 51.46875 41.890625 51.46875 
Q 36.46875 51.46875 31.828125 48.75 
Q 27.203125 46.046875 21.78125 36.765625 
z
M 18.953125 8.40625 
Q 10.546875 22.859375 10.546875 31.34375 
Q 10.546875 39.84375 14.75 47.0625 
Q 18.953125 54.296875 26.171875 58.5 
Q 33.40625 62.703125 41.890625 62.703125 
Q 50.390625 62.703125 57.609375 58.5 
Q 64.84375 54.296875 69.046875 47.0625 
Q 73.25 39.84375 73.25 31.34375 
Q 73.25 22.859375 69.046875 15.625 
Q 64.84375 8.40625 57.609375 4.203125 
Q 50.390625 0 41.890625 0 
Q 33.40625 0 26.171875 4.203125 
Q 18.953125 8.40625 10.546875 22.859375 
z
" id="DejaVuSerif-Bold-8857"/>
    </defs>
    <g transform="translate(799.2 210.228174)scale(0.24 -0.24)">
     <use transform="translate(0 0.63125)" xlink:href="#DejaVuSerif-Bold-118"/>
     <use transform="translate(58.105469 0.63125)" xlink:href="#DejaVuSerif-Bold-61"/>
     <use transform="translate(141.894531 0.63125)" xlink:href="#DejaVuSerif-Bold-56"/>
     <use transform="translate(211.474609 0.63125)" xlink:href="#DejaVuSerif-Bold-50"/>
     <use transform="translate(281.054688 0.63125)" xlink:href="#DejaVuSerif-Bold-32"/>
     <use transform="translate(315.869141 0.63125)" xlink:href="#DejaVuSerif-Bold-107"/>
     <use transform="translate(385.15625 0.63125)" xlink:href="#DejaVuSerif-Bold-109"/>
     <use transform="translate(490.966797 0.63125)" xlink:href="#DejaVuSerif-Bold-47"/>
     <use transform="translate(527.490234 0.63125)" xlink:href="#DejaVuSerif-Bold-115"/>
     <use transform="translate(583.789062 0.63125)" xlink:href="#DejaVuSerif-Bold-44"/>
     <use transform="translate(618.603516 0.63125)" xlink:href="#DejaVuSerif-Bold-32"/>
     <use transform="translate(653.417969 0.63125)" xlink:href="#DejaVuSerif-Bold-49"/>
     <use transform="translate(722.998047 0.63125)" xlink:href="#DejaVuSerif-Bold-48"/>
     <use transform="translate(793.486484 36.965625)scale(0.7)" xlink:href="#DejaVuSerif-Bold-53"/>
     <use transform="translate(844.787852 0.63125)" xlink:href="#DejaVuSerif-Bold-77"/>
     <use transform="translate(956.38957 -14.940625)scale(0.7)" xlink:href="#DejaVuSerif-Bold-8857"/>
    </g>
   </g>
   <g id="text_10">
    <!-- Sgr A* -->
    <defs>
     <path d="M 7.71875 3.515625 
L 7.71875 20.796875 
L 13.921875 20.796875 
Q 15.328125 12.59375 20.59375 8.546875 
Q 25.875 4.5 35.203125 4.5 
Q 42.78125 4.5 46.734375 7.375 
Q 50.6875 10.25 50.6875 15.828125 
Q 50.6875 20.21875 48 22.65625 
Q 45.3125 25.09375 36.921875 27.203125 
L 25.984375 29.890625 
Q 15.28125 32.625 10.9375 37.46875 
Q 6.59375 42.328125 6.59375 51.3125 
Q 6.59375 62.15625 13.796875 68.1875 
Q 21 74.21875 33.984375 74.21875 
Q 40.375 74.21875 47.28125 73.140625 
Q 54.203125 72.078125 61.625 69.921875 
L 61.625 53.8125 
L 55.421875 53.8125 
Q 54 61.328125 49.21875 64.8125 
Q 44.4375 68.3125 35.59375 68.3125 
Q 28.375 68.3125 24.6875 65.796875 
Q 21 63.28125 21 58.296875 
Q 21 53.765625 23.53125 51.390625 
Q 26.078125 49.03125 35.984375 46.484375 
L 46.921875 43.796875 
Q 57.078125 41.265625 61.640625 35.890625 
Q 66.21875 30.515625 66.21875 21.09375 
Q 66.21875 10.0625 58.59375 4.3125 
Q 50.984375 -1.421875 36.1875 -1.421875 
Q 29.046875 -1.421875 22.015625 -0.1875 
Q 14.984375 1.03125 7.71875 3.515625 
z
" id="DejaVuSerif-Bold-83"/>
     <path d="M 60.203125 46 
L 60.203125 0.6875 
Q 60.203125 -10.25 52.40625 -16.234375 
Q 44.625 -22.21875 30.421875 -22.21875 
Q 25.25 -22.21875 19.921875 -21.40625 
Q 14.59375 -20.609375 8.984375 -19 
L 8.984375 -6.59375 
L 14.5 -6.59375 
Q 15.234375 -11.71875 18.625 -14.203125 
Q 22.015625 -16.703125 28.328125 -16.703125 
Q 36.328125 -16.703125 39.625 -12.859375 
Q 42.921875 -9.03125 42.921875 0.6875 
L 42.921875 6.59375 
Q 40.71875 2.546875 36.984375 0.5625 
Q 33.25 -1.421875 27.78125 -1.421875 
Q 16.75 -1.421875 10.421875 5.90625 
Q 4.109375 13.234375 4.109375 25.984375 
Q 4.109375 38.765625 10.421875 46.046875 
Q 16.75 53.328125 27.78125 53.328125 
Q 33.25 53.328125 36.984375 51.34375 
Q 40.71875 49.359375 42.921875 45.3125 
L 42.921875 51.90625 
L 67.578125 51.90625 
L 67.578125 46 
z
M 42.921875 28.515625 
Q 42.921875 37.59375 40.578125 41.640625 
Q 38.234375 45.703125 33.109375 45.703125 
Q 27.734375 45.703125 25.5625 41.421875 
Q 23.390625 37.15625 23.390625 25.984375 
Q 23.390625 14.796875 25.578125 10.5 
Q 27.78125 6.203125 33.109375 6.203125 
Q 38.234375 6.203125 40.578125 10.25 
Q 42.921875 14.3125 42.921875 23.390625 
z
" id="DejaVuSerif-Bold-103"/>
     <path d="M 53.71875 52.484375 
L 53.71875 37.015625 
L 48.1875 37.015625 
Q 47.90625 41.15625 45.953125 43.1875 
Q 44 45.21875 40.28125 45.21875 
Q 34.625 45.21875 31.34375 40.234375 
Q 28.078125 35.25 28.078125 26.421875 
L 28.078125 5.90625 
L 37.5 5.90625 
L 37.5 0 
L 3.421875 0 
L 3.421875 5.90625 
L 10.796875 5.90625 
L 10.796875 46 
L 2.875 46 
L 2.875 51.90625 
L 28.078125 51.90625 
L 28.078125 42.671875 
Q 30.609375 48.09375 34.78125 50.703125 
Q 38.96875 53.328125 45.015625 53.328125 
Q 46.53125 53.328125 48.703125 53.09375 
Q 50.875 52.875 53.71875 52.484375 
z
" id="DejaVuSerif-Bold-114"/>
     <path d="M -0.78125 0 
L -0.78125 5.90625 
L 5.171875 5.90625 
L 32.625 72.90625 
L 44.28125 72.90625 
L 71.78125 5.90625 
L 78.71875 5.90625 
L 78.71875 0 
L 44.578125 0 
L 44.578125 5.90625 
L 51.703125 5.90625 
L 45.703125 20.796875 
L 18.3125 20.796875 
L 12.203125 5.90625 
L 20.90625 5.90625 
L 20.90625 0 
z
M 20.703125 26.703125 
L 43.3125 26.703125 
L 32.078125 54.59375 
z
" id="DejaVuSerif-Bold-65"/>
     <path d="M 50.09375 59.1875 
L 32.515625 50.984375 
L 50.09375 42.671875 
L 45.3125 35.109375 
L 29.296875 46.78125 
L 30.609375 27.78125 
L 21.6875 27.78125 
L 23 46.78125 
L 6.984375 35.109375 
L 2.203125 42.671875 
L 19.828125 50.984375 
L 2.203125 59.1875 
L 6.984375 66.890625 
L 23 55.078125 
L 21.6875 74.21875 
L 30.609375 74.21875 
L 29.296875 55.078125 
L 45.3125 66.890625 
z
" id="DejaVuSerif-Bold-42"/>
    </defs>
    <g transform="translate(511.2 256.080278)scale(0.24 -0.24)">
     <use xlink:href="#DejaVuSerif-Bold-83"/>
     <use x="72.216797" xlink:href="#DejaVuSerif-Bold-103"/>
     <use x="142.138672" xlink:href="#DejaVuSerif-Bold-114"/>
     <use x="194.824219" xlink:href="#DejaVuSerif-Bold-32"/>
     <use x="229.638672" xlink:href="#DejaVuSerif-Bold-65"/>
     <use x="307.226562" xlink:href="#DejaVuSerif-Bold-42"/>
    </g>
   </g>
  </g>
 </g>
 <defs>
  <clipPath id="pa05f873241">
   <rect height="559.980625" width="1152" x="7.2" y="7.2"/>
  </clipPath>
 </defs>
</svg>
